G04 #@! TF.FileFunction,Soldermask,Top*
%FSLAX46Y46*%
G04 Gerber Fmt 4.6, Leading zero omitted, Abs format (unit mm)*
G04 Created by KiCad (PCBNEW 4.0.7) date 10/16/19 21:59:32*
%MOMM*%
%LPD*%
G01*
G04 APERTURE LIST*
%ADD10C,0.100000*%
%ADD11R,2.000000X2.000000*%
%ADD12O,2.000000X2.000000*%
%ADD13C,2.000000*%
%ADD14R,2.200000X2.200000*%
%ADD15C,2.200000*%
%ADD16R,2.100000X2.100000*%
%ADD17O,2.100000X2.100000*%
%ADD18C,3.600000*%
%ADD19C,1.924000*%
G04 APERTURE END LIST*
D10*
D11*
X92500000Y-95000000D03*
D12*
X84880000Y-74680000D03*
X92500000Y-92460000D03*
X84880000Y-77220000D03*
X92500000Y-89920000D03*
X84880000Y-79760000D03*
X92500000Y-87380000D03*
X84880000Y-82300000D03*
X92500000Y-84840000D03*
X84880000Y-84840000D03*
X92500000Y-82300000D03*
X84880000Y-87380000D03*
X92500000Y-79760000D03*
X84880000Y-89920000D03*
X92500000Y-77220000D03*
X84880000Y-92460000D03*
X92500000Y-74680000D03*
X84880000Y-95000000D03*
D11*
X115500000Y-41500000D03*
D12*
X130740000Y-79600000D03*
X115500000Y-44040000D03*
X130740000Y-77060000D03*
X115500000Y-46580000D03*
X130740000Y-74520000D03*
X115500000Y-49120000D03*
X130740000Y-71980000D03*
X115500000Y-51660000D03*
X130740000Y-69440000D03*
X115500000Y-54200000D03*
X130740000Y-66900000D03*
X115500000Y-56740000D03*
X130740000Y-64360000D03*
X115500000Y-59280000D03*
X130740000Y-61820000D03*
X115500000Y-61820000D03*
X130740000Y-59280000D03*
X115500000Y-64360000D03*
X130740000Y-56740000D03*
X115500000Y-66900000D03*
X130740000Y-54200000D03*
X115500000Y-69440000D03*
X130740000Y-51660000D03*
X115500000Y-71980000D03*
X130740000Y-49120000D03*
X115500000Y-74520000D03*
X130740000Y-46580000D03*
X115500000Y-77060000D03*
X130740000Y-44040000D03*
X115500000Y-79600000D03*
X130740000Y-41500000D03*
D13*
X116000000Y-93000000D03*
X121000000Y-93000000D03*
X176000000Y-93500000D03*
X171000000Y-93500000D03*
X147000000Y-93000000D03*
X142000000Y-93000000D03*
X125500000Y-36500000D03*
X120500000Y-36500000D03*
X185500000Y-44000000D03*
X185500000Y-49000000D03*
D11*
X101000000Y-129000000D03*
D13*
X101000000Y-126500000D03*
D14*
X76000000Y-114500000D03*
D15*
X73460000Y-114500000D03*
D14*
X76000000Y-105000000D03*
D15*
X73460000Y-105000000D03*
D14*
X76000000Y-95500000D03*
D15*
X73460000Y-95500000D03*
D14*
X76000000Y-86000000D03*
D15*
X73460000Y-86000000D03*
D14*
X76000000Y-76500000D03*
D15*
X73460000Y-76500000D03*
D14*
X76000000Y-67000000D03*
D15*
X73460000Y-67000000D03*
D14*
X76000000Y-57500000D03*
D15*
X73460000Y-57500000D03*
D16*
X101000000Y-139000000D03*
D17*
X101000000Y-136460000D03*
X103540000Y-139000000D03*
X103540000Y-136460000D03*
X106080000Y-139000000D03*
X106080000Y-136460000D03*
X108620000Y-139000000D03*
X108620000Y-136460000D03*
X111160000Y-139000000D03*
X111160000Y-136460000D03*
X113700000Y-139000000D03*
X113700000Y-136460000D03*
X116240000Y-139000000D03*
X116240000Y-136460000D03*
X118780000Y-139000000D03*
X118780000Y-136460000D03*
X121320000Y-139000000D03*
X121320000Y-136460000D03*
X123860000Y-139000000D03*
X123860000Y-136460000D03*
X126400000Y-139000000D03*
X126400000Y-136460000D03*
X128940000Y-139000000D03*
X128940000Y-136460000D03*
X131480000Y-139000000D03*
X131480000Y-136460000D03*
X134020000Y-139000000D03*
X134020000Y-136460000D03*
X136560000Y-139000000D03*
X136560000Y-136460000D03*
X139100000Y-139000000D03*
X139100000Y-136460000D03*
X141640000Y-139000000D03*
X141640000Y-136460000D03*
X144180000Y-139000000D03*
X144180000Y-136460000D03*
X146720000Y-139000000D03*
X146720000Y-136460000D03*
X149260000Y-139000000D03*
X149260000Y-136460000D03*
D18*
X200000000Y-139000000D03*
X55000000Y-139000000D03*
X200000000Y-35000000D03*
X55000000Y-35000000D03*
D13*
X58500000Y-114500000D03*
D12*
X68660000Y-114500000D03*
D13*
X58500000Y-105000000D03*
D12*
X68660000Y-105000000D03*
D13*
X58500000Y-95500000D03*
D12*
X68660000Y-95500000D03*
D13*
X58500000Y-86000000D03*
D12*
X68660000Y-86000000D03*
D13*
X58500000Y-76500000D03*
D12*
X68660000Y-76500000D03*
D13*
X58500000Y-67000000D03*
D12*
X68660000Y-67000000D03*
D13*
X58500000Y-57500000D03*
D12*
X68660000Y-57500000D03*
D11*
X115000000Y-98000000D03*
D12*
X122620000Y-120860000D03*
X115000000Y-100540000D03*
X122620000Y-118320000D03*
X115000000Y-103080000D03*
X122620000Y-115780000D03*
X115000000Y-105620000D03*
X122620000Y-113240000D03*
X115000000Y-108160000D03*
X122620000Y-110700000D03*
X115000000Y-110700000D03*
X122620000Y-108160000D03*
X115000000Y-113240000D03*
X122620000Y-105620000D03*
X115000000Y-115780000D03*
X122620000Y-103080000D03*
X115000000Y-118320000D03*
X122620000Y-100540000D03*
X115000000Y-120860000D03*
X122620000Y-98000000D03*
D11*
X170000000Y-98500000D03*
D12*
X177620000Y-121360000D03*
X170000000Y-101040000D03*
X177620000Y-118820000D03*
X170000000Y-103580000D03*
X177620000Y-116280000D03*
X170000000Y-106120000D03*
X177620000Y-113740000D03*
X170000000Y-108660000D03*
X177620000Y-111200000D03*
X170000000Y-111200000D03*
X177620000Y-108660000D03*
X170000000Y-113740000D03*
X177620000Y-106120000D03*
X170000000Y-116280000D03*
X177620000Y-103580000D03*
X170000000Y-118820000D03*
X177620000Y-101040000D03*
X170000000Y-121360000D03*
X177620000Y-98500000D03*
D11*
X141000000Y-98000000D03*
D12*
X148620000Y-125940000D03*
X141000000Y-100540000D03*
X148620000Y-123400000D03*
X141000000Y-103080000D03*
X148620000Y-120860000D03*
X141000000Y-105620000D03*
X148620000Y-118320000D03*
X141000000Y-108160000D03*
X148620000Y-115780000D03*
X141000000Y-110700000D03*
X148620000Y-113240000D03*
X141000000Y-113240000D03*
X148620000Y-110700000D03*
X141000000Y-115780000D03*
X148620000Y-108160000D03*
X141000000Y-118320000D03*
X148620000Y-105620000D03*
X141000000Y-120860000D03*
X148620000Y-103080000D03*
X141000000Y-123400000D03*
X148620000Y-100540000D03*
X141000000Y-125940000D03*
X148620000Y-98000000D03*
D11*
X164000000Y-44500000D03*
D12*
X179240000Y-77520000D03*
X164000000Y-47040000D03*
X179240000Y-74980000D03*
X164000000Y-49580000D03*
X179240000Y-72440000D03*
X164000000Y-52120000D03*
X179240000Y-69900000D03*
X164000000Y-54660000D03*
X179240000Y-67360000D03*
X164000000Y-57200000D03*
X179240000Y-64820000D03*
X164000000Y-59740000D03*
X179240000Y-62280000D03*
X164000000Y-62280000D03*
X179240000Y-59740000D03*
X164000000Y-64820000D03*
X179240000Y-57200000D03*
X164000000Y-67360000D03*
X179240000Y-54660000D03*
X164000000Y-69900000D03*
X179240000Y-52120000D03*
X164000000Y-72440000D03*
X179240000Y-49580000D03*
X164000000Y-74980000D03*
X179240000Y-47040000D03*
X164000000Y-77520000D03*
X179240000Y-44500000D03*
D19*
X59000000Y-44270000D03*
X197000000Y-44270000D03*
X59000000Y-132270000D03*
X197000000Y-132270000D03*
X131500000Y-129770000D03*
X171500000Y-83770000D03*
X120500000Y-78770000D03*
X89000000Y-82770000D03*
X148000000Y-83770000D03*
M02*
