M48
;DRILL file {KiCad 4.0.7} date 10/16/19 21:59:19
;FORMAT={-:-/ absolute / inch / decimal}
FMAT,2
INCH,TZ
T1C0.016
T2C0.030
T3C0.031
T4C0.035
T5C0.039
T6C0.126
%
G90
G05
M72
T1
X3.7869Y-3.6548
X4.0708Y-3.9089
X4.316Y-3.9337
X4.4486Y-4.4583
X4.4547Y-4.5603
X4.6013Y-4.1415
X4.6336Y-5.0315
X4.6446Y-4.9751
X4.7339Y-3.7268
X5.6044Y-3.9026
X5.7074Y-4.1075
X5.8904Y-3.8205
X5.9785Y-2.5254
X6.0048Y-4.2045
X6.0218Y-2.3339
X7.0944Y-2.1921
T2
X2.3228Y-1.7429
X2.3228Y-5.2075
X3.5039Y-3.2587
X4.7441Y-3.1012
X5.1772Y-5.1091
X5.8268Y-3.298
X6.752Y-3.298
X7.7559Y-1.7429
X7.7559Y-5.2075
T3
X2.3031Y-2.2638
X2.3031Y-2.6378
X2.3031Y-3.0118
X2.3031Y-3.3858
X2.3031Y-3.7598
X2.3031Y-4.1339
X2.3031Y-4.5079
X2.7031Y-2.2638
X2.7031Y-2.6378
X2.7031Y-3.0118
X2.7031Y-3.3858
X2.7031Y-3.7598
X2.7031Y-4.1339
X2.7031Y-4.5079
X3.3417Y-2.9402
X3.3417Y-3.0402
X3.3417Y-3.1402
X3.3417Y-3.2402
X3.3417Y-3.3402
X3.3417Y-3.4402
X3.3417Y-3.5402
X3.3417Y-3.6402
X3.3417Y-3.7402
X3.6417Y-2.9402
X3.6417Y-3.0402
X3.6417Y-3.1402
X3.6417Y-3.2402
X3.6417Y-3.3402
X3.6417Y-3.4402
X3.6417Y-3.5402
X3.6417Y-3.6402
X3.6417Y-3.7402
X3.9764Y-4.9803
X3.9764Y-5.0787
X4.5276Y-3.8583
X4.5276Y-3.9583
X4.5276Y-4.0583
X4.5276Y-4.1583
X4.5276Y-4.2583
X4.5276Y-4.3583
X4.5276Y-4.4583
X4.5276Y-4.5583
X4.5276Y-4.6583
X4.5276Y-4.7583
X4.5472Y-1.6339
X4.5472Y-1.7339
X4.5472Y-1.8339
X4.5472Y-1.9339
X4.5472Y-2.0339
X4.5472Y-2.1339
X4.5472Y-2.2339
X4.5472Y-2.3339
X4.5472Y-2.4339
X4.5472Y-2.5339
X4.5472Y-2.6339
X4.5472Y-2.7339
X4.5472Y-2.8339
X4.5472Y-2.9339
X4.5472Y-3.0339
X4.5472Y-3.1339
X4.5669Y-3.6614
X4.7441Y-1.437
X4.7638Y-3.6614
X4.8276Y-3.8583
X4.8276Y-3.9583
X4.8276Y-4.0583
X4.8276Y-4.1583
X4.8276Y-4.2583
X4.8276Y-4.3583
X4.8276Y-4.4583
X4.8276Y-4.5583
X4.8276Y-4.6583
X4.8276Y-4.7583
X4.9409Y-1.437
X5.1472Y-1.6339
X5.1472Y-1.7339
X5.1472Y-1.8339
X5.1472Y-1.9339
X5.1472Y-2.0339
X5.1472Y-2.1339
X5.1472Y-2.2339
X5.1472Y-2.3339
X5.1472Y-2.4339
X5.1472Y-2.5339
X5.1472Y-2.6339
X5.1472Y-2.7339
X5.1472Y-2.8339
X5.1472Y-2.9339
X5.1472Y-3.0339
X5.1472Y-3.1339
X5.5512Y-3.8583
X5.5512Y-3.9583
X5.5512Y-4.0583
X5.5512Y-4.1583
X5.5512Y-4.2583
X5.5512Y-4.3583
X5.5512Y-4.4583
X5.5512Y-4.5583
X5.5512Y-4.6583
X5.5512Y-4.7583
X5.5512Y-4.8583
X5.5512Y-4.9583
X5.5906Y-3.6614
X5.7874Y-3.6614
X5.8512Y-3.8583
X5.8512Y-3.9583
X5.8512Y-4.0583
X5.8512Y-4.1583
X5.8512Y-4.2583
X5.8512Y-4.3583
X5.8512Y-4.4583
X5.8512Y-4.5583
X5.8512Y-4.6583
X5.8512Y-4.7583
X5.8512Y-4.8583
X5.8512Y-4.9583
X6.4567Y-1.752
X6.4567Y-1.852
X6.4567Y-1.952
X6.4567Y-2.052
X6.4567Y-2.152
X6.4567Y-2.252
X6.4567Y-2.352
X6.4567Y-2.452
X6.4567Y-2.552
X6.4567Y-2.652
X6.4567Y-2.752
X6.4567Y-2.852
X6.4567Y-2.952
X6.4567Y-3.052
X6.6929Y-3.878
X6.6929Y-3.978
X6.6929Y-4.078
X6.6929Y-4.178
X6.6929Y-4.278
X6.6929Y-4.378
X6.6929Y-4.478
X6.6929Y-4.578
X6.6929Y-4.678
X6.6929Y-4.778
X6.7323Y-3.6811
X6.9291Y-3.6811
X6.9929Y-3.878
X6.9929Y-3.978
X6.9929Y-4.078
X6.9929Y-4.178
X6.9929Y-4.278
X6.9929Y-4.378
X6.9929Y-4.478
X6.9929Y-4.578
X6.9929Y-4.678
X6.9929Y-4.778
X7.0567Y-1.752
X7.0567Y-1.852
X7.0567Y-1.952
X7.0567Y-2.052
X7.0567Y-2.152
X7.0567Y-2.252
X7.0567Y-2.352
X7.0567Y-2.452
X7.0567Y-2.552
X7.0567Y-2.652
X7.0567Y-2.752
X7.0567Y-2.852
X7.0567Y-2.952
X7.0567Y-3.052
X7.3031Y-1.7323
X7.3031Y-1.9291
T4
X2.8921Y-2.2638
X2.8921Y-2.6378
X2.8921Y-3.0118
X2.8921Y-3.3858
X2.8921Y-3.7598
X2.8921Y-4.1339
X2.8921Y-4.5079
X2.9921Y-2.2638
X2.9921Y-2.6378
X2.9921Y-3.0118
X2.9921Y-3.3858
X2.9921Y-3.7598
X2.9921Y-4.1339
X2.9921Y-4.5079
T5
X3.9764Y-5.3724
X3.9764Y-5.4724
X4.0764Y-5.3724
X4.0764Y-5.4724
X4.1764Y-5.3724
X4.1764Y-5.4724
X4.2764Y-5.3724
X4.2764Y-5.4724
X4.3764Y-5.3724
X4.3764Y-5.4724
X4.4764Y-5.3724
X4.4764Y-5.4724
X4.5764Y-5.3724
X4.5764Y-5.4724
X4.6764Y-5.3724
X4.6764Y-5.4724
X4.7764Y-5.3724
X4.7764Y-5.4724
X4.8764Y-5.3724
X4.8764Y-5.4724
X4.9764Y-5.3724
X4.9764Y-5.4724
X5.0764Y-5.3724
X5.0764Y-5.4724
X5.1764Y-5.3724
X5.1764Y-5.4724
X5.2764Y-5.3724
X5.2764Y-5.4724
X5.3764Y-5.3724
X5.3764Y-5.4724
X5.4764Y-5.3724
X5.4764Y-5.4724
X5.5764Y-5.3724
X5.5764Y-5.4724
X5.6764Y-5.3724
X5.6764Y-5.4724
X5.7764Y-5.3724
X5.7764Y-5.4724
X5.8764Y-5.3724
X5.8764Y-5.4724
T6
X2.1654Y-1.378
X2.1654Y-5.4724
X7.874Y-1.378
X7.874Y-5.4724
T0
M30
