G04 #@! TF.FileFunction,Copper,L2,Bot,Signal*
%FSLAX46Y46*%
G04 Gerber Fmt 4.6, Leading zero omitted, Abs format (unit mm)*
G04 Created by KiCad (PCBNEW 4.0.7) date 10/16/19 21:59:32*
%MOMM*%
%LPD*%
G01*
G04 APERTURE LIST*
%ADD10C,0.100000*%
%ADD11R,1.600000X1.600000*%
%ADD12O,1.600000X1.600000*%
%ADD13C,1.600000*%
%ADD14R,1.800000X1.800000*%
%ADD15C,1.800000*%
%ADD16R,1.700000X1.700000*%
%ADD17O,1.700000X1.700000*%
%ADD18C,1.524000*%
%ADD19C,0.600000*%
%ADD20C,0.500000*%
%ADD21C,0.250000*%
%ADD22C,0.254000*%
G04 APERTURE END LIST*
D10*
D11*
X92500000Y-95000000D03*
D12*
X84880000Y-74680000D03*
X92500000Y-92460000D03*
X84880000Y-77220000D03*
X92500000Y-89920000D03*
X84880000Y-79760000D03*
X92500000Y-87380000D03*
X84880000Y-82300000D03*
X92500000Y-84840000D03*
X84880000Y-84840000D03*
X92500000Y-82300000D03*
X84880000Y-87380000D03*
X92500000Y-79760000D03*
X84880000Y-89920000D03*
X92500000Y-77220000D03*
X84880000Y-92460000D03*
X92500000Y-74680000D03*
X84880000Y-95000000D03*
D11*
X115500000Y-41500000D03*
D12*
X130740000Y-79600000D03*
X115500000Y-44040000D03*
X130740000Y-77060000D03*
X115500000Y-46580000D03*
X130740000Y-74520000D03*
X115500000Y-49120000D03*
X130740000Y-71980000D03*
X115500000Y-51660000D03*
X130740000Y-69440000D03*
X115500000Y-54200000D03*
X130740000Y-66900000D03*
X115500000Y-56740000D03*
X130740000Y-64360000D03*
X115500000Y-59280000D03*
X130740000Y-61820000D03*
X115500000Y-61820000D03*
X130740000Y-59280000D03*
X115500000Y-64360000D03*
X130740000Y-56740000D03*
X115500000Y-66900000D03*
X130740000Y-54200000D03*
X115500000Y-69440000D03*
X130740000Y-51660000D03*
X115500000Y-71980000D03*
X130740000Y-49120000D03*
X115500000Y-74520000D03*
X130740000Y-46580000D03*
X115500000Y-77060000D03*
X130740000Y-44040000D03*
X115500000Y-79600000D03*
X130740000Y-41500000D03*
D13*
X116000000Y-93000000D03*
X121000000Y-93000000D03*
X176000000Y-93500000D03*
X171000000Y-93500000D03*
X147000000Y-93000000D03*
X142000000Y-93000000D03*
X125500000Y-36500000D03*
X120500000Y-36500000D03*
X185500000Y-44000000D03*
X185500000Y-49000000D03*
D11*
X101000000Y-129000000D03*
D13*
X101000000Y-126500000D03*
D14*
X76000000Y-114500000D03*
D15*
X73460000Y-114500000D03*
D14*
X76000000Y-105000000D03*
D15*
X73460000Y-105000000D03*
D14*
X76000000Y-95500000D03*
D15*
X73460000Y-95500000D03*
D14*
X76000000Y-86000000D03*
D15*
X73460000Y-86000000D03*
D14*
X76000000Y-76500000D03*
D15*
X73460000Y-76500000D03*
D14*
X76000000Y-67000000D03*
D15*
X73460000Y-67000000D03*
D14*
X76000000Y-57500000D03*
D15*
X73460000Y-57500000D03*
D16*
X101000000Y-139000000D03*
D17*
X101000000Y-136460000D03*
X103540000Y-139000000D03*
X103540000Y-136460000D03*
X106080000Y-139000000D03*
X106080000Y-136460000D03*
X108620000Y-139000000D03*
X108620000Y-136460000D03*
X111160000Y-139000000D03*
X111160000Y-136460000D03*
X113700000Y-139000000D03*
X113700000Y-136460000D03*
X116240000Y-139000000D03*
X116240000Y-136460000D03*
X118780000Y-139000000D03*
X118780000Y-136460000D03*
X121320000Y-139000000D03*
X121320000Y-136460000D03*
X123860000Y-139000000D03*
X123860000Y-136460000D03*
X126400000Y-139000000D03*
X126400000Y-136460000D03*
X128940000Y-139000000D03*
X128940000Y-136460000D03*
X131480000Y-139000000D03*
X131480000Y-136460000D03*
X134020000Y-139000000D03*
X134020000Y-136460000D03*
X136560000Y-139000000D03*
X136560000Y-136460000D03*
X139100000Y-139000000D03*
X139100000Y-136460000D03*
X141640000Y-139000000D03*
X141640000Y-136460000D03*
X144180000Y-139000000D03*
X144180000Y-136460000D03*
X146720000Y-139000000D03*
X146720000Y-136460000D03*
X149260000Y-139000000D03*
X149260000Y-136460000D03*
D13*
X58500000Y-114500000D03*
D12*
X68660000Y-114500000D03*
D13*
X58500000Y-105000000D03*
D12*
X68660000Y-105000000D03*
D13*
X58500000Y-95500000D03*
D12*
X68660000Y-95500000D03*
D13*
X58500000Y-86000000D03*
D12*
X68660000Y-86000000D03*
D13*
X58500000Y-76500000D03*
D12*
X68660000Y-76500000D03*
D13*
X58500000Y-67000000D03*
D12*
X68660000Y-67000000D03*
D13*
X58500000Y-57500000D03*
D12*
X68660000Y-57500000D03*
D11*
X115000000Y-98000000D03*
D12*
X122620000Y-120860000D03*
X115000000Y-100540000D03*
X122620000Y-118320000D03*
X115000000Y-103080000D03*
X122620000Y-115780000D03*
X115000000Y-105620000D03*
X122620000Y-113240000D03*
X115000000Y-108160000D03*
X122620000Y-110700000D03*
X115000000Y-110700000D03*
X122620000Y-108160000D03*
X115000000Y-113240000D03*
X122620000Y-105620000D03*
X115000000Y-115780000D03*
X122620000Y-103080000D03*
X115000000Y-118320000D03*
X122620000Y-100540000D03*
X115000000Y-120860000D03*
X122620000Y-98000000D03*
D11*
X170000000Y-98500000D03*
D12*
X177620000Y-121360000D03*
X170000000Y-101040000D03*
X177620000Y-118820000D03*
X170000000Y-103580000D03*
X177620000Y-116280000D03*
X170000000Y-106120000D03*
X177620000Y-113740000D03*
X170000000Y-108660000D03*
X177620000Y-111200000D03*
X170000000Y-111200000D03*
X177620000Y-108660000D03*
X170000000Y-113740000D03*
X177620000Y-106120000D03*
X170000000Y-116280000D03*
X177620000Y-103580000D03*
X170000000Y-118820000D03*
X177620000Y-101040000D03*
X170000000Y-121360000D03*
X177620000Y-98500000D03*
D11*
X141000000Y-98000000D03*
D12*
X148620000Y-125940000D03*
X141000000Y-100540000D03*
X148620000Y-123400000D03*
X141000000Y-103080000D03*
X148620000Y-120860000D03*
X141000000Y-105620000D03*
X148620000Y-118320000D03*
X141000000Y-108160000D03*
X148620000Y-115780000D03*
X141000000Y-110700000D03*
X148620000Y-113240000D03*
X141000000Y-113240000D03*
X148620000Y-110700000D03*
X141000000Y-115780000D03*
X148620000Y-108160000D03*
X141000000Y-118320000D03*
X148620000Y-105620000D03*
X141000000Y-120860000D03*
X148620000Y-103080000D03*
X141000000Y-123400000D03*
X148620000Y-100540000D03*
X141000000Y-125940000D03*
X148620000Y-98000000D03*
D11*
X164000000Y-44500000D03*
D12*
X179240000Y-77520000D03*
X164000000Y-47040000D03*
X179240000Y-74980000D03*
X164000000Y-49580000D03*
X179240000Y-72440000D03*
X164000000Y-52120000D03*
X179240000Y-69900000D03*
X164000000Y-54660000D03*
X179240000Y-67360000D03*
X164000000Y-57200000D03*
X179240000Y-64820000D03*
X164000000Y-59740000D03*
X179240000Y-62280000D03*
X164000000Y-62280000D03*
X179240000Y-59740000D03*
X164000000Y-64820000D03*
X179240000Y-57200000D03*
X164000000Y-67360000D03*
X179240000Y-54660000D03*
X164000000Y-69900000D03*
X179240000Y-52120000D03*
X164000000Y-72440000D03*
X179240000Y-49580000D03*
X164000000Y-74980000D03*
X179240000Y-47040000D03*
X164000000Y-77520000D03*
X179240000Y-44500000D03*
D18*
X59000000Y-44270000D03*
X197000000Y-44270000D03*
X59000000Y-132270000D03*
X197000000Y-132270000D03*
X131500000Y-129770000D03*
X171500000Y-83770000D03*
X120500000Y-78770000D03*
X89000000Y-82770000D03*
X148000000Y-83770000D03*
D19*
X116874000Y-105193400D03*
X112994700Y-113240000D03*
X113150500Y-115832100D03*
X120242000Y-94661300D03*
X117693600Y-127800400D03*
X117971800Y-126368600D03*
X151854800Y-64144100D03*
X144968300Y-104331100D03*
X152954400Y-59280000D03*
X152521900Y-106793600D03*
X109626600Y-99915200D03*
X96186100Y-92831500D03*
X103398100Y-99287100D03*
X180197700Y-55679800D03*
X142352100Y-99125400D03*
X149615300Y-97040800D03*
D20*
X179240000Y-44500000D02*
X179240000Y-47040000D01*
X58500000Y-86000000D02*
X58500000Y-95500000D01*
X58500000Y-95500000D02*
X58500000Y-105000000D01*
X58500000Y-105000000D02*
X58500000Y-114500000D01*
X58500000Y-67000000D02*
X58500000Y-76500000D01*
X58500000Y-76500000D02*
X58500000Y-86000000D01*
X147000000Y-95129700D02*
X147000000Y-93000000D01*
X148620000Y-96749700D02*
X147000000Y-95129700D01*
X148620000Y-98000000D02*
X148620000Y-96749700D01*
X110376900Y-98623100D02*
X116000000Y-93000000D01*
X110376900Y-100226100D02*
X110376900Y-98623100D01*
X103217700Y-107385300D02*
X110376900Y-100226100D01*
X103217700Y-126782300D02*
X103217700Y-107385300D01*
X101000000Y-129000000D02*
X103217700Y-126782300D01*
X92500000Y-74680000D02*
X92500000Y-77220000D01*
X115500000Y-79600000D02*
X115500000Y-80850300D01*
X170000000Y-121360000D02*
X170000000Y-120109700D01*
X172608400Y-95108400D02*
X171000000Y-93500000D01*
X172608400Y-118045200D02*
X172608400Y-95108400D01*
X170543900Y-120109700D02*
X172608400Y-118045200D01*
X170000000Y-120109700D02*
X170543900Y-120109700D01*
X183650000Y-50850000D02*
X185500000Y-49000000D01*
X178711600Y-50850000D02*
X183650000Y-50850000D01*
X165250300Y-64311300D02*
X178711600Y-50850000D01*
X165250300Y-75566500D02*
X165250300Y-64311300D01*
X164547100Y-76269700D02*
X165250300Y-75566500D01*
X164000000Y-76269700D02*
X164547100Y-76269700D01*
X164000000Y-77520000D02*
X164000000Y-76269700D01*
X121000000Y-86350300D02*
X121000000Y-93000000D01*
X115500000Y-80850300D02*
X121000000Y-86350300D01*
X122076100Y-101829700D02*
X122620000Y-101829700D01*
X121000000Y-100753600D02*
X122076100Y-101829700D01*
X121000000Y-93000000D02*
X121000000Y-100753600D01*
X122620000Y-103080000D02*
X122620000Y-101829700D01*
X122076100Y-104330300D02*
X122620000Y-104330300D01*
X118665100Y-107741300D02*
X122076100Y-104330300D01*
X118665100Y-116491700D02*
X118665100Y-107741300D01*
X115547100Y-119609700D02*
X118665100Y-116491700D01*
X115000000Y-119609700D02*
X115547100Y-119609700D01*
X115000000Y-120860000D02*
X115000000Y-119609700D01*
X122620000Y-103080000D02*
X122620000Y-104330300D01*
D21*
X84880000Y-104394700D02*
X76000000Y-113274700D01*
X84880000Y-95000000D02*
X84880000Y-104394700D01*
X76000000Y-114500000D02*
X76000000Y-113274700D01*
X76000000Y-102184000D02*
X76000000Y-105000000D01*
X84598700Y-93585300D02*
X76000000Y-102184000D01*
X84880000Y-93585300D02*
X84598700Y-93585300D01*
X84880000Y-92460000D02*
X84880000Y-93585300D01*
X76640000Y-77725300D02*
X76000000Y-77725300D01*
X83754700Y-84840000D02*
X76640000Y-77725300D01*
X84880000Y-84840000D02*
X83754700Y-84840000D01*
X76000000Y-76500000D02*
X76000000Y-77725300D01*
X76000000Y-72576000D02*
X76000000Y-67000000D01*
X84598700Y-81174700D02*
X76000000Y-72576000D01*
X84880000Y-81174700D02*
X84598700Y-81174700D01*
X84880000Y-82300000D02*
X84880000Y-81174700D01*
X77225300Y-59950600D02*
X76000000Y-58725300D01*
X77225300Y-71261400D02*
X77225300Y-59950600D01*
X84598600Y-78634700D02*
X77225300Y-71261400D01*
X84880000Y-78634700D02*
X84598600Y-78634700D01*
X84880000Y-79760000D02*
X84880000Y-78634700D01*
X76000000Y-57500000D02*
X76000000Y-58725300D01*
X115500000Y-71980000D02*
X115500000Y-73105300D01*
X115000000Y-102517300D02*
X115000000Y-102979800D01*
X115000000Y-103080000D02*
X115000000Y-102979800D01*
X115000000Y-102517300D02*
X115000000Y-101954700D01*
X101367400Y-137824700D02*
X101000000Y-137824700D01*
X102175300Y-137016800D02*
X101367400Y-137824700D01*
X102175300Y-134102700D02*
X102175300Y-137016800D01*
X104264900Y-132013100D02*
X102175300Y-134102700D01*
X104264900Y-113714900D02*
X104264900Y-132013100D01*
X115000000Y-102979800D02*
X104264900Y-113714900D01*
X101000000Y-139000000D02*
X101000000Y-137824700D01*
X114718600Y-101954700D02*
X115000000Y-101954700D01*
X113874700Y-101110800D02*
X114718600Y-101954700D01*
X113874700Y-96741900D02*
X113874700Y-101110800D01*
X117158600Y-93458000D02*
X113874700Y-96741900D01*
X117158600Y-92286500D02*
X117158600Y-93458000D01*
X113420500Y-88548400D02*
X117158600Y-92286500D01*
X113420500Y-74903500D02*
X113420500Y-88548400D01*
X115218700Y-73105300D02*
X113420500Y-74903500D01*
X115500000Y-73105300D02*
X115218700Y-73105300D01*
X103540000Y-139000000D02*
X103540000Y-137824700D01*
X114718700Y-106745300D02*
X115000000Y-106745300D01*
X104715300Y-116748700D02*
X114718700Y-106745300D01*
X104715300Y-137016800D02*
X104715300Y-116748700D01*
X103907400Y-137824700D02*
X104715300Y-137016800D01*
X103540000Y-137824700D02*
X103907400Y-137824700D01*
X115000000Y-105620000D02*
X115000000Y-106745300D01*
X116874000Y-94422800D02*
X116874000Y-105193400D01*
X117621800Y-93675000D02*
X116874000Y-94422800D01*
X117621800Y-91655900D02*
X117621800Y-93675000D01*
X113870800Y-87904900D02*
X117621800Y-91655900D01*
X113870800Y-76993100D02*
X113870800Y-87904900D01*
X115218600Y-75645300D02*
X113870800Y-76993100D01*
X115500000Y-75645300D02*
X115218600Y-75645300D01*
X115500000Y-74520000D02*
X115500000Y-75645300D01*
X106080000Y-139000000D02*
X106080000Y-137824700D01*
X115500000Y-77060000D02*
X115500000Y-78185300D01*
X115000000Y-113240000D02*
X115000000Y-112114700D01*
X107255300Y-118979400D02*
X112994700Y-113240000D01*
X107255300Y-137016800D02*
X107255300Y-118979400D01*
X106447400Y-137824700D02*
X107255300Y-137016800D01*
X106080000Y-137824700D02*
X106447400Y-137824700D01*
X115204400Y-112114700D02*
X115000000Y-112114700D01*
X117621800Y-109697300D02*
X115204400Y-112114700D01*
X117621800Y-94537200D02*
X117621800Y-109697300D01*
X118072100Y-94086900D02*
X117621800Y-94537200D01*
X118072100Y-89905700D02*
X118072100Y-94086900D01*
X114325400Y-86159000D02*
X118072100Y-89905700D01*
X114325400Y-79078600D02*
X114325400Y-86159000D01*
X115218700Y-78185300D02*
X114325400Y-79078600D01*
X115500000Y-78185300D02*
X115218700Y-78185300D01*
X108987400Y-137824700D02*
X108620000Y-137824700D01*
X109795300Y-137016800D02*
X108987400Y-137824700D01*
X109795300Y-119187300D02*
X109795300Y-137016800D01*
X113150500Y-115832100D02*
X109795300Y-119187300D01*
X108620000Y-139000000D02*
X108620000Y-137824700D01*
X115000000Y-115780000D02*
X115000000Y-114654700D01*
X118089700Y-96813600D02*
X120242000Y-94661300D01*
X118089700Y-111846300D02*
X118089700Y-96813600D01*
X115281300Y-114654700D02*
X118089700Y-111846300D01*
X115000000Y-114654700D02*
X115281300Y-114654700D01*
X122620000Y-115947200D02*
X122620000Y-115780000D01*
X118632500Y-119934700D02*
X122620000Y-115947200D01*
X118632500Y-126861500D02*
X118632500Y-119934700D01*
X117693600Y-127800400D02*
X118632500Y-126861500D01*
X129614700Y-108785300D02*
X122620000Y-115780000D01*
X129614700Y-79029200D02*
X129614700Y-108785300D01*
X130458600Y-78185300D02*
X129614700Y-79029200D01*
X130740000Y-78185300D02*
X130458600Y-78185300D01*
X130740000Y-77060000D02*
X130740000Y-78185300D01*
X130740000Y-74520000D02*
X130740000Y-75645300D01*
X122620000Y-113240000D02*
X122620000Y-112114700D01*
X122620000Y-113240000D02*
X122620000Y-114365300D01*
X117971800Y-119865500D02*
X117971800Y-126368600D01*
X121308100Y-116529200D02*
X117971800Y-119865500D01*
X121308100Y-115395800D02*
X121308100Y-116529200D01*
X122338600Y-114365300D02*
X121308100Y-115395800D01*
X122620000Y-114365300D02*
X122338600Y-114365300D01*
X122824300Y-112114700D02*
X122620000Y-112114700D01*
X124812400Y-110126600D02*
X122824300Y-112114700D01*
X124812400Y-81291600D02*
X124812400Y-110126600D01*
X130458700Y-75645300D02*
X124812400Y-81291600D01*
X130740000Y-75645300D02*
X130458700Y-75645300D01*
X130740000Y-71980000D02*
X130740000Y-73105300D01*
X124034600Y-104205400D02*
X122620000Y-105620000D01*
X124034600Y-79529400D02*
X124034600Y-104205400D01*
X130458700Y-73105300D02*
X124034600Y-79529400D01*
X130740000Y-73105300D02*
X130458700Y-73105300D01*
X122620000Y-105620000D02*
X122620000Y-106745300D01*
X116240000Y-139000000D02*
X116240000Y-137824700D01*
X116607400Y-137824700D02*
X116240000Y-137824700D01*
X117415300Y-137016800D02*
X116607400Y-137824700D01*
X117415300Y-128406400D02*
X117415300Y-137016800D01*
X117068300Y-128059400D02*
X117415300Y-128406400D01*
X117068300Y-120132100D02*
X117068300Y-128059400D01*
X120144300Y-117056100D02*
X117068300Y-120132100D01*
X120144300Y-108939600D02*
X120144300Y-117056100D01*
X122338600Y-106745300D02*
X120144300Y-108939600D01*
X122620000Y-106745300D02*
X122338600Y-106745300D01*
X113847300Y-132892000D02*
X116240000Y-135284700D01*
X113847300Y-110198500D02*
X113847300Y-132892000D01*
X114488600Y-109557200D02*
X113847300Y-110198500D01*
X115229900Y-109557200D02*
X114488600Y-109557200D01*
X116141200Y-108645900D02*
X115229900Y-109557200D01*
X116141200Y-99985200D02*
X116141200Y-108645900D01*
X115281300Y-99125300D02*
X116141200Y-99985200D01*
X115000000Y-99125300D02*
X115281300Y-99125300D01*
X115000000Y-98000000D02*
X115000000Y-99125300D01*
X116240000Y-136460000D02*
X116240000Y-135284700D01*
X119147400Y-137824700D02*
X118780000Y-137824700D01*
X119955300Y-137016800D02*
X119147400Y-137824700D01*
X119955300Y-119381100D02*
X119955300Y-137016800D01*
X122356900Y-116979500D02*
X119955300Y-119381100D01*
X123032700Y-116979500D02*
X122356900Y-116979500D01*
X131915400Y-108096800D02*
X123032700Y-116979500D01*
X131915400Y-71459400D02*
X131915400Y-108096800D01*
X131021300Y-70565300D02*
X131915400Y-71459400D01*
X130740000Y-70565300D02*
X131021300Y-70565300D01*
X130740000Y-69440000D02*
X130740000Y-70565300D01*
X118780000Y-139000000D02*
X118780000Y-137824700D01*
X164000000Y-67360000D02*
X164000000Y-68485300D01*
X177620000Y-116280000D02*
X177620000Y-115154700D01*
X163718700Y-68485300D02*
X164000000Y-68485300D01*
X162874600Y-69329400D02*
X163718700Y-68485300D01*
X162874600Y-82476200D02*
X162874600Y-69329400D01*
X174527500Y-94129100D02*
X162874600Y-82476200D01*
X174527500Y-112266800D02*
X174527500Y-94129100D01*
X177415400Y-115154700D02*
X174527500Y-112266800D01*
X177620000Y-115154700D02*
X177415400Y-115154700D01*
X177620000Y-118820000D02*
X177620000Y-119945300D01*
X123860000Y-139000000D02*
X125035300Y-139000000D01*
X164000000Y-64820000D02*
X164000000Y-65945300D01*
X177620000Y-118820000D02*
X177620000Y-117694700D01*
X163718700Y-65945300D02*
X164000000Y-65945300D01*
X162424200Y-67239800D02*
X163718700Y-65945300D01*
X162424200Y-82662700D02*
X162424200Y-67239800D01*
X174038600Y-94277100D02*
X162424200Y-82662700D01*
X174038600Y-114317900D02*
X174038600Y-94277100D01*
X177415400Y-117694700D02*
X174038600Y-114317900D01*
X177620000Y-117694700D02*
X177415400Y-117694700D01*
X177901400Y-119945300D02*
X177620000Y-119945300D01*
X178745300Y-120789200D02*
X177901400Y-119945300D01*
X178745300Y-121852200D02*
X178745300Y-120789200D01*
X158597000Y-142000500D02*
X178745300Y-121852200D01*
X127668500Y-142000500D02*
X158597000Y-142000500D01*
X125035300Y-139367300D02*
X127668500Y-142000500D01*
X125035300Y-139000000D02*
X125035300Y-139367300D01*
X164000000Y-62280000D02*
X164000000Y-63405300D01*
X126400000Y-139000000D02*
X127575300Y-139000000D01*
X177620000Y-121360000D02*
X176494700Y-121360000D01*
X174045000Y-118910300D02*
X176494700Y-121360000D01*
X173183800Y-118049100D02*
X174045000Y-118910300D01*
X173183800Y-94059200D02*
X173183800Y-118049100D01*
X161934200Y-82809600D02*
X173183800Y-94059200D01*
X161934200Y-65189800D02*
X161934200Y-82809600D01*
X163718700Y-63405300D02*
X161934200Y-65189800D01*
X164000000Y-63405300D02*
X163718700Y-63405300D01*
X151405100Y-141550200D02*
X174045000Y-118910300D01*
X129758100Y-141550200D02*
X151405100Y-141550200D01*
X127575300Y-139367400D02*
X129758100Y-141550200D01*
X127575300Y-139000000D02*
X127575300Y-139367400D01*
X164000000Y-59740000D02*
X164000000Y-60865300D01*
X128940000Y-139000000D02*
X130115300Y-139000000D01*
X163718600Y-60865300D02*
X164000000Y-60865300D01*
X161483800Y-63100100D02*
X163718600Y-60865300D01*
X161483800Y-86527200D02*
X161483800Y-63100100D01*
X172033100Y-97076500D02*
X161483800Y-86527200D01*
X172033100Y-116786900D02*
X172033100Y-97076500D01*
X170000000Y-118820000D02*
X172033100Y-116786900D01*
X170000000Y-119087900D02*
X170000000Y-118820000D01*
X151068400Y-138019500D02*
X170000000Y-119087900D01*
X151068400Y-139581200D02*
X151068400Y-138019500D01*
X149549700Y-141099900D02*
X151068400Y-139581200D01*
X131847900Y-141099900D02*
X149549700Y-141099900D01*
X130115300Y-139367300D02*
X131847900Y-141099900D01*
X130115300Y-139000000D02*
X130115300Y-139367300D01*
X131480000Y-139000000D02*
X132655300Y-139000000D01*
X170000000Y-116842600D02*
X170000000Y-116757400D01*
X170000000Y-116842600D02*
X170000000Y-117405300D01*
X170000000Y-116280000D02*
X170000000Y-116757400D01*
X164000000Y-57200000D02*
X164000000Y-58325300D01*
X170000000Y-116280000D02*
X170000000Y-115154700D01*
X163718700Y-58325300D02*
X164000000Y-58325300D01*
X161033400Y-61010600D02*
X163718700Y-58325300D01*
X161033400Y-93667300D02*
X161033400Y-61010600D01*
X169676100Y-102310000D02*
X161033400Y-93667300D01*
X170343800Y-102310000D02*
X169676100Y-102310000D01*
X171582700Y-103548900D02*
X170343800Y-102310000D01*
X171582700Y-113853300D02*
X171582700Y-103548900D01*
X170281300Y-115154700D02*
X171582700Y-113853300D01*
X170000000Y-115154700D02*
X170281300Y-115154700D01*
X169718600Y-117405300D02*
X170000000Y-117405300D01*
X168688100Y-118435800D02*
X169718600Y-117405300D01*
X168688100Y-119762900D02*
X168688100Y-118435800D01*
X150512000Y-137939000D02*
X168688100Y-119762900D01*
X150512000Y-139484800D02*
X150512000Y-137939000D01*
X149347200Y-140649600D02*
X150512000Y-139484800D01*
X133937600Y-140649600D02*
X149347200Y-140649600D01*
X132655300Y-139367300D02*
X133937600Y-140649600D01*
X132655300Y-139000000D02*
X132655300Y-139367300D01*
X170281400Y-112614700D02*
X170000000Y-112614700D01*
X171125300Y-111770800D02*
X170281400Y-112614700D01*
X171125300Y-105608400D02*
X171125300Y-111770800D01*
X170366900Y-104850000D02*
X171125300Y-105608400D01*
X169608200Y-104850000D02*
X170366900Y-104850000D01*
X160583000Y-95824800D02*
X169608200Y-104850000D01*
X160583000Y-58921000D02*
X160583000Y-95824800D01*
X163718700Y-55785300D02*
X160583000Y-58921000D01*
X164000000Y-55785300D02*
X163718700Y-55785300D01*
X164000000Y-54660000D02*
X164000000Y-55785300D01*
X170000000Y-113740000D02*
X170000000Y-112614700D01*
X169718700Y-110074700D02*
X170000000Y-110074700D01*
X159670600Y-100026600D02*
X169718700Y-110074700D01*
X159670600Y-52312100D02*
X159670600Y-100026600D01*
X163567000Y-48415700D02*
X159670600Y-52312100D01*
X164484300Y-48415700D02*
X163567000Y-48415700D01*
X165164900Y-49096300D02*
X164484300Y-48415700D01*
X165164900Y-50955100D02*
X165164900Y-49096300D01*
X164000000Y-52120000D02*
X165164900Y-50955100D01*
X170000000Y-111200000D02*
X170000000Y-110074700D01*
X164000000Y-49580000D02*
X164000000Y-50705300D01*
X170000000Y-108660000D02*
X170000000Y-107534700D01*
X163718700Y-50705300D02*
X164000000Y-50705300D01*
X160121000Y-54303000D02*
X163718700Y-50705300D01*
X160121000Y-97860200D02*
X160121000Y-54303000D01*
X169795500Y-107534700D02*
X160121000Y-97860200D01*
X170000000Y-107534700D02*
X169795500Y-107534700D01*
X142032200Y-137824700D02*
X141640000Y-137824700D01*
X143004600Y-136852300D02*
X142032200Y-137824700D01*
X143004600Y-127700300D02*
X143004600Y-136852300D01*
X143128400Y-127576500D02*
X143004600Y-127700300D01*
X143128400Y-72535000D02*
X143128400Y-127576500D01*
X131143400Y-60550000D02*
X143128400Y-72535000D01*
X130383600Y-60550000D02*
X131143400Y-60550000D01*
X129595800Y-59762200D02*
X130383600Y-60550000D01*
X129595800Y-56188200D02*
X129595800Y-59762200D01*
X130458700Y-55325300D02*
X129595800Y-56188200D01*
X130740000Y-55325300D02*
X130458700Y-55325300D01*
X130740000Y-54200000D02*
X130740000Y-55325300D01*
X141640000Y-139000000D02*
X141640000Y-137824700D01*
X141000000Y-98000000D02*
X141000000Y-99125300D01*
X141640000Y-136460000D02*
X141640000Y-135284700D01*
X141281300Y-99125300D02*
X141000000Y-99125300D01*
X142577100Y-100421100D02*
X141281300Y-99125300D01*
X142577100Y-127490900D02*
X142577100Y-100421100D01*
X141640000Y-128428000D02*
X142577100Y-127490900D01*
X141640000Y-135284700D02*
X141640000Y-128428000D01*
X130740000Y-56740000D02*
X130740000Y-57865300D01*
X144180000Y-139000000D02*
X144180000Y-137824700D01*
X144547400Y-137824700D02*
X144180000Y-137824700D01*
X145355300Y-137016800D02*
X144547400Y-137824700D01*
X145355300Y-130213200D02*
X145355300Y-137016800D01*
X143729800Y-128587700D02*
X145355300Y-130213200D01*
X143729800Y-70670100D02*
X143729800Y-128587700D01*
X130925000Y-57865300D02*
X143729800Y-70670100D01*
X130740000Y-57865300D02*
X130925000Y-57865300D01*
X142815400Y-137824600D02*
X144180000Y-136460000D01*
X142815400Y-139566900D02*
X142815400Y-137824600D01*
X142183000Y-140199300D02*
X142815400Y-139566900D01*
X141159200Y-140199300D02*
X142183000Y-140199300D01*
X140456700Y-139496800D02*
X141159200Y-140199300D01*
X140456700Y-128749100D02*
X140456700Y-139496800D01*
X142126800Y-127079000D02*
X140456700Y-128749100D01*
X142126800Y-102510800D02*
X142126800Y-127079000D01*
X141281300Y-101665300D02*
X142126800Y-102510800D01*
X141000000Y-101665300D02*
X141281300Y-101665300D01*
X141000000Y-100540000D02*
X141000000Y-101665300D01*
X146720000Y-139000000D02*
X146720000Y-137824700D01*
X147087400Y-137824700D02*
X146720000Y-137824700D01*
X147895300Y-137016800D02*
X147087400Y-137824700D01*
X147895300Y-134275300D02*
X147895300Y-137016800D01*
X151854800Y-130315800D02*
X147895300Y-134275300D01*
X151854800Y-64144100D02*
X151854800Y-130315800D01*
X144968300Y-123879900D02*
X144968300Y-104331100D01*
X146720000Y-125631600D02*
X144968300Y-123879900D01*
X146720000Y-136460000D02*
X146720000Y-125631600D01*
X149260000Y-139000000D02*
X149260000Y-137824700D01*
X153149200Y-59474800D02*
X152954400Y-59280000D01*
X153149200Y-134295200D02*
X153149200Y-59474800D01*
X149619700Y-137824700D02*
X153149200Y-134295200D01*
X149260000Y-137824700D02*
X149619700Y-137824700D01*
X149260000Y-136460000D02*
X149260000Y-135284700D01*
X152521900Y-132022800D02*
X149260000Y-135284700D01*
X152521900Y-106793600D02*
X152521900Y-132022800D01*
X115500000Y-49120000D02*
X115500000Y-50245300D01*
X141000000Y-105620000D02*
X141000000Y-104494700D01*
X140718500Y-104494700D02*
X141000000Y-104494700D01*
X139820200Y-103596400D02*
X140718500Y-104494700D01*
X139820200Y-76887100D02*
X139820200Y-103596400D01*
X131103100Y-68170000D02*
X139820200Y-76887100D01*
X130416800Y-68170000D02*
X131103100Y-68170000D01*
X116625300Y-54378500D02*
X130416800Y-68170000D01*
X116625300Y-51089200D02*
X116625300Y-54378500D01*
X115781400Y-50245300D02*
X116625300Y-51089200D01*
X115500000Y-50245300D02*
X115781400Y-50245300D01*
X92500000Y-95000000D02*
X93625300Y-95000000D01*
X98540500Y-99915200D02*
X109626600Y-99915200D01*
X93625300Y-95000000D02*
X98540500Y-99915200D01*
X141000000Y-113240000D02*
X139874700Y-113240000D01*
X122620000Y-118320000D02*
X123745300Y-118320000D01*
X134794700Y-118320000D02*
X139874700Y-113240000D01*
X123745300Y-118320000D02*
X134794700Y-118320000D01*
X93996800Y-92831500D02*
X93625300Y-92460000D01*
X96186100Y-92831500D02*
X93996800Y-92831500D01*
X92500000Y-92460000D02*
X93625300Y-92460000D01*
X92500000Y-89920000D02*
X93625300Y-89920000D01*
X103398100Y-99159100D02*
X103398100Y-99287100D01*
X94159000Y-89920000D02*
X103398100Y-99159100D01*
X93625300Y-89920000D02*
X94159000Y-89920000D01*
X177901400Y-107534700D02*
X177620000Y-107534700D01*
X178745300Y-106690800D02*
X177901400Y-107534700D01*
X178745300Y-93487300D02*
X178745300Y-106690800D01*
X178114600Y-92856600D02*
X178745300Y-93487300D01*
X178114600Y-61709400D02*
X178114600Y-92856600D01*
X178958700Y-60865300D02*
X178114600Y-61709400D01*
X179240000Y-60865300D02*
X178958700Y-60865300D01*
X179240000Y-59740000D02*
X179240000Y-60865300D01*
X177620000Y-108660000D02*
X177620000Y-107534700D01*
X177427200Y-104994700D02*
X177620000Y-104994700D01*
X176494700Y-104062200D02*
X177427200Y-104994700D01*
X176494700Y-97502300D02*
X176494700Y-104062200D01*
X177650600Y-96346400D02*
X176494700Y-97502300D01*
X177650600Y-57195800D02*
X177650600Y-96346400D01*
X178916400Y-55930000D02*
X177650600Y-57195800D01*
X179947500Y-55930000D02*
X178916400Y-55930000D01*
X180197700Y-55679800D02*
X179947500Y-55930000D01*
X177620000Y-106120000D02*
X177620000Y-104994700D01*
X148338700Y-122274700D02*
X148620000Y-122274700D01*
X145693300Y-119629300D02*
X148338700Y-122274700D01*
X145693300Y-104171700D02*
X145693300Y-119629300D01*
X144234700Y-102713100D02*
X145693300Y-104171700D01*
X144234700Y-65998700D02*
X144234700Y-102713100D01*
X131021300Y-52785300D02*
X144234700Y-65998700D01*
X130740000Y-52785300D02*
X131021300Y-52785300D01*
X130740000Y-51660000D02*
X130740000Y-52785300D01*
X148620000Y-123400000D02*
X148620000Y-122274700D01*
X115500000Y-46580000D02*
X116625300Y-46580000D01*
X148620000Y-120860000D02*
X148620000Y-119734700D01*
X117750600Y-47705300D02*
X116625300Y-46580000D01*
X130952700Y-47705300D02*
X117750600Y-47705300D01*
X144948600Y-61701200D02*
X130952700Y-47705300D01*
X144948600Y-97711700D02*
X144948600Y-61701200D01*
X146143700Y-98906800D02*
X144948600Y-97711700D01*
X146143700Y-117463000D02*
X146143700Y-98906800D01*
X148415400Y-119734700D02*
X146143700Y-117463000D01*
X148620000Y-119734700D02*
X148415400Y-119734700D01*
X148620000Y-118320000D02*
X148620000Y-117194700D01*
X130740000Y-44040000D02*
X130740000Y-45165300D01*
X131021300Y-45165300D02*
X130740000Y-45165300D01*
X145398900Y-59542900D02*
X131021300Y-45165300D01*
X145398900Y-97525100D02*
X145398900Y-59542900D01*
X146594000Y-98720200D02*
X145398900Y-97525100D01*
X146594000Y-115373200D02*
X146594000Y-98720200D01*
X148415500Y-117194700D02*
X146594000Y-115373200D01*
X148620000Y-117194700D02*
X148415500Y-117194700D01*
X148620000Y-115780000D02*
X148620000Y-114654700D01*
X115500000Y-44040000D02*
X116625300Y-44040000D01*
X117750600Y-42914700D02*
X116625300Y-44040000D01*
X131222700Y-42914700D02*
X117750600Y-42914700D01*
X145849200Y-57541200D02*
X131222700Y-42914700D01*
X145849200Y-97338500D02*
X145849200Y-57541200D01*
X147494600Y-98983900D02*
X145849200Y-97338500D01*
X147494600Y-113810700D02*
X147494600Y-98983900D01*
X148338600Y-114654700D02*
X147494600Y-113810700D01*
X148620000Y-114654700D02*
X148338600Y-114654700D01*
X148620000Y-113240000D02*
X148620000Y-112114700D01*
X151153200Y-59886800D02*
X164000000Y-47040000D01*
X151153200Y-109862800D02*
X151153200Y-59886800D01*
X148901300Y-112114700D02*
X151153200Y-109862800D01*
X148620000Y-112114700D02*
X148901300Y-112114700D01*
X148901300Y-109574700D02*
X148620000Y-109574700D01*
X150702800Y-107773200D02*
X148901300Y-109574700D01*
X150702800Y-58731300D02*
X150702800Y-107773200D01*
X163525100Y-45909000D02*
X150702800Y-58731300D01*
X167628900Y-45909000D02*
X163525100Y-45909000D01*
X171299900Y-49580000D02*
X167628900Y-45909000D01*
X179240000Y-49580000D02*
X171299900Y-49580000D01*
X148620000Y-110700000D02*
X148620000Y-109574700D01*
X148620000Y-108160000D02*
X148620000Y-107034700D01*
X148901300Y-107034700D02*
X148620000Y-107034700D01*
X150252500Y-105683500D02*
X148901300Y-107034700D01*
X150252500Y-58247500D02*
X150252500Y-105683500D01*
X164000000Y-44500000D02*
X150252500Y-58247500D01*
X142352100Y-95726900D02*
X142352100Y-99125400D01*
X140331600Y-93706400D02*
X142352100Y-95726900D01*
X140331600Y-76491600D02*
X140331600Y-93706400D01*
X130740000Y-66900000D02*
X140331600Y-76491600D01*
X148620000Y-103080000D02*
X148620000Y-101954700D01*
X149745300Y-97170800D02*
X149615300Y-97040800D01*
X149745300Y-101110800D02*
X149745300Y-97170800D01*
X148901400Y-101954700D02*
X149745300Y-101110800D01*
X148620000Y-101954700D02*
X148901400Y-101954700D01*
D22*
G36*
X204290000Y-143290000D02*
X50710000Y-143290000D01*
X50710000Y-139442619D01*
X52764613Y-139442619D01*
X53104155Y-140264372D01*
X53732321Y-140893636D01*
X54553481Y-141234611D01*
X55442619Y-141235387D01*
X56264372Y-140895845D01*
X56893636Y-140267679D01*
X57234611Y-139446519D01*
X57235387Y-138557381D01*
X56895845Y-137735628D01*
X56267679Y-137106364D01*
X55446519Y-136765389D01*
X54557381Y-136764613D01*
X53735628Y-137104155D01*
X53106364Y-137732321D01*
X52765389Y-138553481D01*
X52764613Y-139442619D01*
X50710000Y-139442619D01*
X50710000Y-126283223D01*
X99553035Y-126283223D01*
X99580222Y-126853454D01*
X99746136Y-127254005D01*
X99992255Y-127328139D01*
X100820395Y-126500000D01*
X99992255Y-125671861D01*
X99746136Y-125745995D01*
X99553035Y-126283223D01*
X50710000Y-126283223D01*
X50710000Y-125492255D01*
X100171861Y-125492255D01*
X101000000Y-126320395D01*
X101828139Y-125492255D01*
X101754005Y-125246136D01*
X101216777Y-125053035D01*
X100646546Y-125080222D01*
X100245995Y-125246136D01*
X100171861Y-125492255D01*
X50710000Y-125492255D01*
X50710000Y-67284187D01*
X57064752Y-67284187D01*
X57282757Y-67811800D01*
X57615000Y-68144623D01*
X57615000Y-75355829D01*
X57284176Y-75686077D01*
X57065250Y-76213309D01*
X57064752Y-76784187D01*
X57282757Y-77311800D01*
X57615000Y-77644623D01*
X57615000Y-84855829D01*
X57284176Y-85186077D01*
X57065250Y-85713309D01*
X57064752Y-86284187D01*
X57282757Y-86811800D01*
X57615000Y-87144623D01*
X57615000Y-94355829D01*
X57284176Y-94686077D01*
X57065250Y-95213309D01*
X57064752Y-95784187D01*
X57282757Y-96311800D01*
X57615000Y-96644623D01*
X57615000Y-103855829D01*
X57284176Y-104186077D01*
X57065250Y-104713309D01*
X57064752Y-105284187D01*
X57282757Y-105811800D01*
X57615000Y-106144623D01*
X57615000Y-113355829D01*
X57284176Y-113686077D01*
X57065250Y-114213309D01*
X57064752Y-114784187D01*
X57282757Y-115311800D01*
X57686077Y-115715824D01*
X58213309Y-115934750D01*
X58784187Y-115935248D01*
X59311800Y-115717243D01*
X59715824Y-115313923D01*
X59934750Y-114786691D01*
X59935000Y-114500000D01*
X67196887Y-114500000D01*
X67306120Y-115049151D01*
X67617189Y-115514698D01*
X68082736Y-115825767D01*
X68631887Y-115935000D01*
X68688113Y-115935000D01*
X69237264Y-115825767D01*
X69702811Y-115514698D01*
X70013880Y-115049151D01*
X70123113Y-114500000D01*
X70013880Y-113950849D01*
X69702811Y-113485302D01*
X69237264Y-113174233D01*
X68688113Y-113065000D01*
X68631887Y-113065000D01*
X68082736Y-113174233D01*
X67617189Y-113485302D01*
X67306120Y-113950849D01*
X67196887Y-114500000D01*
X59935000Y-114500000D01*
X59935248Y-114215813D01*
X59717243Y-113688200D01*
X59385000Y-113355377D01*
X59385000Y-106144171D01*
X59715824Y-105813923D01*
X59934750Y-105286691D01*
X59935000Y-105000000D01*
X67196887Y-105000000D01*
X67306120Y-105549151D01*
X67617189Y-106014698D01*
X68082736Y-106325767D01*
X68631887Y-106435000D01*
X68688113Y-106435000D01*
X69237264Y-106325767D01*
X69702811Y-106014698D01*
X70013880Y-105549151D01*
X70123113Y-105000000D01*
X70013880Y-104450849D01*
X69702811Y-103985302D01*
X69237264Y-103674233D01*
X68688113Y-103565000D01*
X68631887Y-103565000D01*
X68082736Y-103674233D01*
X67617189Y-103985302D01*
X67306120Y-104450849D01*
X67196887Y-105000000D01*
X59935000Y-105000000D01*
X59935248Y-104715813D01*
X59717243Y-104188200D01*
X59385000Y-103855377D01*
X59385000Y-96644171D01*
X59715824Y-96313923D01*
X59934750Y-95786691D01*
X59935000Y-95500000D01*
X67196887Y-95500000D01*
X67306120Y-96049151D01*
X67617189Y-96514698D01*
X68082736Y-96825767D01*
X68631887Y-96935000D01*
X68688113Y-96935000D01*
X69237264Y-96825767D01*
X69702811Y-96514698D01*
X70013880Y-96049151D01*
X70062645Y-95803991D01*
X71924735Y-95803991D01*
X72157932Y-96368371D01*
X72589357Y-96800551D01*
X73153330Y-97034733D01*
X73763991Y-97035265D01*
X74328371Y-96802068D01*
X74496613Y-96634120D01*
X74496838Y-96635317D01*
X74635910Y-96851441D01*
X74848110Y-96996431D01*
X75100000Y-97047440D01*
X76900000Y-97047440D01*
X77135317Y-97003162D01*
X77351441Y-96864090D01*
X77496431Y-96651890D01*
X77547440Y-96400000D01*
X77547440Y-94600000D01*
X77503162Y-94364683D01*
X77364090Y-94148559D01*
X77151890Y-94003569D01*
X76900000Y-93952560D01*
X75100000Y-93952560D01*
X74864683Y-93996838D01*
X74648559Y-94135910D01*
X74503569Y-94348110D01*
X74499433Y-94368534D01*
X74330643Y-94199449D01*
X73766670Y-93965267D01*
X73156009Y-93964735D01*
X72591629Y-94197932D01*
X72159449Y-94629357D01*
X71925267Y-95193330D01*
X71924735Y-95803991D01*
X70062645Y-95803991D01*
X70123113Y-95500000D01*
X70013880Y-94950849D01*
X69702811Y-94485302D01*
X69237264Y-94174233D01*
X68688113Y-94065000D01*
X68631887Y-94065000D01*
X68082736Y-94174233D01*
X67617189Y-94485302D01*
X67306120Y-94950849D01*
X67196887Y-95500000D01*
X59935000Y-95500000D01*
X59935248Y-95215813D01*
X59717243Y-94688200D01*
X59385000Y-94355377D01*
X59385000Y-87144171D01*
X59715824Y-86813923D01*
X59934750Y-86286691D01*
X59935000Y-86000000D01*
X67196887Y-86000000D01*
X67306120Y-86549151D01*
X67617189Y-87014698D01*
X68082736Y-87325767D01*
X68631887Y-87435000D01*
X68688113Y-87435000D01*
X69237264Y-87325767D01*
X69702811Y-87014698D01*
X70013880Y-86549151D01*
X70062645Y-86303991D01*
X71924735Y-86303991D01*
X72157932Y-86868371D01*
X72589357Y-87300551D01*
X73153330Y-87534733D01*
X73763991Y-87535265D01*
X74328371Y-87302068D01*
X74496613Y-87134120D01*
X74496838Y-87135317D01*
X74635910Y-87351441D01*
X74848110Y-87496431D01*
X75100000Y-87547440D01*
X76900000Y-87547440D01*
X77135317Y-87503162D01*
X77351441Y-87364090D01*
X77496431Y-87151890D01*
X77547440Y-86900000D01*
X77547440Y-85100000D01*
X77503162Y-84864683D01*
X77364090Y-84648559D01*
X77151890Y-84503569D01*
X76900000Y-84452560D01*
X75100000Y-84452560D01*
X74864683Y-84496838D01*
X74648559Y-84635910D01*
X74503569Y-84848110D01*
X74499433Y-84868534D01*
X74330643Y-84699449D01*
X73766670Y-84465267D01*
X73156009Y-84464735D01*
X72591629Y-84697932D01*
X72159449Y-85129357D01*
X71925267Y-85693330D01*
X71924735Y-86303991D01*
X70062645Y-86303991D01*
X70123113Y-86000000D01*
X70013880Y-85450849D01*
X69702811Y-84985302D01*
X69237264Y-84674233D01*
X68688113Y-84565000D01*
X68631887Y-84565000D01*
X68082736Y-84674233D01*
X67617189Y-84985302D01*
X67306120Y-85450849D01*
X67196887Y-86000000D01*
X59935000Y-86000000D01*
X59935248Y-85715813D01*
X59717243Y-85188200D01*
X59385000Y-84855377D01*
X59385000Y-77644171D01*
X59715824Y-77313923D01*
X59934750Y-76786691D01*
X59935000Y-76500000D01*
X67196887Y-76500000D01*
X67306120Y-77049151D01*
X67617189Y-77514698D01*
X68082736Y-77825767D01*
X68631887Y-77935000D01*
X68688113Y-77935000D01*
X69237264Y-77825767D01*
X69702811Y-77514698D01*
X70013880Y-77049151D01*
X70123113Y-76500000D01*
X70013880Y-75950849D01*
X69702811Y-75485302D01*
X69237264Y-75174233D01*
X68688113Y-75065000D01*
X68631887Y-75065000D01*
X68082736Y-75174233D01*
X67617189Y-75485302D01*
X67306120Y-75950849D01*
X67196887Y-76500000D01*
X59935000Y-76500000D01*
X59935248Y-76215813D01*
X59717243Y-75688200D01*
X59385000Y-75355377D01*
X59385000Y-68144171D01*
X59715824Y-67813923D01*
X59934750Y-67286691D01*
X59935000Y-67000000D01*
X67196887Y-67000000D01*
X67306120Y-67549151D01*
X67617189Y-68014698D01*
X68082736Y-68325767D01*
X68631887Y-68435000D01*
X68688113Y-68435000D01*
X69237264Y-68325767D01*
X69702811Y-68014698D01*
X70013880Y-67549151D01*
X70123113Y-67000000D01*
X70013880Y-66450849D01*
X69702811Y-65985302D01*
X69237264Y-65674233D01*
X68688113Y-65565000D01*
X68631887Y-65565000D01*
X68082736Y-65674233D01*
X67617189Y-65985302D01*
X67306120Y-66450849D01*
X67196887Y-67000000D01*
X59935000Y-67000000D01*
X59935248Y-66715813D01*
X59717243Y-66188200D01*
X59313923Y-65784176D01*
X58786691Y-65565250D01*
X58215813Y-65564752D01*
X57688200Y-65782757D01*
X57284176Y-66186077D01*
X57065250Y-66713309D01*
X57064752Y-67284187D01*
X50710000Y-67284187D01*
X50710000Y-57784187D01*
X57064752Y-57784187D01*
X57282757Y-58311800D01*
X57686077Y-58715824D01*
X58213309Y-58934750D01*
X58784187Y-58935248D01*
X59311800Y-58717243D01*
X59715824Y-58313923D01*
X59934750Y-57786691D01*
X59935000Y-57500000D01*
X67196887Y-57500000D01*
X67306120Y-58049151D01*
X67617189Y-58514698D01*
X68082736Y-58825767D01*
X68631887Y-58935000D01*
X68688113Y-58935000D01*
X69237264Y-58825767D01*
X69702811Y-58514698D01*
X70013880Y-58049151D01*
X70062645Y-57803991D01*
X71924735Y-57803991D01*
X72157932Y-58368371D01*
X72589357Y-58800551D01*
X73153330Y-59034733D01*
X73763991Y-59035265D01*
X74328371Y-58802068D01*
X74496613Y-58634120D01*
X74496838Y-58635317D01*
X74635910Y-58851441D01*
X74848110Y-58996431D01*
X75100000Y-59047440D01*
X75318767Y-59047440D01*
X75462599Y-59262701D01*
X76465300Y-60265402D01*
X76465300Y-65452560D01*
X75100000Y-65452560D01*
X74864683Y-65496838D01*
X74648559Y-65635910D01*
X74503569Y-65848110D01*
X74499433Y-65868534D01*
X74330643Y-65699449D01*
X73766670Y-65465267D01*
X73156009Y-65464735D01*
X72591629Y-65697932D01*
X72159449Y-66129357D01*
X71925267Y-66693330D01*
X71924735Y-67303991D01*
X72157932Y-67868371D01*
X72589357Y-68300551D01*
X73153330Y-68534733D01*
X73763991Y-68535265D01*
X74328371Y-68302068D01*
X74496613Y-68134120D01*
X74496838Y-68135317D01*
X74635910Y-68351441D01*
X74848110Y-68496431D01*
X75100000Y-68547440D01*
X75240000Y-68547440D01*
X75240000Y-72576000D01*
X75297852Y-72866839D01*
X75462599Y-73113401D01*
X83756003Y-81406805D01*
X83526120Y-81750849D01*
X83416887Y-82300000D01*
X83526120Y-82849151D01*
X83837189Y-83314698D01*
X84219275Y-83570000D01*
X83837189Y-83825302D01*
X83828223Y-83838721D01*
X77520843Y-77531341D01*
X77547440Y-77400000D01*
X77547440Y-75600000D01*
X77503162Y-75364683D01*
X77364090Y-75148559D01*
X77151890Y-75003569D01*
X76900000Y-74952560D01*
X75100000Y-74952560D01*
X74864683Y-74996838D01*
X74648559Y-75135910D01*
X74503569Y-75348110D01*
X74499433Y-75368534D01*
X74330643Y-75199449D01*
X73766670Y-74965267D01*
X73156009Y-74964735D01*
X72591629Y-75197932D01*
X72159449Y-75629357D01*
X71925267Y-76193330D01*
X71924735Y-76803991D01*
X72157932Y-77368371D01*
X72589357Y-77800551D01*
X73153330Y-78034733D01*
X73763991Y-78035265D01*
X74328371Y-77802068D01*
X74496613Y-77634120D01*
X74496838Y-77635317D01*
X74635910Y-77851441D01*
X74848110Y-77996431D01*
X75100000Y-78047440D01*
X75318767Y-78047440D01*
X75462599Y-78262701D01*
X75709161Y-78427448D01*
X76000000Y-78485300D01*
X76325198Y-78485300D01*
X83217299Y-85377401D01*
X83463860Y-85542148D01*
X83653563Y-85579882D01*
X83837189Y-85854698D01*
X84219275Y-86110000D01*
X83837189Y-86365302D01*
X83526120Y-86830849D01*
X83416887Y-87380000D01*
X83526120Y-87929151D01*
X83837189Y-88394698D01*
X84219275Y-88650000D01*
X83837189Y-88905302D01*
X83526120Y-89370849D01*
X83416887Y-89920000D01*
X83526120Y-90469151D01*
X83837189Y-90934698D01*
X84219275Y-91190000D01*
X83837189Y-91445302D01*
X83526120Y-91910849D01*
X83416887Y-92460000D01*
X83526120Y-93009151D01*
X83756003Y-93353195D01*
X75462599Y-101646599D01*
X75297852Y-101893161D01*
X75240000Y-102184000D01*
X75240000Y-103452560D01*
X75100000Y-103452560D01*
X74864683Y-103496838D01*
X74648559Y-103635910D01*
X74503569Y-103848110D01*
X74499433Y-103868534D01*
X74330643Y-103699449D01*
X73766670Y-103465267D01*
X73156009Y-103464735D01*
X72591629Y-103697932D01*
X72159449Y-104129357D01*
X71925267Y-104693330D01*
X71924735Y-105303991D01*
X72157932Y-105868371D01*
X72589357Y-106300551D01*
X73153330Y-106534733D01*
X73763991Y-106535265D01*
X74328371Y-106302068D01*
X74496613Y-106134120D01*
X74496838Y-106135317D01*
X74635910Y-106351441D01*
X74848110Y-106496431D01*
X75100000Y-106547440D01*
X76900000Y-106547440D01*
X77135317Y-106503162D01*
X77351441Y-106364090D01*
X77496431Y-106151890D01*
X77547440Y-105900000D01*
X77547440Y-104100000D01*
X77503162Y-103864683D01*
X77364090Y-103648559D01*
X77151890Y-103503569D01*
X76900000Y-103452560D01*
X76760000Y-103452560D01*
X76760000Y-102498802D01*
X83599632Y-95659170D01*
X83837189Y-96014698D01*
X84120000Y-96203667D01*
X84120000Y-104079898D01*
X75462599Y-112737299D01*
X75318767Y-112952560D01*
X75100000Y-112952560D01*
X74864683Y-112996838D01*
X74648559Y-113135910D01*
X74503569Y-113348110D01*
X74499433Y-113368534D01*
X74330643Y-113199449D01*
X73766670Y-112965267D01*
X73156009Y-112964735D01*
X72591629Y-113197932D01*
X72159449Y-113629357D01*
X71925267Y-114193330D01*
X71924735Y-114803991D01*
X72157932Y-115368371D01*
X72589357Y-115800551D01*
X73153330Y-116034733D01*
X73763991Y-116035265D01*
X74328371Y-115802068D01*
X74496613Y-115634120D01*
X74496838Y-115635317D01*
X74635910Y-115851441D01*
X74848110Y-115996431D01*
X75100000Y-116047440D01*
X76900000Y-116047440D01*
X77135317Y-116003162D01*
X77351441Y-115864090D01*
X77496431Y-115651890D01*
X77547440Y-115400000D01*
X77547440Y-113600000D01*
X77503162Y-113364683D01*
X77364090Y-113148559D01*
X77267167Y-113082335D01*
X85417401Y-104932101D01*
X85582148Y-104685540D01*
X85599242Y-104599601D01*
X85640000Y-104394700D01*
X85640000Y-96203667D01*
X85922811Y-96014698D01*
X86233880Y-95549151D01*
X86343113Y-95000000D01*
X86233880Y-94450849D01*
X85922811Y-93985302D01*
X85602947Y-93771576D01*
X85622022Y-93675679D01*
X85922811Y-93474698D01*
X86233880Y-93009151D01*
X86343113Y-92460000D01*
X86233880Y-91910849D01*
X85922811Y-91445302D01*
X85540725Y-91190000D01*
X85922811Y-90934698D01*
X86233880Y-90469151D01*
X86343113Y-89920000D01*
X86233880Y-89370849D01*
X85922811Y-88905302D01*
X85540725Y-88650000D01*
X85922811Y-88394698D01*
X86233880Y-87929151D01*
X86343113Y-87380000D01*
X86233880Y-86830849D01*
X85922811Y-86365302D01*
X85540725Y-86110000D01*
X85922811Y-85854698D01*
X86233880Y-85389151D01*
X86343113Y-84840000D01*
X86233880Y-84290849D01*
X85922811Y-83825302D01*
X85540725Y-83570000D01*
X85922811Y-83314698D01*
X86233880Y-82849151D01*
X86343113Y-82300000D01*
X86233880Y-81750849D01*
X85922811Y-81285302D01*
X85622022Y-81084321D01*
X85602947Y-80988424D01*
X85922811Y-80774698D01*
X86233880Y-80309151D01*
X86343113Y-79760000D01*
X91036887Y-79760000D01*
X91146120Y-80309151D01*
X91457189Y-80774698D01*
X91839275Y-81030000D01*
X91457189Y-81285302D01*
X91146120Y-81750849D01*
X91036887Y-82300000D01*
X91146120Y-82849151D01*
X91457189Y-83314698D01*
X91839275Y-83570000D01*
X91457189Y-83825302D01*
X91146120Y-84290849D01*
X91036887Y-84840000D01*
X91146120Y-85389151D01*
X91457189Y-85854698D01*
X91839275Y-86110000D01*
X91457189Y-86365302D01*
X91146120Y-86830849D01*
X91036887Y-87380000D01*
X91146120Y-87929151D01*
X91457189Y-88394698D01*
X91839275Y-88650000D01*
X91457189Y-88905302D01*
X91146120Y-89370849D01*
X91036887Y-89920000D01*
X91146120Y-90469151D01*
X91457189Y-90934698D01*
X91839275Y-91190000D01*
X91457189Y-91445302D01*
X91146120Y-91910849D01*
X91036887Y-92460000D01*
X91146120Y-93009151D01*
X91457189Y-93474698D01*
X91601465Y-93571101D01*
X91464683Y-93596838D01*
X91248559Y-93735910D01*
X91103569Y-93948110D01*
X91052560Y-94200000D01*
X91052560Y-95800000D01*
X91096838Y-96035317D01*
X91235910Y-96251441D01*
X91448110Y-96396431D01*
X91700000Y-96447440D01*
X93300000Y-96447440D01*
X93535317Y-96403162D01*
X93751441Y-96264090D01*
X93777073Y-96226576D01*
X98003099Y-100452602D01*
X98249661Y-100617348D01*
X98540500Y-100675200D01*
X108676221Y-100675200D01*
X102591910Y-106759510D01*
X102400067Y-107046625D01*
X102400067Y-107046626D01*
X102332699Y-107385300D01*
X102332700Y-107385305D01*
X102332700Y-125936322D01*
X102253864Y-125745995D01*
X102007745Y-125671861D01*
X101179605Y-126500000D01*
X101193748Y-126514142D01*
X101014142Y-126693748D01*
X101000000Y-126679605D01*
X100171861Y-127507745D01*
X100186145Y-127555167D01*
X99964683Y-127596838D01*
X99748559Y-127735910D01*
X99603569Y-127948110D01*
X99552560Y-128200000D01*
X99552560Y-129800000D01*
X99596838Y-130035317D01*
X99735910Y-130251441D01*
X99948110Y-130396431D01*
X100200000Y-130447440D01*
X101800000Y-130447440D01*
X102035317Y-130403162D01*
X102251441Y-130264090D01*
X102396431Y-130051890D01*
X102447440Y-129800000D01*
X102447440Y-128804140D01*
X103504900Y-127746679D01*
X103504900Y-131698298D01*
X101637899Y-133565299D01*
X101473152Y-133811861D01*
X101415300Y-134102700D01*
X101415300Y-135028515D01*
X101000000Y-134945907D01*
X100431715Y-135058946D01*
X99949946Y-135380853D01*
X99628039Y-135862622D01*
X99515000Y-136430907D01*
X99515000Y-136489093D01*
X99628039Y-137057378D01*
X99949946Y-137539147D01*
X99951179Y-137539971D01*
X99914683Y-137546838D01*
X99698559Y-137685910D01*
X99553569Y-137898110D01*
X99502560Y-138150000D01*
X99502560Y-139850000D01*
X99546838Y-140085317D01*
X99685910Y-140301441D01*
X99898110Y-140446431D01*
X100150000Y-140497440D01*
X101850000Y-140497440D01*
X102085317Y-140453162D01*
X102301441Y-140314090D01*
X102446431Y-140101890D01*
X102460086Y-140034459D01*
X102489946Y-140079147D01*
X102971715Y-140401054D01*
X103540000Y-140514093D01*
X104108285Y-140401054D01*
X104590054Y-140079147D01*
X104810000Y-139749974D01*
X105029946Y-140079147D01*
X105511715Y-140401054D01*
X106080000Y-140514093D01*
X106648285Y-140401054D01*
X107130054Y-140079147D01*
X107350000Y-139749974D01*
X107569946Y-140079147D01*
X108051715Y-140401054D01*
X108620000Y-140514093D01*
X109188285Y-140401054D01*
X109670054Y-140079147D01*
X109890000Y-139749974D01*
X110109946Y-140079147D01*
X110591715Y-140401054D01*
X111160000Y-140514093D01*
X111728285Y-140401054D01*
X112210054Y-140079147D01*
X112430000Y-139749974D01*
X112649946Y-140079147D01*
X113131715Y-140401054D01*
X113700000Y-140514093D01*
X114268285Y-140401054D01*
X114750054Y-140079147D01*
X114970000Y-139749974D01*
X115189946Y-140079147D01*
X115671715Y-140401054D01*
X116240000Y-140514093D01*
X116808285Y-140401054D01*
X117290054Y-140079147D01*
X117510000Y-139749974D01*
X117729946Y-140079147D01*
X118211715Y-140401054D01*
X118780000Y-140514093D01*
X119348285Y-140401054D01*
X119830054Y-140079147D01*
X120050000Y-139749974D01*
X120269946Y-140079147D01*
X120751715Y-140401054D01*
X121320000Y-140514093D01*
X121888285Y-140401054D01*
X122370054Y-140079147D01*
X122590000Y-139749974D01*
X122809946Y-140079147D01*
X123291715Y-140401054D01*
X123860000Y-140514093D01*
X124428285Y-140401054D01*
X124767558Y-140174360D01*
X127131099Y-142537901D01*
X127377661Y-142702648D01*
X127668500Y-142760500D01*
X158597000Y-142760500D01*
X158887839Y-142702648D01*
X159134401Y-142537901D01*
X162229683Y-139442619D01*
X197764613Y-139442619D01*
X198104155Y-140264372D01*
X198732321Y-140893636D01*
X199553481Y-141234611D01*
X200442619Y-141235387D01*
X201264372Y-140895845D01*
X201893636Y-140267679D01*
X202234611Y-139446519D01*
X202235387Y-138557381D01*
X201895845Y-137735628D01*
X201267679Y-137106364D01*
X200446519Y-136765389D01*
X199557381Y-136764613D01*
X198735628Y-137104155D01*
X198106364Y-137732321D01*
X197765389Y-138553481D01*
X197764613Y-139442619D01*
X162229683Y-139442619D01*
X179282701Y-122389601D01*
X179447448Y-122143039D01*
X179505300Y-121852200D01*
X179505300Y-120789200D01*
X179447448Y-120498361D01*
X179282701Y-120251799D01*
X178744037Y-119713135D01*
X178973880Y-119369151D01*
X179083113Y-118820000D01*
X178973880Y-118270849D01*
X178662811Y-117805302D01*
X178362022Y-117604321D01*
X178342947Y-117508424D01*
X178662811Y-117294698D01*
X178973880Y-116829151D01*
X179083113Y-116280000D01*
X178973880Y-115730849D01*
X178662811Y-115265302D01*
X178362022Y-115064321D01*
X178342947Y-114968424D01*
X178662811Y-114754698D01*
X178973880Y-114289151D01*
X179083113Y-113740000D01*
X178973880Y-113190849D01*
X178662811Y-112725302D01*
X178280725Y-112470000D01*
X178662811Y-112214698D01*
X178973880Y-111749151D01*
X179083113Y-111200000D01*
X178973880Y-110650849D01*
X178662811Y-110185302D01*
X178280725Y-109930000D01*
X178662811Y-109674698D01*
X178973880Y-109209151D01*
X179083113Y-108660000D01*
X178973880Y-108110849D01*
X178744037Y-107766865D01*
X179282701Y-107228201D01*
X179447448Y-106981639D01*
X179505300Y-106690800D01*
X179505300Y-93487300D01*
X179447448Y-93196461D01*
X179392780Y-93114645D01*
X179282701Y-92949898D01*
X178874600Y-92541798D01*
X178874600Y-78887909D01*
X179211887Y-78955000D01*
X179268113Y-78955000D01*
X179817264Y-78845767D01*
X180282811Y-78534698D01*
X180593880Y-78069151D01*
X180703113Y-77520000D01*
X180593880Y-76970849D01*
X180282811Y-76505302D01*
X179900725Y-76250000D01*
X180282811Y-75994698D01*
X180593880Y-75529151D01*
X180703113Y-74980000D01*
X180593880Y-74430849D01*
X180282811Y-73965302D01*
X179900725Y-73710000D01*
X180282811Y-73454698D01*
X180593880Y-72989151D01*
X180703113Y-72440000D01*
X180593880Y-71890849D01*
X180282811Y-71425302D01*
X179900725Y-71170000D01*
X180282811Y-70914698D01*
X180593880Y-70449151D01*
X180703113Y-69900000D01*
X180593880Y-69350849D01*
X180282811Y-68885302D01*
X179900725Y-68630000D01*
X180282811Y-68374698D01*
X180593880Y-67909151D01*
X180703113Y-67360000D01*
X180593880Y-66810849D01*
X180282811Y-66345302D01*
X179900725Y-66090000D01*
X180282811Y-65834698D01*
X180593880Y-65369151D01*
X180703113Y-64820000D01*
X180593880Y-64270849D01*
X180282811Y-63805302D01*
X179900725Y-63550000D01*
X180282811Y-63294698D01*
X180593880Y-62829151D01*
X180703113Y-62280000D01*
X180593880Y-61730849D01*
X180282811Y-61265302D01*
X179962947Y-61051576D01*
X179982022Y-60955679D01*
X180282811Y-60754698D01*
X180593880Y-60289151D01*
X180703113Y-59740000D01*
X180593880Y-59190849D01*
X180282811Y-58725302D01*
X179900725Y-58470000D01*
X180282811Y-58214698D01*
X180593880Y-57749151D01*
X180703113Y-57200000D01*
X180593880Y-56650849D01*
X180529436Y-56554401D01*
X180726643Y-56472917D01*
X180989892Y-56210127D01*
X181132538Y-55866599D01*
X181132862Y-55494633D01*
X180990817Y-55150857D01*
X180728027Y-54887608D01*
X180663194Y-54860687D01*
X180703113Y-54660000D01*
X180593880Y-54110849D01*
X180282811Y-53645302D01*
X179900725Y-53390000D01*
X180282811Y-53134698D01*
X180593880Y-52669151D01*
X180703113Y-52120000D01*
X180593880Y-51570849D01*
X180282811Y-51105302D01*
X179900725Y-50850000D01*
X180282811Y-50594698D01*
X180593880Y-50129151D01*
X180618029Y-50007745D01*
X184671861Y-50007745D01*
X184745995Y-50253864D01*
X185283223Y-50446965D01*
X185853454Y-50419778D01*
X186254005Y-50253864D01*
X186328139Y-50007745D01*
X185500000Y-49179605D01*
X184671861Y-50007745D01*
X180618029Y-50007745D01*
X180703113Y-49580000D01*
X180593880Y-49030849D01*
X180428422Y-48783223D01*
X184053035Y-48783223D01*
X184080222Y-49353454D01*
X184246136Y-49754005D01*
X184492255Y-49828139D01*
X185320395Y-49000000D01*
X185679605Y-49000000D01*
X186507745Y-49828139D01*
X186753864Y-49754005D01*
X186946965Y-49216777D01*
X186919778Y-48646546D01*
X186753864Y-48245995D01*
X186507745Y-48171861D01*
X185679605Y-49000000D01*
X185320395Y-49000000D01*
X184492255Y-48171861D01*
X184246136Y-48245995D01*
X184053035Y-48783223D01*
X180428422Y-48783223D01*
X180282811Y-48565302D01*
X179900725Y-48310000D01*
X180282811Y-48054698D01*
X180324534Y-47992255D01*
X184671861Y-47992255D01*
X185500000Y-48820395D01*
X186328139Y-47992255D01*
X186254005Y-47746136D01*
X185716777Y-47553035D01*
X185146546Y-47580222D01*
X184745995Y-47746136D01*
X184671861Y-47992255D01*
X180324534Y-47992255D01*
X180593880Y-47589151D01*
X180703113Y-47040000D01*
X180593880Y-46490849D01*
X180282811Y-46025302D01*
X180125000Y-45919856D01*
X180125000Y-45620144D01*
X180282811Y-45514698D01*
X180593880Y-45049151D01*
X180703113Y-44500000D01*
X180660186Y-44284187D01*
X184064752Y-44284187D01*
X184282757Y-44811800D01*
X184686077Y-45215824D01*
X185213309Y-45434750D01*
X185784187Y-45435248D01*
X186311800Y-45217243D01*
X186715824Y-44813923D01*
X186934750Y-44286691D01*
X186935248Y-43715813D01*
X186717243Y-43188200D01*
X186313923Y-42784176D01*
X185786691Y-42565250D01*
X185215813Y-42564752D01*
X184688200Y-42782757D01*
X184284176Y-43186077D01*
X184065250Y-43713309D01*
X184064752Y-44284187D01*
X180660186Y-44284187D01*
X180593880Y-43950849D01*
X180282811Y-43485302D01*
X179817264Y-43174233D01*
X179268113Y-43065000D01*
X179211887Y-43065000D01*
X178662736Y-43174233D01*
X178197189Y-43485302D01*
X177886120Y-43950849D01*
X177776887Y-44500000D01*
X177886120Y-45049151D01*
X178197189Y-45514698D01*
X178355000Y-45620144D01*
X178355000Y-45919856D01*
X178197189Y-46025302D01*
X177886120Y-46490849D01*
X177776887Y-47040000D01*
X177886120Y-47589151D01*
X178197189Y-48054698D01*
X178579275Y-48310000D01*
X178197189Y-48565302D01*
X178027005Y-48820000D01*
X171614702Y-48820000D01*
X168166301Y-45371599D01*
X167919739Y-45206852D01*
X167628900Y-45149000D01*
X165447440Y-45149000D01*
X165447440Y-43700000D01*
X165403162Y-43464683D01*
X165264090Y-43248559D01*
X165051890Y-43103569D01*
X164800000Y-43052560D01*
X163200000Y-43052560D01*
X162964683Y-43096838D01*
X162748559Y-43235910D01*
X162603569Y-43448110D01*
X162552560Y-43700000D01*
X162552560Y-44872638D01*
X149715099Y-57710099D01*
X149550352Y-57956661D01*
X149492500Y-58247500D01*
X149492500Y-96105692D01*
X149430133Y-96105638D01*
X149276106Y-96169281D01*
X149245790Y-96123910D01*
X149245787Y-96123908D01*
X147885000Y-94763120D01*
X147885000Y-94144171D01*
X148215824Y-93813923D01*
X148434750Y-93286691D01*
X148435248Y-92715813D01*
X148217243Y-92188200D01*
X147813923Y-91784176D01*
X147286691Y-91565250D01*
X146715813Y-91564752D01*
X146609200Y-91608804D01*
X146609200Y-57541200D01*
X146551348Y-57250361D01*
X146386601Y-57003799D01*
X131828749Y-42445947D01*
X132093880Y-42049151D01*
X132203113Y-41500000D01*
X132093880Y-40950849D01*
X131782811Y-40485302D01*
X131317264Y-40174233D01*
X130768113Y-40065000D01*
X130711887Y-40065000D01*
X130162736Y-40174233D01*
X129697189Y-40485302D01*
X129386120Y-40950849D01*
X129276887Y-41500000D01*
X129386120Y-42049151D01*
X129456646Y-42154700D01*
X117750600Y-42154700D01*
X117459761Y-42212552D01*
X117213199Y-42377299D01*
X116551777Y-43038721D01*
X116542811Y-43025302D01*
X116398535Y-42928899D01*
X116535317Y-42903162D01*
X116751441Y-42764090D01*
X116896431Y-42551890D01*
X116947440Y-42300000D01*
X116947440Y-40700000D01*
X116903162Y-40464683D01*
X116764090Y-40248559D01*
X116551890Y-40103569D01*
X116300000Y-40052560D01*
X114700000Y-40052560D01*
X114464683Y-40096838D01*
X114248559Y-40235910D01*
X114103569Y-40448110D01*
X114052560Y-40700000D01*
X114052560Y-42300000D01*
X114096838Y-42535317D01*
X114235910Y-42751441D01*
X114448110Y-42896431D01*
X114603089Y-42927815D01*
X114457189Y-43025302D01*
X114146120Y-43490849D01*
X114036887Y-44040000D01*
X114146120Y-44589151D01*
X114457189Y-45054698D01*
X114839275Y-45310000D01*
X114457189Y-45565302D01*
X114146120Y-46030849D01*
X114036887Y-46580000D01*
X114146120Y-47129151D01*
X114457189Y-47594698D01*
X114839275Y-47850000D01*
X114457189Y-48105302D01*
X114146120Y-48570849D01*
X114036887Y-49120000D01*
X114146120Y-49669151D01*
X114457189Y-50134698D01*
X114757978Y-50335679D01*
X114777053Y-50431576D01*
X114457189Y-50645302D01*
X114146120Y-51110849D01*
X114036887Y-51660000D01*
X114146120Y-52209151D01*
X114457189Y-52674698D01*
X114839275Y-52930000D01*
X114457189Y-53185302D01*
X114146120Y-53650849D01*
X114036887Y-54200000D01*
X114146120Y-54749151D01*
X114457189Y-55214698D01*
X114839275Y-55470000D01*
X114457189Y-55725302D01*
X114146120Y-56190849D01*
X114036887Y-56740000D01*
X114146120Y-57289151D01*
X114457189Y-57754698D01*
X114839275Y-58010000D01*
X114457189Y-58265302D01*
X114146120Y-58730849D01*
X114036887Y-59280000D01*
X114146120Y-59829151D01*
X114457189Y-60294698D01*
X114839275Y-60550000D01*
X114457189Y-60805302D01*
X114146120Y-61270849D01*
X114036887Y-61820000D01*
X114146120Y-62369151D01*
X114457189Y-62834698D01*
X114839275Y-63090000D01*
X114457189Y-63345302D01*
X114146120Y-63810849D01*
X114036887Y-64360000D01*
X114146120Y-64909151D01*
X114457189Y-65374698D01*
X114839275Y-65630000D01*
X114457189Y-65885302D01*
X114146120Y-66350849D01*
X114036887Y-66900000D01*
X114146120Y-67449151D01*
X114457189Y-67914698D01*
X114839275Y-68170000D01*
X114457189Y-68425302D01*
X114146120Y-68890849D01*
X114036887Y-69440000D01*
X114146120Y-69989151D01*
X114457189Y-70454698D01*
X114839275Y-70710000D01*
X114457189Y-70965302D01*
X114146120Y-71430849D01*
X114036887Y-71980000D01*
X114146120Y-72529151D01*
X114376003Y-72873195D01*
X112883099Y-74366099D01*
X112718352Y-74612661D01*
X112660500Y-74903500D01*
X112660500Y-88548400D01*
X112718352Y-88839239D01*
X112883099Y-89085801D01*
X115465484Y-91668186D01*
X115188200Y-91782757D01*
X114784176Y-92186077D01*
X114565250Y-92713309D01*
X114564840Y-93183581D01*
X109751110Y-97997310D01*
X109559267Y-98284425D01*
X109559267Y-98284426D01*
X109491899Y-98623100D01*
X109491900Y-98623105D01*
X109491900Y-98980082D01*
X109441433Y-98980038D01*
X109097657Y-99122083D01*
X109064482Y-99155200D01*
X104333216Y-99155200D01*
X104333262Y-99101933D01*
X104191217Y-98758157D01*
X103928427Y-98494908D01*
X103723699Y-98409897D01*
X94696401Y-89382599D01*
X94449839Y-89217852D01*
X94159000Y-89160000D01*
X93712995Y-89160000D01*
X93542811Y-88905302D01*
X93160725Y-88650000D01*
X93542811Y-88394698D01*
X93853880Y-87929151D01*
X93963113Y-87380000D01*
X93853880Y-86830849D01*
X93542811Y-86365302D01*
X93160725Y-86110000D01*
X93542811Y-85854698D01*
X93853880Y-85389151D01*
X93963113Y-84840000D01*
X93853880Y-84290849D01*
X93542811Y-83825302D01*
X93160725Y-83570000D01*
X93542811Y-83314698D01*
X93853880Y-82849151D01*
X93963113Y-82300000D01*
X93853880Y-81750849D01*
X93542811Y-81285302D01*
X93160725Y-81030000D01*
X93542811Y-80774698D01*
X93853880Y-80309151D01*
X93963113Y-79760000D01*
X93853880Y-79210849D01*
X93542811Y-78745302D01*
X93138297Y-78475014D01*
X93355134Y-78372389D01*
X93731041Y-77957423D01*
X93891904Y-77569039D01*
X93769915Y-77347000D01*
X92627000Y-77347000D01*
X92627000Y-77367000D01*
X92373000Y-77367000D01*
X92373000Y-77347000D01*
X91230085Y-77347000D01*
X91108096Y-77569039D01*
X91268959Y-77957423D01*
X91644866Y-78372389D01*
X91861703Y-78475014D01*
X91457189Y-78745302D01*
X91146120Y-79210849D01*
X91036887Y-79760000D01*
X86343113Y-79760000D01*
X86233880Y-79210849D01*
X85922811Y-78745302D01*
X85622022Y-78544321D01*
X85602947Y-78448424D01*
X85922811Y-78234698D01*
X86233880Y-77769151D01*
X86343113Y-77220000D01*
X86233880Y-76670849D01*
X85922811Y-76205302D01*
X85540725Y-75950000D01*
X85922811Y-75694698D01*
X86233880Y-75229151D01*
X86273684Y-75029039D01*
X91108096Y-75029039D01*
X91268959Y-75417423D01*
X91644866Y-75832389D01*
X91893367Y-75950000D01*
X91644866Y-76067611D01*
X91268959Y-76482577D01*
X91108096Y-76870961D01*
X91230085Y-77093000D01*
X92373000Y-77093000D01*
X92373000Y-74807000D01*
X92627000Y-74807000D01*
X92627000Y-77093000D01*
X93769915Y-77093000D01*
X93891904Y-76870961D01*
X93731041Y-76482577D01*
X93355134Y-76067611D01*
X93106633Y-75950000D01*
X93355134Y-75832389D01*
X93731041Y-75417423D01*
X93891904Y-75029039D01*
X93769915Y-74807000D01*
X92627000Y-74807000D01*
X92373000Y-74807000D01*
X91230085Y-74807000D01*
X91108096Y-75029039D01*
X86273684Y-75029039D01*
X86343113Y-74680000D01*
X86273685Y-74330961D01*
X91108096Y-74330961D01*
X91230085Y-74553000D01*
X92373000Y-74553000D01*
X92373000Y-73409371D01*
X92627000Y-73409371D01*
X92627000Y-74553000D01*
X93769915Y-74553000D01*
X93891904Y-74330961D01*
X93731041Y-73942577D01*
X93355134Y-73527611D01*
X92849041Y-73288086D01*
X92627000Y-73409371D01*
X92373000Y-73409371D01*
X92150959Y-73288086D01*
X91644866Y-73527611D01*
X91268959Y-73942577D01*
X91108096Y-74330961D01*
X86273685Y-74330961D01*
X86233880Y-74130849D01*
X85922811Y-73665302D01*
X85457264Y-73354233D01*
X84908113Y-73245000D01*
X84851887Y-73245000D01*
X84302736Y-73354233D01*
X83837189Y-73665302D01*
X83526120Y-74130849D01*
X83416887Y-74680000D01*
X83526120Y-75229151D01*
X83837189Y-75694698D01*
X84219275Y-75950000D01*
X83837189Y-76205302D01*
X83599592Y-76560890D01*
X77985300Y-70946598D01*
X77985300Y-59950600D01*
X77927448Y-59659761D01*
X77762701Y-59413199D01*
X77267565Y-58918063D01*
X77351441Y-58864090D01*
X77496431Y-58651890D01*
X77547440Y-58400000D01*
X77547440Y-56600000D01*
X77503162Y-56364683D01*
X77364090Y-56148559D01*
X77151890Y-56003569D01*
X76900000Y-55952560D01*
X75100000Y-55952560D01*
X74864683Y-55996838D01*
X74648559Y-56135910D01*
X74503569Y-56348110D01*
X74499433Y-56368534D01*
X74330643Y-56199449D01*
X73766670Y-55965267D01*
X73156009Y-55964735D01*
X72591629Y-56197932D01*
X72159449Y-56629357D01*
X71925267Y-57193330D01*
X71924735Y-57803991D01*
X70062645Y-57803991D01*
X70123113Y-57500000D01*
X70013880Y-56950849D01*
X69702811Y-56485302D01*
X69237264Y-56174233D01*
X68688113Y-56065000D01*
X68631887Y-56065000D01*
X68082736Y-56174233D01*
X67617189Y-56485302D01*
X67306120Y-56950849D01*
X67196887Y-57500000D01*
X59935000Y-57500000D01*
X59935248Y-57215813D01*
X59717243Y-56688200D01*
X59313923Y-56284176D01*
X58786691Y-56065250D01*
X58215813Y-56064752D01*
X57688200Y-56282757D01*
X57284176Y-56686077D01*
X57065250Y-57213309D01*
X57064752Y-57784187D01*
X50710000Y-57784187D01*
X50710000Y-37507745D01*
X119671861Y-37507745D01*
X119745995Y-37753864D01*
X120283223Y-37946965D01*
X120853454Y-37919778D01*
X121254005Y-37753864D01*
X121328139Y-37507745D01*
X120500000Y-36679605D01*
X119671861Y-37507745D01*
X50710000Y-37507745D01*
X50710000Y-35442619D01*
X52764613Y-35442619D01*
X53104155Y-36264372D01*
X53732321Y-36893636D01*
X54553481Y-37234611D01*
X55442619Y-37235387D01*
X56264372Y-36895845D01*
X56878064Y-36283223D01*
X119053035Y-36283223D01*
X119080222Y-36853454D01*
X119246136Y-37254005D01*
X119492255Y-37328139D01*
X120320395Y-36500000D01*
X120679605Y-36500000D01*
X121507745Y-37328139D01*
X121753864Y-37254005D01*
X121922735Y-36784187D01*
X124064752Y-36784187D01*
X124282757Y-37311800D01*
X124686077Y-37715824D01*
X125213309Y-37934750D01*
X125784187Y-37935248D01*
X126311800Y-37717243D01*
X126715824Y-37313923D01*
X126934750Y-36786691D01*
X126935248Y-36215813D01*
X126717243Y-35688200D01*
X126472090Y-35442619D01*
X197764613Y-35442619D01*
X198104155Y-36264372D01*
X198732321Y-36893636D01*
X199553481Y-37234611D01*
X200442619Y-37235387D01*
X201264372Y-36895845D01*
X201893636Y-36267679D01*
X202234611Y-35446519D01*
X202235387Y-34557381D01*
X201895845Y-33735628D01*
X201267679Y-33106364D01*
X200446519Y-32765389D01*
X199557381Y-32764613D01*
X198735628Y-33104155D01*
X198106364Y-33732321D01*
X197765389Y-34553481D01*
X197764613Y-35442619D01*
X126472090Y-35442619D01*
X126313923Y-35284176D01*
X125786691Y-35065250D01*
X125215813Y-35064752D01*
X124688200Y-35282757D01*
X124284176Y-35686077D01*
X124065250Y-36213309D01*
X124064752Y-36784187D01*
X121922735Y-36784187D01*
X121946965Y-36716777D01*
X121919778Y-36146546D01*
X121753864Y-35745995D01*
X121507745Y-35671861D01*
X120679605Y-36500000D01*
X120320395Y-36500000D01*
X119492255Y-35671861D01*
X119246136Y-35745995D01*
X119053035Y-36283223D01*
X56878064Y-36283223D01*
X56893636Y-36267679D01*
X57215619Y-35492255D01*
X119671861Y-35492255D01*
X120500000Y-36320395D01*
X121328139Y-35492255D01*
X121254005Y-35246136D01*
X120716777Y-35053035D01*
X120146546Y-35080222D01*
X119745995Y-35246136D01*
X119671861Y-35492255D01*
X57215619Y-35492255D01*
X57234611Y-35446519D01*
X57235387Y-34557381D01*
X56895845Y-33735628D01*
X56267679Y-33106364D01*
X55446519Y-32765389D01*
X54557381Y-32764613D01*
X53735628Y-33104155D01*
X53106364Y-33732321D01*
X52765389Y-34553481D01*
X52764613Y-35442619D01*
X50710000Y-35442619D01*
X50710000Y-30710000D01*
X204290000Y-30710000D01*
X204290000Y-143290000D01*
X204290000Y-143290000D01*
G37*
X204290000Y-143290000D02*
X50710000Y-143290000D01*
X50710000Y-139442619D01*
X52764613Y-139442619D01*
X53104155Y-140264372D01*
X53732321Y-140893636D01*
X54553481Y-141234611D01*
X55442619Y-141235387D01*
X56264372Y-140895845D01*
X56893636Y-140267679D01*
X57234611Y-139446519D01*
X57235387Y-138557381D01*
X56895845Y-137735628D01*
X56267679Y-137106364D01*
X55446519Y-136765389D01*
X54557381Y-136764613D01*
X53735628Y-137104155D01*
X53106364Y-137732321D01*
X52765389Y-138553481D01*
X52764613Y-139442619D01*
X50710000Y-139442619D01*
X50710000Y-126283223D01*
X99553035Y-126283223D01*
X99580222Y-126853454D01*
X99746136Y-127254005D01*
X99992255Y-127328139D01*
X100820395Y-126500000D01*
X99992255Y-125671861D01*
X99746136Y-125745995D01*
X99553035Y-126283223D01*
X50710000Y-126283223D01*
X50710000Y-125492255D01*
X100171861Y-125492255D01*
X101000000Y-126320395D01*
X101828139Y-125492255D01*
X101754005Y-125246136D01*
X101216777Y-125053035D01*
X100646546Y-125080222D01*
X100245995Y-125246136D01*
X100171861Y-125492255D01*
X50710000Y-125492255D01*
X50710000Y-67284187D01*
X57064752Y-67284187D01*
X57282757Y-67811800D01*
X57615000Y-68144623D01*
X57615000Y-75355829D01*
X57284176Y-75686077D01*
X57065250Y-76213309D01*
X57064752Y-76784187D01*
X57282757Y-77311800D01*
X57615000Y-77644623D01*
X57615000Y-84855829D01*
X57284176Y-85186077D01*
X57065250Y-85713309D01*
X57064752Y-86284187D01*
X57282757Y-86811800D01*
X57615000Y-87144623D01*
X57615000Y-94355829D01*
X57284176Y-94686077D01*
X57065250Y-95213309D01*
X57064752Y-95784187D01*
X57282757Y-96311800D01*
X57615000Y-96644623D01*
X57615000Y-103855829D01*
X57284176Y-104186077D01*
X57065250Y-104713309D01*
X57064752Y-105284187D01*
X57282757Y-105811800D01*
X57615000Y-106144623D01*
X57615000Y-113355829D01*
X57284176Y-113686077D01*
X57065250Y-114213309D01*
X57064752Y-114784187D01*
X57282757Y-115311800D01*
X57686077Y-115715824D01*
X58213309Y-115934750D01*
X58784187Y-115935248D01*
X59311800Y-115717243D01*
X59715824Y-115313923D01*
X59934750Y-114786691D01*
X59935000Y-114500000D01*
X67196887Y-114500000D01*
X67306120Y-115049151D01*
X67617189Y-115514698D01*
X68082736Y-115825767D01*
X68631887Y-115935000D01*
X68688113Y-115935000D01*
X69237264Y-115825767D01*
X69702811Y-115514698D01*
X70013880Y-115049151D01*
X70123113Y-114500000D01*
X70013880Y-113950849D01*
X69702811Y-113485302D01*
X69237264Y-113174233D01*
X68688113Y-113065000D01*
X68631887Y-113065000D01*
X68082736Y-113174233D01*
X67617189Y-113485302D01*
X67306120Y-113950849D01*
X67196887Y-114500000D01*
X59935000Y-114500000D01*
X59935248Y-114215813D01*
X59717243Y-113688200D01*
X59385000Y-113355377D01*
X59385000Y-106144171D01*
X59715824Y-105813923D01*
X59934750Y-105286691D01*
X59935000Y-105000000D01*
X67196887Y-105000000D01*
X67306120Y-105549151D01*
X67617189Y-106014698D01*
X68082736Y-106325767D01*
X68631887Y-106435000D01*
X68688113Y-106435000D01*
X69237264Y-106325767D01*
X69702811Y-106014698D01*
X70013880Y-105549151D01*
X70123113Y-105000000D01*
X70013880Y-104450849D01*
X69702811Y-103985302D01*
X69237264Y-103674233D01*
X68688113Y-103565000D01*
X68631887Y-103565000D01*
X68082736Y-103674233D01*
X67617189Y-103985302D01*
X67306120Y-104450849D01*
X67196887Y-105000000D01*
X59935000Y-105000000D01*
X59935248Y-104715813D01*
X59717243Y-104188200D01*
X59385000Y-103855377D01*
X59385000Y-96644171D01*
X59715824Y-96313923D01*
X59934750Y-95786691D01*
X59935000Y-95500000D01*
X67196887Y-95500000D01*
X67306120Y-96049151D01*
X67617189Y-96514698D01*
X68082736Y-96825767D01*
X68631887Y-96935000D01*
X68688113Y-96935000D01*
X69237264Y-96825767D01*
X69702811Y-96514698D01*
X70013880Y-96049151D01*
X70062645Y-95803991D01*
X71924735Y-95803991D01*
X72157932Y-96368371D01*
X72589357Y-96800551D01*
X73153330Y-97034733D01*
X73763991Y-97035265D01*
X74328371Y-96802068D01*
X74496613Y-96634120D01*
X74496838Y-96635317D01*
X74635910Y-96851441D01*
X74848110Y-96996431D01*
X75100000Y-97047440D01*
X76900000Y-97047440D01*
X77135317Y-97003162D01*
X77351441Y-96864090D01*
X77496431Y-96651890D01*
X77547440Y-96400000D01*
X77547440Y-94600000D01*
X77503162Y-94364683D01*
X77364090Y-94148559D01*
X77151890Y-94003569D01*
X76900000Y-93952560D01*
X75100000Y-93952560D01*
X74864683Y-93996838D01*
X74648559Y-94135910D01*
X74503569Y-94348110D01*
X74499433Y-94368534D01*
X74330643Y-94199449D01*
X73766670Y-93965267D01*
X73156009Y-93964735D01*
X72591629Y-94197932D01*
X72159449Y-94629357D01*
X71925267Y-95193330D01*
X71924735Y-95803991D01*
X70062645Y-95803991D01*
X70123113Y-95500000D01*
X70013880Y-94950849D01*
X69702811Y-94485302D01*
X69237264Y-94174233D01*
X68688113Y-94065000D01*
X68631887Y-94065000D01*
X68082736Y-94174233D01*
X67617189Y-94485302D01*
X67306120Y-94950849D01*
X67196887Y-95500000D01*
X59935000Y-95500000D01*
X59935248Y-95215813D01*
X59717243Y-94688200D01*
X59385000Y-94355377D01*
X59385000Y-87144171D01*
X59715824Y-86813923D01*
X59934750Y-86286691D01*
X59935000Y-86000000D01*
X67196887Y-86000000D01*
X67306120Y-86549151D01*
X67617189Y-87014698D01*
X68082736Y-87325767D01*
X68631887Y-87435000D01*
X68688113Y-87435000D01*
X69237264Y-87325767D01*
X69702811Y-87014698D01*
X70013880Y-86549151D01*
X70062645Y-86303991D01*
X71924735Y-86303991D01*
X72157932Y-86868371D01*
X72589357Y-87300551D01*
X73153330Y-87534733D01*
X73763991Y-87535265D01*
X74328371Y-87302068D01*
X74496613Y-87134120D01*
X74496838Y-87135317D01*
X74635910Y-87351441D01*
X74848110Y-87496431D01*
X75100000Y-87547440D01*
X76900000Y-87547440D01*
X77135317Y-87503162D01*
X77351441Y-87364090D01*
X77496431Y-87151890D01*
X77547440Y-86900000D01*
X77547440Y-85100000D01*
X77503162Y-84864683D01*
X77364090Y-84648559D01*
X77151890Y-84503569D01*
X76900000Y-84452560D01*
X75100000Y-84452560D01*
X74864683Y-84496838D01*
X74648559Y-84635910D01*
X74503569Y-84848110D01*
X74499433Y-84868534D01*
X74330643Y-84699449D01*
X73766670Y-84465267D01*
X73156009Y-84464735D01*
X72591629Y-84697932D01*
X72159449Y-85129357D01*
X71925267Y-85693330D01*
X71924735Y-86303991D01*
X70062645Y-86303991D01*
X70123113Y-86000000D01*
X70013880Y-85450849D01*
X69702811Y-84985302D01*
X69237264Y-84674233D01*
X68688113Y-84565000D01*
X68631887Y-84565000D01*
X68082736Y-84674233D01*
X67617189Y-84985302D01*
X67306120Y-85450849D01*
X67196887Y-86000000D01*
X59935000Y-86000000D01*
X59935248Y-85715813D01*
X59717243Y-85188200D01*
X59385000Y-84855377D01*
X59385000Y-77644171D01*
X59715824Y-77313923D01*
X59934750Y-76786691D01*
X59935000Y-76500000D01*
X67196887Y-76500000D01*
X67306120Y-77049151D01*
X67617189Y-77514698D01*
X68082736Y-77825767D01*
X68631887Y-77935000D01*
X68688113Y-77935000D01*
X69237264Y-77825767D01*
X69702811Y-77514698D01*
X70013880Y-77049151D01*
X70123113Y-76500000D01*
X70013880Y-75950849D01*
X69702811Y-75485302D01*
X69237264Y-75174233D01*
X68688113Y-75065000D01*
X68631887Y-75065000D01*
X68082736Y-75174233D01*
X67617189Y-75485302D01*
X67306120Y-75950849D01*
X67196887Y-76500000D01*
X59935000Y-76500000D01*
X59935248Y-76215813D01*
X59717243Y-75688200D01*
X59385000Y-75355377D01*
X59385000Y-68144171D01*
X59715824Y-67813923D01*
X59934750Y-67286691D01*
X59935000Y-67000000D01*
X67196887Y-67000000D01*
X67306120Y-67549151D01*
X67617189Y-68014698D01*
X68082736Y-68325767D01*
X68631887Y-68435000D01*
X68688113Y-68435000D01*
X69237264Y-68325767D01*
X69702811Y-68014698D01*
X70013880Y-67549151D01*
X70123113Y-67000000D01*
X70013880Y-66450849D01*
X69702811Y-65985302D01*
X69237264Y-65674233D01*
X68688113Y-65565000D01*
X68631887Y-65565000D01*
X68082736Y-65674233D01*
X67617189Y-65985302D01*
X67306120Y-66450849D01*
X67196887Y-67000000D01*
X59935000Y-67000000D01*
X59935248Y-66715813D01*
X59717243Y-66188200D01*
X59313923Y-65784176D01*
X58786691Y-65565250D01*
X58215813Y-65564752D01*
X57688200Y-65782757D01*
X57284176Y-66186077D01*
X57065250Y-66713309D01*
X57064752Y-67284187D01*
X50710000Y-67284187D01*
X50710000Y-57784187D01*
X57064752Y-57784187D01*
X57282757Y-58311800D01*
X57686077Y-58715824D01*
X58213309Y-58934750D01*
X58784187Y-58935248D01*
X59311800Y-58717243D01*
X59715824Y-58313923D01*
X59934750Y-57786691D01*
X59935000Y-57500000D01*
X67196887Y-57500000D01*
X67306120Y-58049151D01*
X67617189Y-58514698D01*
X68082736Y-58825767D01*
X68631887Y-58935000D01*
X68688113Y-58935000D01*
X69237264Y-58825767D01*
X69702811Y-58514698D01*
X70013880Y-58049151D01*
X70062645Y-57803991D01*
X71924735Y-57803991D01*
X72157932Y-58368371D01*
X72589357Y-58800551D01*
X73153330Y-59034733D01*
X73763991Y-59035265D01*
X74328371Y-58802068D01*
X74496613Y-58634120D01*
X74496838Y-58635317D01*
X74635910Y-58851441D01*
X74848110Y-58996431D01*
X75100000Y-59047440D01*
X75318767Y-59047440D01*
X75462599Y-59262701D01*
X76465300Y-60265402D01*
X76465300Y-65452560D01*
X75100000Y-65452560D01*
X74864683Y-65496838D01*
X74648559Y-65635910D01*
X74503569Y-65848110D01*
X74499433Y-65868534D01*
X74330643Y-65699449D01*
X73766670Y-65465267D01*
X73156009Y-65464735D01*
X72591629Y-65697932D01*
X72159449Y-66129357D01*
X71925267Y-66693330D01*
X71924735Y-67303991D01*
X72157932Y-67868371D01*
X72589357Y-68300551D01*
X73153330Y-68534733D01*
X73763991Y-68535265D01*
X74328371Y-68302068D01*
X74496613Y-68134120D01*
X74496838Y-68135317D01*
X74635910Y-68351441D01*
X74848110Y-68496431D01*
X75100000Y-68547440D01*
X75240000Y-68547440D01*
X75240000Y-72576000D01*
X75297852Y-72866839D01*
X75462599Y-73113401D01*
X83756003Y-81406805D01*
X83526120Y-81750849D01*
X83416887Y-82300000D01*
X83526120Y-82849151D01*
X83837189Y-83314698D01*
X84219275Y-83570000D01*
X83837189Y-83825302D01*
X83828223Y-83838721D01*
X77520843Y-77531341D01*
X77547440Y-77400000D01*
X77547440Y-75600000D01*
X77503162Y-75364683D01*
X77364090Y-75148559D01*
X77151890Y-75003569D01*
X76900000Y-74952560D01*
X75100000Y-74952560D01*
X74864683Y-74996838D01*
X74648559Y-75135910D01*
X74503569Y-75348110D01*
X74499433Y-75368534D01*
X74330643Y-75199449D01*
X73766670Y-74965267D01*
X73156009Y-74964735D01*
X72591629Y-75197932D01*
X72159449Y-75629357D01*
X71925267Y-76193330D01*
X71924735Y-76803991D01*
X72157932Y-77368371D01*
X72589357Y-77800551D01*
X73153330Y-78034733D01*
X73763991Y-78035265D01*
X74328371Y-77802068D01*
X74496613Y-77634120D01*
X74496838Y-77635317D01*
X74635910Y-77851441D01*
X74848110Y-77996431D01*
X75100000Y-78047440D01*
X75318767Y-78047440D01*
X75462599Y-78262701D01*
X75709161Y-78427448D01*
X76000000Y-78485300D01*
X76325198Y-78485300D01*
X83217299Y-85377401D01*
X83463860Y-85542148D01*
X83653563Y-85579882D01*
X83837189Y-85854698D01*
X84219275Y-86110000D01*
X83837189Y-86365302D01*
X83526120Y-86830849D01*
X83416887Y-87380000D01*
X83526120Y-87929151D01*
X83837189Y-88394698D01*
X84219275Y-88650000D01*
X83837189Y-88905302D01*
X83526120Y-89370849D01*
X83416887Y-89920000D01*
X83526120Y-90469151D01*
X83837189Y-90934698D01*
X84219275Y-91190000D01*
X83837189Y-91445302D01*
X83526120Y-91910849D01*
X83416887Y-92460000D01*
X83526120Y-93009151D01*
X83756003Y-93353195D01*
X75462599Y-101646599D01*
X75297852Y-101893161D01*
X75240000Y-102184000D01*
X75240000Y-103452560D01*
X75100000Y-103452560D01*
X74864683Y-103496838D01*
X74648559Y-103635910D01*
X74503569Y-103848110D01*
X74499433Y-103868534D01*
X74330643Y-103699449D01*
X73766670Y-103465267D01*
X73156009Y-103464735D01*
X72591629Y-103697932D01*
X72159449Y-104129357D01*
X71925267Y-104693330D01*
X71924735Y-105303991D01*
X72157932Y-105868371D01*
X72589357Y-106300551D01*
X73153330Y-106534733D01*
X73763991Y-106535265D01*
X74328371Y-106302068D01*
X74496613Y-106134120D01*
X74496838Y-106135317D01*
X74635910Y-106351441D01*
X74848110Y-106496431D01*
X75100000Y-106547440D01*
X76900000Y-106547440D01*
X77135317Y-106503162D01*
X77351441Y-106364090D01*
X77496431Y-106151890D01*
X77547440Y-105900000D01*
X77547440Y-104100000D01*
X77503162Y-103864683D01*
X77364090Y-103648559D01*
X77151890Y-103503569D01*
X76900000Y-103452560D01*
X76760000Y-103452560D01*
X76760000Y-102498802D01*
X83599632Y-95659170D01*
X83837189Y-96014698D01*
X84120000Y-96203667D01*
X84120000Y-104079898D01*
X75462599Y-112737299D01*
X75318767Y-112952560D01*
X75100000Y-112952560D01*
X74864683Y-112996838D01*
X74648559Y-113135910D01*
X74503569Y-113348110D01*
X74499433Y-113368534D01*
X74330643Y-113199449D01*
X73766670Y-112965267D01*
X73156009Y-112964735D01*
X72591629Y-113197932D01*
X72159449Y-113629357D01*
X71925267Y-114193330D01*
X71924735Y-114803991D01*
X72157932Y-115368371D01*
X72589357Y-115800551D01*
X73153330Y-116034733D01*
X73763991Y-116035265D01*
X74328371Y-115802068D01*
X74496613Y-115634120D01*
X74496838Y-115635317D01*
X74635910Y-115851441D01*
X74848110Y-115996431D01*
X75100000Y-116047440D01*
X76900000Y-116047440D01*
X77135317Y-116003162D01*
X77351441Y-115864090D01*
X77496431Y-115651890D01*
X77547440Y-115400000D01*
X77547440Y-113600000D01*
X77503162Y-113364683D01*
X77364090Y-113148559D01*
X77267167Y-113082335D01*
X85417401Y-104932101D01*
X85582148Y-104685540D01*
X85599242Y-104599601D01*
X85640000Y-104394700D01*
X85640000Y-96203667D01*
X85922811Y-96014698D01*
X86233880Y-95549151D01*
X86343113Y-95000000D01*
X86233880Y-94450849D01*
X85922811Y-93985302D01*
X85602947Y-93771576D01*
X85622022Y-93675679D01*
X85922811Y-93474698D01*
X86233880Y-93009151D01*
X86343113Y-92460000D01*
X86233880Y-91910849D01*
X85922811Y-91445302D01*
X85540725Y-91190000D01*
X85922811Y-90934698D01*
X86233880Y-90469151D01*
X86343113Y-89920000D01*
X86233880Y-89370849D01*
X85922811Y-88905302D01*
X85540725Y-88650000D01*
X85922811Y-88394698D01*
X86233880Y-87929151D01*
X86343113Y-87380000D01*
X86233880Y-86830849D01*
X85922811Y-86365302D01*
X85540725Y-86110000D01*
X85922811Y-85854698D01*
X86233880Y-85389151D01*
X86343113Y-84840000D01*
X86233880Y-84290849D01*
X85922811Y-83825302D01*
X85540725Y-83570000D01*
X85922811Y-83314698D01*
X86233880Y-82849151D01*
X86343113Y-82300000D01*
X86233880Y-81750849D01*
X85922811Y-81285302D01*
X85622022Y-81084321D01*
X85602947Y-80988424D01*
X85922811Y-80774698D01*
X86233880Y-80309151D01*
X86343113Y-79760000D01*
X91036887Y-79760000D01*
X91146120Y-80309151D01*
X91457189Y-80774698D01*
X91839275Y-81030000D01*
X91457189Y-81285302D01*
X91146120Y-81750849D01*
X91036887Y-82300000D01*
X91146120Y-82849151D01*
X91457189Y-83314698D01*
X91839275Y-83570000D01*
X91457189Y-83825302D01*
X91146120Y-84290849D01*
X91036887Y-84840000D01*
X91146120Y-85389151D01*
X91457189Y-85854698D01*
X91839275Y-86110000D01*
X91457189Y-86365302D01*
X91146120Y-86830849D01*
X91036887Y-87380000D01*
X91146120Y-87929151D01*
X91457189Y-88394698D01*
X91839275Y-88650000D01*
X91457189Y-88905302D01*
X91146120Y-89370849D01*
X91036887Y-89920000D01*
X91146120Y-90469151D01*
X91457189Y-90934698D01*
X91839275Y-91190000D01*
X91457189Y-91445302D01*
X91146120Y-91910849D01*
X91036887Y-92460000D01*
X91146120Y-93009151D01*
X91457189Y-93474698D01*
X91601465Y-93571101D01*
X91464683Y-93596838D01*
X91248559Y-93735910D01*
X91103569Y-93948110D01*
X91052560Y-94200000D01*
X91052560Y-95800000D01*
X91096838Y-96035317D01*
X91235910Y-96251441D01*
X91448110Y-96396431D01*
X91700000Y-96447440D01*
X93300000Y-96447440D01*
X93535317Y-96403162D01*
X93751441Y-96264090D01*
X93777073Y-96226576D01*
X98003099Y-100452602D01*
X98249661Y-100617348D01*
X98540500Y-100675200D01*
X108676221Y-100675200D01*
X102591910Y-106759510D01*
X102400067Y-107046625D01*
X102400067Y-107046626D01*
X102332699Y-107385300D01*
X102332700Y-107385305D01*
X102332700Y-125936322D01*
X102253864Y-125745995D01*
X102007745Y-125671861D01*
X101179605Y-126500000D01*
X101193748Y-126514142D01*
X101014142Y-126693748D01*
X101000000Y-126679605D01*
X100171861Y-127507745D01*
X100186145Y-127555167D01*
X99964683Y-127596838D01*
X99748559Y-127735910D01*
X99603569Y-127948110D01*
X99552560Y-128200000D01*
X99552560Y-129800000D01*
X99596838Y-130035317D01*
X99735910Y-130251441D01*
X99948110Y-130396431D01*
X100200000Y-130447440D01*
X101800000Y-130447440D01*
X102035317Y-130403162D01*
X102251441Y-130264090D01*
X102396431Y-130051890D01*
X102447440Y-129800000D01*
X102447440Y-128804140D01*
X103504900Y-127746679D01*
X103504900Y-131698298D01*
X101637899Y-133565299D01*
X101473152Y-133811861D01*
X101415300Y-134102700D01*
X101415300Y-135028515D01*
X101000000Y-134945907D01*
X100431715Y-135058946D01*
X99949946Y-135380853D01*
X99628039Y-135862622D01*
X99515000Y-136430907D01*
X99515000Y-136489093D01*
X99628039Y-137057378D01*
X99949946Y-137539147D01*
X99951179Y-137539971D01*
X99914683Y-137546838D01*
X99698559Y-137685910D01*
X99553569Y-137898110D01*
X99502560Y-138150000D01*
X99502560Y-139850000D01*
X99546838Y-140085317D01*
X99685910Y-140301441D01*
X99898110Y-140446431D01*
X100150000Y-140497440D01*
X101850000Y-140497440D01*
X102085317Y-140453162D01*
X102301441Y-140314090D01*
X102446431Y-140101890D01*
X102460086Y-140034459D01*
X102489946Y-140079147D01*
X102971715Y-140401054D01*
X103540000Y-140514093D01*
X104108285Y-140401054D01*
X104590054Y-140079147D01*
X104810000Y-139749974D01*
X105029946Y-140079147D01*
X105511715Y-140401054D01*
X106080000Y-140514093D01*
X106648285Y-140401054D01*
X107130054Y-140079147D01*
X107350000Y-139749974D01*
X107569946Y-140079147D01*
X108051715Y-140401054D01*
X108620000Y-140514093D01*
X109188285Y-140401054D01*
X109670054Y-140079147D01*
X109890000Y-139749974D01*
X110109946Y-140079147D01*
X110591715Y-140401054D01*
X111160000Y-140514093D01*
X111728285Y-140401054D01*
X112210054Y-140079147D01*
X112430000Y-139749974D01*
X112649946Y-140079147D01*
X113131715Y-140401054D01*
X113700000Y-140514093D01*
X114268285Y-140401054D01*
X114750054Y-140079147D01*
X114970000Y-139749974D01*
X115189946Y-140079147D01*
X115671715Y-140401054D01*
X116240000Y-140514093D01*
X116808285Y-140401054D01*
X117290054Y-140079147D01*
X117510000Y-139749974D01*
X117729946Y-140079147D01*
X118211715Y-140401054D01*
X118780000Y-140514093D01*
X119348285Y-140401054D01*
X119830054Y-140079147D01*
X120050000Y-139749974D01*
X120269946Y-140079147D01*
X120751715Y-140401054D01*
X121320000Y-140514093D01*
X121888285Y-140401054D01*
X122370054Y-140079147D01*
X122590000Y-139749974D01*
X122809946Y-140079147D01*
X123291715Y-140401054D01*
X123860000Y-140514093D01*
X124428285Y-140401054D01*
X124767558Y-140174360D01*
X127131099Y-142537901D01*
X127377661Y-142702648D01*
X127668500Y-142760500D01*
X158597000Y-142760500D01*
X158887839Y-142702648D01*
X159134401Y-142537901D01*
X162229683Y-139442619D01*
X197764613Y-139442619D01*
X198104155Y-140264372D01*
X198732321Y-140893636D01*
X199553481Y-141234611D01*
X200442619Y-141235387D01*
X201264372Y-140895845D01*
X201893636Y-140267679D01*
X202234611Y-139446519D01*
X202235387Y-138557381D01*
X201895845Y-137735628D01*
X201267679Y-137106364D01*
X200446519Y-136765389D01*
X199557381Y-136764613D01*
X198735628Y-137104155D01*
X198106364Y-137732321D01*
X197765389Y-138553481D01*
X197764613Y-139442619D01*
X162229683Y-139442619D01*
X179282701Y-122389601D01*
X179447448Y-122143039D01*
X179505300Y-121852200D01*
X179505300Y-120789200D01*
X179447448Y-120498361D01*
X179282701Y-120251799D01*
X178744037Y-119713135D01*
X178973880Y-119369151D01*
X179083113Y-118820000D01*
X178973880Y-118270849D01*
X178662811Y-117805302D01*
X178362022Y-117604321D01*
X178342947Y-117508424D01*
X178662811Y-117294698D01*
X178973880Y-116829151D01*
X179083113Y-116280000D01*
X178973880Y-115730849D01*
X178662811Y-115265302D01*
X178362022Y-115064321D01*
X178342947Y-114968424D01*
X178662811Y-114754698D01*
X178973880Y-114289151D01*
X179083113Y-113740000D01*
X178973880Y-113190849D01*
X178662811Y-112725302D01*
X178280725Y-112470000D01*
X178662811Y-112214698D01*
X178973880Y-111749151D01*
X179083113Y-111200000D01*
X178973880Y-110650849D01*
X178662811Y-110185302D01*
X178280725Y-109930000D01*
X178662811Y-109674698D01*
X178973880Y-109209151D01*
X179083113Y-108660000D01*
X178973880Y-108110849D01*
X178744037Y-107766865D01*
X179282701Y-107228201D01*
X179447448Y-106981639D01*
X179505300Y-106690800D01*
X179505300Y-93487300D01*
X179447448Y-93196461D01*
X179392780Y-93114645D01*
X179282701Y-92949898D01*
X178874600Y-92541798D01*
X178874600Y-78887909D01*
X179211887Y-78955000D01*
X179268113Y-78955000D01*
X179817264Y-78845767D01*
X180282811Y-78534698D01*
X180593880Y-78069151D01*
X180703113Y-77520000D01*
X180593880Y-76970849D01*
X180282811Y-76505302D01*
X179900725Y-76250000D01*
X180282811Y-75994698D01*
X180593880Y-75529151D01*
X180703113Y-74980000D01*
X180593880Y-74430849D01*
X180282811Y-73965302D01*
X179900725Y-73710000D01*
X180282811Y-73454698D01*
X180593880Y-72989151D01*
X180703113Y-72440000D01*
X180593880Y-71890849D01*
X180282811Y-71425302D01*
X179900725Y-71170000D01*
X180282811Y-70914698D01*
X180593880Y-70449151D01*
X180703113Y-69900000D01*
X180593880Y-69350849D01*
X180282811Y-68885302D01*
X179900725Y-68630000D01*
X180282811Y-68374698D01*
X180593880Y-67909151D01*
X180703113Y-67360000D01*
X180593880Y-66810849D01*
X180282811Y-66345302D01*
X179900725Y-66090000D01*
X180282811Y-65834698D01*
X180593880Y-65369151D01*
X180703113Y-64820000D01*
X180593880Y-64270849D01*
X180282811Y-63805302D01*
X179900725Y-63550000D01*
X180282811Y-63294698D01*
X180593880Y-62829151D01*
X180703113Y-62280000D01*
X180593880Y-61730849D01*
X180282811Y-61265302D01*
X179962947Y-61051576D01*
X179982022Y-60955679D01*
X180282811Y-60754698D01*
X180593880Y-60289151D01*
X180703113Y-59740000D01*
X180593880Y-59190849D01*
X180282811Y-58725302D01*
X179900725Y-58470000D01*
X180282811Y-58214698D01*
X180593880Y-57749151D01*
X180703113Y-57200000D01*
X180593880Y-56650849D01*
X180529436Y-56554401D01*
X180726643Y-56472917D01*
X180989892Y-56210127D01*
X181132538Y-55866599D01*
X181132862Y-55494633D01*
X180990817Y-55150857D01*
X180728027Y-54887608D01*
X180663194Y-54860687D01*
X180703113Y-54660000D01*
X180593880Y-54110849D01*
X180282811Y-53645302D01*
X179900725Y-53390000D01*
X180282811Y-53134698D01*
X180593880Y-52669151D01*
X180703113Y-52120000D01*
X180593880Y-51570849D01*
X180282811Y-51105302D01*
X179900725Y-50850000D01*
X180282811Y-50594698D01*
X180593880Y-50129151D01*
X180618029Y-50007745D01*
X184671861Y-50007745D01*
X184745995Y-50253864D01*
X185283223Y-50446965D01*
X185853454Y-50419778D01*
X186254005Y-50253864D01*
X186328139Y-50007745D01*
X185500000Y-49179605D01*
X184671861Y-50007745D01*
X180618029Y-50007745D01*
X180703113Y-49580000D01*
X180593880Y-49030849D01*
X180428422Y-48783223D01*
X184053035Y-48783223D01*
X184080222Y-49353454D01*
X184246136Y-49754005D01*
X184492255Y-49828139D01*
X185320395Y-49000000D01*
X185679605Y-49000000D01*
X186507745Y-49828139D01*
X186753864Y-49754005D01*
X186946965Y-49216777D01*
X186919778Y-48646546D01*
X186753864Y-48245995D01*
X186507745Y-48171861D01*
X185679605Y-49000000D01*
X185320395Y-49000000D01*
X184492255Y-48171861D01*
X184246136Y-48245995D01*
X184053035Y-48783223D01*
X180428422Y-48783223D01*
X180282811Y-48565302D01*
X179900725Y-48310000D01*
X180282811Y-48054698D01*
X180324534Y-47992255D01*
X184671861Y-47992255D01*
X185500000Y-48820395D01*
X186328139Y-47992255D01*
X186254005Y-47746136D01*
X185716777Y-47553035D01*
X185146546Y-47580222D01*
X184745995Y-47746136D01*
X184671861Y-47992255D01*
X180324534Y-47992255D01*
X180593880Y-47589151D01*
X180703113Y-47040000D01*
X180593880Y-46490849D01*
X180282811Y-46025302D01*
X180125000Y-45919856D01*
X180125000Y-45620144D01*
X180282811Y-45514698D01*
X180593880Y-45049151D01*
X180703113Y-44500000D01*
X180660186Y-44284187D01*
X184064752Y-44284187D01*
X184282757Y-44811800D01*
X184686077Y-45215824D01*
X185213309Y-45434750D01*
X185784187Y-45435248D01*
X186311800Y-45217243D01*
X186715824Y-44813923D01*
X186934750Y-44286691D01*
X186935248Y-43715813D01*
X186717243Y-43188200D01*
X186313923Y-42784176D01*
X185786691Y-42565250D01*
X185215813Y-42564752D01*
X184688200Y-42782757D01*
X184284176Y-43186077D01*
X184065250Y-43713309D01*
X184064752Y-44284187D01*
X180660186Y-44284187D01*
X180593880Y-43950849D01*
X180282811Y-43485302D01*
X179817264Y-43174233D01*
X179268113Y-43065000D01*
X179211887Y-43065000D01*
X178662736Y-43174233D01*
X178197189Y-43485302D01*
X177886120Y-43950849D01*
X177776887Y-44500000D01*
X177886120Y-45049151D01*
X178197189Y-45514698D01*
X178355000Y-45620144D01*
X178355000Y-45919856D01*
X178197189Y-46025302D01*
X177886120Y-46490849D01*
X177776887Y-47040000D01*
X177886120Y-47589151D01*
X178197189Y-48054698D01*
X178579275Y-48310000D01*
X178197189Y-48565302D01*
X178027005Y-48820000D01*
X171614702Y-48820000D01*
X168166301Y-45371599D01*
X167919739Y-45206852D01*
X167628900Y-45149000D01*
X165447440Y-45149000D01*
X165447440Y-43700000D01*
X165403162Y-43464683D01*
X165264090Y-43248559D01*
X165051890Y-43103569D01*
X164800000Y-43052560D01*
X163200000Y-43052560D01*
X162964683Y-43096838D01*
X162748559Y-43235910D01*
X162603569Y-43448110D01*
X162552560Y-43700000D01*
X162552560Y-44872638D01*
X149715099Y-57710099D01*
X149550352Y-57956661D01*
X149492500Y-58247500D01*
X149492500Y-96105692D01*
X149430133Y-96105638D01*
X149276106Y-96169281D01*
X149245790Y-96123910D01*
X149245787Y-96123908D01*
X147885000Y-94763120D01*
X147885000Y-94144171D01*
X148215824Y-93813923D01*
X148434750Y-93286691D01*
X148435248Y-92715813D01*
X148217243Y-92188200D01*
X147813923Y-91784176D01*
X147286691Y-91565250D01*
X146715813Y-91564752D01*
X146609200Y-91608804D01*
X146609200Y-57541200D01*
X146551348Y-57250361D01*
X146386601Y-57003799D01*
X131828749Y-42445947D01*
X132093880Y-42049151D01*
X132203113Y-41500000D01*
X132093880Y-40950849D01*
X131782811Y-40485302D01*
X131317264Y-40174233D01*
X130768113Y-40065000D01*
X130711887Y-40065000D01*
X130162736Y-40174233D01*
X129697189Y-40485302D01*
X129386120Y-40950849D01*
X129276887Y-41500000D01*
X129386120Y-42049151D01*
X129456646Y-42154700D01*
X117750600Y-42154700D01*
X117459761Y-42212552D01*
X117213199Y-42377299D01*
X116551777Y-43038721D01*
X116542811Y-43025302D01*
X116398535Y-42928899D01*
X116535317Y-42903162D01*
X116751441Y-42764090D01*
X116896431Y-42551890D01*
X116947440Y-42300000D01*
X116947440Y-40700000D01*
X116903162Y-40464683D01*
X116764090Y-40248559D01*
X116551890Y-40103569D01*
X116300000Y-40052560D01*
X114700000Y-40052560D01*
X114464683Y-40096838D01*
X114248559Y-40235910D01*
X114103569Y-40448110D01*
X114052560Y-40700000D01*
X114052560Y-42300000D01*
X114096838Y-42535317D01*
X114235910Y-42751441D01*
X114448110Y-42896431D01*
X114603089Y-42927815D01*
X114457189Y-43025302D01*
X114146120Y-43490849D01*
X114036887Y-44040000D01*
X114146120Y-44589151D01*
X114457189Y-45054698D01*
X114839275Y-45310000D01*
X114457189Y-45565302D01*
X114146120Y-46030849D01*
X114036887Y-46580000D01*
X114146120Y-47129151D01*
X114457189Y-47594698D01*
X114839275Y-47850000D01*
X114457189Y-48105302D01*
X114146120Y-48570849D01*
X114036887Y-49120000D01*
X114146120Y-49669151D01*
X114457189Y-50134698D01*
X114757978Y-50335679D01*
X114777053Y-50431576D01*
X114457189Y-50645302D01*
X114146120Y-51110849D01*
X114036887Y-51660000D01*
X114146120Y-52209151D01*
X114457189Y-52674698D01*
X114839275Y-52930000D01*
X114457189Y-53185302D01*
X114146120Y-53650849D01*
X114036887Y-54200000D01*
X114146120Y-54749151D01*
X114457189Y-55214698D01*
X114839275Y-55470000D01*
X114457189Y-55725302D01*
X114146120Y-56190849D01*
X114036887Y-56740000D01*
X114146120Y-57289151D01*
X114457189Y-57754698D01*
X114839275Y-58010000D01*
X114457189Y-58265302D01*
X114146120Y-58730849D01*
X114036887Y-59280000D01*
X114146120Y-59829151D01*
X114457189Y-60294698D01*
X114839275Y-60550000D01*
X114457189Y-60805302D01*
X114146120Y-61270849D01*
X114036887Y-61820000D01*
X114146120Y-62369151D01*
X114457189Y-62834698D01*
X114839275Y-63090000D01*
X114457189Y-63345302D01*
X114146120Y-63810849D01*
X114036887Y-64360000D01*
X114146120Y-64909151D01*
X114457189Y-65374698D01*
X114839275Y-65630000D01*
X114457189Y-65885302D01*
X114146120Y-66350849D01*
X114036887Y-66900000D01*
X114146120Y-67449151D01*
X114457189Y-67914698D01*
X114839275Y-68170000D01*
X114457189Y-68425302D01*
X114146120Y-68890849D01*
X114036887Y-69440000D01*
X114146120Y-69989151D01*
X114457189Y-70454698D01*
X114839275Y-70710000D01*
X114457189Y-70965302D01*
X114146120Y-71430849D01*
X114036887Y-71980000D01*
X114146120Y-72529151D01*
X114376003Y-72873195D01*
X112883099Y-74366099D01*
X112718352Y-74612661D01*
X112660500Y-74903500D01*
X112660500Y-88548400D01*
X112718352Y-88839239D01*
X112883099Y-89085801D01*
X115465484Y-91668186D01*
X115188200Y-91782757D01*
X114784176Y-92186077D01*
X114565250Y-92713309D01*
X114564840Y-93183581D01*
X109751110Y-97997310D01*
X109559267Y-98284425D01*
X109559267Y-98284426D01*
X109491899Y-98623100D01*
X109491900Y-98623105D01*
X109491900Y-98980082D01*
X109441433Y-98980038D01*
X109097657Y-99122083D01*
X109064482Y-99155200D01*
X104333216Y-99155200D01*
X104333262Y-99101933D01*
X104191217Y-98758157D01*
X103928427Y-98494908D01*
X103723699Y-98409897D01*
X94696401Y-89382599D01*
X94449839Y-89217852D01*
X94159000Y-89160000D01*
X93712995Y-89160000D01*
X93542811Y-88905302D01*
X93160725Y-88650000D01*
X93542811Y-88394698D01*
X93853880Y-87929151D01*
X93963113Y-87380000D01*
X93853880Y-86830849D01*
X93542811Y-86365302D01*
X93160725Y-86110000D01*
X93542811Y-85854698D01*
X93853880Y-85389151D01*
X93963113Y-84840000D01*
X93853880Y-84290849D01*
X93542811Y-83825302D01*
X93160725Y-83570000D01*
X93542811Y-83314698D01*
X93853880Y-82849151D01*
X93963113Y-82300000D01*
X93853880Y-81750849D01*
X93542811Y-81285302D01*
X93160725Y-81030000D01*
X93542811Y-80774698D01*
X93853880Y-80309151D01*
X93963113Y-79760000D01*
X93853880Y-79210849D01*
X93542811Y-78745302D01*
X93138297Y-78475014D01*
X93355134Y-78372389D01*
X93731041Y-77957423D01*
X93891904Y-77569039D01*
X93769915Y-77347000D01*
X92627000Y-77347000D01*
X92627000Y-77367000D01*
X92373000Y-77367000D01*
X92373000Y-77347000D01*
X91230085Y-77347000D01*
X91108096Y-77569039D01*
X91268959Y-77957423D01*
X91644866Y-78372389D01*
X91861703Y-78475014D01*
X91457189Y-78745302D01*
X91146120Y-79210849D01*
X91036887Y-79760000D01*
X86343113Y-79760000D01*
X86233880Y-79210849D01*
X85922811Y-78745302D01*
X85622022Y-78544321D01*
X85602947Y-78448424D01*
X85922811Y-78234698D01*
X86233880Y-77769151D01*
X86343113Y-77220000D01*
X86233880Y-76670849D01*
X85922811Y-76205302D01*
X85540725Y-75950000D01*
X85922811Y-75694698D01*
X86233880Y-75229151D01*
X86273684Y-75029039D01*
X91108096Y-75029039D01*
X91268959Y-75417423D01*
X91644866Y-75832389D01*
X91893367Y-75950000D01*
X91644866Y-76067611D01*
X91268959Y-76482577D01*
X91108096Y-76870961D01*
X91230085Y-77093000D01*
X92373000Y-77093000D01*
X92373000Y-74807000D01*
X92627000Y-74807000D01*
X92627000Y-77093000D01*
X93769915Y-77093000D01*
X93891904Y-76870961D01*
X93731041Y-76482577D01*
X93355134Y-76067611D01*
X93106633Y-75950000D01*
X93355134Y-75832389D01*
X93731041Y-75417423D01*
X93891904Y-75029039D01*
X93769915Y-74807000D01*
X92627000Y-74807000D01*
X92373000Y-74807000D01*
X91230085Y-74807000D01*
X91108096Y-75029039D01*
X86273684Y-75029039D01*
X86343113Y-74680000D01*
X86273685Y-74330961D01*
X91108096Y-74330961D01*
X91230085Y-74553000D01*
X92373000Y-74553000D01*
X92373000Y-73409371D01*
X92627000Y-73409371D01*
X92627000Y-74553000D01*
X93769915Y-74553000D01*
X93891904Y-74330961D01*
X93731041Y-73942577D01*
X93355134Y-73527611D01*
X92849041Y-73288086D01*
X92627000Y-73409371D01*
X92373000Y-73409371D01*
X92150959Y-73288086D01*
X91644866Y-73527611D01*
X91268959Y-73942577D01*
X91108096Y-74330961D01*
X86273685Y-74330961D01*
X86233880Y-74130849D01*
X85922811Y-73665302D01*
X85457264Y-73354233D01*
X84908113Y-73245000D01*
X84851887Y-73245000D01*
X84302736Y-73354233D01*
X83837189Y-73665302D01*
X83526120Y-74130849D01*
X83416887Y-74680000D01*
X83526120Y-75229151D01*
X83837189Y-75694698D01*
X84219275Y-75950000D01*
X83837189Y-76205302D01*
X83599592Y-76560890D01*
X77985300Y-70946598D01*
X77985300Y-59950600D01*
X77927448Y-59659761D01*
X77762701Y-59413199D01*
X77267565Y-58918063D01*
X77351441Y-58864090D01*
X77496431Y-58651890D01*
X77547440Y-58400000D01*
X77547440Y-56600000D01*
X77503162Y-56364683D01*
X77364090Y-56148559D01*
X77151890Y-56003569D01*
X76900000Y-55952560D01*
X75100000Y-55952560D01*
X74864683Y-55996838D01*
X74648559Y-56135910D01*
X74503569Y-56348110D01*
X74499433Y-56368534D01*
X74330643Y-56199449D01*
X73766670Y-55965267D01*
X73156009Y-55964735D01*
X72591629Y-56197932D01*
X72159449Y-56629357D01*
X71925267Y-57193330D01*
X71924735Y-57803991D01*
X70062645Y-57803991D01*
X70123113Y-57500000D01*
X70013880Y-56950849D01*
X69702811Y-56485302D01*
X69237264Y-56174233D01*
X68688113Y-56065000D01*
X68631887Y-56065000D01*
X68082736Y-56174233D01*
X67617189Y-56485302D01*
X67306120Y-56950849D01*
X67196887Y-57500000D01*
X59935000Y-57500000D01*
X59935248Y-57215813D01*
X59717243Y-56688200D01*
X59313923Y-56284176D01*
X58786691Y-56065250D01*
X58215813Y-56064752D01*
X57688200Y-56282757D01*
X57284176Y-56686077D01*
X57065250Y-57213309D01*
X57064752Y-57784187D01*
X50710000Y-57784187D01*
X50710000Y-37507745D01*
X119671861Y-37507745D01*
X119745995Y-37753864D01*
X120283223Y-37946965D01*
X120853454Y-37919778D01*
X121254005Y-37753864D01*
X121328139Y-37507745D01*
X120500000Y-36679605D01*
X119671861Y-37507745D01*
X50710000Y-37507745D01*
X50710000Y-35442619D01*
X52764613Y-35442619D01*
X53104155Y-36264372D01*
X53732321Y-36893636D01*
X54553481Y-37234611D01*
X55442619Y-37235387D01*
X56264372Y-36895845D01*
X56878064Y-36283223D01*
X119053035Y-36283223D01*
X119080222Y-36853454D01*
X119246136Y-37254005D01*
X119492255Y-37328139D01*
X120320395Y-36500000D01*
X120679605Y-36500000D01*
X121507745Y-37328139D01*
X121753864Y-37254005D01*
X121922735Y-36784187D01*
X124064752Y-36784187D01*
X124282757Y-37311800D01*
X124686077Y-37715824D01*
X125213309Y-37934750D01*
X125784187Y-37935248D01*
X126311800Y-37717243D01*
X126715824Y-37313923D01*
X126934750Y-36786691D01*
X126935248Y-36215813D01*
X126717243Y-35688200D01*
X126472090Y-35442619D01*
X197764613Y-35442619D01*
X198104155Y-36264372D01*
X198732321Y-36893636D01*
X199553481Y-37234611D01*
X200442619Y-37235387D01*
X201264372Y-36895845D01*
X201893636Y-36267679D01*
X202234611Y-35446519D01*
X202235387Y-34557381D01*
X201895845Y-33735628D01*
X201267679Y-33106364D01*
X200446519Y-32765389D01*
X199557381Y-32764613D01*
X198735628Y-33104155D01*
X198106364Y-33732321D01*
X197765389Y-34553481D01*
X197764613Y-35442619D01*
X126472090Y-35442619D01*
X126313923Y-35284176D01*
X125786691Y-35065250D01*
X125215813Y-35064752D01*
X124688200Y-35282757D01*
X124284176Y-35686077D01*
X124065250Y-36213309D01*
X124064752Y-36784187D01*
X121922735Y-36784187D01*
X121946965Y-36716777D01*
X121919778Y-36146546D01*
X121753864Y-35745995D01*
X121507745Y-35671861D01*
X120679605Y-36500000D01*
X120320395Y-36500000D01*
X119492255Y-35671861D01*
X119246136Y-35745995D01*
X119053035Y-36283223D01*
X56878064Y-36283223D01*
X56893636Y-36267679D01*
X57215619Y-35492255D01*
X119671861Y-35492255D01*
X120500000Y-36320395D01*
X121328139Y-35492255D01*
X121254005Y-35246136D01*
X120716777Y-35053035D01*
X120146546Y-35080222D01*
X119745995Y-35246136D01*
X119671861Y-35492255D01*
X57215619Y-35492255D01*
X57234611Y-35446519D01*
X57235387Y-34557381D01*
X56895845Y-33735628D01*
X56267679Y-33106364D01*
X55446519Y-32765389D01*
X54557381Y-32764613D01*
X53735628Y-33104155D01*
X53106364Y-33732321D01*
X52765389Y-34553481D01*
X52764613Y-35442619D01*
X50710000Y-35442619D01*
X50710000Y-30710000D01*
X204290000Y-30710000D01*
X204290000Y-143290000D01*
G36*
X139957189Y-114254698D02*
X140339275Y-114510000D01*
X139957189Y-114765302D01*
X139646120Y-115230849D01*
X139536887Y-115780000D01*
X139646120Y-116329151D01*
X139957189Y-116794698D01*
X140339275Y-117050000D01*
X139957189Y-117305302D01*
X139646120Y-117770849D01*
X139536887Y-118320000D01*
X139646120Y-118869151D01*
X139957189Y-119334698D01*
X140339275Y-119590000D01*
X139957189Y-119845302D01*
X139646120Y-120310849D01*
X139536887Y-120860000D01*
X139646120Y-121409151D01*
X139957189Y-121874698D01*
X140339275Y-122130000D01*
X139957189Y-122385302D01*
X139646120Y-122850849D01*
X139536887Y-123400000D01*
X139646120Y-123949151D01*
X139957189Y-124414698D01*
X140361703Y-124684986D01*
X140144866Y-124787611D01*
X139768959Y-125202577D01*
X139608096Y-125590961D01*
X139730085Y-125813000D01*
X140873000Y-125813000D01*
X140873000Y-125793000D01*
X141127000Y-125793000D01*
X141127000Y-125813000D01*
X141147000Y-125813000D01*
X141147000Y-126067000D01*
X141127000Y-126067000D01*
X141127000Y-126087000D01*
X140873000Y-126087000D01*
X140873000Y-126067000D01*
X139730085Y-126067000D01*
X139608096Y-126289039D01*
X139768959Y-126677423D01*
X140144866Y-127092389D01*
X140650959Y-127331914D01*
X140872998Y-127210630D01*
X140872998Y-127258000D01*
X139919299Y-128211699D01*
X139754552Y-128458261D01*
X139696700Y-128749100D01*
X139696700Y-135077932D01*
X139668285Y-135058946D01*
X139100000Y-134945907D01*
X138531715Y-135058946D01*
X138049946Y-135380853D01*
X137830000Y-135710026D01*
X137610054Y-135380853D01*
X137128285Y-135058946D01*
X136560000Y-134945907D01*
X135991715Y-135058946D01*
X135509946Y-135380853D01*
X135290000Y-135710026D01*
X135070054Y-135380853D01*
X134588285Y-135058946D01*
X134020000Y-134945907D01*
X133451715Y-135058946D01*
X132969946Y-135380853D01*
X132750000Y-135710026D01*
X132530054Y-135380853D01*
X132048285Y-135058946D01*
X131480000Y-134945907D01*
X130911715Y-135058946D01*
X130429946Y-135380853D01*
X130210000Y-135710026D01*
X129990054Y-135380853D01*
X129508285Y-135058946D01*
X128940000Y-134945907D01*
X128371715Y-135058946D01*
X127889946Y-135380853D01*
X127662298Y-135721553D01*
X127595183Y-135578642D01*
X127166924Y-135188355D01*
X126756890Y-135018524D01*
X126527000Y-135139845D01*
X126527000Y-136333000D01*
X126547000Y-136333000D01*
X126547000Y-136587000D01*
X126527000Y-136587000D01*
X126527000Y-136607000D01*
X126273000Y-136607000D01*
X126273000Y-136587000D01*
X126253000Y-136587000D01*
X126253000Y-136333000D01*
X126273000Y-136333000D01*
X126273000Y-135139845D01*
X126043110Y-135018524D01*
X125633076Y-135188355D01*
X125204817Y-135578642D01*
X125137702Y-135721553D01*
X124910054Y-135380853D01*
X124428285Y-135058946D01*
X123860000Y-134945907D01*
X123291715Y-135058946D01*
X122809946Y-135380853D01*
X122590000Y-135710026D01*
X122370054Y-135380853D01*
X121888285Y-135058946D01*
X121320000Y-134945907D01*
X120751715Y-135058946D01*
X120715300Y-135083278D01*
X120715300Y-119695902D01*
X121376643Y-119034559D01*
X121577189Y-119334698D01*
X121959275Y-119590000D01*
X121577189Y-119845302D01*
X121266120Y-120310849D01*
X121156887Y-120860000D01*
X121266120Y-121409151D01*
X121577189Y-121874698D01*
X122042736Y-122185767D01*
X122591887Y-122295000D01*
X122648113Y-122295000D01*
X123197264Y-122185767D01*
X123662811Y-121874698D01*
X123973880Y-121409151D01*
X124083113Y-120860000D01*
X123973880Y-120310849D01*
X123662811Y-119845302D01*
X123280725Y-119590000D01*
X123662811Y-119334698D01*
X123832995Y-119080000D01*
X134794700Y-119080000D01*
X135085539Y-119022148D01*
X135332101Y-118857401D01*
X139948223Y-114241279D01*
X139957189Y-114254698D01*
X139957189Y-114254698D01*
G37*
X139957189Y-114254698D02*
X140339275Y-114510000D01*
X139957189Y-114765302D01*
X139646120Y-115230849D01*
X139536887Y-115780000D01*
X139646120Y-116329151D01*
X139957189Y-116794698D01*
X140339275Y-117050000D01*
X139957189Y-117305302D01*
X139646120Y-117770849D01*
X139536887Y-118320000D01*
X139646120Y-118869151D01*
X139957189Y-119334698D01*
X140339275Y-119590000D01*
X139957189Y-119845302D01*
X139646120Y-120310849D01*
X139536887Y-120860000D01*
X139646120Y-121409151D01*
X139957189Y-121874698D01*
X140339275Y-122130000D01*
X139957189Y-122385302D01*
X139646120Y-122850849D01*
X139536887Y-123400000D01*
X139646120Y-123949151D01*
X139957189Y-124414698D01*
X140361703Y-124684986D01*
X140144866Y-124787611D01*
X139768959Y-125202577D01*
X139608096Y-125590961D01*
X139730085Y-125813000D01*
X140873000Y-125813000D01*
X140873000Y-125793000D01*
X141127000Y-125793000D01*
X141127000Y-125813000D01*
X141147000Y-125813000D01*
X141147000Y-126067000D01*
X141127000Y-126067000D01*
X141127000Y-126087000D01*
X140873000Y-126087000D01*
X140873000Y-126067000D01*
X139730085Y-126067000D01*
X139608096Y-126289039D01*
X139768959Y-126677423D01*
X140144866Y-127092389D01*
X140650959Y-127331914D01*
X140872998Y-127210630D01*
X140872998Y-127258000D01*
X139919299Y-128211699D01*
X139754552Y-128458261D01*
X139696700Y-128749100D01*
X139696700Y-135077932D01*
X139668285Y-135058946D01*
X139100000Y-134945907D01*
X138531715Y-135058946D01*
X138049946Y-135380853D01*
X137830000Y-135710026D01*
X137610054Y-135380853D01*
X137128285Y-135058946D01*
X136560000Y-134945907D01*
X135991715Y-135058946D01*
X135509946Y-135380853D01*
X135290000Y-135710026D01*
X135070054Y-135380853D01*
X134588285Y-135058946D01*
X134020000Y-134945907D01*
X133451715Y-135058946D01*
X132969946Y-135380853D01*
X132750000Y-135710026D01*
X132530054Y-135380853D01*
X132048285Y-135058946D01*
X131480000Y-134945907D01*
X130911715Y-135058946D01*
X130429946Y-135380853D01*
X130210000Y-135710026D01*
X129990054Y-135380853D01*
X129508285Y-135058946D01*
X128940000Y-134945907D01*
X128371715Y-135058946D01*
X127889946Y-135380853D01*
X127662298Y-135721553D01*
X127595183Y-135578642D01*
X127166924Y-135188355D01*
X126756890Y-135018524D01*
X126527000Y-135139845D01*
X126527000Y-136333000D01*
X126547000Y-136333000D01*
X126547000Y-136587000D01*
X126527000Y-136587000D01*
X126527000Y-136607000D01*
X126273000Y-136607000D01*
X126273000Y-136587000D01*
X126253000Y-136587000D01*
X126253000Y-136333000D01*
X126273000Y-136333000D01*
X126273000Y-135139845D01*
X126043110Y-135018524D01*
X125633076Y-135188355D01*
X125204817Y-135578642D01*
X125137702Y-135721553D01*
X124910054Y-135380853D01*
X124428285Y-135058946D01*
X123860000Y-134945907D01*
X123291715Y-135058946D01*
X122809946Y-135380853D01*
X122590000Y-135710026D01*
X122370054Y-135380853D01*
X121888285Y-135058946D01*
X121320000Y-134945907D01*
X120751715Y-135058946D01*
X120715300Y-135083278D01*
X120715300Y-119695902D01*
X121376643Y-119034559D01*
X121577189Y-119334698D01*
X121959275Y-119590000D01*
X121577189Y-119845302D01*
X121266120Y-120310849D01*
X121156887Y-120860000D01*
X121266120Y-121409151D01*
X121577189Y-121874698D01*
X122042736Y-122185767D01*
X122591887Y-122295000D01*
X122648113Y-122295000D01*
X123197264Y-122185767D01*
X123662811Y-121874698D01*
X123973880Y-121409151D01*
X124083113Y-120860000D01*
X123973880Y-120310849D01*
X123662811Y-119845302D01*
X123280725Y-119590000D01*
X123662811Y-119334698D01*
X123832995Y-119080000D01*
X134794700Y-119080000D01*
X135085539Y-119022148D01*
X135332101Y-118857401D01*
X139948223Y-114241279D01*
X139957189Y-114254698D01*
G36*
X115127000Y-120733000D02*
X115147000Y-120733000D01*
X115147000Y-120987000D01*
X115127000Y-120987000D01*
X115127000Y-122130629D01*
X115349041Y-122251914D01*
X115855134Y-122012389D01*
X116231041Y-121597423D01*
X116308300Y-121410891D01*
X116308300Y-128059400D01*
X116366152Y-128350239D01*
X116530899Y-128596801D01*
X116655300Y-128721202D01*
X116655300Y-134625198D01*
X114607300Y-132577198D01*
X114607300Y-122231251D01*
X114650959Y-122251914D01*
X114873000Y-122130629D01*
X114873000Y-120987000D01*
X114853000Y-120987000D01*
X114853000Y-120733000D01*
X114873000Y-120733000D01*
X114873000Y-120713000D01*
X115127000Y-120713000D01*
X115127000Y-120733000D01*
X115127000Y-120733000D01*
G37*
X115127000Y-120733000D02*
X115147000Y-120733000D01*
X115147000Y-120987000D01*
X115127000Y-120987000D01*
X115127000Y-122130629D01*
X115349041Y-122251914D01*
X115855134Y-122012389D01*
X116231041Y-121597423D01*
X116308300Y-121410891D01*
X116308300Y-128059400D01*
X116366152Y-128350239D01*
X116530899Y-128596801D01*
X116655300Y-128721202D01*
X116655300Y-134625198D01*
X114607300Y-132577198D01*
X114607300Y-122231251D01*
X114650959Y-122251914D01*
X114873000Y-122130629D01*
X114873000Y-120987000D01*
X114853000Y-120987000D01*
X114853000Y-120733000D01*
X114873000Y-120733000D01*
X114873000Y-120713000D01*
X115127000Y-120713000D01*
X115127000Y-120733000D01*
G36*
X170127000Y-121233000D02*
X170147000Y-121233000D01*
X170147000Y-121487000D01*
X170127000Y-121487000D01*
X170127000Y-121507000D01*
X169873000Y-121507000D01*
X169873000Y-121487000D01*
X169853000Y-121487000D01*
X169853000Y-121233000D01*
X169873000Y-121233000D01*
X169873000Y-121213000D01*
X170127000Y-121213000D01*
X170127000Y-121233000D01*
X170127000Y-121233000D01*
G37*
X170127000Y-121233000D02*
X170147000Y-121233000D01*
X170147000Y-121487000D01*
X170127000Y-121487000D01*
X170127000Y-121507000D01*
X169873000Y-121507000D01*
X169873000Y-121487000D01*
X169853000Y-121487000D01*
X169853000Y-121233000D01*
X169873000Y-121233000D01*
X169873000Y-121213000D01*
X170127000Y-121213000D01*
X170127000Y-121233000D01*
G36*
X129657179Y-68485181D02*
X129386120Y-68890849D01*
X129276887Y-69440000D01*
X129386120Y-69989151D01*
X129697189Y-70454698D01*
X129997978Y-70655679D01*
X130017053Y-70751576D01*
X129697189Y-70965302D01*
X129386120Y-71430849D01*
X129276887Y-71980000D01*
X129386120Y-72529151D01*
X129616003Y-72873195D01*
X123497199Y-78991999D01*
X123332452Y-79238561D01*
X123274600Y-79529400D01*
X123274600Y-96725907D01*
X123197264Y-96674233D01*
X122648113Y-96565000D01*
X122591887Y-96565000D01*
X122042736Y-96674233D01*
X121577189Y-96985302D01*
X121266120Y-97450849D01*
X121156887Y-98000000D01*
X121266120Y-98549151D01*
X121577189Y-99014698D01*
X121959275Y-99270000D01*
X121577189Y-99525302D01*
X121266120Y-99990849D01*
X121156887Y-100540000D01*
X121266120Y-101089151D01*
X121577189Y-101554698D01*
X121981703Y-101824986D01*
X121764866Y-101927611D01*
X121388959Y-102342577D01*
X121228096Y-102730961D01*
X121350085Y-102953000D01*
X122493000Y-102953000D01*
X122493000Y-102933000D01*
X122747000Y-102933000D01*
X122747000Y-102953000D01*
X122767000Y-102953000D01*
X122767000Y-103207000D01*
X122747000Y-103207000D01*
X122747000Y-103227000D01*
X122493000Y-103227000D01*
X122493000Y-103207000D01*
X121350085Y-103207000D01*
X121228096Y-103429039D01*
X121388959Y-103817423D01*
X121764866Y-104232389D01*
X121981703Y-104335014D01*
X121577189Y-104605302D01*
X121266120Y-105070849D01*
X121156887Y-105620000D01*
X121266120Y-106169151D01*
X121495963Y-106513135D01*
X119606899Y-108402199D01*
X119442152Y-108648761D01*
X119384300Y-108939600D01*
X119384300Y-116741298D01*
X116530899Y-119594699D01*
X116366152Y-119841261D01*
X116308300Y-120132100D01*
X116308300Y-120309109D01*
X116231041Y-120122577D01*
X115855134Y-119707611D01*
X115638297Y-119604986D01*
X116042811Y-119334698D01*
X116353880Y-118869151D01*
X116463113Y-118320000D01*
X116353880Y-117770849D01*
X116042811Y-117305302D01*
X115660725Y-117050000D01*
X116042811Y-116794698D01*
X116353880Y-116329151D01*
X116463113Y-115780000D01*
X116353880Y-115230849D01*
X116123997Y-114886805D01*
X118627101Y-112383701D01*
X118791848Y-112137140D01*
X118849700Y-111846300D01*
X118849700Y-97128402D01*
X120381680Y-95596422D01*
X120427167Y-95596462D01*
X120770943Y-95454417D01*
X121034192Y-95191627D01*
X121176838Y-94848099D01*
X121177162Y-94476133D01*
X121157732Y-94429109D01*
X121353454Y-94419778D01*
X121754005Y-94253864D01*
X121828139Y-94007745D01*
X121000000Y-93179605D01*
X120985858Y-93193748D01*
X120806253Y-93014143D01*
X120820395Y-93000000D01*
X121179605Y-93000000D01*
X122007745Y-93828139D01*
X122253864Y-93754005D01*
X122446965Y-93216777D01*
X122419778Y-92646546D01*
X122253864Y-92245995D01*
X122007745Y-92171861D01*
X121179605Y-93000000D01*
X120820395Y-93000000D01*
X119992255Y-92171861D01*
X119746136Y-92245995D01*
X119553035Y-92783223D01*
X119580222Y-93353454D01*
X119746136Y-93754005D01*
X119886827Y-93796383D01*
X119713057Y-93868183D01*
X119449808Y-94130973D01*
X119307162Y-94474501D01*
X119307121Y-94521377D01*
X118381800Y-95446698D01*
X118381800Y-94852002D01*
X118609501Y-94624301D01*
X118774248Y-94377740D01*
X118832100Y-94086900D01*
X118832100Y-91992255D01*
X120171861Y-91992255D01*
X121000000Y-92820395D01*
X121828139Y-91992255D01*
X121754005Y-91746136D01*
X121216777Y-91553035D01*
X120646546Y-91580222D01*
X120245995Y-91746136D01*
X120171861Y-91992255D01*
X118832100Y-91992255D01*
X118832100Y-89905700D01*
X118774248Y-89614861D01*
X118609501Y-89368299D01*
X115085400Y-85844198D01*
X115085400Y-80960886D01*
X115150959Y-80991914D01*
X115373000Y-80870629D01*
X115373000Y-79727000D01*
X115627000Y-79727000D01*
X115627000Y-80870629D01*
X115849041Y-80991914D01*
X116355134Y-80752389D01*
X116731041Y-80337423D01*
X116891904Y-79949039D01*
X116769915Y-79727000D01*
X115627000Y-79727000D01*
X115373000Y-79727000D01*
X115353000Y-79727000D01*
X115353000Y-79473000D01*
X115373000Y-79473000D01*
X115373000Y-79453000D01*
X115627000Y-79453000D01*
X115627000Y-79473000D01*
X116769915Y-79473000D01*
X116891904Y-79250961D01*
X116731041Y-78862577D01*
X116355134Y-78447611D01*
X116220498Y-78383890D01*
X116242022Y-78275679D01*
X116542811Y-78074698D01*
X116853880Y-77609151D01*
X116963113Y-77060000D01*
X116853880Y-76510849D01*
X116542811Y-76045302D01*
X116222947Y-75831576D01*
X116242022Y-75735679D01*
X116542811Y-75534698D01*
X116853880Y-75069151D01*
X116963113Y-74520000D01*
X116853880Y-73970849D01*
X116542811Y-73505302D01*
X116222947Y-73291576D01*
X116242022Y-73195679D01*
X116542811Y-72994698D01*
X116853880Y-72529151D01*
X116963113Y-71980000D01*
X116853880Y-71430849D01*
X116542811Y-70965302D01*
X116160725Y-70710000D01*
X116542811Y-70454698D01*
X116853880Y-69989151D01*
X116963113Y-69440000D01*
X116853880Y-68890849D01*
X116542811Y-68425302D01*
X116160725Y-68170000D01*
X116542811Y-67914698D01*
X116853880Y-67449151D01*
X116963113Y-66900000D01*
X116853880Y-66350849D01*
X116542811Y-65885302D01*
X116160725Y-65630000D01*
X116542811Y-65374698D01*
X116853880Y-64909151D01*
X116963113Y-64360000D01*
X116853880Y-63810849D01*
X116542811Y-63345302D01*
X116160725Y-63090000D01*
X116542811Y-62834698D01*
X116853880Y-62369151D01*
X116963113Y-61820000D01*
X116853880Y-61270849D01*
X116542811Y-60805302D01*
X116160725Y-60550000D01*
X116542811Y-60294698D01*
X116853880Y-59829151D01*
X116963113Y-59280000D01*
X116853880Y-58730849D01*
X116542811Y-58265302D01*
X116160725Y-58010000D01*
X116542811Y-57754698D01*
X116853880Y-57289151D01*
X116963113Y-56740000D01*
X116853880Y-56190849D01*
X116542811Y-55725302D01*
X116160725Y-55470000D01*
X116449227Y-55277229D01*
X129657179Y-68485181D01*
X129657179Y-68485181D01*
G37*
X129657179Y-68485181D02*
X129386120Y-68890849D01*
X129276887Y-69440000D01*
X129386120Y-69989151D01*
X129697189Y-70454698D01*
X129997978Y-70655679D01*
X130017053Y-70751576D01*
X129697189Y-70965302D01*
X129386120Y-71430849D01*
X129276887Y-71980000D01*
X129386120Y-72529151D01*
X129616003Y-72873195D01*
X123497199Y-78991999D01*
X123332452Y-79238561D01*
X123274600Y-79529400D01*
X123274600Y-96725907D01*
X123197264Y-96674233D01*
X122648113Y-96565000D01*
X122591887Y-96565000D01*
X122042736Y-96674233D01*
X121577189Y-96985302D01*
X121266120Y-97450849D01*
X121156887Y-98000000D01*
X121266120Y-98549151D01*
X121577189Y-99014698D01*
X121959275Y-99270000D01*
X121577189Y-99525302D01*
X121266120Y-99990849D01*
X121156887Y-100540000D01*
X121266120Y-101089151D01*
X121577189Y-101554698D01*
X121981703Y-101824986D01*
X121764866Y-101927611D01*
X121388959Y-102342577D01*
X121228096Y-102730961D01*
X121350085Y-102953000D01*
X122493000Y-102953000D01*
X122493000Y-102933000D01*
X122747000Y-102933000D01*
X122747000Y-102953000D01*
X122767000Y-102953000D01*
X122767000Y-103207000D01*
X122747000Y-103207000D01*
X122747000Y-103227000D01*
X122493000Y-103227000D01*
X122493000Y-103207000D01*
X121350085Y-103207000D01*
X121228096Y-103429039D01*
X121388959Y-103817423D01*
X121764866Y-104232389D01*
X121981703Y-104335014D01*
X121577189Y-104605302D01*
X121266120Y-105070849D01*
X121156887Y-105620000D01*
X121266120Y-106169151D01*
X121495963Y-106513135D01*
X119606899Y-108402199D01*
X119442152Y-108648761D01*
X119384300Y-108939600D01*
X119384300Y-116741298D01*
X116530899Y-119594699D01*
X116366152Y-119841261D01*
X116308300Y-120132100D01*
X116308300Y-120309109D01*
X116231041Y-120122577D01*
X115855134Y-119707611D01*
X115638297Y-119604986D01*
X116042811Y-119334698D01*
X116353880Y-118869151D01*
X116463113Y-118320000D01*
X116353880Y-117770849D01*
X116042811Y-117305302D01*
X115660725Y-117050000D01*
X116042811Y-116794698D01*
X116353880Y-116329151D01*
X116463113Y-115780000D01*
X116353880Y-115230849D01*
X116123997Y-114886805D01*
X118627101Y-112383701D01*
X118791848Y-112137140D01*
X118849700Y-111846300D01*
X118849700Y-97128402D01*
X120381680Y-95596422D01*
X120427167Y-95596462D01*
X120770943Y-95454417D01*
X121034192Y-95191627D01*
X121176838Y-94848099D01*
X121177162Y-94476133D01*
X121157732Y-94429109D01*
X121353454Y-94419778D01*
X121754005Y-94253864D01*
X121828139Y-94007745D01*
X121000000Y-93179605D01*
X120985858Y-93193748D01*
X120806253Y-93014143D01*
X120820395Y-93000000D01*
X121179605Y-93000000D01*
X122007745Y-93828139D01*
X122253864Y-93754005D01*
X122446965Y-93216777D01*
X122419778Y-92646546D01*
X122253864Y-92245995D01*
X122007745Y-92171861D01*
X121179605Y-93000000D01*
X120820395Y-93000000D01*
X119992255Y-92171861D01*
X119746136Y-92245995D01*
X119553035Y-92783223D01*
X119580222Y-93353454D01*
X119746136Y-93754005D01*
X119886827Y-93796383D01*
X119713057Y-93868183D01*
X119449808Y-94130973D01*
X119307162Y-94474501D01*
X119307121Y-94521377D01*
X118381800Y-95446698D01*
X118381800Y-94852002D01*
X118609501Y-94624301D01*
X118774248Y-94377740D01*
X118832100Y-94086900D01*
X118832100Y-91992255D01*
X120171861Y-91992255D01*
X121000000Y-92820395D01*
X121828139Y-91992255D01*
X121754005Y-91746136D01*
X121216777Y-91553035D01*
X120646546Y-91580222D01*
X120245995Y-91746136D01*
X120171861Y-91992255D01*
X118832100Y-91992255D01*
X118832100Y-89905700D01*
X118774248Y-89614861D01*
X118609501Y-89368299D01*
X115085400Y-85844198D01*
X115085400Y-80960886D01*
X115150959Y-80991914D01*
X115373000Y-80870629D01*
X115373000Y-79727000D01*
X115627000Y-79727000D01*
X115627000Y-80870629D01*
X115849041Y-80991914D01*
X116355134Y-80752389D01*
X116731041Y-80337423D01*
X116891904Y-79949039D01*
X116769915Y-79727000D01*
X115627000Y-79727000D01*
X115373000Y-79727000D01*
X115353000Y-79727000D01*
X115353000Y-79473000D01*
X115373000Y-79473000D01*
X115373000Y-79453000D01*
X115627000Y-79453000D01*
X115627000Y-79473000D01*
X116769915Y-79473000D01*
X116891904Y-79250961D01*
X116731041Y-78862577D01*
X116355134Y-78447611D01*
X116220498Y-78383890D01*
X116242022Y-78275679D01*
X116542811Y-78074698D01*
X116853880Y-77609151D01*
X116963113Y-77060000D01*
X116853880Y-76510849D01*
X116542811Y-76045302D01*
X116222947Y-75831576D01*
X116242022Y-75735679D01*
X116542811Y-75534698D01*
X116853880Y-75069151D01*
X116963113Y-74520000D01*
X116853880Y-73970849D01*
X116542811Y-73505302D01*
X116222947Y-73291576D01*
X116242022Y-73195679D01*
X116542811Y-72994698D01*
X116853880Y-72529151D01*
X116963113Y-71980000D01*
X116853880Y-71430849D01*
X116542811Y-70965302D01*
X116160725Y-70710000D01*
X116542811Y-70454698D01*
X116853880Y-69989151D01*
X116963113Y-69440000D01*
X116853880Y-68890849D01*
X116542811Y-68425302D01*
X116160725Y-68170000D01*
X116542811Y-67914698D01*
X116853880Y-67449151D01*
X116963113Y-66900000D01*
X116853880Y-66350849D01*
X116542811Y-65885302D01*
X116160725Y-65630000D01*
X116542811Y-65374698D01*
X116853880Y-64909151D01*
X116963113Y-64360000D01*
X116853880Y-63810849D01*
X116542811Y-63345302D01*
X116160725Y-63090000D01*
X116542811Y-62834698D01*
X116853880Y-62369151D01*
X116963113Y-61820000D01*
X116853880Y-61270849D01*
X116542811Y-60805302D01*
X116160725Y-60550000D01*
X116542811Y-60294698D01*
X116853880Y-59829151D01*
X116963113Y-59280000D01*
X116853880Y-58730849D01*
X116542811Y-58265302D01*
X116160725Y-58010000D01*
X116542811Y-57754698D01*
X116853880Y-57289151D01*
X116963113Y-56740000D01*
X116853880Y-56190849D01*
X116542811Y-55725302D01*
X116160725Y-55470000D01*
X116449227Y-55277229D01*
X129657179Y-68485181D01*
G36*
X170281307Y-92231509D02*
X170245995Y-92246136D01*
X170171861Y-92492255D01*
X171000000Y-93320395D01*
X171014142Y-93306252D01*
X171193748Y-93485858D01*
X171179605Y-93500000D01*
X172007745Y-94328139D01*
X172253864Y-94254005D01*
X172267068Y-94217270D01*
X172423800Y-94374002D01*
X172423800Y-96392398D01*
X170969486Y-94938084D01*
X171353454Y-94919778D01*
X171754005Y-94753864D01*
X171828139Y-94507745D01*
X171000000Y-93679605D01*
X170985858Y-93693748D01*
X170806252Y-93514142D01*
X170820395Y-93500000D01*
X169992255Y-92671861D01*
X169746136Y-92745995D01*
X169553035Y-93283223D01*
X169564971Y-93533569D01*
X162243800Y-86212398D01*
X162243800Y-84194002D01*
X170281307Y-92231509D01*
X170281307Y-92231509D01*
G37*
X170281307Y-92231509D02*
X170245995Y-92246136D01*
X170171861Y-92492255D01*
X171000000Y-93320395D01*
X171014142Y-93306252D01*
X171193748Y-93485858D01*
X171179605Y-93500000D01*
X172007745Y-94328139D01*
X172253864Y-94254005D01*
X172267068Y-94217270D01*
X172423800Y-94374002D01*
X172423800Y-96392398D01*
X170969486Y-94938084D01*
X171353454Y-94919778D01*
X171754005Y-94753864D01*
X171828139Y-94507745D01*
X171000000Y-93679605D01*
X170985858Y-93693748D01*
X170806252Y-93514142D01*
X170820395Y-93500000D01*
X169992255Y-92671861D01*
X169746136Y-92745995D01*
X169553035Y-93283223D01*
X169564971Y-93533569D01*
X162243800Y-86212398D01*
X162243800Y-84194002D01*
X170281307Y-92231509D01*
G36*
X142000000Y-92820395D02*
X142014143Y-92806253D01*
X142193748Y-92985858D01*
X142179605Y-93000000D01*
X142193748Y-93014143D01*
X142014143Y-93193748D01*
X142000000Y-93179605D01*
X141985858Y-93193748D01*
X141806252Y-93014142D01*
X141820395Y-93000000D01*
X141806252Y-92985858D01*
X141985858Y-92806252D01*
X142000000Y-92820395D01*
X142000000Y-92820395D01*
G37*
X142000000Y-92820395D02*
X142014143Y-92806253D01*
X142193748Y-92985858D01*
X142179605Y-93000000D01*
X142193748Y-93014143D01*
X142014143Y-93193748D01*
X142000000Y-93179605D01*
X141985858Y-93193748D01*
X141806252Y-93014142D01*
X141820395Y-93000000D01*
X141806252Y-92985858D01*
X141985858Y-92806252D01*
X142000000Y-92820395D01*
G36*
X170762499Y-50117401D02*
X171009061Y-50282148D01*
X171299900Y-50340000D01*
X178027005Y-50340000D01*
X178197189Y-50594698D01*
X178579275Y-50850000D01*
X178197189Y-51105302D01*
X177886120Y-51570849D01*
X177776887Y-52120000D01*
X177886120Y-52669151D01*
X178197189Y-53134698D01*
X178579275Y-53390000D01*
X178197189Y-53645302D01*
X177886120Y-54110849D01*
X177776887Y-54660000D01*
X177886120Y-55209151D01*
X178157019Y-55614579D01*
X177113199Y-56658399D01*
X176948452Y-56904961D01*
X176890600Y-57195800D01*
X176890600Y-92360987D01*
X176813923Y-92284176D01*
X176286691Y-92065250D01*
X175715813Y-92064752D01*
X175188200Y-92282757D01*
X174784176Y-92686077D01*
X174600829Y-93127627D01*
X163634600Y-82161398D01*
X163634600Y-78904172D01*
X163650959Y-78911914D01*
X163873000Y-78790629D01*
X163873000Y-77647000D01*
X164127000Y-77647000D01*
X164127000Y-78790629D01*
X164349041Y-78911914D01*
X164855134Y-78672389D01*
X165231041Y-78257423D01*
X165391904Y-77869039D01*
X165269915Y-77647000D01*
X164127000Y-77647000D01*
X163873000Y-77647000D01*
X163853000Y-77647000D01*
X163853000Y-77393000D01*
X163873000Y-77393000D01*
X163873000Y-77373000D01*
X164127000Y-77373000D01*
X164127000Y-77393000D01*
X165269915Y-77393000D01*
X165391904Y-77170961D01*
X165231041Y-76782577D01*
X164855134Y-76367611D01*
X164638297Y-76264986D01*
X165042811Y-75994698D01*
X165353880Y-75529151D01*
X165463113Y-74980000D01*
X165353880Y-74430849D01*
X165042811Y-73965302D01*
X164660725Y-73710000D01*
X165042811Y-73454698D01*
X165353880Y-72989151D01*
X165463113Y-72440000D01*
X165353880Y-71890849D01*
X165042811Y-71425302D01*
X164660725Y-71170000D01*
X165042811Y-70914698D01*
X165353880Y-70449151D01*
X165463113Y-69900000D01*
X165353880Y-69350849D01*
X165042811Y-68885302D01*
X164722947Y-68671576D01*
X164742022Y-68575679D01*
X165042811Y-68374698D01*
X165353880Y-67909151D01*
X165463113Y-67360000D01*
X165353880Y-66810849D01*
X165042811Y-66345302D01*
X164722947Y-66131576D01*
X164742022Y-66035679D01*
X165042811Y-65834698D01*
X165353880Y-65369151D01*
X165463113Y-64820000D01*
X165353880Y-64270849D01*
X165042811Y-63805302D01*
X164722947Y-63591576D01*
X164742022Y-63495679D01*
X165042811Y-63294698D01*
X165353880Y-62829151D01*
X165463113Y-62280000D01*
X165353880Y-61730849D01*
X165042811Y-61265302D01*
X164722947Y-61051576D01*
X164742022Y-60955679D01*
X165042811Y-60754698D01*
X165353880Y-60289151D01*
X165463113Y-59740000D01*
X165353880Y-59190849D01*
X165042811Y-58725302D01*
X164722947Y-58511576D01*
X164742022Y-58415679D01*
X165042811Y-58214698D01*
X165353880Y-57749151D01*
X165463113Y-57200000D01*
X165353880Y-56650849D01*
X165042811Y-56185302D01*
X164722947Y-55971576D01*
X164742022Y-55875679D01*
X165042811Y-55674698D01*
X165353880Y-55209151D01*
X165463113Y-54660000D01*
X165353880Y-54110849D01*
X165042811Y-53645302D01*
X164660725Y-53390000D01*
X165042811Y-53134698D01*
X165353880Y-52669151D01*
X165463113Y-52120000D01*
X165398688Y-51796114D01*
X165702301Y-51492501D01*
X165867048Y-51245940D01*
X165924900Y-50955100D01*
X165924900Y-49096300D01*
X165867048Y-48805461D01*
X165702301Y-48558899D01*
X165105011Y-47961609D01*
X165353880Y-47589151D01*
X165463113Y-47040000D01*
X165389316Y-46669000D01*
X167314098Y-46669000D01*
X170762499Y-50117401D01*
X170762499Y-50117401D01*
G37*
X170762499Y-50117401D02*
X171009061Y-50282148D01*
X171299900Y-50340000D01*
X178027005Y-50340000D01*
X178197189Y-50594698D01*
X178579275Y-50850000D01*
X178197189Y-51105302D01*
X177886120Y-51570849D01*
X177776887Y-52120000D01*
X177886120Y-52669151D01*
X178197189Y-53134698D01*
X178579275Y-53390000D01*
X178197189Y-53645302D01*
X177886120Y-54110849D01*
X177776887Y-54660000D01*
X177886120Y-55209151D01*
X178157019Y-55614579D01*
X177113199Y-56658399D01*
X176948452Y-56904961D01*
X176890600Y-57195800D01*
X176890600Y-92360987D01*
X176813923Y-92284176D01*
X176286691Y-92065250D01*
X175715813Y-92064752D01*
X175188200Y-92282757D01*
X174784176Y-92686077D01*
X174600829Y-93127627D01*
X163634600Y-82161398D01*
X163634600Y-78904172D01*
X163650959Y-78911914D01*
X163873000Y-78790629D01*
X163873000Y-77647000D01*
X164127000Y-77647000D01*
X164127000Y-78790629D01*
X164349041Y-78911914D01*
X164855134Y-78672389D01*
X165231041Y-78257423D01*
X165391904Y-77869039D01*
X165269915Y-77647000D01*
X164127000Y-77647000D01*
X163873000Y-77647000D01*
X163853000Y-77647000D01*
X163853000Y-77393000D01*
X163873000Y-77393000D01*
X163873000Y-77373000D01*
X164127000Y-77373000D01*
X164127000Y-77393000D01*
X165269915Y-77393000D01*
X165391904Y-77170961D01*
X165231041Y-76782577D01*
X164855134Y-76367611D01*
X164638297Y-76264986D01*
X165042811Y-75994698D01*
X165353880Y-75529151D01*
X165463113Y-74980000D01*
X165353880Y-74430849D01*
X165042811Y-73965302D01*
X164660725Y-73710000D01*
X165042811Y-73454698D01*
X165353880Y-72989151D01*
X165463113Y-72440000D01*
X165353880Y-71890849D01*
X165042811Y-71425302D01*
X164660725Y-71170000D01*
X165042811Y-70914698D01*
X165353880Y-70449151D01*
X165463113Y-69900000D01*
X165353880Y-69350849D01*
X165042811Y-68885302D01*
X164722947Y-68671576D01*
X164742022Y-68575679D01*
X165042811Y-68374698D01*
X165353880Y-67909151D01*
X165463113Y-67360000D01*
X165353880Y-66810849D01*
X165042811Y-66345302D01*
X164722947Y-66131576D01*
X164742022Y-66035679D01*
X165042811Y-65834698D01*
X165353880Y-65369151D01*
X165463113Y-64820000D01*
X165353880Y-64270849D01*
X165042811Y-63805302D01*
X164722947Y-63591576D01*
X164742022Y-63495679D01*
X165042811Y-63294698D01*
X165353880Y-62829151D01*
X165463113Y-62280000D01*
X165353880Y-61730849D01*
X165042811Y-61265302D01*
X164722947Y-61051576D01*
X164742022Y-60955679D01*
X165042811Y-60754698D01*
X165353880Y-60289151D01*
X165463113Y-59740000D01*
X165353880Y-59190849D01*
X165042811Y-58725302D01*
X164722947Y-58511576D01*
X164742022Y-58415679D01*
X165042811Y-58214698D01*
X165353880Y-57749151D01*
X165463113Y-57200000D01*
X165353880Y-56650849D01*
X165042811Y-56185302D01*
X164722947Y-55971576D01*
X164742022Y-55875679D01*
X165042811Y-55674698D01*
X165353880Y-55209151D01*
X165463113Y-54660000D01*
X165353880Y-54110849D01*
X165042811Y-53645302D01*
X164660725Y-53390000D01*
X165042811Y-53134698D01*
X165353880Y-52669151D01*
X165463113Y-52120000D01*
X165398688Y-51796114D01*
X165702301Y-51492501D01*
X165867048Y-51245940D01*
X165924900Y-50955100D01*
X165924900Y-49096300D01*
X165867048Y-48805461D01*
X165702301Y-48558899D01*
X165105011Y-47961609D01*
X165353880Y-47589151D01*
X165463113Y-47040000D01*
X165389316Y-46669000D01*
X167314098Y-46669000D01*
X170762499Y-50117401D01*
M02*
