G04 #@! TF.FileFunction,Copper,L1,Top,Signal*
%FSLAX46Y46*%
G04 Gerber Fmt 4.6, Leading zero omitted, Abs format (unit mm)*
G04 Created by KiCad (PCBNEW 4.0.7) date 10/16/19 21:59:32*
%MOMM*%
%LPD*%
G01*
G04 APERTURE LIST*
%ADD10C,0.100000*%
%ADD11R,1.600000X1.600000*%
%ADD12O,1.600000X1.600000*%
%ADD13C,1.600000*%
%ADD14R,1.800000X1.800000*%
%ADD15C,1.800000*%
%ADD16R,1.700000X1.700000*%
%ADD17O,1.700000X1.700000*%
%ADD18C,1.524000*%
%ADD19C,0.600000*%
%ADD20C,0.500000*%
%ADD21C,0.250000*%
%ADD22C,0.254000*%
G04 APERTURE END LIST*
D10*
D11*
X92500000Y-95000000D03*
D12*
X84880000Y-74680000D03*
X92500000Y-92460000D03*
X84880000Y-77220000D03*
X92500000Y-89920000D03*
X84880000Y-79760000D03*
X92500000Y-87380000D03*
X84880000Y-82300000D03*
X92500000Y-84840000D03*
X84880000Y-84840000D03*
X92500000Y-82300000D03*
X84880000Y-87380000D03*
X92500000Y-79760000D03*
X84880000Y-89920000D03*
X92500000Y-77220000D03*
X84880000Y-92460000D03*
X92500000Y-74680000D03*
X84880000Y-95000000D03*
D11*
X115500000Y-41500000D03*
D12*
X130740000Y-79600000D03*
X115500000Y-44040000D03*
X130740000Y-77060000D03*
X115500000Y-46580000D03*
X130740000Y-74520000D03*
X115500000Y-49120000D03*
X130740000Y-71980000D03*
X115500000Y-51660000D03*
X130740000Y-69440000D03*
X115500000Y-54200000D03*
X130740000Y-66900000D03*
X115500000Y-56740000D03*
X130740000Y-64360000D03*
X115500000Y-59280000D03*
X130740000Y-61820000D03*
X115500000Y-61820000D03*
X130740000Y-59280000D03*
X115500000Y-64360000D03*
X130740000Y-56740000D03*
X115500000Y-66900000D03*
X130740000Y-54200000D03*
X115500000Y-69440000D03*
X130740000Y-51660000D03*
X115500000Y-71980000D03*
X130740000Y-49120000D03*
X115500000Y-74520000D03*
X130740000Y-46580000D03*
X115500000Y-77060000D03*
X130740000Y-44040000D03*
X115500000Y-79600000D03*
X130740000Y-41500000D03*
D13*
X116000000Y-93000000D03*
X121000000Y-93000000D03*
X176000000Y-93500000D03*
X171000000Y-93500000D03*
X147000000Y-93000000D03*
X142000000Y-93000000D03*
X125500000Y-36500000D03*
X120500000Y-36500000D03*
X185500000Y-44000000D03*
X185500000Y-49000000D03*
D11*
X101000000Y-129000000D03*
D13*
X101000000Y-126500000D03*
D14*
X76000000Y-114500000D03*
D15*
X73460000Y-114500000D03*
D14*
X76000000Y-105000000D03*
D15*
X73460000Y-105000000D03*
D14*
X76000000Y-95500000D03*
D15*
X73460000Y-95500000D03*
D14*
X76000000Y-86000000D03*
D15*
X73460000Y-86000000D03*
D14*
X76000000Y-76500000D03*
D15*
X73460000Y-76500000D03*
D14*
X76000000Y-67000000D03*
D15*
X73460000Y-67000000D03*
D14*
X76000000Y-57500000D03*
D15*
X73460000Y-57500000D03*
D16*
X101000000Y-139000000D03*
D17*
X101000000Y-136460000D03*
X103540000Y-139000000D03*
X103540000Y-136460000D03*
X106080000Y-139000000D03*
X106080000Y-136460000D03*
X108620000Y-139000000D03*
X108620000Y-136460000D03*
X111160000Y-139000000D03*
X111160000Y-136460000D03*
X113700000Y-139000000D03*
X113700000Y-136460000D03*
X116240000Y-139000000D03*
X116240000Y-136460000D03*
X118780000Y-139000000D03*
X118780000Y-136460000D03*
X121320000Y-139000000D03*
X121320000Y-136460000D03*
X123860000Y-139000000D03*
X123860000Y-136460000D03*
X126400000Y-139000000D03*
X126400000Y-136460000D03*
X128940000Y-139000000D03*
X128940000Y-136460000D03*
X131480000Y-139000000D03*
X131480000Y-136460000D03*
X134020000Y-139000000D03*
X134020000Y-136460000D03*
X136560000Y-139000000D03*
X136560000Y-136460000D03*
X139100000Y-139000000D03*
X139100000Y-136460000D03*
X141640000Y-139000000D03*
X141640000Y-136460000D03*
X144180000Y-139000000D03*
X144180000Y-136460000D03*
X146720000Y-139000000D03*
X146720000Y-136460000D03*
X149260000Y-139000000D03*
X149260000Y-136460000D03*
D13*
X58500000Y-114500000D03*
D12*
X68660000Y-114500000D03*
D13*
X58500000Y-105000000D03*
D12*
X68660000Y-105000000D03*
D13*
X58500000Y-95500000D03*
D12*
X68660000Y-95500000D03*
D13*
X58500000Y-86000000D03*
D12*
X68660000Y-86000000D03*
D13*
X58500000Y-76500000D03*
D12*
X68660000Y-76500000D03*
D13*
X58500000Y-67000000D03*
D12*
X68660000Y-67000000D03*
D13*
X58500000Y-57500000D03*
D12*
X68660000Y-57500000D03*
D11*
X115000000Y-98000000D03*
D12*
X122620000Y-120860000D03*
X115000000Y-100540000D03*
X122620000Y-118320000D03*
X115000000Y-103080000D03*
X122620000Y-115780000D03*
X115000000Y-105620000D03*
X122620000Y-113240000D03*
X115000000Y-108160000D03*
X122620000Y-110700000D03*
X115000000Y-110700000D03*
X122620000Y-108160000D03*
X115000000Y-113240000D03*
X122620000Y-105620000D03*
X115000000Y-115780000D03*
X122620000Y-103080000D03*
X115000000Y-118320000D03*
X122620000Y-100540000D03*
X115000000Y-120860000D03*
X122620000Y-98000000D03*
D11*
X170000000Y-98500000D03*
D12*
X177620000Y-121360000D03*
X170000000Y-101040000D03*
X177620000Y-118820000D03*
X170000000Y-103580000D03*
X177620000Y-116280000D03*
X170000000Y-106120000D03*
X177620000Y-113740000D03*
X170000000Y-108660000D03*
X177620000Y-111200000D03*
X170000000Y-111200000D03*
X177620000Y-108660000D03*
X170000000Y-113740000D03*
X177620000Y-106120000D03*
X170000000Y-116280000D03*
X177620000Y-103580000D03*
X170000000Y-118820000D03*
X177620000Y-101040000D03*
X170000000Y-121360000D03*
X177620000Y-98500000D03*
D11*
X141000000Y-98000000D03*
D12*
X148620000Y-125940000D03*
X141000000Y-100540000D03*
X148620000Y-123400000D03*
X141000000Y-103080000D03*
X148620000Y-120860000D03*
X141000000Y-105620000D03*
X148620000Y-118320000D03*
X141000000Y-108160000D03*
X148620000Y-115780000D03*
X141000000Y-110700000D03*
X148620000Y-113240000D03*
X141000000Y-113240000D03*
X148620000Y-110700000D03*
X141000000Y-115780000D03*
X148620000Y-108160000D03*
X141000000Y-118320000D03*
X148620000Y-105620000D03*
X141000000Y-120860000D03*
X148620000Y-103080000D03*
X141000000Y-123400000D03*
X148620000Y-100540000D03*
X141000000Y-125940000D03*
X148620000Y-98000000D03*
D11*
X164000000Y-44500000D03*
D12*
X179240000Y-77520000D03*
X164000000Y-47040000D03*
X179240000Y-74980000D03*
X164000000Y-49580000D03*
X179240000Y-72440000D03*
X164000000Y-52120000D03*
X179240000Y-69900000D03*
X164000000Y-54660000D03*
X179240000Y-67360000D03*
X164000000Y-57200000D03*
X179240000Y-64820000D03*
X164000000Y-59740000D03*
X179240000Y-62280000D03*
X164000000Y-62280000D03*
X179240000Y-59740000D03*
X164000000Y-64820000D03*
X179240000Y-57200000D03*
X164000000Y-67360000D03*
X179240000Y-54660000D03*
X164000000Y-69900000D03*
X179240000Y-52120000D03*
X164000000Y-72440000D03*
X179240000Y-49580000D03*
X164000000Y-74980000D03*
X179240000Y-47040000D03*
X164000000Y-77520000D03*
X179240000Y-44500000D03*
D18*
X59000000Y-44270000D03*
X197000000Y-44270000D03*
X59000000Y-132270000D03*
X197000000Y-132270000D03*
X131500000Y-129770000D03*
X171500000Y-83770000D03*
X120500000Y-78770000D03*
X89000000Y-82770000D03*
X148000000Y-83770000D03*
D19*
X116874000Y-105193400D03*
X112994700Y-113240000D03*
X113150500Y-115832100D03*
X120242000Y-94661300D03*
X117693600Y-127800400D03*
X117971800Y-126368600D03*
X151854800Y-64144100D03*
X144968300Y-104331100D03*
X152954400Y-59280000D03*
X152521900Y-106793600D03*
X109626600Y-99915200D03*
X96186100Y-92831500D03*
X103398100Y-99287100D03*
X180197700Y-55679800D03*
X142352100Y-99125400D03*
X149615300Y-97040800D03*
D20*
X185000000Y-44500000D02*
X185500000Y-44000000D01*
X179240000Y-44500000D02*
X185000000Y-44500000D01*
X179240000Y-44500000D02*
X177989700Y-44500000D01*
X58500000Y-57500000D02*
X58500000Y-67000000D01*
X101000000Y-136460000D02*
X101000000Y-135159700D01*
X73000000Y-129000000D02*
X101000000Y-129000000D01*
X58500000Y-114500000D02*
X73000000Y-129000000D01*
X101000000Y-129000000D02*
X101000000Y-135159700D01*
X129489700Y-40489700D02*
X125500000Y-36500000D01*
X129489700Y-41500000D02*
X129489700Y-40489700D01*
X130740000Y-41500000D02*
X129489700Y-41500000D01*
X176677200Y-43187500D02*
X132041700Y-43187500D01*
X177989700Y-44500000D02*
X176677200Y-43187500D01*
X131604500Y-42750300D02*
X132041700Y-43187500D01*
X130740000Y-42750300D02*
X131604500Y-42750300D01*
X131283900Y-45329700D02*
X130740000Y-45329700D01*
X132041700Y-44571900D02*
X131283900Y-45329700D01*
X132041700Y-43187500D02*
X132041700Y-44571900D01*
X130740000Y-46580000D02*
X130740000Y-45329700D01*
X130740000Y-41500000D02*
X130740000Y-42750300D01*
X177620000Y-98500000D02*
X177620000Y-97249700D01*
X180956900Y-88543100D02*
X176000000Y-93500000D01*
X180956900Y-49460200D02*
X180956900Y-88543100D01*
X179787000Y-48290300D02*
X180956900Y-49460200D01*
X179240000Y-48290300D02*
X179787000Y-48290300D01*
X179240000Y-47040000D02*
X179240000Y-48290300D01*
X121000000Y-98000000D02*
X116000000Y-93000000D01*
X122620000Y-98000000D02*
X121000000Y-98000000D01*
X176000000Y-95907300D02*
X176000000Y-93500000D01*
X176277600Y-95907300D02*
X176000000Y-95907300D01*
X177620000Y-97249700D02*
X176277600Y-95907300D01*
X151963000Y-95907300D02*
X176000000Y-95907300D01*
X149870300Y-98000000D02*
X151963000Y-95907300D01*
X148645500Y-98000000D02*
X149870300Y-98000000D01*
X148645500Y-98000000D02*
X148620000Y-98000000D01*
X125120700Y-96749600D02*
X123870300Y-98000000D01*
X146119300Y-96749600D02*
X125120700Y-96749600D01*
X147369700Y-98000000D02*
X146119300Y-96749600D01*
X148620000Y-98000000D02*
X147369700Y-98000000D01*
X122620000Y-98000000D02*
X123870300Y-98000000D01*
X108109700Y-126500000D02*
X101000000Y-126500000D01*
X113749700Y-120860000D02*
X108109700Y-126500000D01*
X114820600Y-120860000D02*
X113749700Y-120860000D01*
X164000000Y-93500000D02*
X171000000Y-93500000D01*
X163224300Y-94275700D02*
X164000000Y-93500000D01*
X143275700Y-94275700D02*
X163224300Y-94275700D01*
X142000000Y-93000000D02*
X143275700Y-94275700D01*
X164000000Y-93500000D02*
X164000000Y-77520000D01*
X114820600Y-120860000D02*
X115000000Y-120860000D01*
X115000000Y-120860000D02*
X116250300Y-120860000D01*
X131469700Y-125940000D02*
X126400000Y-131009700D01*
X141000000Y-125940000D02*
X131469700Y-125940000D01*
X116250300Y-120860000D02*
X126400000Y-131009700D01*
X126400000Y-131009700D02*
X126400000Y-136460000D01*
X121000000Y-93000000D02*
X142000000Y-93000000D01*
X92500000Y-77220000D02*
X93750300Y-77220000D01*
X114234000Y-77220000D02*
X93750300Y-77220000D01*
X114234000Y-77637700D02*
X114234000Y-77220000D01*
X114946000Y-78349700D02*
X114234000Y-77637700D01*
X115500000Y-78349700D02*
X114946000Y-78349700D01*
X120500000Y-45964400D02*
X120500000Y-36500000D01*
X116074400Y-50390000D02*
X120500000Y-45964400D01*
X114947500Y-50390000D02*
X116074400Y-50390000D01*
X114234000Y-51103500D02*
X114947500Y-50390000D01*
X114234000Y-77220000D02*
X114234000Y-51103500D01*
X115500000Y-79600000D02*
X115500000Y-78349700D01*
D21*
X68660000Y-114500000D02*
X73460000Y-114500000D01*
X68660000Y-105000000D02*
X73460000Y-105000000D01*
X82805300Y-89920000D02*
X77225300Y-95500000D01*
X84880000Y-89920000D02*
X82805300Y-89920000D01*
X76000000Y-95500000D02*
X77225300Y-95500000D01*
X68660000Y-95500000D02*
X73460000Y-95500000D01*
X78605300Y-87380000D02*
X77225300Y-86000000D01*
X84880000Y-87380000D02*
X78605300Y-87380000D01*
X76000000Y-86000000D02*
X77225300Y-86000000D01*
X68660000Y-86000000D02*
X73460000Y-86000000D01*
X68660000Y-76500000D02*
X73460000Y-76500000D01*
X68660000Y-67000000D02*
X73460000Y-67000000D01*
X68660000Y-57500000D02*
X73460000Y-57500000D01*
X162027300Y-70747400D02*
X162874700Y-69900000D01*
X117857900Y-70747400D02*
X162027300Y-70747400D01*
X116625300Y-71980000D02*
X117857900Y-70747400D01*
X115500000Y-71980000D02*
X116625300Y-71980000D01*
X164000000Y-69900000D02*
X162874700Y-69900000D01*
X162027300Y-73287400D02*
X162874700Y-72440000D01*
X117857900Y-73287400D02*
X162027300Y-73287400D01*
X116625300Y-74520000D02*
X117857900Y-73287400D01*
X115500000Y-74520000D02*
X116625300Y-74520000D01*
X164000000Y-72440000D02*
X162874700Y-72440000D01*
X116551900Y-105193400D02*
X116125300Y-105620000D01*
X116874000Y-105193400D02*
X116551900Y-105193400D01*
X115000000Y-105620000D02*
X116125300Y-105620000D01*
X115000000Y-113240000D02*
X113874700Y-113240000D01*
X113874700Y-113240000D02*
X112994700Y-113240000D01*
X162027300Y-75827400D02*
X162874700Y-74980000D01*
X117857900Y-75827400D02*
X162027300Y-75827400D01*
X116625300Y-77060000D02*
X117857900Y-75827400D01*
X115500000Y-77060000D02*
X116625300Y-77060000D01*
X164000000Y-74980000D02*
X162874700Y-74980000D01*
X130740000Y-79600000D02*
X130740000Y-80725300D01*
X179240000Y-77520000D02*
X179240000Y-78645300D01*
X113822600Y-115832100D02*
X113150500Y-115832100D01*
X113874700Y-115780000D02*
X113822600Y-115832100D01*
X115000000Y-115780000D02*
X113874700Y-115780000D01*
X120431800Y-94851100D02*
X120242000Y-94661300D01*
X171249900Y-94851100D02*
X120431800Y-94851100D01*
X179240000Y-86861000D02*
X171249900Y-94851100D01*
X179240000Y-78645300D02*
X179240000Y-86861000D01*
X119830800Y-91634500D02*
X130740000Y-80725300D01*
X119830800Y-94250100D02*
X119830800Y-91634500D01*
X120242000Y-94661300D02*
X119830800Y-94250100D01*
X176700000Y-76394700D02*
X178114700Y-74980000D01*
X132530600Y-76394700D02*
X176700000Y-76394700D01*
X131865300Y-77060000D02*
X132530600Y-76394700D01*
X130740000Y-77060000D02*
X131865300Y-77060000D01*
X179240000Y-74980000D02*
X178114700Y-74980000D01*
X109969400Y-135524600D02*
X117693600Y-127800400D01*
X109969400Y-137809400D02*
X109969400Y-135524600D01*
X111160000Y-139000000D02*
X109969400Y-137809400D01*
X111527400Y-137635300D02*
X111160000Y-137635300D01*
X112335300Y-138443200D02*
X111527400Y-137635300D01*
X112335300Y-139349600D02*
X112335300Y-138443200D01*
X114620000Y-141634300D02*
X112335300Y-139349600D01*
X153194300Y-141634300D02*
X114620000Y-141634300D01*
X177423200Y-117405400D02*
X153194300Y-141634300D01*
X178087900Y-117405400D02*
X177423200Y-117405400D01*
X178746000Y-116747300D02*
X178087900Y-117405400D01*
X178746000Y-103010000D02*
X178746000Y-116747300D01*
X177901300Y-102165300D02*
X178746000Y-103010000D01*
X177620000Y-102165300D02*
X177901300Y-102165300D01*
X177620000Y-101040000D02*
X177620000Y-102165300D01*
X111160000Y-136460000D02*
X111160000Y-137635300D01*
X176700100Y-73854600D02*
X178114700Y-72440000D01*
X132530700Y-73854600D02*
X176700100Y-73854600D01*
X131865300Y-74520000D02*
X132530700Y-73854600D01*
X130740000Y-74520000D02*
X131865300Y-74520000D01*
X179240000Y-72440000D02*
X178114700Y-72440000D01*
X113700000Y-139000000D02*
X113700000Y-137824700D01*
X118318900Y-126715700D02*
X117971800Y-126368600D01*
X118318900Y-128059500D02*
X118318900Y-126715700D01*
X112524700Y-133853700D02*
X118318900Y-128059500D01*
X112524700Y-137016800D02*
X112524700Y-133853700D01*
X113332600Y-137824700D02*
X112524700Y-137016800D01*
X113700000Y-137824700D02*
X113332600Y-137824700D01*
X114875300Y-136827400D02*
X114875300Y-136460000D01*
X115683200Y-137635300D02*
X114875300Y-136827400D01*
X129334400Y-137635300D02*
X115683200Y-137635300D01*
X130115400Y-138416300D02*
X129334400Y-137635300D01*
X130115400Y-139298900D02*
X130115400Y-138416300D01*
X131483200Y-140666700D02*
X130115400Y-139298900D01*
X152296200Y-140666700D02*
X131483200Y-140666700D01*
X176494700Y-116468200D02*
X152296200Y-140666700D01*
X176494700Y-115709200D02*
X176494700Y-116468200D01*
X177338600Y-114865300D02*
X176494700Y-115709200D01*
X177620000Y-114865300D02*
X177338600Y-114865300D01*
X177620000Y-113740000D02*
X177620000Y-114865300D01*
X113700000Y-136460000D02*
X114875300Y-136460000D01*
X176700100Y-71314600D02*
X178114700Y-69900000D01*
X132530700Y-71314600D02*
X176700100Y-71314600D01*
X131865300Y-71980000D02*
X132530700Y-71314600D01*
X130740000Y-71980000D02*
X131865300Y-71980000D01*
X179240000Y-69900000D02*
X178114700Y-69900000D01*
X176844600Y-68630100D02*
X178114700Y-67360000D01*
X132675200Y-68630100D02*
X176844600Y-68630100D01*
X131865300Y-69440000D02*
X132675200Y-68630100D01*
X130740000Y-69440000D02*
X131865300Y-69440000D01*
X179240000Y-67360000D02*
X178114700Y-67360000D01*
X162144000Y-68090700D02*
X162874700Y-67360000D01*
X117974600Y-68090700D02*
X162144000Y-68090700D01*
X116625300Y-69440000D02*
X117974600Y-68090700D01*
X115500000Y-69440000D02*
X116625300Y-69440000D01*
X164000000Y-67360000D02*
X162874700Y-67360000D01*
X122495300Y-139367300D02*
X122495300Y-139000000D01*
X124245100Y-141117100D02*
X122495300Y-139367300D01*
X152782900Y-141117100D02*
X124245100Y-141117100D01*
X177620000Y-116280000D02*
X152782900Y-141117100D01*
X121320000Y-139000000D02*
X122495300Y-139000000D01*
X162027300Y-65667400D02*
X162874700Y-64820000D01*
X117857900Y-65667400D02*
X162027300Y-65667400D01*
X116625300Y-66900000D02*
X117857900Y-65667400D01*
X115500000Y-66900000D02*
X116625300Y-66900000D01*
X164000000Y-64820000D02*
X162874700Y-64820000D01*
X162027300Y-63127400D02*
X162874700Y-62280000D01*
X117857900Y-63127400D02*
X162027300Y-63127400D01*
X116625300Y-64360000D02*
X117857900Y-63127400D01*
X115500000Y-64360000D02*
X116625300Y-64360000D01*
X164000000Y-62280000D02*
X162874700Y-62280000D01*
X162027300Y-60587400D02*
X162874700Y-59740000D01*
X117857900Y-60587400D02*
X162027300Y-60587400D01*
X116625300Y-61820000D02*
X117857900Y-60587400D01*
X115500000Y-61820000D02*
X116625300Y-61820000D01*
X164000000Y-59740000D02*
X162874700Y-59740000D01*
X162199800Y-57874900D02*
X162874700Y-57200000D01*
X118030400Y-57874900D02*
X162199800Y-57874900D01*
X116625300Y-59280000D02*
X118030400Y-57874900D01*
X115500000Y-59280000D02*
X116625300Y-59280000D01*
X164000000Y-57200000D02*
X162874700Y-57200000D01*
X162027300Y-55507400D02*
X162874700Y-54660000D01*
X117857900Y-55507400D02*
X162027300Y-55507400D01*
X116625300Y-56740000D02*
X117857900Y-55507400D01*
X115500000Y-56740000D02*
X116625300Y-56740000D01*
X164000000Y-54660000D02*
X162874700Y-54660000D01*
X134387400Y-137824700D02*
X134020000Y-137824700D01*
X135195300Y-137016800D02*
X134387400Y-137824700D01*
X135195300Y-136159800D02*
X135195300Y-137016800D01*
X137478200Y-133876900D02*
X135195300Y-136159800D01*
X148737800Y-133876900D02*
X137478200Y-133876900D01*
X168874700Y-113740000D02*
X148737800Y-133876900D01*
X170000000Y-113740000D02*
X168874700Y-113740000D01*
X134020000Y-139000000D02*
X134020000Y-137824700D01*
X115500000Y-54200000D02*
X116625300Y-54200000D01*
X164000000Y-52120000D02*
X162874700Y-52120000D01*
X156876200Y-52120000D02*
X162874700Y-52120000D01*
X155969500Y-53026700D02*
X156876200Y-52120000D01*
X117798600Y-53026700D02*
X155969500Y-53026700D01*
X116625300Y-54200000D02*
X117798600Y-53026700D01*
X170000000Y-111200000D02*
X170000000Y-112325300D01*
X136560000Y-139000000D02*
X137735300Y-139000000D01*
X170281300Y-112325300D02*
X170000000Y-112325300D01*
X171136000Y-113180000D02*
X170281300Y-112325300D01*
X171136000Y-114265600D02*
X171136000Y-113180000D01*
X170391600Y-115010000D02*
X171136000Y-114265600D01*
X169511400Y-115010000D02*
X170391600Y-115010000D01*
X149504600Y-135016800D02*
X169511400Y-115010000D01*
X141414800Y-135016800D02*
X149504600Y-135016800D01*
X140370000Y-136061600D02*
X141414800Y-135016800D01*
X140370000Y-139400000D02*
X140370000Y-136061600D01*
X139594700Y-140175300D02*
X140370000Y-139400000D01*
X138543200Y-140175300D02*
X139594700Y-140175300D01*
X137735300Y-139367400D02*
X138543200Y-140175300D01*
X137735300Y-139000000D02*
X137735300Y-139367400D01*
X161287600Y-47992900D02*
X162874700Y-49580000D01*
X128280700Y-47992900D02*
X161287600Y-47992900D01*
X124613600Y-51660000D02*
X128280700Y-47992900D01*
X115500000Y-51660000D02*
X124613600Y-51660000D01*
X164000000Y-49580000D02*
X162874700Y-49580000D01*
X170000000Y-108660000D02*
X168874700Y-108660000D01*
X137906800Y-137806800D02*
X139100000Y-139000000D01*
X136025000Y-137806800D02*
X137906800Y-137806800D01*
X135323400Y-138508400D02*
X136025000Y-137806800D01*
X135323400Y-139381200D02*
X135323400Y-138508400D01*
X134525800Y-140178800D02*
X135323400Y-139381200D01*
X133532900Y-140178800D02*
X134525800Y-140178800D01*
X132837000Y-139482900D02*
X133532900Y-140178800D01*
X132837000Y-135967400D02*
X132837000Y-139482900D01*
X136521500Y-132282900D02*
X132837000Y-135967400D01*
X145251800Y-132282900D02*
X136521500Y-132282900D01*
X168874700Y-108660000D02*
X145251800Y-132282900D01*
X130740000Y-54200000D02*
X131865300Y-54200000D01*
X179240000Y-52120000D02*
X178114700Y-52120000D01*
X176771500Y-53463200D02*
X178114700Y-52120000D01*
X156169900Y-53463200D02*
X176771500Y-53463200D01*
X155433100Y-54200000D02*
X156169900Y-53463200D01*
X131865300Y-54200000D02*
X155433100Y-54200000D01*
X141000000Y-98000000D02*
X142125300Y-98000000D01*
X170000000Y-98500000D02*
X168874700Y-98500000D01*
X143266400Y-99141100D02*
X142125300Y-98000000D01*
X168233600Y-99141100D02*
X143266400Y-99141100D01*
X168874700Y-98500000D02*
X168233600Y-99141100D01*
X176700100Y-56074600D02*
X178114700Y-54660000D01*
X132530700Y-56074600D02*
X176700100Y-56074600D01*
X131865300Y-56740000D02*
X132530700Y-56074600D01*
X130740000Y-56740000D02*
X131865300Y-56740000D01*
X179240000Y-54660000D02*
X178114700Y-54660000D01*
X168201100Y-101713600D02*
X168874700Y-101040000D01*
X143298900Y-101713600D02*
X168201100Y-101713600D01*
X142125300Y-100540000D02*
X143298900Y-101713600D01*
X141000000Y-100540000D02*
X142125300Y-100540000D01*
X170000000Y-101040000D02*
X168874700Y-101040000D01*
X130740000Y-64360000D02*
X131865300Y-64360000D01*
X179240000Y-62280000D02*
X178114700Y-62280000D01*
X132081200Y-64144100D02*
X151854800Y-64144100D01*
X131865300Y-64360000D02*
X132081200Y-64144100D01*
X176700100Y-63694600D02*
X178114700Y-62280000D01*
X152304300Y-63694600D02*
X176700100Y-63694600D01*
X151854800Y-64144100D02*
X152304300Y-63694600D01*
X141000000Y-103080000D02*
X142125300Y-103080000D01*
X170000000Y-103580000D02*
X168874700Y-103580000D01*
X144968300Y-104231300D02*
X144968300Y-104331100D01*
X168223400Y-104231300D02*
X144968300Y-104231300D01*
X168874700Y-103580000D02*
X168223400Y-104231300D01*
X143276600Y-104231300D02*
X142125300Y-103080000D01*
X144968300Y-104231300D02*
X143276600Y-104231300D01*
X130740000Y-59280000D02*
X131865300Y-59280000D01*
X179240000Y-57200000D02*
X178114700Y-57200000D01*
X131865300Y-59280000D02*
X152954400Y-59280000D01*
X153909100Y-58325300D02*
X152954400Y-59280000D01*
X176989400Y-58325300D02*
X153909100Y-58325300D01*
X178114700Y-57200000D02*
X176989400Y-58325300D01*
X141000000Y-105620000D02*
X142125300Y-105620000D01*
X170000000Y-106120000D02*
X168874700Y-106120000D01*
X143298900Y-106793600D02*
X152521900Y-106793600D01*
X142125300Y-105620000D02*
X143298900Y-106793600D01*
X168201100Y-106793600D02*
X168874700Y-106120000D01*
X152521900Y-106793600D02*
X168201100Y-106793600D01*
X127411100Y-124525800D02*
X123745300Y-120860000D01*
X143203700Y-124525800D02*
X127411100Y-124525800D01*
X148139500Y-119590000D02*
X143203700Y-124525800D01*
X150616700Y-119590000D02*
X148139500Y-119590000D01*
X162816700Y-107390000D02*
X150616700Y-119590000D01*
X172684700Y-107390000D02*
X162816700Y-107390000D01*
X176494700Y-103580000D02*
X172684700Y-107390000D01*
X177620000Y-103580000D02*
X176494700Y-103580000D01*
X122620000Y-120860000D02*
X123745300Y-120860000D01*
X115000000Y-100540000D02*
X113874700Y-100540000D01*
X141000000Y-123400000D02*
X141000000Y-122274700D01*
X115000000Y-100540000D02*
X116125300Y-100540000D01*
X116125300Y-100821300D02*
X116125300Y-100540000D01*
X122049400Y-106745400D02*
X116125300Y-100821300D01*
X141207900Y-106745400D02*
X122049400Y-106745400D01*
X143083500Y-108621000D02*
X141207900Y-106745400D01*
X143083500Y-120472500D02*
X143083500Y-108621000D01*
X141281300Y-122274700D02*
X143083500Y-120472500D01*
X141000000Y-122274700D02*
X141281300Y-122274700D01*
X113249900Y-99915200D02*
X109626600Y-99915200D01*
X113874700Y-100540000D02*
X113249900Y-99915200D01*
X92692800Y-85965300D02*
X92500000Y-85965300D01*
X95233800Y-88506300D02*
X92692800Y-85965300D01*
X95233800Y-92795800D02*
X95233800Y-88506300D01*
X114334100Y-111896100D02*
X95233800Y-92795800D01*
X115352100Y-111896100D02*
X114334100Y-111896100D01*
X121494700Y-118038700D02*
X115352100Y-111896100D01*
X121494700Y-118320000D02*
X121494700Y-118038700D01*
X122620000Y-118320000D02*
X121494700Y-118320000D01*
X92500000Y-84840000D02*
X92500000Y-85965300D01*
X98546200Y-92831500D02*
X96186100Y-92831500D01*
X113874700Y-108160000D02*
X98546200Y-92831500D01*
X115000000Y-108160000D02*
X113874700Y-108160000D01*
X120079900Y-112114600D02*
X116125300Y-108160000D01*
X141521800Y-112114600D02*
X120079900Y-112114600D01*
X142633100Y-113225900D02*
X141521800Y-112114600D01*
X142633100Y-118382900D02*
X142633100Y-113225900D01*
X141281300Y-119734700D02*
X142633100Y-118382900D01*
X141000000Y-119734700D02*
X141281300Y-119734700D01*
X141000000Y-120860000D02*
X141000000Y-119734700D01*
X115000000Y-108160000D02*
X116125300Y-108160000D01*
X141000000Y-110700000D02*
X122620000Y-110700000D01*
X92781400Y-83425300D02*
X92500000Y-83425300D01*
X93625300Y-84269200D02*
X92781400Y-83425300D01*
X93625300Y-85868100D02*
X93625300Y-84269200D01*
X114647200Y-106890000D02*
X93625300Y-85868100D01*
X117684700Y-106890000D02*
X114647200Y-106890000D01*
X121494700Y-110700000D02*
X117684700Y-106890000D01*
X122620000Y-110700000D02*
X121494700Y-110700000D01*
X92500000Y-82300000D02*
X92500000Y-83425300D01*
X115000000Y-110700000D02*
X113874700Y-110700000D01*
X119935300Y-114510000D02*
X116125300Y-110700000D01*
X141339800Y-114510000D02*
X119935300Y-114510000D01*
X142130000Y-115300200D02*
X141339800Y-114510000D01*
X142130000Y-116346000D02*
X142130000Y-115300200D01*
X141281300Y-117194700D02*
X142130000Y-116346000D01*
X141000000Y-117194700D02*
X141281300Y-117194700D01*
X141000000Y-118320000D02*
X141000000Y-117194700D01*
X115000000Y-110700000D02*
X116125300Y-110700000D01*
X113874700Y-109763700D02*
X113874700Y-110700000D01*
X103398100Y-99287100D02*
X113874700Y-109763700D01*
X141000000Y-108160000D02*
X122620000Y-108160000D01*
X92500000Y-79760000D02*
X92500000Y-80885300D01*
X122620000Y-108160000D02*
X121494700Y-108160000D01*
X92751800Y-80885300D02*
X92500000Y-80885300D01*
X105517400Y-93650900D02*
X92751800Y-80885300D01*
X105517400Y-96690600D02*
X105517400Y-93650900D01*
X113056500Y-104229700D02*
X105517400Y-96690600D01*
X117564400Y-104229700D02*
X113056500Y-104229700D01*
X121494700Y-108160000D02*
X117564400Y-104229700D01*
X117250600Y-119445300D02*
X116125300Y-118320000D01*
X136209400Y-119445300D02*
X117250600Y-119445300D01*
X139874700Y-115780000D02*
X136209400Y-119445300D01*
X141000000Y-115780000D02*
X139874700Y-115780000D01*
X115562700Y-118320000D02*
X116125300Y-118320000D01*
X115562700Y-118320000D02*
X115000000Y-118320000D01*
X92781400Y-88505300D02*
X92500000Y-88505300D01*
X93625300Y-89349200D02*
X92781400Y-88505300D01*
X93625300Y-98070600D02*
X93625300Y-89349200D01*
X113874700Y-118320000D02*
X93625300Y-98070600D01*
X115000000Y-118320000D02*
X113874700Y-118320000D01*
X92500000Y-87380000D02*
X92500000Y-88505300D01*
X176700100Y-61154600D02*
X178114700Y-59740000D01*
X132530700Y-61154600D02*
X176700100Y-61154600D01*
X131865300Y-61820000D02*
X132530700Y-61154600D01*
X130740000Y-61820000D02*
X131865300Y-61820000D01*
X179240000Y-59740000D02*
X178114700Y-59740000D01*
X180365400Y-55512100D02*
X180197700Y-55679800D01*
X180365400Y-51651300D02*
X180365400Y-55512100D01*
X179564100Y-50850000D02*
X180365400Y-51651300D01*
X133595300Y-50850000D02*
X179564100Y-50850000D01*
X131865300Y-49120000D02*
X133595300Y-50850000D01*
X130740000Y-49120000D02*
X131865300Y-49120000D01*
X142762200Y-105620000D02*
X148620000Y-105620000D01*
X141347600Y-104205400D02*
X142762200Y-105620000D01*
X140499900Y-104205400D02*
X141347600Y-104205400D01*
X139858300Y-103563800D02*
X140499900Y-104205400D01*
X139858300Y-100042100D02*
X139858300Y-103563800D01*
X140775000Y-99125400D02*
X139858300Y-100042100D01*
X142352100Y-99125400D02*
X140775000Y-99125400D01*
X179240000Y-64820000D02*
X179240000Y-65945300D01*
X151354600Y-95301500D02*
X149615300Y-97040800D01*
X171457500Y-95301500D02*
X151354600Y-95301500D01*
X180372500Y-86386500D02*
X171457500Y-95301500D01*
X180372500Y-66796500D02*
X180372500Y-86386500D01*
X179521300Y-65945300D02*
X180372500Y-66796500D01*
X179240000Y-65945300D02*
X179521300Y-65945300D01*
D22*
G36*
X204290000Y-143290000D02*
X50710000Y-143290000D01*
X50710000Y-139442619D01*
X52764613Y-139442619D01*
X53104155Y-140264372D01*
X53732321Y-140893636D01*
X54553481Y-141234611D01*
X55442619Y-141235387D01*
X56264372Y-140895845D01*
X56893636Y-140267679D01*
X57234611Y-139446519D01*
X57235387Y-138557381D01*
X56895845Y-137735628D01*
X56267679Y-137106364D01*
X55446519Y-136765389D01*
X54557381Y-136764613D01*
X53735628Y-137104155D01*
X53106364Y-137732321D01*
X52765389Y-138553481D01*
X52764613Y-139442619D01*
X50710000Y-139442619D01*
X50710000Y-114784187D01*
X57064752Y-114784187D01*
X57282757Y-115311800D01*
X57686077Y-115715824D01*
X58213309Y-115934750D01*
X58683580Y-115935160D01*
X72374208Y-129625787D01*
X72374210Y-129625790D01*
X72661325Y-129817633D01*
X72717516Y-129828810D01*
X73000000Y-129885001D01*
X73000005Y-129885000D01*
X99568554Y-129885000D01*
X99596838Y-130035317D01*
X99735910Y-130251441D01*
X99948110Y-130396431D01*
X100115000Y-130430227D01*
X100115000Y-135270568D01*
X99949946Y-135380853D01*
X99628039Y-135862622D01*
X99515000Y-136430907D01*
X99515000Y-136489093D01*
X99628039Y-137057378D01*
X99949946Y-137539147D01*
X99951179Y-137539971D01*
X99914683Y-137546838D01*
X99698559Y-137685910D01*
X99553569Y-137898110D01*
X99502560Y-138150000D01*
X99502560Y-139850000D01*
X99546838Y-140085317D01*
X99685910Y-140301441D01*
X99898110Y-140446431D01*
X100150000Y-140497440D01*
X101850000Y-140497440D01*
X102085317Y-140453162D01*
X102301441Y-140314090D01*
X102446431Y-140101890D01*
X102460086Y-140034459D01*
X102489946Y-140079147D01*
X102971715Y-140401054D01*
X103540000Y-140514093D01*
X104108285Y-140401054D01*
X104590054Y-140079147D01*
X104810000Y-139749974D01*
X105029946Y-140079147D01*
X105511715Y-140401054D01*
X106080000Y-140514093D01*
X106648285Y-140401054D01*
X107130054Y-140079147D01*
X107350000Y-139749974D01*
X107569946Y-140079147D01*
X108051715Y-140401054D01*
X108620000Y-140514093D01*
X109188285Y-140401054D01*
X109670054Y-140079147D01*
X109890000Y-139749974D01*
X110109946Y-140079147D01*
X110591715Y-140401054D01*
X111160000Y-140514093D01*
X111728285Y-140401054D01*
X112078168Y-140167270D01*
X114082599Y-142171701D01*
X114329161Y-142336448D01*
X114620000Y-142394300D01*
X153194300Y-142394300D01*
X153485139Y-142336448D01*
X153731701Y-142171701D01*
X156460783Y-139442619D01*
X197764613Y-139442619D01*
X198104155Y-140264372D01*
X198732321Y-140893636D01*
X199553481Y-141234611D01*
X200442619Y-141235387D01*
X201264372Y-140895845D01*
X201893636Y-140267679D01*
X202234611Y-139446519D01*
X202235387Y-138557381D01*
X201895845Y-137735628D01*
X201267679Y-137106364D01*
X200446519Y-136765389D01*
X199557381Y-136764613D01*
X198735628Y-137104155D01*
X198106364Y-137732321D01*
X197765389Y-138553481D01*
X197764613Y-139442619D01*
X156460783Y-139442619D01*
X176373518Y-119529884D01*
X176577189Y-119834698D01*
X176959275Y-120090000D01*
X176577189Y-120345302D01*
X176266120Y-120810849D01*
X176156887Y-121360000D01*
X176266120Y-121909151D01*
X176577189Y-122374698D01*
X177042736Y-122685767D01*
X177591887Y-122795000D01*
X177648113Y-122795000D01*
X178197264Y-122685767D01*
X178662811Y-122374698D01*
X178973880Y-121909151D01*
X179083113Y-121360000D01*
X178973880Y-120810849D01*
X178662811Y-120345302D01*
X178280725Y-120090000D01*
X178662811Y-119834698D01*
X178973880Y-119369151D01*
X179083113Y-118820000D01*
X178973880Y-118270849D01*
X178702861Y-117865241D01*
X179283401Y-117284701D01*
X179448148Y-117038139D01*
X179506000Y-116747300D01*
X179506000Y-103010000D01*
X179477644Y-102867448D01*
X179448148Y-102719160D01*
X179283401Y-102472599D01*
X178743997Y-101933195D01*
X178973880Y-101589151D01*
X179083113Y-101040000D01*
X178973880Y-100490849D01*
X178662811Y-100025302D01*
X178280725Y-99770000D01*
X178662811Y-99514698D01*
X178973880Y-99049151D01*
X179083113Y-98500000D01*
X178973880Y-97950849D01*
X178662811Y-97485302D01*
X178505000Y-97379856D01*
X178505000Y-97249705D01*
X178505001Y-97249700D01*
X178437633Y-96911025D01*
X178397820Y-96851441D01*
X178245790Y-96623910D01*
X178245787Y-96623908D01*
X176903390Y-95281510D01*
X176885000Y-95269222D01*
X176885000Y-94644171D01*
X177215824Y-94313923D01*
X177434750Y-93786691D01*
X177435160Y-93316420D01*
X181582687Y-89168892D01*
X181582690Y-89168890D01*
X181774533Y-88881775D01*
X181841901Y-88543100D01*
X181841900Y-88543095D01*
X181841900Y-50007745D01*
X184671861Y-50007745D01*
X184745995Y-50253864D01*
X185283223Y-50446965D01*
X185853454Y-50419778D01*
X186254005Y-50253864D01*
X186328139Y-50007745D01*
X185500000Y-49179605D01*
X184671861Y-50007745D01*
X181841900Y-50007745D01*
X181841900Y-49460200D01*
X181774533Y-49121525D01*
X181582690Y-48834410D01*
X181582687Y-48834408D01*
X181531503Y-48783223D01*
X184053035Y-48783223D01*
X184080222Y-49353454D01*
X184246136Y-49754005D01*
X184492255Y-49828139D01*
X185320395Y-49000000D01*
X185679605Y-49000000D01*
X186507745Y-49828139D01*
X186753864Y-49754005D01*
X186946965Y-49216777D01*
X186919778Y-48646546D01*
X186753864Y-48245995D01*
X186507745Y-48171861D01*
X185679605Y-49000000D01*
X185320395Y-49000000D01*
X184492255Y-48171861D01*
X184246136Y-48245995D01*
X184053035Y-48783223D01*
X181531503Y-48783223D01*
X180740535Y-47992255D01*
X184671861Y-47992255D01*
X185500000Y-48820395D01*
X186328139Y-47992255D01*
X186254005Y-47746136D01*
X185716777Y-47553035D01*
X185146546Y-47580222D01*
X184745995Y-47746136D01*
X184671861Y-47992255D01*
X180740535Y-47992255D01*
X180491161Y-47742881D01*
X180593880Y-47589151D01*
X180703113Y-47040000D01*
X180593880Y-46490849D01*
X180282811Y-46025302D01*
X179900725Y-45770000D01*
X180282811Y-45514698D01*
X180369473Y-45385000D01*
X184999995Y-45385000D01*
X185000000Y-45385001D01*
X185063217Y-45372426D01*
X185213309Y-45434750D01*
X185784187Y-45435248D01*
X186311800Y-45217243D01*
X186715824Y-44813923D01*
X186934750Y-44286691D01*
X186935248Y-43715813D01*
X186717243Y-43188200D01*
X186313923Y-42784176D01*
X185786691Y-42565250D01*
X185215813Y-42564752D01*
X184688200Y-42782757D01*
X184284176Y-43186077D01*
X184106071Y-43615000D01*
X180369473Y-43615000D01*
X180282811Y-43485302D01*
X179817264Y-43174233D01*
X179268113Y-43065000D01*
X179211887Y-43065000D01*
X178662736Y-43174233D01*
X178214808Y-43473529D01*
X177302990Y-42561710D01*
X177232631Y-42514698D01*
X177015875Y-42369867D01*
X176959684Y-42358690D01*
X176677200Y-42302499D01*
X176677195Y-42302500D01*
X132408280Y-42302500D01*
X132230290Y-42124510D01*
X132096652Y-42035216D01*
X132203113Y-41500000D01*
X132093880Y-40950849D01*
X131782811Y-40485302D01*
X131317264Y-40174233D01*
X130768113Y-40065000D01*
X130711887Y-40065000D01*
X130304057Y-40146122D01*
X130115490Y-39863910D01*
X130115487Y-39863908D01*
X126934840Y-36683260D01*
X126935248Y-36215813D01*
X126717243Y-35688200D01*
X126472090Y-35442619D01*
X197764613Y-35442619D01*
X198104155Y-36264372D01*
X198732321Y-36893636D01*
X199553481Y-37234611D01*
X200442619Y-37235387D01*
X201264372Y-36895845D01*
X201893636Y-36267679D01*
X202234611Y-35446519D01*
X202235387Y-34557381D01*
X201895845Y-33735628D01*
X201267679Y-33106364D01*
X200446519Y-32765389D01*
X199557381Y-32764613D01*
X198735628Y-33104155D01*
X198106364Y-33732321D01*
X197765389Y-34553481D01*
X197764613Y-35442619D01*
X126472090Y-35442619D01*
X126313923Y-35284176D01*
X125786691Y-35065250D01*
X125215813Y-35064752D01*
X124688200Y-35282757D01*
X124284176Y-35686077D01*
X124065250Y-36213309D01*
X124064752Y-36784187D01*
X124282757Y-37311800D01*
X124686077Y-37715824D01*
X125213309Y-37934750D01*
X125683580Y-37935160D01*
X128604700Y-40856279D01*
X128604700Y-41500000D01*
X128672067Y-41838675D01*
X128863910Y-42125790D01*
X129151025Y-42317633D01*
X129489700Y-42385000D01*
X129610527Y-42385000D01*
X129697189Y-42514698D01*
X129855000Y-42620144D01*
X129855000Y-42750300D01*
X129884770Y-42899964D01*
X129697189Y-43025302D01*
X129386120Y-43490849D01*
X129276887Y-44040000D01*
X129386120Y-44589151D01*
X129697189Y-45054698D01*
X129884770Y-45180036D01*
X129855000Y-45329700D01*
X129855000Y-45459856D01*
X129697189Y-45565302D01*
X129386120Y-46030849D01*
X129276887Y-46580000D01*
X129386120Y-47129151D01*
X129455443Y-47232900D01*
X128280700Y-47232900D01*
X127989861Y-47290752D01*
X127743299Y-47455499D01*
X124298798Y-50900000D01*
X116712995Y-50900000D01*
X116542811Y-50645302D01*
X116160725Y-50390000D01*
X116542811Y-50134698D01*
X116853880Y-49669151D01*
X116963113Y-49120000D01*
X116853880Y-48570849D01*
X116542811Y-48105302D01*
X116160725Y-47850000D01*
X116542811Y-47594698D01*
X116853880Y-47129151D01*
X116963113Y-46580000D01*
X116853880Y-46030849D01*
X116542811Y-45565302D01*
X116160725Y-45310000D01*
X116542811Y-45054698D01*
X116853880Y-44589151D01*
X116963113Y-44040000D01*
X116853880Y-43490849D01*
X116542811Y-43025302D01*
X116398535Y-42928899D01*
X116535317Y-42903162D01*
X116751441Y-42764090D01*
X116896431Y-42551890D01*
X116947440Y-42300000D01*
X116947440Y-40700000D01*
X116903162Y-40464683D01*
X116764090Y-40248559D01*
X116551890Y-40103569D01*
X116300000Y-40052560D01*
X114700000Y-40052560D01*
X114464683Y-40096838D01*
X114248559Y-40235910D01*
X114103569Y-40448110D01*
X114052560Y-40700000D01*
X114052560Y-42300000D01*
X114096838Y-42535317D01*
X114235910Y-42751441D01*
X114448110Y-42896431D01*
X114603089Y-42927815D01*
X114457189Y-43025302D01*
X114146120Y-43490849D01*
X114036887Y-44040000D01*
X114146120Y-44589151D01*
X114457189Y-45054698D01*
X114839275Y-45310000D01*
X114457189Y-45565302D01*
X114146120Y-46030849D01*
X114036887Y-46580000D01*
X114146120Y-47129151D01*
X114457189Y-47594698D01*
X114839275Y-47850000D01*
X114457189Y-48105302D01*
X114146120Y-48570849D01*
X114036887Y-49120000D01*
X114146120Y-49669151D01*
X114457189Y-50134698D01*
X114839275Y-50390000D01*
X114457189Y-50645302D01*
X114146120Y-51110849D01*
X114036887Y-51660000D01*
X114146120Y-52209151D01*
X114457189Y-52674698D01*
X114839275Y-52930000D01*
X114457189Y-53185302D01*
X114146120Y-53650849D01*
X114036887Y-54200000D01*
X114146120Y-54749151D01*
X114457189Y-55214698D01*
X114839275Y-55470000D01*
X114457189Y-55725302D01*
X114146120Y-56190849D01*
X114036887Y-56740000D01*
X114146120Y-57289151D01*
X114457189Y-57754698D01*
X114839275Y-58010000D01*
X114457189Y-58265302D01*
X114146120Y-58730849D01*
X114036887Y-59280000D01*
X114146120Y-59829151D01*
X114457189Y-60294698D01*
X114839275Y-60550000D01*
X114457189Y-60805302D01*
X114146120Y-61270849D01*
X114036887Y-61820000D01*
X114146120Y-62369151D01*
X114457189Y-62834698D01*
X114839275Y-63090000D01*
X114457189Y-63345302D01*
X114146120Y-63810849D01*
X114036887Y-64360000D01*
X114146120Y-64909151D01*
X114457189Y-65374698D01*
X114839275Y-65630000D01*
X114457189Y-65885302D01*
X114146120Y-66350849D01*
X114036887Y-66900000D01*
X114146120Y-67449151D01*
X114457189Y-67914698D01*
X114839275Y-68170000D01*
X114457189Y-68425302D01*
X114146120Y-68890849D01*
X114036887Y-69440000D01*
X114146120Y-69989151D01*
X114457189Y-70454698D01*
X114839275Y-70710000D01*
X114457189Y-70965302D01*
X114146120Y-71430849D01*
X114036887Y-71980000D01*
X114146120Y-72529151D01*
X114457189Y-72994698D01*
X114839275Y-73250000D01*
X114457189Y-73505302D01*
X114146120Y-73970849D01*
X114036887Y-74520000D01*
X114146120Y-75069151D01*
X114457189Y-75534698D01*
X114839275Y-75790000D01*
X114457189Y-76045302D01*
X114146120Y-76510849D01*
X114036887Y-77060000D01*
X114146120Y-77609151D01*
X114457189Y-78074698D01*
X114861703Y-78344986D01*
X114644866Y-78447611D01*
X114268959Y-78862577D01*
X114108096Y-79250961D01*
X114230085Y-79473000D01*
X115373000Y-79473000D01*
X115373000Y-79453000D01*
X115627000Y-79453000D01*
X115627000Y-79473000D01*
X116769915Y-79473000D01*
X116891904Y-79250961D01*
X116731041Y-78862577D01*
X116355134Y-78447611D01*
X116138297Y-78344986D01*
X116542811Y-78074698D01*
X116726437Y-77799882D01*
X116916139Y-77762148D01*
X117162701Y-77597401D01*
X118172702Y-76587400D01*
X129370893Y-76587400D01*
X129276887Y-77060000D01*
X129386120Y-77609151D01*
X129697189Y-78074698D01*
X130079275Y-78330000D01*
X129697189Y-78585302D01*
X129386120Y-79050849D01*
X129276887Y-79600000D01*
X129386120Y-80149151D01*
X129697189Y-80614698D01*
X129744313Y-80646185D01*
X119293399Y-91097099D01*
X119128652Y-91343661D01*
X119070800Y-91634500D01*
X119070800Y-94250100D01*
X119128652Y-94540939D01*
X119293399Y-94787501D01*
X119306878Y-94800980D01*
X119306838Y-94846467D01*
X119448883Y-95190243D01*
X119711673Y-95453492D01*
X120055201Y-95596138D01*
X120357907Y-95596402D01*
X120431800Y-95611100D01*
X149970198Y-95611100D01*
X149475620Y-96105678D01*
X149430133Y-96105638D01*
X149086357Y-96247683D01*
X148823108Y-96510473D01*
X148788843Y-96592993D01*
X148648113Y-96565000D01*
X148591887Y-96565000D01*
X148042736Y-96674233D01*
X147594808Y-96973529D01*
X146745090Y-96123810D01*
X146718378Y-96105962D01*
X146457975Y-95931967D01*
X146401784Y-95920790D01*
X146119300Y-95864599D01*
X146119295Y-95864600D01*
X125120705Y-95864600D01*
X125120700Y-95864599D01*
X124838216Y-95920790D01*
X124782025Y-95931967D01*
X124494910Y-96123810D01*
X124494908Y-96123813D01*
X123645191Y-96973529D01*
X123197264Y-96674233D01*
X122648113Y-96565000D01*
X122591887Y-96565000D01*
X122042736Y-96674233D01*
X121577189Y-96985302D01*
X121490527Y-97115000D01*
X121366579Y-97115000D01*
X117434840Y-93183260D01*
X117435248Y-92715813D01*
X117217243Y-92188200D01*
X116813923Y-91784176D01*
X116286691Y-91565250D01*
X115715813Y-91564752D01*
X115188200Y-91782757D01*
X114784176Y-92186077D01*
X114565250Y-92713309D01*
X114564752Y-93284187D01*
X114782757Y-93811800D01*
X115186077Y-94215824D01*
X115713309Y-94434750D01*
X116183580Y-94435160D01*
X120374208Y-98625787D01*
X120374210Y-98625790D01*
X120661325Y-98817633D01*
X120717516Y-98828810D01*
X121000000Y-98885001D01*
X121000005Y-98885000D01*
X121490527Y-98885000D01*
X121577189Y-99014698D01*
X121959275Y-99270000D01*
X121577189Y-99525302D01*
X121266120Y-99990849D01*
X121156887Y-100540000D01*
X121266120Y-101089151D01*
X121577189Y-101554698D01*
X121981703Y-101824986D01*
X121764866Y-101927611D01*
X121388959Y-102342577D01*
X121228096Y-102730961D01*
X121350085Y-102953000D01*
X122493000Y-102953000D01*
X122493000Y-102933000D01*
X122747000Y-102933000D01*
X122747000Y-102953000D01*
X123889915Y-102953000D01*
X124011904Y-102730961D01*
X123851041Y-102342577D01*
X123475134Y-101927611D01*
X123258297Y-101824986D01*
X123662811Y-101554698D01*
X123973880Y-101089151D01*
X124083113Y-100540000D01*
X123973880Y-99990849D01*
X123662811Y-99525302D01*
X123280725Y-99270000D01*
X123662811Y-99014698D01*
X123749473Y-98885000D01*
X123870295Y-98885000D01*
X123870300Y-98885001D01*
X124152784Y-98828810D01*
X124208975Y-98817633D01*
X124496090Y-98625790D01*
X125487279Y-97634600D01*
X139552560Y-97634600D01*
X139552560Y-98800000D01*
X139596838Y-99035317D01*
X139672578Y-99153020D01*
X139320899Y-99504699D01*
X139156152Y-99751261D01*
X139098300Y-100042100D01*
X139098300Y-103563800D01*
X139156152Y-103854639D01*
X139320899Y-104101201D01*
X139904241Y-104684543D01*
X139646120Y-105070849D01*
X139536887Y-105620000D01*
X139609570Y-105985400D01*
X124010430Y-105985400D01*
X124083113Y-105620000D01*
X123973880Y-105070849D01*
X123662811Y-104605302D01*
X123258297Y-104335014D01*
X123475134Y-104232389D01*
X123851041Y-103817423D01*
X124011904Y-103429039D01*
X123889915Y-103207000D01*
X122747000Y-103207000D01*
X122747000Y-103227000D01*
X122493000Y-103227000D01*
X122493000Y-103207000D01*
X121350085Y-103207000D01*
X121228096Y-103429039D01*
X121388959Y-103817423D01*
X121764866Y-104232389D01*
X121981703Y-104335014D01*
X121577189Y-104605302D01*
X121339632Y-104960830D01*
X116876981Y-100498179D01*
X116827448Y-100249161D01*
X116662701Y-100002599D01*
X116416139Y-99837852D01*
X116226437Y-99800118D01*
X116042811Y-99525302D01*
X115898535Y-99428899D01*
X116035317Y-99403162D01*
X116251441Y-99264090D01*
X116396431Y-99051890D01*
X116447440Y-98800000D01*
X116447440Y-97200000D01*
X116403162Y-96964683D01*
X116264090Y-96748559D01*
X116051890Y-96603569D01*
X115800000Y-96552560D01*
X114200000Y-96552560D01*
X113964683Y-96596838D01*
X113748559Y-96735910D01*
X113603569Y-96948110D01*
X113552560Y-97200000D01*
X113552560Y-98800000D01*
X113596838Y-99035317D01*
X113735910Y-99251441D01*
X113948110Y-99396431D01*
X114103089Y-99427815D01*
X113957189Y-99525302D01*
X113948223Y-99538721D01*
X113787301Y-99377799D01*
X113540739Y-99213052D01*
X113249900Y-99155200D01*
X110189063Y-99155200D01*
X110156927Y-99123008D01*
X109813399Y-98980362D01*
X109441433Y-98980038D01*
X109097657Y-99122083D01*
X109060639Y-99159037D01*
X106277400Y-96375798D01*
X106277400Y-93650900D01*
X106219548Y-93360061D01*
X106054801Y-93113499D01*
X93612181Y-80670879D01*
X93853880Y-80309151D01*
X93925510Y-79949039D01*
X114108096Y-79949039D01*
X114268959Y-80337423D01*
X114644866Y-80752389D01*
X115150959Y-80991914D01*
X115373000Y-80870629D01*
X115373000Y-79727000D01*
X115627000Y-79727000D01*
X115627000Y-80870629D01*
X115849041Y-80991914D01*
X116355134Y-80752389D01*
X116731041Y-80337423D01*
X116891904Y-79949039D01*
X116769915Y-79727000D01*
X115627000Y-79727000D01*
X115373000Y-79727000D01*
X114230085Y-79727000D01*
X114108096Y-79949039D01*
X93925510Y-79949039D01*
X93963113Y-79760000D01*
X93853880Y-79210849D01*
X93542811Y-78745302D01*
X93138297Y-78475014D01*
X93355134Y-78372389D01*
X93731041Y-77957423D01*
X93891904Y-77569039D01*
X93769915Y-77347000D01*
X92627000Y-77347000D01*
X92627000Y-77367000D01*
X92373000Y-77367000D01*
X92373000Y-77347000D01*
X91230085Y-77347000D01*
X91108096Y-77569039D01*
X91268959Y-77957423D01*
X91644866Y-78372389D01*
X91861703Y-78475014D01*
X91457189Y-78745302D01*
X91146120Y-79210849D01*
X91036887Y-79760000D01*
X91146120Y-80309151D01*
X91457189Y-80774698D01*
X91757978Y-80975679D01*
X91777053Y-81071576D01*
X91457189Y-81285302D01*
X91146120Y-81750849D01*
X91036887Y-82300000D01*
X91146120Y-82849151D01*
X91457189Y-83314698D01*
X91757978Y-83515679D01*
X91777053Y-83611576D01*
X91457189Y-83825302D01*
X91146120Y-84290849D01*
X91036887Y-84840000D01*
X91146120Y-85389151D01*
X91457189Y-85854698D01*
X91757978Y-86055679D01*
X91777053Y-86151576D01*
X91457189Y-86365302D01*
X91146120Y-86830849D01*
X91036887Y-87380000D01*
X91146120Y-87929151D01*
X91457189Y-88394698D01*
X91757978Y-88595679D01*
X91777053Y-88691576D01*
X91457189Y-88905302D01*
X91146120Y-89370849D01*
X91036887Y-89920000D01*
X91146120Y-90469151D01*
X91457189Y-90934698D01*
X91839275Y-91190000D01*
X91457189Y-91445302D01*
X91146120Y-91910849D01*
X91036887Y-92460000D01*
X91146120Y-93009151D01*
X91457189Y-93474698D01*
X91601465Y-93571101D01*
X91464683Y-93596838D01*
X91248559Y-93735910D01*
X91103569Y-93948110D01*
X91052560Y-94200000D01*
X91052560Y-95800000D01*
X91096838Y-96035317D01*
X91235910Y-96251441D01*
X91448110Y-96396431D01*
X91700000Y-96447440D01*
X92865300Y-96447440D01*
X92865300Y-98070600D01*
X92923152Y-98361439D01*
X93087899Y-98608001D01*
X113337299Y-118857401D01*
X113583861Y-119022148D01*
X113773563Y-119059882D01*
X113957189Y-119334698D01*
X114361703Y-119604986D01*
X114144866Y-119707611D01*
X113768959Y-120122577D01*
X113608096Y-120510961D01*
X113730085Y-120733000D01*
X114873000Y-120733000D01*
X114873000Y-120713000D01*
X115127000Y-120713000D01*
X115127000Y-120733000D01*
X116269915Y-120733000D01*
X116391904Y-120510961D01*
X116231041Y-120122577D01*
X115855134Y-119707611D01*
X115638297Y-119604986D01*
X116042811Y-119334698D01*
X116051777Y-119321279D01*
X116713199Y-119982701D01*
X116959761Y-120147448D01*
X117250600Y-120205300D01*
X121336646Y-120205300D01*
X121266120Y-120310849D01*
X121156887Y-120860000D01*
X121266120Y-121409151D01*
X121577189Y-121874698D01*
X122042736Y-122185767D01*
X122591887Y-122295000D01*
X122648113Y-122295000D01*
X123197264Y-122185767D01*
X123662811Y-121874698D01*
X123671777Y-121861279D01*
X126873699Y-125063201D01*
X127120261Y-125227948D01*
X127411100Y-125285800D01*
X139734489Y-125285800D01*
X139608096Y-125590961D01*
X139730085Y-125813000D01*
X140873000Y-125813000D01*
X140873000Y-125793000D01*
X141127000Y-125793000D01*
X141127000Y-125813000D01*
X142269915Y-125813000D01*
X142391904Y-125590961D01*
X142265511Y-125285800D01*
X143203700Y-125285800D01*
X143494539Y-125227948D01*
X143741101Y-125063201D01*
X147317803Y-121486499D01*
X147577189Y-121874698D01*
X147959275Y-122130000D01*
X147577189Y-122385302D01*
X147266120Y-122850849D01*
X147156887Y-123400000D01*
X147266120Y-123949151D01*
X147577189Y-124414698D01*
X147959275Y-124670000D01*
X147577189Y-124925302D01*
X147266120Y-125390849D01*
X147156887Y-125940000D01*
X147266120Y-126489151D01*
X147577189Y-126954698D01*
X148042736Y-127265767D01*
X148591887Y-127375000D01*
X148648113Y-127375000D01*
X149193353Y-127266545D01*
X144936998Y-131522900D01*
X136521500Y-131522900D01*
X136230661Y-131580752D01*
X135984099Y-131745499D01*
X132421367Y-135308231D01*
X132048285Y-135058946D01*
X131480000Y-134945907D01*
X130911715Y-135058946D01*
X130429946Y-135380853D01*
X130210000Y-135710026D01*
X129990054Y-135380853D01*
X129508285Y-135058946D01*
X128940000Y-134945907D01*
X128371715Y-135058946D01*
X127889946Y-135380853D01*
X127662298Y-135721553D01*
X127595183Y-135578642D01*
X127166924Y-135188355D01*
X126756890Y-135018524D01*
X126527000Y-135139845D01*
X126527000Y-136333000D01*
X126547000Y-136333000D01*
X126547000Y-136587000D01*
X126527000Y-136587000D01*
X126527000Y-136607000D01*
X126273000Y-136607000D01*
X126273000Y-136587000D01*
X126253000Y-136587000D01*
X126253000Y-136333000D01*
X126273000Y-136333000D01*
X126273000Y-135139845D01*
X126043110Y-135018524D01*
X125633076Y-135188355D01*
X125204817Y-135578642D01*
X125137702Y-135721553D01*
X124910054Y-135380853D01*
X124428285Y-135058946D01*
X123860000Y-134945907D01*
X123291715Y-135058946D01*
X122809946Y-135380853D01*
X122590000Y-135710026D01*
X122370054Y-135380853D01*
X121888285Y-135058946D01*
X121320000Y-134945907D01*
X120751715Y-135058946D01*
X120269946Y-135380853D01*
X120050000Y-135710026D01*
X119830054Y-135380853D01*
X119348285Y-135058946D01*
X118780000Y-134945907D01*
X118211715Y-135058946D01*
X117729946Y-135380853D01*
X117510000Y-135710026D01*
X117290054Y-135380853D01*
X116808285Y-135058946D01*
X116240000Y-134945907D01*
X115671715Y-135058946D01*
X115189946Y-135380853D01*
X114970000Y-135710026D01*
X114750054Y-135380853D01*
X114268285Y-135058946D01*
X113700000Y-134945907D01*
X113284700Y-135028515D01*
X113284700Y-134168502D01*
X118856301Y-128596901D01*
X119021048Y-128350340D01*
X119078900Y-128059500D01*
X119078900Y-126715700D01*
X119021048Y-126424861D01*
X118930296Y-126289039D01*
X139608096Y-126289039D01*
X139768959Y-126677423D01*
X140144866Y-127092389D01*
X140650959Y-127331914D01*
X140873000Y-127210629D01*
X140873000Y-126067000D01*
X141127000Y-126067000D01*
X141127000Y-127210629D01*
X141349041Y-127331914D01*
X141855134Y-127092389D01*
X142231041Y-126677423D01*
X142391904Y-126289039D01*
X142269915Y-126067000D01*
X141127000Y-126067000D01*
X140873000Y-126067000D01*
X139730085Y-126067000D01*
X139608096Y-126289039D01*
X118930296Y-126289039D01*
X118906901Y-126254027D01*
X118906962Y-126183433D01*
X118764917Y-125839657D01*
X118502127Y-125576408D01*
X118158599Y-125433762D01*
X117786633Y-125433438D01*
X117442857Y-125575483D01*
X117179608Y-125838273D01*
X117036962Y-126181801D01*
X117036638Y-126553767D01*
X117178683Y-126897543D01*
X117252145Y-126971134D01*
X117164657Y-127007283D01*
X116901408Y-127270073D01*
X116758762Y-127613601D01*
X116758721Y-127660477D01*
X109431999Y-134987199D01*
X109323632Y-135149382D01*
X109188285Y-135058946D01*
X108620000Y-134945907D01*
X108051715Y-135058946D01*
X107569946Y-135380853D01*
X107350000Y-135710026D01*
X107130054Y-135380853D01*
X106648285Y-135058946D01*
X106080000Y-134945907D01*
X105511715Y-135058946D01*
X105029946Y-135380853D01*
X104810000Y-135710026D01*
X104590054Y-135380853D01*
X104108285Y-135058946D01*
X103540000Y-134945907D01*
X102971715Y-135058946D01*
X102489946Y-135380853D01*
X102270000Y-135710026D01*
X102050054Y-135380853D01*
X101885000Y-135270568D01*
X101885000Y-130431446D01*
X102035317Y-130403162D01*
X102251441Y-130264090D01*
X102396431Y-130051890D01*
X102447440Y-129800000D01*
X102447440Y-128200000D01*
X102403162Y-127964683D01*
X102264090Y-127748559D01*
X102051890Y-127603569D01*
X101813799Y-127555354D01*
X101828139Y-127507745D01*
X101000000Y-126679605D01*
X100171861Y-127507745D01*
X100186145Y-127555167D01*
X99964683Y-127596838D01*
X99748559Y-127735910D01*
X99603569Y-127948110D01*
X99569773Y-128115000D01*
X73366579Y-128115000D01*
X71534803Y-126283223D01*
X99553035Y-126283223D01*
X99580222Y-126853454D01*
X99746136Y-127254005D01*
X99992255Y-127328139D01*
X100820395Y-126500000D01*
X101179605Y-126500000D01*
X102007745Y-127328139D01*
X102253864Y-127254005D01*
X102446965Y-126716777D01*
X102419778Y-126146546D01*
X102253864Y-125745995D01*
X102007745Y-125671861D01*
X101179605Y-126500000D01*
X100820395Y-126500000D01*
X99992255Y-125671861D01*
X99746136Y-125745995D01*
X99553035Y-126283223D01*
X71534803Y-126283223D01*
X70743835Y-125492255D01*
X100171861Y-125492255D01*
X101000000Y-126320395D01*
X101828139Y-125492255D01*
X101754005Y-125246136D01*
X101216777Y-125053035D01*
X100646546Y-125080222D01*
X100245995Y-125246136D01*
X100171861Y-125492255D01*
X70743835Y-125492255D01*
X66460619Y-121209039D01*
X113608096Y-121209039D01*
X113768959Y-121597423D01*
X114144866Y-122012389D01*
X114650959Y-122251914D01*
X114873000Y-122130629D01*
X114873000Y-120987000D01*
X115127000Y-120987000D01*
X115127000Y-122130629D01*
X115349041Y-122251914D01*
X115855134Y-122012389D01*
X116231041Y-121597423D01*
X116391904Y-121209039D01*
X116269915Y-120987000D01*
X115127000Y-120987000D01*
X114873000Y-120987000D01*
X113730085Y-120987000D01*
X113608096Y-121209039D01*
X66460619Y-121209039D01*
X59934840Y-114683260D01*
X59934999Y-114500000D01*
X67196887Y-114500000D01*
X67306120Y-115049151D01*
X67617189Y-115514698D01*
X68082736Y-115825767D01*
X68631887Y-115935000D01*
X68688113Y-115935000D01*
X69237264Y-115825767D01*
X69702811Y-115514698D01*
X69872995Y-115260000D01*
X72113154Y-115260000D01*
X72157932Y-115368371D01*
X72589357Y-115800551D01*
X73153330Y-116034733D01*
X73763991Y-116035265D01*
X74328371Y-115802068D01*
X74496613Y-115634120D01*
X74496838Y-115635317D01*
X74635910Y-115851441D01*
X74848110Y-115996431D01*
X75100000Y-116047440D01*
X76900000Y-116047440D01*
X77135317Y-116003162D01*
X77351441Y-115864090D01*
X77496431Y-115651890D01*
X77547440Y-115400000D01*
X77547440Y-113600000D01*
X77503162Y-113364683D01*
X77364090Y-113148559D01*
X77151890Y-113003569D01*
X76900000Y-112952560D01*
X75100000Y-112952560D01*
X74864683Y-112996838D01*
X74648559Y-113135910D01*
X74503569Y-113348110D01*
X74499433Y-113368534D01*
X74330643Y-113199449D01*
X73766670Y-112965267D01*
X73156009Y-112964735D01*
X72591629Y-113197932D01*
X72159449Y-113629357D01*
X72113506Y-113740000D01*
X69872995Y-113740000D01*
X69702811Y-113485302D01*
X69237264Y-113174233D01*
X68688113Y-113065000D01*
X68631887Y-113065000D01*
X68082736Y-113174233D01*
X67617189Y-113485302D01*
X67306120Y-113950849D01*
X67196887Y-114500000D01*
X59934999Y-114500000D01*
X59935248Y-114215813D01*
X59717243Y-113688200D01*
X59313923Y-113284176D01*
X58786691Y-113065250D01*
X58215813Y-113064752D01*
X57688200Y-113282757D01*
X57284176Y-113686077D01*
X57065250Y-114213309D01*
X57064752Y-114784187D01*
X50710000Y-114784187D01*
X50710000Y-105284187D01*
X57064752Y-105284187D01*
X57282757Y-105811800D01*
X57686077Y-106215824D01*
X58213309Y-106434750D01*
X58784187Y-106435248D01*
X59311800Y-106217243D01*
X59715824Y-105813923D01*
X59934750Y-105286691D01*
X59935000Y-105000000D01*
X67196887Y-105000000D01*
X67306120Y-105549151D01*
X67617189Y-106014698D01*
X68082736Y-106325767D01*
X68631887Y-106435000D01*
X68688113Y-106435000D01*
X69237264Y-106325767D01*
X69702811Y-106014698D01*
X69872995Y-105760000D01*
X72113154Y-105760000D01*
X72157932Y-105868371D01*
X72589357Y-106300551D01*
X73153330Y-106534733D01*
X73763991Y-106535265D01*
X74328371Y-106302068D01*
X74496613Y-106134120D01*
X74496838Y-106135317D01*
X74635910Y-106351441D01*
X74848110Y-106496431D01*
X75100000Y-106547440D01*
X76900000Y-106547440D01*
X77135317Y-106503162D01*
X77351441Y-106364090D01*
X77496431Y-106151890D01*
X77547440Y-105900000D01*
X77547440Y-104100000D01*
X77503162Y-103864683D01*
X77364090Y-103648559D01*
X77151890Y-103503569D01*
X76900000Y-103452560D01*
X75100000Y-103452560D01*
X74864683Y-103496838D01*
X74648559Y-103635910D01*
X74503569Y-103848110D01*
X74499433Y-103868534D01*
X74330643Y-103699449D01*
X73766670Y-103465267D01*
X73156009Y-103464735D01*
X72591629Y-103697932D01*
X72159449Y-104129357D01*
X72113506Y-104240000D01*
X69872995Y-104240000D01*
X69702811Y-103985302D01*
X69237264Y-103674233D01*
X68688113Y-103565000D01*
X68631887Y-103565000D01*
X68082736Y-103674233D01*
X67617189Y-103985302D01*
X67306120Y-104450849D01*
X67196887Y-105000000D01*
X59935000Y-105000000D01*
X59935248Y-104715813D01*
X59717243Y-104188200D01*
X59313923Y-103784176D01*
X58786691Y-103565250D01*
X58215813Y-103564752D01*
X57688200Y-103782757D01*
X57284176Y-104186077D01*
X57065250Y-104713309D01*
X57064752Y-105284187D01*
X50710000Y-105284187D01*
X50710000Y-95784187D01*
X57064752Y-95784187D01*
X57282757Y-96311800D01*
X57686077Y-96715824D01*
X58213309Y-96934750D01*
X58784187Y-96935248D01*
X59311800Y-96717243D01*
X59715824Y-96313923D01*
X59934750Y-95786691D01*
X59935248Y-95215813D01*
X59717243Y-94688200D01*
X59313923Y-94284176D01*
X58786691Y-94065250D01*
X58215813Y-94064752D01*
X57688200Y-94282757D01*
X57284176Y-94686077D01*
X57065250Y-95213309D01*
X57064752Y-95784187D01*
X50710000Y-95784187D01*
X50710000Y-86284187D01*
X57064752Y-86284187D01*
X57282757Y-86811800D01*
X57686077Y-87215824D01*
X58213309Y-87434750D01*
X58784187Y-87435248D01*
X59311800Y-87217243D01*
X59715824Y-86813923D01*
X59934750Y-86286691D01*
X59935000Y-86000000D01*
X67196887Y-86000000D01*
X67306120Y-86549151D01*
X67617189Y-87014698D01*
X68082736Y-87325767D01*
X68631887Y-87435000D01*
X68688113Y-87435000D01*
X69237264Y-87325767D01*
X69702811Y-87014698D01*
X69872995Y-86760000D01*
X72113154Y-86760000D01*
X72157932Y-86868371D01*
X72589357Y-87300551D01*
X73153330Y-87534733D01*
X73763991Y-87535265D01*
X74328371Y-87302068D01*
X74496613Y-87134120D01*
X74496838Y-87135317D01*
X74635910Y-87351441D01*
X74848110Y-87496431D01*
X75100000Y-87547440D01*
X76900000Y-87547440D01*
X77135317Y-87503162D01*
X77351441Y-87364090D01*
X77417665Y-87267167D01*
X78067899Y-87917401D01*
X78314461Y-88082148D01*
X78605300Y-88140000D01*
X83667005Y-88140000D01*
X83837189Y-88394698D01*
X84219275Y-88650000D01*
X83837189Y-88905302D01*
X83667005Y-89160000D01*
X82805300Y-89160000D01*
X82514461Y-89217852D01*
X82267899Y-89382599D01*
X77418063Y-94232435D01*
X77364090Y-94148559D01*
X77151890Y-94003569D01*
X76900000Y-93952560D01*
X75100000Y-93952560D01*
X74864683Y-93996838D01*
X74648559Y-94135910D01*
X74503569Y-94348110D01*
X74499433Y-94368534D01*
X74330643Y-94199449D01*
X73766670Y-93965267D01*
X73156009Y-93964735D01*
X72591629Y-94197932D01*
X72159449Y-94629357D01*
X72113506Y-94740000D01*
X69872995Y-94740000D01*
X69702811Y-94485302D01*
X69237264Y-94174233D01*
X68688113Y-94065000D01*
X68631887Y-94065000D01*
X68082736Y-94174233D01*
X67617189Y-94485302D01*
X67306120Y-94950849D01*
X67196887Y-95500000D01*
X67306120Y-96049151D01*
X67617189Y-96514698D01*
X68082736Y-96825767D01*
X68631887Y-96935000D01*
X68688113Y-96935000D01*
X69237264Y-96825767D01*
X69702811Y-96514698D01*
X69872995Y-96260000D01*
X72113154Y-96260000D01*
X72157932Y-96368371D01*
X72589357Y-96800551D01*
X73153330Y-97034733D01*
X73763991Y-97035265D01*
X74328371Y-96802068D01*
X74496613Y-96634120D01*
X74496838Y-96635317D01*
X74635910Y-96851441D01*
X74848110Y-96996431D01*
X75100000Y-97047440D01*
X76900000Y-97047440D01*
X77135317Y-97003162D01*
X77351441Y-96864090D01*
X77496431Y-96651890D01*
X77547440Y-96400000D01*
X77547440Y-96181233D01*
X77762701Y-96037401D01*
X83120102Y-90680000D01*
X83667005Y-90680000D01*
X83837189Y-90934698D01*
X84219275Y-91190000D01*
X83837189Y-91445302D01*
X83526120Y-91910849D01*
X83416887Y-92460000D01*
X83526120Y-93009151D01*
X83837189Y-93474698D01*
X84219275Y-93730000D01*
X83837189Y-93985302D01*
X83526120Y-94450849D01*
X83416887Y-95000000D01*
X83526120Y-95549151D01*
X83837189Y-96014698D01*
X84302736Y-96325767D01*
X84851887Y-96435000D01*
X84908113Y-96435000D01*
X85457264Y-96325767D01*
X85922811Y-96014698D01*
X86233880Y-95549151D01*
X86343113Y-95000000D01*
X86233880Y-94450849D01*
X85922811Y-93985302D01*
X85540725Y-93730000D01*
X85922811Y-93474698D01*
X86233880Y-93009151D01*
X86343113Y-92460000D01*
X86233880Y-91910849D01*
X85922811Y-91445302D01*
X85540725Y-91190000D01*
X85922811Y-90934698D01*
X86233880Y-90469151D01*
X86343113Y-89920000D01*
X86233880Y-89370849D01*
X85922811Y-88905302D01*
X85540725Y-88650000D01*
X85922811Y-88394698D01*
X86233880Y-87929151D01*
X86343113Y-87380000D01*
X86233880Y-86830849D01*
X85922811Y-86365302D01*
X85540725Y-86110000D01*
X85922811Y-85854698D01*
X86233880Y-85389151D01*
X86343113Y-84840000D01*
X86233880Y-84290849D01*
X85922811Y-83825302D01*
X85540725Y-83570000D01*
X85922811Y-83314698D01*
X86233880Y-82849151D01*
X86343113Y-82300000D01*
X86233880Y-81750849D01*
X85922811Y-81285302D01*
X85540725Y-81030000D01*
X85922811Y-80774698D01*
X86233880Y-80309151D01*
X86343113Y-79760000D01*
X86233880Y-79210849D01*
X85922811Y-78745302D01*
X85540725Y-78490000D01*
X85922811Y-78234698D01*
X86233880Y-77769151D01*
X86343113Y-77220000D01*
X86233880Y-76670849D01*
X85922811Y-76205302D01*
X85540725Y-75950000D01*
X85922811Y-75694698D01*
X86233880Y-75229151D01*
X86273684Y-75029039D01*
X91108096Y-75029039D01*
X91268959Y-75417423D01*
X91644866Y-75832389D01*
X91893367Y-75950000D01*
X91644866Y-76067611D01*
X91268959Y-76482577D01*
X91108096Y-76870961D01*
X91230085Y-77093000D01*
X92373000Y-77093000D01*
X92373000Y-74807000D01*
X92627000Y-74807000D01*
X92627000Y-77093000D01*
X93769915Y-77093000D01*
X93891904Y-76870961D01*
X93731041Y-76482577D01*
X93355134Y-76067611D01*
X93106633Y-75950000D01*
X93355134Y-75832389D01*
X93731041Y-75417423D01*
X93891904Y-75029039D01*
X93769915Y-74807000D01*
X92627000Y-74807000D01*
X92373000Y-74807000D01*
X91230085Y-74807000D01*
X91108096Y-75029039D01*
X86273684Y-75029039D01*
X86343113Y-74680000D01*
X86273685Y-74330961D01*
X91108096Y-74330961D01*
X91230085Y-74553000D01*
X92373000Y-74553000D01*
X92373000Y-73409371D01*
X92627000Y-73409371D01*
X92627000Y-74553000D01*
X93769915Y-74553000D01*
X93891904Y-74330961D01*
X93731041Y-73942577D01*
X93355134Y-73527611D01*
X92849041Y-73288086D01*
X92627000Y-73409371D01*
X92373000Y-73409371D01*
X92150959Y-73288086D01*
X91644866Y-73527611D01*
X91268959Y-73942577D01*
X91108096Y-74330961D01*
X86273685Y-74330961D01*
X86233880Y-74130849D01*
X85922811Y-73665302D01*
X85457264Y-73354233D01*
X84908113Y-73245000D01*
X84851887Y-73245000D01*
X84302736Y-73354233D01*
X83837189Y-73665302D01*
X83526120Y-74130849D01*
X83416887Y-74680000D01*
X83526120Y-75229151D01*
X83837189Y-75694698D01*
X84219275Y-75950000D01*
X83837189Y-76205302D01*
X83526120Y-76670849D01*
X83416887Y-77220000D01*
X83526120Y-77769151D01*
X83837189Y-78234698D01*
X84219275Y-78490000D01*
X83837189Y-78745302D01*
X83526120Y-79210849D01*
X83416887Y-79760000D01*
X83526120Y-80309151D01*
X83837189Y-80774698D01*
X84219275Y-81030000D01*
X83837189Y-81285302D01*
X83526120Y-81750849D01*
X83416887Y-82300000D01*
X83526120Y-82849151D01*
X83837189Y-83314698D01*
X84219275Y-83570000D01*
X83837189Y-83825302D01*
X83526120Y-84290849D01*
X83416887Y-84840000D01*
X83526120Y-85389151D01*
X83837189Y-85854698D01*
X84219275Y-86110000D01*
X83837189Y-86365302D01*
X83667005Y-86620000D01*
X78920102Y-86620000D01*
X77762701Y-85462599D01*
X77547440Y-85318767D01*
X77547440Y-85100000D01*
X77503162Y-84864683D01*
X77364090Y-84648559D01*
X77151890Y-84503569D01*
X76900000Y-84452560D01*
X75100000Y-84452560D01*
X74864683Y-84496838D01*
X74648559Y-84635910D01*
X74503569Y-84848110D01*
X74499433Y-84868534D01*
X74330643Y-84699449D01*
X73766670Y-84465267D01*
X73156009Y-84464735D01*
X72591629Y-84697932D01*
X72159449Y-85129357D01*
X72113506Y-85240000D01*
X69872995Y-85240000D01*
X69702811Y-84985302D01*
X69237264Y-84674233D01*
X68688113Y-84565000D01*
X68631887Y-84565000D01*
X68082736Y-84674233D01*
X67617189Y-84985302D01*
X67306120Y-85450849D01*
X67196887Y-86000000D01*
X59935000Y-86000000D01*
X59935248Y-85715813D01*
X59717243Y-85188200D01*
X59313923Y-84784176D01*
X58786691Y-84565250D01*
X58215813Y-84564752D01*
X57688200Y-84782757D01*
X57284176Y-85186077D01*
X57065250Y-85713309D01*
X57064752Y-86284187D01*
X50710000Y-86284187D01*
X50710000Y-76784187D01*
X57064752Y-76784187D01*
X57282757Y-77311800D01*
X57686077Y-77715824D01*
X58213309Y-77934750D01*
X58784187Y-77935248D01*
X59311800Y-77717243D01*
X59715824Y-77313923D01*
X59934750Y-76786691D01*
X59935000Y-76500000D01*
X67196887Y-76500000D01*
X67306120Y-77049151D01*
X67617189Y-77514698D01*
X68082736Y-77825767D01*
X68631887Y-77935000D01*
X68688113Y-77935000D01*
X69237264Y-77825767D01*
X69702811Y-77514698D01*
X69872995Y-77260000D01*
X72113154Y-77260000D01*
X72157932Y-77368371D01*
X72589357Y-77800551D01*
X73153330Y-78034733D01*
X73763991Y-78035265D01*
X74328371Y-77802068D01*
X74496613Y-77634120D01*
X74496838Y-77635317D01*
X74635910Y-77851441D01*
X74848110Y-77996431D01*
X75100000Y-78047440D01*
X76900000Y-78047440D01*
X77135317Y-78003162D01*
X77351441Y-77864090D01*
X77496431Y-77651890D01*
X77547440Y-77400000D01*
X77547440Y-75600000D01*
X77503162Y-75364683D01*
X77364090Y-75148559D01*
X77151890Y-75003569D01*
X76900000Y-74952560D01*
X75100000Y-74952560D01*
X74864683Y-74996838D01*
X74648559Y-75135910D01*
X74503569Y-75348110D01*
X74499433Y-75368534D01*
X74330643Y-75199449D01*
X73766670Y-74965267D01*
X73156009Y-74964735D01*
X72591629Y-75197932D01*
X72159449Y-75629357D01*
X72113506Y-75740000D01*
X69872995Y-75740000D01*
X69702811Y-75485302D01*
X69237264Y-75174233D01*
X68688113Y-75065000D01*
X68631887Y-75065000D01*
X68082736Y-75174233D01*
X67617189Y-75485302D01*
X67306120Y-75950849D01*
X67196887Y-76500000D01*
X59935000Y-76500000D01*
X59935248Y-76215813D01*
X59717243Y-75688200D01*
X59313923Y-75284176D01*
X58786691Y-75065250D01*
X58215813Y-75064752D01*
X57688200Y-75282757D01*
X57284176Y-75686077D01*
X57065250Y-76213309D01*
X57064752Y-76784187D01*
X50710000Y-76784187D01*
X50710000Y-57784187D01*
X57064752Y-57784187D01*
X57282757Y-58311800D01*
X57615000Y-58644623D01*
X57615000Y-65855829D01*
X57284176Y-66186077D01*
X57065250Y-66713309D01*
X57064752Y-67284187D01*
X57282757Y-67811800D01*
X57686077Y-68215824D01*
X58213309Y-68434750D01*
X58784187Y-68435248D01*
X59311800Y-68217243D01*
X59715824Y-67813923D01*
X59934750Y-67286691D01*
X59935000Y-67000000D01*
X67196887Y-67000000D01*
X67306120Y-67549151D01*
X67617189Y-68014698D01*
X68082736Y-68325767D01*
X68631887Y-68435000D01*
X68688113Y-68435000D01*
X69237264Y-68325767D01*
X69702811Y-68014698D01*
X69872995Y-67760000D01*
X72113154Y-67760000D01*
X72157932Y-67868371D01*
X72589357Y-68300551D01*
X73153330Y-68534733D01*
X73763991Y-68535265D01*
X74328371Y-68302068D01*
X74496613Y-68134120D01*
X74496838Y-68135317D01*
X74635910Y-68351441D01*
X74848110Y-68496431D01*
X75100000Y-68547440D01*
X76900000Y-68547440D01*
X77135317Y-68503162D01*
X77351441Y-68364090D01*
X77496431Y-68151890D01*
X77547440Y-67900000D01*
X77547440Y-66100000D01*
X77503162Y-65864683D01*
X77364090Y-65648559D01*
X77151890Y-65503569D01*
X76900000Y-65452560D01*
X75100000Y-65452560D01*
X74864683Y-65496838D01*
X74648559Y-65635910D01*
X74503569Y-65848110D01*
X74499433Y-65868534D01*
X74330643Y-65699449D01*
X73766670Y-65465267D01*
X73156009Y-65464735D01*
X72591629Y-65697932D01*
X72159449Y-66129357D01*
X72113506Y-66240000D01*
X69872995Y-66240000D01*
X69702811Y-65985302D01*
X69237264Y-65674233D01*
X68688113Y-65565000D01*
X68631887Y-65565000D01*
X68082736Y-65674233D01*
X67617189Y-65985302D01*
X67306120Y-66450849D01*
X67196887Y-67000000D01*
X59935000Y-67000000D01*
X59935248Y-66715813D01*
X59717243Y-66188200D01*
X59385000Y-65855377D01*
X59385000Y-58644171D01*
X59715824Y-58313923D01*
X59934750Y-57786691D01*
X59935000Y-57500000D01*
X67196887Y-57500000D01*
X67306120Y-58049151D01*
X67617189Y-58514698D01*
X68082736Y-58825767D01*
X68631887Y-58935000D01*
X68688113Y-58935000D01*
X69237264Y-58825767D01*
X69702811Y-58514698D01*
X69872995Y-58260000D01*
X72113154Y-58260000D01*
X72157932Y-58368371D01*
X72589357Y-58800551D01*
X73153330Y-59034733D01*
X73763991Y-59035265D01*
X74328371Y-58802068D01*
X74496613Y-58634120D01*
X74496838Y-58635317D01*
X74635910Y-58851441D01*
X74848110Y-58996431D01*
X75100000Y-59047440D01*
X76900000Y-59047440D01*
X77135317Y-59003162D01*
X77351441Y-58864090D01*
X77496431Y-58651890D01*
X77547440Y-58400000D01*
X77547440Y-56600000D01*
X77503162Y-56364683D01*
X77364090Y-56148559D01*
X77151890Y-56003569D01*
X76900000Y-55952560D01*
X75100000Y-55952560D01*
X74864683Y-55996838D01*
X74648559Y-56135910D01*
X74503569Y-56348110D01*
X74499433Y-56368534D01*
X74330643Y-56199449D01*
X73766670Y-55965267D01*
X73156009Y-55964735D01*
X72591629Y-56197932D01*
X72159449Y-56629357D01*
X72113506Y-56740000D01*
X69872995Y-56740000D01*
X69702811Y-56485302D01*
X69237264Y-56174233D01*
X68688113Y-56065000D01*
X68631887Y-56065000D01*
X68082736Y-56174233D01*
X67617189Y-56485302D01*
X67306120Y-56950849D01*
X67196887Y-57500000D01*
X59935000Y-57500000D01*
X59935248Y-57215813D01*
X59717243Y-56688200D01*
X59313923Y-56284176D01*
X58786691Y-56065250D01*
X58215813Y-56064752D01*
X57688200Y-56282757D01*
X57284176Y-56686077D01*
X57065250Y-57213309D01*
X57064752Y-57784187D01*
X50710000Y-57784187D01*
X50710000Y-37507745D01*
X119671861Y-37507745D01*
X119745995Y-37753864D01*
X120283223Y-37946965D01*
X120853454Y-37919778D01*
X121254005Y-37753864D01*
X121328139Y-37507745D01*
X120500000Y-36679605D01*
X119671861Y-37507745D01*
X50710000Y-37507745D01*
X50710000Y-35442619D01*
X52764613Y-35442619D01*
X53104155Y-36264372D01*
X53732321Y-36893636D01*
X54553481Y-37234611D01*
X55442619Y-37235387D01*
X56264372Y-36895845D01*
X56878064Y-36283223D01*
X119053035Y-36283223D01*
X119080222Y-36853454D01*
X119246136Y-37254005D01*
X119492255Y-37328139D01*
X120320395Y-36500000D01*
X120679605Y-36500000D01*
X121507745Y-37328139D01*
X121753864Y-37254005D01*
X121946965Y-36716777D01*
X121919778Y-36146546D01*
X121753864Y-35745995D01*
X121507745Y-35671861D01*
X120679605Y-36500000D01*
X120320395Y-36500000D01*
X119492255Y-35671861D01*
X119246136Y-35745995D01*
X119053035Y-36283223D01*
X56878064Y-36283223D01*
X56893636Y-36267679D01*
X57215619Y-35492255D01*
X119671861Y-35492255D01*
X120500000Y-36320395D01*
X121328139Y-35492255D01*
X121254005Y-35246136D01*
X120716777Y-35053035D01*
X120146546Y-35080222D01*
X119745995Y-35246136D01*
X119671861Y-35492255D01*
X57215619Y-35492255D01*
X57234611Y-35446519D01*
X57235387Y-34557381D01*
X56895845Y-33735628D01*
X56267679Y-33106364D01*
X55446519Y-32765389D01*
X54557381Y-32764613D01*
X53735628Y-33104155D01*
X53106364Y-33732321D01*
X52765389Y-34553481D01*
X52764613Y-35442619D01*
X50710000Y-35442619D01*
X50710000Y-30710000D01*
X204290000Y-30710000D01*
X204290000Y-143290000D01*
X204290000Y-143290000D01*
G37*
X204290000Y-143290000D02*
X50710000Y-143290000D01*
X50710000Y-139442619D01*
X52764613Y-139442619D01*
X53104155Y-140264372D01*
X53732321Y-140893636D01*
X54553481Y-141234611D01*
X55442619Y-141235387D01*
X56264372Y-140895845D01*
X56893636Y-140267679D01*
X57234611Y-139446519D01*
X57235387Y-138557381D01*
X56895845Y-137735628D01*
X56267679Y-137106364D01*
X55446519Y-136765389D01*
X54557381Y-136764613D01*
X53735628Y-137104155D01*
X53106364Y-137732321D01*
X52765389Y-138553481D01*
X52764613Y-139442619D01*
X50710000Y-139442619D01*
X50710000Y-114784187D01*
X57064752Y-114784187D01*
X57282757Y-115311800D01*
X57686077Y-115715824D01*
X58213309Y-115934750D01*
X58683580Y-115935160D01*
X72374208Y-129625787D01*
X72374210Y-129625790D01*
X72661325Y-129817633D01*
X72717516Y-129828810D01*
X73000000Y-129885001D01*
X73000005Y-129885000D01*
X99568554Y-129885000D01*
X99596838Y-130035317D01*
X99735910Y-130251441D01*
X99948110Y-130396431D01*
X100115000Y-130430227D01*
X100115000Y-135270568D01*
X99949946Y-135380853D01*
X99628039Y-135862622D01*
X99515000Y-136430907D01*
X99515000Y-136489093D01*
X99628039Y-137057378D01*
X99949946Y-137539147D01*
X99951179Y-137539971D01*
X99914683Y-137546838D01*
X99698559Y-137685910D01*
X99553569Y-137898110D01*
X99502560Y-138150000D01*
X99502560Y-139850000D01*
X99546838Y-140085317D01*
X99685910Y-140301441D01*
X99898110Y-140446431D01*
X100150000Y-140497440D01*
X101850000Y-140497440D01*
X102085317Y-140453162D01*
X102301441Y-140314090D01*
X102446431Y-140101890D01*
X102460086Y-140034459D01*
X102489946Y-140079147D01*
X102971715Y-140401054D01*
X103540000Y-140514093D01*
X104108285Y-140401054D01*
X104590054Y-140079147D01*
X104810000Y-139749974D01*
X105029946Y-140079147D01*
X105511715Y-140401054D01*
X106080000Y-140514093D01*
X106648285Y-140401054D01*
X107130054Y-140079147D01*
X107350000Y-139749974D01*
X107569946Y-140079147D01*
X108051715Y-140401054D01*
X108620000Y-140514093D01*
X109188285Y-140401054D01*
X109670054Y-140079147D01*
X109890000Y-139749974D01*
X110109946Y-140079147D01*
X110591715Y-140401054D01*
X111160000Y-140514093D01*
X111728285Y-140401054D01*
X112078168Y-140167270D01*
X114082599Y-142171701D01*
X114329161Y-142336448D01*
X114620000Y-142394300D01*
X153194300Y-142394300D01*
X153485139Y-142336448D01*
X153731701Y-142171701D01*
X156460783Y-139442619D01*
X197764613Y-139442619D01*
X198104155Y-140264372D01*
X198732321Y-140893636D01*
X199553481Y-141234611D01*
X200442619Y-141235387D01*
X201264372Y-140895845D01*
X201893636Y-140267679D01*
X202234611Y-139446519D01*
X202235387Y-138557381D01*
X201895845Y-137735628D01*
X201267679Y-137106364D01*
X200446519Y-136765389D01*
X199557381Y-136764613D01*
X198735628Y-137104155D01*
X198106364Y-137732321D01*
X197765389Y-138553481D01*
X197764613Y-139442619D01*
X156460783Y-139442619D01*
X176373518Y-119529884D01*
X176577189Y-119834698D01*
X176959275Y-120090000D01*
X176577189Y-120345302D01*
X176266120Y-120810849D01*
X176156887Y-121360000D01*
X176266120Y-121909151D01*
X176577189Y-122374698D01*
X177042736Y-122685767D01*
X177591887Y-122795000D01*
X177648113Y-122795000D01*
X178197264Y-122685767D01*
X178662811Y-122374698D01*
X178973880Y-121909151D01*
X179083113Y-121360000D01*
X178973880Y-120810849D01*
X178662811Y-120345302D01*
X178280725Y-120090000D01*
X178662811Y-119834698D01*
X178973880Y-119369151D01*
X179083113Y-118820000D01*
X178973880Y-118270849D01*
X178702861Y-117865241D01*
X179283401Y-117284701D01*
X179448148Y-117038139D01*
X179506000Y-116747300D01*
X179506000Y-103010000D01*
X179477644Y-102867448D01*
X179448148Y-102719160D01*
X179283401Y-102472599D01*
X178743997Y-101933195D01*
X178973880Y-101589151D01*
X179083113Y-101040000D01*
X178973880Y-100490849D01*
X178662811Y-100025302D01*
X178280725Y-99770000D01*
X178662811Y-99514698D01*
X178973880Y-99049151D01*
X179083113Y-98500000D01*
X178973880Y-97950849D01*
X178662811Y-97485302D01*
X178505000Y-97379856D01*
X178505000Y-97249705D01*
X178505001Y-97249700D01*
X178437633Y-96911025D01*
X178397820Y-96851441D01*
X178245790Y-96623910D01*
X178245787Y-96623908D01*
X176903390Y-95281510D01*
X176885000Y-95269222D01*
X176885000Y-94644171D01*
X177215824Y-94313923D01*
X177434750Y-93786691D01*
X177435160Y-93316420D01*
X181582687Y-89168892D01*
X181582690Y-89168890D01*
X181774533Y-88881775D01*
X181841901Y-88543100D01*
X181841900Y-88543095D01*
X181841900Y-50007745D01*
X184671861Y-50007745D01*
X184745995Y-50253864D01*
X185283223Y-50446965D01*
X185853454Y-50419778D01*
X186254005Y-50253864D01*
X186328139Y-50007745D01*
X185500000Y-49179605D01*
X184671861Y-50007745D01*
X181841900Y-50007745D01*
X181841900Y-49460200D01*
X181774533Y-49121525D01*
X181582690Y-48834410D01*
X181582687Y-48834408D01*
X181531503Y-48783223D01*
X184053035Y-48783223D01*
X184080222Y-49353454D01*
X184246136Y-49754005D01*
X184492255Y-49828139D01*
X185320395Y-49000000D01*
X185679605Y-49000000D01*
X186507745Y-49828139D01*
X186753864Y-49754005D01*
X186946965Y-49216777D01*
X186919778Y-48646546D01*
X186753864Y-48245995D01*
X186507745Y-48171861D01*
X185679605Y-49000000D01*
X185320395Y-49000000D01*
X184492255Y-48171861D01*
X184246136Y-48245995D01*
X184053035Y-48783223D01*
X181531503Y-48783223D01*
X180740535Y-47992255D01*
X184671861Y-47992255D01*
X185500000Y-48820395D01*
X186328139Y-47992255D01*
X186254005Y-47746136D01*
X185716777Y-47553035D01*
X185146546Y-47580222D01*
X184745995Y-47746136D01*
X184671861Y-47992255D01*
X180740535Y-47992255D01*
X180491161Y-47742881D01*
X180593880Y-47589151D01*
X180703113Y-47040000D01*
X180593880Y-46490849D01*
X180282811Y-46025302D01*
X179900725Y-45770000D01*
X180282811Y-45514698D01*
X180369473Y-45385000D01*
X184999995Y-45385000D01*
X185000000Y-45385001D01*
X185063217Y-45372426D01*
X185213309Y-45434750D01*
X185784187Y-45435248D01*
X186311800Y-45217243D01*
X186715824Y-44813923D01*
X186934750Y-44286691D01*
X186935248Y-43715813D01*
X186717243Y-43188200D01*
X186313923Y-42784176D01*
X185786691Y-42565250D01*
X185215813Y-42564752D01*
X184688200Y-42782757D01*
X184284176Y-43186077D01*
X184106071Y-43615000D01*
X180369473Y-43615000D01*
X180282811Y-43485302D01*
X179817264Y-43174233D01*
X179268113Y-43065000D01*
X179211887Y-43065000D01*
X178662736Y-43174233D01*
X178214808Y-43473529D01*
X177302990Y-42561710D01*
X177232631Y-42514698D01*
X177015875Y-42369867D01*
X176959684Y-42358690D01*
X176677200Y-42302499D01*
X176677195Y-42302500D01*
X132408280Y-42302500D01*
X132230290Y-42124510D01*
X132096652Y-42035216D01*
X132203113Y-41500000D01*
X132093880Y-40950849D01*
X131782811Y-40485302D01*
X131317264Y-40174233D01*
X130768113Y-40065000D01*
X130711887Y-40065000D01*
X130304057Y-40146122D01*
X130115490Y-39863910D01*
X130115487Y-39863908D01*
X126934840Y-36683260D01*
X126935248Y-36215813D01*
X126717243Y-35688200D01*
X126472090Y-35442619D01*
X197764613Y-35442619D01*
X198104155Y-36264372D01*
X198732321Y-36893636D01*
X199553481Y-37234611D01*
X200442619Y-37235387D01*
X201264372Y-36895845D01*
X201893636Y-36267679D01*
X202234611Y-35446519D01*
X202235387Y-34557381D01*
X201895845Y-33735628D01*
X201267679Y-33106364D01*
X200446519Y-32765389D01*
X199557381Y-32764613D01*
X198735628Y-33104155D01*
X198106364Y-33732321D01*
X197765389Y-34553481D01*
X197764613Y-35442619D01*
X126472090Y-35442619D01*
X126313923Y-35284176D01*
X125786691Y-35065250D01*
X125215813Y-35064752D01*
X124688200Y-35282757D01*
X124284176Y-35686077D01*
X124065250Y-36213309D01*
X124064752Y-36784187D01*
X124282757Y-37311800D01*
X124686077Y-37715824D01*
X125213309Y-37934750D01*
X125683580Y-37935160D01*
X128604700Y-40856279D01*
X128604700Y-41500000D01*
X128672067Y-41838675D01*
X128863910Y-42125790D01*
X129151025Y-42317633D01*
X129489700Y-42385000D01*
X129610527Y-42385000D01*
X129697189Y-42514698D01*
X129855000Y-42620144D01*
X129855000Y-42750300D01*
X129884770Y-42899964D01*
X129697189Y-43025302D01*
X129386120Y-43490849D01*
X129276887Y-44040000D01*
X129386120Y-44589151D01*
X129697189Y-45054698D01*
X129884770Y-45180036D01*
X129855000Y-45329700D01*
X129855000Y-45459856D01*
X129697189Y-45565302D01*
X129386120Y-46030849D01*
X129276887Y-46580000D01*
X129386120Y-47129151D01*
X129455443Y-47232900D01*
X128280700Y-47232900D01*
X127989861Y-47290752D01*
X127743299Y-47455499D01*
X124298798Y-50900000D01*
X116712995Y-50900000D01*
X116542811Y-50645302D01*
X116160725Y-50390000D01*
X116542811Y-50134698D01*
X116853880Y-49669151D01*
X116963113Y-49120000D01*
X116853880Y-48570849D01*
X116542811Y-48105302D01*
X116160725Y-47850000D01*
X116542811Y-47594698D01*
X116853880Y-47129151D01*
X116963113Y-46580000D01*
X116853880Y-46030849D01*
X116542811Y-45565302D01*
X116160725Y-45310000D01*
X116542811Y-45054698D01*
X116853880Y-44589151D01*
X116963113Y-44040000D01*
X116853880Y-43490849D01*
X116542811Y-43025302D01*
X116398535Y-42928899D01*
X116535317Y-42903162D01*
X116751441Y-42764090D01*
X116896431Y-42551890D01*
X116947440Y-42300000D01*
X116947440Y-40700000D01*
X116903162Y-40464683D01*
X116764090Y-40248559D01*
X116551890Y-40103569D01*
X116300000Y-40052560D01*
X114700000Y-40052560D01*
X114464683Y-40096838D01*
X114248559Y-40235910D01*
X114103569Y-40448110D01*
X114052560Y-40700000D01*
X114052560Y-42300000D01*
X114096838Y-42535317D01*
X114235910Y-42751441D01*
X114448110Y-42896431D01*
X114603089Y-42927815D01*
X114457189Y-43025302D01*
X114146120Y-43490849D01*
X114036887Y-44040000D01*
X114146120Y-44589151D01*
X114457189Y-45054698D01*
X114839275Y-45310000D01*
X114457189Y-45565302D01*
X114146120Y-46030849D01*
X114036887Y-46580000D01*
X114146120Y-47129151D01*
X114457189Y-47594698D01*
X114839275Y-47850000D01*
X114457189Y-48105302D01*
X114146120Y-48570849D01*
X114036887Y-49120000D01*
X114146120Y-49669151D01*
X114457189Y-50134698D01*
X114839275Y-50390000D01*
X114457189Y-50645302D01*
X114146120Y-51110849D01*
X114036887Y-51660000D01*
X114146120Y-52209151D01*
X114457189Y-52674698D01*
X114839275Y-52930000D01*
X114457189Y-53185302D01*
X114146120Y-53650849D01*
X114036887Y-54200000D01*
X114146120Y-54749151D01*
X114457189Y-55214698D01*
X114839275Y-55470000D01*
X114457189Y-55725302D01*
X114146120Y-56190849D01*
X114036887Y-56740000D01*
X114146120Y-57289151D01*
X114457189Y-57754698D01*
X114839275Y-58010000D01*
X114457189Y-58265302D01*
X114146120Y-58730849D01*
X114036887Y-59280000D01*
X114146120Y-59829151D01*
X114457189Y-60294698D01*
X114839275Y-60550000D01*
X114457189Y-60805302D01*
X114146120Y-61270849D01*
X114036887Y-61820000D01*
X114146120Y-62369151D01*
X114457189Y-62834698D01*
X114839275Y-63090000D01*
X114457189Y-63345302D01*
X114146120Y-63810849D01*
X114036887Y-64360000D01*
X114146120Y-64909151D01*
X114457189Y-65374698D01*
X114839275Y-65630000D01*
X114457189Y-65885302D01*
X114146120Y-66350849D01*
X114036887Y-66900000D01*
X114146120Y-67449151D01*
X114457189Y-67914698D01*
X114839275Y-68170000D01*
X114457189Y-68425302D01*
X114146120Y-68890849D01*
X114036887Y-69440000D01*
X114146120Y-69989151D01*
X114457189Y-70454698D01*
X114839275Y-70710000D01*
X114457189Y-70965302D01*
X114146120Y-71430849D01*
X114036887Y-71980000D01*
X114146120Y-72529151D01*
X114457189Y-72994698D01*
X114839275Y-73250000D01*
X114457189Y-73505302D01*
X114146120Y-73970849D01*
X114036887Y-74520000D01*
X114146120Y-75069151D01*
X114457189Y-75534698D01*
X114839275Y-75790000D01*
X114457189Y-76045302D01*
X114146120Y-76510849D01*
X114036887Y-77060000D01*
X114146120Y-77609151D01*
X114457189Y-78074698D01*
X114861703Y-78344986D01*
X114644866Y-78447611D01*
X114268959Y-78862577D01*
X114108096Y-79250961D01*
X114230085Y-79473000D01*
X115373000Y-79473000D01*
X115373000Y-79453000D01*
X115627000Y-79453000D01*
X115627000Y-79473000D01*
X116769915Y-79473000D01*
X116891904Y-79250961D01*
X116731041Y-78862577D01*
X116355134Y-78447611D01*
X116138297Y-78344986D01*
X116542811Y-78074698D01*
X116726437Y-77799882D01*
X116916139Y-77762148D01*
X117162701Y-77597401D01*
X118172702Y-76587400D01*
X129370893Y-76587400D01*
X129276887Y-77060000D01*
X129386120Y-77609151D01*
X129697189Y-78074698D01*
X130079275Y-78330000D01*
X129697189Y-78585302D01*
X129386120Y-79050849D01*
X129276887Y-79600000D01*
X129386120Y-80149151D01*
X129697189Y-80614698D01*
X129744313Y-80646185D01*
X119293399Y-91097099D01*
X119128652Y-91343661D01*
X119070800Y-91634500D01*
X119070800Y-94250100D01*
X119128652Y-94540939D01*
X119293399Y-94787501D01*
X119306878Y-94800980D01*
X119306838Y-94846467D01*
X119448883Y-95190243D01*
X119711673Y-95453492D01*
X120055201Y-95596138D01*
X120357907Y-95596402D01*
X120431800Y-95611100D01*
X149970198Y-95611100D01*
X149475620Y-96105678D01*
X149430133Y-96105638D01*
X149086357Y-96247683D01*
X148823108Y-96510473D01*
X148788843Y-96592993D01*
X148648113Y-96565000D01*
X148591887Y-96565000D01*
X148042736Y-96674233D01*
X147594808Y-96973529D01*
X146745090Y-96123810D01*
X146718378Y-96105962D01*
X146457975Y-95931967D01*
X146401784Y-95920790D01*
X146119300Y-95864599D01*
X146119295Y-95864600D01*
X125120705Y-95864600D01*
X125120700Y-95864599D01*
X124838216Y-95920790D01*
X124782025Y-95931967D01*
X124494910Y-96123810D01*
X124494908Y-96123813D01*
X123645191Y-96973529D01*
X123197264Y-96674233D01*
X122648113Y-96565000D01*
X122591887Y-96565000D01*
X122042736Y-96674233D01*
X121577189Y-96985302D01*
X121490527Y-97115000D01*
X121366579Y-97115000D01*
X117434840Y-93183260D01*
X117435248Y-92715813D01*
X117217243Y-92188200D01*
X116813923Y-91784176D01*
X116286691Y-91565250D01*
X115715813Y-91564752D01*
X115188200Y-91782757D01*
X114784176Y-92186077D01*
X114565250Y-92713309D01*
X114564752Y-93284187D01*
X114782757Y-93811800D01*
X115186077Y-94215824D01*
X115713309Y-94434750D01*
X116183580Y-94435160D01*
X120374208Y-98625787D01*
X120374210Y-98625790D01*
X120661325Y-98817633D01*
X120717516Y-98828810D01*
X121000000Y-98885001D01*
X121000005Y-98885000D01*
X121490527Y-98885000D01*
X121577189Y-99014698D01*
X121959275Y-99270000D01*
X121577189Y-99525302D01*
X121266120Y-99990849D01*
X121156887Y-100540000D01*
X121266120Y-101089151D01*
X121577189Y-101554698D01*
X121981703Y-101824986D01*
X121764866Y-101927611D01*
X121388959Y-102342577D01*
X121228096Y-102730961D01*
X121350085Y-102953000D01*
X122493000Y-102953000D01*
X122493000Y-102933000D01*
X122747000Y-102933000D01*
X122747000Y-102953000D01*
X123889915Y-102953000D01*
X124011904Y-102730961D01*
X123851041Y-102342577D01*
X123475134Y-101927611D01*
X123258297Y-101824986D01*
X123662811Y-101554698D01*
X123973880Y-101089151D01*
X124083113Y-100540000D01*
X123973880Y-99990849D01*
X123662811Y-99525302D01*
X123280725Y-99270000D01*
X123662811Y-99014698D01*
X123749473Y-98885000D01*
X123870295Y-98885000D01*
X123870300Y-98885001D01*
X124152784Y-98828810D01*
X124208975Y-98817633D01*
X124496090Y-98625790D01*
X125487279Y-97634600D01*
X139552560Y-97634600D01*
X139552560Y-98800000D01*
X139596838Y-99035317D01*
X139672578Y-99153020D01*
X139320899Y-99504699D01*
X139156152Y-99751261D01*
X139098300Y-100042100D01*
X139098300Y-103563800D01*
X139156152Y-103854639D01*
X139320899Y-104101201D01*
X139904241Y-104684543D01*
X139646120Y-105070849D01*
X139536887Y-105620000D01*
X139609570Y-105985400D01*
X124010430Y-105985400D01*
X124083113Y-105620000D01*
X123973880Y-105070849D01*
X123662811Y-104605302D01*
X123258297Y-104335014D01*
X123475134Y-104232389D01*
X123851041Y-103817423D01*
X124011904Y-103429039D01*
X123889915Y-103207000D01*
X122747000Y-103207000D01*
X122747000Y-103227000D01*
X122493000Y-103227000D01*
X122493000Y-103207000D01*
X121350085Y-103207000D01*
X121228096Y-103429039D01*
X121388959Y-103817423D01*
X121764866Y-104232389D01*
X121981703Y-104335014D01*
X121577189Y-104605302D01*
X121339632Y-104960830D01*
X116876981Y-100498179D01*
X116827448Y-100249161D01*
X116662701Y-100002599D01*
X116416139Y-99837852D01*
X116226437Y-99800118D01*
X116042811Y-99525302D01*
X115898535Y-99428899D01*
X116035317Y-99403162D01*
X116251441Y-99264090D01*
X116396431Y-99051890D01*
X116447440Y-98800000D01*
X116447440Y-97200000D01*
X116403162Y-96964683D01*
X116264090Y-96748559D01*
X116051890Y-96603569D01*
X115800000Y-96552560D01*
X114200000Y-96552560D01*
X113964683Y-96596838D01*
X113748559Y-96735910D01*
X113603569Y-96948110D01*
X113552560Y-97200000D01*
X113552560Y-98800000D01*
X113596838Y-99035317D01*
X113735910Y-99251441D01*
X113948110Y-99396431D01*
X114103089Y-99427815D01*
X113957189Y-99525302D01*
X113948223Y-99538721D01*
X113787301Y-99377799D01*
X113540739Y-99213052D01*
X113249900Y-99155200D01*
X110189063Y-99155200D01*
X110156927Y-99123008D01*
X109813399Y-98980362D01*
X109441433Y-98980038D01*
X109097657Y-99122083D01*
X109060639Y-99159037D01*
X106277400Y-96375798D01*
X106277400Y-93650900D01*
X106219548Y-93360061D01*
X106054801Y-93113499D01*
X93612181Y-80670879D01*
X93853880Y-80309151D01*
X93925510Y-79949039D01*
X114108096Y-79949039D01*
X114268959Y-80337423D01*
X114644866Y-80752389D01*
X115150959Y-80991914D01*
X115373000Y-80870629D01*
X115373000Y-79727000D01*
X115627000Y-79727000D01*
X115627000Y-80870629D01*
X115849041Y-80991914D01*
X116355134Y-80752389D01*
X116731041Y-80337423D01*
X116891904Y-79949039D01*
X116769915Y-79727000D01*
X115627000Y-79727000D01*
X115373000Y-79727000D01*
X114230085Y-79727000D01*
X114108096Y-79949039D01*
X93925510Y-79949039D01*
X93963113Y-79760000D01*
X93853880Y-79210849D01*
X93542811Y-78745302D01*
X93138297Y-78475014D01*
X93355134Y-78372389D01*
X93731041Y-77957423D01*
X93891904Y-77569039D01*
X93769915Y-77347000D01*
X92627000Y-77347000D01*
X92627000Y-77367000D01*
X92373000Y-77367000D01*
X92373000Y-77347000D01*
X91230085Y-77347000D01*
X91108096Y-77569039D01*
X91268959Y-77957423D01*
X91644866Y-78372389D01*
X91861703Y-78475014D01*
X91457189Y-78745302D01*
X91146120Y-79210849D01*
X91036887Y-79760000D01*
X91146120Y-80309151D01*
X91457189Y-80774698D01*
X91757978Y-80975679D01*
X91777053Y-81071576D01*
X91457189Y-81285302D01*
X91146120Y-81750849D01*
X91036887Y-82300000D01*
X91146120Y-82849151D01*
X91457189Y-83314698D01*
X91757978Y-83515679D01*
X91777053Y-83611576D01*
X91457189Y-83825302D01*
X91146120Y-84290849D01*
X91036887Y-84840000D01*
X91146120Y-85389151D01*
X91457189Y-85854698D01*
X91757978Y-86055679D01*
X91777053Y-86151576D01*
X91457189Y-86365302D01*
X91146120Y-86830849D01*
X91036887Y-87380000D01*
X91146120Y-87929151D01*
X91457189Y-88394698D01*
X91757978Y-88595679D01*
X91777053Y-88691576D01*
X91457189Y-88905302D01*
X91146120Y-89370849D01*
X91036887Y-89920000D01*
X91146120Y-90469151D01*
X91457189Y-90934698D01*
X91839275Y-91190000D01*
X91457189Y-91445302D01*
X91146120Y-91910849D01*
X91036887Y-92460000D01*
X91146120Y-93009151D01*
X91457189Y-93474698D01*
X91601465Y-93571101D01*
X91464683Y-93596838D01*
X91248559Y-93735910D01*
X91103569Y-93948110D01*
X91052560Y-94200000D01*
X91052560Y-95800000D01*
X91096838Y-96035317D01*
X91235910Y-96251441D01*
X91448110Y-96396431D01*
X91700000Y-96447440D01*
X92865300Y-96447440D01*
X92865300Y-98070600D01*
X92923152Y-98361439D01*
X93087899Y-98608001D01*
X113337299Y-118857401D01*
X113583861Y-119022148D01*
X113773563Y-119059882D01*
X113957189Y-119334698D01*
X114361703Y-119604986D01*
X114144866Y-119707611D01*
X113768959Y-120122577D01*
X113608096Y-120510961D01*
X113730085Y-120733000D01*
X114873000Y-120733000D01*
X114873000Y-120713000D01*
X115127000Y-120713000D01*
X115127000Y-120733000D01*
X116269915Y-120733000D01*
X116391904Y-120510961D01*
X116231041Y-120122577D01*
X115855134Y-119707611D01*
X115638297Y-119604986D01*
X116042811Y-119334698D01*
X116051777Y-119321279D01*
X116713199Y-119982701D01*
X116959761Y-120147448D01*
X117250600Y-120205300D01*
X121336646Y-120205300D01*
X121266120Y-120310849D01*
X121156887Y-120860000D01*
X121266120Y-121409151D01*
X121577189Y-121874698D01*
X122042736Y-122185767D01*
X122591887Y-122295000D01*
X122648113Y-122295000D01*
X123197264Y-122185767D01*
X123662811Y-121874698D01*
X123671777Y-121861279D01*
X126873699Y-125063201D01*
X127120261Y-125227948D01*
X127411100Y-125285800D01*
X139734489Y-125285800D01*
X139608096Y-125590961D01*
X139730085Y-125813000D01*
X140873000Y-125813000D01*
X140873000Y-125793000D01*
X141127000Y-125793000D01*
X141127000Y-125813000D01*
X142269915Y-125813000D01*
X142391904Y-125590961D01*
X142265511Y-125285800D01*
X143203700Y-125285800D01*
X143494539Y-125227948D01*
X143741101Y-125063201D01*
X147317803Y-121486499D01*
X147577189Y-121874698D01*
X147959275Y-122130000D01*
X147577189Y-122385302D01*
X147266120Y-122850849D01*
X147156887Y-123400000D01*
X147266120Y-123949151D01*
X147577189Y-124414698D01*
X147959275Y-124670000D01*
X147577189Y-124925302D01*
X147266120Y-125390849D01*
X147156887Y-125940000D01*
X147266120Y-126489151D01*
X147577189Y-126954698D01*
X148042736Y-127265767D01*
X148591887Y-127375000D01*
X148648113Y-127375000D01*
X149193353Y-127266545D01*
X144936998Y-131522900D01*
X136521500Y-131522900D01*
X136230661Y-131580752D01*
X135984099Y-131745499D01*
X132421367Y-135308231D01*
X132048285Y-135058946D01*
X131480000Y-134945907D01*
X130911715Y-135058946D01*
X130429946Y-135380853D01*
X130210000Y-135710026D01*
X129990054Y-135380853D01*
X129508285Y-135058946D01*
X128940000Y-134945907D01*
X128371715Y-135058946D01*
X127889946Y-135380853D01*
X127662298Y-135721553D01*
X127595183Y-135578642D01*
X127166924Y-135188355D01*
X126756890Y-135018524D01*
X126527000Y-135139845D01*
X126527000Y-136333000D01*
X126547000Y-136333000D01*
X126547000Y-136587000D01*
X126527000Y-136587000D01*
X126527000Y-136607000D01*
X126273000Y-136607000D01*
X126273000Y-136587000D01*
X126253000Y-136587000D01*
X126253000Y-136333000D01*
X126273000Y-136333000D01*
X126273000Y-135139845D01*
X126043110Y-135018524D01*
X125633076Y-135188355D01*
X125204817Y-135578642D01*
X125137702Y-135721553D01*
X124910054Y-135380853D01*
X124428285Y-135058946D01*
X123860000Y-134945907D01*
X123291715Y-135058946D01*
X122809946Y-135380853D01*
X122590000Y-135710026D01*
X122370054Y-135380853D01*
X121888285Y-135058946D01*
X121320000Y-134945907D01*
X120751715Y-135058946D01*
X120269946Y-135380853D01*
X120050000Y-135710026D01*
X119830054Y-135380853D01*
X119348285Y-135058946D01*
X118780000Y-134945907D01*
X118211715Y-135058946D01*
X117729946Y-135380853D01*
X117510000Y-135710026D01*
X117290054Y-135380853D01*
X116808285Y-135058946D01*
X116240000Y-134945907D01*
X115671715Y-135058946D01*
X115189946Y-135380853D01*
X114970000Y-135710026D01*
X114750054Y-135380853D01*
X114268285Y-135058946D01*
X113700000Y-134945907D01*
X113284700Y-135028515D01*
X113284700Y-134168502D01*
X118856301Y-128596901D01*
X119021048Y-128350340D01*
X119078900Y-128059500D01*
X119078900Y-126715700D01*
X119021048Y-126424861D01*
X118930296Y-126289039D01*
X139608096Y-126289039D01*
X139768959Y-126677423D01*
X140144866Y-127092389D01*
X140650959Y-127331914D01*
X140873000Y-127210629D01*
X140873000Y-126067000D01*
X141127000Y-126067000D01*
X141127000Y-127210629D01*
X141349041Y-127331914D01*
X141855134Y-127092389D01*
X142231041Y-126677423D01*
X142391904Y-126289039D01*
X142269915Y-126067000D01*
X141127000Y-126067000D01*
X140873000Y-126067000D01*
X139730085Y-126067000D01*
X139608096Y-126289039D01*
X118930296Y-126289039D01*
X118906901Y-126254027D01*
X118906962Y-126183433D01*
X118764917Y-125839657D01*
X118502127Y-125576408D01*
X118158599Y-125433762D01*
X117786633Y-125433438D01*
X117442857Y-125575483D01*
X117179608Y-125838273D01*
X117036962Y-126181801D01*
X117036638Y-126553767D01*
X117178683Y-126897543D01*
X117252145Y-126971134D01*
X117164657Y-127007283D01*
X116901408Y-127270073D01*
X116758762Y-127613601D01*
X116758721Y-127660477D01*
X109431999Y-134987199D01*
X109323632Y-135149382D01*
X109188285Y-135058946D01*
X108620000Y-134945907D01*
X108051715Y-135058946D01*
X107569946Y-135380853D01*
X107350000Y-135710026D01*
X107130054Y-135380853D01*
X106648285Y-135058946D01*
X106080000Y-134945907D01*
X105511715Y-135058946D01*
X105029946Y-135380853D01*
X104810000Y-135710026D01*
X104590054Y-135380853D01*
X104108285Y-135058946D01*
X103540000Y-134945907D01*
X102971715Y-135058946D01*
X102489946Y-135380853D01*
X102270000Y-135710026D01*
X102050054Y-135380853D01*
X101885000Y-135270568D01*
X101885000Y-130431446D01*
X102035317Y-130403162D01*
X102251441Y-130264090D01*
X102396431Y-130051890D01*
X102447440Y-129800000D01*
X102447440Y-128200000D01*
X102403162Y-127964683D01*
X102264090Y-127748559D01*
X102051890Y-127603569D01*
X101813799Y-127555354D01*
X101828139Y-127507745D01*
X101000000Y-126679605D01*
X100171861Y-127507745D01*
X100186145Y-127555167D01*
X99964683Y-127596838D01*
X99748559Y-127735910D01*
X99603569Y-127948110D01*
X99569773Y-128115000D01*
X73366579Y-128115000D01*
X71534803Y-126283223D01*
X99553035Y-126283223D01*
X99580222Y-126853454D01*
X99746136Y-127254005D01*
X99992255Y-127328139D01*
X100820395Y-126500000D01*
X101179605Y-126500000D01*
X102007745Y-127328139D01*
X102253864Y-127254005D01*
X102446965Y-126716777D01*
X102419778Y-126146546D01*
X102253864Y-125745995D01*
X102007745Y-125671861D01*
X101179605Y-126500000D01*
X100820395Y-126500000D01*
X99992255Y-125671861D01*
X99746136Y-125745995D01*
X99553035Y-126283223D01*
X71534803Y-126283223D01*
X70743835Y-125492255D01*
X100171861Y-125492255D01*
X101000000Y-126320395D01*
X101828139Y-125492255D01*
X101754005Y-125246136D01*
X101216777Y-125053035D01*
X100646546Y-125080222D01*
X100245995Y-125246136D01*
X100171861Y-125492255D01*
X70743835Y-125492255D01*
X66460619Y-121209039D01*
X113608096Y-121209039D01*
X113768959Y-121597423D01*
X114144866Y-122012389D01*
X114650959Y-122251914D01*
X114873000Y-122130629D01*
X114873000Y-120987000D01*
X115127000Y-120987000D01*
X115127000Y-122130629D01*
X115349041Y-122251914D01*
X115855134Y-122012389D01*
X116231041Y-121597423D01*
X116391904Y-121209039D01*
X116269915Y-120987000D01*
X115127000Y-120987000D01*
X114873000Y-120987000D01*
X113730085Y-120987000D01*
X113608096Y-121209039D01*
X66460619Y-121209039D01*
X59934840Y-114683260D01*
X59934999Y-114500000D01*
X67196887Y-114500000D01*
X67306120Y-115049151D01*
X67617189Y-115514698D01*
X68082736Y-115825767D01*
X68631887Y-115935000D01*
X68688113Y-115935000D01*
X69237264Y-115825767D01*
X69702811Y-115514698D01*
X69872995Y-115260000D01*
X72113154Y-115260000D01*
X72157932Y-115368371D01*
X72589357Y-115800551D01*
X73153330Y-116034733D01*
X73763991Y-116035265D01*
X74328371Y-115802068D01*
X74496613Y-115634120D01*
X74496838Y-115635317D01*
X74635910Y-115851441D01*
X74848110Y-115996431D01*
X75100000Y-116047440D01*
X76900000Y-116047440D01*
X77135317Y-116003162D01*
X77351441Y-115864090D01*
X77496431Y-115651890D01*
X77547440Y-115400000D01*
X77547440Y-113600000D01*
X77503162Y-113364683D01*
X77364090Y-113148559D01*
X77151890Y-113003569D01*
X76900000Y-112952560D01*
X75100000Y-112952560D01*
X74864683Y-112996838D01*
X74648559Y-113135910D01*
X74503569Y-113348110D01*
X74499433Y-113368534D01*
X74330643Y-113199449D01*
X73766670Y-112965267D01*
X73156009Y-112964735D01*
X72591629Y-113197932D01*
X72159449Y-113629357D01*
X72113506Y-113740000D01*
X69872995Y-113740000D01*
X69702811Y-113485302D01*
X69237264Y-113174233D01*
X68688113Y-113065000D01*
X68631887Y-113065000D01*
X68082736Y-113174233D01*
X67617189Y-113485302D01*
X67306120Y-113950849D01*
X67196887Y-114500000D01*
X59934999Y-114500000D01*
X59935248Y-114215813D01*
X59717243Y-113688200D01*
X59313923Y-113284176D01*
X58786691Y-113065250D01*
X58215813Y-113064752D01*
X57688200Y-113282757D01*
X57284176Y-113686077D01*
X57065250Y-114213309D01*
X57064752Y-114784187D01*
X50710000Y-114784187D01*
X50710000Y-105284187D01*
X57064752Y-105284187D01*
X57282757Y-105811800D01*
X57686077Y-106215824D01*
X58213309Y-106434750D01*
X58784187Y-106435248D01*
X59311800Y-106217243D01*
X59715824Y-105813923D01*
X59934750Y-105286691D01*
X59935000Y-105000000D01*
X67196887Y-105000000D01*
X67306120Y-105549151D01*
X67617189Y-106014698D01*
X68082736Y-106325767D01*
X68631887Y-106435000D01*
X68688113Y-106435000D01*
X69237264Y-106325767D01*
X69702811Y-106014698D01*
X69872995Y-105760000D01*
X72113154Y-105760000D01*
X72157932Y-105868371D01*
X72589357Y-106300551D01*
X73153330Y-106534733D01*
X73763991Y-106535265D01*
X74328371Y-106302068D01*
X74496613Y-106134120D01*
X74496838Y-106135317D01*
X74635910Y-106351441D01*
X74848110Y-106496431D01*
X75100000Y-106547440D01*
X76900000Y-106547440D01*
X77135317Y-106503162D01*
X77351441Y-106364090D01*
X77496431Y-106151890D01*
X77547440Y-105900000D01*
X77547440Y-104100000D01*
X77503162Y-103864683D01*
X77364090Y-103648559D01*
X77151890Y-103503569D01*
X76900000Y-103452560D01*
X75100000Y-103452560D01*
X74864683Y-103496838D01*
X74648559Y-103635910D01*
X74503569Y-103848110D01*
X74499433Y-103868534D01*
X74330643Y-103699449D01*
X73766670Y-103465267D01*
X73156009Y-103464735D01*
X72591629Y-103697932D01*
X72159449Y-104129357D01*
X72113506Y-104240000D01*
X69872995Y-104240000D01*
X69702811Y-103985302D01*
X69237264Y-103674233D01*
X68688113Y-103565000D01*
X68631887Y-103565000D01*
X68082736Y-103674233D01*
X67617189Y-103985302D01*
X67306120Y-104450849D01*
X67196887Y-105000000D01*
X59935000Y-105000000D01*
X59935248Y-104715813D01*
X59717243Y-104188200D01*
X59313923Y-103784176D01*
X58786691Y-103565250D01*
X58215813Y-103564752D01*
X57688200Y-103782757D01*
X57284176Y-104186077D01*
X57065250Y-104713309D01*
X57064752Y-105284187D01*
X50710000Y-105284187D01*
X50710000Y-95784187D01*
X57064752Y-95784187D01*
X57282757Y-96311800D01*
X57686077Y-96715824D01*
X58213309Y-96934750D01*
X58784187Y-96935248D01*
X59311800Y-96717243D01*
X59715824Y-96313923D01*
X59934750Y-95786691D01*
X59935248Y-95215813D01*
X59717243Y-94688200D01*
X59313923Y-94284176D01*
X58786691Y-94065250D01*
X58215813Y-94064752D01*
X57688200Y-94282757D01*
X57284176Y-94686077D01*
X57065250Y-95213309D01*
X57064752Y-95784187D01*
X50710000Y-95784187D01*
X50710000Y-86284187D01*
X57064752Y-86284187D01*
X57282757Y-86811800D01*
X57686077Y-87215824D01*
X58213309Y-87434750D01*
X58784187Y-87435248D01*
X59311800Y-87217243D01*
X59715824Y-86813923D01*
X59934750Y-86286691D01*
X59935000Y-86000000D01*
X67196887Y-86000000D01*
X67306120Y-86549151D01*
X67617189Y-87014698D01*
X68082736Y-87325767D01*
X68631887Y-87435000D01*
X68688113Y-87435000D01*
X69237264Y-87325767D01*
X69702811Y-87014698D01*
X69872995Y-86760000D01*
X72113154Y-86760000D01*
X72157932Y-86868371D01*
X72589357Y-87300551D01*
X73153330Y-87534733D01*
X73763991Y-87535265D01*
X74328371Y-87302068D01*
X74496613Y-87134120D01*
X74496838Y-87135317D01*
X74635910Y-87351441D01*
X74848110Y-87496431D01*
X75100000Y-87547440D01*
X76900000Y-87547440D01*
X77135317Y-87503162D01*
X77351441Y-87364090D01*
X77417665Y-87267167D01*
X78067899Y-87917401D01*
X78314461Y-88082148D01*
X78605300Y-88140000D01*
X83667005Y-88140000D01*
X83837189Y-88394698D01*
X84219275Y-88650000D01*
X83837189Y-88905302D01*
X83667005Y-89160000D01*
X82805300Y-89160000D01*
X82514461Y-89217852D01*
X82267899Y-89382599D01*
X77418063Y-94232435D01*
X77364090Y-94148559D01*
X77151890Y-94003569D01*
X76900000Y-93952560D01*
X75100000Y-93952560D01*
X74864683Y-93996838D01*
X74648559Y-94135910D01*
X74503569Y-94348110D01*
X74499433Y-94368534D01*
X74330643Y-94199449D01*
X73766670Y-93965267D01*
X73156009Y-93964735D01*
X72591629Y-94197932D01*
X72159449Y-94629357D01*
X72113506Y-94740000D01*
X69872995Y-94740000D01*
X69702811Y-94485302D01*
X69237264Y-94174233D01*
X68688113Y-94065000D01*
X68631887Y-94065000D01*
X68082736Y-94174233D01*
X67617189Y-94485302D01*
X67306120Y-94950849D01*
X67196887Y-95500000D01*
X67306120Y-96049151D01*
X67617189Y-96514698D01*
X68082736Y-96825767D01*
X68631887Y-96935000D01*
X68688113Y-96935000D01*
X69237264Y-96825767D01*
X69702811Y-96514698D01*
X69872995Y-96260000D01*
X72113154Y-96260000D01*
X72157932Y-96368371D01*
X72589357Y-96800551D01*
X73153330Y-97034733D01*
X73763991Y-97035265D01*
X74328371Y-96802068D01*
X74496613Y-96634120D01*
X74496838Y-96635317D01*
X74635910Y-96851441D01*
X74848110Y-96996431D01*
X75100000Y-97047440D01*
X76900000Y-97047440D01*
X77135317Y-97003162D01*
X77351441Y-96864090D01*
X77496431Y-96651890D01*
X77547440Y-96400000D01*
X77547440Y-96181233D01*
X77762701Y-96037401D01*
X83120102Y-90680000D01*
X83667005Y-90680000D01*
X83837189Y-90934698D01*
X84219275Y-91190000D01*
X83837189Y-91445302D01*
X83526120Y-91910849D01*
X83416887Y-92460000D01*
X83526120Y-93009151D01*
X83837189Y-93474698D01*
X84219275Y-93730000D01*
X83837189Y-93985302D01*
X83526120Y-94450849D01*
X83416887Y-95000000D01*
X83526120Y-95549151D01*
X83837189Y-96014698D01*
X84302736Y-96325767D01*
X84851887Y-96435000D01*
X84908113Y-96435000D01*
X85457264Y-96325767D01*
X85922811Y-96014698D01*
X86233880Y-95549151D01*
X86343113Y-95000000D01*
X86233880Y-94450849D01*
X85922811Y-93985302D01*
X85540725Y-93730000D01*
X85922811Y-93474698D01*
X86233880Y-93009151D01*
X86343113Y-92460000D01*
X86233880Y-91910849D01*
X85922811Y-91445302D01*
X85540725Y-91190000D01*
X85922811Y-90934698D01*
X86233880Y-90469151D01*
X86343113Y-89920000D01*
X86233880Y-89370849D01*
X85922811Y-88905302D01*
X85540725Y-88650000D01*
X85922811Y-88394698D01*
X86233880Y-87929151D01*
X86343113Y-87380000D01*
X86233880Y-86830849D01*
X85922811Y-86365302D01*
X85540725Y-86110000D01*
X85922811Y-85854698D01*
X86233880Y-85389151D01*
X86343113Y-84840000D01*
X86233880Y-84290849D01*
X85922811Y-83825302D01*
X85540725Y-83570000D01*
X85922811Y-83314698D01*
X86233880Y-82849151D01*
X86343113Y-82300000D01*
X86233880Y-81750849D01*
X85922811Y-81285302D01*
X85540725Y-81030000D01*
X85922811Y-80774698D01*
X86233880Y-80309151D01*
X86343113Y-79760000D01*
X86233880Y-79210849D01*
X85922811Y-78745302D01*
X85540725Y-78490000D01*
X85922811Y-78234698D01*
X86233880Y-77769151D01*
X86343113Y-77220000D01*
X86233880Y-76670849D01*
X85922811Y-76205302D01*
X85540725Y-75950000D01*
X85922811Y-75694698D01*
X86233880Y-75229151D01*
X86273684Y-75029039D01*
X91108096Y-75029039D01*
X91268959Y-75417423D01*
X91644866Y-75832389D01*
X91893367Y-75950000D01*
X91644866Y-76067611D01*
X91268959Y-76482577D01*
X91108096Y-76870961D01*
X91230085Y-77093000D01*
X92373000Y-77093000D01*
X92373000Y-74807000D01*
X92627000Y-74807000D01*
X92627000Y-77093000D01*
X93769915Y-77093000D01*
X93891904Y-76870961D01*
X93731041Y-76482577D01*
X93355134Y-76067611D01*
X93106633Y-75950000D01*
X93355134Y-75832389D01*
X93731041Y-75417423D01*
X93891904Y-75029039D01*
X93769915Y-74807000D01*
X92627000Y-74807000D01*
X92373000Y-74807000D01*
X91230085Y-74807000D01*
X91108096Y-75029039D01*
X86273684Y-75029039D01*
X86343113Y-74680000D01*
X86273685Y-74330961D01*
X91108096Y-74330961D01*
X91230085Y-74553000D01*
X92373000Y-74553000D01*
X92373000Y-73409371D01*
X92627000Y-73409371D01*
X92627000Y-74553000D01*
X93769915Y-74553000D01*
X93891904Y-74330961D01*
X93731041Y-73942577D01*
X93355134Y-73527611D01*
X92849041Y-73288086D01*
X92627000Y-73409371D01*
X92373000Y-73409371D01*
X92150959Y-73288086D01*
X91644866Y-73527611D01*
X91268959Y-73942577D01*
X91108096Y-74330961D01*
X86273685Y-74330961D01*
X86233880Y-74130849D01*
X85922811Y-73665302D01*
X85457264Y-73354233D01*
X84908113Y-73245000D01*
X84851887Y-73245000D01*
X84302736Y-73354233D01*
X83837189Y-73665302D01*
X83526120Y-74130849D01*
X83416887Y-74680000D01*
X83526120Y-75229151D01*
X83837189Y-75694698D01*
X84219275Y-75950000D01*
X83837189Y-76205302D01*
X83526120Y-76670849D01*
X83416887Y-77220000D01*
X83526120Y-77769151D01*
X83837189Y-78234698D01*
X84219275Y-78490000D01*
X83837189Y-78745302D01*
X83526120Y-79210849D01*
X83416887Y-79760000D01*
X83526120Y-80309151D01*
X83837189Y-80774698D01*
X84219275Y-81030000D01*
X83837189Y-81285302D01*
X83526120Y-81750849D01*
X83416887Y-82300000D01*
X83526120Y-82849151D01*
X83837189Y-83314698D01*
X84219275Y-83570000D01*
X83837189Y-83825302D01*
X83526120Y-84290849D01*
X83416887Y-84840000D01*
X83526120Y-85389151D01*
X83837189Y-85854698D01*
X84219275Y-86110000D01*
X83837189Y-86365302D01*
X83667005Y-86620000D01*
X78920102Y-86620000D01*
X77762701Y-85462599D01*
X77547440Y-85318767D01*
X77547440Y-85100000D01*
X77503162Y-84864683D01*
X77364090Y-84648559D01*
X77151890Y-84503569D01*
X76900000Y-84452560D01*
X75100000Y-84452560D01*
X74864683Y-84496838D01*
X74648559Y-84635910D01*
X74503569Y-84848110D01*
X74499433Y-84868534D01*
X74330643Y-84699449D01*
X73766670Y-84465267D01*
X73156009Y-84464735D01*
X72591629Y-84697932D01*
X72159449Y-85129357D01*
X72113506Y-85240000D01*
X69872995Y-85240000D01*
X69702811Y-84985302D01*
X69237264Y-84674233D01*
X68688113Y-84565000D01*
X68631887Y-84565000D01*
X68082736Y-84674233D01*
X67617189Y-84985302D01*
X67306120Y-85450849D01*
X67196887Y-86000000D01*
X59935000Y-86000000D01*
X59935248Y-85715813D01*
X59717243Y-85188200D01*
X59313923Y-84784176D01*
X58786691Y-84565250D01*
X58215813Y-84564752D01*
X57688200Y-84782757D01*
X57284176Y-85186077D01*
X57065250Y-85713309D01*
X57064752Y-86284187D01*
X50710000Y-86284187D01*
X50710000Y-76784187D01*
X57064752Y-76784187D01*
X57282757Y-77311800D01*
X57686077Y-77715824D01*
X58213309Y-77934750D01*
X58784187Y-77935248D01*
X59311800Y-77717243D01*
X59715824Y-77313923D01*
X59934750Y-76786691D01*
X59935000Y-76500000D01*
X67196887Y-76500000D01*
X67306120Y-77049151D01*
X67617189Y-77514698D01*
X68082736Y-77825767D01*
X68631887Y-77935000D01*
X68688113Y-77935000D01*
X69237264Y-77825767D01*
X69702811Y-77514698D01*
X69872995Y-77260000D01*
X72113154Y-77260000D01*
X72157932Y-77368371D01*
X72589357Y-77800551D01*
X73153330Y-78034733D01*
X73763991Y-78035265D01*
X74328371Y-77802068D01*
X74496613Y-77634120D01*
X74496838Y-77635317D01*
X74635910Y-77851441D01*
X74848110Y-77996431D01*
X75100000Y-78047440D01*
X76900000Y-78047440D01*
X77135317Y-78003162D01*
X77351441Y-77864090D01*
X77496431Y-77651890D01*
X77547440Y-77400000D01*
X77547440Y-75600000D01*
X77503162Y-75364683D01*
X77364090Y-75148559D01*
X77151890Y-75003569D01*
X76900000Y-74952560D01*
X75100000Y-74952560D01*
X74864683Y-74996838D01*
X74648559Y-75135910D01*
X74503569Y-75348110D01*
X74499433Y-75368534D01*
X74330643Y-75199449D01*
X73766670Y-74965267D01*
X73156009Y-74964735D01*
X72591629Y-75197932D01*
X72159449Y-75629357D01*
X72113506Y-75740000D01*
X69872995Y-75740000D01*
X69702811Y-75485302D01*
X69237264Y-75174233D01*
X68688113Y-75065000D01*
X68631887Y-75065000D01*
X68082736Y-75174233D01*
X67617189Y-75485302D01*
X67306120Y-75950849D01*
X67196887Y-76500000D01*
X59935000Y-76500000D01*
X59935248Y-76215813D01*
X59717243Y-75688200D01*
X59313923Y-75284176D01*
X58786691Y-75065250D01*
X58215813Y-75064752D01*
X57688200Y-75282757D01*
X57284176Y-75686077D01*
X57065250Y-76213309D01*
X57064752Y-76784187D01*
X50710000Y-76784187D01*
X50710000Y-57784187D01*
X57064752Y-57784187D01*
X57282757Y-58311800D01*
X57615000Y-58644623D01*
X57615000Y-65855829D01*
X57284176Y-66186077D01*
X57065250Y-66713309D01*
X57064752Y-67284187D01*
X57282757Y-67811800D01*
X57686077Y-68215824D01*
X58213309Y-68434750D01*
X58784187Y-68435248D01*
X59311800Y-68217243D01*
X59715824Y-67813923D01*
X59934750Y-67286691D01*
X59935000Y-67000000D01*
X67196887Y-67000000D01*
X67306120Y-67549151D01*
X67617189Y-68014698D01*
X68082736Y-68325767D01*
X68631887Y-68435000D01*
X68688113Y-68435000D01*
X69237264Y-68325767D01*
X69702811Y-68014698D01*
X69872995Y-67760000D01*
X72113154Y-67760000D01*
X72157932Y-67868371D01*
X72589357Y-68300551D01*
X73153330Y-68534733D01*
X73763991Y-68535265D01*
X74328371Y-68302068D01*
X74496613Y-68134120D01*
X74496838Y-68135317D01*
X74635910Y-68351441D01*
X74848110Y-68496431D01*
X75100000Y-68547440D01*
X76900000Y-68547440D01*
X77135317Y-68503162D01*
X77351441Y-68364090D01*
X77496431Y-68151890D01*
X77547440Y-67900000D01*
X77547440Y-66100000D01*
X77503162Y-65864683D01*
X77364090Y-65648559D01*
X77151890Y-65503569D01*
X76900000Y-65452560D01*
X75100000Y-65452560D01*
X74864683Y-65496838D01*
X74648559Y-65635910D01*
X74503569Y-65848110D01*
X74499433Y-65868534D01*
X74330643Y-65699449D01*
X73766670Y-65465267D01*
X73156009Y-65464735D01*
X72591629Y-65697932D01*
X72159449Y-66129357D01*
X72113506Y-66240000D01*
X69872995Y-66240000D01*
X69702811Y-65985302D01*
X69237264Y-65674233D01*
X68688113Y-65565000D01*
X68631887Y-65565000D01*
X68082736Y-65674233D01*
X67617189Y-65985302D01*
X67306120Y-66450849D01*
X67196887Y-67000000D01*
X59935000Y-67000000D01*
X59935248Y-66715813D01*
X59717243Y-66188200D01*
X59385000Y-65855377D01*
X59385000Y-58644171D01*
X59715824Y-58313923D01*
X59934750Y-57786691D01*
X59935000Y-57500000D01*
X67196887Y-57500000D01*
X67306120Y-58049151D01*
X67617189Y-58514698D01*
X68082736Y-58825767D01*
X68631887Y-58935000D01*
X68688113Y-58935000D01*
X69237264Y-58825767D01*
X69702811Y-58514698D01*
X69872995Y-58260000D01*
X72113154Y-58260000D01*
X72157932Y-58368371D01*
X72589357Y-58800551D01*
X73153330Y-59034733D01*
X73763991Y-59035265D01*
X74328371Y-58802068D01*
X74496613Y-58634120D01*
X74496838Y-58635317D01*
X74635910Y-58851441D01*
X74848110Y-58996431D01*
X75100000Y-59047440D01*
X76900000Y-59047440D01*
X77135317Y-59003162D01*
X77351441Y-58864090D01*
X77496431Y-58651890D01*
X77547440Y-58400000D01*
X77547440Y-56600000D01*
X77503162Y-56364683D01*
X77364090Y-56148559D01*
X77151890Y-56003569D01*
X76900000Y-55952560D01*
X75100000Y-55952560D01*
X74864683Y-55996838D01*
X74648559Y-56135910D01*
X74503569Y-56348110D01*
X74499433Y-56368534D01*
X74330643Y-56199449D01*
X73766670Y-55965267D01*
X73156009Y-55964735D01*
X72591629Y-56197932D01*
X72159449Y-56629357D01*
X72113506Y-56740000D01*
X69872995Y-56740000D01*
X69702811Y-56485302D01*
X69237264Y-56174233D01*
X68688113Y-56065000D01*
X68631887Y-56065000D01*
X68082736Y-56174233D01*
X67617189Y-56485302D01*
X67306120Y-56950849D01*
X67196887Y-57500000D01*
X59935000Y-57500000D01*
X59935248Y-57215813D01*
X59717243Y-56688200D01*
X59313923Y-56284176D01*
X58786691Y-56065250D01*
X58215813Y-56064752D01*
X57688200Y-56282757D01*
X57284176Y-56686077D01*
X57065250Y-57213309D01*
X57064752Y-57784187D01*
X50710000Y-57784187D01*
X50710000Y-37507745D01*
X119671861Y-37507745D01*
X119745995Y-37753864D01*
X120283223Y-37946965D01*
X120853454Y-37919778D01*
X121254005Y-37753864D01*
X121328139Y-37507745D01*
X120500000Y-36679605D01*
X119671861Y-37507745D01*
X50710000Y-37507745D01*
X50710000Y-35442619D01*
X52764613Y-35442619D01*
X53104155Y-36264372D01*
X53732321Y-36893636D01*
X54553481Y-37234611D01*
X55442619Y-37235387D01*
X56264372Y-36895845D01*
X56878064Y-36283223D01*
X119053035Y-36283223D01*
X119080222Y-36853454D01*
X119246136Y-37254005D01*
X119492255Y-37328139D01*
X120320395Y-36500000D01*
X120679605Y-36500000D01*
X121507745Y-37328139D01*
X121753864Y-37254005D01*
X121946965Y-36716777D01*
X121919778Y-36146546D01*
X121753864Y-35745995D01*
X121507745Y-35671861D01*
X120679605Y-36500000D01*
X120320395Y-36500000D01*
X119492255Y-35671861D01*
X119246136Y-35745995D01*
X119053035Y-36283223D01*
X56878064Y-36283223D01*
X56893636Y-36267679D01*
X57215619Y-35492255D01*
X119671861Y-35492255D01*
X120500000Y-36320395D01*
X121328139Y-35492255D01*
X121254005Y-35246136D01*
X120716777Y-35053035D01*
X120146546Y-35080222D01*
X119745995Y-35246136D01*
X119671861Y-35492255D01*
X57215619Y-35492255D01*
X57234611Y-35446519D01*
X57235387Y-34557381D01*
X56895845Y-33735628D01*
X56267679Y-33106364D01*
X55446519Y-32765389D01*
X54557381Y-32764613D01*
X53735628Y-33104155D01*
X53106364Y-33732321D01*
X52765389Y-34553481D01*
X52764613Y-35442619D01*
X50710000Y-35442619D01*
X50710000Y-30710000D01*
X204290000Y-30710000D01*
X204290000Y-143290000D01*
G36*
X168957189Y-117294698D02*
X169339275Y-117550000D01*
X168957189Y-117805302D01*
X168646120Y-118270849D01*
X168536887Y-118820000D01*
X168646120Y-119369151D01*
X168957189Y-119834698D01*
X169361703Y-120104986D01*
X169144866Y-120207611D01*
X168768959Y-120622577D01*
X168608096Y-121010961D01*
X168730085Y-121233000D01*
X169873000Y-121233000D01*
X169873000Y-121213000D01*
X170127000Y-121213000D01*
X170127000Y-121233000D01*
X170147000Y-121233000D01*
X170147000Y-121487000D01*
X170127000Y-121487000D01*
X170127000Y-121507000D01*
X169873000Y-121507000D01*
X169873000Y-121487000D01*
X168730085Y-121487000D01*
X168608096Y-121709039D01*
X168768959Y-122097423D01*
X169144866Y-122512389D01*
X169301552Y-122586546D01*
X151981398Y-139906700D01*
X150425279Y-139906700D01*
X150631961Y-139597378D01*
X150745000Y-139029093D01*
X150745000Y-138970907D01*
X150631961Y-138402622D01*
X150310054Y-137920853D01*
X150024422Y-137730000D01*
X150310054Y-137539147D01*
X150631961Y-137057378D01*
X150745000Y-136489093D01*
X150745000Y-136430907D01*
X150631961Y-135862622D01*
X150310054Y-135380853D01*
X150253282Y-135342920D01*
X168694558Y-116901644D01*
X168957189Y-117294698D01*
X168957189Y-117294698D01*
G37*
X168957189Y-117294698D02*
X169339275Y-117550000D01*
X168957189Y-117805302D01*
X168646120Y-118270849D01*
X168536887Y-118820000D01*
X168646120Y-119369151D01*
X168957189Y-119834698D01*
X169361703Y-120104986D01*
X169144866Y-120207611D01*
X168768959Y-120622577D01*
X168608096Y-121010961D01*
X168730085Y-121233000D01*
X169873000Y-121233000D01*
X169873000Y-121213000D01*
X170127000Y-121213000D01*
X170127000Y-121233000D01*
X170147000Y-121233000D01*
X170147000Y-121487000D01*
X170127000Y-121487000D01*
X170127000Y-121507000D01*
X169873000Y-121507000D01*
X169873000Y-121487000D01*
X168730085Y-121487000D01*
X168608096Y-121709039D01*
X168768959Y-122097423D01*
X169144866Y-122512389D01*
X169301552Y-122586546D01*
X151981398Y-139906700D01*
X150425279Y-139906700D01*
X150631961Y-139597378D01*
X150745000Y-139029093D01*
X150745000Y-138970907D01*
X150631961Y-138402622D01*
X150310054Y-137920853D01*
X150024422Y-137730000D01*
X150310054Y-137539147D01*
X150631961Y-137057378D01*
X150745000Y-136489093D01*
X150745000Y-136430907D01*
X150631961Y-135862622D01*
X150310054Y-135380853D01*
X150253282Y-135342920D01*
X168694558Y-116901644D01*
X168957189Y-117294698D01*
G36*
X178197189Y-75994698D02*
X178579275Y-76250000D01*
X178197189Y-76505302D01*
X177886120Y-76970849D01*
X177776887Y-77520000D01*
X177886120Y-78069151D01*
X178197189Y-78534698D01*
X178480000Y-78723667D01*
X178480000Y-86546198D01*
X172261579Y-92764619D01*
X172253864Y-92745995D01*
X172007745Y-92671861D01*
X171179605Y-93500000D01*
X171193748Y-93514142D01*
X171014142Y-93693748D01*
X171000000Y-93679605D01*
X170985858Y-93693748D01*
X170806252Y-93514142D01*
X170820395Y-93500000D01*
X169992255Y-92671861D01*
X169746136Y-92745995D01*
X169553035Y-93283223D01*
X169580222Y-93853454D01*
X169678658Y-94091100D01*
X147938163Y-94091100D01*
X148215824Y-93813923D01*
X148434750Y-93286691D01*
X148435248Y-92715813D01*
X148342876Y-92492255D01*
X170171861Y-92492255D01*
X171000000Y-93320395D01*
X171828139Y-92492255D01*
X171754005Y-92246136D01*
X171216777Y-92053035D01*
X170646546Y-92080222D01*
X170245995Y-92246136D01*
X170171861Y-92492255D01*
X148342876Y-92492255D01*
X148217243Y-92188200D01*
X147813923Y-91784176D01*
X147286691Y-91565250D01*
X146715813Y-91564752D01*
X146188200Y-91782757D01*
X145784176Y-92186077D01*
X145565250Y-92713309D01*
X145564752Y-93284187D01*
X145782757Y-93811800D01*
X146061570Y-94091100D01*
X142803031Y-94091100D01*
X142828139Y-94007745D01*
X142000000Y-93179605D01*
X141171861Y-94007745D01*
X141196969Y-94091100D01*
X121803031Y-94091100D01*
X121828139Y-94007745D01*
X121000000Y-93179605D01*
X120985858Y-93193748D01*
X120806253Y-93014143D01*
X120820395Y-93000000D01*
X121179605Y-93000000D01*
X122007745Y-93828139D01*
X122253864Y-93754005D01*
X122446965Y-93216777D01*
X122426295Y-92783223D01*
X140553035Y-92783223D01*
X140580222Y-93353454D01*
X140746136Y-93754005D01*
X140992255Y-93828139D01*
X141820395Y-93000000D01*
X142179605Y-93000000D01*
X143007745Y-93828139D01*
X143253864Y-93754005D01*
X143446965Y-93216777D01*
X143419778Y-92646546D01*
X143253864Y-92245995D01*
X143007745Y-92171861D01*
X142179605Y-93000000D01*
X141820395Y-93000000D01*
X140992255Y-92171861D01*
X140746136Y-92245995D01*
X140553035Y-92783223D01*
X122426295Y-92783223D01*
X122419778Y-92646546D01*
X122253864Y-92245995D01*
X122007745Y-92171861D01*
X121179605Y-93000000D01*
X120820395Y-93000000D01*
X120806253Y-92985858D01*
X120985858Y-92806253D01*
X121000000Y-92820395D01*
X121828139Y-91992255D01*
X141171861Y-91992255D01*
X142000000Y-92820395D01*
X142828139Y-91992255D01*
X142754005Y-91746136D01*
X142216777Y-91553035D01*
X141646546Y-91580222D01*
X141245995Y-91746136D01*
X141171861Y-91992255D01*
X121828139Y-91992255D01*
X121754005Y-91746136D01*
X121216777Y-91553035D01*
X120975567Y-91564535D01*
X131277401Y-81262701D01*
X131442148Y-81016139D01*
X131482022Y-80815679D01*
X131782811Y-80614698D01*
X132093880Y-80149151D01*
X132203113Y-79600000D01*
X132093880Y-79050849D01*
X131782811Y-78585302D01*
X131400725Y-78330000D01*
X131782811Y-78074698D01*
X131920227Y-77869039D01*
X162608096Y-77869039D01*
X162768959Y-78257423D01*
X163144866Y-78672389D01*
X163650959Y-78911914D01*
X163873000Y-78790629D01*
X163873000Y-77647000D01*
X164127000Y-77647000D01*
X164127000Y-78790629D01*
X164349041Y-78911914D01*
X164855134Y-78672389D01*
X165231041Y-78257423D01*
X165391904Y-77869039D01*
X165269915Y-77647000D01*
X164127000Y-77647000D01*
X163873000Y-77647000D01*
X162730085Y-77647000D01*
X162608096Y-77869039D01*
X131920227Y-77869039D01*
X131966437Y-77799882D01*
X132156139Y-77762148D01*
X132402701Y-77597401D01*
X132845402Y-77154700D01*
X162614831Y-77154700D01*
X162608096Y-77170961D01*
X162730085Y-77393000D01*
X163873000Y-77393000D01*
X163873000Y-77373000D01*
X164127000Y-77373000D01*
X164127000Y-77393000D01*
X165269915Y-77393000D01*
X165391904Y-77170961D01*
X165385169Y-77154700D01*
X176700000Y-77154700D01*
X176990839Y-77096848D01*
X177237401Y-76932101D01*
X178188223Y-75981279D01*
X178197189Y-75994698D01*
X178197189Y-75994698D01*
G37*
X178197189Y-75994698D02*
X178579275Y-76250000D01*
X178197189Y-76505302D01*
X177886120Y-76970849D01*
X177776887Y-77520000D01*
X177886120Y-78069151D01*
X178197189Y-78534698D01*
X178480000Y-78723667D01*
X178480000Y-86546198D01*
X172261579Y-92764619D01*
X172253864Y-92745995D01*
X172007745Y-92671861D01*
X171179605Y-93500000D01*
X171193748Y-93514142D01*
X171014142Y-93693748D01*
X171000000Y-93679605D01*
X170985858Y-93693748D01*
X170806252Y-93514142D01*
X170820395Y-93500000D01*
X169992255Y-92671861D01*
X169746136Y-92745995D01*
X169553035Y-93283223D01*
X169580222Y-93853454D01*
X169678658Y-94091100D01*
X147938163Y-94091100D01*
X148215824Y-93813923D01*
X148434750Y-93286691D01*
X148435248Y-92715813D01*
X148342876Y-92492255D01*
X170171861Y-92492255D01*
X171000000Y-93320395D01*
X171828139Y-92492255D01*
X171754005Y-92246136D01*
X171216777Y-92053035D01*
X170646546Y-92080222D01*
X170245995Y-92246136D01*
X170171861Y-92492255D01*
X148342876Y-92492255D01*
X148217243Y-92188200D01*
X147813923Y-91784176D01*
X147286691Y-91565250D01*
X146715813Y-91564752D01*
X146188200Y-91782757D01*
X145784176Y-92186077D01*
X145565250Y-92713309D01*
X145564752Y-93284187D01*
X145782757Y-93811800D01*
X146061570Y-94091100D01*
X142803031Y-94091100D01*
X142828139Y-94007745D01*
X142000000Y-93179605D01*
X141171861Y-94007745D01*
X141196969Y-94091100D01*
X121803031Y-94091100D01*
X121828139Y-94007745D01*
X121000000Y-93179605D01*
X120985858Y-93193748D01*
X120806253Y-93014143D01*
X120820395Y-93000000D01*
X121179605Y-93000000D01*
X122007745Y-93828139D01*
X122253864Y-93754005D01*
X122446965Y-93216777D01*
X122426295Y-92783223D01*
X140553035Y-92783223D01*
X140580222Y-93353454D01*
X140746136Y-93754005D01*
X140992255Y-93828139D01*
X141820395Y-93000000D01*
X142179605Y-93000000D01*
X143007745Y-93828139D01*
X143253864Y-93754005D01*
X143446965Y-93216777D01*
X143419778Y-92646546D01*
X143253864Y-92245995D01*
X143007745Y-92171861D01*
X142179605Y-93000000D01*
X141820395Y-93000000D01*
X140992255Y-92171861D01*
X140746136Y-92245995D01*
X140553035Y-92783223D01*
X122426295Y-92783223D01*
X122419778Y-92646546D01*
X122253864Y-92245995D01*
X122007745Y-92171861D01*
X121179605Y-93000000D01*
X120820395Y-93000000D01*
X120806253Y-92985858D01*
X120985858Y-92806253D01*
X121000000Y-92820395D01*
X121828139Y-91992255D01*
X141171861Y-91992255D01*
X142000000Y-92820395D01*
X142828139Y-91992255D01*
X142754005Y-91746136D01*
X142216777Y-91553035D01*
X141646546Y-91580222D01*
X141245995Y-91746136D01*
X141171861Y-91992255D01*
X121828139Y-91992255D01*
X121754005Y-91746136D01*
X121216777Y-91553035D01*
X120975567Y-91564535D01*
X131277401Y-81262701D01*
X131442148Y-81016139D01*
X131482022Y-80815679D01*
X131782811Y-80614698D01*
X132093880Y-80149151D01*
X132203113Y-79600000D01*
X132093880Y-79050849D01*
X131782811Y-78585302D01*
X131400725Y-78330000D01*
X131782811Y-78074698D01*
X131920227Y-77869039D01*
X162608096Y-77869039D01*
X162768959Y-78257423D01*
X163144866Y-78672389D01*
X163650959Y-78911914D01*
X163873000Y-78790629D01*
X163873000Y-77647000D01*
X164127000Y-77647000D01*
X164127000Y-78790629D01*
X164349041Y-78911914D01*
X164855134Y-78672389D01*
X165231041Y-78257423D01*
X165391904Y-77869039D01*
X165269915Y-77647000D01*
X164127000Y-77647000D01*
X163873000Y-77647000D01*
X162730085Y-77647000D01*
X162608096Y-77869039D01*
X131920227Y-77869039D01*
X131966437Y-77799882D01*
X132156139Y-77762148D01*
X132402701Y-77597401D01*
X132845402Y-77154700D01*
X162614831Y-77154700D01*
X162608096Y-77170961D01*
X162730085Y-77393000D01*
X163873000Y-77393000D01*
X163873000Y-77373000D01*
X164127000Y-77373000D01*
X164127000Y-77393000D01*
X165269915Y-77393000D01*
X165391904Y-77170961D01*
X165385169Y-77154700D01*
X176700000Y-77154700D01*
X176990839Y-77096848D01*
X177237401Y-76932101D01*
X178188223Y-75981279D01*
X178197189Y-75994698D01*
M02*
