M48
;DRILL file {KiCad 4.0.7} date 11/10/19 12:42:39
;FORMAT={-:-/ absolute / inch / decimal}
FMAT,2
INCH,TZ
T1C0.016
T2C0.030
T3C0.031
T4C0.032
T5C0.035
T6C0.039
T7C0.047
T8C0.126
%
G90
G05
M72
T1
X3.4928Y-3.581
X3.8612Y-4.0745
X3.919Y-1.7157
X4.2986Y-2.086
X4.5403Y-3.6243
X4.6457Y-2.8632
X4.6624Y-3.9008
X4.6933Y-2.7006
X4.7056Y-4.1974
X5.1737Y-3.8961
X5.1996Y-5.2892
X5.2314Y-2.9714
X5.276Y-5.1589
X5.2799Y-3.6193
X5.3461Y-2.736
X5.3948Y-4.1846
X5.4948Y-3.5593
X5.5881Y-2.7773
X5.5987Y-2.738
X5.6281Y-3.6634
X5.6789Y-3.6616
X5.6805Y-2.6711
X5.6855Y-4.2504
X5.7049Y-2.4616
X5.7552Y-3.5879
X5.7681Y-3.6607
X5.9235Y-4.4619
X6.0203Y-5.2228
X6.1531Y-2.0336
X6.186Y-4.6034
X6.469Y-3.5856
X6.7769Y-3.3913
X6.9557Y-5.4187
X7.2235Y-5.0636
X7.2521Y-5.0917
X7.2904Y-3.6768
X7.375Y-4.1295
T2
X2.2638Y-4.6563
X2.3228Y-1.7429
X2.3228Y-5.2075
X3.5433Y-2.4319
X4.4685Y-1.9988
X5.9449Y-1.3886
X6.7323Y-5.2469
X7.4409Y-3.4358
X7.6969Y-2.5303
T3
X2.4016Y-3.4646
X2.4016Y-3.8646
X2.4016Y-4.0157
X2.4016Y-4.4157
X2.4803Y-3.1102
X2.4803Y-3.3071
X2.5197Y-4.7244
X2.6181Y-3.6614
X2.6181Y-3.7614
X2.6181Y-3.8614
X2.6181Y-3.9614
X2.6181Y-4.0614
X2.6181Y-4.1614
X2.6181Y-4.2614
X2.6181Y-4.7244
X2.7165Y-2.3165
X2.7165Y-2.7165
X2.7165Y-3.0465
X2.7165Y-3.3465
X2.874Y-4.685
X2.874Y-4.8819
X2.9134Y-2.3165
X2.9134Y-2.7165
X2.9181Y-3.6614
X2.9181Y-3.7614
X2.9181Y-3.8614
X2.9181Y-3.9614
X2.9181Y-4.0614
X2.9181Y-4.1614
X2.9181Y-4.2614
X3.0165Y-3.0465
X3.0165Y-3.3465
X3.0906Y-5.2756
X3.1102Y-3.7008
X3.1102Y-3.8008
X3.1102Y-3.9008
X3.1102Y-4.0008
X3.1102Y-4.1008
X3.1102Y-4.2008
X3.1102Y-4.3008
X3.1102Y-4.4008
X3.1102Y-4.5008
X3.1102Y-4.6008
X3.1102Y-4.7008
X3.1102Y-4.8008
X3.248Y-1.9882
X3.248Y-3.5236
X3.2677Y-2.2244
X3.2677Y-2.3244
X3.2677Y-2.4244
X3.2677Y-2.5244
X3.2677Y-2.6244
X3.2677Y-2.7244
X3.2677Y-2.8244
X3.2677Y-2.9244
X3.2677Y-3.0244
X3.2677Y-3.1244
X3.2677Y-3.2244
X3.2677Y-3.3244
X3.3071Y-5.0197
X3.4449Y-3.5236
X3.4906Y-5.2756
X3.5039Y-5.0197
X3.648Y-1.9882
X3.7008Y-5.1575
X3.7008Y-5.2559
X3.7102Y-3.7008
X3.7102Y-3.8008
X3.7102Y-3.9008
X3.7102Y-4.0008
X3.7102Y-4.1008
X3.7102Y-4.2008
X3.7102Y-4.3008
X3.7102Y-4.4008
X3.7102Y-4.5008
X3.7102Y-4.6008
X3.7102Y-4.7008
X3.7102Y-4.8008
X3.8677Y-2.2244
X3.8677Y-2.3244
X3.8677Y-2.4244
X3.8677Y-2.5244
X3.8677Y-2.6244
X3.8677Y-2.7244
X3.8677Y-2.8244
X3.8677Y-2.9244
X3.8677Y-3.0244
X3.8677Y-3.1244
X3.8677Y-3.2244
X3.8677Y-3.3244
X3.878Y-4.2126
X3.878Y-4.3126
X3.878Y-4.4126
X3.878Y-4.5126
X3.878Y-4.6126
X3.878Y-4.7126
X3.878Y-4.8126
X3.937Y-4.0354
X4.0354Y-2.2835
X4.0354Y-2.4803
X4.1339Y-4.0354
X4.178Y-4.2126
X4.178Y-4.3126
X4.178Y-4.4126
X4.178Y-4.5126
X4.178Y-4.6126
X4.178Y-4.7126
X4.178Y-4.8126
X4.2126Y-2.2244
X4.2126Y-2.3244
X4.2126Y-2.4244
X4.2126Y-2.5244
X4.2126Y-2.6244
X4.2126Y-2.7244
X4.2126Y-2.8244
X4.2126Y-2.9244
X4.2126Y-3.0244
X4.2126Y-3.1244
X4.2126Y-3.2244
X4.2126Y-3.3244
X4.3504Y-4.2126
X4.3504Y-4.3126
X4.3504Y-4.4126
X4.3504Y-4.5126
X4.3504Y-4.6126
X4.3504Y-4.7126
X4.3504Y-4.8126
X4.3504Y-4.9126
X4.4094Y-4.0354
X4.4291Y-3.7598
X4.5276Y-3.7598
X4.6063Y-4.0354
X4.6504Y-4.2126
X4.6504Y-4.3126
X4.6504Y-4.4126
X4.6504Y-4.5126
X4.6504Y-4.6126
X4.6504Y-4.7126
X4.6504Y-4.8126
X4.6504Y-4.9126
X4.8031Y-4.9213
X4.8126Y-2.2244
X4.8126Y-2.3244
X4.8126Y-2.4244
X4.8126Y-2.5244
X4.8126Y-2.6244
X4.8126Y-2.7244
X4.8126Y-2.8244
X4.8126Y-2.9244
X4.8126Y-3.0244
X4.8126Y-3.1244
X4.8126Y-3.2244
X4.8126Y-3.3244
X4.8181Y-3.8441
X4.8181Y-3.9441
X4.8181Y-4.0441
X4.8181Y-4.1441
X4.8181Y-4.2441
X4.8181Y-4.3441
X4.8181Y-4.4441
X4.8181Y-4.5441
X4.8181Y-4.6441
X4.8181Y-4.7441
X5.Y-4.9213
X5.0394Y-3.0315
X5.0394Y-3.2283
X5.1181Y-3.8441
X5.1181Y-3.9441
X5.1181Y-4.0441
X5.1181Y-4.1441
X5.1181Y-4.2441
X5.1181Y-4.3441
X5.1181Y-4.4441
X5.1181Y-4.5441
X5.1181Y-4.6441
X5.1181Y-4.7441
X5.2756Y-1.5157
X5.2756Y-1.6157
X5.2756Y-1.7157
X5.2756Y-1.8157
X5.2756Y-1.9157
X5.2756Y-2.0157
X5.2756Y-2.1157
X5.2756Y-2.2157
X5.2756Y-2.3157
X5.2756Y-2.4157
X5.2756Y-2.5157
X5.2756Y-2.6157
X5.2756Y-2.7157
X5.2756Y-2.8157
X5.2756Y-2.9157
X5.2756Y-3.0157
X5.2756Y-3.1157
X5.2756Y-3.2157
X5.2756Y-3.3157
X5.2756Y-3.4157
X5.3102Y-3.8409
X5.3102Y-3.9409
X5.3102Y-4.0409
X5.3102Y-4.1409
X5.3102Y-4.2409
X5.3102Y-4.3409
X5.3102Y-4.4409
X5.3102Y-4.5409
X5.3102Y-4.6409
X5.3102Y-4.7409
X5.3102Y-4.8409
X5.3102Y-4.9409
X5.315Y-5.1181
X5.5118Y-5.1181
X5.6102Y-3.8409
X5.6102Y-3.9409
X5.6102Y-4.0409
X5.6102Y-4.1409
X5.6102Y-4.2409
X5.6102Y-4.3409
X5.6102Y-4.4409
X5.6102Y-4.5409
X5.6102Y-4.6409
X5.6102Y-4.7409
X5.6102Y-4.8409
X5.6102Y-4.9409
X5.7976Y-3.7591
X5.7976Y-3.8591
X5.7976Y-3.9591
X5.7976Y-4.0591
X5.7976Y-4.1591
X5.7976Y-4.2591
X5.7976Y-4.3591
X5.7976Y-4.4591
X5.7976Y-4.5591
X5.7976Y-4.6591
X5.7976Y-4.7591
X5.7976Y-4.8591
X5.7976Y-4.9591
X5.7976Y-5.0591
X5.8756Y-1.5157
X5.8756Y-1.6157
X5.8756Y-1.7157
X5.8756Y-1.8157
X5.8756Y-1.9157
X5.8756Y-2.0157
X5.8756Y-2.1157
X5.8756Y-2.2157
X5.8756Y-2.3157
X5.8756Y-2.4157
X5.8756Y-2.5157
X5.8756Y-2.6157
X5.8756Y-2.7157
X5.8756Y-2.8157
X5.8756Y-2.9157
X5.8756Y-3.0157
X5.8756Y-3.1157
X5.8756Y-3.2157
X5.8756Y-3.3157
X5.8756Y-3.4157
X6.063Y-2.9724
X6.063Y-3.1693
X6.1024Y-5.3543
X6.2307Y-1.515
X6.2307Y-1.615
X6.2307Y-1.715
X6.2307Y-1.815
X6.2307Y-1.915
X6.2307Y-2.015
X6.2307Y-2.115
X6.2307Y-2.215
X6.2307Y-2.315
X6.2307Y-2.415
X6.2307Y-2.515
X6.2307Y-2.615
X6.2307Y-2.715
X6.2307Y-2.815
X6.2598Y-2.8937
X6.2598Y-3.0906
X6.2992Y-5.3543
X6.3976Y-3.7591
X6.3976Y-3.8591
X6.3976Y-3.9591
X6.3976Y-4.0591
X6.3976Y-4.1591
X6.3976Y-4.2591
X6.3976Y-4.3591
X6.3976Y-4.4591
X6.3976Y-4.5591
X6.3976Y-4.6591
X6.3976Y-4.7591
X6.3976Y-4.8591
X6.3976Y-4.9591
X6.3976Y-5.0591
X6.5435Y-3.1311
X6.5435Y-3.3811
X6.5435Y-3.6311
X6.5435Y-4.0386
X6.5435Y-4.2886
X6.5435Y-4.5386
X6.7126Y-1.3583
X6.752Y-3.8386
X6.8307Y-1.515
X6.8307Y-1.615
X6.8307Y-1.715
X6.8307Y-1.815
X6.8307Y-1.915
X6.8307Y-2.015
X6.8307Y-2.115
X6.8307Y-2.215
X6.8307Y-2.315
X6.8307Y-2.415
X6.8307Y-2.515
X6.8307Y-2.615
X6.8307Y-2.715
X6.8307Y-2.815
X6.9094Y-1.3583
X6.9435Y-3.1311
X6.9435Y-3.3811
X6.9435Y-3.6311
X6.9435Y-4.0386
X6.9435Y-4.2886
X6.9435Y-4.5386
X6.9488Y-3.8386
X7.0472Y-1.3913
X7.0472Y-1.7913
X7.0472Y-1.9291
X7.0472Y-2.126
X7.126Y-2.7756
X7.126Y-3.1756
X7.126Y-3.3268
X7.126Y-3.4268
X7.126Y-3.5268
X7.126Y-3.6268
X7.126Y-3.7268
X7.126Y-3.8268
X7.126Y-3.9268
X7.126Y-4.0268
X7.126Y-4.1268
X7.126Y-4.2268
X7.126Y-4.3268
X7.126Y-4.4268
X7.126Y-4.5268
X7.126Y-4.6268
X7.126Y-4.7268
X7.126Y-4.8268
X7.126Y-4.9268
X7.126Y-5.0268
X7.126Y-5.1268
X7.126Y-5.2268
X7.1654Y-2.2441
X7.2244Y-1.4173
X7.2244Y-1.5173
X7.2244Y-1.6173
X7.2244Y-1.7173
X7.2244Y-1.8173
X7.2244Y-1.9173
X7.2244Y-2.0173
X7.2835Y-2.5591
X7.3819Y-2.7709
X7.3819Y-3.0709
X7.4803Y-2.5591
X7.5244Y-1.4173
X7.5244Y-1.5173
X7.5244Y-1.6173
X7.5244Y-1.7173
X7.5244Y-1.8173
X7.5244Y-1.9173
X7.5244Y-2.0173
X7.5654Y-2.2441
X7.6575Y-1.6142
X7.6575Y-1.7717
X7.6819Y-2.7709
X7.6819Y-3.0709
X7.7165Y-1.9094
X7.7165Y-2.3094
X7.726Y-3.3268
X7.726Y-3.4268
X7.726Y-3.5268
X7.726Y-3.6268
X7.726Y-3.7268
X7.726Y-3.8268
X7.726Y-3.9268
X7.726Y-4.0268
X7.726Y-4.1268
X7.726Y-4.2268
X7.726Y-4.3268
X7.726Y-4.4268
X7.726Y-4.5268
X7.726Y-4.6268
X7.726Y-4.7268
X7.726Y-4.8268
X7.726Y-4.9268
X7.726Y-5.0268
X7.726Y-5.1268
X7.726Y-5.2268
X7.8543Y-1.6142
X7.8543Y-1.7717
T4
X6.6142Y-4.8819
X6.6142Y-5.0819
X6.9142Y-4.8819
X6.9142Y-5.0819
T5
X2.7165Y-2.0866
X2.7165Y-5.1378
X2.7165Y-5.2378
X2.8165Y-2.0866
X2.9165Y-2.0866
T6
X2.1654Y-3.3465
X2.1654Y-3.4465
X2.1654Y-3.5465
X2.1654Y-3.6465
X2.1685Y-4.0061
X2.1685Y-4.1061
X2.1685Y-4.7811
X2.1685Y-4.8811
X2.3819Y-2.
X2.3819Y-2.1
X2.3819Y-2.2
X2.3819Y-2.3
X2.3819Y-2.4
X2.3819Y-2.5
X2.5685Y-1.5811
X2.5685Y-1.6811
X2.6685Y-1.5811
X2.6685Y-1.6811
X2.7685Y-1.5811
X2.7685Y-1.6811
X2.8685Y-1.5811
X2.8685Y-1.6811
X2.9685Y-1.5811
X2.9685Y-1.6811
X3.3685Y-1.5811
X3.3685Y-1.6811
X3.4685Y-1.5811
X3.4685Y-1.6811
X3.5685Y-1.5811
X3.5685Y-1.6811
X3.6685Y-1.5811
X3.6685Y-1.6811
X3.7685Y-1.5811
X3.7685Y-1.6811
X3.937Y-3.6614
X3.9764Y-5.3724
X3.9764Y-5.4724
X4.037Y-3.6614
X4.0764Y-5.3724
X4.0764Y-5.4724
X4.137Y-3.6614
X4.1685Y-1.5811
X4.1685Y-1.6811
X4.1764Y-5.3724
X4.1764Y-5.4724
X4.2685Y-1.5811
X4.2685Y-1.6811
X4.2764Y-5.3724
X4.2764Y-5.4724
X4.3685Y-1.5811
X4.3685Y-1.6811
X4.3764Y-5.3724
X4.3764Y-5.4724
X4.4685Y-1.5811
X4.4685Y-1.6811
X4.4764Y-5.3724
X4.4764Y-5.4724
X4.5685Y-1.5811
X4.5685Y-1.6811
X4.5764Y-5.3724
X4.5764Y-5.4724
X4.6764Y-5.3724
X4.6764Y-5.4724
X4.7764Y-5.3724
X4.7764Y-5.4724
X4.8764Y-5.3724
X4.8764Y-5.4724
X4.9764Y-5.3724
X4.9764Y-5.4724
X5.0591Y-2.4575
X5.0591Y-2.5575
X5.0591Y-2.6575
X5.0764Y-5.3724
X5.0764Y-5.4724
X5.1764Y-5.3724
X5.1764Y-5.4724
X5.2764Y-5.3724
X5.2764Y-5.4724
X5.3764Y-5.3724
X5.3764Y-5.4724
X5.4764Y-5.3724
X5.4764Y-5.4724
X5.5764Y-5.3724
X5.5764Y-5.4724
X5.6764Y-5.3724
X5.6764Y-5.4724
X5.7764Y-5.3724
X5.7764Y-5.4724
X5.8764Y-5.3724
X5.8764Y-5.4724
X7.126Y-2.4181
X7.126Y-2.5181
X7.126Y-2.6181
T7
X7.8937Y-2.0276
X7.8937Y-2.1276
X7.8937Y-2.2276
T8
X2.1654Y-1.378
X2.1654Y-5.4724
X7.874Y-1.378
X7.874Y-5.4724
T0
M30
