G04 #@! TF.FileFunction,Soldermask,Bot*
%FSLAX46Y46*%
G04 Gerber Fmt 4.6, Leading zero omitted, Abs format (unit mm)*
G04 Created by KiCad (PCBNEW 4.0.7) date 11/10/19 12:42:26*
%MOMM*%
%LPD*%
G01*
G04 APERTURE LIST*
%ADD10C,0.100000*%
%ADD11C,1.924000*%
%ADD12C,3.600000*%
%ADD13C,2.000000*%
%ADD14R,2.000000X2.000000*%
%ADD15R,2.100000X2.100000*%
%ADD16O,2.100000X2.100000*%
%ADD17O,2.000000X2.000000*%
%ADD18C,1.797000*%
%ADD19R,2.200000X2.200000*%
%ADD20C,2.200000*%
%ADD21C,2.400000*%
G04 APERTURE END LIST*
D10*
D11*
X189000000Y-87270000D03*
X113500000Y-50770000D03*
X171000000Y-133270000D03*
X195500000Y-64270000D03*
X90000000Y-61770000D03*
X57500000Y-118270000D03*
X59000000Y-132270000D03*
D12*
X55000000Y-35000000D03*
X200000000Y-35000000D03*
X200000000Y-139000000D03*
X55000000Y-139000000D03*
D13*
X176500000Y-97500000D03*
X171500000Y-97500000D03*
X87500000Y-89500000D03*
X82500000Y-89500000D03*
X154000000Y-75500000D03*
X154000000Y-80500000D03*
X140000000Y-130000000D03*
X135000000Y-130000000D03*
X102500000Y-63000000D03*
X102500000Y-58000000D03*
X89000000Y-127500000D03*
X84000000Y-127500000D03*
X128000000Y-77000000D03*
X128000000Y-82000000D03*
X160000000Y-136000000D03*
X155000000Y-136000000D03*
X117000000Y-102500000D03*
X112000000Y-102500000D03*
X73000000Y-119000000D03*
X73000000Y-124000000D03*
D14*
X66500000Y-120000000D03*
D13*
X64000000Y-120000000D03*
D14*
X115000000Y-95500000D03*
D13*
X112500000Y-95500000D03*
D14*
X94000000Y-133500000D03*
D13*
X94000000Y-131000000D03*
D15*
X65240000Y-42700000D03*
D16*
X65240000Y-40160000D03*
X67780000Y-42700000D03*
X67780000Y-40160000D03*
X70320000Y-42700000D03*
X70320000Y-40160000D03*
X72860000Y-42700000D03*
X72860000Y-40160000D03*
X75400000Y-42700000D03*
X75400000Y-40160000D03*
D15*
X85560000Y-42700000D03*
D16*
X85560000Y-40160000D03*
X88100000Y-42700000D03*
X88100000Y-40160000D03*
X90640000Y-42700000D03*
X90640000Y-40160000D03*
X93180000Y-42700000D03*
X93180000Y-40160000D03*
X95720000Y-42700000D03*
X95720000Y-40160000D03*
D15*
X105880000Y-42700000D03*
D16*
X105880000Y-40160000D03*
X108420000Y-42700000D03*
X108420000Y-40160000D03*
X110960000Y-42700000D03*
X110960000Y-40160000D03*
X113500000Y-42700000D03*
X113500000Y-40160000D03*
X116040000Y-42700000D03*
X116040000Y-40160000D03*
D15*
X55080000Y-104295000D03*
D16*
X55080000Y-101755000D03*
D15*
X101000000Y-139000000D03*
D16*
X101000000Y-136460000D03*
X103540000Y-139000000D03*
X103540000Y-136460000D03*
X106080000Y-139000000D03*
X106080000Y-136460000D03*
X108620000Y-139000000D03*
X108620000Y-136460000D03*
X111160000Y-139000000D03*
X111160000Y-136460000D03*
X113700000Y-139000000D03*
X113700000Y-136460000D03*
X116240000Y-139000000D03*
X116240000Y-136460000D03*
X118780000Y-139000000D03*
X118780000Y-136460000D03*
X121320000Y-139000000D03*
X121320000Y-136460000D03*
X123860000Y-139000000D03*
X123860000Y-136460000D03*
X126400000Y-139000000D03*
X126400000Y-136460000D03*
X128940000Y-139000000D03*
X128940000Y-136460000D03*
X131480000Y-139000000D03*
X131480000Y-136460000D03*
X134020000Y-139000000D03*
X134020000Y-136460000D03*
X136560000Y-139000000D03*
X136560000Y-136460000D03*
X139100000Y-139000000D03*
X139100000Y-136460000D03*
X141640000Y-139000000D03*
X141640000Y-136460000D03*
X144180000Y-139000000D03*
X144180000Y-136460000D03*
X146720000Y-139000000D03*
X146720000Y-136460000D03*
X149260000Y-139000000D03*
X149260000Y-136460000D03*
D15*
X55080000Y-123980000D03*
D16*
X55080000Y-121440000D03*
D13*
X166205000Y-92230000D03*
D17*
X176365000Y-92230000D03*
D13*
X166205000Y-85880000D03*
D17*
X176365000Y-85880000D03*
D13*
X82500000Y-50500000D03*
D17*
X92660000Y-50500000D03*
D13*
X166205000Y-79530000D03*
D17*
X176365000Y-79530000D03*
D13*
X181000000Y-70500000D03*
D17*
X181000000Y-80660000D03*
D13*
X166205000Y-102580000D03*
D17*
X176365000Y-102580000D03*
D13*
X166205000Y-115280000D03*
D17*
X176365000Y-115280000D03*
D13*
X166205000Y-108930000D03*
D17*
X176365000Y-108930000D03*
D13*
X61000000Y-102000000D03*
D17*
X61000000Y-112160000D03*
D13*
X61000000Y-88000000D03*
D17*
X61000000Y-98160000D03*
D18*
X175620000Y-124000000D03*
X175620000Y-129080000D03*
X168000000Y-124000000D03*
X168000000Y-129080000D03*
D14*
X187500000Y-78000000D03*
D13*
X187500000Y-70380000D03*
X195120000Y-70380000D03*
X195120000Y-78000000D03*
D14*
X181000000Y-84500000D03*
D17*
X196240000Y-132760000D03*
X181000000Y-87040000D03*
X196240000Y-130220000D03*
X181000000Y-89580000D03*
X196240000Y-127680000D03*
X181000000Y-92120000D03*
X196240000Y-125140000D03*
X181000000Y-94660000D03*
X196240000Y-122600000D03*
X181000000Y-97200000D03*
X196240000Y-120060000D03*
X181000000Y-99740000D03*
X196240000Y-117520000D03*
X181000000Y-102280000D03*
X196240000Y-114980000D03*
X181000000Y-104820000D03*
X196240000Y-112440000D03*
X181000000Y-107360000D03*
X196240000Y-109900000D03*
X181000000Y-109900000D03*
X196240000Y-107360000D03*
X181000000Y-112440000D03*
X196240000Y-104820000D03*
X181000000Y-114980000D03*
X196240000Y-102280000D03*
X181000000Y-117520000D03*
X196240000Y-99740000D03*
X181000000Y-120060000D03*
X196240000Y-97200000D03*
X181000000Y-122600000D03*
X196240000Y-94660000D03*
X181000000Y-125140000D03*
X196240000Y-92120000D03*
X181000000Y-127680000D03*
X196240000Y-89580000D03*
X181000000Y-130220000D03*
X196240000Y-87040000D03*
X181000000Y-132760000D03*
X196240000Y-84500000D03*
D14*
X83000000Y-56500000D03*
D17*
X98240000Y-84440000D03*
X83000000Y-59040000D03*
X98240000Y-81900000D03*
X83000000Y-61580000D03*
X98240000Y-79360000D03*
X83000000Y-64120000D03*
X98240000Y-76820000D03*
X83000000Y-66660000D03*
X98240000Y-74280000D03*
X83000000Y-69200000D03*
X98240000Y-71740000D03*
X83000000Y-71740000D03*
X98240000Y-69200000D03*
X83000000Y-74280000D03*
X98240000Y-66660000D03*
X83000000Y-76820000D03*
X98240000Y-64120000D03*
X83000000Y-79360000D03*
X98240000Y-61580000D03*
X83000000Y-81900000D03*
X98240000Y-59040000D03*
X83000000Y-84440000D03*
X98240000Y-56500000D03*
D14*
X69000000Y-85000000D03*
D13*
X69000000Y-77380000D03*
X76620000Y-77380000D03*
X76620000Y-85000000D03*
D14*
X134000000Y-38500000D03*
D17*
X149240000Y-86760000D03*
X134000000Y-41040000D03*
X149240000Y-84220000D03*
X134000000Y-43580000D03*
X149240000Y-81680000D03*
X134000000Y-46120000D03*
X149240000Y-79140000D03*
X134000000Y-48660000D03*
X149240000Y-76600000D03*
X134000000Y-51200000D03*
X149240000Y-74060000D03*
X134000000Y-53740000D03*
X149240000Y-71520000D03*
X134000000Y-56280000D03*
X149240000Y-68980000D03*
X134000000Y-58820000D03*
X149240000Y-66440000D03*
X134000000Y-61360000D03*
X149240000Y-63900000D03*
X134000000Y-63900000D03*
X149240000Y-61360000D03*
X134000000Y-66440000D03*
X149240000Y-58820000D03*
X134000000Y-68980000D03*
X149240000Y-56280000D03*
X134000000Y-71520000D03*
X149240000Y-53740000D03*
X134000000Y-74060000D03*
X149240000Y-51200000D03*
X134000000Y-76600000D03*
X149240000Y-48660000D03*
X134000000Y-79140000D03*
X149240000Y-46120000D03*
X134000000Y-81680000D03*
X149240000Y-43580000D03*
X134000000Y-84220000D03*
X149240000Y-41040000D03*
X134000000Y-86760000D03*
X149240000Y-38500000D03*
D14*
X142500000Y-125500000D03*
D17*
X134880000Y-97560000D03*
X142500000Y-122960000D03*
X134880000Y-100100000D03*
X142500000Y-120420000D03*
X134880000Y-102640000D03*
X142500000Y-117880000D03*
X134880000Y-105180000D03*
X142500000Y-115340000D03*
X134880000Y-107720000D03*
X142500000Y-112800000D03*
X134880000Y-110260000D03*
X142500000Y-110260000D03*
X134880000Y-112800000D03*
X142500000Y-107720000D03*
X134880000Y-115340000D03*
X142500000Y-105180000D03*
X134880000Y-117880000D03*
X142500000Y-102640000D03*
X134880000Y-120420000D03*
X142500000Y-100100000D03*
X134880000Y-122960000D03*
X142500000Y-97560000D03*
X134880000Y-125500000D03*
D14*
X79000000Y-94000000D03*
D17*
X94240000Y-121940000D03*
X79000000Y-96540000D03*
X94240000Y-119400000D03*
X79000000Y-99080000D03*
X94240000Y-116860000D03*
X79000000Y-101620000D03*
X94240000Y-114320000D03*
X79000000Y-104160000D03*
X94240000Y-111780000D03*
X79000000Y-106700000D03*
X94240000Y-109240000D03*
X79000000Y-109240000D03*
X94240000Y-106700000D03*
X79000000Y-111780000D03*
X94240000Y-104160000D03*
X79000000Y-114320000D03*
X94240000Y-101620000D03*
X79000000Y-116860000D03*
X94240000Y-99080000D03*
X79000000Y-119400000D03*
X94240000Y-96540000D03*
X79000000Y-121940000D03*
X94240000Y-94000000D03*
D14*
X107000000Y-56500000D03*
D17*
X122240000Y-84440000D03*
X107000000Y-59040000D03*
X122240000Y-81900000D03*
X107000000Y-61580000D03*
X122240000Y-79360000D03*
X107000000Y-64120000D03*
X122240000Y-76820000D03*
X107000000Y-66660000D03*
X122240000Y-74280000D03*
X107000000Y-69200000D03*
X122240000Y-71740000D03*
X107000000Y-71740000D03*
X122240000Y-69200000D03*
X107000000Y-74280000D03*
X122240000Y-66660000D03*
X107000000Y-76820000D03*
X122240000Y-64120000D03*
X107000000Y-79360000D03*
X122240000Y-61580000D03*
X107000000Y-81900000D03*
X122240000Y-59040000D03*
X107000000Y-84440000D03*
X122240000Y-56500000D03*
D14*
X173500000Y-71500000D03*
D17*
X158260000Y-38480000D03*
X173500000Y-68960000D03*
X158260000Y-41020000D03*
X173500000Y-66420000D03*
X158260000Y-43560000D03*
X173500000Y-63880000D03*
X158260000Y-46100000D03*
X173500000Y-61340000D03*
X158260000Y-48640000D03*
X173500000Y-58800000D03*
X158260000Y-51180000D03*
X173500000Y-56260000D03*
X158260000Y-53720000D03*
X173500000Y-53720000D03*
X158260000Y-56260000D03*
X173500000Y-51180000D03*
X158260000Y-58800000D03*
X173500000Y-48640000D03*
X158260000Y-61340000D03*
X173500000Y-46100000D03*
X158260000Y-63880000D03*
X173500000Y-43560000D03*
X158260000Y-66420000D03*
X173500000Y-41020000D03*
X158260000Y-68960000D03*
X173500000Y-38480000D03*
X158260000Y-71500000D03*
D14*
X162500000Y-128500000D03*
D17*
X147260000Y-95480000D03*
X162500000Y-125960000D03*
X147260000Y-98020000D03*
X162500000Y-123420000D03*
X147260000Y-100560000D03*
X162500000Y-120880000D03*
X147260000Y-103100000D03*
X162500000Y-118340000D03*
X147260000Y-105640000D03*
X162500000Y-115800000D03*
X147260000Y-108180000D03*
X162500000Y-113260000D03*
X147260000Y-110720000D03*
X162500000Y-110720000D03*
X147260000Y-113260000D03*
X162500000Y-108180000D03*
X147260000Y-115800000D03*
X162500000Y-105640000D03*
X147260000Y-118340000D03*
X162500000Y-103100000D03*
X147260000Y-120880000D03*
X162500000Y-100560000D03*
X147260000Y-123420000D03*
X162500000Y-98020000D03*
X147260000Y-125960000D03*
X162500000Y-95480000D03*
X147260000Y-128500000D03*
D14*
X66500000Y-93000000D03*
D17*
X74120000Y-108240000D03*
X66500000Y-95540000D03*
X74120000Y-105700000D03*
X66500000Y-98080000D03*
X74120000Y-103160000D03*
X66500000Y-100620000D03*
X74120000Y-100620000D03*
X66500000Y-103160000D03*
X74120000Y-98080000D03*
X66500000Y-105700000D03*
X74120000Y-95540000D03*
X66500000Y-108240000D03*
X74120000Y-93000000D03*
D15*
X60500000Y-63500000D03*
D16*
X60500000Y-60960000D03*
X60500000Y-58420000D03*
X60500000Y-55880000D03*
X60500000Y-53340000D03*
X60500000Y-50800000D03*
D15*
X100000000Y-93000000D03*
D16*
X102540000Y-93000000D03*
X105080000Y-93000000D03*
D13*
X127000000Y-125000000D03*
X122000000Y-125000000D03*
X179000000Y-49000000D03*
X179000000Y-54000000D03*
X175500000Y-34500000D03*
X170500000Y-34500000D03*
X105000000Y-102500000D03*
X100000000Y-102500000D03*
X194500000Y-45000000D03*
X199500000Y-45000000D03*
X194500000Y-41000000D03*
X199500000Y-41000000D03*
D19*
X69000000Y-130500000D03*
D20*
X69000000Y-133040000D03*
D19*
X69000000Y-53000000D03*
D20*
X71540000Y-53000000D03*
X74080000Y-53000000D03*
D15*
X55000000Y-85000000D03*
D16*
X55000000Y-87540000D03*
X55000000Y-90080000D03*
X55000000Y-92620000D03*
D15*
X128500000Y-67500000D03*
D16*
X128500000Y-64960000D03*
X128500000Y-62420000D03*
D15*
X181000000Y-66500000D03*
D16*
X181000000Y-63960000D03*
X181000000Y-61420000D03*
D13*
X179000000Y-45500000D03*
D17*
X179000000Y-35340000D03*
D13*
X182000000Y-57000000D03*
D17*
X192160000Y-57000000D03*
D13*
X78500000Y-134000000D03*
D17*
X88660000Y-134000000D03*
D13*
X196000000Y-48500000D03*
D17*
X196000000Y-58660000D03*
D13*
X69000000Y-69000000D03*
D17*
X69000000Y-58840000D03*
D13*
X74000000Y-69000000D03*
D17*
X74000000Y-58840000D03*
D14*
X130000000Y-120500000D03*
D17*
X122380000Y-97640000D03*
X130000000Y-117960000D03*
X122380000Y-100180000D03*
X130000000Y-115420000D03*
X122380000Y-102720000D03*
X130000000Y-112880000D03*
X122380000Y-105260000D03*
X130000000Y-110340000D03*
X122380000Y-107800000D03*
X130000000Y-107800000D03*
X122380000Y-110340000D03*
X130000000Y-105260000D03*
X122380000Y-112880000D03*
X130000000Y-102720000D03*
X122380000Y-115420000D03*
X130000000Y-100180000D03*
X122380000Y-117960000D03*
X130000000Y-97640000D03*
X122380000Y-120500000D03*
D14*
X183500000Y-36000000D03*
D17*
X191120000Y-51240000D03*
X183500000Y-38540000D03*
X191120000Y-48700000D03*
X183500000Y-41080000D03*
X191120000Y-46160000D03*
X183500000Y-43620000D03*
X191120000Y-43620000D03*
X183500000Y-46160000D03*
X191120000Y-41080000D03*
X183500000Y-48700000D03*
X191120000Y-38540000D03*
X183500000Y-51240000D03*
X191120000Y-36000000D03*
D14*
X110500000Y-107000000D03*
D17*
X118120000Y-124780000D03*
X110500000Y-109540000D03*
X118120000Y-122240000D03*
X110500000Y-112080000D03*
X118120000Y-119700000D03*
X110500000Y-114620000D03*
X118120000Y-117160000D03*
X110500000Y-117160000D03*
X118120000Y-114620000D03*
X110500000Y-119700000D03*
X118120000Y-112080000D03*
X110500000Y-122240000D03*
X118120000Y-109540000D03*
X110500000Y-124780000D03*
X118120000Y-107000000D03*
D14*
X98500000Y-107000000D03*
D17*
X106120000Y-122240000D03*
X98500000Y-109540000D03*
X106120000Y-119700000D03*
X98500000Y-112080000D03*
X106120000Y-117160000D03*
X98500000Y-114620000D03*
X106120000Y-114620000D03*
X98500000Y-117160000D03*
X106120000Y-112080000D03*
X98500000Y-119700000D03*
X106120000Y-109540000D03*
X98500000Y-122240000D03*
X106120000Y-107000000D03*
D21*
X200500000Y-54040000D03*
X200500000Y-56580000D03*
X200500000Y-51500000D03*
D13*
X159000000Y-78500000D03*
X159000000Y-73500000D03*
X190000000Y-65000000D03*
X185000000Y-65000000D03*
X63000000Y-79000000D03*
X63000000Y-84000000D03*
D11*
X59000000Y-44270000D03*
X151000000Y-35270000D03*
M02*
