M48
;DRILL file {KiCad 4.0.7} date 09/13/18 13:31:26
;FORMAT={2:4/ absolute / inch / suppress leading zeros}
FMAT,2
INCH,TZ
T1C0.016
T2C0.030
T3C0.031
T4C0.032
T5C0.039
T6C0.126
%
G90
G05
M72
T1
X35080Y-46155
X36614Y-35518
X40396Y-50109
X42615Y-32601
X46033Y-17273
X47548Y-29563
X47824Y-23731
X48279Y-44812
X49264Y-45393
X49729Y-37626
X49957Y-25656
X51584Y-28157
X51940Y-30657
X53341Y-42872
X54098Y-23406
X54330Y-37857
X55172Y-43859
X55259Y-54407
X56079Y-52931
X56481Y-26147
X56490Y-26722
X56935Y-34686
X56953Y-31777
X57211Y-29788
X57607Y-29774
X57608Y-28766
X57614Y-31093
X57633Y-33596
X58093Y-33343
X58402Y-51431
X58407Y-51835
X59997Y-55409
X60022Y-52468
X60735Y-44925
X60779Y-48542
X66682Y-36675
X67042Y-53511
X69597Y-36865
X69603Y-22754
X69782Y-34811
X69861Y-35368
T2
X21063Y-46654
X21654Y-46654
X22244Y-46654
X23228Y-15354
X34843Y-24606
X45276Y-47835
X46654Y-40748
X77362Y-15354
X77362Y-53543
T3
X24435Y-34561
X24435Y-38561
X24435Y-40061
X24435Y-44061
X24803Y-31102
X24803Y-32087
X25394Y-48228
X26378Y-48228
X26772Y-19882
X26772Y-20882
X26772Y-21882
X26772Y-22882
X26772Y-23882
X26772Y-24882
X26772Y-25882
X26935Y-37561
X26935Y-38561
X26935Y-39561
X26935Y-40561
X26935Y-41561
X26935Y-42561
X26935Y-43561
X27165Y-30465
X27165Y-33465
X29185Y-47061
X29185Y-49030
X29772Y-19882
X29772Y-20882
X29772Y-21882
X29772Y-22882
X29772Y-23882
X29772Y-24882
X29772Y-25882
X29935Y-37561
X29935Y-38561
X29935Y-39561
X29935Y-40561
X29935Y-41561
X29935Y-42561
X29935Y-43561
X30165Y-30465
X30165Y-33465
X31299Y-18898
X31299Y-20866
X32480Y-19882
X32480Y-35236
X32677Y-22244
X32677Y-23244
X32677Y-24244
X32677Y-25244
X32677Y-26244
X32677Y-27244
X32677Y-28244
X32677Y-29244
X32677Y-30244
X32677Y-31244
X32677Y-32244
X32677Y-33244
X34449Y-35236
X34646Y-37598
X34646Y-38598
X34646Y-39598
X34646Y-40598
X34646Y-41598
X34646Y-42598
X34646Y-43598
X34646Y-44598
X34646Y-45598
X34646Y-46598
X34646Y-47598
X34646Y-48598
X36480Y-19882
X38677Y-22244
X38677Y-23244
X38677Y-24244
X38677Y-25244
X38677Y-26244
X38677Y-27244
X38677Y-28244
X38677Y-29244
X38677Y-30244
X38677Y-31244
X38677Y-32244
X38677Y-33244
X38976Y-19882
X40354Y-22835
X40354Y-24803
X40646Y-37598
X40646Y-38598
X40646Y-39598
X40646Y-40598
X40646Y-41598
X40646Y-42598
X40646Y-43598
X40646Y-44598
X40646Y-45598
X40646Y-46598
X40646Y-47598
X40646Y-48598
X42126Y-22244
X42126Y-23244
X42126Y-24244
X42126Y-25244
X42126Y-26244
X42126Y-27244
X42126Y-28244
X42126Y-29244
X42126Y-30244
X42126Y-31244
X42126Y-32244
X42126Y-33244
X42520Y-45472
X42520Y-47441
X42976Y-19882
X47185Y-46311
X48126Y-22244
X48126Y-23244
X48126Y-24244
X48126Y-25244
X48126Y-26244
X48126Y-27244
X48126Y-28244
X48126Y-29244
X48126Y-30244
X48126Y-31244
X48126Y-32244
X48126Y-33244
X48169Y-46311
X48425Y-48819
X48425Y-50787
X50394Y-28543
X50394Y-30512
X50591Y-50984
X50591Y-51969
X50935Y-38311
X50935Y-39311
X50935Y-40311
X50935Y-41311
X50935Y-42311
X50935Y-43311
X50935Y-44311
X50935Y-45311
X50935Y-46311
X50935Y-47311
X50935Y-48311
X50935Y-49311
X53346Y-15157
X53346Y-16157
X53346Y-17157
X53346Y-18157
X53346Y-19157
X53346Y-20157
X53346Y-21157
X53346Y-22157
X53346Y-23157
X53346Y-24157
X53346Y-25157
X53346Y-26157
X53346Y-27157
X53346Y-28157
X53346Y-29157
X53346Y-30157
X53346Y-31157
X53346Y-32157
X53346Y-33157
X53346Y-34157
X53935Y-38311
X53935Y-39311
X53935Y-40311
X53935Y-41311
X53935Y-42311
X53935Y-43311
X53935Y-44311
X53935Y-45311
X53935Y-46311
X53935Y-47311
X53935Y-48311
X53935Y-49311
X56935Y-37561
X56935Y-38561
X56935Y-39561
X56935Y-40561
X56935Y-41561
X56935Y-42561
X56935Y-43561
X56935Y-44561
X56935Y-45561
X56935Y-46561
X56935Y-47561
X56935Y-48561
X56935Y-49561
X56935Y-50561
X59346Y-15157
X59346Y-16157
X59346Y-17157
X59346Y-18157
X59346Y-19157
X59346Y-20157
X59346Y-21157
X59346Y-22157
X59346Y-23157
X59346Y-24157
X59346Y-25157
X59346Y-26157
X59346Y-27157
X59346Y-28157
X59346Y-29157
X59346Y-30157
X59346Y-31157
X59346Y-32157
X59346Y-33157
X59346Y-34157
X61024Y-52362
X61220Y-29331
X61220Y-31299
X62685Y-15311
X62685Y-16311
X62685Y-17311
X62685Y-18311
X62685Y-19311
X62685Y-20311
X62685Y-21311
X62685Y-22311
X62685Y-23311
X62685Y-24311
X62685Y-25311
X62685Y-26311
X62685Y-27311
X62685Y-28311
X62935Y-37561
X62935Y-38561
X62935Y-39561
X62935Y-40561
X62935Y-41561
X62935Y-42561
X62935Y-43561
X62935Y-44561
X62935Y-45561
X62935Y-46561
X62935Y-47561
X62935Y-48561
X62935Y-49561
X62935Y-50561
X62992Y-52362
X63583Y-29921
X64567Y-29921
X65435Y-31311
X65435Y-33811
X65435Y-36311
X65435Y-40386
X65435Y-42886
X65435Y-45386
X67520Y-38386
X68685Y-15311
X68685Y-16311
X68685Y-17311
X68685Y-18311
X68685Y-19311
X68685Y-20311
X68685Y-21311
X68685Y-22311
X68685Y-23311
X68685Y-24311
X68685Y-25311
X68685Y-26311
X68685Y-27311
X68685Y-28311
X69435Y-31311
X69435Y-33811
X69435Y-36311
X69435Y-40386
X69435Y-42886
X69435Y-45386
X69488Y-38386
X71185Y-26561
X71185Y-30561
X71185Y-31811
X71185Y-32811
X71185Y-33811
X71185Y-34811
X71185Y-35811
X71185Y-36811
X71185Y-37811
X71185Y-38811
X71185Y-39811
X71185Y-40811
X71185Y-41811
X71185Y-42811
X71185Y-43811
X71185Y-44811
X71185Y-45811
X71185Y-46811
X71185Y-47811
X71185Y-48811
X71185Y-49811
X71185Y-50811
X73685Y-25811
X73685Y-28811
X73819Y-23228
X74803Y-23228
X76685Y-25811
X76685Y-28811
X77185Y-31811
X77185Y-32811
X77185Y-33811
X77185Y-34811
X77185Y-35811
X77185Y-36811
X77185Y-37811
X77185Y-38811
X77185Y-39811
X77185Y-40811
X77185Y-41811
X77185Y-42811
X77185Y-43811
X77185Y-44811
X77185Y-45811
X77185Y-46811
X77185Y-47811
X77185Y-48811
X77185Y-49811
X77185Y-50811
T4
X72935Y-17311
X72935Y-20311
X74935Y-17311
X74935Y-20311
T5
X21685Y-40061
X21685Y-41061
X21685Y-47811
X21685Y-48811
X23819Y-20000
X23819Y-21000
X23819Y-22000
X23819Y-23000
X23819Y-24000
X23819Y-25000
X25000Y-52165
X25685Y-15811
X25685Y-16811
X26685Y-15811
X26685Y-16811
X27685Y-15811
X27685Y-16811
X28346Y-52165
X28685Y-15811
X28685Y-16811
X29685Y-15811
X29685Y-16811
X31935Y-46811
X32435Y-52061
X32935Y-46811
X33685Y-15811
X33685Y-16811
X34435Y-52061
X34685Y-15811
X34685Y-16811
X35685Y-15811
X35685Y-16811
X36685Y-15811
X36685Y-16811
X37685Y-15811
X37685Y-16811
X39764Y-53724
X39764Y-54724
X40764Y-53724
X40764Y-54724
X41535Y-50787
X41685Y-15811
X41685Y-16811
X41764Y-53724
X41764Y-54724
X42535Y-50787
X42685Y-15811
X42685Y-16811
X42764Y-53724
X42764Y-54724
X43535Y-50787
X43685Y-15811
X43685Y-16811
X43764Y-53724
X43764Y-54724
X44535Y-50787
X44685Y-15811
X44685Y-16811
X44685Y-40354
X44685Y-41354
X44685Y-42354
X44764Y-53724
X44764Y-54724
X45685Y-15811
X45685Y-16811
X45764Y-53724
X45764Y-54724
X46063Y-36811
X46764Y-53724
X46764Y-54724
X47764Y-53724
X47764Y-54724
X48764Y-53724
X48764Y-54724
X49764Y-53724
X49764Y-54724
X50764Y-53724
X50764Y-54724
X51764Y-53724
X51764Y-54724
X52764Y-53724
X52764Y-54724
X53764Y-53724
X53764Y-54724
X54764Y-53724
X54764Y-54724
X55764Y-53724
X55764Y-54724
X56764Y-53724
X56764Y-54724
X57764Y-53724
X57764Y-54724
X58764Y-53724
X58764Y-54724
T6
X21654Y-13780
X21654Y-54724
X78740Y-13780
X78740Y-54724
T0
M30
