M48
;DRILL file {KiCad 4.0.7} date 10/14/18 11:21:33
;FORMAT={-:-/ absolute / metric / decimal}
FMAT,2
METRIC,TZ
T1C0.400
T2C0.762
T3C0.800
T4C0.813
T5C1.000
T6C3.200
%
G90
G05
M71
T1
X97.242Y-94.053
X99.132Y-115.709
X112.804Y-83.558
X113.336Y-89.365
X116.947Y-63.026
X118.768Y-83.054
X119.105Y-63.393
X119.503Y-84.075
X119.913Y-86.74
X121.509Y-75.55
X123.241Y-134.333
X132.068Y-134.666
X133.607Y-134.999
X138.938Y-80.136
X139.963Y-60.03
X140.371Y-111.703
X143.911Y-59.611
X144.03Y-74.126
X144.761Y-78.948
X145.33Y-72.826
X146.203Y-71.788
X146.265Y-85.416
X146.939Y-70.199
X146.99Y-82.828
X150.725Y-139.383
X152.245Y-123.285
X152.297Y-120.805
X153.132Y-135.282
X153.531Y-118.265
X158.342Y-140.39
X161.138Y-56.09
X165.676Y-99.197
X171.34Y-94.056
X172.54Y-120.17
X173.822Y-93.385
X177.278Y-77.258
T2
X53.Y-118.27
X54.5Y-118.27
X58.Y-38.27
X58.Y-135.77
X90.5Y-62.27
X143.5Y-45.77
X187.Y-82.77
X197.Y-38.27
X197.Y-135.77
T3
X62.065Y-87.785
X62.065Y-97.945
X62.065Y-101.755
X62.065Y-111.915
X63.Y-79.
X63.Y-81.5
X64.5Y-122.5
X67.Y-122.5
X68.Y-50.5
X68.Y-53.04
X68.Y-55.58
X68.Y-58.12
X68.Y-60.66
X68.Y-63.2
X68.Y-65.74
X68.415Y-95.405
X68.415Y-97.945
X68.415Y-100.485
X68.415Y-103.025
X68.415Y-105.565
X68.415Y-108.105
X68.415Y-110.645
X69.Y-77.38
X69.Y-85.
X74.13Y-119.535
X74.13Y-124.535
X75.62Y-50.5
X75.62Y-53.04
X75.62Y-55.58
X75.62Y-58.12
X75.62Y-60.66
X75.62Y-63.2
X75.62Y-65.74
X76.035Y-95.405
X76.035Y-97.945
X76.035Y-100.485
X76.035Y-103.025
X76.035Y-105.565
X76.035Y-108.105
X76.035Y-110.645
X76.62Y-77.38
X76.62Y-85.
X79.5Y-48.
X79.5Y-53.
X82.5Y-50.5
X82.5Y-89.5
X83.Y-56.5
X83.Y-59.04
X83.Y-61.58
X83.Y-64.12
X83.Y-66.66
X83.Y-69.2
X83.Y-71.74
X83.Y-74.28
X83.Y-76.82
X83.Y-79.36
X83.Y-81.9
X83.Y-84.44
X87.5Y-89.5
X88.Y-95.5
X88.Y-98.04
X88.Y-100.58
X88.Y-103.12
X88.Y-105.66
X88.Y-108.2
X88.Y-110.74
X88.Y-113.28
X88.Y-115.82
X88.Y-118.36
X88.Y-120.9
X88.Y-123.44
X92.66Y-50.5
X98.24Y-56.5
X98.24Y-59.04
X98.24Y-61.58
X98.24Y-64.12
X98.24Y-66.66
X98.24Y-69.2
X98.24Y-71.74
X98.24Y-74.28
X98.24Y-76.82
X98.24Y-79.36
X98.24Y-81.9
X98.24Y-84.44
X102.5Y-58.
X102.5Y-63.
X103.24Y-95.5
X103.24Y-98.04
X103.24Y-100.58
X103.24Y-103.12
X103.24Y-105.66
X103.24Y-108.2
X103.24Y-110.74
X103.24Y-113.28
X103.24Y-115.82
X103.24Y-118.36
X103.24Y-120.9
X103.24Y-123.44
X107.Y-56.5
X107.Y-59.04
X107.Y-61.58
X107.Y-64.12
X107.Y-66.66
X107.Y-69.2
X107.Y-71.74
X107.Y-74.28
X107.Y-76.82
X107.Y-79.36
X107.Y-81.9
X107.Y-84.44
X108.Y-115.5
X108.Y-120.5
X119.85Y-117.63
X122.24Y-56.5
X122.24Y-59.04
X122.24Y-61.58
X122.24Y-64.12
X122.24Y-66.66
X122.24Y-69.2
X122.24Y-71.74
X122.24Y-74.28
X122.24Y-76.82
X122.24Y-79.36
X122.24Y-81.9
X122.24Y-84.44
X122.35Y-117.63
X123.Y-124.
X123.Y-129.
X128.Y-72.5
X128.Y-77.5
X128.5Y-129.5
X128.5Y-132.
X129.375Y-97.31
X129.375Y-99.85
X129.375Y-102.39
X129.375Y-104.93
X129.375Y-107.47
X129.375Y-110.01
X129.375Y-112.55
X129.375Y-115.09
X129.375Y-117.63
X129.375Y-120.17
X129.375Y-122.71
X129.375Y-125.25
X135.5Y-38.5
X135.5Y-41.04
X135.5Y-43.58
X135.5Y-46.12
X135.5Y-48.66
X135.5Y-51.2
X135.5Y-53.74
X135.5Y-56.28
X135.5Y-58.82
X135.5Y-61.36
X135.5Y-63.9
X135.5Y-66.44
X135.5Y-68.98
X135.5Y-71.52
X135.5Y-74.06
X135.5Y-76.6
X135.5Y-79.14
X135.5Y-81.68
X135.5Y-84.22
X135.5Y-86.76
X136.995Y-97.31
X136.995Y-99.85
X136.995Y-102.39
X136.995Y-104.93
X136.995Y-107.47
X136.995Y-110.01
X136.995Y-112.55
X136.995Y-115.09
X136.995Y-117.63
X136.995Y-120.17
X136.995Y-122.71
X136.995Y-125.25
X144.615Y-95.405
X144.615Y-97.945
X144.615Y-100.485
X144.615Y-103.025
X144.615Y-105.565
X144.615Y-108.105
X144.615Y-110.645
X144.615Y-113.185
X144.615Y-115.725
X144.615Y-118.265
X144.615Y-120.805
X144.615Y-123.345
X144.615Y-125.885
X144.615Y-128.425
X150.74Y-38.5
X150.74Y-41.04
X150.74Y-43.58
X150.74Y-46.12
X150.74Y-48.66
X150.74Y-51.2
X150.74Y-53.74
X150.74Y-56.28
X150.74Y-58.82
X150.74Y-61.36
X150.74Y-63.9
X150.74Y-66.44
X150.74Y-68.98
X150.74Y-71.52
X150.74Y-74.06
X150.74Y-76.6
X150.74Y-79.14
X150.74Y-81.68
X150.74Y-84.22
X150.74Y-86.76
X155.Y-133.
X155.5Y-74.5
X155.5Y-79.5
X159.22Y-38.89
X159.22Y-41.43
X159.22Y-43.97
X159.22Y-46.51
X159.22Y-49.05
X159.22Y-51.59
X159.22Y-54.13
X159.22Y-56.67
X159.22Y-59.21
X159.22Y-61.75
X159.22Y-64.29
X159.22Y-66.83
X159.22Y-69.37
X159.22Y-71.91
X159.855Y-95.405
X159.855Y-97.945
X159.855Y-100.485
X159.855Y-103.025
X159.855Y-105.565
X159.855Y-108.105
X159.855Y-110.645
X159.855Y-113.185
X159.855Y-115.725
X159.855Y-118.265
X159.855Y-120.805
X159.855Y-123.345
X159.855Y-125.885
X159.855Y-128.425
X160.Y-133.
X161.5Y-76.
X164.Y-76.
X166.205Y-79.53
X166.205Y-85.88
X166.205Y-92.23
X166.205Y-102.58
X166.205Y-108.93
X166.205Y-115.28
X171.5Y-97.5
X174.46Y-38.89
X174.46Y-41.43
X174.46Y-43.97
X174.46Y-46.51
X174.46Y-49.05
X174.46Y-51.59
X174.46Y-54.13
X174.46Y-56.67
X174.46Y-59.21
X174.46Y-61.75
X174.46Y-64.29
X174.46Y-66.83
X174.46Y-69.37
X174.46Y-71.91
X176.365Y-79.53
X176.365Y-85.88
X176.365Y-92.23
X176.365Y-102.58
X176.365Y-108.93
X176.365Y-115.28
X176.5Y-97.5
X180.81Y-67.465
X180.81Y-77.625
X180.81Y-80.8
X180.81Y-83.34
X180.81Y-85.88
X180.81Y-88.42
X180.81Y-90.96
X180.81Y-93.5
X180.81Y-96.04
X180.81Y-98.58
X180.81Y-101.12
X180.81Y-103.66
X180.81Y-106.2
X180.81Y-108.74
X180.81Y-111.28
X180.81Y-113.82
X180.81Y-116.36
X180.81Y-118.9
X180.81Y-121.44
X180.81Y-123.98
X180.81Y-126.52
X180.81Y-129.06
X187.16Y-65.56
X187.16Y-73.18
X187.5Y-59.
X190.Y-59.
X194.78Y-65.56
X194.78Y-73.18
X196.05Y-80.8
X196.05Y-83.34
X196.05Y-85.88
X196.05Y-88.42
X196.05Y-90.96
X196.05Y-93.5
X196.05Y-96.04
X196.05Y-98.58
X196.05Y-101.12
X196.05Y-103.66
X196.05Y-106.2
X196.05Y-108.74
X196.05Y-111.28
X196.05Y-113.82
X196.05Y-116.36
X196.05Y-118.9
X196.05Y-121.44
X196.05Y-123.98
X196.05Y-126.52
X196.05Y-129.06
T4
X185.255Y-43.97
X185.255Y-51.59
X190.335Y-43.97
X190.335Y-51.59
T5
X55.08Y-101.755
X55.08Y-104.295
X55.08Y-121.44
X55.08Y-123.98
X60.5Y-50.8
X60.5Y-53.34
X60.5Y-55.88
X60.5Y-58.42
X60.5Y-60.96
X60.5Y-63.5
X63.5Y-132.5
X65.24Y-40.16
X65.24Y-42.7
X67.78Y-40.16
X67.78Y-42.7
X70.32Y-40.16
X70.32Y-42.7
X72.Y-132.5
X72.86Y-40.16
X72.86Y-42.7
X75.4Y-40.16
X75.4Y-42.7
X81.115Y-118.9
X82.385Y-132.235
X83.655Y-118.9
X85.56Y-40.16
X85.56Y-42.7
X87.465Y-132.235
X88.1Y-40.16
X88.1Y-42.7
X90.64Y-40.16
X90.64Y-42.7
X93.18Y-40.16
X93.18Y-42.7
X95.72Y-40.16
X95.72Y-42.7
X101.Y-136.46
X101.Y-139.
X103.54Y-136.46
X103.54Y-139.
X105.88Y-40.16
X105.88Y-42.7
X106.08Y-136.46
X106.08Y-139.
X108.42Y-40.16
X108.42Y-42.7
X108.62Y-136.46
X108.62Y-139.
X110.96Y-40.16
X110.96Y-42.7
X111.16Y-136.46
X111.16Y-139.
X113.5Y-40.16
X113.5Y-42.7
X113.5Y-102.5
X113.5Y-105.04
X113.5Y-107.58
X113.7Y-136.46
X113.7Y-139.
X116.04Y-40.16
X116.04Y-42.7
X116.24Y-136.46
X116.24Y-139.
X117.Y-93.5
X118.78Y-136.46
X118.78Y-139.
X121.32Y-136.46
X121.32Y-139.
X123.86Y-136.46
X123.86Y-139.
X126.4Y-136.46
X126.4Y-139.
X128.94Y-136.46
X128.94Y-139.
X131.48Y-136.46
X131.48Y-139.
X134.02Y-136.46
X134.02Y-139.
X136.56Y-136.46
X136.56Y-139.
X139.1Y-136.46
X139.1Y-139.
X141.64Y-136.46
X141.64Y-139.
X144.18Y-136.46
X144.18Y-139.
X146.72Y-136.46
X146.72Y-139.
X149.26Y-136.46
X149.26Y-139.
T6
X55.Y-35.
X55.Y-139.
X200.Y-35.
X200.Y-139.
T0
M30
