G04 #@! TF.FileFunction,Copper,L2,Bot,Signal*
%FSLAX46Y46*%
G04 Gerber Fmt 4.6, Leading zero omitted, Abs format (unit mm)*
G04 Created by KiCad (PCBNEW 4.0.7) date 09/03/18 17:01:03*
%MOMM*%
%LPD*%
G01*
G04 APERTURE LIST*
%ADD10C,0.100000*%
%ADD11C,1.600000*%
%ADD12R,1.600000X1.600000*%
%ADD13O,1.600000X1.600000*%
%ADD14R,1.700000X1.700000*%
%ADD15O,1.700000X1.700000*%
%ADD16C,0.600000*%
%ADD17C,0.500000*%
%ADD18C,0.250000*%
%ADD19C,0.254000*%
G04 APERTURE END LIST*
D10*
D11*
X73000000Y-47000000D03*
X73000000Y-52000000D03*
X69000000Y-74500000D03*
X69000000Y-69500000D03*
X72000000Y-35500000D03*
X72000000Y-40500000D03*
X72500000Y-58500000D03*
X72500000Y-63500000D03*
X108000000Y-69500000D03*
X103000000Y-69500000D03*
X86000000Y-68500000D03*
X86000000Y-73500000D03*
X104500000Y-33000000D03*
X109500000Y-33000000D03*
D12*
X54000000Y-37000000D03*
D13*
X69240000Y-64940000D03*
X54000000Y-39540000D03*
X69240000Y-62400000D03*
X54000000Y-42080000D03*
X69240000Y-59860000D03*
X54000000Y-44620000D03*
X69240000Y-57320000D03*
X54000000Y-47160000D03*
X69240000Y-54780000D03*
X54000000Y-49700000D03*
X69240000Y-52240000D03*
X54000000Y-52240000D03*
X69240000Y-49700000D03*
X54000000Y-54780000D03*
X69240000Y-47160000D03*
X54000000Y-57320000D03*
X69240000Y-44620000D03*
X54000000Y-59860000D03*
X69240000Y-42080000D03*
X54000000Y-62400000D03*
X69240000Y-39540000D03*
X54000000Y-64940000D03*
X69240000Y-37000000D03*
D14*
X112000000Y-71000000D03*
D15*
X112000000Y-73540000D03*
D14*
X100000000Y-52000000D03*
D15*
X100000000Y-49460000D03*
X100000000Y-46920000D03*
D12*
X76000000Y-41500000D03*
D13*
X98860000Y-33880000D03*
X78540000Y-41500000D03*
X96320000Y-33880000D03*
X81080000Y-41500000D03*
X93780000Y-33880000D03*
X83620000Y-41500000D03*
X91240000Y-33880000D03*
X86160000Y-41500000D03*
X88700000Y-33880000D03*
X88700000Y-41500000D03*
X86160000Y-33880000D03*
X91240000Y-41500000D03*
X83620000Y-33880000D03*
X93780000Y-41500000D03*
X81080000Y-33880000D03*
X96320000Y-41500000D03*
X78540000Y-33880000D03*
X98860000Y-41500000D03*
X76000000Y-33880000D03*
D12*
X76500000Y-64500000D03*
D13*
X99360000Y-56880000D03*
X79040000Y-64500000D03*
X96820000Y-56880000D03*
X81580000Y-64500000D03*
X94280000Y-56880000D03*
X84120000Y-64500000D03*
X91740000Y-56880000D03*
X86660000Y-64500000D03*
X89200000Y-56880000D03*
X89200000Y-64500000D03*
X86660000Y-56880000D03*
X91740000Y-64500000D03*
X84120000Y-56880000D03*
X94280000Y-64500000D03*
X81580000Y-56880000D03*
X96820000Y-64500000D03*
X79040000Y-56880000D03*
X99360000Y-64500000D03*
X76500000Y-56880000D03*
D12*
X78500000Y-53000000D03*
D13*
X93740000Y-45380000D03*
X81040000Y-53000000D03*
X91200000Y-45380000D03*
X83580000Y-53000000D03*
X88660000Y-45380000D03*
X86120000Y-53000000D03*
X86120000Y-45380000D03*
X88660000Y-53000000D03*
X83580000Y-45380000D03*
X91200000Y-53000000D03*
X81040000Y-45380000D03*
X93740000Y-53000000D03*
X78500000Y-45380000D03*
D12*
X89500000Y-75000000D03*
D13*
X97120000Y-67380000D03*
X92040000Y-75000000D03*
X94580000Y-67380000D03*
X94580000Y-75000000D03*
X92040000Y-67380000D03*
X97120000Y-75000000D03*
X89500000Y-67380000D03*
D12*
X103500000Y-37000000D03*
D13*
X118740000Y-64940000D03*
X103500000Y-39540000D03*
X118740000Y-62400000D03*
X103500000Y-42080000D03*
X118740000Y-59860000D03*
X103500000Y-44620000D03*
X118740000Y-57320000D03*
X103500000Y-47160000D03*
X118740000Y-54780000D03*
X103500000Y-49700000D03*
X118740000Y-52240000D03*
X103500000Y-52240000D03*
X118740000Y-49700000D03*
X103500000Y-54780000D03*
X118740000Y-47160000D03*
X103500000Y-57320000D03*
X118740000Y-44620000D03*
X103500000Y-59860000D03*
X118740000Y-42080000D03*
X103500000Y-62400000D03*
X118740000Y-39540000D03*
X103500000Y-64940000D03*
X118740000Y-37000000D03*
D16*
X87800200Y-58216400D03*
X68069200Y-70456600D03*
X83497700Y-62327700D03*
X78311800Y-39725000D03*
X105576700Y-63980200D03*
X81597400Y-50819200D03*
D17*
X70622300Y-60377700D02*
X72500000Y-58500000D01*
X70622300Y-67877700D02*
X70622300Y-60377700D01*
X69000000Y-69500000D02*
X70622300Y-67877700D01*
X78500000Y-45380000D02*
X77249700Y-45380000D01*
X74314900Y-48314800D02*
X77249700Y-45380000D01*
X76500000Y-50500000D02*
X74314900Y-48314800D01*
X76500000Y-56880000D02*
X76500000Y-50500000D01*
X74314900Y-48314800D02*
X73000000Y-47000000D01*
X98860000Y-44330000D02*
X98860000Y-41500000D01*
X93740000Y-49450000D02*
X98860000Y-44330000D01*
X93740000Y-53000000D02*
X93740000Y-49450000D01*
X98370300Y-74129700D02*
X103000000Y-69500000D01*
X98370300Y-75000000D02*
X98370300Y-74129700D01*
X97120000Y-75000000D02*
X98370300Y-75000000D01*
X103000000Y-69390300D02*
X103000000Y-69500000D01*
X99360000Y-65750300D02*
X103000000Y-69390300D01*
X99360000Y-64500000D02*
X99360000Y-65750300D01*
X76500000Y-64500000D02*
X75249700Y-64500000D01*
X72500000Y-64500000D02*
X75249700Y-64500000D01*
X72500000Y-63500000D02*
X72500000Y-64500000D01*
X72500000Y-71000000D02*
X69000000Y-74500000D01*
X72500000Y-64500000D02*
X72500000Y-71000000D01*
X77750300Y-65250300D02*
X77750300Y-64500000D01*
X86000000Y-73500000D02*
X77750300Y-65250300D01*
X76500000Y-64500000D02*
X77750300Y-64500000D01*
X94957400Y-58216400D02*
X87800200Y-58216400D01*
X106241000Y-69500000D02*
X94957400Y-58216400D01*
X108000000Y-69500000D02*
X106241000Y-69500000D01*
D18*
X91240000Y-41500000D02*
X91802700Y-41500000D01*
X91240000Y-33880000D02*
X91240000Y-35005300D01*
X118740000Y-64940000D02*
X117614700Y-64940000D01*
X91802700Y-35568000D02*
X91240000Y-35005300D01*
X91802700Y-41500000D02*
X91802700Y-35568000D01*
X67834800Y-70222200D02*
X68069200Y-70456600D01*
X67834800Y-67470500D02*
X67834800Y-70222200D01*
X69240000Y-66065300D02*
X67834800Y-67470500D01*
X69240000Y-64940000D02*
X69240000Y-66065300D01*
X117614700Y-64748200D02*
X117614700Y-64940000D01*
X103836500Y-50970000D02*
X117614700Y-64748200D01*
X103160100Y-50970000D02*
X103836500Y-50970000D01*
X101654600Y-49464500D02*
X103160100Y-50970000D01*
X101654600Y-42696700D02*
X101654600Y-49464500D01*
X99305400Y-40347500D02*
X101654600Y-42696700D01*
X98399200Y-40347500D02*
X99305400Y-40347500D01*
X97590000Y-41156700D02*
X98399200Y-40347500D01*
X97590000Y-41871400D02*
X97590000Y-41156700D01*
X96788300Y-42673100D02*
X97590000Y-41871400D01*
X92975800Y-42673100D02*
X96788300Y-42673100D01*
X91802700Y-41500000D02*
X92975800Y-42673100D01*
X93780000Y-41500000D02*
X93780000Y-33880000D01*
X93780000Y-33880000D02*
X94905300Y-33880000D01*
X118740000Y-62400000D02*
X118740000Y-61274700D01*
X119021400Y-61274700D02*
X118740000Y-61274700D01*
X119865300Y-60430800D02*
X119021400Y-61274700D01*
X119865300Y-59366400D02*
X119865300Y-60430800D01*
X119088900Y-58590000D02*
X119865300Y-59366400D01*
X118412500Y-58590000D02*
X119088900Y-58590000D01*
X109058400Y-49235900D02*
X118412500Y-58590000D01*
X109058400Y-40491400D02*
X109058400Y-49235900D01*
X101313200Y-32746200D02*
X109058400Y-40491400D01*
X95757800Y-32746200D02*
X101313200Y-32746200D01*
X94905300Y-33598700D02*
X95757800Y-32746200D01*
X94905300Y-33880000D02*
X94905300Y-33598700D01*
X118740000Y-59860000D02*
X117614700Y-59860000D01*
X117614700Y-59578700D02*
X117614700Y-59860000D01*
X103926000Y-45890000D02*
X117614700Y-59578700D01*
X103172500Y-45890000D02*
X103926000Y-45890000D01*
X102159500Y-44877000D02*
X103172500Y-45890000D01*
X102159500Y-42532800D02*
X102159500Y-44877000D01*
X99483100Y-39856400D02*
X102159500Y-42532800D01*
X96320000Y-39856400D02*
X99483100Y-39856400D01*
X96320000Y-41500000D02*
X96320000Y-39856400D01*
X96320000Y-39856400D02*
X96320000Y-33880000D01*
X70365300Y-52341100D02*
X70365300Y-52240000D01*
X77385600Y-59361400D02*
X70365300Y-52341100D01*
X79254900Y-59361400D02*
X77385600Y-59361400D01*
X83268200Y-63374700D02*
X79254900Y-59361400D01*
X84690800Y-63374700D02*
X83268200Y-63374700D01*
X85534700Y-64218600D02*
X84690800Y-63374700D01*
X85534700Y-64500000D02*
X85534700Y-64218600D01*
X86660000Y-64500000D02*
X85534700Y-64500000D01*
X69240000Y-52240000D02*
X70365300Y-52240000D01*
X84120000Y-64500000D02*
X82994700Y-64500000D01*
X69240000Y-49700000D02*
X69240000Y-50825300D01*
X68958600Y-50825300D02*
X69240000Y-50825300D01*
X68114700Y-51669200D02*
X68958600Y-50825300D01*
X68114700Y-52718200D02*
X68114700Y-51669200D01*
X68906500Y-53510000D02*
X68114700Y-52718200D01*
X70767500Y-53510000D02*
X68906500Y-53510000D01*
X77431600Y-60174100D02*
X70767500Y-53510000D01*
X78950200Y-60174100D02*
X77431600Y-60174100D01*
X82994700Y-64218600D02*
X78950200Y-60174100D01*
X82994700Y-64500000D02*
X82994700Y-64218600D01*
X78540000Y-33880000D02*
X78540000Y-35005300D01*
X78540000Y-41500000D02*
X78540000Y-40374700D01*
X54000000Y-54780000D02*
X54000000Y-53654700D01*
X78540000Y-35005300D02*
X78540000Y-38270000D01*
X78961900Y-38691900D02*
X78540000Y-38270000D01*
X78961900Y-40058400D02*
X78961900Y-38691900D01*
X78645600Y-40374700D02*
X78961900Y-40058400D01*
X78540000Y-40374700D02*
X78645600Y-40374700D01*
X54281400Y-53654700D02*
X54000000Y-53654700D01*
X55125300Y-52810800D02*
X54281400Y-53654700D01*
X55125300Y-52057200D02*
X55125300Y-52810800D01*
X68912500Y-38270000D02*
X55125300Y-52057200D01*
X78540000Y-38270000D02*
X68912500Y-38270000D01*
X81580000Y-64500000D02*
X80454700Y-64500000D01*
X69240000Y-47160000D02*
X69240000Y-48285300D01*
X68958700Y-48285300D02*
X69240000Y-48285300D01*
X67662400Y-49581600D02*
X68958700Y-48285300D01*
X67662400Y-54889000D02*
X67662400Y-49581600D01*
X68823400Y-56050000D02*
X67662400Y-54889000D01*
X72297200Y-56050000D02*
X68823400Y-56050000D01*
X80454700Y-64207500D02*
X72297200Y-56050000D01*
X80454700Y-64500000D02*
X80454700Y-64207500D01*
X54000000Y-57320000D02*
X54000000Y-56194700D01*
X81080000Y-33880000D02*
X81080000Y-41500000D01*
X54281400Y-56194700D02*
X54000000Y-56194700D01*
X55125300Y-55350800D02*
X54281400Y-56194700D01*
X55125300Y-54597200D02*
X55125300Y-55350800D01*
X68771500Y-40951000D02*
X55125300Y-54597200D01*
X70391200Y-40951000D02*
X68771500Y-40951000D01*
X72065600Y-42625400D02*
X70391200Y-40951000D01*
X79110600Y-42625400D02*
X72065600Y-42625400D01*
X79954700Y-41781300D02*
X79110600Y-42625400D01*
X79954700Y-41500000D02*
X79954700Y-41781300D01*
X81080000Y-41500000D02*
X79954700Y-41500000D01*
X68958700Y-45745300D02*
X69240000Y-45745300D01*
X67189700Y-47514300D02*
X68958700Y-45745300D01*
X67189700Y-56898700D02*
X67189700Y-47514300D01*
X68736800Y-58445800D02*
X67189700Y-56898700D01*
X70962600Y-58445800D02*
X68736800Y-58445800D01*
X72039100Y-57369300D02*
X70962600Y-58445800D01*
X72963500Y-57369300D02*
X72039100Y-57369300D01*
X79040000Y-63445800D02*
X72963500Y-57369300D01*
X79040000Y-64500000D02*
X79040000Y-63445800D01*
X69240000Y-44620000D02*
X69240000Y-45745300D01*
X54000000Y-59860000D02*
X54000000Y-58734700D01*
X83620000Y-33880000D02*
X83620000Y-41500000D01*
X54281400Y-58734700D02*
X54000000Y-58734700D01*
X55125300Y-57890800D02*
X54281400Y-58734700D01*
X55125300Y-57142100D02*
X55125300Y-57890800D01*
X68917400Y-43350000D02*
X55125300Y-57142100D01*
X80926000Y-43350000D02*
X68917400Y-43350000D01*
X82494700Y-41781300D02*
X80926000Y-43350000D01*
X82494700Y-41500000D02*
X82494700Y-41781300D01*
X83620000Y-41500000D02*
X82494700Y-41500000D01*
X86160000Y-33880000D02*
X86160000Y-41500000D01*
X86160000Y-41500000D02*
X85034700Y-41500000D01*
X82858100Y-62327700D02*
X83497700Y-62327700D01*
X77770000Y-57239600D02*
X82858100Y-62327700D01*
X77770000Y-55323200D02*
X77770000Y-57239600D01*
X77374600Y-54927800D02*
X77770000Y-55323200D01*
X77374600Y-49909100D02*
X77374600Y-54927800D01*
X79625600Y-47658100D02*
X77374600Y-49909100D01*
X79625600Y-45195400D02*
X79625600Y-47658100D01*
X81020600Y-43800400D02*
X79625600Y-45195400D01*
X83015600Y-43800400D02*
X81020600Y-43800400D01*
X85034700Y-41781300D02*
X83015600Y-43800400D01*
X85034700Y-41500000D02*
X85034700Y-41781300D01*
X88660000Y-49334700D02*
X88660000Y-45380000D01*
X86120000Y-51874700D02*
X88660000Y-49334700D01*
X86120000Y-53000000D02*
X86120000Y-51874700D01*
X70534400Y-39370900D02*
X70365300Y-39540000D01*
X77957700Y-39370900D02*
X70534400Y-39370900D01*
X78311800Y-39725000D02*
X77957700Y-39370900D01*
X69240000Y-39540000D02*
X70365300Y-39540000D01*
X88700000Y-33880000D02*
X88700000Y-41500000D01*
X103282100Y-64940000D02*
X103500000Y-64940000D01*
X95578900Y-57236800D02*
X103282100Y-64940000D01*
X95578900Y-56457300D02*
X95578900Y-57236800D01*
X92470000Y-53348400D02*
X95578900Y-56457300D01*
X92470000Y-45035700D02*
X92470000Y-53348400D01*
X89825300Y-42391000D02*
X92470000Y-45035700D01*
X89825300Y-41500000D02*
X89825300Y-42391000D01*
X88700000Y-41500000D02*
X89825300Y-41500000D01*
X74552200Y-37000000D02*
X69240000Y-37000000D01*
X77270000Y-34282200D02*
X74552200Y-37000000D01*
X77270000Y-33547200D02*
X77270000Y-34282200D01*
X78975100Y-31842100D02*
X77270000Y-33547200D01*
X112456800Y-31842100D02*
X78975100Y-31842100D01*
X117614700Y-37000000D02*
X112456800Y-31842100D01*
X118740000Y-37000000D02*
X117614700Y-37000000D01*
X112000000Y-71000000D02*
X110824700Y-71000000D01*
X110824700Y-70618300D02*
X110824700Y-71000000D01*
X103876400Y-63670000D02*
X110824700Y-70618300D01*
X103176500Y-63670000D02*
X103876400Y-63670000D01*
X99360000Y-59853500D02*
X103176500Y-63670000D01*
X99360000Y-56880000D02*
X99360000Y-59853500D01*
X119021300Y-55905300D02*
X118740000Y-55905300D01*
X120352700Y-57236700D02*
X119021300Y-55905300D01*
X120352700Y-64966900D02*
X120352700Y-57236700D01*
X112954900Y-72364700D02*
X120352700Y-64966900D01*
X112000000Y-72364700D02*
X112954900Y-72364700D01*
X112000000Y-73540000D02*
X112000000Y-72364700D01*
X118740000Y-54780000D02*
X118740000Y-55905300D01*
X101175300Y-54350600D02*
X100000000Y-53175300D01*
X101175300Y-59183900D02*
X101175300Y-54350600D01*
X103121400Y-61130000D02*
X101175300Y-59183900D01*
X103868300Y-61130000D02*
X103121400Y-61130000D01*
X105576700Y-62838400D02*
X103868300Y-61130000D01*
X105576700Y-63980200D02*
X105576700Y-62838400D01*
X100000000Y-52000000D02*
X100000000Y-53175300D01*
X85245300Y-56598600D02*
X85245300Y-56880000D01*
X86089200Y-55754700D02*
X85245300Y-56598600D01*
X87518000Y-55754700D02*
X86089200Y-55754700D01*
X90074700Y-53198000D02*
X87518000Y-55754700D01*
X90074700Y-47630600D02*
X90074700Y-53198000D01*
X91200000Y-46505300D02*
X90074700Y-47630600D01*
X91200000Y-45380000D02*
X91200000Y-46505300D01*
X84120000Y-56880000D02*
X85245300Y-56880000D01*
X81040000Y-45380000D02*
X81040000Y-46505300D01*
X81580000Y-56880000D02*
X81580000Y-55754700D01*
X88660000Y-53000000D02*
X87534700Y-53000000D01*
X86674200Y-54141800D02*
X82402100Y-54141800D01*
X87534700Y-53281300D02*
X86674200Y-54141800D01*
X87534700Y-53000000D02*
X87534700Y-53281300D01*
X81580000Y-54963900D02*
X81580000Y-55754700D01*
X82402100Y-54141800D02*
X81580000Y-54963900D01*
X82402100Y-47867400D02*
X81040000Y-46505300D01*
X82402100Y-54141800D02*
X82402100Y-47867400D01*
X79040000Y-56880000D02*
X79040000Y-55754700D01*
X79625400Y-52791200D02*
X81597400Y-50819200D01*
X79625400Y-55169300D02*
X79625400Y-52791200D01*
X79040000Y-55754700D02*
X79625400Y-55169300D01*
X83580000Y-45380000D02*
X83580000Y-53000000D01*
D19*
G36*
X121373000Y-76373000D02*
X97514680Y-76373000D01*
X97857423Y-76231041D01*
X98272389Y-75855134D01*
X98511914Y-75349041D01*
X98390629Y-75127000D01*
X97247000Y-75127000D01*
X97247000Y-75147000D01*
X96993000Y-75147000D01*
X96993000Y-75127000D01*
X96973000Y-75127000D01*
X96973000Y-74873000D01*
X96993000Y-74873000D01*
X96993000Y-73730085D01*
X97247000Y-73730085D01*
X97247000Y-74873000D01*
X98390629Y-74873000D01*
X98511914Y-74650959D01*
X98272389Y-74144866D01*
X97857423Y-73768959D01*
X97469039Y-73608096D01*
X97247000Y-73730085D01*
X96993000Y-73730085D01*
X96770961Y-73608096D01*
X96382577Y-73768959D01*
X95967611Y-74144866D01*
X95728086Y-74650959D01*
X95849370Y-74872998D01*
X95686129Y-74872998D01*
X95621212Y-74546637D01*
X95376909Y-74181012D01*
X95011284Y-73936709D01*
X94580000Y-73850921D01*
X94148716Y-73936709D01*
X93783091Y-74181012D01*
X93538788Y-74546637D01*
X93453000Y-74977921D01*
X93453000Y-75022079D01*
X93538788Y-75453363D01*
X93783091Y-75818988D01*
X94148716Y-76063291D01*
X94580000Y-76149079D01*
X95011284Y-76063291D01*
X95376909Y-75818988D01*
X95621212Y-75453363D01*
X95686129Y-75127002D01*
X95849370Y-75127002D01*
X95728086Y-75349041D01*
X95967611Y-75855134D01*
X96382577Y-76231041D01*
X96725320Y-76373000D01*
X50627000Y-76373000D01*
X50627000Y-75507745D01*
X68171861Y-75507745D01*
X68245995Y-75753864D01*
X68783223Y-75946965D01*
X69353454Y-75919778D01*
X69754005Y-75753864D01*
X69828139Y-75507745D01*
X69000000Y-74679605D01*
X68171861Y-75507745D01*
X50627000Y-75507745D01*
X50627000Y-74283223D01*
X67553035Y-74283223D01*
X67580222Y-74853454D01*
X67746136Y-75254005D01*
X67992255Y-75328139D01*
X68820395Y-74500000D01*
X69179605Y-74500000D01*
X70007745Y-75328139D01*
X70253864Y-75254005D01*
X70446965Y-74716777D01*
X70436999Y-74507745D01*
X85171861Y-74507745D01*
X85245995Y-74753864D01*
X85783223Y-74946965D01*
X86353454Y-74919778D01*
X86754005Y-74753864D01*
X86828139Y-74507745D01*
X86000000Y-73679605D01*
X85171861Y-74507745D01*
X70436999Y-74507745D01*
X70419778Y-74146546D01*
X70253864Y-73745995D01*
X70007745Y-73671861D01*
X69179605Y-74500000D01*
X68820395Y-74500000D01*
X67992255Y-73671861D01*
X67746136Y-73745995D01*
X67553035Y-74283223D01*
X50627000Y-74283223D01*
X50627000Y-73492255D01*
X68171861Y-73492255D01*
X69000000Y-74320395D01*
X69828139Y-73492255D01*
X69765177Y-73283223D01*
X84553035Y-73283223D01*
X84580222Y-73853454D01*
X84746136Y-74254005D01*
X84992255Y-74328139D01*
X85820395Y-73500000D01*
X86179605Y-73500000D01*
X87007745Y-74328139D01*
X87253864Y-74254005D01*
X87273275Y-74200000D01*
X88366594Y-74200000D01*
X88366594Y-75800000D01*
X88389395Y-75921179D01*
X88461012Y-76032474D01*
X88570286Y-76107138D01*
X88700000Y-76133406D01*
X90300000Y-76133406D01*
X90421179Y-76110605D01*
X90532474Y-76038988D01*
X90607138Y-75929714D01*
X90633406Y-75800000D01*
X90633406Y-74977921D01*
X90913000Y-74977921D01*
X90913000Y-75022079D01*
X90998788Y-75453363D01*
X91243091Y-75818988D01*
X91608716Y-76063291D01*
X92040000Y-76149079D01*
X92471284Y-76063291D01*
X92836909Y-75818988D01*
X93081212Y-75453363D01*
X93167000Y-75022079D01*
X93167000Y-74977921D01*
X93081212Y-74546637D01*
X92836909Y-74181012D01*
X92471284Y-73936709D01*
X92040000Y-73850921D01*
X91608716Y-73936709D01*
X91243091Y-74181012D01*
X90998788Y-74546637D01*
X90913000Y-74977921D01*
X90633406Y-74977921D01*
X90633406Y-74200000D01*
X90610605Y-74078821D01*
X90538988Y-73967526D01*
X90429714Y-73892862D01*
X90300000Y-73866594D01*
X88700000Y-73866594D01*
X88578821Y-73889395D01*
X88467526Y-73961012D01*
X88392862Y-74070286D01*
X88366594Y-74200000D01*
X87273275Y-74200000D01*
X87446965Y-73716777D01*
X87419778Y-73146546D01*
X87253864Y-72745995D01*
X87007745Y-72671861D01*
X86179605Y-73500000D01*
X85820395Y-73500000D01*
X84992255Y-72671861D01*
X84746136Y-72745995D01*
X84553035Y-73283223D01*
X69765177Y-73283223D01*
X69754005Y-73246136D01*
X69216777Y-73053035D01*
X68646546Y-73080222D01*
X68245995Y-73246136D01*
X68171861Y-73492255D01*
X50627000Y-73492255D01*
X50627000Y-72492255D01*
X85171861Y-72492255D01*
X86000000Y-73320395D01*
X86828139Y-72492255D01*
X86754005Y-72246136D01*
X86216777Y-72053035D01*
X85646546Y-72080222D01*
X85245995Y-72246136D01*
X85171861Y-72492255D01*
X50627000Y-72492255D01*
X50627000Y-64940000D01*
X52850921Y-64940000D01*
X52936709Y-65371284D01*
X53181012Y-65736909D01*
X53546637Y-65981212D01*
X53977921Y-66067000D01*
X54022079Y-66067000D01*
X54453363Y-65981212D01*
X54818988Y-65736909D01*
X55063291Y-65371284D01*
X55149079Y-64940000D01*
X55063291Y-64508716D01*
X54818988Y-64143091D01*
X54453363Y-63898788D01*
X54022079Y-63813000D01*
X53977921Y-63813000D01*
X53546637Y-63898788D01*
X53181012Y-64143091D01*
X52936709Y-64508716D01*
X52850921Y-64940000D01*
X50627000Y-64940000D01*
X50627000Y-62400000D01*
X52850921Y-62400000D01*
X52936709Y-62831284D01*
X53181012Y-63196909D01*
X53546637Y-63441212D01*
X53977921Y-63527000D01*
X54022079Y-63527000D01*
X54453363Y-63441212D01*
X54818988Y-63196909D01*
X55063291Y-62831284D01*
X55149079Y-62400000D01*
X55063291Y-61968716D01*
X54818988Y-61603091D01*
X54453363Y-61358788D01*
X54022079Y-61273000D01*
X53977921Y-61273000D01*
X53546637Y-61358788D01*
X53181012Y-61603091D01*
X52936709Y-61968716D01*
X52850921Y-62400000D01*
X50627000Y-62400000D01*
X50627000Y-52240000D01*
X52850921Y-52240000D01*
X52936709Y-52671284D01*
X53181012Y-53036909D01*
X53546637Y-53281212D01*
X53711839Y-53314073D01*
X53680388Y-53335088D01*
X53582406Y-53481727D01*
X53548000Y-53654700D01*
X53548000Y-53738517D01*
X53546637Y-53738788D01*
X53181012Y-53983091D01*
X52936709Y-54348716D01*
X52850921Y-54780000D01*
X52936709Y-55211284D01*
X53181012Y-55576909D01*
X53546637Y-55821212D01*
X53711839Y-55854073D01*
X53680388Y-55875088D01*
X53582406Y-56021727D01*
X53548000Y-56194700D01*
X53548000Y-56278517D01*
X53546637Y-56278788D01*
X53181012Y-56523091D01*
X52936709Y-56888716D01*
X52850921Y-57320000D01*
X52936709Y-57751284D01*
X53181012Y-58116909D01*
X53546637Y-58361212D01*
X53711839Y-58394073D01*
X53680388Y-58415088D01*
X53582406Y-58561727D01*
X53548000Y-58734700D01*
X53548000Y-58818517D01*
X53546637Y-58818788D01*
X53181012Y-59063091D01*
X52936709Y-59428716D01*
X52850921Y-59860000D01*
X52936709Y-60291284D01*
X53181012Y-60656909D01*
X53546637Y-60901212D01*
X53977921Y-60987000D01*
X54022079Y-60987000D01*
X54453363Y-60901212D01*
X54818988Y-60656909D01*
X55063291Y-60291284D01*
X55149079Y-59860000D01*
X55063291Y-59428716D01*
X54818988Y-59063091D01*
X54683058Y-58972266D01*
X55444912Y-58210412D01*
X55542894Y-58063773D01*
X55577300Y-57890800D01*
X55577300Y-57329324D01*
X68123390Y-44783234D01*
X68176709Y-45051284D01*
X68421012Y-45416909D01*
X68557002Y-45507774D01*
X66870088Y-47194688D01*
X66772106Y-47341327D01*
X66737700Y-47514300D01*
X66737700Y-56898700D01*
X66772106Y-57071673D01*
X66870088Y-57218312D01*
X68417188Y-58765412D01*
X68563827Y-58863394D01*
X68684081Y-58887314D01*
X68421012Y-59063091D01*
X68176709Y-59428716D01*
X68090921Y-59860000D01*
X68176709Y-60291284D01*
X68421012Y-60656909D01*
X68786637Y-60901212D01*
X69217921Y-60987000D01*
X69262079Y-60987000D01*
X69693363Y-60901212D01*
X70045300Y-60666055D01*
X70045300Y-61593945D01*
X69693363Y-61358788D01*
X69262079Y-61273000D01*
X69217921Y-61273000D01*
X68786637Y-61358788D01*
X68421012Y-61603091D01*
X68176709Y-61968716D01*
X68090921Y-62400000D01*
X68176709Y-62831284D01*
X68421012Y-63196909D01*
X68786637Y-63441212D01*
X69217921Y-63527000D01*
X69262079Y-63527000D01*
X69693363Y-63441212D01*
X70045300Y-63206055D01*
X70045300Y-64133945D01*
X69693363Y-63898788D01*
X69262079Y-63813000D01*
X69217921Y-63813000D01*
X68786637Y-63898788D01*
X68421012Y-64143091D01*
X68176709Y-64508716D01*
X68090921Y-64940000D01*
X68176709Y-65371284D01*
X68421012Y-65736909D01*
X68725629Y-65940447D01*
X67515188Y-67150888D01*
X67417206Y-67297527D01*
X67382800Y-67470500D01*
X67382800Y-70222200D01*
X67417206Y-70395173D01*
X67442220Y-70432609D01*
X67442091Y-70580771D01*
X67537345Y-70811303D01*
X67713569Y-70987835D01*
X67943935Y-71083491D01*
X68193371Y-71083709D01*
X68423903Y-70988455D01*
X68600435Y-70812231D01*
X68691756Y-70592304D01*
X68774842Y-70626804D01*
X69223191Y-70627195D01*
X69512281Y-70507745D01*
X102171861Y-70507745D01*
X102245995Y-70753864D01*
X102783223Y-70946965D01*
X103353454Y-70919778D01*
X103754005Y-70753864D01*
X103828139Y-70507745D01*
X103000000Y-69679605D01*
X102171861Y-70507745D01*
X69512281Y-70507745D01*
X69637560Y-70455981D01*
X69954867Y-70139228D01*
X70126804Y-69725158D01*
X70127195Y-69276809D01*
X70101465Y-69214537D01*
X70592810Y-68723191D01*
X84872805Y-68723191D01*
X85044019Y-69137560D01*
X85360772Y-69454867D01*
X85774842Y-69626804D01*
X86223191Y-69627195D01*
X86637560Y-69455981D01*
X86810620Y-69283223D01*
X101553035Y-69283223D01*
X101580222Y-69853454D01*
X101746136Y-70254005D01*
X101992255Y-70328139D01*
X102820395Y-69500000D01*
X103179605Y-69500000D01*
X104007745Y-70328139D01*
X104253864Y-70254005D01*
X104446965Y-69716777D01*
X104419778Y-69146546D01*
X104253864Y-68745995D01*
X104007745Y-68671861D01*
X103179605Y-69500000D01*
X102820395Y-69500000D01*
X101992255Y-68671861D01*
X101746136Y-68745995D01*
X101553035Y-69283223D01*
X86810620Y-69283223D01*
X86954867Y-69139228D01*
X87126804Y-68725158D01*
X87127195Y-68276809D01*
X86955981Y-67862440D01*
X86639228Y-67545133D01*
X86225158Y-67373196D01*
X85776809Y-67372805D01*
X85362440Y-67544019D01*
X85045133Y-67860772D01*
X84873196Y-68274842D01*
X84872805Y-68723191D01*
X70592810Y-68723191D01*
X71030298Y-68285703D01*
X71030301Y-68285701D01*
X71155378Y-68098508D01*
X71190389Y-67922500D01*
X71199301Y-67877700D01*
X71199300Y-67877695D01*
X71199300Y-67357921D01*
X88373000Y-67357921D01*
X88373000Y-67402079D01*
X88458788Y-67833363D01*
X88703091Y-68198988D01*
X89068716Y-68443291D01*
X89500000Y-68529079D01*
X89931284Y-68443291D01*
X90296909Y-68198988D01*
X90541212Y-67833363D01*
X90627000Y-67402079D01*
X90627000Y-67357921D01*
X90913000Y-67357921D01*
X90913000Y-67402079D01*
X90998788Y-67833363D01*
X91243091Y-68198988D01*
X91608716Y-68443291D01*
X92040000Y-68529079D01*
X92471284Y-68443291D01*
X92836909Y-68198988D01*
X93081212Y-67833363D01*
X93167000Y-67402079D01*
X93167000Y-67357921D01*
X93453000Y-67357921D01*
X93453000Y-67402079D01*
X93538788Y-67833363D01*
X93783091Y-68198988D01*
X94148716Y-68443291D01*
X94580000Y-68529079D01*
X95011284Y-68443291D01*
X95376909Y-68198988D01*
X95621212Y-67833363D01*
X95707000Y-67402079D01*
X95707000Y-67357921D01*
X95993000Y-67357921D01*
X95993000Y-67402079D01*
X96078788Y-67833363D01*
X96323091Y-68198988D01*
X96688716Y-68443291D01*
X97120000Y-68529079D01*
X97305126Y-68492255D01*
X102171861Y-68492255D01*
X103000000Y-69320395D01*
X103828139Y-68492255D01*
X103754005Y-68246136D01*
X103216777Y-68053035D01*
X102646546Y-68080222D01*
X102245995Y-68246136D01*
X102171861Y-68492255D01*
X97305126Y-68492255D01*
X97551284Y-68443291D01*
X97916909Y-68198988D01*
X98161212Y-67833363D01*
X98247000Y-67402079D01*
X98247000Y-67357921D01*
X98161212Y-66926637D01*
X97916909Y-66561012D01*
X97551284Y-66316709D01*
X97120000Y-66230921D01*
X96688716Y-66316709D01*
X96323091Y-66561012D01*
X96078788Y-66926637D01*
X95993000Y-67357921D01*
X95707000Y-67357921D01*
X95621212Y-66926637D01*
X95376909Y-66561012D01*
X95011284Y-66316709D01*
X94580000Y-66230921D01*
X94148716Y-66316709D01*
X93783091Y-66561012D01*
X93538788Y-66926637D01*
X93453000Y-67357921D01*
X93167000Y-67357921D01*
X93081212Y-66926637D01*
X92836909Y-66561012D01*
X92471284Y-66316709D01*
X92040000Y-66230921D01*
X91608716Y-66316709D01*
X91243091Y-66561012D01*
X90998788Y-66926637D01*
X90913000Y-67357921D01*
X90627000Y-67357921D01*
X90541212Y-66926637D01*
X90296909Y-66561012D01*
X89931284Y-66316709D01*
X89500000Y-66230921D01*
X89068716Y-66316709D01*
X88703091Y-66561012D01*
X88458788Y-66926637D01*
X88373000Y-67357921D01*
X71199300Y-67357921D01*
X71199300Y-64507745D01*
X71671861Y-64507745D01*
X71745995Y-64753864D01*
X72283223Y-64946965D01*
X72853454Y-64919778D01*
X73177025Y-64785750D01*
X75065000Y-64785750D01*
X75065000Y-65426309D01*
X75161673Y-65659698D01*
X75340301Y-65838327D01*
X75573690Y-65935000D01*
X76214250Y-65935000D01*
X76373000Y-65776250D01*
X76373000Y-64627000D01*
X75223750Y-64627000D01*
X75065000Y-64785750D01*
X73177025Y-64785750D01*
X73254005Y-64753864D01*
X73328139Y-64507745D01*
X72500000Y-63679605D01*
X71671861Y-64507745D01*
X71199300Y-64507745D01*
X71199300Y-64140933D01*
X71246136Y-64254005D01*
X71492255Y-64328139D01*
X72320395Y-63500000D01*
X72679605Y-63500000D01*
X73507745Y-64328139D01*
X73753864Y-64254005D01*
X73946965Y-63716777D01*
X73940144Y-63573691D01*
X75065000Y-63573691D01*
X75065000Y-64214250D01*
X75223750Y-64373000D01*
X76373000Y-64373000D01*
X76373000Y-63223750D01*
X76214250Y-63065000D01*
X75573690Y-63065000D01*
X75340301Y-63161673D01*
X75161673Y-63340302D01*
X75065000Y-63573691D01*
X73940144Y-63573691D01*
X73919778Y-63146546D01*
X73753864Y-62745995D01*
X73507745Y-62671861D01*
X72679605Y-63500000D01*
X72320395Y-63500000D01*
X71492255Y-62671861D01*
X71246136Y-62745995D01*
X71199300Y-62876298D01*
X71199300Y-62492255D01*
X71671861Y-62492255D01*
X72500000Y-63320395D01*
X73328139Y-62492255D01*
X73254005Y-62246136D01*
X72716777Y-62053035D01*
X72146546Y-62080222D01*
X71745995Y-62246136D01*
X71671861Y-62492255D01*
X71199300Y-62492255D01*
X71199300Y-60616702D01*
X72214326Y-59601675D01*
X72274842Y-59626804D01*
X72723191Y-59627195D01*
X73137560Y-59455981D01*
X73454867Y-59139228D01*
X73626804Y-58725158D01*
X73626850Y-58671874D01*
X78478615Y-63523639D01*
X78243091Y-63681012D01*
X77998788Y-64046637D01*
X77933871Y-64372998D01*
X77776252Y-64372998D01*
X77935000Y-64214250D01*
X77935000Y-63573691D01*
X77838327Y-63340302D01*
X77659699Y-63161673D01*
X77426310Y-63065000D01*
X76785750Y-63065000D01*
X76627000Y-63223750D01*
X76627000Y-64373000D01*
X76647000Y-64373000D01*
X76647000Y-64627000D01*
X76627000Y-64627000D01*
X76627000Y-65776250D01*
X76785750Y-65935000D01*
X77426310Y-65935000D01*
X77659699Y-65838327D01*
X77838327Y-65659698D01*
X77935000Y-65426309D01*
X77935000Y-64785750D01*
X77776252Y-64627002D01*
X77933871Y-64627002D01*
X77998788Y-64953363D01*
X78243091Y-65318988D01*
X78608716Y-65563291D01*
X79040000Y-65649079D01*
X79471284Y-65563291D01*
X79836909Y-65318988D01*
X80081212Y-64953363D01*
X80114073Y-64788161D01*
X80135088Y-64819612D01*
X80281727Y-64917594D01*
X80454700Y-64952000D01*
X80538517Y-64952000D01*
X80538788Y-64953363D01*
X80783091Y-65318988D01*
X81148716Y-65563291D01*
X81580000Y-65649079D01*
X82011284Y-65563291D01*
X82376909Y-65318988D01*
X82621212Y-64953363D01*
X82654073Y-64788161D01*
X82675088Y-64819612D01*
X82821727Y-64917594D01*
X82994700Y-64952000D01*
X83078517Y-64952000D01*
X83078788Y-64953363D01*
X83323091Y-65318988D01*
X83688716Y-65563291D01*
X84120000Y-65649079D01*
X84551284Y-65563291D01*
X84916909Y-65318988D01*
X85161212Y-64953363D01*
X85194073Y-64788161D01*
X85215088Y-64819612D01*
X85361727Y-64917594D01*
X85534700Y-64952000D01*
X85618517Y-64952000D01*
X85618788Y-64953363D01*
X85863091Y-65318988D01*
X86228716Y-65563291D01*
X86660000Y-65649079D01*
X87091284Y-65563291D01*
X87456909Y-65318988D01*
X87701212Y-64953363D01*
X87787000Y-64522079D01*
X87787000Y-64477921D01*
X88073000Y-64477921D01*
X88073000Y-64522079D01*
X88158788Y-64953363D01*
X88403091Y-65318988D01*
X88768716Y-65563291D01*
X89200000Y-65649079D01*
X89631284Y-65563291D01*
X89996909Y-65318988D01*
X90241212Y-64953363D01*
X90327000Y-64522079D01*
X90327000Y-64477921D01*
X90613000Y-64477921D01*
X90613000Y-64522079D01*
X90698788Y-64953363D01*
X90943091Y-65318988D01*
X91308716Y-65563291D01*
X91740000Y-65649079D01*
X92171284Y-65563291D01*
X92536909Y-65318988D01*
X92781212Y-64953363D01*
X92867000Y-64522079D01*
X92867000Y-64477921D01*
X93153000Y-64477921D01*
X93153000Y-64522079D01*
X93238788Y-64953363D01*
X93483091Y-65318988D01*
X93848716Y-65563291D01*
X94280000Y-65649079D01*
X94711284Y-65563291D01*
X95076909Y-65318988D01*
X95321212Y-64953363D01*
X95407000Y-64522079D01*
X95407000Y-64477921D01*
X95321212Y-64046637D01*
X95076909Y-63681012D01*
X94711284Y-63436709D01*
X94280000Y-63350921D01*
X93848716Y-63436709D01*
X93483091Y-63681012D01*
X93238788Y-64046637D01*
X93153000Y-64477921D01*
X92867000Y-64477921D01*
X92781212Y-64046637D01*
X92536909Y-63681012D01*
X92171284Y-63436709D01*
X91740000Y-63350921D01*
X91308716Y-63436709D01*
X90943091Y-63681012D01*
X90698788Y-64046637D01*
X90613000Y-64477921D01*
X90327000Y-64477921D01*
X90241212Y-64046637D01*
X89996909Y-63681012D01*
X89631284Y-63436709D01*
X89200000Y-63350921D01*
X88768716Y-63436709D01*
X88403091Y-63681012D01*
X88158788Y-64046637D01*
X88073000Y-64477921D01*
X87787000Y-64477921D01*
X87701212Y-64046637D01*
X87456909Y-63681012D01*
X87091284Y-63436709D01*
X86660000Y-63350921D01*
X86228716Y-63436709D01*
X85863091Y-63681012D01*
X85772266Y-63816942D01*
X85010412Y-63055088D01*
X84863773Y-62957106D01*
X84690800Y-62922700D01*
X83699581Y-62922700D01*
X83852403Y-62859555D01*
X84028935Y-62683331D01*
X84124591Y-62452965D01*
X84124809Y-62203529D01*
X84029555Y-61972997D01*
X83853331Y-61796465D01*
X83622965Y-61700809D01*
X83373529Y-61700591D01*
X83142997Y-61795845D01*
X83063002Y-61875700D01*
X83045324Y-61875700D01*
X79172372Y-58002748D01*
X79471284Y-57943291D01*
X79836909Y-57698988D01*
X80081212Y-57333363D01*
X80167000Y-56902079D01*
X80167000Y-56857921D01*
X80081212Y-56426637D01*
X79836909Y-56061012D01*
X79558763Y-55875161D01*
X79945013Y-55488912D01*
X80042994Y-55342273D01*
X80077400Y-55169300D01*
X80077400Y-53571014D01*
X80243091Y-53818988D01*
X80608716Y-54063291D01*
X81040000Y-54149079D01*
X81471284Y-54063291D01*
X81836909Y-53818988D01*
X81950100Y-53649586D01*
X81950100Y-53954576D01*
X81260388Y-54644288D01*
X81162406Y-54790927D01*
X81128000Y-54963900D01*
X81128000Y-55830551D01*
X80783091Y-56061012D01*
X80538788Y-56426637D01*
X80453000Y-56857921D01*
X80453000Y-56902079D01*
X80538788Y-57333363D01*
X80783091Y-57698988D01*
X81148716Y-57943291D01*
X81580000Y-58029079D01*
X82011284Y-57943291D01*
X82376909Y-57698988D01*
X82621212Y-57333363D01*
X82707000Y-56902079D01*
X82707000Y-56857921D01*
X82621212Y-56426637D01*
X82376909Y-56061012D01*
X82032000Y-55830551D01*
X82032000Y-55151124D01*
X82589324Y-54593800D01*
X86674200Y-54593800D01*
X86847173Y-54559394D01*
X86993812Y-54461412D01*
X87772226Y-53682998D01*
X87863091Y-53818988D01*
X88228716Y-54063291D01*
X88513531Y-54119945D01*
X87330776Y-55302700D01*
X86089200Y-55302700D01*
X85916227Y-55337106D01*
X85769588Y-55435088D01*
X85007734Y-56196942D01*
X84916909Y-56061012D01*
X84551284Y-55816709D01*
X84120000Y-55730921D01*
X83688716Y-55816709D01*
X83323091Y-56061012D01*
X83078788Y-56426637D01*
X82993000Y-56857921D01*
X82993000Y-56902079D01*
X83078788Y-57333363D01*
X83323091Y-57698988D01*
X83688716Y-57943291D01*
X84120000Y-58029079D01*
X84551284Y-57943291D01*
X84916909Y-57698988D01*
X85161212Y-57333363D01*
X85161483Y-57332000D01*
X85245300Y-57332000D01*
X85418273Y-57297594D01*
X85564912Y-57199612D01*
X85585927Y-57168161D01*
X85618788Y-57333363D01*
X85863091Y-57698988D01*
X86228716Y-57943291D01*
X86660000Y-58029079D01*
X87091284Y-57943291D01*
X87378639Y-57751286D01*
X87268965Y-57860769D01*
X87173309Y-58091135D01*
X87173091Y-58340571D01*
X87268345Y-58571103D01*
X87444569Y-58747635D01*
X87674935Y-58843291D01*
X87924371Y-58843509D01*
X88045644Y-58793400D01*
X94718398Y-58793400D01*
X99060080Y-63135082D01*
X99010961Y-63108096D01*
X98622577Y-63268959D01*
X98207611Y-63644866D01*
X97968086Y-64150959D01*
X98089370Y-64372998D01*
X97926129Y-64372998D01*
X97861212Y-64046637D01*
X97616909Y-63681012D01*
X97251284Y-63436709D01*
X96820000Y-63350921D01*
X96388716Y-63436709D01*
X96023091Y-63681012D01*
X95778788Y-64046637D01*
X95693000Y-64477921D01*
X95693000Y-64522079D01*
X95778788Y-64953363D01*
X96023091Y-65318988D01*
X96388716Y-65563291D01*
X96820000Y-65649079D01*
X97251284Y-65563291D01*
X97616909Y-65318988D01*
X97861212Y-64953363D01*
X97926129Y-64627002D01*
X98089370Y-64627002D01*
X97968086Y-64849041D01*
X98207611Y-65355134D01*
X98622577Y-65731041D01*
X99010961Y-65891904D01*
X99233000Y-65769915D01*
X99233000Y-64627000D01*
X99213000Y-64627000D01*
X99213000Y-64373000D01*
X99233000Y-64373000D01*
X99233000Y-64353000D01*
X99487000Y-64353000D01*
X99487000Y-64373000D01*
X99507000Y-64373000D01*
X99507000Y-64627000D01*
X99487000Y-64627000D01*
X99487000Y-65769915D01*
X99709039Y-65891904D01*
X100097423Y-65731041D01*
X100512389Y-65355134D01*
X100751914Y-64849041D01*
X100725281Y-64800283D01*
X105832999Y-69908001D01*
X106020192Y-70033078D01*
X106241000Y-70077000D01*
X107018996Y-70077000D01*
X107044019Y-70137560D01*
X107360772Y-70454867D01*
X107774842Y-70626804D01*
X108223191Y-70627195D01*
X108637560Y-70455981D01*
X108954867Y-70139228D01*
X109126804Y-69725158D01*
X109126948Y-69559772D01*
X110372700Y-70805524D01*
X110372700Y-71000000D01*
X110407106Y-71172973D01*
X110505088Y-71319612D01*
X110651727Y-71417594D01*
X110816594Y-71450388D01*
X110816594Y-71850000D01*
X110839395Y-71971179D01*
X110911012Y-72082474D01*
X111020286Y-72157138D01*
X111150000Y-72183406D01*
X111587966Y-72183406D01*
X111582406Y-72191727D01*
X111548000Y-72364700D01*
X111548000Y-72448322D01*
X111526523Y-72452594D01*
X111144676Y-72707735D01*
X110889535Y-73089582D01*
X110799941Y-73540000D01*
X110889535Y-73990418D01*
X111144676Y-74372265D01*
X111526523Y-74627406D01*
X111976941Y-74717000D01*
X112023059Y-74717000D01*
X112473477Y-74627406D01*
X112855324Y-74372265D01*
X113110465Y-73990418D01*
X113200059Y-73540000D01*
X113110465Y-73089582D01*
X112928132Y-72816700D01*
X112954900Y-72816700D01*
X113127873Y-72782294D01*
X113274512Y-72684312D01*
X120672312Y-65286512D01*
X120770294Y-65139873D01*
X120804700Y-64966900D01*
X120804700Y-57236700D01*
X120770294Y-57063727D01*
X120672312Y-56917088D01*
X119422998Y-55667774D01*
X119558988Y-55576909D01*
X119803291Y-55211284D01*
X119889079Y-54780000D01*
X119803291Y-54348716D01*
X119558988Y-53983091D01*
X119193363Y-53738788D01*
X118762079Y-53653000D01*
X118717921Y-53653000D01*
X118286637Y-53738788D01*
X117921012Y-53983091D01*
X117676709Y-54348716D01*
X117590921Y-54780000D01*
X117676709Y-55211284D01*
X117921012Y-55576909D01*
X118286637Y-55821212D01*
X118288000Y-55821483D01*
X118288000Y-55905300D01*
X118322406Y-56078273D01*
X118420388Y-56224912D01*
X118451839Y-56245927D01*
X118286637Y-56278788D01*
X117921012Y-56523091D01*
X117676709Y-56888716D01*
X117622577Y-57160853D01*
X112701724Y-52240000D01*
X117590921Y-52240000D01*
X117676709Y-52671284D01*
X117921012Y-53036909D01*
X118286637Y-53281212D01*
X118717921Y-53367000D01*
X118762079Y-53367000D01*
X119193363Y-53281212D01*
X119558988Y-53036909D01*
X119803291Y-52671284D01*
X119889079Y-52240000D01*
X119803291Y-51808716D01*
X119558988Y-51443091D01*
X119193363Y-51198788D01*
X118762079Y-51113000D01*
X118717921Y-51113000D01*
X118286637Y-51198788D01*
X117921012Y-51443091D01*
X117676709Y-51808716D01*
X117590921Y-52240000D01*
X112701724Y-52240000D01*
X110161724Y-49700000D01*
X117590921Y-49700000D01*
X117676709Y-50131284D01*
X117921012Y-50496909D01*
X118286637Y-50741212D01*
X118717921Y-50827000D01*
X118762079Y-50827000D01*
X119193363Y-50741212D01*
X119558988Y-50496909D01*
X119803291Y-50131284D01*
X119889079Y-49700000D01*
X119803291Y-49268716D01*
X119558988Y-48903091D01*
X119193363Y-48658788D01*
X118762079Y-48573000D01*
X118717921Y-48573000D01*
X118286637Y-48658788D01*
X117921012Y-48903091D01*
X117676709Y-49268716D01*
X117590921Y-49700000D01*
X110161724Y-49700000D01*
X109510400Y-49048676D01*
X109510400Y-47160000D01*
X117590921Y-47160000D01*
X117676709Y-47591284D01*
X117921012Y-47956909D01*
X118286637Y-48201212D01*
X118717921Y-48287000D01*
X118762079Y-48287000D01*
X119193363Y-48201212D01*
X119558988Y-47956909D01*
X119803291Y-47591284D01*
X119889079Y-47160000D01*
X119803291Y-46728716D01*
X119558988Y-46363091D01*
X119193363Y-46118788D01*
X118762079Y-46033000D01*
X118717921Y-46033000D01*
X118286637Y-46118788D01*
X117921012Y-46363091D01*
X117676709Y-46728716D01*
X117590921Y-47160000D01*
X109510400Y-47160000D01*
X109510400Y-44620000D01*
X117590921Y-44620000D01*
X117676709Y-45051284D01*
X117921012Y-45416909D01*
X118286637Y-45661212D01*
X118717921Y-45747000D01*
X118762079Y-45747000D01*
X119193363Y-45661212D01*
X119558988Y-45416909D01*
X119803291Y-45051284D01*
X119889079Y-44620000D01*
X119803291Y-44188716D01*
X119558988Y-43823091D01*
X119193363Y-43578788D01*
X118762079Y-43493000D01*
X118717921Y-43493000D01*
X118286637Y-43578788D01*
X117921012Y-43823091D01*
X117676709Y-44188716D01*
X117590921Y-44620000D01*
X109510400Y-44620000D01*
X109510400Y-42080000D01*
X117590921Y-42080000D01*
X117676709Y-42511284D01*
X117921012Y-42876909D01*
X118286637Y-43121212D01*
X118717921Y-43207000D01*
X118762079Y-43207000D01*
X119193363Y-43121212D01*
X119558988Y-42876909D01*
X119803291Y-42511284D01*
X119889079Y-42080000D01*
X119803291Y-41648716D01*
X119558988Y-41283091D01*
X119193363Y-41038788D01*
X118762079Y-40953000D01*
X118717921Y-40953000D01*
X118286637Y-41038788D01*
X117921012Y-41283091D01*
X117676709Y-41648716D01*
X117590921Y-42080000D01*
X109510400Y-42080000D01*
X109510400Y-40491400D01*
X109475994Y-40318427D01*
X109378012Y-40171788D01*
X108746224Y-39540000D01*
X117590921Y-39540000D01*
X117676709Y-39971284D01*
X117921012Y-40336909D01*
X118286637Y-40581212D01*
X118717921Y-40667000D01*
X118762079Y-40667000D01*
X119193363Y-40581212D01*
X119558988Y-40336909D01*
X119803291Y-39971284D01*
X119889079Y-39540000D01*
X119803291Y-39108716D01*
X119558988Y-38743091D01*
X119193363Y-38498788D01*
X118762079Y-38413000D01*
X118717921Y-38413000D01*
X118286637Y-38498788D01*
X117921012Y-38743091D01*
X117676709Y-39108716D01*
X117590921Y-39540000D01*
X108746224Y-39540000D01*
X103213969Y-34007745D01*
X103671861Y-34007745D01*
X103745995Y-34253864D01*
X104283223Y-34446965D01*
X104853454Y-34419778D01*
X105254005Y-34253864D01*
X105328139Y-34007745D01*
X104500000Y-33179605D01*
X103671861Y-34007745D01*
X103213969Y-34007745D01*
X101632812Y-32426588D01*
X101486173Y-32328606D01*
X101313200Y-32294200D01*
X95757800Y-32294200D01*
X95584827Y-32328606D01*
X95438188Y-32426588D01*
X94667774Y-33197002D01*
X94576909Y-33061012D01*
X94211284Y-32816709D01*
X93780000Y-32730921D01*
X93348716Y-32816709D01*
X92983091Y-33061012D01*
X92738788Y-33426637D01*
X92653000Y-33857921D01*
X92653000Y-33902079D01*
X92738788Y-34333363D01*
X92983091Y-34698988D01*
X93328000Y-34929449D01*
X93328000Y-40450551D01*
X92983091Y-40681012D01*
X92738788Y-41046637D01*
X92653000Y-41477921D01*
X92653000Y-41522079D01*
X92699929Y-41758005D01*
X92353878Y-41411954D01*
X92281212Y-41046637D01*
X92254700Y-41006959D01*
X92254700Y-35568000D01*
X92220294Y-35395027D01*
X92122312Y-35248388D01*
X91758763Y-34884839D01*
X92036909Y-34698988D01*
X92281212Y-34333363D01*
X92367000Y-33902079D01*
X92367000Y-33857921D01*
X92281212Y-33426637D01*
X92036909Y-33061012D01*
X91671284Y-32816709D01*
X91240000Y-32730921D01*
X90808716Y-32816709D01*
X90443091Y-33061012D01*
X90198788Y-33426637D01*
X90113000Y-33857921D01*
X90113000Y-33902079D01*
X90198788Y-34333363D01*
X90443091Y-34698988D01*
X90788000Y-34929449D01*
X90788000Y-35005300D01*
X90822406Y-35178273D01*
X90920388Y-35324912D01*
X91350700Y-35755224D01*
X91350700Y-40372941D01*
X91240000Y-40350921D01*
X90808716Y-40436709D01*
X90443091Y-40681012D01*
X90198788Y-41046637D01*
X90165927Y-41211839D01*
X90144912Y-41180388D01*
X89998273Y-41082406D01*
X89825300Y-41048000D01*
X89741483Y-41048000D01*
X89741212Y-41046637D01*
X89496909Y-40681012D01*
X89152000Y-40450551D01*
X89152000Y-34929449D01*
X89496909Y-34698988D01*
X89741212Y-34333363D01*
X89827000Y-33902079D01*
X89827000Y-33857921D01*
X89741212Y-33426637D01*
X89496909Y-33061012D01*
X89131284Y-32816709D01*
X88700000Y-32730921D01*
X88268716Y-32816709D01*
X87903091Y-33061012D01*
X87658788Y-33426637D01*
X87573000Y-33857921D01*
X87573000Y-33902079D01*
X87658788Y-34333363D01*
X87903091Y-34698988D01*
X88248000Y-34929449D01*
X88248000Y-40450551D01*
X87903091Y-40681012D01*
X87658788Y-41046637D01*
X87573000Y-41477921D01*
X87573000Y-41522079D01*
X87658788Y-41953363D01*
X87903091Y-42318988D01*
X88268716Y-42563291D01*
X88700000Y-42649079D01*
X89131284Y-42563291D01*
X89375158Y-42400340D01*
X89407706Y-42563973D01*
X89505688Y-42710612D01*
X91054866Y-44259790D01*
X90768716Y-44316709D01*
X90403091Y-44561012D01*
X90158788Y-44926637D01*
X90073000Y-45357921D01*
X90073000Y-45402079D01*
X90158788Y-45833363D01*
X90403091Y-46198988D01*
X90681236Y-46384839D01*
X89755088Y-47310988D01*
X89657106Y-47457627D01*
X89622700Y-47630600D01*
X89622700Y-52429136D01*
X89456909Y-52181012D01*
X89091284Y-51936709D01*
X88660000Y-51850921D01*
X88228716Y-51936709D01*
X87863091Y-52181012D01*
X87618788Y-52546637D01*
X87618517Y-52548000D01*
X87534700Y-52548000D01*
X87361727Y-52582406D01*
X87215088Y-52680388D01*
X87194073Y-52711839D01*
X87161212Y-52546637D01*
X86916909Y-52181012D01*
X86638763Y-51995161D01*
X88979612Y-49654313D01*
X89077594Y-49507673D01*
X89080810Y-49491506D01*
X89112000Y-49334700D01*
X89112000Y-46429449D01*
X89456909Y-46198988D01*
X89701212Y-45833363D01*
X89787000Y-45402079D01*
X89787000Y-45357921D01*
X89701212Y-44926637D01*
X89456909Y-44561012D01*
X89091284Y-44316709D01*
X88660000Y-44230921D01*
X88228716Y-44316709D01*
X87863091Y-44561012D01*
X87618788Y-44926637D01*
X87533000Y-45357921D01*
X87533000Y-45402079D01*
X87618788Y-45833363D01*
X87863091Y-46198988D01*
X88208000Y-46429449D01*
X88208000Y-49147475D01*
X85800388Y-51555088D01*
X85702406Y-51701727D01*
X85668000Y-51874700D01*
X85668000Y-51950551D01*
X85323091Y-52181012D01*
X85078788Y-52546637D01*
X84993000Y-52977921D01*
X84993000Y-53022079D01*
X85078788Y-53453363D01*
X85236770Y-53689800D01*
X84463230Y-53689800D01*
X84621212Y-53453363D01*
X84707000Y-53022079D01*
X84707000Y-52977921D01*
X84621212Y-52546637D01*
X84376909Y-52181012D01*
X84032000Y-51950551D01*
X84032000Y-46429449D01*
X84376909Y-46198988D01*
X84621212Y-45833363D01*
X84707000Y-45402079D01*
X84707000Y-45357921D01*
X84993000Y-45357921D01*
X84993000Y-45402079D01*
X85078788Y-45833363D01*
X85323091Y-46198988D01*
X85688716Y-46443291D01*
X86120000Y-46529079D01*
X86551284Y-46443291D01*
X86916909Y-46198988D01*
X87161212Y-45833363D01*
X87247000Y-45402079D01*
X87247000Y-45357921D01*
X87161212Y-44926637D01*
X86916909Y-44561012D01*
X86551284Y-44316709D01*
X86120000Y-44230921D01*
X85688716Y-44316709D01*
X85323091Y-44561012D01*
X85078788Y-44926637D01*
X84993000Y-45357921D01*
X84707000Y-45357921D01*
X84621212Y-44926637D01*
X84376909Y-44561012D01*
X84011284Y-44316709D01*
X83580000Y-44230921D01*
X83148716Y-44316709D01*
X82783091Y-44561012D01*
X82538788Y-44926637D01*
X82453000Y-45357921D01*
X82453000Y-45402079D01*
X82538788Y-45833363D01*
X82783091Y-46198988D01*
X83128000Y-46429449D01*
X83128000Y-51950551D01*
X82854100Y-52133565D01*
X82854100Y-47867400D01*
X82819694Y-47694427D01*
X82721712Y-47547788D01*
X81558763Y-46384839D01*
X81836909Y-46198988D01*
X82081212Y-45833363D01*
X82167000Y-45402079D01*
X82167000Y-45357921D01*
X82081212Y-44926637D01*
X81836909Y-44561012D01*
X81471284Y-44316709D01*
X81197896Y-44262328D01*
X81207824Y-44252400D01*
X83015600Y-44252400D01*
X83188573Y-44217994D01*
X83335212Y-44120012D01*
X85272226Y-42182999D01*
X85363091Y-42318988D01*
X85728716Y-42563291D01*
X86160000Y-42649079D01*
X86591284Y-42563291D01*
X86956909Y-42318988D01*
X87201212Y-41953363D01*
X87287000Y-41522079D01*
X87287000Y-41477921D01*
X87201212Y-41046637D01*
X86956909Y-40681012D01*
X86612000Y-40450551D01*
X86612000Y-34929449D01*
X86956909Y-34698988D01*
X87201212Y-34333363D01*
X87287000Y-33902079D01*
X87287000Y-33857921D01*
X87201212Y-33426637D01*
X86956909Y-33061012D01*
X86591284Y-32816709D01*
X86160000Y-32730921D01*
X85728716Y-32816709D01*
X85363091Y-33061012D01*
X85118788Y-33426637D01*
X85033000Y-33857921D01*
X85033000Y-33902079D01*
X85118788Y-34333363D01*
X85363091Y-34698988D01*
X85708000Y-34929449D01*
X85708000Y-40450551D01*
X85363091Y-40681012D01*
X85118788Y-41046637D01*
X85118517Y-41048000D01*
X85034700Y-41048000D01*
X84861727Y-41082406D01*
X84715088Y-41180388D01*
X84694073Y-41211839D01*
X84661212Y-41046637D01*
X84416909Y-40681012D01*
X84072000Y-40450551D01*
X84072000Y-34929449D01*
X84416909Y-34698988D01*
X84661212Y-34333363D01*
X84747000Y-33902079D01*
X84747000Y-33857921D01*
X84661212Y-33426637D01*
X84416909Y-33061012D01*
X84051284Y-32816709D01*
X83620000Y-32730921D01*
X83188716Y-32816709D01*
X82823091Y-33061012D01*
X82578788Y-33426637D01*
X82493000Y-33857921D01*
X82493000Y-33902079D01*
X82578788Y-34333363D01*
X82823091Y-34698988D01*
X83168000Y-34929449D01*
X83168000Y-40450551D01*
X82823091Y-40681012D01*
X82578788Y-41046637D01*
X82578517Y-41048000D01*
X82494700Y-41048000D01*
X82321727Y-41082406D01*
X82175088Y-41180388D01*
X82154073Y-41211839D01*
X82121212Y-41046637D01*
X81876909Y-40681012D01*
X81532000Y-40450551D01*
X81532000Y-34929449D01*
X81876909Y-34698988D01*
X82121212Y-34333363D01*
X82207000Y-33902079D01*
X82207000Y-33857921D01*
X82121212Y-33426637D01*
X81876909Y-33061012D01*
X81511284Y-32816709D01*
X81080000Y-32730921D01*
X80648716Y-32816709D01*
X80283091Y-33061012D01*
X80038788Y-33426637D01*
X79953000Y-33857921D01*
X79953000Y-33902079D01*
X80038788Y-34333363D01*
X80283091Y-34698988D01*
X80628000Y-34929449D01*
X80628000Y-40450551D01*
X80283091Y-40681012D01*
X80038788Y-41046637D01*
X80038517Y-41048000D01*
X79954700Y-41048000D01*
X79781727Y-41082406D01*
X79635088Y-41180388D01*
X79614073Y-41211839D01*
X79581212Y-41046637D01*
X79336909Y-40681012D01*
X79122066Y-40537458D01*
X79281512Y-40378012D01*
X79379494Y-40231373D01*
X79413900Y-40058400D01*
X79413900Y-38691900D01*
X79379494Y-38518927D01*
X79281512Y-38372288D01*
X78992000Y-38082776D01*
X78992000Y-34929449D01*
X79336909Y-34698988D01*
X79581212Y-34333363D01*
X79667000Y-33902079D01*
X79667000Y-33857921D01*
X79581212Y-33426637D01*
X79336909Y-33061012D01*
X78971284Y-32816709D01*
X78694727Y-32761698D01*
X79162325Y-32294100D01*
X103228845Y-32294100D01*
X103053035Y-32783223D01*
X103080222Y-33353454D01*
X103246136Y-33754005D01*
X103492255Y-33828139D01*
X104320395Y-33000000D01*
X104306252Y-32985858D01*
X104485858Y-32806252D01*
X104500000Y-32820395D01*
X104514142Y-32806252D01*
X104693748Y-32985858D01*
X104679605Y-33000000D01*
X105507745Y-33828139D01*
X105753864Y-33754005D01*
X105946965Y-33216777D01*
X105919778Y-32646546D01*
X105773790Y-32294100D01*
X108611922Y-32294100D01*
X108545133Y-32360772D01*
X108373196Y-32774842D01*
X108372805Y-33223191D01*
X108544019Y-33637560D01*
X108860772Y-33954867D01*
X109274842Y-34126804D01*
X109723191Y-34127195D01*
X110137560Y-33955981D01*
X110454867Y-33639228D01*
X110626804Y-33225158D01*
X110627195Y-32776809D01*
X110455981Y-32362440D01*
X110387760Y-32294100D01*
X112269576Y-32294100D01*
X117295088Y-37319612D01*
X117441727Y-37417594D01*
X117614700Y-37452000D01*
X117690551Y-37452000D01*
X117921012Y-37796909D01*
X118286637Y-38041212D01*
X118717921Y-38127000D01*
X118762079Y-38127000D01*
X119193363Y-38041212D01*
X119558988Y-37796909D01*
X119803291Y-37431284D01*
X119889079Y-37000000D01*
X119803291Y-36568716D01*
X119558988Y-36203091D01*
X119193363Y-35958788D01*
X118762079Y-35873000D01*
X118717921Y-35873000D01*
X118286637Y-35958788D01*
X117921012Y-36203091D01*
X117735161Y-36481237D01*
X112776412Y-31522488D01*
X112629773Y-31424506D01*
X112456800Y-31390100D01*
X78975100Y-31390100D01*
X78802127Y-31424506D01*
X78655488Y-31522487D01*
X76950388Y-33227588D01*
X76929300Y-33259149D01*
X76796909Y-33061012D01*
X76431284Y-32816709D01*
X76000000Y-32730921D01*
X75568716Y-32816709D01*
X75203091Y-33061012D01*
X74958788Y-33426637D01*
X74873000Y-33857921D01*
X74873000Y-33902079D01*
X74958788Y-34333363D01*
X75203091Y-34698988D01*
X75568716Y-34943291D01*
X75903159Y-35009816D01*
X74364976Y-36548000D01*
X72414857Y-36548000D01*
X72637560Y-36455981D01*
X72954867Y-36139228D01*
X73126804Y-35725158D01*
X73127195Y-35276809D01*
X72955981Y-34862440D01*
X72639228Y-34545133D01*
X72225158Y-34373196D01*
X71776809Y-34372805D01*
X71362440Y-34544019D01*
X71045133Y-34860772D01*
X70873196Y-35274842D01*
X70872805Y-35723191D01*
X71044019Y-36137560D01*
X71360772Y-36454867D01*
X71585061Y-36548000D01*
X70289449Y-36548000D01*
X70058988Y-36203091D01*
X69693363Y-35958788D01*
X69262079Y-35873000D01*
X69217921Y-35873000D01*
X68786637Y-35958788D01*
X68421012Y-36203091D01*
X68176709Y-36568716D01*
X68090921Y-37000000D01*
X68176709Y-37431284D01*
X68421012Y-37796909D01*
X68621799Y-37931070D01*
X68592888Y-37950388D01*
X54931620Y-51611656D01*
X54818988Y-51443091D01*
X54453363Y-51198788D01*
X54022079Y-51113000D01*
X53977921Y-51113000D01*
X53546637Y-51198788D01*
X53181012Y-51443091D01*
X52936709Y-51808716D01*
X52850921Y-52240000D01*
X50627000Y-52240000D01*
X50627000Y-49700000D01*
X52850921Y-49700000D01*
X52936709Y-50131284D01*
X53181012Y-50496909D01*
X53546637Y-50741212D01*
X53977921Y-50827000D01*
X54022079Y-50827000D01*
X54453363Y-50741212D01*
X54818988Y-50496909D01*
X55063291Y-50131284D01*
X55149079Y-49700000D01*
X55063291Y-49268716D01*
X54818988Y-48903091D01*
X54453363Y-48658788D01*
X54022079Y-48573000D01*
X53977921Y-48573000D01*
X53546637Y-48658788D01*
X53181012Y-48903091D01*
X52936709Y-49268716D01*
X52850921Y-49700000D01*
X50627000Y-49700000D01*
X50627000Y-47160000D01*
X52850921Y-47160000D01*
X52936709Y-47591284D01*
X53181012Y-47956909D01*
X53546637Y-48201212D01*
X53977921Y-48287000D01*
X54022079Y-48287000D01*
X54453363Y-48201212D01*
X54818988Y-47956909D01*
X55063291Y-47591284D01*
X55149079Y-47160000D01*
X55063291Y-46728716D01*
X54818988Y-46363091D01*
X54453363Y-46118788D01*
X54022079Y-46033000D01*
X53977921Y-46033000D01*
X53546637Y-46118788D01*
X53181012Y-46363091D01*
X52936709Y-46728716D01*
X52850921Y-47160000D01*
X50627000Y-47160000D01*
X50627000Y-44620000D01*
X52850921Y-44620000D01*
X52936709Y-45051284D01*
X53181012Y-45416909D01*
X53546637Y-45661212D01*
X53977921Y-45747000D01*
X54022079Y-45747000D01*
X54453363Y-45661212D01*
X54818988Y-45416909D01*
X55063291Y-45051284D01*
X55149079Y-44620000D01*
X55063291Y-44188716D01*
X54818988Y-43823091D01*
X54453363Y-43578788D01*
X54022079Y-43493000D01*
X53977921Y-43493000D01*
X53546637Y-43578788D01*
X53181012Y-43823091D01*
X52936709Y-44188716D01*
X52850921Y-44620000D01*
X50627000Y-44620000D01*
X50627000Y-42080000D01*
X52850921Y-42080000D01*
X52936709Y-42511284D01*
X53181012Y-42876909D01*
X53546637Y-43121212D01*
X53977921Y-43207000D01*
X54022079Y-43207000D01*
X54453363Y-43121212D01*
X54818988Y-42876909D01*
X55063291Y-42511284D01*
X55149079Y-42080000D01*
X55063291Y-41648716D01*
X54818988Y-41283091D01*
X54453363Y-41038788D01*
X54022079Y-40953000D01*
X53977921Y-40953000D01*
X53546637Y-41038788D01*
X53181012Y-41283091D01*
X52936709Y-41648716D01*
X52850921Y-42080000D01*
X50627000Y-42080000D01*
X50627000Y-37285750D01*
X52565000Y-37285750D01*
X52565000Y-37926310D01*
X52661673Y-38159699D01*
X52840302Y-38338327D01*
X53073691Y-38435000D01*
X53714250Y-38435000D01*
X53872998Y-38276252D01*
X53872998Y-38433871D01*
X53546637Y-38498788D01*
X53181012Y-38743091D01*
X52936709Y-39108716D01*
X52850921Y-39540000D01*
X52936709Y-39971284D01*
X53181012Y-40336909D01*
X53546637Y-40581212D01*
X53977921Y-40667000D01*
X54022079Y-40667000D01*
X54453363Y-40581212D01*
X54818988Y-40336909D01*
X55063291Y-39971284D01*
X55149079Y-39540000D01*
X55063291Y-39108716D01*
X54818988Y-38743091D01*
X54453363Y-38498788D01*
X54127002Y-38433871D01*
X54127002Y-38276252D01*
X54285750Y-38435000D01*
X54926309Y-38435000D01*
X55159698Y-38338327D01*
X55338327Y-38159699D01*
X55435000Y-37926310D01*
X55435000Y-37285750D01*
X55276250Y-37127000D01*
X54127000Y-37127000D01*
X54127000Y-37147000D01*
X53873000Y-37147000D01*
X53873000Y-37127000D01*
X52723750Y-37127000D01*
X52565000Y-37285750D01*
X50627000Y-37285750D01*
X50627000Y-36073690D01*
X52565000Y-36073690D01*
X52565000Y-36714250D01*
X52723750Y-36873000D01*
X53873000Y-36873000D01*
X53873000Y-35723750D01*
X54127000Y-35723750D01*
X54127000Y-36873000D01*
X55276250Y-36873000D01*
X55435000Y-36714250D01*
X55435000Y-36073690D01*
X55338327Y-35840301D01*
X55159698Y-35661673D01*
X54926309Y-35565000D01*
X54285750Y-35565000D01*
X54127000Y-35723750D01*
X53873000Y-35723750D01*
X53714250Y-35565000D01*
X53073691Y-35565000D01*
X52840302Y-35661673D01*
X52661673Y-35840301D01*
X52565000Y-36073690D01*
X50627000Y-36073690D01*
X50627000Y-30627000D01*
X121373000Y-30627000D01*
X121373000Y-76373000D01*
X121373000Y-76373000D01*
G37*
X121373000Y-76373000D02*
X97514680Y-76373000D01*
X97857423Y-76231041D01*
X98272389Y-75855134D01*
X98511914Y-75349041D01*
X98390629Y-75127000D01*
X97247000Y-75127000D01*
X97247000Y-75147000D01*
X96993000Y-75147000D01*
X96993000Y-75127000D01*
X96973000Y-75127000D01*
X96973000Y-74873000D01*
X96993000Y-74873000D01*
X96993000Y-73730085D01*
X97247000Y-73730085D01*
X97247000Y-74873000D01*
X98390629Y-74873000D01*
X98511914Y-74650959D01*
X98272389Y-74144866D01*
X97857423Y-73768959D01*
X97469039Y-73608096D01*
X97247000Y-73730085D01*
X96993000Y-73730085D01*
X96770961Y-73608096D01*
X96382577Y-73768959D01*
X95967611Y-74144866D01*
X95728086Y-74650959D01*
X95849370Y-74872998D01*
X95686129Y-74872998D01*
X95621212Y-74546637D01*
X95376909Y-74181012D01*
X95011284Y-73936709D01*
X94580000Y-73850921D01*
X94148716Y-73936709D01*
X93783091Y-74181012D01*
X93538788Y-74546637D01*
X93453000Y-74977921D01*
X93453000Y-75022079D01*
X93538788Y-75453363D01*
X93783091Y-75818988D01*
X94148716Y-76063291D01*
X94580000Y-76149079D01*
X95011284Y-76063291D01*
X95376909Y-75818988D01*
X95621212Y-75453363D01*
X95686129Y-75127002D01*
X95849370Y-75127002D01*
X95728086Y-75349041D01*
X95967611Y-75855134D01*
X96382577Y-76231041D01*
X96725320Y-76373000D01*
X50627000Y-76373000D01*
X50627000Y-75507745D01*
X68171861Y-75507745D01*
X68245995Y-75753864D01*
X68783223Y-75946965D01*
X69353454Y-75919778D01*
X69754005Y-75753864D01*
X69828139Y-75507745D01*
X69000000Y-74679605D01*
X68171861Y-75507745D01*
X50627000Y-75507745D01*
X50627000Y-74283223D01*
X67553035Y-74283223D01*
X67580222Y-74853454D01*
X67746136Y-75254005D01*
X67992255Y-75328139D01*
X68820395Y-74500000D01*
X69179605Y-74500000D01*
X70007745Y-75328139D01*
X70253864Y-75254005D01*
X70446965Y-74716777D01*
X70436999Y-74507745D01*
X85171861Y-74507745D01*
X85245995Y-74753864D01*
X85783223Y-74946965D01*
X86353454Y-74919778D01*
X86754005Y-74753864D01*
X86828139Y-74507745D01*
X86000000Y-73679605D01*
X85171861Y-74507745D01*
X70436999Y-74507745D01*
X70419778Y-74146546D01*
X70253864Y-73745995D01*
X70007745Y-73671861D01*
X69179605Y-74500000D01*
X68820395Y-74500000D01*
X67992255Y-73671861D01*
X67746136Y-73745995D01*
X67553035Y-74283223D01*
X50627000Y-74283223D01*
X50627000Y-73492255D01*
X68171861Y-73492255D01*
X69000000Y-74320395D01*
X69828139Y-73492255D01*
X69765177Y-73283223D01*
X84553035Y-73283223D01*
X84580222Y-73853454D01*
X84746136Y-74254005D01*
X84992255Y-74328139D01*
X85820395Y-73500000D01*
X86179605Y-73500000D01*
X87007745Y-74328139D01*
X87253864Y-74254005D01*
X87273275Y-74200000D01*
X88366594Y-74200000D01*
X88366594Y-75800000D01*
X88389395Y-75921179D01*
X88461012Y-76032474D01*
X88570286Y-76107138D01*
X88700000Y-76133406D01*
X90300000Y-76133406D01*
X90421179Y-76110605D01*
X90532474Y-76038988D01*
X90607138Y-75929714D01*
X90633406Y-75800000D01*
X90633406Y-74977921D01*
X90913000Y-74977921D01*
X90913000Y-75022079D01*
X90998788Y-75453363D01*
X91243091Y-75818988D01*
X91608716Y-76063291D01*
X92040000Y-76149079D01*
X92471284Y-76063291D01*
X92836909Y-75818988D01*
X93081212Y-75453363D01*
X93167000Y-75022079D01*
X93167000Y-74977921D01*
X93081212Y-74546637D01*
X92836909Y-74181012D01*
X92471284Y-73936709D01*
X92040000Y-73850921D01*
X91608716Y-73936709D01*
X91243091Y-74181012D01*
X90998788Y-74546637D01*
X90913000Y-74977921D01*
X90633406Y-74977921D01*
X90633406Y-74200000D01*
X90610605Y-74078821D01*
X90538988Y-73967526D01*
X90429714Y-73892862D01*
X90300000Y-73866594D01*
X88700000Y-73866594D01*
X88578821Y-73889395D01*
X88467526Y-73961012D01*
X88392862Y-74070286D01*
X88366594Y-74200000D01*
X87273275Y-74200000D01*
X87446965Y-73716777D01*
X87419778Y-73146546D01*
X87253864Y-72745995D01*
X87007745Y-72671861D01*
X86179605Y-73500000D01*
X85820395Y-73500000D01*
X84992255Y-72671861D01*
X84746136Y-72745995D01*
X84553035Y-73283223D01*
X69765177Y-73283223D01*
X69754005Y-73246136D01*
X69216777Y-73053035D01*
X68646546Y-73080222D01*
X68245995Y-73246136D01*
X68171861Y-73492255D01*
X50627000Y-73492255D01*
X50627000Y-72492255D01*
X85171861Y-72492255D01*
X86000000Y-73320395D01*
X86828139Y-72492255D01*
X86754005Y-72246136D01*
X86216777Y-72053035D01*
X85646546Y-72080222D01*
X85245995Y-72246136D01*
X85171861Y-72492255D01*
X50627000Y-72492255D01*
X50627000Y-64940000D01*
X52850921Y-64940000D01*
X52936709Y-65371284D01*
X53181012Y-65736909D01*
X53546637Y-65981212D01*
X53977921Y-66067000D01*
X54022079Y-66067000D01*
X54453363Y-65981212D01*
X54818988Y-65736909D01*
X55063291Y-65371284D01*
X55149079Y-64940000D01*
X55063291Y-64508716D01*
X54818988Y-64143091D01*
X54453363Y-63898788D01*
X54022079Y-63813000D01*
X53977921Y-63813000D01*
X53546637Y-63898788D01*
X53181012Y-64143091D01*
X52936709Y-64508716D01*
X52850921Y-64940000D01*
X50627000Y-64940000D01*
X50627000Y-62400000D01*
X52850921Y-62400000D01*
X52936709Y-62831284D01*
X53181012Y-63196909D01*
X53546637Y-63441212D01*
X53977921Y-63527000D01*
X54022079Y-63527000D01*
X54453363Y-63441212D01*
X54818988Y-63196909D01*
X55063291Y-62831284D01*
X55149079Y-62400000D01*
X55063291Y-61968716D01*
X54818988Y-61603091D01*
X54453363Y-61358788D01*
X54022079Y-61273000D01*
X53977921Y-61273000D01*
X53546637Y-61358788D01*
X53181012Y-61603091D01*
X52936709Y-61968716D01*
X52850921Y-62400000D01*
X50627000Y-62400000D01*
X50627000Y-52240000D01*
X52850921Y-52240000D01*
X52936709Y-52671284D01*
X53181012Y-53036909D01*
X53546637Y-53281212D01*
X53711839Y-53314073D01*
X53680388Y-53335088D01*
X53582406Y-53481727D01*
X53548000Y-53654700D01*
X53548000Y-53738517D01*
X53546637Y-53738788D01*
X53181012Y-53983091D01*
X52936709Y-54348716D01*
X52850921Y-54780000D01*
X52936709Y-55211284D01*
X53181012Y-55576909D01*
X53546637Y-55821212D01*
X53711839Y-55854073D01*
X53680388Y-55875088D01*
X53582406Y-56021727D01*
X53548000Y-56194700D01*
X53548000Y-56278517D01*
X53546637Y-56278788D01*
X53181012Y-56523091D01*
X52936709Y-56888716D01*
X52850921Y-57320000D01*
X52936709Y-57751284D01*
X53181012Y-58116909D01*
X53546637Y-58361212D01*
X53711839Y-58394073D01*
X53680388Y-58415088D01*
X53582406Y-58561727D01*
X53548000Y-58734700D01*
X53548000Y-58818517D01*
X53546637Y-58818788D01*
X53181012Y-59063091D01*
X52936709Y-59428716D01*
X52850921Y-59860000D01*
X52936709Y-60291284D01*
X53181012Y-60656909D01*
X53546637Y-60901212D01*
X53977921Y-60987000D01*
X54022079Y-60987000D01*
X54453363Y-60901212D01*
X54818988Y-60656909D01*
X55063291Y-60291284D01*
X55149079Y-59860000D01*
X55063291Y-59428716D01*
X54818988Y-59063091D01*
X54683058Y-58972266D01*
X55444912Y-58210412D01*
X55542894Y-58063773D01*
X55577300Y-57890800D01*
X55577300Y-57329324D01*
X68123390Y-44783234D01*
X68176709Y-45051284D01*
X68421012Y-45416909D01*
X68557002Y-45507774D01*
X66870088Y-47194688D01*
X66772106Y-47341327D01*
X66737700Y-47514300D01*
X66737700Y-56898700D01*
X66772106Y-57071673D01*
X66870088Y-57218312D01*
X68417188Y-58765412D01*
X68563827Y-58863394D01*
X68684081Y-58887314D01*
X68421012Y-59063091D01*
X68176709Y-59428716D01*
X68090921Y-59860000D01*
X68176709Y-60291284D01*
X68421012Y-60656909D01*
X68786637Y-60901212D01*
X69217921Y-60987000D01*
X69262079Y-60987000D01*
X69693363Y-60901212D01*
X70045300Y-60666055D01*
X70045300Y-61593945D01*
X69693363Y-61358788D01*
X69262079Y-61273000D01*
X69217921Y-61273000D01*
X68786637Y-61358788D01*
X68421012Y-61603091D01*
X68176709Y-61968716D01*
X68090921Y-62400000D01*
X68176709Y-62831284D01*
X68421012Y-63196909D01*
X68786637Y-63441212D01*
X69217921Y-63527000D01*
X69262079Y-63527000D01*
X69693363Y-63441212D01*
X70045300Y-63206055D01*
X70045300Y-64133945D01*
X69693363Y-63898788D01*
X69262079Y-63813000D01*
X69217921Y-63813000D01*
X68786637Y-63898788D01*
X68421012Y-64143091D01*
X68176709Y-64508716D01*
X68090921Y-64940000D01*
X68176709Y-65371284D01*
X68421012Y-65736909D01*
X68725629Y-65940447D01*
X67515188Y-67150888D01*
X67417206Y-67297527D01*
X67382800Y-67470500D01*
X67382800Y-70222200D01*
X67417206Y-70395173D01*
X67442220Y-70432609D01*
X67442091Y-70580771D01*
X67537345Y-70811303D01*
X67713569Y-70987835D01*
X67943935Y-71083491D01*
X68193371Y-71083709D01*
X68423903Y-70988455D01*
X68600435Y-70812231D01*
X68691756Y-70592304D01*
X68774842Y-70626804D01*
X69223191Y-70627195D01*
X69512281Y-70507745D01*
X102171861Y-70507745D01*
X102245995Y-70753864D01*
X102783223Y-70946965D01*
X103353454Y-70919778D01*
X103754005Y-70753864D01*
X103828139Y-70507745D01*
X103000000Y-69679605D01*
X102171861Y-70507745D01*
X69512281Y-70507745D01*
X69637560Y-70455981D01*
X69954867Y-70139228D01*
X70126804Y-69725158D01*
X70127195Y-69276809D01*
X70101465Y-69214537D01*
X70592810Y-68723191D01*
X84872805Y-68723191D01*
X85044019Y-69137560D01*
X85360772Y-69454867D01*
X85774842Y-69626804D01*
X86223191Y-69627195D01*
X86637560Y-69455981D01*
X86810620Y-69283223D01*
X101553035Y-69283223D01*
X101580222Y-69853454D01*
X101746136Y-70254005D01*
X101992255Y-70328139D01*
X102820395Y-69500000D01*
X103179605Y-69500000D01*
X104007745Y-70328139D01*
X104253864Y-70254005D01*
X104446965Y-69716777D01*
X104419778Y-69146546D01*
X104253864Y-68745995D01*
X104007745Y-68671861D01*
X103179605Y-69500000D01*
X102820395Y-69500000D01*
X101992255Y-68671861D01*
X101746136Y-68745995D01*
X101553035Y-69283223D01*
X86810620Y-69283223D01*
X86954867Y-69139228D01*
X87126804Y-68725158D01*
X87127195Y-68276809D01*
X86955981Y-67862440D01*
X86639228Y-67545133D01*
X86225158Y-67373196D01*
X85776809Y-67372805D01*
X85362440Y-67544019D01*
X85045133Y-67860772D01*
X84873196Y-68274842D01*
X84872805Y-68723191D01*
X70592810Y-68723191D01*
X71030298Y-68285703D01*
X71030301Y-68285701D01*
X71155378Y-68098508D01*
X71190389Y-67922500D01*
X71199301Y-67877700D01*
X71199300Y-67877695D01*
X71199300Y-67357921D01*
X88373000Y-67357921D01*
X88373000Y-67402079D01*
X88458788Y-67833363D01*
X88703091Y-68198988D01*
X89068716Y-68443291D01*
X89500000Y-68529079D01*
X89931284Y-68443291D01*
X90296909Y-68198988D01*
X90541212Y-67833363D01*
X90627000Y-67402079D01*
X90627000Y-67357921D01*
X90913000Y-67357921D01*
X90913000Y-67402079D01*
X90998788Y-67833363D01*
X91243091Y-68198988D01*
X91608716Y-68443291D01*
X92040000Y-68529079D01*
X92471284Y-68443291D01*
X92836909Y-68198988D01*
X93081212Y-67833363D01*
X93167000Y-67402079D01*
X93167000Y-67357921D01*
X93453000Y-67357921D01*
X93453000Y-67402079D01*
X93538788Y-67833363D01*
X93783091Y-68198988D01*
X94148716Y-68443291D01*
X94580000Y-68529079D01*
X95011284Y-68443291D01*
X95376909Y-68198988D01*
X95621212Y-67833363D01*
X95707000Y-67402079D01*
X95707000Y-67357921D01*
X95993000Y-67357921D01*
X95993000Y-67402079D01*
X96078788Y-67833363D01*
X96323091Y-68198988D01*
X96688716Y-68443291D01*
X97120000Y-68529079D01*
X97305126Y-68492255D01*
X102171861Y-68492255D01*
X103000000Y-69320395D01*
X103828139Y-68492255D01*
X103754005Y-68246136D01*
X103216777Y-68053035D01*
X102646546Y-68080222D01*
X102245995Y-68246136D01*
X102171861Y-68492255D01*
X97305126Y-68492255D01*
X97551284Y-68443291D01*
X97916909Y-68198988D01*
X98161212Y-67833363D01*
X98247000Y-67402079D01*
X98247000Y-67357921D01*
X98161212Y-66926637D01*
X97916909Y-66561012D01*
X97551284Y-66316709D01*
X97120000Y-66230921D01*
X96688716Y-66316709D01*
X96323091Y-66561012D01*
X96078788Y-66926637D01*
X95993000Y-67357921D01*
X95707000Y-67357921D01*
X95621212Y-66926637D01*
X95376909Y-66561012D01*
X95011284Y-66316709D01*
X94580000Y-66230921D01*
X94148716Y-66316709D01*
X93783091Y-66561012D01*
X93538788Y-66926637D01*
X93453000Y-67357921D01*
X93167000Y-67357921D01*
X93081212Y-66926637D01*
X92836909Y-66561012D01*
X92471284Y-66316709D01*
X92040000Y-66230921D01*
X91608716Y-66316709D01*
X91243091Y-66561012D01*
X90998788Y-66926637D01*
X90913000Y-67357921D01*
X90627000Y-67357921D01*
X90541212Y-66926637D01*
X90296909Y-66561012D01*
X89931284Y-66316709D01*
X89500000Y-66230921D01*
X89068716Y-66316709D01*
X88703091Y-66561012D01*
X88458788Y-66926637D01*
X88373000Y-67357921D01*
X71199300Y-67357921D01*
X71199300Y-64507745D01*
X71671861Y-64507745D01*
X71745995Y-64753864D01*
X72283223Y-64946965D01*
X72853454Y-64919778D01*
X73177025Y-64785750D01*
X75065000Y-64785750D01*
X75065000Y-65426309D01*
X75161673Y-65659698D01*
X75340301Y-65838327D01*
X75573690Y-65935000D01*
X76214250Y-65935000D01*
X76373000Y-65776250D01*
X76373000Y-64627000D01*
X75223750Y-64627000D01*
X75065000Y-64785750D01*
X73177025Y-64785750D01*
X73254005Y-64753864D01*
X73328139Y-64507745D01*
X72500000Y-63679605D01*
X71671861Y-64507745D01*
X71199300Y-64507745D01*
X71199300Y-64140933D01*
X71246136Y-64254005D01*
X71492255Y-64328139D01*
X72320395Y-63500000D01*
X72679605Y-63500000D01*
X73507745Y-64328139D01*
X73753864Y-64254005D01*
X73946965Y-63716777D01*
X73940144Y-63573691D01*
X75065000Y-63573691D01*
X75065000Y-64214250D01*
X75223750Y-64373000D01*
X76373000Y-64373000D01*
X76373000Y-63223750D01*
X76214250Y-63065000D01*
X75573690Y-63065000D01*
X75340301Y-63161673D01*
X75161673Y-63340302D01*
X75065000Y-63573691D01*
X73940144Y-63573691D01*
X73919778Y-63146546D01*
X73753864Y-62745995D01*
X73507745Y-62671861D01*
X72679605Y-63500000D01*
X72320395Y-63500000D01*
X71492255Y-62671861D01*
X71246136Y-62745995D01*
X71199300Y-62876298D01*
X71199300Y-62492255D01*
X71671861Y-62492255D01*
X72500000Y-63320395D01*
X73328139Y-62492255D01*
X73254005Y-62246136D01*
X72716777Y-62053035D01*
X72146546Y-62080222D01*
X71745995Y-62246136D01*
X71671861Y-62492255D01*
X71199300Y-62492255D01*
X71199300Y-60616702D01*
X72214326Y-59601675D01*
X72274842Y-59626804D01*
X72723191Y-59627195D01*
X73137560Y-59455981D01*
X73454867Y-59139228D01*
X73626804Y-58725158D01*
X73626850Y-58671874D01*
X78478615Y-63523639D01*
X78243091Y-63681012D01*
X77998788Y-64046637D01*
X77933871Y-64372998D01*
X77776252Y-64372998D01*
X77935000Y-64214250D01*
X77935000Y-63573691D01*
X77838327Y-63340302D01*
X77659699Y-63161673D01*
X77426310Y-63065000D01*
X76785750Y-63065000D01*
X76627000Y-63223750D01*
X76627000Y-64373000D01*
X76647000Y-64373000D01*
X76647000Y-64627000D01*
X76627000Y-64627000D01*
X76627000Y-65776250D01*
X76785750Y-65935000D01*
X77426310Y-65935000D01*
X77659699Y-65838327D01*
X77838327Y-65659698D01*
X77935000Y-65426309D01*
X77935000Y-64785750D01*
X77776252Y-64627002D01*
X77933871Y-64627002D01*
X77998788Y-64953363D01*
X78243091Y-65318988D01*
X78608716Y-65563291D01*
X79040000Y-65649079D01*
X79471284Y-65563291D01*
X79836909Y-65318988D01*
X80081212Y-64953363D01*
X80114073Y-64788161D01*
X80135088Y-64819612D01*
X80281727Y-64917594D01*
X80454700Y-64952000D01*
X80538517Y-64952000D01*
X80538788Y-64953363D01*
X80783091Y-65318988D01*
X81148716Y-65563291D01*
X81580000Y-65649079D01*
X82011284Y-65563291D01*
X82376909Y-65318988D01*
X82621212Y-64953363D01*
X82654073Y-64788161D01*
X82675088Y-64819612D01*
X82821727Y-64917594D01*
X82994700Y-64952000D01*
X83078517Y-64952000D01*
X83078788Y-64953363D01*
X83323091Y-65318988D01*
X83688716Y-65563291D01*
X84120000Y-65649079D01*
X84551284Y-65563291D01*
X84916909Y-65318988D01*
X85161212Y-64953363D01*
X85194073Y-64788161D01*
X85215088Y-64819612D01*
X85361727Y-64917594D01*
X85534700Y-64952000D01*
X85618517Y-64952000D01*
X85618788Y-64953363D01*
X85863091Y-65318988D01*
X86228716Y-65563291D01*
X86660000Y-65649079D01*
X87091284Y-65563291D01*
X87456909Y-65318988D01*
X87701212Y-64953363D01*
X87787000Y-64522079D01*
X87787000Y-64477921D01*
X88073000Y-64477921D01*
X88073000Y-64522079D01*
X88158788Y-64953363D01*
X88403091Y-65318988D01*
X88768716Y-65563291D01*
X89200000Y-65649079D01*
X89631284Y-65563291D01*
X89996909Y-65318988D01*
X90241212Y-64953363D01*
X90327000Y-64522079D01*
X90327000Y-64477921D01*
X90613000Y-64477921D01*
X90613000Y-64522079D01*
X90698788Y-64953363D01*
X90943091Y-65318988D01*
X91308716Y-65563291D01*
X91740000Y-65649079D01*
X92171284Y-65563291D01*
X92536909Y-65318988D01*
X92781212Y-64953363D01*
X92867000Y-64522079D01*
X92867000Y-64477921D01*
X93153000Y-64477921D01*
X93153000Y-64522079D01*
X93238788Y-64953363D01*
X93483091Y-65318988D01*
X93848716Y-65563291D01*
X94280000Y-65649079D01*
X94711284Y-65563291D01*
X95076909Y-65318988D01*
X95321212Y-64953363D01*
X95407000Y-64522079D01*
X95407000Y-64477921D01*
X95321212Y-64046637D01*
X95076909Y-63681012D01*
X94711284Y-63436709D01*
X94280000Y-63350921D01*
X93848716Y-63436709D01*
X93483091Y-63681012D01*
X93238788Y-64046637D01*
X93153000Y-64477921D01*
X92867000Y-64477921D01*
X92781212Y-64046637D01*
X92536909Y-63681012D01*
X92171284Y-63436709D01*
X91740000Y-63350921D01*
X91308716Y-63436709D01*
X90943091Y-63681012D01*
X90698788Y-64046637D01*
X90613000Y-64477921D01*
X90327000Y-64477921D01*
X90241212Y-64046637D01*
X89996909Y-63681012D01*
X89631284Y-63436709D01*
X89200000Y-63350921D01*
X88768716Y-63436709D01*
X88403091Y-63681012D01*
X88158788Y-64046637D01*
X88073000Y-64477921D01*
X87787000Y-64477921D01*
X87701212Y-64046637D01*
X87456909Y-63681012D01*
X87091284Y-63436709D01*
X86660000Y-63350921D01*
X86228716Y-63436709D01*
X85863091Y-63681012D01*
X85772266Y-63816942D01*
X85010412Y-63055088D01*
X84863773Y-62957106D01*
X84690800Y-62922700D01*
X83699581Y-62922700D01*
X83852403Y-62859555D01*
X84028935Y-62683331D01*
X84124591Y-62452965D01*
X84124809Y-62203529D01*
X84029555Y-61972997D01*
X83853331Y-61796465D01*
X83622965Y-61700809D01*
X83373529Y-61700591D01*
X83142997Y-61795845D01*
X83063002Y-61875700D01*
X83045324Y-61875700D01*
X79172372Y-58002748D01*
X79471284Y-57943291D01*
X79836909Y-57698988D01*
X80081212Y-57333363D01*
X80167000Y-56902079D01*
X80167000Y-56857921D01*
X80081212Y-56426637D01*
X79836909Y-56061012D01*
X79558763Y-55875161D01*
X79945013Y-55488912D01*
X80042994Y-55342273D01*
X80077400Y-55169300D01*
X80077400Y-53571014D01*
X80243091Y-53818988D01*
X80608716Y-54063291D01*
X81040000Y-54149079D01*
X81471284Y-54063291D01*
X81836909Y-53818988D01*
X81950100Y-53649586D01*
X81950100Y-53954576D01*
X81260388Y-54644288D01*
X81162406Y-54790927D01*
X81128000Y-54963900D01*
X81128000Y-55830551D01*
X80783091Y-56061012D01*
X80538788Y-56426637D01*
X80453000Y-56857921D01*
X80453000Y-56902079D01*
X80538788Y-57333363D01*
X80783091Y-57698988D01*
X81148716Y-57943291D01*
X81580000Y-58029079D01*
X82011284Y-57943291D01*
X82376909Y-57698988D01*
X82621212Y-57333363D01*
X82707000Y-56902079D01*
X82707000Y-56857921D01*
X82621212Y-56426637D01*
X82376909Y-56061012D01*
X82032000Y-55830551D01*
X82032000Y-55151124D01*
X82589324Y-54593800D01*
X86674200Y-54593800D01*
X86847173Y-54559394D01*
X86993812Y-54461412D01*
X87772226Y-53682998D01*
X87863091Y-53818988D01*
X88228716Y-54063291D01*
X88513531Y-54119945D01*
X87330776Y-55302700D01*
X86089200Y-55302700D01*
X85916227Y-55337106D01*
X85769588Y-55435088D01*
X85007734Y-56196942D01*
X84916909Y-56061012D01*
X84551284Y-55816709D01*
X84120000Y-55730921D01*
X83688716Y-55816709D01*
X83323091Y-56061012D01*
X83078788Y-56426637D01*
X82993000Y-56857921D01*
X82993000Y-56902079D01*
X83078788Y-57333363D01*
X83323091Y-57698988D01*
X83688716Y-57943291D01*
X84120000Y-58029079D01*
X84551284Y-57943291D01*
X84916909Y-57698988D01*
X85161212Y-57333363D01*
X85161483Y-57332000D01*
X85245300Y-57332000D01*
X85418273Y-57297594D01*
X85564912Y-57199612D01*
X85585927Y-57168161D01*
X85618788Y-57333363D01*
X85863091Y-57698988D01*
X86228716Y-57943291D01*
X86660000Y-58029079D01*
X87091284Y-57943291D01*
X87378639Y-57751286D01*
X87268965Y-57860769D01*
X87173309Y-58091135D01*
X87173091Y-58340571D01*
X87268345Y-58571103D01*
X87444569Y-58747635D01*
X87674935Y-58843291D01*
X87924371Y-58843509D01*
X88045644Y-58793400D01*
X94718398Y-58793400D01*
X99060080Y-63135082D01*
X99010961Y-63108096D01*
X98622577Y-63268959D01*
X98207611Y-63644866D01*
X97968086Y-64150959D01*
X98089370Y-64372998D01*
X97926129Y-64372998D01*
X97861212Y-64046637D01*
X97616909Y-63681012D01*
X97251284Y-63436709D01*
X96820000Y-63350921D01*
X96388716Y-63436709D01*
X96023091Y-63681012D01*
X95778788Y-64046637D01*
X95693000Y-64477921D01*
X95693000Y-64522079D01*
X95778788Y-64953363D01*
X96023091Y-65318988D01*
X96388716Y-65563291D01*
X96820000Y-65649079D01*
X97251284Y-65563291D01*
X97616909Y-65318988D01*
X97861212Y-64953363D01*
X97926129Y-64627002D01*
X98089370Y-64627002D01*
X97968086Y-64849041D01*
X98207611Y-65355134D01*
X98622577Y-65731041D01*
X99010961Y-65891904D01*
X99233000Y-65769915D01*
X99233000Y-64627000D01*
X99213000Y-64627000D01*
X99213000Y-64373000D01*
X99233000Y-64373000D01*
X99233000Y-64353000D01*
X99487000Y-64353000D01*
X99487000Y-64373000D01*
X99507000Y-64373000D01*
X99507000Y-64627000D01*
X99487000Y-64627000D01*
X99487000Y-65769915D01*
X99709039Y-65891904D01*
X100097423Y-65731041D01*
X100512389Y-65355134D01*
X100751914Y-64849041D01*
X100725281Y-64800283D01*
X105832999Y-69908001D01*
X106020192Y-70033078D01*
X106241000Y-70077000D01*
X107018996Y-70077000D01*
X107044019Y-70137560D01*
X107360772Y-70454867D01*
X107774842Y-70626804D01*
X108223191Y-70627195D01*
X108637560Y-70455981D01*
X108954867Y-70139228D01*
X109126804Y-69725158D01*
X109126948Y-69559772D01*
X110372700Y-70805524D01*
X110372700Y-71000000D01*
X110407106Y-71172973D01*
X110505088Y-71319612D01*
X110651727Y-71417594D01*
X110816594Y-71450388D01*
X110816594Y-71850000D01*
X110839395Y-71971179D01*
X110911012Y-72082474D01*
X111020286Y-72157138D01*
X111150000Y-72183406D01*
X111587966Y-72183406D01*
X111582406Y-72191727D01*
X111548000Y-72364700D01*
X111548000Y-72448322D01*
X111526523Y-72452594D01*
X111144676Y-72707735D01*
X110889535Y-73089582D01*
X110799941Y-73540000D01*
X110889535Y-73990418D01*
X111144676Y-74372265D01*
X111526523Y-74627406D01*
X111976941Y-74717000D01*
X112023059Y-74717000D01*
X112473477Y-74627406D01*
X112855324Y-74372265D01*
X113110465Y-73990418D01*
X113200059Y-73540000D01*
X113110465Y-73089582D01*
X112928132Y-72816700D01*
X112954900Y-72816700D01*
X113127873Y-72782294D01*
X113274512Y-72684312D01*
X120672312Y-65286512D01*
X120770294Y-65139873D01*
X120804700Y-64966900D01*
X120804700Y-57236700D01*
X120770294Y-57063727D01*
X120672312Y-56917088D01*
X119422998Y-55667774D01*
X119558988Y-55576909D01*
X119803291Y-55211284D01*
X119889079Y-54780000D01*
X119803291Y-54348716D01*
X119558988Y-53983091D01*
X119193363Y-53738788D01*
X118762079Y-53653000D01*
X118717921Y-53653000D01*
X118286637Y-53738788D01*
X117921012Y-53983091D01*
X117676709Y-54348716D01*
X117590921Y-54780000D01*
X117676709Y-55211284D01*
X117921012Y-55576909D01*
X118286637Y-55821212D01*
X118288000Y-55821483D01*
X118288000Y-55905300D01*
X118322406Y-56078273D01*
X118420388Y-56224912D01*
X118451839Y-56245927D01*
X118286637Y-56278788D01*
X117921012Y-56523091D01*
X117676709Y-56888716D01*
X117622577Y-57160853D01*
X112701724Y-52240000D01*
X117590921Y-52240000D01*
X117676709Y-52671284D01*
X117921012Y-53036909D01*
X118286637Y-53281212D01*
X118717921Y-53367000D01*
X118762079Y-53367000D01*
X119193363Y-53281212D01*
X119558988Y-53036909D01*
X119803291Y-52671284D01*
X119889079Y-52240000D01*
X119803291Y-51808716D01*
X119558988Y-51443091D01*
X119193363Y-51198788D01*
X118762079Y-51113000D01*
X118717921Y-51113000D01*
X118286637Y-51198788D01*
X117921012Y-51443091D01*
X117676709Y-51808716D01*
X117590921Y-52240000D01*
X112701724Y-52240000D01*
X110161724Y-49700000D01*
X117590921Y-49700000D01*
X117676709Y-50131284D01*
X117921012Y-50496909D01*
X118286637Y-50741212D01*
X118717921Y-50827000D01*
X118762079Y-50827000D01*
X119193363Y-50741212D01*
X119558988Y-50496909D01*
X119803291Y-50131284D01*
X119889079Y-49700000D01*
X119803291Y-49268716D01*
X119558988Y-48903091D01*
X119193363Y-48658788D01*
X118762079Y-48573000D01*
X118717921Y-48573000D01*
X118286637Y-48658788D01*
X117921012Y-48903091D01*
X117676709Y-49268716D01*
X117590921Y-49700000D01*
X110161724Y-49700000D01*
X109510400Y-49048676D01*
X109510400Y-47160000D01*
X117590921Y-47160000D01*
X117676709Y-47591284D01*
X117921012Y-47956909D01*
X118286637Y-48201212D01*
X118717921Y-48287000D01*
X118762079Y-48287000D01*
X119193363Y-48201212D01*
X119558988Y-47956909D01*
X119803291Y-47591284D01*
X119889079Y-47160000D01*
X119803291Y-46728716D01*
X119558988Y-46363091D01*
X119193363Y-46118788D01*
X118762079Y-46033000D01*
X118717921Y-46033000D01*
X118286637Y-46118788D01*
X117921012Y-46363091D01*
X117676709Y-46728716D01*
X117590921Y-47160000D01*
X109510400Y-47160000D01*
X109510400Y-44620000D01*
X117590921Y-44620000D01*
X117676709Y-45051284D01*
X117921012Y-45416909D01*
X118286637Y-45661212D01*
X118717921Y-45747000D01*
X118762079Y-45747000D01*
X119193363Y-45661212D01*
X119558988Y-45416909D01*
X119803291Y-45051284D01*
X119889079Y-44620000D01*
X119803291Y-44188716D01*
X119558988Y-43823091D01*
X119193363Y-43578788D01*
X118762079Y-43493000D01*
X118717921Y-43493000D01*
X118286637Y-43578788D01*
X117921012Y-43823091D01*
X117676709Y-44188716D01*
X117590921Y-44620000D01*
X109510400Y-44620000D01*
X109510400Y-42080000D01*
X117590921Y-42080000D01*
X117676709Y-42511284D01*
X117921012Y-42876909D01*
X118286637Y-43121212D01*
X118717921Y-43207000D01*
X118762079Y-43207000D01*
X119193363Y-43121212D01*
X119558988Y-42876909D01*
X119803291Y-42511284D01*
X119889079Y-42080000D01*
X119803291Y-41648716D01*
X119558988Y-41283091D01*
X119193363Y-41038788D01*
X118762079Y-40953000D01*
X118717921Y-40953000D01*
X118286637Y-41038788D01*
X117921012Y-41283091D01*
X117676709Y-41648716D01*
X117590921Y-42080000D01*
X109510400Y-42080000D01*
X109510400Y-40491400D01*
X109475994Y-40318427D01*
X109378012Y-40171788D01*
X108746224Y-39540000D01*
X117590921Y-39540000D01*
X117676709Y-39971284D01*
X117921012Y-40336909D01*
X118286637Y-40581212D01*
X118717921Y-40667000D01*
X118762079Y-40667000D01*
X119193363Y-40581212D01*
X119558988Y-40336909D01*
X119803291Y-39971284D01*
X119889079Y-39540000D01*
X119803291Y-39108716D01*
X119558988Y-38743091D01*
X119193363Y-38498788D01*
X118762079Y-38413000D01*
X118717921Y-38413000D01*
X118286637Y-38498788D01*
X117921012Y-38743091D01*
X117676709Y-39108716D01*
X117590921Y-39540000D01*
X108746224Y-39540000D01*
X103213969Y-34007745D01*
X103671861Y-34007745D01*
X103745995Y-34253864D01*
X104283223Y-34446965D01*
X104853454Y-34419778D01*
X105254005Y-34253864D01*
X105328139Y-34007745D01*
X104500000Y-33179605D01*
X103671861Y-34007745D01*
X103213969Y-34007745D01*
X101632812Y-32426588D01*
X101486173Y-32328606D01*
X101313200Y-32294200D01*
X95757800Y-32294200D01*
X95584827Y-32328606D01*
X95438188Y-32426588D01*
X94667774Y-33197002D01*
X94576909Y-33061012D01*
X94211284Y-32816709D01*
X93780000Y-32730921D01*
X93348716Y-32816709D01*
X92983091Y-33061012D01*
X92738788Y-33426637D01*
X92653000Y-33857921D01*
X92653000Y-33902079D01*
X92738788Y-34333363D01*
X92983091Y-34698988D01*
X93328000Y-34929449D01*
X93328000Y-40450551D01*
X92983091Y-40681012D01*
X92738788Y-41046637D01*
X92653000Y-41477921D01*
X92653000Y-41522079D01*
X92699929Y-41758005D01*
X92353878Y-41411954D01*
X92281212Y-41046637D01*
X92254700Y-41006959D01*
X92254700Y-35568000D01*
X92220294Y-35395027D01*
X92122312Y-35248388D01*
X91758763Y-34884839D01*
X92036909Y-34698988D01*
X92281212Y-34333363D01*
X92367000Y-33902079D01*
X92367000Y-33857921D01*
X92281212Y-33426637D01*
X92036909Y-33061012D01*
X91671284Y-32816709D01*
X91240000Y-32730921D01*
X90808716Y-32816709D01*
X90443091Y-33061012D01*
X90198788Y-33426637D01*
X90113000Y-33857921D01*
X90113000Y-33902079D01*
X90198788Y-34333363D01*
X90443091Y-34698988D01*
X90788000Y-34929449D01*
X90788000Y-35005300D01*
X90822406Y-35178273D01*
X90920388Y-35324912D01*
X91350700Y-35755224D01*
X91350700Y-40372941D01*
X91240000Y-40350921D01*
X90808716Y-40436709D01*
X90443091Y-40681012D01*
X90198788Y-41046637D01*
X90165927Y-41211839D01*
X90144912Y-41180388D01*
X89998273Y-41082406D01*
X89825300Y-41048000D01*
X89741483Y-41048000D01*
X89741212Y-41046637D01*
X89496909Y-40681012D01*
X89152000Y-40450551D01*
X89152000Y-34929449D01*
X89496909Y-34698988D01*
X89741212Y-34333363D01*
X89827000Y-33902079D01*
X89827000Y-33857921D01*
X89741212Y-33426637D01*
X89496909Y-33061012D01*
X89131284Y-32816709D01*
X88700000Y-32730921D01*
X88268716Y-32816709D01*
X87903091Y-33061012D01*
X87658788Y-33426637D01*
X87573000Y-33857921D01*
X87573000Y-33902079D01*
X87658788Y-34333363D01*
X87903091Y-34698988D01*
X88248000Y-34929449D01*
X88248000Y-40450551D01*
X87903091Y-40681012D01*
X87658788Y-41046637D01*
X87573000Y-41477921D01*
X87573000Y-41522079D01*
X87658788Y-41953363D01*
X87903091Y-42318988D01*
X88268716Y-42563291D01*
X88700000Y-42649079D01*
X89131284Y-42563291D01*
X89375158Y-42400340D01*
X89407706Y-42563973D01*
X89505688Y-42710612D01*
X91054866Y-44259790D01*
X90768716Y-44316709D01*
X90403091Y-44561012D01*
X90158788Y-44926637D01*
X90073000Y-45357921D01*
X90073000Y-45402079D01*
X90158788Y-45833363D01*
X90403091Y-46198988D01*
X90681236Y-46384839D01*
X89755088Y-47310988D01*
X89657106Y-47457627D01*
X89622700Y-47630600D01*
X89622700Y-52429136D01*
X89456909Y-52181012D01*
X89091284Y-51936709D01*
X88660000Y-51850921D01*
X88228716Y-51936709D01*
X87863091Y-52181012D01*
X87618788Y-52546637D01*
X87618517Y-52548000D01*
X87534700Y-52548000D01*
X87361727Y-52582406D01*
X87215088Y-52680388D01*
X87194073Y-52711839D01*
X87161212Y-52546637D01*
X86916909Y-52181012D01*
X86638763Y-51995161D01*
X88979612Y-49654313D01*
X89077594Y-49507673D01*
X89080810Y-49491506D01*
X89112000Y-49334700D01*
X89112000Y-46429449D01*
X89456909Y-46198988D01*
X89701212Y-45833363D01*
X89787000Y-45402079D01*
X89787000Y-45357921D01*
X89701212Y-44926637D01*
X89456909Y-44561012D01*
X89091284Y-44316709D01*
X88660000Y-44230921D01*
X88228716Y-44316709D01*
X87863091Y-44561012D01*
X87618788Y-44926637D01*
X87533000Y-45357921D01*
X87533000Y-45402079D01*
X87618788Y-45833363D01*
X87863091Y-46198988D01*
X88208000Y-46429449D01*
X88208000Y-49147475D01*
X85800388Y-51555088D01*
X85702406Y-51701727D01*
X85668000Y-51874700D01*
X85668000Y-51950551D01*
X85323091Y-52181012D01*
X85078788Y-52546637D01*
X84993000Y-52977921D01*
X84993000Y-53022079D01*
X85078788Y-53453363D01*
X85236770Y-53689800D01*
X84463230Y-53689800D01*
X84621212Y-53453363D01*
X84707000Y-53022079D01*
X84707000Y-52977921D01*
X84621212Y-52546637D01*
X84376909Y-52181012D01*
X84032000Y-51950551D01*
X84032000Y-46429449D01*
X84376909Y-46198988D01*
X84621212Y-45833363D01*
X84707000Y-45402079D01*
X84707000Y-45357921D01*
X84993000Y-45357921D01*
X84993000Y-45402079D01*
X85078788Y-45833363D01*
X85323091Y-46198988D01*
X85688716Y-46443291D01*
X86120000Y-46529079D01*
X86551284Y-46443291D01*
X86916909Y-46198988D01*
X87161212Y-45833363D01*
X87247000Y-45402079D01*
X87247000Y-45357921D01*
X87161212Y-44926637D01*
X86916909Y-44561012D01*
X86551284Y-44316709D01*
X86120000Y-44230921D01*
X85688716Y-44316709D01*
X85323091Y-44561012D01*
X85078788Y-44926637D01*
X84993000Y-45357921D01*
X84707000Y-45357921D01*
X84621212Y-44926637D01*
X84376909Y-44561012D01*
X84011284Y-44316709D01*
X83580000Y-44230921D01*
X83148716Y-44316709D01*
X82783091Y-44561012D01*
X82538788Y-44926637D01*
X82453000Y-45357921D01*
X82453000Y-45402079D01*
X82538788Y-45833363D01*
X82783091Y-46198988D01*
X83128000Y-46429449D01*
X83128000Y-51950551D01*
X82854100Y-52133565D01*
X82854100Y-47867400D01*
X82819694Y-47694427D01*
X82721712Y-47547788D01*
X81558763Y-46384839D01*
X81836909Y-46198988D01*
X82081212Y-45833363D01*
X82167000Y-45402079D01*
X82167000Y-45357921D01*
X82081212Y-44926637D01*
X81836909Y-44561012D01*
X81471284Y-44316709D01*
X81197896Y-44262328D01*
X81207824Y-44252400D01*
X83015600Y-44252400D01*
X83188573Y-44217994D01*
X83335212Y-44120012D01*
X85272226Y-42182999D01*
X85363091Y-42318988D01*
X85728716Y-42563291D01*
X86160000Y-42649079D01*
X86591284Y-42563291D01*
X86956909Y-42318988D01*
X87201212Y-41953363D01*
X87287000Y-41522079D01*
X87287000Y-41477921D01*
X87201212Y-41046637D01*
X86956909Y-40681012D01*
X86612000Y-40450551D01*
X86612000Y-34929449D01*
X86956909Y-34698988D01*
X87201212Y-34333363D01*
X87287000Y-33902079D01*
X87287000Y-33857921D01*
X87201212Y-33426637D01*
X86956909Y-33061012D01*
X86591284Y-32816709D01*
X86160000Y-32730921D01*
X85728716Y-32816709D01*
X85363091Y-33061012D01*
X85118788Y-33426637D01*
X85033000Y-33857921D01*
X85033000Y-33902079D01*
X85118788Y-34333363D01*
X85363091Y-34698988D01*
X85708000Y-34929449D01*
X85708000Y-40450551D01*
X85363091Y-40681012D01*
X85118788Y-41046637D01*
X85118517Y-41048000D01*
X85034700Y-41048000D01*
X84861727Y-41082406D01*
X84715088Y-41180388D01*
X84694073Y-41211839D01*
X84661212Y-41046637D01*
X84416909Y-40681012D01*
X84072000Y-40450551D01*
X84072000Y-34929449D01*
X84416909Y-34698988D01*
X84661212Y-34333363D01*
X84747000Y-33902079D01*
X84747000Y-33857921D01*
X84661212Y-33426637D01*
X84416909Y-33061012D01*
X84051284Y-32816709D01*
X83620000Y-32730921D01*
X83188716Y-32816709D01*
X82823091Y-33061012D01*
X82578788Y-33426637D01*
X82493000Y-33857921D01*
X82493000Y-33902079D01*
X82578788Y-34333363D01*
X82823091Y-34698988D01*
X83168000Y-34929449D01*
X83168000Y-40450551D01*
X82823091Y-40681012D01*
X82578788Y-41046637D01*
X82578517Y-41048000D01*
X82494700Y-41048000D01*
X82321727Y-41082406D01*
X82175088Y-41180388D01*
X82154073Y-41211839D01*
X82121212Y-41046637D01*
X81876909Y-40681012D01*
X81532000Y-40450551D01*
X81532000Y-34929449D01*
X81876909Y-34698988D01*
X82121212Y-34333363D01*
X82207000Y-33902079D01*
X82207000Y-33857921D01*
X82121212Y-33426637D01*
X81876909Y-33061012D01*
X81511284Y-32816709D01*
X81080000Y-32730921D01*
X80648716Y-32816709D01*
X80283091Y-33061012D01*
X80038788Y-33426637D01*
X79953000Y-33857921D01*
X79953000Y-33902079D01*
X80038788Y-34333363D01*
X80283091Y-34698988D01*
X80628000Y-34929449D01*
X80628000Y-40450551D01*
X80283091Y-40681012D01*
X80038788Y-41046637D01*
X80038517Y-41048000D01*
X79954700Y-41048000D01*
X79781727Y-41082406D01*
X79635088Y-41180388D01*
X79614073Y-41211839D01*
X79581212Y-41046637D01*
X79336909Y-40681012D01*
X79122066Y-40537458D01*
X79281512Y-40378012D01*
X79379494Y-40231373D01*
X79413900Y-40058400D01*
X79413900Y-38691900D01*
X79379494Y-38518927D01*
X79281512Y-38372288D01*
X78992000Y-38082776D01*
X78992000Y-34929449D01*
X79336909Y-34698988D01*
X79581212Y-34333363D01*
X79667000Y-33902079D01*
X79667000Y-33857921D01*
X79581212Y-33426637D01*
X79336909Y-33061012D01*
X78971284Y-32816709D01*
X78694727Y-32761698D01*
X79162325Y-32294100D01*
X103228845Y-32294100D01*
X103053035Y-32783223D01*
X103080222Y-33353454D01*
X103246136Y-33754005D01*
X103492255Y-33828139D01*
X104320395Y-33000000D01*
X104306252Y-32985858D01*
X104485858Y-32806252D01*
X104500000Y-32820395D01*
X104514142Y-32806252D01*
X104693748Y-32985858D01*
X104679605Y-33000000D01*
X105507745Y-33828139D01*
X105753864Y-33754005D01*
X105946965Y-33216777D01*
X105919778Y-32646546D01*
X105773790Y-32294100D01*
X108611922Y-32294100D01*
X108545133Y-32360772D01*
X108373196Y-32774842D01*
X108372805Y-33223191D01*
X108544019Y-33637560D01*
X108860772Y-33954867D01*
X109274842Y-34126804D01*
X109723191Y-34127195D01*
X110137560Y-33955981D01*
X110454867Y-33639228D01*
X110626804Y-33225158D01*
X110627195Y-32776809D01*
X110455981Y-32362440D01*
X110387760Y-32294100D01*
X112269576Y-32294100D01*
X117295088Y-37319612D01*
X117441727Y-37417594D01*
X117614700Y-37452000D01*
X117690551Y-37452000D01*
X117921012Y-37796909D01*
X118286637Y-38041212D01*
X118717921Y-38127000D01*
X118762079Y-38127000D01*
X119193363Y-38041212D01*
X119558988Y-37796909D01*
X119803291Y-37431284D01*
X119889079Y-37000000D01*
X119803291Y-36568716D01*
X119558988Y-36203091D01*
X119193363Y-35958788D01*
X118762079Y-35873000D01*
X118717921Y-35873000D01*
X118286637Y-35958788D01*
X117921012Y-36203091D01*
X117735161Y-36481237D01*
X112776412Y-31522488D01*
X112629773Y-31424506D01*
X112456800Y-31390100D01*
X78975100Y-31390100D01*
X78802127Y-31424506D01*
X78655488Y-31522487D01*
X76950388Y-33227588D01*
X76929300Y-33259149D01*
X76796909Y-33061012D01*
X76431284Y-32816709D01*
X76000000Y-32730921D01*
X75568716Y-32816709D01*
X75203091Y-33061012D01*
X74958788Y-33426637D01*
X74873000Y-33857921D01*
X74873000Y-33902079D01*
X74958788Y-34333363D01*
X75203091Y-34698988D01*
X75568716Y-34943291D01*
X75903159Y-35009816D01*
X74364976Y-36548000D01*
X72414857Y-36548000D01*
X72637560Y-36455981D01*
X72954867Y-36139228D01*
X73126804Y-35725158D01*
X73127195Y-35276809D01*
X72955981Y-34862440D01*
X72639228Y-34545133D01*
X72225158Y-34373196D01*
X71776809Y-34372805D01*
X71362440Y-34544019D01*
X71045133Y-34860772D01*
X70873196Y-35274842D01*
X70872805Y-35723191D01*
X71044019Y-36137560D01*
X71360772Y-36454867D01*
X71585061Y-36548000D01*
X70289449Y-36548000D01*
X70058988Y-36203091D01*
X69693363Y-35958788D01*
X69262079Y-35873000D01*
X69217921Y-35873000D01*
X68786637Y-35958788D01*
X68421012Y-36203091D01*
X68176709Y-36568716D01*
X68090921Y-37000000D01*
X68176709Y-37431284D01*
X68421012Y-37796909D01*
X68621799Y-37931070D01*
X68592888Y-37950388D01*
X54931620Y-51611656D01*
X54818988Y-51443091D01*
X54453363Y-51198788D01*
X54022079Y-51113000D01*
X53977921Y-51113000D01*
X53546637Y-51198788D01*
X53181012Y-51443091D01*
X52936709Y-51808716D01*
X52850921Y-52240000D01*
X50627000Y-52240000D01*
X50627000Y-49700000D01*
X52850921Y-49700000D01*
X52936709Y-50131284D01*
X53181012Y-50496909D01*
X53546637Y-50741212D01*
X53977921Y-50827000D01*
X54022079Y-50827000D01*
X54453363Y-50741212D01*
X54818988Y-50496909D01*
X55063291Y-50131284D01*
X55149079Y-49700000D01*
X55063291Y-49268716D01*
X54818988Y-48903091D01*
X54453363Y-48658788D01*
X54022079Y-48573000D01*
X53977921Y-48573000D01*
X53546637Y-48658788D01*
X53181012Y-48903091D01*
X52936709Y-49268716D01*
X52850921Y-49700000D01*
X50627000Y-49700000D01*
X50627000Y-47160000D01*
X52850921Y-47160000D01*
X52936709Y-47591284D01*
X53181012Y-47956909D01*
X53546637Y-48201212D01*
X53977921Y-48287000D01*
X54022079Y-48287000D01*
X54453363Y-48201212D01*
X54818988Y-47956909D01*
X55063291Y-47591284D01*
X55149079Y-47160000D01*
X55063291Y-46728716D01*
X54818988Y-46363091D01*
X54453363Y-46118788D01*
X54022079Y-46033000D01*
X53977921Y-46033000D01*
X53546637Y-46118788D01*
X53181012Y-46363091D01*
X52936709Y-46728716D01*
X52850921Y-47160000D01*
X50627000Y-47160000D01*
X50627000Y-44620000D01*
X52850921Y-44620000D01*
X52936709Y-45051284D01*
X53181012Y-45416909D01*
X53546637Y-45661212D01*
X53977921Y-45747000D01*
X54022079Y-45747000D01*
X54453363Y-45661212D01*
X54818988Y-45416909D01*
X55063291Y-45051284D01*
X55149079Y-44620000D01*
X55063291Y-44188716D01*
X54818988Y-43823091D01*
X54453363Y-43578788D01*
X54022079Y-43493000D01*
X53977921Y-43493000D01*
X53546637Y-43578788D01*
X53181012Y-43823091D01*
X52936709Y-44188716D01*
X52850921Y-44620000D01*
X50627000Y-44620000D01*
X50627000Y-42080000D01*
X52850921Y-42080000D01*
X52936709Y-42511284D01*
X53181012Y-42876909D01*
X53546637Y-43121212D01*
X53977921Y-43207000D01*
X54022079Y-43207000D01*
X54453363Y-43121212D01*
X54818988Y-42876909D01*
X55063291Y-42511284D01*
X55149079Y-42080000D01*
X55063291Y-41648716D01*
X54818988Y-41283091D01*
X54453363Y-41038788D01*
X54022079Y-40953000D01*
X53977921Y-40953000D01*
X53546637Y-41038788D01*
X53181012Y-41283091D01*
X52936709Y-41648716D01*
X52850921Y-42080000D01*
X50627000Y-42080000D01*
X50627000Y-37285750D01*
X52565000Y-37285750D01*
X52565000Y-37926310D01*
X52661673Y-38159699D01*
X52840302Y-38338327D01*
X53073691Y-38435000D01*
X53714250Y-38435000D01*
X53872998Y-38276252D01*
X53872998Y-38433871D01*
X53546637Y-38498788D01*
X53181012Y-38743091D01*
X52936709Y-39108716D01*
X52850921Y-39540000D01*
X52936709Y-39971284D01*
X53181012Y-40336909D01*
X53546637Y-40581212D01*
X53977921Y-40667000D01*
X54022079Y-40667000D01*
X54453363Y-40581212D01*
X54818988Y-40336909D01*
X55063291Y-39971284D01*
X55149079Y-39540000D01*
X55063291Y-39108716D01*
X54818988Y-38743091D01*
X54453363Y-38498788D01*
X54127002Y-38433871D01*
X54127002Y-38276252D01*
X54285750Y-38435000D01*
X54926309Y-38435000D01*
X55159698Y-38338327D01*
X55338327Y-38159699D01*
X55435000Y-37926310D01*
X55435000Y-37285750D01*
X55276250Y-37127000D01*
X54127000Y-37127000D01*
X54127000Y-37147000D01*
X53873000Y-37147000D01*
X53873000Y-37127000D01*
X52723750Y-37127000D01*
X52565000Y-37285750D01*
X50627000Y-37285750D01*
X50627000Y-36073690D01*
X52565000Y-36073690D01*
X52565000Y-36714250D01*
X52723750Y-36873000D01*
X53873000Y-36873000D01*
X53873000Y-35723750D01*
X54127000Y-35723750D01*
X54127000Y-36873000D01*
X55276250Y-36873000D01*
X55435000Y-36714250D01*
X55435000Y-36073690D01*
X55338327Y-35840301D01*
X55159698Y-35661673D01*
X54926309Y-35565000D01*
X54285750Y-35565000D01*
X54127000Y-35723750D01*
X53873000Y-35723750D01*
X53714250Y-35565000D01*
X53073691Y-35565000D01*
X52840302Y-35661673D01*
X52661673Y-35840301D01*
X52565000Y-36073690D01*
X50627000Y-36073690D01*
X50627000Y-30627000D01*
X121373000Y-30627000D01*
X121373000Y-76373000D01*
G36*
X98987000Y-41373000D02*
X99007000Y-41373000D01*
X99007000Y-41627000D01*
X98987000Y-41627000D01*
X98987000Y-42769915D01*
X99209039Y-42891904D01*
X99597423Y-42731041D01*
X100012389Y-42355134D01*
X100224866Y-41906191D01*
X101202600Y-42883925D01*
X101202600Y-49464500D01*
X101237006Y-49637473D01*
X101334988Y-49784112D01*
X102840488Y-51289613D01*
X102875598Y-51313073D01*
X102681012Y-51443091D01*
X102436709Y-51808716D01*
X102350921Y-52240000D01*
X102436709Y-52671284D01*
X102681012Y-53036909D01*
X103046637Y-53281212D01*
X103477921Y-53367000D01*
X103522079Y-53367000D01*
X103953363Y-53281212D01*
X104318988Y-53036909D01*
X104563291Y-52671284D01*
X104618916Y-52391640D01*
X117162700Y-64935424D01*
X117162700Y-64940000D01*
X117197106Y-65112973D01*
X117295088Y-65259612D01*
X117441727Y-65357594D01*
X117614700Y-65392000D01*
X117690551Y-65392000D01*
X117921012Y-65736909D01*
X118286637Y-65981212D01*
X118630721Y-66049655D01*
X113183406Y-71496970D01*
X113183406Y-70150000D01*
X113160605Y-70028821D01*
X113088988Y-69917526D01*
X112979714Y-69842862D01*
X112850000Y-69816594D01*
X111150000Y-69816594D01*
X111028821Y-69839395D01*
X110917526Y-69911012D01*
X110852218Y-70006594D01*
X105452716Y-64607092D01*
X105700871Y-64607309D01*
X105931403Y-64512055D01*
X106107935Y-64335831D01*
X106203591Y-64105465D01*
X106203809Y-63856029D01*
X106108555Y-63625497D01*
X106028700Y-63545502D01*
X106028700Y-62838400D01*
X105994294Y-62665427D01*
X105932518Y-62572973D01*
X105896312Y-62518787D01*
X104187912Y-60810388D01*
X104138602Y-60777439D01*
X104318988Y-60656909D01*
X104563291Y-60291284D01*
X104649079Y-59860000D01*
X104563291Y-59428716D01*
X104318988Y-59063091D01*
X103953363Y-58818788D01*
X103522079Y-58733000D01*
X103477921Y-58733000D01*
X103046637Y-58818788D01*
X102681012Y-59063091D01*
X102436709Y-59428716D01*
X102374099Y-59743475D01*
X101627300Y-58996676D01*
X101627300Y-57320000D01*
X102350921Y-57320000D01*
X102436709Y-57751284D01*
X102681012Y-58116909D01*
X103046637Y-58361212D01*
X103477921Y-58447000D01*
X103522079Y-58447000D01*
X103953363Y-58361212D01*
X104318988Y-58116909D01*
X104563291Y-57751284D01*
X104649079Y-57320000D01*
X104563291Y-56888716D01*
X104318988Y-56523091D01*
X103953363Y-56278788D01*
X103522079Y-56193000D01*
X103477921Y-56193000D01*
X103046637Y-56278788D01*
X102681012Y-56523091D01*
X102436709Y-56888716D01*
X102350921Y-57320000D01*
X101627300Y-57320000D01*
X101627300Y-54780000D01*
X102350921Y-54780000D01*
X102436709Y-55211284D01*
X102681012Y-55576909D01*
X103046637Y-55821212D01*
X103477921Y-55907000D01*
X103522079Y-55907000D01*
X103953363Y-55821212D01*
X104318988Y-55576909D01*
X104563291Y-55211284D01*
X104649079Y-54780000D01*
X104563291Y-54348716D01*
X104318988Y-53983091D01*
X103953363Y-53738788D01*
X103522079Y-53653000D01*
X103477921Y-53653000D01*
X103046637Y-53738788D01*
X102681012Y-53983091D01*
X102436709Y-54348716D01*
X102350921Y-54780000D01*
X101627300Y-54780000D01*
X101627300Y-54350600D01*
X101592894Y-54177627D01*
X101494912Y-54030988D01*
X100647330Y-53183406D01*
X100850000Y-53183406D01*
X100971179Y-53160605D01*
X101082474Y-53088988D01*
X101157138Y-52979714D01*
X101183406Y-52850000D01*
X101183406Y-51150000D01*
X101160605Y-51028821D01*
X101088988Y-50917526D01*
X100979714Y-50842862D01*
X100850000Y-50816594D01*
X99150000Y-50816594D01*
X99028821Y-50839395D01*
X98917526Y-50911012D01*
X98842862Y-51020286D01*
X98816594Y-51150000D01*
X98816594Y-52850000D01*
X98839395Y-52971179D01*
X98911012Y-53082474D01*
X99020286Y-53157138D01*
X99150000Y-53183406D01*
X99549612Y-53183406D01*
X99582406Y-53348273D01*
X99680388Y-53494912D01*
X100723300Y-54537824D01*
X100723300Y-59183900D01*
X100757706Y-59356873D01*
X100855688Y-59503512D01*
X102801788Y-61449612D01*
X102856248Y-61486002D01*
X102681012Y-61603091D01*
X102436709Y-61968716D01*
X102383241Y-62237517D01*
X99812000Y-59666276D01*
X99812000Y-57929449D01*
X100156909Y-57698988D01*
X100401212Y-57333363D01*
X100487000Y-56902079D01*
X100487000Y-56857921D01*
X100401212Y-56426637D01*
X100156909Y-56061012D01*
X99791284Y-55816709D01*
X99360000Y-55730921D01*
X98928716Y-55816709D01*
X98563091Y-56061012D01*
X98318788Y-56426637D01*
X98233000Y-56857921D01*
X98233000Y-56902079D01*
X98318788Y-57333363D01*
X98563091Y-57698988D01*
X98908000Y-57929449D01*
X98908000Y-59853500D01*
X98926170Y-59944846D01*
X96978813Y-57997489D01*
X97251284Y-57943291D01*
X97616909Y-57698988D01*
X97861212Y-57333363D01*
X97947000Y-56902079D01*
X97947000Y-56857921D01*
X97861212Y-56426637D01*
X97616909Y-56061012D01*
X97251284Y-55816709D01*
X96820000Y-55730921D01*
X96388716Y-55816709D01*
X96023091Y-56061012D01*
X95935185Y-56192572D01*
X95898513Y-56137688D01*
X94134075Y-54373251D01*
X94477423Y-54231041D01*
X94892389Y-53855134D01*
X95131914Y-53349041D01*
X95010629Y-53127000D01*
X93867000Y-53127000D01*
X93867000Y-53147000D01*
X93613000Y-53147000D01*
X93613000Y-53127000D01*
X93593000Y-53127000D01*
X93593000Y-52873000D01*
X93613000Y-52873000D01*
X93613000Y-51730085D01*
X93867000Y-51730085D01*
X93867000Y-52873000D01*
X95010629Y-52873000D01*
X95131914Y-52650959D01*
X94892389Y-52144866D01*
X94477423Y-51768959D01*
X94089039Y-51608096D01*
X93867000Y-51730085D01*
X93613000Y-51730085D01*
X93390961Y-51608096D01*
X93002577Y-51768959D01*
X92922000Y-51841952D01*
X92922000Y-49460000D01*
X98799941Y-49460000D01*
X98889535Y-49910418D01*
X99144676Y-50292265D01*
X99526523Y-50547406D01*
X99976941Y-50637000D01*
X100023059Y-50637000D01*
X100473477Y-50547406D01*
X100855324Y-50292265D01*
X101110465Y-49910418D01*
X101200059Y-49460000D01*
X101110465Y-49009582D01*
X100855324Y-48627735D01*
X100473477Y-48372594D01*
X100023059Y-48283000D01*
X99976941Y-48283000D01*
X99526523Y-48372594D01*
X99144676Y-48627735D01*
X98889535Y-49009582D01*
X98799941Y-49460000D01*
X92922000Y-49460000D01*
X92922000Y-46920000D01*
X98799941Y-46920000D01*
X98889535Y-47370418D01*
X99144676Y-47752265D01*
X99526523Y-48007406D01*
X99976941Y-48097000D01*
X100023059Y-48097000D01*
X100473477Y-48007406D01*
X100855324Y-47752265D01*
X101110465Y-47370418D01*
X101200059Y-46920000D01*
X101110465Y-46469582D01*
X100855324Y-46087735D01*
X100473477Y-45832594D01*
X100023059Y-45743000D01*
X99976941Y-45743000D01*
X99526523Y-45832594D01*
X99144676Y-46087735D01*
X98889535Y-46469582D01*
X98799941Y-46920000D01*
X92922000Y-46920000D01*
X92922000Y-46167423D01*
X92943091Y-46198988D01*
X93308716Y-46443291D01*
X93740000Y-46529079D01*
X94171284Y-46443291D01*
X94536909Y-46198988D01*
X94781212Y-45833363D01*
X94867000Y-45402079D01*
X94867000Y-45357921D01*
X94781212Y-44926637D01*
X94536909Y-44561012D01*
X94171284Y-44316709D01*
X93740000Y-44230921D01*
X93308716Y-44316709D01*
X92943091Y-44561012D01*
X92814543Y-44753398D01*
X92789613Y-44716088D01*
X90277300Y-42203776D01*
X90277300Y-42070864D01*
X90443091Y-42318988D01*
X90808716Y-42563291D01*
X91240000Y-42649079D01*
X91671284Y-42563291D01*
X92004272Y-42340796D01*
X92656188Y-42992712D01*
X92802827Y-43090694D01*
X92975800Y-43125100D01*
X96788300Y-43125100D01*
X96961273Y-43090694D01*
X97107912Y-42992712D01*
X97727486Y-42373138D01*
X98122577Y-42731041D01*
X98510961Y-42891904D01*
X98733000Y-42769915D01*
X98733000Y-41627000D01*
X98713000Y-41627000D01*
X98713000Y-41373000D01*
X98733000Y-41373000D01*
X98733000Y-41353000D01*
X98987000Y-41353000D01*
X98987000Y-41373000D01*
X98987000Y-41373000D01*
G37*
X98987000Y-41373000D02*
X99007000Y-41373000D01*
X99007000Y-41627000D01*
X98987000Y-41627000D01*
X98987000Y-42769915D01*
X99209039Y-42891904D01*
X99597423Y-42731041D01*
X100012389Y-42355134D01*
X100224866Y-41906191D01*
X101202600Y-42883925D01*
X101202600Y-49464500D01*
X101237006Y-49637473D01*
X101334988Y-49784112D01*
X102840488Y-51289613D01*
X102875598Y-51313073D01*
X102681012Y-51443091D01*
X102436709Y-51808716D01*
X102350921Y-52240000D01*
X102436709Y-52671284D01*
X102681012Y-53036909D01*
X103046637Y-53281212D01*
X103477921Y-53367000D01*
X103522079Y-53367000D01*
X103953363Y-53281212D01*
X104318988Y-53036909D01*
X104563291Y-52671284D01*
X104618916Y-52391640D01*
X117162700Y-64935424D01*
X117162700Y-64940000D01*
X117197106Y-65112973D01*
X117295088Y-65259612D01*
X117441727Y-65357594D01*
X117614700Y-65392000D01*
X117690551Y-65392000D01*
X117921012Y-65736909D01*
X118286637Y-65981212D01*
X118630721Y-66049655D01*
X113183406Y-71496970D01*
X113183406Y-70150000D01*
X113160605Y-70028821D01*
X113088988Y-69917526D01*
X112979714Y-69842862D01*
X112850000Y-69816594D01*
X111150000Y-69816594D01*
X111028821Y-69839395D01*
X110917526Y-69911012D01*
X110852218Y-70006594D01*
X105452716Y-64607092D01*
X105700871Y-64607309D01*
X105931403Y-64512055D01*
X106107935Y-64335831D01*
X106203591Y-64105465D01*
X106203809Y-63856029D01*
X106108555Y-63625497D01*
X106028700Y-63545502D01*
X106028700Y-62838400D01*
X105994294Y-62665427D01*
X105932518Y-62572973D01*
X105896312Y-62518787D01*
X104187912Y-60810388D01*
X104138602Y-60777439D01*
X104318988Y-60656909D01*
X104563291Y-60291284D01*
X104649079Y-59860000D01*
X104563291Y-59428716D01*
X104318988Y-59063091D01*
X103953363Y-58818788D01*
X103522079Y-58733000D01*
X103477921Y-58733000D01*
X103046637Y-58818788D01*
X102681012Y-59063091D01*
X102436709Y-59428716D01*
X102374099Y-59743475D01*
X101627300Y-58996676D01*
X101627300Y-57320000D01*
X102350921Y-57320000D01*
X102436709Y-57751284D01*
X102681012Y-58116909D01*
X103046637Y-58361212D01*
X103477921Y-58447000D01*
X103522079Y-58447000D01*
X103953363Y-58361212D01*
X104318988Y-58116909D01*
X104563291Y-57751284D01*
X104649079Y-57320000D01*
X104563291Y-56888716D01*
X104318988Y-56523091D01*
X103953363Y-56278788D01*
X103522079Y-56193000D01*
X103477921Y-56193000D01*
X103046637Y-56278788D01*
X102681012Y-56523091D01*
X102436709Y-56888716D01*
X102350921Y-57320000D01*
X101627300Y-57320000D01*
X101627300Y-54780000D01*
X102350921Y-54780000D01*
X102436709Y-55211284D01*
X102681012Y-55576909D01*
X103046637Y-55821212D01*
X103477921Y-55907000D01*
X103522079Y-55907000D01*
X103953363Y-55821212D01*
X104318988Y-55576909D01*
X104563291Y-55211284D01*
X104649079Y-54780000D01*
X104563291Y-54348716D01*
X104318988Y-53983091D01*
X103953363Y-53738788D01*
X103522079Y-53653000D01*
X103477921Y-53653000D01*
X103046637Y-53738788D01*
X102681012Y-53983091D01*
X102436709Y-54348716D01*
X102350921Y-54780000D01*
X101627300Y-54780000D01*
X101627300Y-54350600D01*
X101592894Y-54177627D01*
X101494912Y-54030988D01*
X100647330Y-53183406D01*
X100850000Y-53183406D01*
X100971179Y-53160605D01*
X101082474Y-53088988D01*
X101157138Y-52979714D01*
X101183406Y-52850000D01*
X101183406Y-51150000D01*
X101160605Y-51028821D01*
X101088988Y-50917526D01*
X100979714Y-50842862D01*
X100850000Y-50816594D01*
X99150000Y-50816594D01*
X99028821Y-50839395D01*
X98917526Y-50911012D01*
X98842862Y-51020286D01*
X98816594Y-51150000D01*
X98816594Y-52850000D01*
X98839395Y-52971179D01*
X98911012Y-53082474D01*
X99020286Y-53157138D01*
X99150000Y-53183406D01*
X99549612Y-53183406D01*
X99582406Y-53348273D01*
X99680388Y-53494912D01*
X100723300Y-54537824D01*
X100723300Y-59183900D01*
X100757706Y-59356873D01*
X100855688Y-59503512D01*
X102801788Y-61449612D01*
X102856248Y-61486002D01*
X102681012Y-61603091D01*
X102436709Y-61968716D01*
X102383241Y-62237517D01*
X99812000Y-59666276D01*
X99812000Y-57929449D01*
X100156909Y-57698988D01*
X100401212Y-57333363D01*
X100487000Y-56902079D01*
X100487000Y-56857921D01*
X100401212Y-56426637D01*
X100156909Y-56061012D01*
X99791284Y-55816709D01*
X99360000Y-55730921D01*
X98928716Y-55816709D01*
X98563091Y-56061012D01*
X98318788Y-56426637D01*
X98233000Y-56857921D01*
X98233000Y-56902079D01*
X98318788Y-57333363D01*
X98563091Y-57698988D01*
X98908000Y-57929449D01*
X98908000Y-59853500D01*
X98926170Y-59944846D01*
X96978813Y-57997489D01*
X97251284Y-57943291D01*
X97616909Y-57698988D01*
X97861212Y-57333363D01*
X97947000Y-56902079D01*
X97947000Y-56857921D01*
X97861212Y-56426637D01*
X97616909Y-56061012D01*
X97251284Y-55816709D01*
X96820000Y-55730921D01*
X96388716Y-55816709D01*
X96023091Y-56061012D01*
X95935185Y-56192572D01*
X95898513Y-56137688D01*
X94134075Y-54373251D01*
X94477423Y-54231041D01*
X94892389Y-53855134D01*
X95131914Y-53349041D01*
X95010629Y-53127000D01*
X93867000Y-53127000D01*
X93867000Y-53147000D01*
X93613000Y-53147000D01*
X93613000Y-53127000D01*
X93593000Y-53127000D01*
X93593000Y-52873000D01*
X93613000Y-52873000D01*
X93613000Y-51730085D01*
X93867000Y-51730085D01*
X93867000Y-52873000D01*
X95010629Y-52873000D01*
X95131914Y-52650959D01*
X94892389Y-52144866D01*
X94477423Y-51768959D01*
X94089039Y-51608096D01*
X93867000Y-51730085D01*
X93613000Y-51730085D01*
X93390961Y-51608096D01*
X93002577Y-51768959D01*
X92922000Y-51841952D01*
X92922000Y-49460000D01*
X98799941Y-49460000D01*
X98889535Y-49910418D01*
X99144676Y-50292265D01*
X99526523Y-50547406D01*
X99976941Y-50637000D01*
X100023059Y-50637000D01*
X100473477Y-50547406D01*
X100855324Y-50292265D01*
X101110465Y-49910418D01*
X101200059Y-49460000D01*
X101110465Y-49009582D01*
X100855324Y-48627735D01*
X100473477Y-48372594D01*
X100023059Y-48283000D01*
X99976941Y-48283000D01*
X99526523Y-48372594D01*
X99144676Y-48627735D01*
X98889535Y-49009582D01*
X98799941Y-49460000D01*
X92922000Y-49460000D01*
X92922000Y-46920000D01*
X98799941Y-46920000D01*
X98889535Y-47370418D01*
X99144676Y-47752265D01*
X99526523Y-48007406D01*
X99976941Y-48097000D01*
X100023059Y-48097000D01*
X100473477Y-48007406D01*
X100855324Y-47752265D01*
X101110465Y-47370418D01*
X101200059Y-46920000D01*
X101110465Y-46469582D01*
X100855324Y-46087735D01*
X100473477Y-45832594D01*
X100023059Y-45743000D01*
X99976941Y-45743000D01*
X99526523Y-45832594D01*
X99144676Y-46087735D01*
X98889535Y-46469582D01*
X98799941Y-46920000D01*
X92922000Y-46920000D01*
X92922000Y-46167423D01*
X92943091Y-46198988D01*
X93308716Y-46443291D01*
X93740000Y-46529079D01*
X94171284Y-46443291D01*
X94536909Y-46198988D01*
X94781212Y-45833363D01*
X94867000Y-45402079D01*
X94867000Y-45357921D01*
X94781212Y-44926637D01*
X94536909Y-44561012D01*
X94171284Y-44316709D01*
X93740000Y-44230921D01*
X93308716Y-44316709D01*
X92943091Y-44561012D01*
X92814543Y-44753398D01*
X92789613Y-44716088D01*
X90277300Y-42203776D01*
X90277300Y-42070864D01*
X90443091Y-42318988D01*
X90808716Y-42563291D01*
X91240000Y-42649079D01*
X91671284Y-42563291D01*
X92004272Y-42340796D01*
X92656188Y-42992712D01*
X92802827Y-43090694D01*
X92975800Y-43125100D01*
X96788300Y-43125100D01*
X96961273Y-43090694D01*
X97107912Y-42992712D01*
X97727486Y-42373138D01*
X98122577Y-42731041D01*
X98510961Y-42891904D01*
X98733000Y-42769915D01*
X98733000Y-41627000D01*
X98713000Y-41627000D01*
X98713000Y-41373000D01*
X98733000Y-41373000D01*
X98733000Y-41353000D01*
X98987000Y-41353000D01*
X98987000Y-41373000D01*
G36*
X108606400Y-40678624D02*
X108606400Y-49235900D01*
X108640806Y-49408873D01*
X108738788Y-49555512D01*
X118092888Y-58909612D01*
X118121799Y-58928930D01*
X117921012Y-59063091D01*
X117847834Y-59172610D01*
X104245612Y-45570388D01*
X104167452Y-45518162D01*
X104318988Y-45416909D01*
X104563291Y-45051284D01*
X104649079Y-44620000D01*
X104563291Y-44188716D01*
X104318988Y-43823091D01*
X103953363Y-43578788D01*
X103627002Y-43513871D01*
X103627002Y-43350630D01*
X103849041Y-43471914D01*
X104355134Y-43232389D01*
X104731041Y-42817423D01*
X104891904Y-42429039D01*
X104769915Y-42207000D01*
X103627000Y-42207000D01*
X103627000Y-42227000D01*
X103373000Y-42227000D01*
X103373000Y-42207000D01*
X103353000Y-42207000D01*
X103353000Y-41953000D01*
X103373000Y-41953000D01*
X103373000Y-41933000D01*
X103627000Y-41933000D01*
X103627000Y-41953000D01*
X104769915Y-41953000D01*
X104891904Y-41730961D01*
X104731041Y-41342577D01*
X104355134Y-40927611D01*
X103849041Y-40688086D01*
X103627002Y-40809370D01*
X103627002Y-40646129D01*
X103953363Y-40581212D01*
X104318988Y-40336909D01*
X104563291Y-39971284D01*
X104649079Y-39540000D01*
X104563291Y-39108716D01*
X104318988Y-38743091D01*
X103953363Y-38498788D01*
X103627002Y-38433871D01*
X103627002Y-38276252D01*
X103785750Y-38435000D01*
X104426309Y-38435000D01*
X104659698Y-38338327D01*
X104838327Y-38159699D01*
X104935000Y-37926310D01*
X104935000Y-37285750D01*
X104776252Y-37127002D01*
X104935000Y-37127002D01*
X104935000Y-37007224D01*
X108606400Y-40678624D01*
X108606400Y-40678624D01*
G37*
X108606400Y-40678624D02*
X108606400Y-49235900D01*
X108640806Y-49408873D01*
X108738788Y-49555512D01*
X118092888Y-58909612D01*
X118121799Y-58928930D01*
X117921012Y-59063091D01*
X117847834Y-59172610D01*
X104245612Y-45570388D01*
X104167452Y-45518162D01*
X104318988Y-45416909D01*
X104563291Y-45051284D01*
X104649079Y-44620000D01*
X104563291Y-44188716D01*
X104318988Y-43823091D01*
X103953363Y-43578788D01*
X103627002Y-43513871D01*
X103627002Y-43350630D01*
X103849041Y-43471914D01*
X104355134Y-43232389D01*
X104731041Y-42817423D01*
X104891904Y-42429039D01*
X104769915Y-42207000D01*
X103627000Y-42207000D01*
X103627000Y-42227000D01*
X103373000Y-42227000D01*
X103373000Y-42207000D01*
X103353000Y-42207000D01*
X103353000Y-41953000D01*
X103373000Y-41953000D01*
X103373000Y-41933000D01*
X103627000Y-41933000D01*
X103627000Y-41953000D01*
X104769915Y-41953000D01*
X104891904Y-41730961D01*
X104731041Y-41342577D01*
X104355134Y-40927611D01*
X103849041Y-40688086D01*
X103627002Y-40809370D01*
X103627002Y-40646129D01*
X103953363Y-40581212D01*
X104318988Y-40336909D01*
X104563291Y-39971284D01*
X104649079Y-39540000D01*
X104563291Y-39108716D01*
X104318988Y-38743091D01*
X103953363Y-38498788D01*
X103627002Y-38433871D01*
X103627002Y-38276252D01*
X103785750Y-38435000D01*
X104426309Y-38435000D01*
X104659698Y-38338327D01*
X104838327Y-38159699D01*
X104935000Y-37926310D01*
X104935000Y-37285750D01*
X104776252Y-37127002D01*
X104935000Y-37127002D01*
X104935000Y-37007224D01*
X108606400Y-40678624D01*
G36*
X79426627Y-44755149D02*
X79296909Y-44561012D01*
X78931284Y-44316709D01*
X78500000Y-44230921D01*
X78068716Y-44316709D01*
X77703091Y-44561012D01*
X77541400Y-44803000D01*
X77249705Y-44803000D01*
X77249700Y-44802999D01*
X77028892Y-44846922D01*
X76841699Y-44971999D01*
X74314884Y-47498814D01*
X74101691Y-47285637D01*
X74126804Y-47225158D01*
X74127195Y-46776809D01*
X73955981Y-46362440D01*
X73639228Y-46045133D01*
X73225158Y-45873196D01*
X72776809Y-45872805D01*
X72362440Y-46044019D01*
X72045133Y-46360772D01*
X71873196Y-46774842D01*
X71872805Y-47223191D01*
X72044019Y-47637560D01*
X72360772Y-47954867D01*
X72774842Y-48126804D01*
X73223191Y-48127195D01*
X73285501Y-48101449D01*
X73906890Y-48722791D01*
X73906897Y-48722798D01*
X73906899Y-48722801D01*
X73906902Y-48722803D01*
X75923000Y-50738993D01*
X75923000Y-55914073D01*
X75703091Y-56061012D01*
X75458788Y-56426637D01*
X75397612Y-56734188D01*
X71671169Y-53007745D01*
X72171861Y-53007745D01*
X72245995Y-53253864D01*
X72783223Y-53446965D01*
X73353454Y-53419778D01*
X73754005Y-53253864D01*
X73828139Y-53007745D01*
X73000000Y-52179605D01*
X72171861Y-53007745D01*
X71671169Y-53007745D01*
X70795916Y-52132492D01*
X70782894Y-52067027D01*
X70684912Y-51920388D01*
X70538273Y-51822406D01*
X70365300Y-51788000D01*
X70289449Y-51788000D01*
X70286258Y-51783223D01*
X71553035Y-51783223D01*
X71580222Y-52353454D01*
X71746136Y-52754005D01*
X71992255Y-52828139D01*
X72820395Y-52000000D01*
X73179605Y-52000000D01*
X74007745Y-52828139D01*
X74253864Y-52754005D01*
X74446965Y-52216777D01*
X74419778Y-51646546D01*
X74253864Y-51245995D01*
X74007745Y-51171861D01*
X73179605Y-52000000D01*
X72820395Y-52000000D01*
X71992255Y-51171861D01*
X71746136Y-51245995D01*
X71553035Y-51783223D01*
X70286258Y-51783223D01*
X70058988Y-51443091D01*
X69693363Y-51198788D01*
X69528161Y-51165927D01*
X69559612Y-51144912D01*
X69657594Y-50998273D01*
X69658791Y-50992255D01*
X72171861Y-50992255D01*
X73000000Y-51820395D01*
X73828139Y-50992255D01*
X73754005Y-50746136D01*
X73216777Y-50553035D01*
X72646546Y-50580222D01*
X72245995Y-50746136D01*
X72171861Y-50992255D01*
X69658791Y-50992255D01*
X69692000Y-50825300D01*
X69692000Y-50741483D01*
X69693363Y-50741212D01*
X70058988Y-50496909D01*
X70303291Y-50131284D01*
X70389079Y-49700000D01*
X70303291Y-49268716D01*
X70058988Y-48903091D01*
X69693363Y-48658788D01*
X69528161Y-48625927D01*
X69559612Y-48604912D01*
X69657594Y-48458273D01*
X69692000Y-48285300D01*
X69692000Y-48201483D01*
X69693363Y-48201212D01*
X70058988Y-47956909D01*
X70303291Y-47591284D01*
X70389079Y-47160000D01*
X70303291Y-46728716D01*
X70058988Y-46363091D01*
X69693363Y-46118788D01*
X69528161Y-46085927D01*
X69559612Y-46064912D01*
X69657594Y-45918273D01*
X69692000Y-45745300D01*
X69692000Y-45661483D01*
X69693363Y-45661212D01*
X70058988Y-45416909D01*
X70303291Y-45051284D01*
X70389079Y-44620000D01*
X70303291Y-44188716D01*
X70058988Y-43823091D01*
X70027423Y-43802000D01*
X80379776Y-43802000D01*
X79426627Y-44755149D01*
X79426627Y-44755149D01*
G37*
X79426627Y-44755149D02*
X79296909Y-44561012D01*
X78931284Y-44316709D01*
X78500000Y-44230921D01*
X78068716Y-44316709D01*
X77703091Y-44561012D01*
X77541400Y-44803000D01*
X77249705Y-44803000D01*
X77249700Y-44802999D01*
X77028892Y-44846922D01*
X76841699Y-44971999D01*
X74314884Y-47498814D01*
X74101691Y-47285637D01*
X74126804Y-47225158D01*
X74127195Y-46776809D01*
X73955981Y-46362440D01*
X73639228Y-46045133D01*
X73225158Y-45873196D01*
X72776809Y-45872805D01*
X72362440Y-46044019D01*
X72045133Y-46360772D01*
X71873196Y-46774842D01*
X71872805Y-47223191D01*
X72044019Y-47637560D01*
X72360772Y-47954867D01*
X72774842Y-48126804D01*
X73223191Y-48127195D01*
X73285501Y-48101449D01*
X73906890Y-48722791D01*
X73906897Y-48722798D01*
X73906899Y-48722801D01*
X73906902Y-48722803D01*
X75923000Y-50738993D01*
X75923000Y-55914073D01*
X75703091Y-56061012D01*
X75458788Y-56426637D01*
X75397612Y-56734188D01*
X71671169Y-53007745D01*
X72171861Y-53007745D01*
X72245995Y-53253864D01*
X72783223Y-53446965D01*
X73353454Y-53419778D01*
X73754005Y-53253864D01*
X73828139Y-53007745D01*
X73000000Y-52179605D01*
X72171861Y-53007745D01*
X71671169Y-53007745D01*
X70795916Y-52132492D01*
X70782894Y-52067027D01*
X70684912Y-51920388D01*
X70538273Y-51822406D01*
X70365300Y-51788000D01*
X70289449Y-51788000D01*
X70286258Y-51783223D01*
X71553035Y-51783223D01*
X71580222Y-52353454D01*
X71746136Y-52754005D01*
X71992255Y-52828139D01*
X72820395Y-52000000D01*
X73179605Y-52000000D01*
X74007745Y-52828139D01*
X74253864Y-52754005D01*
X74446965Y-52216777D01*
X74419778Y-51646546D01*
X74253864Y-51245995D01*
X74007745Y-51171861D01*
X73179605Y-52000000D01*
X72820395Y-52000000D01*
X71992255Y-51171861D01*
X71746136Y-51245995D01*
X71553035Y-51783223D01*
X70286258Y-51783223D01*
X70058988Y-51443091D01*
X69693363Y-51198788D01*
X69528161Y-51165927D01*
X69559612Y-51144912D01*
X69657594Y-50998273D01*
X69658791Y-50992255D01*
X72171861Y-50992255D01*
X73000000Y-51820395D01*
X73828139Y-50992255D01*
X73754005Y-50746136D01*
X73216777Y-50553035D01*
X72646546Y-50580222D01*
X72245995Y-50746136D01*
X72171861Y-50992255D01*
X69658791Y-50992255D01*
X69692000Y-50825300D01*
X69692000Y-50741483D01*
X69693363Y-50741212D01*
X70058988Y-50496909D01*
X70303291Y-50131284D01*
X70389079Y-49700000D01*
X70303291Y-49268716D01*
X70058988Y-48903091D01*
X69693363Y-48658788D01*
X69528161Y-48625927D01*
X69559612Y-48604912D01*
X69657594Y-48458273D01*
X69692000Y-48285300D01*
X69692000Y-48201483D01*
X69693363Y-48201212D01*
X70058988Y-47956909D01*
X70303291Y-47591284D01*
X70389079Y-47160000D01*
X70303291Y-46728716D01*
X70058988Y-46363091D01*
X69693363Y-46118788D01*
X69528161Y-46085927D01*
X69559612Y-46064912D01*
X69657594Y-45918273D01*
X69692000Y-45745300D01*
X69692000Y-45661483D01*
X69693363Y-45661212D01*
X70058988Y-45416909D01*
X70303291Y-45051284D01*
X70389079Y-44620000D01*
X70303291Y-44188716D01*
X70058988Y-43823091D01*
X70027423Y-43802000D01*
X80379776Y-43802000D01*
X79426627Y-44755149D01*
G36*
X77684691Y-39849171D02*
X77779945Y-40079703D01*
X77956169Y-40256235D01*
X78099708Y-40315838D01*
X78088000Y-40374700D01*
X78088000Y-40450551D01*
X77743091Y-40681012D01*
X77498788Y-41046637D01*
X77413000Y-41477921D01*
X77413000Y-41522079D01*
X77498788Y-41953363D01*
X77645812Y-42173400D01*
X77133406Y-42173400D01*
X77133406Y-40700000D01*
X77110605Y-40578821D01*
X77038988Y-40467526D01*
X76929714Y-40392862D01*
X76800000Y-40366594D01*
X75200000Y-40366594D01*
X75078821Y-40389395D01*
X74967526Y-40461012D01*
X74892862Y-40570286D01*
X74866594Y-40700000D01*
X74866594Y-42173400D01*
X72252824Y-42173400D01*
X72015323Y-41935899D01*
X72353454Y-41919778D01*
X72754005Y-41753864D01*
X72828139Y-41507745D01*
X72000000Y-40679605D01*
X71985858Y-40693748D01*
X71806252Y-40514142D01*
X71820395Y-40500000D01*
X71806252Y-40485858D01*
X71985858Y-40306252D01*
X72000000Y-40320395D01*
X72014142Y-40306252D01*
X72193748Y-40485858D01*
X72179605Y-40500000D01*
X73007745Y-41328139D01*
X73253864Y-41254005D01*
X73446965Y-40716777D01*
X73419778Y-40146546D01*
X73285719Y-39822900D01*
X77684714Y-39822900D01*
X77684691Y-39849171D01*
X77684691Y-39849171D01*
G37*
X77684691Y-39849171D02*
X77779945Y-40079703D01*
X77956169Y-40256235D01*
X78099708Y-40315838D01*
X78088000Y-40374700D01*
X78088000Y-40450551D01*
X77743091Y-40681012D01*
X77498788Y-41046637D01*
X77413000Y-41477921D01*
X77413000Y-41522079D01*
X77498788Y-41953363D01*
X77645812Y-42173400D01*
X77133406Y-42173400D01*
X77133406Y-40700000D01*
X77110605Y-40578821D01*
X77038988Y-40467526D01*
X76929714Y-40392862D01*
X76800000Y-40366594D01*
X75200000Y-40366594D01*
X75078821Y-40389395D01*
X74967526Y-40461012D01*
X74892862Y-40570286D01*
X74866594Y-40700000D01*
X74866594Y-42173400D01*
X72252824Y-42173400D01*
X72015323Y-41935899D01*
X72353454Y-41919778D01*
X72754005Y-41753864D01*
X72828139Y-41507745D01*
X72000000Y-40679605D01*
X71985858Y-40693748D01*
X71806252Y-40514142D01*
X71820395Y-40500000D01*
X71806252Y-40485858D01*
X71985858Y-40306252D01*
X72000000Y-40320395D01*
X72014142Y-40306252D01*
X72193748Y-40485858D01*
X72179605Y-40500000D01*
X73007745Y-41328139D01*
X73253864Y-41254005D01*
X73446965Y-40716777D01*
X73419778Y-40146546D01*
X73285719Y-39822900D01*
X77684714Y-39822900D01*
X77684691Y-39849171D01*
G36*
X97818788Y-33426637D02*
X97733000Y-33857921D01*
X97733000Y-33902079D01*
X97818788Y-34333363D01*
X98063091Y-34698988D01*
X98428716Y-34943291D01*
X98860000Y-35029079D01*
X99291284Y-34943291D01*
X99656909Y-34698988D01*
X99901212Y-34333363D01*
X99987000Y-33902079D01*
X99987000Y-33857921D01*
X99901212Y-33426637D01*
X99748575Y-33198200D01*
X101125976Y-33198200D01*
X103492776Y-35565000D01*
X103372998Y-35565000D01*
X103372998Y-35723748D01*
X103214250Y-35565000D01*
X102573691Y-35565000D01*
X102340302Y-35661673D01*
X102161673Y-35840301D01*
X102065000Y-36073690D01*
X102065000Y-36714250D01*
X102223750Y-36873000D01*
X103373000Y-36873000D01*
X103373000Y-36853000D01*
X103627000Y-36853000D01*
X103627000Y-36873000D01*
X103647000Y-36873000D01*
X103647000Y-37127000D01*
X103627000Y-37127000D01*
X103627000Y-37147000D01*
X103373000Y-37147000D01*
X103373000Y-37127000D01*
X102223750Y-37127000D01*
X102065000Y-37285750D01*
X102065000Y-37926310D01*
X102161673Y-38159699D01*
X102340302Y-38338327D01*
X102573691Y-38435000D01*
X103214250Y-38435000D01*
X103372998Y-38276252D01*
X103372998Y-38433871D01*
X103046637Y-38498788D01*
X102681012Y-38743091D01*
X102436709Y-39108716D01*
X102350921Y-39540000D01*
X102436709Y-39971284D01*
X102681012Y-40336909D01*
X103046637Y-40581212D01*
X103372998Y-40646129D01*
X103372998Y-40809370D01*
X103150959Y-40688086D01*
X102644866Y-40927611D01*
X102268959Y-41342577D01*
X102108096Y-41730961D01*
X102230084Y-41952998D01*
X102218922Y-41952998D01*
X99802712Y-39536788D01*
X99656073Y-39438806D01*
X99483100Y-39404400D01*
X96772000Y-39404400D01*
X96772000Y-34929449D01*
X97116909Y-34698988D01*
X97361212Y-34333363D01*
X97447000Y-33902079D01*
X97447000Y-33857921D01*
X97361212Y-33426637D01*
X97208575Y-33198200D01*
X97971425Y-33198200D01*
X97818788Y-33426637D01*
X97818788Y-33426637D01*
G37*
X97818788Y-33426637D02*
X97733000Y-33857921D01*
X97733000Y-33902079D01*
X97818788Y-34333363D01*
X98063091Y-34698988D01*
X98428716Y-34943291D01*
X98860000Y-35029079D01*
X99291284Y-34943291D01*
X99656909Y-34698988D01*
X99901212Y-34333363D01*
X99987000Y-33902079D01*
X99987000Y-33857921D01*
X99901212Y-33426637D01*
X99748575Y-33198200D01*
X101125976Y-33198200D01*
X103492776Y-35565000D01*
X103372998Y-35565000D01*
X103372998Y-35723748D01*
X103214250Y-35565000D01*
X102573691Y-35565000D01*
X102340302Y-35661673D01*
X102161673Y-35840301D01*
X102065000Y-36073690D01*
X102065000Y-36714250D01*
X102223750Y-36873000D01*
X103373000Y-36873000D01*
X103373000Y-36853000D01*
X103627000Y-36853000D01*
X103627000Y-36873000D01*
X103647000Y-36873000D01*
X103647000Y-37127000D01*
X103627000Y-37127000D01*
X103627000Y-37147000D01*
X103373000Y-37147000D01*
X103373000Y-37127000D01*
X102223750Y-37127000D01*
X102065000Y-37285750D01*
X102065000Y-37926310D01*
X102161673Y-38159699D01*
X102340302Y-38338327D01*
X102573691Y-38435000D01*
X103214250Y-38435000D01*
X103372998Y-38276252D01*
X103372998Y-38433871D01*
X103046637Y-38498788D01*
X102681012Y-38743091D01*
X102436709Y-39108716D01*
X102350921Y-39540000D01*
X102436709Y-39971284D01*
X102681012Y-40336909D01*
X103046637Y-40581212D01*
X103372998Y-40646129D01*
X103372998Y-40809370D01*
X103150959Y-40688086D01*
X102644866Y-40927611D01*
X102268959Y-41342577D01*
X102108096Y-41730961D01*
X102230084Y-41952998D01*
X102218922Y-41952998D01*
X99802712Y-39536788D01*
X99656073Y-39438806D01*
X99483100Y-39404400D01*
X96772000Y-39404400D01*
X96772000Y-34929449D01*
X97116909Y-34698988D01*
X97361212Y-34333363D01*
X97447000Y-33902079D01*
X97447000Y-33857921D01*
X97361212Y-33426637D01*
X97208575Y-33198200D01*
X97971425Y-33198200D01*
X97818788Y-33426637D01*
M02*
