M48
;DRILL file {KiCad 4.0.7} date 09/03/18 17:01:53
;FORMAT={2:4/ absolute / inch / suppress leading zeros}
FMAT,2
INCH,TZ
T1C0.016
T2C0.031
T3C0.039
%
G90
G05
M72
T1
X26799Y-27739
X30831Y-15640
X32125Y-20008
X32873Y-24538
X34567Y-22920
X41566Y-25189
T2
X21260Y-14567
X21260Y-15567
X21260Y-16567
X21260Y-17567
X21260Y-18567
X21260Y-19567
X21260Y-20567
X21260Y-21567
X21260Y-22567
X21260Y-23567
X21260Y-24567
X21260Y-25567
X27165Y-27362
X27165Y-29331
X27260Y-14567
X27260Y-15567
X27260Y-16567
X27260Y-17567
X27260Y-18567
X27260Y-19567
X27260Y-20567
X27260Y-21567
X27260Y-22567
X27260Y-23567
X27260Y-24567
X27260Y-25567
X28346Y-13976
X28346Y-15945
X28543Y-23031
X28543Y-25000
X28740Y-18504
X28740Y-20472
X29921Y-13339
X29921Y-16339
X30118Y-22394
X30118Y-25394
X30906Y-17866
X30906Y-20866
X30921Y-13339
X30921Y-16339
X31118Y-22394
X31118Y-25394
X31906Y-17866
X31906Y-20866
X31921Y-13339
X31921Y-16339
X32118Y-22394
X32118Y-25394
X32906Y-17866
X32906Y-20866
X32921Y-13339
X32921Y-16339
X33118Y-22394
X33118Y-25394
X33858Y-26969
X33858Y-28937
X33906Y-17866
X33906Y-20866
X33921Y-13339
X33921Y-16339
X34118Y-22394
X34118Y-25394
X34906Y-17866
X34906Y-20866
X34921Y-13339
X34921Y-16339
X35118Y-22394
X35118Y-25394
X35236Y-26528
X35236Y-29528
X35906Y-17866
X35906Y-20866
X35921Y-13339
X35921Y-16339
X36118Y-22394
X36118Y-25394
X36236Y-26528
X36236Y-29528
X36906Y-17866
X36906Y-20866
X36921Y-13339
X36921Y-16339
X37118Y-22394
X37118Y-25394
X37236Y-26528
X37236Y-29528
X37921Y-13339
X37921Y-16339
X38118Y-22394
X38118Y-25394
X38236Y-26528
X38236Y-29528
X38921Y-13339
X38921Y-16339
X39118Y-22394
X39118Y-25394
X40551Y-27362
X40748Y-14567
X40748Y-15567
X40748Y-16567
X40748Y-17567
X40748Y-18567
X40748Y-19567
X40748Y-20567
X40748Y-21567
X40748Y-22567
X40748Y-23567
X40748Y-24567
X40748Y-25567
X41142Y-12992
X42520Y-27362
X43110Y-12992
X46748Y-14567
X46748Y-15567
X46748Y-16567
X46748Y-17567
X46748Y-18567
X46748Y-19567
X46748Y-20567
X46748Y-21567
X46748Y-22567
X46748Y-23567
X46748Y-24567
X46748Y-25567
T3
X39370Y-18472
X39370Y-19472
X39370Y-20472
X44094Y-27953
X44094Y-28953
T0
M30
