G04 #@! TF.FileFunction,Copper,L1,Top,Signal*
%FSLAX46Y46*%
G04 Gerber Fmt 4.6, Leading zero omitted, Abs format (unit mm)*
G04 Created by KiCad (PCBNEW 4.0.7) date 09/03/18 17:01:03*
%MOMM*%
%LPD*%
G01*
G04 APERTURE LIST*
%ADD10C,0.100000*%
%ADD11C,1.600000*%
%ADD12R,1.600000X1.600000*%
%ADD13O,1.600000X1.600000*%
%ADD14R,1.700000X1.700000*%
%ADD15O,1.700000X1.700000*%
%ADD16R,0.900000X0.800000*%
%ADD17C,0.600000*%
%ADD18C,0.500000*%
%ADD19C,0.250000*%
%ADD20C,0.254000*%
G04 APERTURE END LIST*
D10*
D11*
X73000000Y-47000000D03*
X73000000Y-52000000D03*
X69000000Y-74500000D03*
X69000000Y-69500000D03*
X72000000Y-35500000D03*
X72000000Y-40500000D03*
X72500000Y-58500000D03*
X72500000Y-63500000D03*
X108000000Y-69500000D03*
X103000000Y-69500000D03*
X86000000Y-68500000D03*
X86000000Y-73500000D03*
X104500000Y-33000000D03*
X109500000Y-33000000D03*
D12*
X54000000Y-37000000D03*
D13*
X69240000Y-64940000D03*
X54000000Y-39540000D03*
X69240000Y-62400000D03*
X54000000Y-42080000D03*
X69240000Y-59860000D03*
X54000000Y-44620000D03*
X69240000Y-57320000D03*
X54000000Y-47160000D03*
X69240000Y-54780000D03*
X54000000Y-49700000D03*
X69240000Y-52240000D03*
X54000000Y-52240000D03*
X69240000Y-49700000D03*
X54000000Y-54780000D03*
X69240000Y-47160000D03*
X54000000Y-57320000D03*
X69240000Y-44620000D03*
X54000000Y-59860000D03*
X69240000Y-42080000D03*
X54000000Y-62400000D03*
X69240000Y-39540000D03*
X54000000Y-64940000D03*
X69240000Y-37000000D03*
D14*
X112000000Y-71000000D03*
D15*
X112000000Y-73540000D03*
D14*
X100000000Y-52000000D03*
D15*
X100000000Y-49460000D03*
X100000000Y-46920000D03*
D16*
X63500000Y-72450000D03*
X63500000Y-70550000D03*
X61500000Y-71500000D03*
D12*
X76000000Y-41500000D03*
D13*
X98860000Y-33880000D03*
X78540000Y-41500000D03*
X96320000Y-33880000D03*
X81080000Y-41500000D03*
X93780000Y-33880000D03*
X83620000Y-41500000D03*
X91240000Y-33880000D03*
X86160000Y-41500000D03*
X88700000Y-33880000D03*
X88700000Y-41500000D03*
X86160000Y-33880000D03*
X91240000Y-41500000D03*
X83620000Y-33880000D03*
X93780000Y-41500000D03*
X81080000Y-33880000D03*
X96320000Y-41500000D03*
X78540000Y-33880000D03*
X98860000Y-41500000D03*
X76000000Y-33880000D03*
D12*
X76500000Y-64500000D03*
D13*
X99360000Y-56880000D03*
X79040000Y-64500000D03*
X96820000Y-56880000D03*
X81580000Y-64500000D03*
X94280000Y-56880000D03*
X84120000Y-64500000D03*
X91740000Y-56880000D03*
X86660000Y-64500000D03*
X89200000Y-56880000D03*
X89200000Y-64500000D03*
X86660000Y-56880000D03*
X91740000Y-64500000D03*
X84120000Y-56880000D03*
X94280000Y-64500000D03*
X81580000Y-56880000D03*
X96820000Y-64500000D03*
X79040000Y-56880000D03*
X99360000Y-64500000D03*
X76500000Y-56880000D03*
D12*
X78500000Y-53000000D03*
D13*
X93740000Y-45380000D03*
X81040000Y-53000000D03*
X91200000Y-45380000D03*
X83580000Y-53000000D03*
X88660000Y-45380000D03*
X86120000Y-53000000D03*
X86120000Y-45380000D03*
X88660000Y-53000000D03*
X83580000Y-45380000D03*
X91200000Y-53000000D03*
X81040000Y-45380000D03*
X93740000Y-53000000D03*
X78500000Y-45380000D03*
D12*
X89500000Y-75000000D03*
D13*
X97120000Y-67380000D03*
X92040000Y-75000000D03*
X94580000Y-67380000D03*
X94580000Y-75000000D03*
X92040000Y-67380000D03*
X97120000Y-75000000D03*
X89500000Y-67380000D03*
D12*
X103500000Y-37000000D03*
D13*
X118740000Y-64940000D03*
X103500000Y-39540000D03*
X118740000Y-62400000D03*
X103500000Y-42080000D03*
X118740000Y-59860000D03*
X103500000Y-44620000D03*
X118740000Y-57320000D03*
X103500000Y-47160000D03*
X118740000Y-54780000D03*
X103500000Y-49700000D03*
X118740000Y-52240000D03*
X103500000Y-52240000D03*
X118740000Y-49700000D03*
X103500000Y-54780000D03*
X118740000Y-47160000D03*
X103500000Y-57320000D03*
X118740000Y-44620000D03*
X103500000Y-59860000D03*
X118740000Y-42080000D03*
X103500000Y-62400000D03*
X118740000Y-39540000D03*
X103500000Y-64940000D03*
X118740000Y-37000000D03*
D17*
X87800200Y-58216400D03*
X68069200Y-70456600D03*
X83497700Y-62327700D03*
X78311800Y-39725000D03*
X105576700Y-63980200D03*
X81597400Y-50819200D03*
D18*
X61500000Y-71500000D02*
X61500000Y-70649700D01*
X103500000Y-39540000D02*
X103500000Y-38289700D01*
X76000000Y-33880000D02*
X77250300Y-33880000D01*
X109500000Y-33270000D02*
X109500000Y-33000000D01*
X104480300Y-38289700D02*
X109500000Y-33270000D01*
X103500000Y-38289700D02*
X104480300Y-38289700D01*
X77250300Y-33336100D02*
X77250300Y-33880000D01*
X78882900Y-31703500D02*
X77250300Y-33336100D01*
X108203500Y-31703500D02*
X78882900Y-31703500D01*
X109500000Y-33000000D02*
X108203500Y-31703500D01*
X87120000Y-67380000D02*
X86000000Y-68500000D01*
X89500000Y-67380000D02*
X87120000Y-67380000D01*
X70000000Y-68500000D02*
X69000000Y-69500000D01*
X86000000Y-68500000D02*
X70000000Y-68500000D01*
X54000000Y-39540000D02*
X55250300Y-39540000D01*
X76000000Y-33880000D02*
X74749700Y-33880000D01*
X73129700Y-35500000D02*
X74749700Y-33880000D01*
X72000000Y-35500000D02*
X73129700Y-35500000D01*
X73629700Y-58500000D02*
X75249700Y-56880000D01*
X72500000Y-58500000D02*
X73629700Y-58500000D01*
X76500000Y-56880000D02*
X75249700Y-56880000D01*
X73256200Y-39545800D02*
X72000000Y-38289600D01*
X73256200Y-46743800D02*
X73256200Y-39545800D01*
X73000000Y-47000000D02*
X73256200Y-46743800D01*
X56500700Y-38289600D02*
X72000000Y-38289600D01*
X55250300Y-39540000D02*
X56500700Y-38289600D01*
X72000000Y-38289600D02*
X72000000Y-35500000D01*
X62649700Y-69500000D02*
X61500000Y-70649700D01*
X69000000Y-69500000D02*
X62649700Y-69500000D01*
X104500000Y-34749700D02*
X104500000Y-33000000D01*
X103500000Y-35749700D02*
X104500000Y-34749700D01*
X103500000Y-37000000D02*
X103500000Y-35749700D01*
X54000000Y-37000000D02*
X54000000Y-38250300D01*
X93740000Y-53000000D02*
X92489700Y-53000000D01*
X97120000Y-75000000D02*
X95869700Y-75000000D01*
X94913600Y-73500000D02*
X86000000Y-73500000D01*
X95869700Y-74456100D02*
X94913600Y-73500000D01*
X95869700Y-75000000D02*
X95869700Y-74456100D01*
X73260700Y-51739300D02*
X73000000Y-52000000D01*
X71690000Y-50168600D02*
X73260700Y-51739300D01*
X71690000Y-40810000D02*
X71690000Y-50168600D01*
X71690000Y-40810000D02*
X72000000Y-40500000D01*
X66950000Y-72450000D02*
X63500000Y-72450000D01*
X69000000Y-74500000D02*
X66950000Y-72450000D01*
X52749600Y-41516800D02*
X53456400Y-40810000D01*
X52749600Y-65492200D02*
X52749600Y-41516800D01*
X59707400Y-72450000D02*
X52749600Y-65492200D01*
X63500000Y-72450000D02*
X59707400Y-72450000D01*
X52695700Y-40049300D02*
X53456400Y-40810000D01*
X52695700Y-39007600D02*
X52695700Y-40049300D01*
X53453000Y-38250300D02*
X52695700Y-39007600D01*
X54000000Y-38250300D02*
X53453000Y-38250300D01*
X53456400Y-40810000D02*
X71690000Y-40810000D01*
X103500000Y-42080000D02*
X102249700Y-42080000D01*
X101669700Y-38830300D02*
X103500000Y-37000000D01*
X101669700Y-41500000D02*
X101669700Y-38830300D01*
X98860000Y-41500000D02*
X101669700Y-41500000D01*
X101669700Y-41500000D02*
X102249700Y-42080000D01*
X92489700Y-52453000D02*
X92489700Y-53000000D01*
X91776000Y-51739300D02*
X92489700Y-52453000D01*
X73260700Y-51739300D02*
X91776000Y-51739300D01*
X69240000Y-57320000D02*
X70490300Y-57320000D01*
X78603400Y-58216400D02*
X87800200Y-58216400D01*
X77770000Y-57383000D02*
X78603400Y-58216400D01*
X77770000Y-56298400D02*
X77770000Y-57383000D01*
X77053800Y-55582200D02*
X77770000Y-56298400D01*
X72228100Y-55582200D02*
X77053800Y-55582200D01*
X70490300Y-57320000D02*
X72228100Y-55582200D01*
X108000000Y-68763300D02*
X108000000Y-69500000D01*
X118193000Y-58570300D02*
X108000000Y-68763300D01*
X118740000Y-58570300D02*
X118193000Y-58570300D01*
X118740000Y-57320000D02*
X118740000Y-58570300D01*
D19*
X115234300Y-64940000D02*
X118740000Y-64940000D01*
X109055600Y-71118700D02*
X115234300Y-64940000D01*
X68731300Y-71118700D02*
X109055600Y-71118700D01*
X68069200Y-70456600D02*
X68731300Y-71118700D01*
X70934900Y-61830400D02*
X70365300Y-62400000D01*
X83110600Y-61830400D02*
X70934900Y-61830400D01*
X83677300Y-61263700D02*
X83110600Y-61830400D01*
X103970800Y-61263700D02*
X83677300Y-61263700D01*
X106816700Y-64109600D02*
X103970800Y-61263700D01*
X106816700Y-69910200D02*
X106816700Y-64109600D01*
X107574800Y-70668300D02*
X106816700Y-69910200D01*
X108869100Y-70668300D02*
X107574800Y-70668300D01*
X117137400Y-62400000D02*
X108869100Y-70668300D01*
X118740000Y-62400000D02*
X117137400Y-62400000D01*
X69240000Y-62400000D02*
X70365300Y-62400000D01*
X70677600Y-60172300D02*
X70365300Y-59860000D01*
X82432700Y-60172300D02*
X70677600Y-60172300D01*
X83136100Y-59468900D02*
X82432700Y-60172300D01*
X101721100Y-59468900D02*
X83136100Y-59468900D01*
X102744600Y-58445400D02*
X101721100Y-59468900D01*
X115219200Y-58445400D02*
X102744600Y-58445400D01*
X117515700Y-56148900D02*
X115219200Y-58445400D01*
X119214700Y-56148900D02*
X117515700Y-56148900D01*
X119906700Y-56840900D02*
X119214700Y-56148900D01*
X119906700Y-58693300D02*
X119906700Y-56840900D01*
X118740000Y-59860000D02*
X119906700Y-58693300D01*
X69240000Y-59860000D02*
X70365300Y-59860000D01*
X54000000Y-54780000D02*
X55125300Y-54780000D01*
X103500000Y-54780000D02*
X102374700Y-54780000D01*
X56256300Y-53649000D02*
X55125300Y-54780000D01*
X75934300Y-53649000D02*
X56256300Y-53649000D01*
X77565900Y-55280600D02*
X75934300Y-53649000D01*
X94272100Y-55280600D02*
X77565900Y-55280600D01*
X95405300Y-56413800D02*
X94272100Y-55280600D01*
X95405300Y-57084000D02*
X95405300Y-56413800D01*
X96326600Y-58005300D02*
X95405300Y-57084000D01*
X99852600Y-58005300D02*
X96326600Y-58005300D01*
X102374700Y-55483200D02*
X99852600Y-58005300D01*
X102374700Y-54780000D02*
X102374700Y-55483200D01*
X103500000Y-57320000D02*
X102374700Y-57320000D01*
X54000000Y-57320000D02*
X55125300Y-57320000D01*
X100676200Y-59018500D02*
X102374700Y-57320000D01*
X77638500Y-59018500D02*
X100676200Y-59018500D01*
X76991600Y-59665400D02*
X77638500Y-59018500D01*
X71548100Y-59665400D02*
X76991600Y-59665400D01*
X70328000Y-58445300D02*
X71548100Y-59665400D01*
X56250600Y-58445300D02*
X70328000Y-58445300D01*
X55125300Y-57320000D02*
X56250600Y-58445300D01*
X96820000Y-64500000D02*
X94280000Y-64500000D01*
X94280000Y-64500000D02*
X91740000Y-64500000D01*
X79040000Y-64500000D02*
X80165300Y-64500000D01*
X91740000Y-64500000D02*
X89200000Y-64500000D01*
X80165300Y-64218600D02*
X80165300Y-64500000D01*
X81009200Y-63374700D02*
X80165300Y-64218600D01*
X87230800Y-63374700D02*
X81009200Y-63374700D01*
X88074700Y-64218600D02*
X87230800Y-63374700D01*
X88074700Y-64500000D02*
X88074700Y-64218600D01*
X89200000Y-64500000D02*
X88074700Y-64500000D01*
X54000000Y-59860000D02*
X55125300Y-59860000D01*
X101977900Y-60256800D02*
X102374700Y-59860000D01*
X83702300Y-60256800D02*
X101977900Y-60256800D01*
X82973800Y-60985300D02*
X83702300Y-60256800D01*
X56250600Y-60985300D02*
X82973800Y-60985300D01*
X55125300Y-59860000D02*
X56250600Y-60985300D01*
X103500000Y-59860000D02*
X102374700Y-59860000D01*
X54000000Y-62400000D02*
X55125300Y-62400000D01*
X103500000Y-62400000D02*
X102374700Y-62400000D01*
X71136500Y-62327700D02*
X83497700Y-62327700D01*
X69914800Y-63549400D02*
X71136500Y-62327700D01*
X56274700Y-63549400D02*
X69914800Y-63549400D01*
X55125300Y-62400000D02*
X56274700Y-63549400D01*
X102302400Y-62327700D02*
X102374700Y-62400000D01*
X83497700Y-62327700D02*
X102302400Y-62327700D01*
X91044000Y-46920000D02*
X100000000Y-46920000D01*
X89785300Y-45661300D02*
X91044000Y-46920000D01*
X89785300Y-45380000D02*
X89785300Y-45661300D01*
X89785300Y-44549500D02*
X89785300Y-45380000D01*
X92510000Y-41824800D02*
X89785300Y-44549500D01*
X92510000Y-41074000D02*
X92510000Y-41824800D01*
X98578700Y-35005300D02*
X92510000Y-41074000D01*
X98860000Y-35005300D02*
X98578700Y-35005300D01*
X98860000Y-33880000D02*
X98860000Y-35005300D01*
X89222700Y-45380000D02*
X89785300Y-45380000D01*
X89222700Y-45380000D02*
X88660000Y-45380000D01*
X83496700Y-39725000D02*
X78311800Y-39725000D01*
X84890000Y-41118300D02*
X83496700Y-39725000D01*
X84890000Y-41862100D02*
X84890000Y-41118300D01*
X87534700Y-44506800D02*
X84890000Y-41862100D01*
X87534700Y-45380000D02*
X87534700Y-44506800D01*
X88660000Y-45380000D02*
X87534700Y-45380000D01*
X56250600Y-66065300D02*
X55125300Y-64940000D01*
X101249400Y-66065300D02*
X56250600Y-66065300D01*
X102374700Y-64940000D02*
X101249400Y-66065300D01*
X103500000Y-64940000D02*
X102374700Y-64940000D01*
X54000000Y-64940000D02*
X55125300Y-64940000D01*
X99360000Y-56880000D02*
X98234700Y-56880000D01*
X78500000Y-53000000D02*
X81040000Y-53000000D01*
X98234700Y-56598700D02*
X98234700Y-56880000D01*
X96314100Y-54678100D02*
X98234700Y-56598700D01*
X83562100Y-54678100D02*
X96314100Y-54678100D01*
X82165300Y-53281300D02*
X83562100Y-54678100D01*
X82165300Y-53000000D02*
X82165300Y-53281300D01*
X81040000Y-53000000D02*
X82165300Y-53000000D01*
X105576700Y-64487000D02*
X105576700Y-63980200D01*
X102683700Y-67380000D02*
X105576700Y-64487000D01*
X97120000Y-67380000D02*
X102683700Y-67380000D01*
X108588100Y-48566600D02*
X117614700Y-39540000D01*
X102068700Y-48566600D02*
X108588100Y-48566600D01*
X101175300Y-49460000D02*
X102068700Y-48566600D01*
X100000000Y-49460000D02*
X101175300Y-49460000D01*
X118740000Y-39540000D02*
X117614700Y-39540000D01*
X118740000Y-42080000D02*
X118740000Y-43205300D01*
X63500000Y-70550000D02*
X63500000Y-71275300D01*
X119021300Y-43205300D02*
X118740000Y-43205300D01*
X120362100Y-44546100D02*
X119021300Y-43205300D01*
X120362100Y-64979900D02*
X120362100Y-44546100D01*
X116227600Y-69114400D02*
X120362100Y-64979900D01*
X111696800Y-69114400D02*
X116227600Y-69114400D01*
X109242100Y-71569100D02*
X111696800Y-69114400D01*
X63793800Y-71569100D02*
X109242100Y-71569100D01*
X63500000Y-71275300D02*
X63793800Y-71569100D01*
X77125300Y-41781400D02*
X77125300Y-41500000D01*
X77969200Y-42625300D02*
X77125300Y-41781400D01*
X82521400Y-42625300D02*
X77969200Y-42625300D01*
X84994700Y-45098600D02*
X82521400Y-42625300D01*
X84994700Y-45380000D02*
X84994700Y-45098600D01*
X86120000Y-45380000D02*
X84994700Y-45380000D01*
X76000000Y-41500000D02*
X77125300Y-41500000D01*
X113804700Y-56050000D02*
X117614700Y-52240000D01*
X102586300Y-56050000D02*
X113804700Y-56050000D01*
X100160300Y-58476000D02*
X102586300Y-56050000D01*
X89151100Y-58476000D02*
X100160300Y-58476000D01*
X87785300Y-57110200D02*
X89151100Y-58476000D01*
X87785300Y-56880000D02*
X87785300Y-57110200D01*
X86660000Y-56880000D02*
X87785300Y-56880000D01*
X118740000Y-52240000D02*
X117614700Y-52240000D01*
X118740000Y-44620000D02*
X118740000Y-45745300D01*
X101976100Y-50819200D02*
X81597400Y-50819200D01*
X102051400Y-50894500D02*
X101976100Y-50819200D01*
X115263200Y-50894500D02*
X102051400Y-50894500D01*
X117727700Y-48430000D02*
X115263200Y-50894500D01*
X119091200Y-48430000D02*
X117727700Y-48430000D01*
X119865300Y-47655900D02*
X119091200Y-48430000D01*
X119865300Y-46589200D02*
X119865300Y-47655900D01*
X119021400Y-45745300D02*
X119865300Y-46589200D01*
X118740000Y-45745300D02*
X119021400Y-45745300D01*
X117582900Y-46002900D02*
X118740000Y-47160000D01*
X117582900Y-41605600D02*
X117582900Y-46002900D01*
X118378500Y-40810000D02*
X117582900Y-41605600D01*
X119142500Y-40810000D02*
X118378500Y-40810000D01*
X119891600Y-40060900D02*
X119142500Y-40810000D01*
X119891600Y-39038800D02*
X119891600Y-40060900D01*
X119231200Y-38378400D02*
X119891600Y-39038800D01*
X118101400Y-38378400D02*
X119231200Y-38378400D01*
X113129800Y-43350000D02*
X118101400Y-38378400D01*
X96895300Y-43350000D02*
X113129800Y-43350000D01*
X94865300Y-45380000D02*
X96895300Y-43350000D01*
X93740000Y-45380000D02*
X94865300Y-45380000D01*
X113804700Y-53510000D02*
X117614700Y-49700000D01*
X102969800Y-53510000D02*
X113804700Y-53510000D01*
X102354500Y-54125300D02*
X102969800Y-53510000D01*
X92325300Y-54125300D02*
X102354500Y-54125300D01*
X91200000Y-53000000D02*
X92325300Y-54125300D01*
X118740000Y-49700000D02*
X117614700Y-49700000D01*
D20*
G36*
X121373000Y-76373000D02*
X97514680Y-76373000D01*
X97857423Y-76231041D01*
X98272389Y-75855134D01*
X98511914Y-75349041D01*
X98390629Y-75127000D01*
X97247000Y-75127000D01*
X97247000Y-75147000D01*
X96993000Y-75147000D01*
X96993000Y-75127000D01*
X96973000Y-75127000D01*
X96973000Y-74873000D01*
X96993000Y-74873000D01*
X96993000Y-73730085D01*
X97247000Y-73730085D01*
X97247000Y-74873000D01*
X98390629Y-74873000D01*
X98511914Y-74650959D01*
X98272389Y-74144866D01*
X97857423Y-73768959D01*
X97469039Y-73608096D01*
X97247000Y-73730085D01*
X96993000Y-73730085D01*
X96770961Y-73608096D01*
X96382577Y-73768959D01*
X95967611Y-74144866D01*
X95728086Y-74650959D01*
X95849370Y-74872998D01*
X95686129Y-74872998D01*
X95621212Y-74546637D01*
X95376909Y-74181012D01*
X95011284Y-73936709D01*
X94580000Y-73850921D01*
X94148716Y-73936709D01*
X93783091Y-74181012D01*
X93538788Y-74546637D01*
X93453000Y-74977921D01*
X93453000Y-75022079D01*
X93538788Y-75453363D01*
X93783091Y-75818988D01*
X94148716Y-76063291D01*
X94580000Y-76149079D01*
X95011284Y-76063291D01*
X95376909Y-75818988D01*
X95621212Y-75453363D01*
X95686129Y-75127002D01*
X95849370Y-75127002D01*
X95728086Y-75349041D01*
X95967611Y-75855134D01*
X96382577Y-76231041D01*
X96725320Y-76373000D01*
X50627000Y-76373000D01*
X50627000Y-75507745D01*
X68171861Y-75507745D01*
X68245995Y-75753864D01*
X68783223Y-75946965D01*
X69353454Y-75919778D01*
X69754005Y-75753864D01*
X69828139Y-75507745D01*
X69000000Y-74679605D01*
X68171861Y-75507745D01*
X50627000Y-75507745D01*
X50627000Y-74283223D01*
X67553035Y-74283223D01*
X67580222Y-74853454D01*
X67746136Y-75254005D01*
X67992255Y-75328139D01*
X68820395Y-74500000D01*
X69179605Y-74500000D01*
X70007745Y-75328139D01*
X70253864Y-75254005D01*
X70446965Y-74716777D01*
X70436999Y-74507745D01*
X85171861Y-74507745D01*
X85245995Y-74753864D01*
X85783223Y-74946965D01*
X86353454Y-74919778D01*
X86754005Y-74753864D01*
X86828139Y-74507745D01*
X86000000Y-73679605D01*
X85171861Y-74507745D01*
X70436999Y-74507745D01*
X70419778Y-74146546D01*
X70253864Y-73745995D01*
X70007745Y-73671861D01*
X69179605Y-74500000D01*
X68820395Y-74500000D01*
X67992255Y-73671861D01*
X67746136Y-73745995D01*
X67553035Y-74283223D01*
X50627000Y-74283223D01*
X50627000Y-73492255D01*
X68171861Y-73492255D01*
X69000000Y-74320395D01*
X69828139Y-73492255D01*
X69765177Y-73283223D01*
X84553035Y-73283223D01*
X84580222Y-73853454D01*
X84746136Y-74254005D01*
X84992255Y-74328139D01*
X85820395Y-73500000D01*
X86179605Y-73500000D01*
X87007745Y-74328139D01*
X87253864Y-74254005D01*
X87273275Y-74200000D01*
X88366594Y-74200000D01*
X88366594Y-75800000D01*
X88389395Y-75921179D01*
X88461012Y-76032474D01*
X88570286Y-76107138D01*
X88700000Y-76133406D01*
X90300000Y-76133406D01*
X90421179Y-76110605D01*
X90532474Y-76038988D01*
X90607138Y-75929714D01*
X90633406Y-75800000D01*
X90633406Y-74977921D01*
X90913000Y-74977921D01*
X90913000Y-75022079D01*
X90998788Y-75453363D01*
X91243091Y-75818988D01*
X91608716Y-76063291D01*
X92040000Y-76149079D01*
X92471284Y-76063291D01*
X92836909Y-75818988D01*
X93081212Y-75453363D01*
X93167000Y-75022079D01*
X93167000Y-74977921D01*
X93081212Y-74546637D01*
X92836909Y-74181012D01*
X92471284Y-73936709D01*
X92040000Y-73850921D01*
X91608716Y-73936709D01*
X91243091Y-74181012D01*
X90998788Y-74546637D01*
X90913000Y-74977921D01*
X90633406Y-74977921D01*
X90633406Y-74200000D01*
X90610605Y-74078821D01*
X90538988Y-73967526D01*
X90429714Y-73892862D01*
X90300000Y-73866594D01*
X88700000Y-73866594D01*
X88578821Y-73889395D01*
X88467526Y-73961012D01*
X88392862Y-74070286D01*
X88366594Y-74200000D01*
X87273275Y-74200000D01*
X87446965Y-73716777D01*
X87438537Y-73540000D01*
X110799941Y-73540000D01*
X110889535Y-73990418D01*
X111144676Y-74372265D01*
X111526523Y-74627406D01*
X111976941Y-74717000D01*
X112023059Y-74717000D01*
X112473477Y-74627406D01*
X112855324Y-74372265D01*
X113110465Y-73990418D01*
X113200059Y-73540000D01*
X113110465Y-73089582D01*
X112855324Y-72707735D01*
X112473477Y-72452594D01*
X112023059Y-72363000D01*
X111976941Y-72363000D01*
X111526523Y-72452594D01*
X111144676Y-72707735D01*
X110889535Y-73089582D01*
X110799941Y-73540000D01*
X87438537Y-73540000D01*
X87419778Y-73146546D01*
X87253864Y-72745995D01*
X87007745Y-72671861D01*
X86179605Y-73500000D01*
X85820395Y-73500000D01*
X84992255Y-72671861D01*
X84746136Y-72745995D01*
X84553035Y-73283223D01*
X69765177Y-73283223D01*
X69754005Y-73246136D01*
X69216777Y-73053035D01*
X68646546Y-73080222D01*
X68245995Y-73246136D01*
X68171861Y-73492255D01*
X50627000Y-73492255D01*
X50627000Y-72735750D01*
X62415000Y-72735750D01*
X62415000Y-72976310D01*
X62511673Y-73209699D01*
X62690302Y-73388327D01*
X62923691Y-73485000D01*
X63214250Y-73485000D01*
X63373000Y-73326250D01*
X63373000Y-72577000D01*
X63627000Y-72577000D01*
X63627000Y-73326250D01*
X63785750Y-73485000D01*
X64076309Y-73485000D01*
X64309698Y-73388327D01*
X64488327Y-73209699D01*
X64585000Y-72976310D01*
X64585000Y-72735750D01*
X64426250Y-72577000D01*
X63627000Y-72577000D01*
X63373000Y-72577000D01*
X62573750Y-72577000D01*
X62415000Y-72735750D01*
X50627000Y-72735750D01*
X50627000Y-72492255D01*
X85171861Y-72492255D01*
X86000000Y-73320395D01*
X86828139Y-72492255D01*
X86754005Y-72246136D01*
X86216777Y-72053035D01*
X85646546Y-72080222D01*
X85245995Y-72246136D01*
X85171861Y-72492255D01*
X50627000Y-72492255D01*
X50627000Y-54780000D01*
X52850921Y-54780000D01*
X52936709Y-55211284D01*
X53181012Y-55576909D01*
X53546637Y-55821212D01*
X53977921Y-55907000D01*
X54022079Y-55907000D01*
X54453363Y-55821212D01*
X54818988Y-55576909D01*
X55049449Y-55232000D01*
X55125300Y-55232000D01*
X55298273Y-55197594D01*
X55444912Y-55099612D01*
X56443525Y-54101000D01*
X68342228Y-54101000D01*
X68176709Y-54348716D01*
X68090921Y-54780000D01*
X68176709Y-55211284D01*
X68421012Y-55576909D01*
X68786637Y-55821212D01*
X69217921Y-55907000D01*
X69262079Y-55907000D01*
X69693363Y-55821212D01*
X70058988Y-55576909D01*
X70303291Y-55211284D01*
X70389079Y-54780000D01*
X70303291Y-54348716D01*
X70137772Y-54101000D01*
X75747076Y-54101000D01*
X76651276Y-55005200D01*
X72228100Y-55005200D01*
X72007292Y-55049122D01*
X71820099Y-55174199D01*
X71820097Y-55174202D01*
X70251298Y-56743000D01*
X70205927Y-56743000D01*
X70058988Y-56523091D01*
X69693363Y-56278788D01*
X69262079Y-56193000D01*
X69217921Y-56193000D01*
X68786637Y-56278788D01*
X68421012Y-56523091D01*
X68176709Y-56888716D01*
X68090921Y-57320000D01*
X68176709Y-57751284D01*
X68338419Y-57993300D01*
X56437825Y-57993300D01*
X55444912Y-57000388D01*
X55298273Y-56902406D01*
X55125300Y-56868000D01*
X55049449Y-56868000D01*
X54818988Y-56523091D01*
X54453363Y-56278788D01*
X54022079Y-56193000D01*
X53977921Y-56193000D01*
X53546637Y-56278788D01*
X53181012Y-56523091D01*
X52936709Y-56888716D01*
X52850921Y-57320000D01*
X52936709Y-57751284D01*
X53181012Y-58116909D01*
X53546637Y-58361212D01*
X53977921Y-58447000D01*
X54022079Y-58447000D01*
X54453363Y-58361212D01*
X54818988Y-58116909D01*
X55004839Y-57838763D01*
X55930988Y-58764913D01*
X56077627Y-58862894D01*
X56250600Y-58897300D01*
X68669136Y-58897300D01*
X68421012Y-59063091D01*
X68176709Y-59428716D01*
X68090921Y-59860000D01*
X68176709Y-60291284D01*
X68338419Y-60533300D01*
X56437825Y-60533300D01*
X55444912Y-59540388D01*
X55298273Y-59442406D01*
X55125300Y-59408000D01*
X55049449Y-59408000D01*
X54818988Y-59063091D01*
X54453363Y-58818788D01*
X54022079Y-58733000D01*
X53977921Y-58733000D01*
X53546637Y-58818788D01*
X53181012Y-59063091D01*
X52936709Y-59428716D01*
X52850921Y-59860000D01*
X52936709Y-60291284D01*
X53181012Y-60656909D01*
X53546637Y-60901212D01*
X53977921Y-60987000D01*
X54022079Y-60987000D01*
X54453363Y-60901212D01*
X54818988Y-60656909D01*
X55004839Y-60378763D01*
X55930988Y-61304913D01*
X56011618Y-61358788D01*
X56077627Y-61402894D01*
X56250600Y-61437300D01*
X68669136Y-61437300D01*
X68421012Y-61603091D01*
X68176709Y-61968716D01*
X68090921Y-62400000D01*
X68176709Y-62831284D01*
X68354522Y-63097400D01*
X56461924Y-63097400D01*
X55444912Y-62080388D01*
X55298273Y-61982406D01*
X55125300Y-61948000D01*
X55049449Y-61948000D01*
X54818988Y-61603091D01*
X54453363Y-61358788D01*
X54022079Y-61273000D01*
X53977921Y-61273000D01*
X53546637Y-61358788D01*
X53181012Y-61603091D01*
X52936709Y-61968716D01*
X52850921Y-62400000D01*
X52936709Y-62831284D01*
X53181012Y-63196909D01*
X53546637Y-63441212D01*
X53977921Y-63527000D01*
X54022079Y-63527000D01*
X54453363Y-63441212D01*
X54818988Y-63196909D01*
X55004839Y-62918763D01*
X55955088Y-63869012D01*
X56101727Y-63966994D01*
X56274700Y-64001400D01*
X68633067Y-64001400D01*
X68421012Y-64143091D01*
X68176709Y-64508716D01*
X68090921Y-64940000D01*
X68176709Y-65371284D01*
X68338419Y-65613300D01*
X56437825Y-65613300D01*
X55444912Y-64620388D01*
X55298273Y-64522406D01*
X55125300Y-64488000D01*
X55049449Y-64488000D01*
X54818988Y-64143091D01*
X54453363Y-63898788D01*
X54022079Y-63813000D01*
X53977921Y-63813000D01*
X53546637Y-63898788D01*
X53181012Y-64143091D01*
X52936709Y-64508716D01*
X52850921Y-64940000D01*
X52936709Y-65371284D01*
X53181012Y-65736909D01*
X53546637Y-65981212D01*
X53977921Y-66067000D01*
X54022079Y-66067000D01*
X54453363Y-65981212D01*
X54818988Y-65736909D01*
X55004839Y-65458763D01*
X55930988Y-66384913D01*
X56077627Y-66482894D01*
X56250600Y-66517300D01*
X88768511Y-66517300D01*
X88703091Y-66561012D01*
X88541400Y-66803000D01*
X87120000Y-66803000D01*
X86899192Y-66846922D01*
X86711999Y-66971999D01*
X86711997Y-66972002D01*
X86285674Y-67398325D01*
X86225158Y-67373196D01*
X85776809Y-67372805D01*
X85362440Y-67544019D01*
X85045133Y-67860772D01*
X85019294Y-67923000D01*
X70000005Y-67923000D01*
X70000000Y-67922999D01*
X69779192Y-67966922D01*
X69591999Y-68091999D01*
X69591997Y-68092002D01*
X69285674Y-68398325D01*
X69225158Y-68373196D01*
X68776809Y-68372805D01*
X68362440Y-68544019D01*
X68045133Y-68860772D01*
X68019294Y-68923000D01*
X62649700Y-68923000D01*
X62428892Y-68966922D01*
X62241699Y-69091999D01*
X62241697Y-69092002D01*
X61091999Y-70241699D01*
X60966922Y-70428892D01*
X60922999Y-70649700D01*
X60923000Y-70649705D01*
X60923000Y-70793141D01*
X60817526Y-70861012D01*
X60742862Y-70970286D01*
X60716594Y-71100000D01*
X60716594Y-71900000D01*
X60739395Y-72021179D01*
X60811012Y-72132474D01*
X60920286Y-72207138D01*
X61050000Y-72233406D01*
X61950000Y-72233406D01*
X62071179Y-72210605D01*
X62182474Y-72138988D01*
X62257138Y-72029714D01*
X62283406Y-71900000D01*
X62283406Y-71100000D01*
X62260605Y-70978821D01*
X62188988Y-70867526D01*
X62135038Y-70830664D01*
X62716594Y-70249107D01*
X62716594Y-70950000D01*
X62739395Y-71071179D01*
X62811012Y-71182474D01*
X62920286Y-71257138D01*
X63049596Y-71283324D01*
X63075788Y-71415000D01*
X62923691Y-71415000D01*
X62690302Y-71511673D01*
X62511673Y-71690301D01*
X62415000Y-71923690D01*
X62415000Y-72164250D01*
X62573750Y-72323000D01*
X63373000Y-72323000D01*
X63373000Y-72303000D01*
X63627000Y-72303000D01*
X63627000Y-72323000D01*
X64426250Y-72323000D01*
X64585000Y-72164250D01*
X64585000Y-72021100D01*
X109242100Y-72021100D01*
X109415073Y-71986694D01*
X109561712Y-71888712D01*
X110816594Y-70633830D01*
X110816594Y-71850000D01*
X110839395Y-71971179D01*
X110911012Y-72082474D01*
X111020286Y-72157138D01*
X111150000Y-72183406D01*
X112850000Y-72183406D01*
X112971179Y-72160605D01*
X113082474Y-72088988D01*
X113157138Y-71979714D01*
X113183406Y-71850000D01*
X113183406Y-70150000D01*
X113160605Y-70028821D01*
X113088988Y-69917526D01*
X112979714Y-69842862D01*
X112850000Y-69816594D01*
X111633830Y-69816594D01*
X111884024Y-69566400D01*
X116227600Y-69566400D01*
X116400573Y-69531994D01*
X116547212Y-69434012D01*
X120681712Y-65299512D01*
X120779694Y-65152873D01*
X120814100Y-64979900D01*
X120814100Y-44546100D01*
X120779694Y-44373127D01*
X120681713Y-44226488D01*
X119422998Y-42967774D01*
X119558988Y-42876909D01*
X119803291Y-42511284D01*
X119889079Y-42080000D01*
X119803291Y-41648716D01*
X119558988Y-41283091D01*
X119395702Y-41173986D01*
X119462112Y-41129612D01*
X120211212Y-40380513D01*
X120309194Y-40233873D01*
X120309947Y-40230085D01*
X120343600Y-40060900D01*
X120343600Y-39038800D01*
X120309194Y-38865827D01*
X120285522Y-38830400D01*
X120211213Y-38719188D01*
X119550812Y-38058788D01*
X119404173Y-37960806D01*
X119334454Y-37946938D01*
X119558988Y-37796909D01*
X119803291Y-37431284D01*
X119889079Y-37000000D01*
X119803291Y-36568716D01*
X119558988Y-36203091D01*
X119193363Y-35958788D01*
X118762079Y-35873000D01*
X118717921Y-35873000D01*
X118286637Y-35958788D01*
X117921012Y-36203091D01*
X117676709Y-36568716D01*
X117590921Y-37000000D01*
X117676709Y-37431284D01*
X117921012Y-37796909D01*
X118114809Y-37926400D01*
X118101400Y-37926400D01*
X117928427Y-37960806D01*
X117781788Y-38058788D01*
X112942576Y-42898000D01*
X104658048Y-42898000D01*
X104731041Y-42817423D01*
X104891904Y-42429039D01*
X104769915Y-42207000D01*
X103627000Y-42207000D01*
X103627000Y-42227000D01*
X103373000Y-42227000D01*
X103373000Y-42207000D01*
X102230085Y-42207000D01*
X102108096Y-42429039D01*
X102268959Y-42817423D01*
X102341952Y-42898000D01*
X98987002Y-42898000D01*
X98987002Y-42769916D01*
X99209039Y-42891904D01*
X99597423Y-42731041D01*
X100012389Y-42355134D01*
X100251914Y-41849041D01*
X100130629Y-41627000D01*
X98987000Y-41627000D01*
X98987000Y-41647000D01*
X98733000Y-41647000D01*
X98733000Y-41627000D01*
X98713000Y-41627000D01*
X98713000Y-41373000D01*
X98733000Y-41373000D01*
X98733000Y-40230085D01*
X98987000Y-40230085D01*
X98987000Y-41373000D01*
X100130629Y-41373000D01*
X100251914Y-41150959D01*
X100012389Y-40644866D01*
X99597423Y-40268959D01*
X99209039Y-40108096D01*
X98987000Y-40230085D01*
X98733000Y-40230085D01*
X98510961Y-40108096D01*
X98122577Y-40268959D01*
X97707611Y-40644866D01*
X97468086Y-41150959D01*
X97589370Y-41372998D01*
X97426129Y-41372998D01*
X97361212Y-41046637D01*
X97116909Y-40681012D01*
X96751284Y-40436709D01*
X96320000Y-40350921D01*
X95888716Y-40436709D01*
X95523091Y-40681012D01*
X95278788Y-41046637D01*
X95193000Y-41477921D01*
X95193000Y-41522079D01*
X95278788Y-41953363D01*
X95523091Y-42318988D01*
X95888716Y-42563291D01*
X96320000Y-42649079D01*
X96751284Y-42563291D01*
X97116909Y-42318988D01*
X97361212Y-41953363D01*
X97426129Y-41627002D01*
X97589370Y-41627002D01*
X97468086Y-41849041D01*
X97707611Y-42355134D01*
X98122577Y-42731041D01*
X98510961Y-42891904D01*
X98732998Y-42769916D01*
X98732998Y-42898000D01*
X96895300Y-42898000D01*
X96722327Y-42932406D01*
X96575688Y-43030387D01*
X94740447Y-44865629D01*
X94536909Y-44561012D01*
X94171284Y-44316709D01*
X93740000Y-44230921D01*
X93308716Y-44316709D01*
X92943091Y-44561012D01*
X92698788Y-44926637D01*
X92613000Y-45357921D01*
X92613000Y-45402079D01*
X92698788Y-45833363D01*
X92943091Y-46198988D01*
X93308716Y-46443291D01*
X93432936Y-46468000D01*
X91507064Y-46468000D01*
X91631284Y-46443291D01*
X91996909Y-46198988D01*
X92241212Y-45833363D01*
X92327000Y-45402079D01*
X92327000Y-45357921D01*
X92241212Y-44926637D01*
X91996909Y-44561012D01*
X91631284Y-44316709D01*
X91200000Y-44230921D01*
X90768716Y-44316709D01*
X90432990Y-44541034D01*
X92829612Y-42144412D01*
X92848028Y-42116851D01*
X92983091Y-42318988D01*
X93348716Y-42563291D01*
X93780000Y-42649079D01*
X94211284Y-42563291D01*
X94576909Y-42318988D01*
X94821212Y-41953363D01*
X94907000Y-41522079D01*
X94907000Y-41477921D01*
X94821212Y-41046637D01*
X94576909Y-40681012D01*
X94211284Y-40436709D01*
X93856989Y-40366235D01*
X98149534Y-36073690D01*
X102065000Y-36073690D01*
X102065000Y-36714250D01*
X102223750Y-36873000D01*
X103373000Y-36873000D01*
X103373000Y-35723750D01*
X103627000Y-35723750D01*
X103627000Y-36873000D01*
X104776250Y-36873000D01*
X104935000Y-36714250D01*
X104935000Y-36073690D01*
X104838327Y-35840301D01*
X104659698Y-35661673D01*
X104426309Y-35565000D01*
X103785750Y-35565000D01*
X103627000Y-35723750D01*
X103373000Y-35723750D01*
X103214250Y-35565000D01*
X102573691Y-35565000D01*
X102340302Y-35661673D01*
X102161673Y-35840301D01*
X102065000Y-36073690D01*
X98149534Y-36073690D01*
X98765924Y-35457300D01*
X98860000Y-35457300D01*
X99032973Y-35422894D01*
X99179612Y-35324912D01*
X99277594Y-35178273D01*
X99312000Y-35005300D01*
X99312000Y-34929449D01*
X99656909Y-34698988D01*
X99901212Y-34333363D01*
X99965981Y-34007745D01*
X103671861Y-34007745D01*
X103745995Y-34253864D01*
X104283223Y-34446965D01*
X104853454Y-34419778D01*
X105254005Y-34253864D01*
X105328139Y-34007745D01*
X104500000Y-33179605D01*
X103671861Y-34007745D01*
X99965981Y-34007745D01*
X99987000Y-33902079D01*
X99987000Y-33857921D01*
X99901212Y-33426637D01*
X99656909Y-33061012D01*
X99291284Y-32816709D01*
X98860000Y-32730921D01*
X98428716Y-32816709D01*
X98063091Y-33061012D01*
X97818788Y-33426637D01*
X97733000Y-33857921D01*
X97733000Y-33902079D01*
X97818788Y-34333363D01*
X98063091Y-34698988D01*
X98172610Y-34772166D01*
X92190388Y-40754388D01*
X92138162Y-40832548D01*
X92036909Y-40681012D01*
X91671284Y-40436709D01*
X91240000Y-40350921D01*
X90808716Y-40436709D01*
X90443091Y-40681012D01*
X90198788Y-41046637D01*
X90113000Y-41477921D01*
X90113000Y-41522079D01*
X90198788Y-41953363D01*
X90443091Y-42318988D01*
X90808716Y-42563291D01*
X91078601Y-42616975D01*
X89465688Y-44229888D01*
X89367706Y-44376527D01*
X89345780Y-44486758D01*
X89091284Y-44316709D01*
X88660000Y-44230921D01*
X88228716Y-44316709D01*
X87981717Y-44481749D01*
X87952294Y-44333827D01*
X87880572Y-44226488D01*
X87854313Y-44187188D01*
X86290288Y-42623163D01*
X86591284Y-42563291D01*
X86956909Y-42318988D01*
X87201212Y-41953363D01*
X87287000Y-41522079D01*
X87287000Y-41477921D01*
X87573000Y-41477921D01*
X87573000Y-41522079D01*
X87658788Y-41953363D01*
X87903091Y-42318988D01*
X88268716Y-42563291D01*
X88700000Y-42649079D01*
X89131284Y-42563291D01*
X89496909Y-42318988D01*
X89741212Y-41953363D01*
X89827000Y-41522079D01*
X89827000Y-41477921D01*
X89741212Y-41046637D01*
X89496909Y-40681012D01*
X89131284Y-40436709D01*
X88700000Y-40350921D01*
X88268716Y-40436709D01*
X87903091Y-40681012D01*
X87658788Y-41046637D01*
X87573000Y-41477921D01*
X87287000Y-41477921D01*
X87201212Y-41046637D01*
X86956909Y-40681012D01*
X86591284Y-40436709D01*
X86160000Y-40350921D01*
X85728716Y-40436709D01*
X85363091Y-40681012D01*
X85247037Y-40854698D01*
X85209612Y-40798688D01*
X83816312Y-39405388D01*
X83669673Y-39307406D01*
X83496700Y-39273000D01*
X78746528Y-39273000D01*
X78667431Y-39193765D01*
X78437065Y-39098109D01*
X78187629Y-39097891D01*
X77957097Y-39193145D01*
X77780565Y-39369369D01*
X77684909Y-39599735D01*
X77684691Y-39849171D01*
X77779945Y-40079703D01*
X77956169Y-40256235D01*
X78186535Y-40351891D01*
X78435971Y-40352109D01*
X78666503Y-40256855D01*
X78746498Y-40177000D01*
X83309476Y-40177000D01*
X83506061Y-40373585D01*
X83188716Y-40436709D01*
X82823091Y-40681012D01*
X82578788Y-41046637D01*
X82493000Y-41477921D01*
X82493000Y-41522079D01*
X82578788Y-41953363D01*
X82792582Y-42273328D01*
X82694373Y-42207706D01*
X82521400Y-42173300D01*
X81974255Y-42173300D01*
X82121212Y-41953363D01*
X82207000Y-41522079D01*
X82207000Y-41477921D01*
X82121212Y-41046637D01*
X81876909Y-40681012D01*
X81511284Y-40436709D01*
X81080000Y-40350921D01*
X80648716Y-40436709D01*
X80283091Y-40681012D01*
X80038788Y-41046637D01*
X79953000Y-41477921D01*
X79953000Y-41522079D01*
X80038788Y-41953363D01*
X80185745Y-42173300D01*
X79434255Y-42173300D01*
X79581212Y-41953363D01*
X79667000Y-41522079D01*
X79667000Y-41477921D01*
X79581212Y-41046637D01*
X79336909Y-40681012D01*
X78971284Y-40436709D01*
X78540000Y-40350921D01*
X78108716Y-40436709D01*
X77743091Y-40681012D01*
X77498788Y-41046637D01*
X77465927Y-41211839D01*
X77444912Y-41180388D01*
X77298273Y-41082406D01*
X77133406Y-41049612D01*
X77133406Y-40700000D01*
X77110605Y-40578821D01*
X77038988Y-40467526D01*
X76929714Y-40392862D01*
X76800000Y-40366594D01*
X75200000Y-40366594D01*
X75078821Y-40389395D01*
X74967526Y-40461012D01*
X74892862Y-40570286D01*
X74866594Y-40700000D01*
X74866594Y-42300000D01*
X74889395Y-42421179D01*
X74961012Y-42532474D01*
X75070286Y-42607138D01*
X75200000Y-42633406D01*
X76800000Y-42633406D01*
X76921179Y-42610605D01*
X77032474Y-42538988D01*
X77107138Y-42429714D01*
X77111727Y-42407051D01*
X77649588Y-42944912D01*
X77796227Y-43042894D01*
X77969200Y-43077300D01*
X82334176Y-43077300D01*
X83503094Y-44246219D01*
X83148716Y-44316709D01*
X82783091Y-44561012D01*
X82538788Y-44926637D01*
X82453000Y-45357921D01*
X82453000Y-45402079D01*
X82538788Y-45833363D01*
X82783091Y-46198988D01*
X83148716Y-46443291D01*
X83580000Y-46529079D01*
X84011284Y-46443291D01*
X84376909Y-46198988D01*
X84621212Y-45833363D01*
X84654073Y-45668161D01*
X84675088Y-45699612D01*
X84821727Y-45797594D01*
X84994700Y-45832000D01*
X85078517Y-45832000D01*
X85078788Y-45833363D01*
X85323091Y-46198988D01*
X85688716Y-46443291D01*
X86120000Y-46529079D01*
X86551284Y-46443291D01*
X86916909Y-46198988D01*
X87161212Y-45833363D01*
X87194073Y-45668161D01*
X87215088Y-45699612D01*
X87361727Y-45797594D01*
X87534700Y-45832000D01*
X87618517Y-45832000D01*
X87618788Y-45833363D01*
X87863091Y-46198988D01*
X88228716Y-46443291D01*
X88660000Y-46529079D01*
X89091284Y-46443291D01*
X89456909Y-46198988D01*
X89547774Y-46062998D01*
X90724388Y-47239613D01*
X90871027Y-47337594D01*
X91044000Y-47372000D01*
X98890592Y-47372000D01*
X99144676Y-47752265D01*
X99526523Y-48007406D01*
X99976941Y-48097000D01*
X100023059Y-48097000D01*
X100473477Y-48007406D01*
X100855324Y-47752265D01*
X101110465Y-47370418D01*
X101200059Y-46920000D01*
X101110465Y-46469582D01*
X100855324Y-46087735D01*
X100473477Y-45832594D01*
X100023059Y-45743000D01*
X99976941Y-45743000D01*
X99526523Y-45832594D01*
X99144676Y-46087735D01*
X98890592Y-46468000D01*
X94047064Y-46468000D01*
X94171284Y-46443291D01*
X94536909Y-46198988D01*
X94781212Y-45833363D01*
X94781483Y-45832000D01*
X94865300Y-45832000D01*
X95038273Y-45797594D01*
X95184912Y-45699612D01*
X97082525Y-43802000D01*
X102712577Y-43802000D01*
X102681012Y-43823091D01*
X102436709Y-44188716D01*
X102350921Y-44620000D01*
X102436709Y-45051284D01*
X102681012Y-45416909D01*
X103046637Y-45661212D01*
X103477921Y-45747000D01*
X103522079Y-45747000D01*
X103953363Y-45661212D01*
X104318988Y-45416909D01*
X104563291Y-45051284D01*
X104649079Y-44620000D01*
X104563291Y-44188716D01*
X104318988Y-43823091D01*
X104287423Y-43802000D01*
X112713476Y-43802000D01*
X108400876Y-48114600D01*
X104082987Y-48114600D01*
X104318988Y-47956909D01*
X104563291Y-47591284D01*
X104649079Y-47160000D01*
X104563291Y-46728716D01*
X104318988Y-46363091D01*
X103953363Y-46118788D01*
X103522079Y-46033000D01*
X103477921Y-46033000D01*
X103046637Y-46118788D01*
X102681012Y-46363091D01*
X102436709Y-46728716D01*
X102350921Y-47160000D01*
X102436709Y-47591284D01*
X102681012Y-47956909D01*
X102917013Y-48114600D01*
X102068700Y-48114600D01*
X101895727Y-48149006D01*
X101749087Y-48246988D01*
X101060809Y-48935267D01*
X100855324Y-48627735D01*
X100473477Y-48372594D01*
X100023059Y-48283000D01*
X99976941Y-48283000D01*
X99526523Y-48372594D01*
X99144676Y-48627735D01*
X98889535Y-49009582D01*
X98799941Y-49460000D01*
X98889535Y-49910418D01*
X99144676Y-50292265D01*
X99256825Y-50367200D01*
X82032128Y-50367200D01*
X81953031Y-50287965D01*
X81722665Y-50192309D01*
X81473229Y-50192091D01*
X81242697Y-50287345D01*
X81066165Y-50463569D01*
X80970509Y-50693935D01*
X80970291Y-50943371D01*
X81065545Y-51173903D01*
X81241769Y-51350435D01*
X81472135Y-51446091D01*
X81721571Y-51446309D01*
X81952103Y-51351055D01*
X82032098Y-51271200D01*
X98816594Y-51271200D01*
X98816594Y-52850000D01*
X98839395Y-52971179D01*
X98911012Y-53082474D01*
X99020286Y-53157138D01*
X99150000Y-53183406D01*
X100850000Y-53183406D01*
X100971179Y-53160605D01*
X101082474Y-53088988D01*
X101157138Y-52979714D01*
X101183406Y-52850000D01*
X101183406Y-51271200D01*
X101817225Y-51271200D01*
X101878427Y-51312094D01*
X102051400Y-51346500D01*
X102825571Y-51346500D01*
X102681012Y-51443091D01*
X102436709Y-51808716D01*
X102350921Y-52240000D01*
X102436709Y-52671284D01*
X102681012Y-53036909D01*
X102780448Y-53103350D01*
X102650188Y-53190387D01*
X102167276Y-53673300D01*
X94978448Y-53673300D01*
X95131914Y-53349041D01*
X95010629Y-53127000D01*
X93867000Y-53127000D01*
X93867000Y-53147000D01*
X93613000Y-53147000D01*
X93613000Y-53127000D01*
X93593000Y-53127000D01*
X93593000Y-52873000D01*
X93613000Y-52873000D01*
X93613000Y-51730085D01*
X93867000Y-51730085D01*
X93867000Y-52873000D01*
X95010629Y-52873000D01*
X95131914Y-52650959D01*
X94892389Y-52144866D01*
X94477423Y-51768959D01*
X94089039Y-51608096D01*
X93867000Y-51730085D01*
X93613000Y-51730085D01*
X93390961Y-51608096D01*
X93002577Y-51768959D01*
X92587611Y-52144866D01*
X92348086Y-52650959D01*
X92469370Y-52872998D01*
X92306129Y-52872998D01*
X92241212Y-52546637D01*
X91996909Y-52181012D01*
X91631284Y-51936709D01*
X91200000Y-51850921D01*
X90768716Y-51936709D01*
X90403091Y-52181012D01*
X90158788Y-52546637D01*
X90073000Y-52977921D01*
X90073000Y-53022079D01*
X90158788Y-53453363D01*
X90403091Y-53818988D01*
X90768716Y-54063291D01*
X91200000Y-54149079D01*
X91625264Y-54064488D01*
X91786875Y-54226100D01*
X83749325Y-54226100D01*
X83656990Y-54133765D01*
X84011284Y-54063291D01*
X84376909Y-53818988D01*
X84621212Y-53453363D01*
X84707000Y-53022079D01*
X84707000Y-52977921D01*
X84993000Y-52977921D01*
X84993000Y-53022079D01*
X85078788Y-53453363D01*
X85323091Y-53818988D01*
X85688716Y-54063291D01*
X86120000Y-54149079D01*
X86551284Y-54063291D01*
X86916909Y-53818988D01*
X87161212Y-53453363D01*
X87247000Y-53022079D01*
X87247000Y-52977921D01*
X87533000Y-52977921D01*
X87533000Y-53022079D01*
X87618788Y-53453363D01*
X87863091Y-53818988D01*
X88228716Y-54063291D01*
X88660000Y-54149079D01*
X89091284Y-54063291D01*
X89456909Y-53818988D01*
X89701212Y-53453363D01*
X89787000Y-53022079D01*
X89787000Y-52977921D01*
X89701212Y-52546637D01*
X89456909Y-52181012D01*
X89091284Y-51936709D01*
X88660000Y-51850921D01*
X88228716Y-51936709D01*
X87863091Y-52181012D01*
X87618788Y-52546637D01*
X87533000Y-52977921D01*
X87247000Y-52977921D01*
X87161212Y-52546637D01*
X86916909Y-52181012D01*
X86551284Y-51936709D01*
X86120000Y-51850921D01*
X85688716Y-51936709D01*
X85323091Y-52181012D01*
X85078788Y-52546637D01*
X84993000Y-52977921D01*
X84707000Y-52977921D01*
X84621212Y-52546637D01*
X84376909Y-52181012D01*
X84011284Y-51936709D01*
X83580000Y-51850921D01*
X83148716Y-51936709D01*
X82783091Y-52181012D01*
X82538788Y-52546637D01*
X82505927Y-52711839D01*
X82484912Y-52680388D01*
X82338273Y-52582406D01*
X82165300Y-52548000D01*
X82081483Y-52548000D01*
X82081212Y-52546637D01*
X81836909Y-52181012D01*
X81471284Y-51936709D01*
X81040000Y-51850921D01*
X80608716Y-51936709D01*
X80243091Y-52181012D01*
X79998788Y-52546637D01*
X79998517Y-52548000D01*
X79633406Y-52548000D01*
X79633406Y-52200000D01*
X79610605Y-52078821D01*
X79538988Y-51967526D01*
X79429714Y-51892862D01*
X79300000Y-51866594D01*
X77700000Y-51866594D01*
X77578821Y-51889395D01*
X77467526Y-51961012D01*
X77392862Y-52070286D01*
X77366594Y-52200000D01*
X77366594Y-53800000D01*
X77389395Y-53921179D01*
X77461012Y-54032474D01*
X77570286Y-54107138D01*
X77700000Y-54133406D01*
X79300000Y-54133406D01*
X79421179Y-54110605D01*
X79532474Y-54038988D01*
X79607138Y-53929714D01*
X79633406Y-53800000D01*
X79633406Y-53452000D01*
X79998517Y-53452000D01*
X79998788Y-53453363D01*
X80243091Y-53818988D01*
X80608716Y-54063291D01*
X81040000Y-54149079D01*
X81471284Y-54063291D01*
X81836909Y-53818988D01*
X81927774Y-53682998D01*
X83073375Y-54828600D01*
X77753124Y-54828600D01*
X76253912Y-53329388D01*
X76107273Y-53231406D01*
X75934300Y-53197000D01*
X73771133Y-53197000D01*
X73828139Y-53007745D01*
X73000000Y-52179605D01*
X72171861Y-53007745D01*
X72228867Y-53197000D01*
X69819395Y-53197000D01*
X70058988Y-53036909D01*
X70303291Y-52671284D01*
X70389079Y-52240000D01*
X70303291Y-51808716D01*
X70286258Y-51783223D01*
X71553035Y-51783223D01*
X71580222Y-52353454D01*
X71746136Y-52754005D01*
X71992255Y-52828139D01*
X72820395Y-52000000D01*
X73179605Y-52000000D01*
X74007745Y-52828139D01*
X74253864Y-52754005D01*
X74446965Y-52216777D01*
X74419778Y-51646546D01*
X74253864Y-51245995D01*
X74007745Y-51171861D01*
X73179605Y-52000000D01*
X72820395Y-52000000D01*
X71992255Y-51171861D01*
X71746136Y-51245995D01*
X71553035Y-51783223D01*
X70286258Y-51783223D01*
X70058988Y-51443091D01*
X69693363Y-51198788D01*
X69262079Y-51113000D01*
X69217921Y-51113000D01*
X68786637Y-51198788D01*
X68421012Y-51443091D01*
X68176709Y-51808716D01*
X68090921Y-52240000D01*
X68176709Y-52671284D01*
X68421012Y-53036909D01*
X68660605Y-53197000D01*
X56256300Y-53197000D01*
X56083327Y-53231406D01*
X55936688Y-53329387D01*
X55004839Y-54261237D01*
X54818988Y-53983091D01*
X54453363Y-53738788D01*
X54022079Y-53653000D01*
X53977921Y-53653000D01*
X53546637Y-53738788D01*
X53181012Y-53983091D01*
X52936709Y-54348716D01*
X52850921Y-54780000D01*
X50627000Y-54780000D01*
X50627000Y-52240000D01*
X52850921Y-52240000D01*
X52936709Y-52671284D01*
X53181012Y-53036909D01*
X53546637Y-53281212D01*
X53977921Y-53367000D01*
X54022079Y-53367000D01*
X54453363Y-53281212D01*
X54818988Y-53036909D01*
X55063291Y-52671284D01*
X55149079Y-52240000D01*
X55063291Y-51808716D01*
X54818988Y-51443091D01*
X54453363Y-51198788D01*
X54022079Y-51113000D01*
X53977921Y-51113000D01*
X53546637Y-51198788D01*
X53181012Y-51443091D01*
X52936709Y-51808716D01*
X52850921Y-52240000D01*
X50627000Y-52240000D01*
X50627000Y-50992255D01*
X72171861Y-50992255D01*
X73000000Y-51820395D01*
X73828139Y-50992255D01*
X73754005Y-50746136D01*
X73216777Y-50553035D01*
X72646546Y-50580222D01*
X72245995Y-50746136D01*
X72171861Y-50992255D01*
X50627000Y-50992255D01*
X50627000Y-49700000D01*
X52850921Y-49700000D01*
X52936709Y-50131284D01*
X53181012Y-50496909D01*
X53546637Y-50741212D01*
X53977921Y-50827000D01*
X54022079Y-50827000D01*
X54453363Y-50741212D01*
X54818988Y-50496909D01*
X55063291Y-50131284D01*
X55149079Y-49700000D01*
X68090921Y-49700000D01*
X68176709Y-50131284D01*
X68421012Y-50496909D01*
X68786637Y-50741212D01*
X69217921Y-50827000D01*
X69262079Y-50827000D01*
X69693363Y-50741212D01*
X70058988Y-50496909D01*
X70303291Y-50131284D01*
X70389079Y-49700000D01*
X70303291Y-49268716D01*
X70058988Y-48903091D01*
X69693363Y-48658788D01*
X69262079Y-48573000D01*
X69217921Y-48573000D01*
X68786637Y-48658788D01*
X68421012Y-48903091D01*
X68176709Y-49268716D01*
X68090921Y-49700000D01*
X55149079Y-49700000D01*
X55063291Y-49268716D01*
X54818988Y-48903091D01*
X54453363Y-48658788D01*
X54022079Y-48573000D01*
X53977921Y-48573000D01*
X53546637Y-48658788D01*
X53181012Y-48903091D01*
X52936709Y-49268716D01*
X52850921Y-49700000D01*
X50627000Y-49700000D01*
X50627000Y-47160000D01*
X52850921Y-47160000D01*
X52936709Y-47591284D01*
X53181012Y-47956909D01*
X53546637Y-48201212D01*
X53977921Y-48287000D01*
X54022079Y-48287000D01*
X54453363Y-48201212D01*
X54818988Y-47956909D01*
X55063291Y-47591284D01*
X55149079Y-47160000D01*
X68090921Y-47160000D01*
X68176709Y-47591284D01*
X68421012Y-47956909D01*
X68786637Y-48201212D01*
X69217921Y-48287000D01*
X69262079Y-48287000D01*
X69693363Y-48201212D01*
X70058988Y-47956909D01*
X70303291Y-47591284D01*
X70389079Y-47160000D01*
X70303291Y-46728716D01*
X70058988Y-46363091D01*
X69693363Y-46118788D01*
X69262079Y-46033000D01*
X69217921Y-46033000D01*
X68786637Y-46118788D01*
X68421012Y-46363091D01*
X68176709Y-46728716D01*
X68090921Y-47160000D01*
X55149079Y-47160000D01*
X55063291Y-46728716D01*
X54818988Y-46363091D01*
X54453363Y-46118788D01*
X54022079Y-46033000D01*
X53977921Y-46033000D01*
X53546637Y-46118788D01*
X53181012Y-46363091D01*
X52936709Y-46728716D01*
X52850921Y-47160000D01*
X50627000Y-47160000D01*
X50627000Y-44620000D01*
X52850921Y-44620000D01*
X52936709Y-45051284D01*
X53181012Y-45416909D01*
X53546637Y-45661212D01*
X53977921Y-45747000D01*
X54022079Y-45747000D01*
X54453363Y-45661212D01*
X54818988Y-45416909D01*
X55063291Y-45051284D01*
X55149079Y-44620000D01*
X68090921Y-44620000D01*
X68176709Y-45051284D01*
X68421012Y-45416909D01*
X68786637Y-45661212D01*
X69217921Y-45747000D01*
X69262079Y-45747000D01*
X69693363Y-45661212D01*
X70058988Y-45416909D01*
X70303291Y-45051284D01*
X70389079Y-44620000D01*
X70303291Y-44188716D01*
X70058988Y-43823091D01*
X69693363Y-43578788D01*
X69262079Y-43493000D01*
X69217921Y-43493000D01*
X68786637Y-43578788D01*
X68421012Y-43823091D01*
X68176709Y-44188716D01*
X68090921Y-44620000D01*
X55149079Y-44620000D01*
X55063291Y-44188716D01*
X54818988Y-43823091D01*
X54453363Y-43578788D01*
X54022079Y-43493000D01*
X53977921Y-43493000D01*
X53546637Y-43578788D01*
X53181012Y-43823091D01*
X52936709Y-44188716D01*
X52850921Y-44620000D01*
X50627000Y-44620000D01*
X50627000Y-42080000D01*
X52850921Y-42080000D01*
X52936709Y-42511284D01*
X53181012Y-42876909D01*
X53546637Y-43121212D01*
X53977921Y-43207000D01*
X54022079Y-43207000D01*
X54453363Y-43121212D01*
X54818988Y-42876909D01*
X55063291Y-42511284D01*
X55149079Y-42080000D01*
X68090921Y-42080000D01*
X68176709Y-42511284D01*
X68421012Y-42876909D01*
X68786637Y-43121212D01*
X69217921Y-43207000D01*
X69262079Y-43207000D01*
X69693363Y-43121212D01*
X70058988Y-42876909D01*
X70303291Y-42511284D01*
X70389079Y-42080000D01*
X70303291Y-41648716D01*
X70058988Y-41283091D01*
X69693363Y-41038788D01*
X69262079Y-40953000D01*
X69217921Y-40953000D01*
X68786637Y-41038788D01*
X68421012Y-41283091D01*
X68176709Y-41648716D01*
X68090921Y-42080000D01*
X55149079Y-42080000D01*
X55063291Y-41648716D01*
X54818988Y-41283091D01*
X54453363Y-41038788D01*
X54022079Y-40953000D01*
X53977921Y-40953000D01*
X53546637Y-41038788D01*
X53181012Y-41283091D01*
X52936709Y-41648716D01*
X52850921Y-42080000D01*
X50627000Y-42080000D01*
X50627000Y-37285750D01*
X52565000Y-37285750D01*
X52565000Y-37926310D01*
X52661673Y-38159699D01*
X52840302Y-38338327D01*
X53073691Y-38435000D01*
X53714250Y-38435000D01*
X53872998Y-38276252D01*
X53872998Y-38433871D01*
X53546637Y-38498788D01*
X53181012Y-38743091D01*
X52936709Y-39108716D01*
X52850921Y-39540000D01*
X52936709Y-39971284D01*
X53181012Y-40336909D01*
X53546637Y-40581212D01*
X53977921Y-40667000D01*
X54022079Y-40667000D01*
X54453363Y-40581212D01*
X54818988Y-40336909D01*
X54965927Y-40117000D01*
X55250295Y-40117000D01*
X55250300Y-40117001D01*
X55471108Y-40073078D01*
X55658301Y-39948001D01*
X56739701Y-38866600D01*
X68338486Y-38866600D01*
X68176709Y-39108716D01*
X68090921Y-39540000D01*
X68176709Y-39971284D01*
X68421012Y-40336909D01*
X68786637Y-40581212D01*
X69217921Y-40667000D01*
X69262079Y-40667000D01*
X69693363Y-40581212D01*
X70058988Y-40336909D01*
X70094859Y-40283223D01*
X70553035Y-40283223D01*
X70580222Y-40853454D01*
X70746136Y-41254005D01*
X70992255Y-41328139D01*
X71820395Y-40500000D01*
X70992255Y-39671861D01*
X70746136Y-39745995D01*
X70553035Y-40283223D01*
X70094859Y-40283223D01*
X70303291Y-39971284D01*
X70389079Y-39540000D01*
X70303291Y-39108716D01*
X70141514Y-38866600D01*
X71760998Y-38866600D01*
X71959690Y-39065292D01*
X71646546Y-39080222D01*
X71245995Y-39246136D01*
X71171861Y-39492255D01*
X72000000Y-40320395D01*
X72014142Y-40306252D01*
X72193748Y-40485858D01*
X72179605Y-40500000D01*
X72193748Y-40514142D01*
X72014142Y-40693748D01*
X72000000Y-40679605D01*
X71171861Y-41507745D01*
X71245995Y-41753864D01*
X71783223Y-41946965D01*
X72353454Y-41919778D01*
X72679200Y-41784849D01*
X72679200Y-45913136D01*
X72362440Y-46044019D01*
X72045133Y-46360772D01*
X71873196Y-46774842D01*
X71872805Y-47223191D01*
X72044019Y-47637560D01*
X72360772Y-47954867D01*
X72774842Y-48126804D01*
X73223191Y-48127195D01*
X73637560Y-47955981D01*
X73954867Y-47639228D01*
X74126804Y-47225158D01*
X74127195Y-46776809D01*
X73955981Y-46362440D01*
X73833200Y-46239444D01*
X73833200Y-45357921D01*
X77373000Y-45357921D01*
X77373000Y-45402079D01*
X77458788Y-45833363D01*
X77703091Y-46198988D01*
X78068716Y-46443291D01*
X78500000Y-46529079D01*
X78931284Y-46443291D01*
X79296909Y-46198988D01*
X79541212Y-45833363D01*
X79627000Y-45402079D01*
X79627000Y-45357921D01*
X79913000Y-45357921D01*
X79913000Y-45402079D01*
X79998788Y-45833363D01*
X80243091Y-46198988D01*
X80608716Y-46443291D01*
X81040000Y-46529079D01*
X81471284Y-46443291D01*
X81836909Y-46198988D01*
X82081212Y-45833363D01*
X82167000Y-45402079D01*
X82167000Y-45357921D01*
X82081212Y-44926637D01*
X81836909Y-44561012D01*
X81471284Y-44316709D01*
X81040000Y-44230921D01*
X80608716Y-44316709D01*
X80243091Y-44561012D01*
X79998788Y-44926637D01*
X79913000Y-45357921D01*
X79627000Y-45357921D01*
X79541212Y-44926637D01*
X79296909Y-44561012D01*
X78931284Y-44316709D01*
X78500000Y-44230921D01*
X78068716Y-44316709D01*
X77703091Y-44561012D01*
X77458788Y-44926637D01*
X77373000Y-45357921D01*
X73833200Y-45357921D01*
X73833200Y-39545800D01*
X73789278Y-39324992D01*
X73664201Y-39137799D01*
X72577000Y-38050598D01*
X72577000Y-36481004D01*
X72637560Y-36455981D01*
X72954867Y-36139228D01*
X72980706Y-36077000D01*
X73129695Y-36077000D01*
X73129700Y-36077001D01*
X73350508Y-36033078D01*
X73537701Y-35908001D01*
X74988702Y-34457000D01*
X75041400Y-34457000D01*
X75203091Y-34698988D01*
X75568716Y-34943291D01*
X76000000Y-35029079D01*
X76431284Y-34943291D01*
X76796909Y-34698988D01*
X76958600Y-34457000D01*
X77250300Y-34457000D01*
X77471108Y-34413078D01*
X77527068Y-34375687D01*
X77743091Y-34698988D01*
X78108716Y-34943291D01*
X78540000Y-35029079D01*
X78971284Y-34943291D01*
X79336909Y-34698988D01*
X79581212Y-34333363D01*
X79667000Y-33902079D01*
X79667000Y-33857921D01*
X79953000Y-33857921D01*
X79953000Y-33902079D01*
X80038788Y-34333363D01*
X80283091Y-34698988D01*
X80648716Y-34943291D01*
X81080000Y-35029079D01*
X81511284Y-34943291D01*
X81876909Y-34698988D01*
X82121212Y-34333363D01*
X82207000Y-33902079D01*
X82207000Y-33857921D01*
X82493000Y-33857921D01*
X82493000Y-33902079D01*
X82578788Y-34333363D01*
X82823091Y-34698988D01*
X83188716Y-34943291D01*
X83620000Y-35029079D01*
X84051284Y-34943291D01*
X84416909Y-34698988D01*
X84661212Y-34333363D01*
X84747000Y-33902079D01*
X84747000Y-33857921D01*
X85033000Y-33857921D01*
X85033000Y-33902079D01*
X85118788Y-34333363D01*
X85363091Y-34698988D01*
X85728716Y-34943291D01*
X86160000Y-35029079D01*
X86591284Y-34943291D01*
X86956909Y-34698988D01*
X87201212Y-34333363D01*
X87287000Y-33902079D01*
X87287000Y-33857921D01*
X87573000Y-33857921D01*
X87573000Y-33902079D01*
X87658788Y-34333363D01*
X87903091Y-34698988D01*
X88268716Y-34943291D01*
X88700000Y-35029079D01*
X89131284Y-34943291D01*
X89496909Y-34698988D01*
X89741212Y-34333363D01*
X89827000Y-33902079D01*
X89827000Y-33857921D01*
X90113000Y-33857921D01*
X90113000Y-33902079D01*
X90198788Y-34333363D01*
X90443091Y-34698988D01*
X90808716Y-34943291D01*
X91240000Y-35029079D01*
X91671284Y-34943291D01*
X92036909Y-34698988D01*
X92281212Y-34333363D01*
X92367000Y-33902079D01*
X92367000Y-33857921D01*
X92653000Y-33857921D01*
X92653000Y-33902079D01*
X92738788Y-34333363D01*
X92983091Y-34698988D01*
X93348716Y-34943291D01*
X93780000Y-35029079D01*
X94211284Y-34943291D01*
X94576909Y-34698988D01*
X94821212Y-34333363D01*
X94907000Y-33902079D01*
X94907000Y-33857921D01*
X95193000Y-33857921D01*
X95193000Y-33902079D01*
X95278788Y-34333363D01*
X95523091Y-34698988D01*
X95888716Y-34943291D01*
X96320000Y-35029079D01*
X96751284Y-34943291D01*
X97116909Y-34698988D01*
X97361212Y-34333363D01*
X97447000Y-33902079D01*
X97447000Y-33857921D01*
X97361212Y-33426637D01*
X97116909Y-33061012D01*
X96751284Y-32816709D01*
X96320000Y-32730921D01*
X95888716Y-32816709D01*
X95523091Y-33061012D01*
X95278788Y-33426637D01*
X95193000Y-33857921D01*
X94907000Y-33857921D01*
X94821212Y-33426637D01*
X94576909Y-33061012D01*
X94211284Y-32816709D01*
X93780000Y-32730921D01*
X93348716Y-32816709D01*
X92983091Y-33061012D01*
X92738788Y-33426637D01*
X92653000Y-33857921D01*
X92367000Y-33857921D01*
X92281212Y-33426637D01*
X92036909Y-33061012D01*
X91671284Y-32816709D01*
X91240000Y-32730921D01*
X90808716Y-32816709D01*
X90443091Y-33061012D01*
X90198788Y-33426637D01*
X90113000Y-33857921D01*
X89827000Y-33857921D01*
X89741212Y-33426637D01*
X89496909Y-33061012D01*
X89131284Y-32816709D01*
X88700000Y-32730921D01*
X88268716Y-32816709D01*
X87903091Y-33061012D01*
X87658788Y-33426637D01*
X87573000Y-33857921D01*
X87287000Y-33857921D01*
X87201212Y-33426637D01*
X86956909Y-33061012D01*
X86591284Y-32816709D01*
X86160000Y-32730921D01*
X85728716Y-32816709D01*
X85363091Y-33061012D01*
X85118788Y-33426637D01*
X85033000Y-33857921D01*
X84747000Y-33857921D01*
X84661212Y-33426637D01*
X84416909Y-33061012D01*
X84051284Y-32816709D01*
X83620000Y-32730921D01*
X83188716Y-32816709D01*
X82823091Y-33061012D01*
X82578788Y-33426637D01*
X82493000Y-33857921D01*
X82207000Y-33857921D01*
X82121212Y-33426637D01*
X81876909Y-33061012D01*
X81511284Y-32816709D01*
X81080000Y-32730921D01*
X80648716Y-32816709D01*
X80283091Y-33061012D01*
X80038788Y-33426637D01*
X79953000Y-33857921D01*
X79667000Y-33857921D01*
X79581212Y-33426637D01*
X79336909Y-33061012D01*
X78971284Y-32816709D01*
X78649667Y-32752735D01*
X79121902Y-32280500D01*
X103233734Y-32280500D01*
X103053035Y-32783223D01*
X103080222Y-33353454D01*
X103246136Y-33754005D01*
X103492255Y-33828139D01*
X104320395Y-33000000D01*
X104306252Y-32985858D01*
X104485858Y-32806252D01*
X104500000Y-32820395D01*
X104514142Y-32806252D01*
X104693748Y-32985858D01*
X104679605Y-33000000D01*
X105507745Y-33828139D01*
X105753864Y-33754005D01*
X105946965Y-33216777D01*
X105919778Y-32646546D01*
X105768156Y-32280500D01*
X107964498Y-32280500D01*
X108398324Y-32714326D01*
X108373196Y-32774842D01*
X108372805Y-33223191D01*
X108477479Y-33476520D01*
X104801624Y-37152374D01*
X104776250Y-37127000D01*
X103627000Y-37127000D01*
X103627000Y-37147000D01*
X103373000Y-37147000D01*
X103373000Y-37127000D01*
X102223750Y-37127000D01*
X102065000Y-37285750D01*
X102065000Y-37926310D01*
X102161673Y-38159699D01*
X102340302Y-38338327D01*
X102573691Y-38435000D01*
X102923000Y-38435000D01*
X102923000Y-38581400D01*
X102681012Y-38743091D01*
X102436709Y-39108716D01*
X102350921Y-39540000D01*
X102436709Y-39971284D01*
X102681012Y-40336909D01*
X103046637Y-40581212D01*
X103372998Y-40646129D01*
X103372998Y-40809370D01*
X103150959Y-40688086D01*
X102644866Y-40927611D01*
X102268959Y-41342577D01*
X102108096Y-41730961D01*
X102230085Y-41953000D01*
X103373000Y-41953000D01*
X103373000Y-41933000D01*
X103627000Y-41933000D01*
X103627000Y-41953000D01*
X104769915Y-41953000D01*
X104891904Y-41730961D01*
X104731041Y-41342577D01*
X104355134Y-40927611D01*
X103849041Y-40688086D01*
X103627002Y-40809370D01*
X103627002Y-40646129D01*
X103953363Y-40581212D01*
X104318988Y-40336909D01*
X104563291Y-39971284D01*
X104649079Y-39540000D01*
X104563291Y-39108716D01*
X104401581Y-38866700D01*
X104480295Y-38866700D01*
X104480300Y-38866701D01*
X104701108Y-38822778D01*
X104888301Y-38697701D01*
X109459036Y-34126965D01*
X109723191Y-34127195D01*
X110137560Y-33955981D01*
X110454867Y-33639228D01*
X110626804Y-33225158D01*
X110627195Y-32776809D01*
X110455981Y-32362440D01*
X110139228Y-32045133D01*
X109725158Y-31873196D01*
X109276809Y-31872805D01*
X109214537Y-31898535D01*
X108611501Y-31295499D01*
X108424308Y-31170422D01*
X108203500Y-31126499D01*
X108203495Y-31126500D01*
X78882905Y-31126500D01*
X78882900Y-31126499D01*
X78662092Y-31170422D01*
X78474899Y-31295499D01*
X76842299Y-32928099D01*
X76766892Y-33040955D01*
X76431284Y-32816709D01*
X76000000Y-32730921D01*
X75568716Y-32816709D01*
X75203091Y-33061012D01*
X75041400Y-33303000D01*
X74749705Y-33303000D01*
X74749700Y-33302999D01*
X74528892Y-33346922D01*
X74341699Y-33471999D01*
X72953622Y-34860076D01*
X72639228Y-34545133D01*
X72225158Y-34373196D01*
X71776809Y-34372805D01*
X71362440Y-34544019D01*
X71045133Y-34860772D01*
X70873196Y-35274842D01*
X70872805Y-35723191D01*
X71044019Y-36137560D01*
X71360772Y-36454867D01*
X71423000Y-36480706D01*
X71423000Y-37712600D01*
X70115322Y-37712600D01*
X70303291Y-37431284D01*
X70389079Y-37000000D01*
X70303291Y-36568716D01*
X70058988Y-36203091D01*
X69693363Y-35958788D01*
X69262079Y-35873000D01*
X69217921Y-35873000D01*
X68786637Y-35958788D01*
X68421012Y-36203091D01*
X68176709Y-36568716D01*
X68090921Y-37000000D01*
X68176709Y-37431284D01*
X68364678Y-37712600D01*
X56500705Y-37712600D01*
X56500700Y-37712599D01*
X56279892Y-37756522D01*
X56092699Y-37881599D01*
X56092697Y-37881602D01*
X55011298Y-38963000D01*
X54965927Y-38963000D01*
X54818988Y-38743091D01*
X54453363Y-38498788D01*
X54127002Y-38433871D01*
X54127002Y-38276252D01*
X54285750Y-38435000D01*
X54926309Y-38435000D01*
X55159698Y-38338327D01*
X55338327Y-38159699D01*
X55435000Y-37926310D01*
X55435000Y-37285750D01*
X55276250Y-37127000D01*
X54127000Y-37127000D01*
X54127000Y-37147000D01*
X53873000Y-37147000D01*
X53873000Y-37127000D01*
X52723750Y-37127000D01*
X52565000Y-37285750D01*
X50627000Y-37285750D01*
X50627000Y-36073690D01*
X52565000Y-36073690D01*
X52565000Y-36714250D01*
X52723750Y-36873000D01*
X53873000Y-36873000D01*
X53873000Y-35723750D01*
X54127000Y-35723750D01*
X54127000Y-36873000D01*
X55276250Y-36873000D01*
X55435000Y-36714250D01*
X55435000Y-36073690D01*
X55338327Y-35840301D01*
X55159698Y-35661673D01*
X54926309Y-35565000D01*
X54285750Y-35565000D01*
X54127000Y-35723750D01*
X53873000Y-35723750D01*
X53714250Y-35565000D01*
X53073691Y-35565000D01*
X52840302Y-35661673D01*
X52661673Y-35840301D01*
X52565000Y-36073690D01*
X50627000Y-36073690D01*
X50627000Y-30627000D01*
X121373000Y-30627000D01*
X121373000Y-76373000D01*
X121373000Y-76373000D01*
G37*
X121373000Y-76373000D02*
X97514680Y-76373000D01*
X97857423Y-76231041D01*
X98272389Y-75855134D01*
X98511914Y-75349041D01*
X98390629Y-75127000D01*
X97247000Y-75127000D01*
X97247000Y-75147000D01*
X96993000Y-75147000D01*
X96993000Y-75127000D01*
X96973000Y-75127000D01*
X96973000Y-74873000D01*
X96993000Y-74873000D01*
X96993000Y-73730085D01*
X97247000Y-73730085D01*
X97247000Y-74873000D01*
X98390629Y-74873000D01*
X98511914Y-74650959D01*
X98272389Y-74144866D01*
X97857423Y-73768959D01*
X97469039Y-73608096D01*
X97247000Y-73730085D01*
X96993000Y-73730085D01*
X96770961Y-73608096D01*
X96382577Y-73768959D01*
X95967611Y-74144866D01*
X95728086Y-74650959D01*
X95849370Y-74872998D01*
X95686129Y-74872998D01*
X95621212Y-74546637D01*
X95376909Y-74181012D01*
X95011284Y-73936709D01*
X94580000Y-73850921D01*
X94148716Y-73936709D01*
X93783091Y-74181012D01*
X93538788Y-74546637D01*
X93453000Y-74977921D01*
X93453000Y-75022079D01*
X93538788Y-75453363D01*
X93783091Y-75818988D01*
X94148716Y-76063291D01*
X94580000Y-76149079D01*
X95011284Y-76063291D01*
X95376909Y-75818988D01*
X95621212Y-75453363D01*
X95686129Y-75127002D01*
X95849370Y-75127002D01*
X95728086Y-75349041D01*
X95967611Y-75855134D01*
X96382577Y-76231041D01*
X96725320Y-76373000D01*
X50627000Y-76373000D01*
X50627000Y-75507745D01*
X68171861Y-75507745D01*
X68245995Y-75753864D01*
X68783223Y-75946965D01*
X69353454Y-75919778D01*
X69754005Y-75753864D01*
X69828139Y-75507745D01*
X69000000Y-74679605D01*
X68171861Y-75507745D01*
X50627000Y-75507745D01*
X50627000Y-74283223D01*
X67553035Y-74283223D01*
X67580222Y-74853454D01*
X67746136Y-75254005D01*
X67992255Y-75328139D01*
X68820395Y-74500000D01*
X69179605Y-74500000D01*
X70007745Y-75328139D01*
X70253864Y-75254005D01*
X70446965Y-74716777D01*
X70436999Y-74507745D01*
X85171861Y-74507745D01*
X85245995Y-74753864D01*
X85783223Y-74946965D01*
X86353454Y-74919778D01*
X86754005Y-74753864D01*
X86828139Y-74507745D01*
X86000000Y-73679605D01*
X85171861Y-74507745D01*
X70436999Y-74507745D01*
X70419778Y-74146546D01*
X70253864Y-73745995D01*
X70007745Y-73671861D01*
X69179605Y-74500000D01*
X68820395Y-74500000D01*
X67992255Y-73671861D01*
X67746136Y-73745995D01*
X67553035Y-74283223D01*
X50627000Y-74283223D01*
X50627000Y-73492255D01*
X68171861Y-73492255D01*
X69000000Y-74320395D01*
X69828139Y-73492255D01*
X69765177Y-73283223D01*
X84553035Y-73283223D01*
X84580222Y-73853454D01*
X84746136Y-74254005D01*
X84992255Y-74328139D01*
X85820395Y-73500000D01*
X86179605Y-73500000D01*
X87007745Y-74328139D01*
X87253864Y-74254005D01*
X87273275Y-74200000D01*
X88366594Y-74200000D01*
X88366594Y-75800000D01*
X88389395Y-75921179D01*
X88461012Y-76032474D01*
X88570286Y-76107138D01*
X88700000Y-76133406D01*
X90300000Y-76133406D01*
X90421179Y-76110605D01*
X90532474Y-76038988D01*
X90607138Y-75929714D01*
X90633406Y-75800000D01*
X90633406Y-74977921D01*
X90913000Y-74977921D01*
X90913000Y-75022079D01*
X90998788Y-75453363D01*
X91243091Y-75818988D01*
X91608716Y-76063291D01*
X92040000Y-76149079D01*
X92471284Y-76063291D01*
X92836909Y-75818988D01*
X93081212Y-75453363D01*
X93167000Y-75022079D01*
X93167000Y-74977921D01*
X93081212Y-74546637D01*
X92836909Y-74181012D01*
X92471284Y-73936709D01*
X92040000Y-73850921D01*
X91608716Y-73936709D01*
X91243091Y-74181012D01*
X90998788Y-74546637D01*
X90913000Y-74977921D01*
X90633406Y-74977921D01*
X90633406Y-74200000D01*
X90610605Y-74078821D01*
X90538988Y-73967526D01*
X90429714Y-73892862D01*
X90300000Y-73866594D01*
X88700000Y-73866594D01*
X88578821Y-73889395D01*
X88467526Y-73961012D01*
X88392862Y-74070286D01*
X88366594Y-74200000D01*
X87273275Y-74200000D01*
X87446965Y-73716777D01*
X87438537Y-73540000D01*
X110799941Y-73540000D01*
X110889535Y-73990418D01*
X111144676Y-74372265D01*
X111526523Y-74627406D01*
X111976941Y-74717000D01*
X112023059Y-74717000D01*
X112473477Y-74627406D01*
X112855324Y-74372265D01*
X113110465Y-73990418D01*
X113200059Y-73540000D01*
X113110465Y-73089582D01*
X112855324Y-72707735D01*
X112473477Y-72452594D01*
X112023059Y-72363000D01*
X111976941Y-72363000D01*
X111526523Y-72452594D01*
X111144676Y-72707735D01*
X110889535Y-73089582D01*
X110799941Y-73540000D01*
X87438537Y-73540000D01*
X87419778Y-73146546D01*
X87253864Y-72745995D01*
X87007745Y-72671861D01*
X86179605Y-73500000D01*
X85820395Y-73500000D01*
X84992255Y-72671861D01*
X84746136Y-72745995D01*
X84553035Y-73283223D01*
X69765177Y-73283223D01*
X69754005Y-73246136D01*
X69216777Y-73053035D01*
X68646546Y-73080222D01*
X68245995Y-73246136D01*
X68171861Y-73492255D01*
X50627000Y-73492255D01*
X50627000Y-72735750D01*
X62415000Y-72735750D01*
X62415000Y-72976310D01*
X62511673Y-73209699D01*
X62690302Y-73388327D01*
X62923691Y-73485000D01*
X63214250Y-73485000D01*
X63373000Y-73326250D01*
X63373000Y-72577000D01*
X63627000Y-72577000D01*
X63627000Y-73326250D01*
X63785750Y-73485000D01*
X64076309Y-73485000D01*
X64309698Y-73388327D01*
X64488327Y-73209699D01*
X64585000Y-72976310D01*
X64585000Y-72735750D01*
X64426250Y-72577000D01*
X63627000Y-72577000D01*
X63373000Y-72577000D01*
X62573750Y-72577000D01*
X62415000Y-72735750D01*
X50627000Y-72735750D01*
X50627000Y-72492255D01*
X85171861Y-72492255D01*
X86000000Y-73320395D01*
X86828139Y-72492255D01*
X86754005Y-72246136D01*
X86216777Y-72053035D01*
X85646546Y-72080222D01*
X85245995Y-72246136D01*
X85171861Y-72492255D01*
X50627000Y-72492255D01*
X50627000Y-54780000D01*
X52850921Y-54780000D01*
X52936709Y-55211284D01*
X53181012Y-55576909D01*
X53546637Y-55821212D01*
X53977921Y-55907000D01*
X54022079Y-55907000D01*
X54453363Y-55821212D01*
X54818988Y-55576909D01*
X55049449Y-55232000D01*
X55125300Y-55232000D01*
X55298273Y-55197594D01*
X55444912Y-55099612D01*
X56443525Y-54101000D01*
X68342228Y-54101000D01*
X68176709Y-54348716D01*
X68090921Y-54780000D01*
X68176709Y-55211284D01*
X68421012Y-55576909D01*
X68786637Y-55821212D01*
X69217921Y-55907000D01*
X69262079Y-55907000D01*
X69693363Y-55821212D01*
X70058988Y-55576909D01*
X70303291Y-55211284D01*
X70389079Y-54780000D01*
X70303291Y-54348716D01*
X70137772Y-54101000D01*
X75747076Y-54101000D01*
X76651276Y-55005200D01*
X72228100Y-55005200D01*
X72007292Y-55049122D01*
X71820099Y-55174199D01*
X71820097Y-55174202D01*
X70251298Y-56743000D01*
X70205927Y-56743000D01*
X70058988Y-56523091D01*
X69693363Y-56278788D01*
X69262079Y-56193000D01*
X69217921Y-56193000D01*
X68786637Y-56278788D01*
X68421012Y-56523091D01*
X68176709Y-56888716D01*
X68090921Y-57320000D01*
X68176709Y-57751284D01*
X68338419Y-57993300D01*
X56437825Y-57993300D01*
X55444912Y-57000388D01*
X55298273Y-56902406D01*
X55125300Y-56868000D01*
X55049449Y-56868000D01*
X54818988Y-56523091D01*
X54453363Y-56278788D01*
X54022079Y-56193000D01*
X53977921Y-56193000D01*
X53546637Y-56278788D01*
X53181012Y-56523091D01*
X52936709Y-56888716D01*
X52850921Y-57320000D01*
X52936709Y-57751284D01*
X53181012Y-58116909D01*
X53546637Y-58361212D01*
X53977921Y-58447000D01*
X54022079Y-58447000D01*
X54453363Y-58361212D01*
X54818988Y-58116909D01*
X55004839Y-57838763D01*
X55930988Y-58764913D01*
X56077627Y-58862894D01*
X56250600Y-58897300D01*
X68669136Y-58897300D01*
X68421012Y-59063091D01*
X68176709Y-59428716D01*
X68090921Y-59860000D01*
X68176709Y-60291284D01*
X68338419Y-60533300D01*
X56437825Y-60533300D01*
X55444912Y-59540388D01*
X55298273Y-59442406D01*
X55125300Y-59408000D01*
X55049449Y-59408000D01*
X54818988Y-59063091D01*
X54453363Y-58818788D01*
X54022079Y-58733000D01*
X53977921Y-58733000D01*
X53546637Y-58818788D01*
X53181012Y-59063091D01*
X52936709Y-59428716D01*
X52850921Y-59860000D01*
X52936709Y-60291284D01*
X53181012Y-60656909D01*
X53546637Y-60901212D01*
X53977921Y-60987000D01*
X54022079Y-60987000D01*
X54453363Y-60901212D01*
X54818988Y-60656909D01*
X55004839Y-60378763D01*
X55930988Y-61304913D01*
X56011618Y-61358788D01*
X56077627Y-61402894D01*
X56250600Y-61437300D01*
X68669136Y-61437300D01*
X68421012Y-61603091D01*
X68176709Y-61968716D01*
X68090921Y-62400000D01*
X68176709Y-62831284D01*
X68354522Y-63097400D01*
X56461924Y-63097400D01*
X55444912Y-62080388D01*
X55298273Y-61982406D01*
X55125300Y-61948000D01*
X55049449Y-61948000D01*
X54818988Y-61603091D01*
X54453363Y-61358788D01*
X54022079Y-61273000D01*
X53977921Y-61273000D01*
X53546637Y-61358788D01*
X53181012Y-61603091D01*
X52936709Y-61968716D01*
X52850921Y-62400000D01*
X52936709Y-62831284D01*
X53181012Y-63196909D01*
X53546637Y-63441212D01*
X53977921Y-63527000D01*
X54022079Y-63527000D01*
X54453363Y-63441212D01*
X54818988Y-63196909D01*
X55004839Y-62918763D01*
X55955088Y-63869012D01*
X56101727Y-63966994D01*
X56274700Y-64001400D01*
X68633067Y-64001400D01*
X68421012Y-64143091D01*
X68176709Y-64508716D01*
X68090921Y-64940000D01*
X68176709Y-65371284D01*
X68338419Y-65613300D01*
X56437825Y-65613300D01*
X55444912Y-64620388D01*
X55298273Y-64522406D01*
X55125300Y-64488000D01*
X55049449Y-64488000D01*
X54818988Y-64143091D01*
X54453363Y-63898788D01*
X54022079Y-63813000D01*
X53977921Y-63813000D01*
X53546637Y-63898788D01*
X53181012Y-64143091D01*
X52936709Y-64508716D01*
X52850921Y-64940000D01*
X52936709Y-65371284D01*
X53181012Y-65736909D01*
X53546637Y-65981212D01*
X53977921Y-66067000D01*
X54022079Y-66067000D01*
X54453363Y-65981212D01*
X54818988Y-65736909D01*
X55004839Y-65458763D01*
X55930988Y-66384913D01*
X56077627Y-66482894D01*
X56250600Y-66517300D01*
X88768511Y-66517300D01*
X88703091Y-66561012D01*
X88541400Y-66803000D01*
X87120000Y-66803000D01*
X86899192Y-66846922D01*
X86711999Y-66971999D01*
X86711997Y-66972002D01*
X86285674Y-67398325D01*
X86225158Y-67373196D01*
X85776809Y-67372805D01*
X85362440Y-67544019D01*
X85045133Y-67860772D01*
X85019294Y-67923000D01*
X70000005Y-67923000D01*
X70000000Y-67922999D01*
X69779192Y-67966922D01*
X69591999Y-68091999D01*
X69591997Y-68092002D01*
X69285674Y-68398325D01*
X69225158Y-68373196D01*
X68776809Y-68372805D01*
X68362440Y-68544019D01*
X68045133Y-68860772D01*
X68019294Y-68923000D01*
X62649700Y-68923000D01*
X62428892Y-68966922D01*
X62241699Y-69091999D01*
X62241697Y-69092002D01*
X61091999Y-70241699D01*
X60966922Y-70428892D01*
X60922999Y-70649700D01*
X60923000Y-70649705D01*
X60923000Y-70793141D01*
X60817526Y-70861012D01*
X60742862Y-70970286D01*
X60716594Y-71100000D01*
X60716594Y-71900000D01*
X60739395Y-72021179D01*
X60811012Y-72132474D01*
X60920286Y-72207138D01*
X61050000Y-72233406D01*
X61950000Y-72233406D01*
X62071179Y-72210605D01*
X62182474Y-72138988D01*
X62257138Y-72029714D01*
X62283406Y-71900000D01*
X62283406Y-71100000D01*
X62260605Y-70978821D01*
X62188988Y-70867526D01*
X62135038Y-70830664D01*
X62716594Y-70249107D01*
X62716594Y-70950000D01*
X62739395Y-71071179D01*
X62811012Y-71182474D01*
X62920286Y-71257138D01*
X63049596Y-71283324D01*
X63075788Y-71415000D01*
X62923691Y-71415000D01*
X62690302Y-71511673D01*
X62511673Y-71690301D01*
X62415000Y-71923690D01*
X62415000Y-72164250D01*
X62573750Y-72323000D01*
X63373000Y-72323000D01*
X63373000Y-72303000D01*
X63627000Y-72303000D01*
X63627000Y-72323000D01*
X64426250Y-72323000D01*
X64585000Y-72164250D01*
X64585000Y-72021100D01*
X109242100Y-72021100D01*
X109415073Y-71986694D01*
X109561712Y-71888712D01*
X110816594Y-70633830D01*
X110816594Y-71850000D01*
X110839395Y-71971179D01*
X110911012Y-72082474D01*
X111020286Y-72157138D01*
X111150000Y-72183406D01*
X112850000Y-72183406D01*
X112971179Y-72160605D01*
X113082474Y-72088988D01*
X113157138Y-71979714D01*
X113183406Y-71850000D01*
X113183406Y-70150000D01*
X113160605Y-70028821D01*
X113088988Y-69917526D01*
X112979714Y-69842862D01*
X112850000Y-69816594D01*
X111633830Y-69816594D01*
X111884024Y-69566400D01*
X116227600Y-69566400D01*
X116400573Y-69531994D01*
X116547212Y-69434012D01*
X120681712Y-65299512D01*
X120779694Y-65152873D01*
X120814100Y-64979900D01*
X120814100Y-44546100D01*
X120779694Y-44373127D01*
X120681713Y-44226488D01*
X119422998Y-42967774D01*
X119558988Y-42876909D01*
X119803291Y-42511284D01*
X119889079Y-42080000D01*
X119803291Y-41648716D01*
X119558988Y-41283091D01*
X119395702Y-41173986D01*
X119462112Y-41129612D01*
X120211212Y-40380513D01*
X120309194Y-40233873D01*
X120309947Y-40230085D01*
X120343600Y-40060900D01*
X120343600Y-39038800D01*
X120309194Y-38865827D01*
X120285522Y-38830400D01*
X120211213Y-38719188D01*
X119550812Y-38058788D01*
X119404173Y-37960806D01*
X119334454Y-37946938D01*
X119558988Y-37796909D01*
X119803291Y-37431284D01*
X119889079Y-37000000D01*
X119803291Y-36568716D01*
X119558988Y-36203091D01*
X119193363Y-35958788D01*
X118762079Y-35873000D01*
X118717921Y-35873000D01*
X118286637Y-35958788D01*
X117921012Y-36203091D01*
X117676709Y-36568716D01*
X117590921Y-37000000D01*
X117676709Y-37431284D01*
X117921012Y-37796909D01*
X118114809Y-37926400D01*
X118101400Y-37926400D01*
X117928427Y-37960806D01*
X117781788Y-38058788D01*
X112942576Y-42898000D01*
X104658048Y-42898000D01*
X104731041Y-42817423D01*
X104891904Y-42429039D01*
X104769915Y-42207000D01*
X103627000Y-42207000D01*
X103627000Y-42227000D01*
X103373000Y-42227000D01*
X103373000Y-42207000D01*
X102230085Y-42207000D01*
X102108096Y-42429039D01*
X102268959Y-42817423D01*
X102341952Y-42898000D01*
X98987002Y-42898000D01*
X98987002Y-42769916D01*
X99209039Y-42891904D01*
X99597423Y-42731041D01*
X100012389Y-42355134D01*
X100251914Y-41849041D01*
X100130629Y-41627000D01*
X98987000Y-41627000D01*
X98987000Y-41647000D01*
X98733000Y-41647000D01*
X98733000Y-41627000D01*
X98713000Y-41627000D01*
X98713000Y-41373000D01*
X98733000Y-41373000D01*
X98733000Y-40230085D01*
X98987000Y-40230085D01*
X98987000Y-41373000D01*
X100130629Y-41373000D01*
X100251914Y-41150959D01*
X100012389Y-40644866D01*
X99597423Y-40268959D01*
X99209039Y-40108096D01*
X98987000Y-40230085D01*
X98733000Y-40230085D01*
X98510961Y-40108096D01*
X98122577Y-40268959D01*
X97707611Y-40644866D01*
X97468086Y-41150959D01*
X97589370Y-41372998D01*
X97426129Y-41372998D01*
X97361212Y-41046637D01*
X97116909Y-40681012D01*
X96751284Y-40436709D01*
X96320000Y-40350921D01*
X95888716Y-40436709D01*
X95523091Y-40681012D01*
X95278788Y-41046637D01*
X95193000Y-41477921D01*
X95193000Y-41522079D01*
X95278788Y-41953363D01*
X95523091Y-42318988D01*
X95888716Y-42563291D01*
X96320000Y-42649079D01*
X96751284Y-42563291D01*
X97116909Y-42318988D01*
X97361212Y-41953363D01*
X97426129Y-41627002D01*
X97589370Y-41627002D01*
X97468086Y-41849041D01*
X97707611Y-42355134D01*
X98122577Y-42731041D01*
X98510961Y-42891904D01*
X98732998Y-42769916D01*
X98732998Y-42898000D01*
X96895300Y-42898000D01*
X96722327Y-42932406D01*
X96575688Y-43030387D01*
X94740447Y-44865629D01*
X94536909Y-44561012D01*
X94171284Y-44316709D01*
X93740000Y-44230921D01*
X93308716Y-44316709D01*
X92943091Y-44561012D01*
X92698788Y-44926637D01*
X92613000Y-45357921D01*
X92613000Y-45402079D01*
X92698788Y-45833363D01*
X92943091Y-46198988D01*
X93308716Y-46443291D01*
X93432936Y-46468000D01*
X91507064Y-46468000D01*
X91631284Y-46443291D01*
X91996909Y-46198988D01*
X92241212Y-45833363D01*
X92327000Y-45402079D01*
X92327000Y-45357921D01*
X92241212Y-44926637D01*
X91996909Y-44561012D01*
X91631284Y-44316709D01*
X91200000Y-44230921D01*
X90768716Y-44316709D01*
X90432990Y-44541034D01*
X92829612Y-42144412D01*
X92848028Y-42116851D01*
X92983091Y-42318988D01*
X93348716Y-42563291D01*
X93780000Y-42649079D01*
X94211284Y-42563291D01*
X94576909Y-42318988D01*
X94821212Y-41953363D01*
X94907000Y-41522079D01*
X94907000Y-41477921D01*
X94821212Y-41046637D01*
X94576909Y-40681012D01*
X94211284Y-40436709D01*
X93856989Y-40366235D01*
X98149534Y-36073690D01*
X102065000Y-36073690D01*
X102065000Y-36714250D01*
X102223750Y-36873000D01*
X103373000Y-36873000D01*
X103373000Y-35723750D01*
X103627000Y-35723750D01*
X103627000Y-36873000D01*
X104776250Y-36873000D01*
X104935000Y-36714250D01*
X104935000Y-36073690D01*
X104838327Y-35840301D01*
X104659698Y-35661673D01*
X104426309Y-35565000D01*
X103785750Y-35565000D01*
X103627000Y-35723750D01*
X103373000Y-35723750D01*
X103214250Y-35565000D01*
X102573691Y-35565000D01*
X102340302Y-35661673D01*
X102161673Y-35840301D01*
X102065000Y-36073690D01*
X98149534Y-36073690D01*
X98765924Y-35457300D01*
X98860000Y-35457300D01*
X99032973Y-35422894D01*
X99179612Y-35324912D01*
X99277594Y-35178273D01*
X99312000Y-35005300D01*
X99312000Y-34929449D01*
X99656909Y-34698988D01*
X99901212Y-34333363D01*
X99965981Y-34007745D01*
X103671861Y-34007745D01*
X103745995Y-34253864D01*
X104283223Y-34446965D01*
X104853454Y-34419778D01*
X105254005Y-34253864D01*
X105328139Y-34007745D01*
X104500000Y-33179605D01*
X103671861Y-34007745D01*
X99965981Y-34007745D01*
X99987000Y-33902079D01*
X99987000Y-33857921D01*
X99901212Y-33426637D01*
X99656909Y-33061012D01*
X99291284Y-32816709D01*
X98860000Y-32730921D01*
X98428716Y-32816709D01*
X98063091Y-33061012D01*
X97818788Y-33426637D01*
X97733000Y-33857921D01*
X97733000Y-33902079D01*
X97818788Y-34333363D01*
X98063091Y-34698988D01*
X98172610Y-34772166D01*
X92190388Y-40754388D01*
X92138162Y-40832548D01*
X92036909Y-40681012D01*
X91671284Y-40436709D01*
X91240000Y-40350921D01*
X90808716Y-40436709D01*
X90443091Y-40681012D01*
X90198788Y-41046637D01*
X90113000Y-41477921D01*
X90113000Y-41522079D01*
X90198788Y-41953363D01*
X90443091Y-42318988D01*
X90808716Y-42563291D01*
X91078601Y-42616975D01*
X89465688Y-44229888D01*
X89367706Y-44376527D01*
X89345780Y-44486758D01*
X89091284Y-44316709D01*
X88660000Y-44230921D01*
X88228716Y-44316709D01*
X87981717Y-44481749D01*
X87952294Y-44333827D01*
X87880572Y-44226488D01*
X87854313Y-44187188D01*
X86290288Y-42623163D01*
X86591284Y-42563291D01*
X86956909Y-42318988D01*
X87201212Y-41953363D01*
X87287000Y-41522079D01*
X87287000Y-41477921D01*
X87573000Y-41477921D01*
X87573000Y-41522079D01*
X87658788Y-41953363D01*
X87903091Y-42318988D01*
X88268716Y-42563291D01*
X88700000Y-42649079D01*
X89131284Y-42563291D01*
X89496909Y-42318988D01*
X89741212Y-41953363D01*
X89827000Y-41522079D01*
X89827000Y-41477921D01*
X89741212Y-41046637D01*
X89496909Y-40681012D01*
X89131284Y-40436709D01*
X88700000Y-40350921D01*
X88268716Y-40436709D01*
X87903091Y-40681012D01*
X87658788Y-41046637D01*
X87573000Y-41477921D01*
X87287000Y-41477921D01*
X87201212Y-41046637D01*
X86956909Y-40681012D01*
X86591284Y-40436709D01*
X86160000Y-40350921D01*
X85728716Y-40436709D01*
X85363091Y-40681012D01*
X85247037Y-40854698D01*
X85209612Y-40798688D01*
X83816312Y-39405388D01*
X83669673Y-39307406D01*
X83496700Y-39273000D01*
X78746528Y-39273000D01*
X78667431Y-39193765D01*
X78437065Y-39098109D01*
X78187629Y-39097891D01*
X77957097Y-39193145D01*
X77780565Y-39369369D01*
X77684909Y-39599735D01*
X77684691Y-39849171D01*
X77779945Y-40079703D01*
X77956169Y-40256235D01*
X78186535Y-40351891D01*
X78435971Y-40352109D01*
X78666503Y-40256855D01*
X78746498Y-40177000D01*
X83309476Y-40177000D01*
X83506061Y-40373585D01*
X83188716Y-40436709D01*
X82823091Y-40681012D01*
X82578788Y-41046637D01*
X82493000Y-41477921D01*
X82493000Y-41522079D01*
X82578788Y-41953363D01*
X82792582Y-42273328D01*
X82694373Y-42207706D01*
X82521400Y-42173300D01*
X81974255Y-42173300D01*
X82121212Y-41953363D01*
X82207000Y-41522079D01*
X82207000Y-41477921D01*
X82121212Y-41046637D01*
X81876909Y-40681012D01*
X81511284Y-40436709D01*
X81080000Y-40350921D01*
X80648716Y-40436709D01*
X80283091Y-40681012D01*
X80038788Y-41046637D01*
X79953000Y-41477921D01*
X79953000Y-41522079D01*
X80038788Y-41953363D01*
X80185745Y-42173300D01*
X79434255Y-42173300D01*
X79581212Y-41953363D01*
X79667000Y-41522079D01*
X79667000Y-41477921D01*
X79581212Y-41046637D01*
X79336909Y-40681012D01*
X78971284Y-40436709D01*
X78540000Y-40350921D01*
X78108716Y-40436709D01*
X77743091Y-40681012D01*
X77498788Y-41046637D01*
X77465927Y-41211839D01*
X77444912Y-41180388D01*
X77298273Y-41082406D01*
X77133406Y-41049612D01*
X77133406Y-40700000D01*
X77110605Y-40578821D01*
X77038988Y-40467526D01*
X76929714Y-40392862D01*
X76800000Y-40366594D01*
X75200000Y-40366594D01*
X75078821Y-40389395D01*
X74967526Y-40461012D01*
X74892862Y-40570286D01*
X74866594Y-40700000D01*
X74866594Y-42300000D01*
X74889395Y-42421179D01*
X74961012Y-42532474D01*
X75070286Y-42607138D01*
X75200000Y-42633406D01*
X76800000Y-42633406D01*
X76921179Y-42610605D01*
X77032474Y-42538988D01*
X77107138Y-42429714D01*
X77111727Y-42407051D01*
X77649588Y-42944912D01*
X77796227Y-43042894D01*
X77969200Y-43077300D01*
X82334176Y-43077300D01*
X83503094Y-44246219D01*
X83148716Y-44316709D01*
X82783091Y-44561012D01*
X82538788Y-44926637D01*
X82453000Y-45357921D01*
X82453000Y-45402079D01*
X82538788Y-45833363D01*
X82783091Y-46198988D01*
X83148716Y-46443291D01*
X83580000Y-46529079D01*
X84011284Y-46443291D01*
X84376909Y-46198988D01*
X84621212Y-45833363D01*
X84654073Y-45668161D01*
X84675088Y-45699612D01*
X84821727Y-45797594D01*
X84994700Y-45832000D01*
X85078517Y-45832000D01*
X85078788Y-45833363D01*
X85323091Y-46198988D01*
X85688716Y-46443291D01*
X86120000Y-46529079D01*
X86551284Y-46443291D01*
X86916909Y-46198988D01*
X87161212Y-45833363D01*
X87194073Y-45668161D01*
X87215088Y-45699612D01*
X87361727Y-45797594D01*
X87534700Y-45832000D01*
X87618517Y-45832000D01*
X87618788Y-45833363D01*
X87863091Y-46198988D01*
X88228716Y-46443291D01*
X88660000Y-46529079D01*
X89091284Y-46443291D01*
X89456909Y-46198988D01*
X89547774Y-46062998D01*
X90724388Y-47239613D01*
X90871027Y-47337594D01*
X91044000Y-47372000D01*
X98890592Y-47372000D01*
X99144676Y-47752265D01*
X99526523Y-48007406D01*
X99976941Y-48097000D01*
X100023059Y-48097000D01*
X100473477Y-48007406D01*
X100855324Y-47752265D01*
X101110465Y-47370418D01*
X101200059Y-46920000D01*
X101110465Y-46469582D01*
X100855324Y-46087735D01*
X100473477Y-45832594D01*
X100023059Y-45743000D01*
X99976941Y-45743000D01*
X99526523Y-45832594D01*
X99144676Y-46087735D01*
X98890592Y-46468000D01*
X94047064Y-46468000D01*
X94171284Y-46443291D01*
X94536909Y-46198988D01*
X94781212Y-45833363D01*
X94781483Y-45832000D01*
X94865300Y-45832000D01*
X95038273Y-45797594D01*
X95184912Y-45699612D01*
X97082525Y-43802000D01*
X102712577Y-43802000D01*
X102681012Y-43823091D01*
X102436709Y-44188716D01*
X102350921Y-44620000D01*
X102436709Y-45051284D01*
X102681012Y-45416909D01*
X103046637Y-45661212D01*
X103477921Y-45747000D01*
X103522079Y-45747000D01*
X103953363Y-45661212D01*
X104318988Y-45416909D01*
X104563291Y-45051284D01*
X104649079Y-44620000D01*
X104563291Y-44188716D01*
X104318988Y-43823091D01*
X104287423Y-43802000D01*
X112713476Y-43802000D01*
X108400876Y-48114600D01*
X104082987Y-48114600D01*
X104318988Y-47956909D01*
X104563291Y-47591284D01*
X104649079Y-47160000D01*
X104563291Y-46728716D01*
X104318988Y-46363091D01*
X103953363Y-46118788D01*
X103522079Y-46033000D01*
X103477921Y-46033000D01*
X103046637Y-46118788D01*
X102681012Y-46363091D01*
X102436709Y-46728716D01*
X102350921Y-47160000D01*
X102436709Y-47591284D01*
X102681012Y-47956909D01*
X102917013Y-48114600D01*
X102068700Y-48114600D01*
X101895727Y-48149006D01*
X101749087Y-48246988D01*
X101060809Y-48935267D01*
X100855324Y-48627735D01*
X100473477Y-48372594D01*
X100023059Y-48283000D01*
X99976941Y-48283000D01*
X99526523Y-48372594D01*
X99144676Y-48627735D01*
X98889535Y-49009582D01*
X98799941Y-49460000D01*
X98889535Y-49910418D01*
X99144676Y-50292265D01*
X99256825Y-50367200D01*
X82032128Y-50367200D01*
X81953031Y-50287965D01*
X81722665Y-50192309D01*
X81473229Y-50192091D01*
X81242697Y-50287345D01*
X81066165Y-50463569D01*
X80970509Y-50693935D01*
X80970291Y-50943371D01*
X81065545Y-51173903D01*
X81241769Y-51350435D01*
X81472135Y-51446091D01*
X81721571Y-51446309D01*
X81952103Y-51351055D01*
X82032098Y-51271200D01*
X98816594Y-51271200D01*
X98816594Y-52850000D01*
X98839395Y-52971179D01*
X98911012Y-53082474D01*
X99020286Y-53157138D01*
X99150000Y-53183406D01*
X100850000Y-53183406D01*
X100971179Y-53160605D01*
X101082474Y-53088988D01*
X101157138Y-52979714D01*
X101183406Y-52850000D01*
X101183406Y-51271200D01*
X101817225Y-51271200D01*
X101878427Y-51312094D01*
X102051400Y-51346500D01*
X102825571Y-51346500D01*
X102681012Y-51443091D01*
X102436709Y-51808716D01*
X102350921Y-52240000D01*
X102436709Y-52671284D01*
X102681012Y-53036909D01*
X102780448Y-53103350D01*
X102650188Y-53190387D01*
X102167276Y-53673300D01*
X94978448Y-53673300D01*
X95131914Y-53349041D01*
X95010629Y-53127000D01*
X93867000Y-53127000D01*
X93867000Y-53147000D01*
X93613000Y-53147000D01*
X93613000Y-53127000D01*
X93593000Y-53127000D01*
X93593000Y-52873000D01*
X93613000Y-52873000D01*
X93613000Y-51730085D01*
X93867000Y-51730085D01*
X93867000Y-52873000D01*
X95010629Y-52873000D01*
X95131914Y-52650959D01*
X94892389Y-52144866D01*
X94477423Y-51768959D01*
X94089039Y-51608096D01*
X93867000Y-51730085D01*
X93613000Y-51730085D01*
X93390961Y-51608096D01*
X93002577Y-51768959D01*
X92587611Y-52144866D01*
X92348086Y-52650959D01*
X92469370Y-52872998D01*
X92306129Y-52872998D01*
X92241212Y-52546637D01*
X91996909Y-52181012D01*
X91631284Y-51936709D01*
X91200000Y-51850921D01*
X90768716Y-51936709D01*
X90403091Y-52181012D01*
X90158788Y-52546637D01*
X90073000Y-52977921D01*
X90073000Y-53022079D01*
X90158788Y-53453363D01*
X90403091Y-53818988D01*
X90768716Y-54063291D01*
X91200000Y-54149079D01*
X91625264Y-54064488D01*
X91786875Y-54226100D01*
X83749325Y-54226100D01*
X83656990Y-54133765D01*
X84011284Y-54063291D01*
X84376909Y-53818988D01*
X84621212Y-53453363D01*
X84707000Y-53022079D01*
X84707000Y-52977921D01*
X84993000Y-52977921D01*
X84993000Y-53022079D01*
X85078788Y-53453363D01*
X85323091Y-53818988D01*
X85688716Y-54063291D01*
X86120000Y-54149079D01*
X86551284Y-54063291D01*
X86916909Y-53818988D01*
X87161212Y-53453363D01*
X87247000Y-53022079D01*
X87247000Y-52977921D01*
X87533000Y-52977921D01*
X87533000Y-53022079D01*
X87618788Y-53453363D01*
X87863091Y-53818988D01*
X88228716Y-54063291D01*
X88660000Y-54149079D01*
X89091284Y-54063291D01*
X89456909Y-53818988D01*
X89701212Y-53453363D01*
X89787000Y-53022079D01*
X89787000Y-52977921D01*
X89701212Y-52546637D01*
X89456909Y-52181012D01*
X89091284Y-51936709D01*
X88660000Y-51850921D01*
X88228716Y-51936709D01*
X87863091Y-52181012D01*
X87618788Y-52546637D01*
X87533000Y-52977921D01*
X87247000Y-52977921D01*
X87161212Y-52546637D01*
X86916909Y-52181012D01*
X86551284Y-51936709D01*
X86120000Y-51850921D01*
X85688716Y-51936709D01*
X85323091Y-52181012D01*
X85078788Y-52546637D01*
X84993000Y-52977921D01*
X84707000Y-52977921D01*
X84621212Y-52546637D01*
X84376909Y-52181012D01*
X84011284Y-51936709D01*
X83580000Y-51850921D01*
X83148716Y-51936709D01*
X82783091Y-52181012D01*
X82538788Y-52546637D01*
X82505927Y-52711839D01*
X82484912Y-52680388D01*
X82338273Y-52582406D01*
X82165300Y-52548000D01*
X82081483Y-52548000D01*
X82081212Y-52546637D01*
X81836909Y-52181012D01*
X81471284Y-51936709D01*
X81040000Y-51850921D01*
X80608716Y-51936709D01*
X80243091Y-52181012D01*
X79998788Y-52546637D01*
X79998517Y-52548000D01*
X79633406Y-52548000D01*
X79633406Y-52200000D01*
X79610605Y-52078821D01*
X79538988Y-51967526D01*
X79429714Y-51892862D01*
X79300000Y-51866594D01*
X77700000Y-51866594D01*
X77578821Y-51889395D01*
X77467526Y-51961012D01*
X77392862Y-52070286D01*
X77366594Y-52200000D01*
X77366594Y-53800000D01*
X77389395Y-53921179D01*
X77461012Y-54032474D01*
X77570286Y-54107138D01*
X77700000Y-54133406D01*
X79300000Y-54133406D01*
X79421179Y-54110605D01*
X79532474Y-54038988D01*
X79607138Y-53929714D01*
X79633406Y-53800000D01*
X79633406Y-53452000D01*
X79998517Y-53452000D01*
X79998788Y-53453363D01*
X80243091Y-53818988D01*
X80608716Y-54063291D01*
X81040000Y-54149079D01*
X81471284Y-54063291D01*
X81836909Y-53818988D01*
X81927774Y-53682998D01*
X83073375Y-54828600D01*
X77753124Y-54828600D01*
X76253912Y-53329388D01*
X76107273Y-53231406D01*
X75934300Y-53197000D01*
X73771133Y-53197000D01*
X73828139Y-53007745D01*
X73000000Y-52179605D01*
X72171861Y-53007745D01*
X72228867Y-53197000D01*
X69819395Y-53197000D01*
X70058988Y-53036909D01*
X70303291Y-52671284D01*
X70389079Y-52240000D01*
X70303291Y-51808716D01*
X70286258Y-51783223D01*
X71553035Y-51783223D01*
X71580222Y-52353454D01*
X71746136Y-52754005D01*
X71992255Y-52828139D01*
X72820395Y-52000000D01*
X73179605Y-52000000D01*
X74007745Y-52828139D01*
X74253864Y-52754005D01*
X74446965Y-52216777D01*
X74419778Y-51646546D01*
X74253864Y-51245995D01*
X74007745Y-51171861D01*
X73179605Y-52000000D01*
X72820395Y-52000000D01*
X71992255Y-51171861D01*
X71746136Y-51245995D01*
X71553035Y-51783223D01*
X70286258Y-51783223D01*
X70058988Y-51443091D01*
X69693363Y-51198788D01*
X69262079Y-51113000D01*
X69217921Y-51113000D01*
X68786637Y-51198788D01*
X68421012Y-51443091D01*
X68176709Y-51808716D01*
X68090921Y-52240000D01*
X68176709Y-52671284D01*
X68421012Y-53036909D01*
X68660605Y-53197000D01*
X56256300Y-53197000D01*
X56083327Y-53231406D01*
X55936688Y-53329387D01*
X55004839Y-54261237D01*
X54818988Y-53983091D01*
X54453363Y-53738788D01*
X54022079Y-53653000D01*
X53977921Y-53653000D01*
X53546637Y-53738788D01*
X53181012Y-53983091D01*
X52936709Y-54348716D01*
X52850921Y-54780000D01*
X50627000Y-54780000D01*
X50627000Y-52240000D01*
X52850921Y-52240000D01*
X52936709Y-52671284D01*
X53181012Y-53036909D01*
X53546637Y-53281212D01*
X53977921Y-53367000D01*
X54022079Y-53367000D01*
X54453363Y-53281212D01*
X54818988Y-53036909D01*
X55063291Y-52671284D01*
X55149079Y-52240000D01*
X55063291Y-51808716D01*
X54818988Y-51443091D01*
X54453363Y-51198788D01*
X54022079Y-51113000D01*
X53977921Y-51113000D01*
X53546637Y-51198788D01*
X53181012Y-51443091D01*
X52936709Y-51808716D01*
X52850921Y-52240000D01*
X50627000Y-52240000D01*
X50627000Y-50992255D01*
X72171861Y-50992255D01*
X73000000Y-51820395D01*
X73828139Y-50992255D01*
X73754005Y-50746136D01*
X73216777Y-50553035D01*
X72646546Y-50580222D01*
X72245995Y-50746136D01*
X72171861Y-50992255D01*
X50627000Y-50992255D01*
X50627000Y-49700000D01*
X52850921Y-49700000D01*
X52936709Y-50131284D01*
X53181012Y-50496909D01*
X53546637Y-50741212D01*
X53977921Y-50827000D01*
X54022079Y-50827000D01*
X54453363Y-50741212D01*
X54818988Y-50496909D01*
X55063291Y-50131284D01*
X55149079Y-49700000D01*
X68090921Y-49700000D01*
X68176709Y-50131284D01*
X68421012Y-50496909D01*
X68786637Y-50741212D01*
X69217921Y-50827000D01*
X69262079Y-50827000D01*
X69693363Y-50741212D01*
X70058988Y-50496909D01*
X70303291Y-50131284D01*
X70389079Y-49700000D01*
X70303291Y-49268716D01*
X70058988Y-48903091D01*
X69693363Y-48658788D01*
X69262079Y-48573000D01*
X69217921Y-48573000D01*
X68786637Y-48658788D01*
X68421012Y-48903091D01*
X68176709Y-49268716D01*
X68090921Y-49700000D01*
X55149079Y-49700000D01*
X55063291Y-49268716D01*
X54818988Y-48903091D01*
X54453363Y-48658788D01*
X54022079Y-48573000D01*
X53977921Y-48573000D01*
X53546637Y-48658788D01*
X53181012Y-48903091D01*
X52936709Y-49268716D01*
X52850921Y-49700000D01*
X50627000Y-49700000D01*
X50627000Y-47160000D01*
X52850921Y-47160000D01*
X52936709Y-47591284D01*
X53181012Y-47956909D01*
X53546637Y-48201212D01*
X53977921Y-48287000D01*
X54022079Y-48287000D01*
X54453363Y-48201212D01*
X54818988Y-47956909D01*
X55063291Y-47591284D01*
X55149079Y-47160000D01*
X68090921Y-47160000D01*
X68176709Y-47591284D01*
X68421012Y-47956909D01*
X68786637Y-48201212D01*
X69217921Y-48287000D01*
X69262079Y-48287000D01*
X69693363Y-48201212D01*
X70058988Y-47956909D01*
X70303291Y-47591284D01*
X70389079Y-47160000D01*
X70303291Y-46728716D01*
X70058988Y-46363091D01*
X69693363Y-46118788D01*
X69262079Y-46033000D01*
X69217921Y-46033000D01*
X68786637Y-46118788D01*
X68421012Y-46363091D01*
X68176709Y-46728716D01*
X68090921Y-47160000D01*
X55149079Y-47160000D01*
X55063291Y-46728716D01*
X54818988Y-46363091D01*
X54453363Y-46118788D01*
X54022079Y-46033000D01*
X53977921Y-46033000D01*
X53546637Y-46118788D01*
X53181012Y-46363091D01*
X52936709Y-46728716D01*
X52850921Y-47160000D01*
X50627000Y-47160000D01*
X50627000Y-44620000D01*
X52850921Y-44620000D01*
X52936709Y-45051284D01*
X53181012Y-45416909D01*
X53546637Y-45661212D01*
X53977921Y-45747000D01*
X54022079Y-45747000D01*
X54453363Y-45661212D01*
X54818988Y-45416909D01*
X55063291Y-45051284D01*
X55149079Y-44620000D01*
X68090921Y-44620000D01*
X68176709Y-45051284D01*
X68421012Y-45416909D01*
X68786637Y-45661212D01*
X69217921Y-45747000D01*
X69262079Y-45747000D01*
X69693363Y-45661212D01*
X70058988Y-45416909D01*
X70303291Y-45051284D01*
X70389079Y-44620000D01*
X70303291Y-44188716D01*
X70058988Y-43823091D01*
X69693363Y-43578788D01*
X69262079Y-43493000D01*
X69217921Y-43493000D01*
X68786637Y-43578788D01*
X68421012Y-43823091D01*
X68176709Y-44188716D01*
X68090921Y-44620000D01*
X55149079Y-44620000D01*
X55063291Y-44188716D01*
X54818988Y-43823091D01*
X54453363Y-43578788D01*
X54022079Y-43493000D01*
X53977921Y-43493000D01*
X53546637Y-43578788D01*
X53181012Y-43823091D01*
X52936709Y-44188716D01*
X52850921Y-44620000D01*
X50627000Y-44620000D01*
X50627000Y-42080000D01*
X52850921Y-42080000D01*
X52936709Y-42511284D01*
X53181012Y-42876909D01*
X53546637Y-43121212D01*
X53977921Y-43207000D01*
X54022079Y-43207000D01*
X54453363Y-43121212D01*
X54818988Y-42876909D01*
X55063291Y-42511284D01*
X55149079Y-42080000D01*
X68090921Y-42080000D01*
X68176709Y-42511284D01*
X68421012Y-42876909D01*
X68786637Y-43121212D01*
X69217921Y-43207000D01*
X69262079Y-43207000D01*
X69693363Y-43121212D01*
X70058988Y-42876909D01*
X70303291Y-42511284D01*
X70389079Y-42080000D01*
X70303291Y-41648716D01*
X70058988Y-41283091D01*
X69693363Y-41038788D01*
X69262079Y-40953000D01*
X69217921Y-40953000D01*
X68786637Y-41038788D01*
X68421012Y-41283091D01*
X68176709Y-41648716D01*
X68090921Y-42080000D01*
X55149079Y-42080000D01*
X55063291Y-41648716D01*
X54818988Y-41283091D01*
X54453363Y-41038788D01*
X54022079Y-40953000D01*
X53977921Y-40953000D01*
X53546637Y-41038788D01*
X53181012Y-41283091D01*
X52936709Y-41648716D01*
X52850921Y-42080000D01*
X50627000Y-42080000D01*
X50627000Y-37285750D01*
X52565000Y-37285750D01*
X52565000Y-37926310D01*
X52661673Y-38159699D01*
X52840302Y-38338327D01*
X53073691Y-38435000D01*
X53714250Y-38435000D01*
X53872998Y-38276252D01*
X53872998Y-38433871D01*
X53546637Y-38498788D01*
X53181012Y-38743091D01*
X52936709Y-39108716D01*
X52850921Y-39540000D01*
X52936709Y-39971284D01*
X53181012Y-40336909D01*
X53546637Y-40581212D01*
X53977921Y-40667000D01*
X54022079Y-40667000D01*
X54453363Y-40581212D01*
X54818988Y-40336909D01*
X54965927Y-40117000D01*
X55250295Y-40117000D01*
X55250300Y-40117001D01*
X55471108Y-40073078D01*
X55658301Y-39948001D01*
X56739701Y-38866600D01*
X68338486Y-38866600D01*
X68176709Y-39108716D01*
X68090921Y-39540000D01*
X68176709Y-39971284D01*
X68421012Y-40336909D01*
X68786637Y-40581212D01*
X69217921Y-40667000D01*
X69262079Y-40667000D01*
X69693363Y-40581212D01*
X70058988Y-40336909D01*
X70094859Y-40283223D01*
X70553035Y-40283223D01*
X70580222Y-40853454D01*
X70746136Y-41254005D01*
X70992255Y-41328139D01*
X71820395Y-40500000D01*
X70992255Y-39671861D01*
X70746136Y-39745995D01*
X70553035Y-40283223D01*
X70094859Y-40283223D01*
X70303291Y-39971284D01*
X70389079Y-39540000D01*
X70303291Y-39108716D01*
X70141514Y-38866600D01*
X71760998Y-38866600D01*
X71959690Y-39065292D01*
X71646546Y-39080222D01*
X71245995Y-39246136D01*
X71171861Y-39492255D01*
X72000000Y-40320395D01*
X72014142Y-40306252D01*
X72193748Y-40485858D01*
X72179605Y-40500000D01*
X72193748Y-40514142D01*
X72014142Y-40693748D01*
X72000000Y-40679605D01*
X71171861Y-41507745D01*
X71245995Y-41753864D01*
X71783223Y-41946965D01*
X72353454Y-41919778D01*
X72679200Y-41784849D01*
X72679200Y-45913136D01*
X72362440Y-46044019D01*
X72045133Y-46360772D01*
X71873196Y-46774842D01*
X71872805Y-47223191D01*
X72044019Y-47637560D01*
X72360772Y-47954867D01*
X72774842Y-48126804D01*
X73223191Y-48127195D01*
X73637560Y-47955981D01*
X73954867Y-47639228D01*
X74126804Y-47225158D01*
X74127195Y-46776809D01*
X73955981Y-46362440D01*
X73833200Y-46239444D01*
X73833200Y-45357921D01*
X77373000Y-45357921D01*
X77373000Y-45402079D01*
X77458788Y-45833363D01*
X77703091Y-46198988D01*
X78068716Y-46443291D01*
X78500000Y-46529079D01*
X78931284Y-46443291D01*
X79296909Y-46198988D01*
X79541212Y-45833363D01*
X79627000Y-45402079D01*
X79627000Y-45357921D01*
X79913000Y-45357921D01*
X79913000Y-45402079D01*
X79998788Y-45833363D01*
X80243091Y-46198988D01*
X80608716Y-46443291D01*
X81040000Y-46529079D01*
X81471284Y-46443291D01*
X81836909Y-46198988D01*
X82081212Y-45833363D01*
X82167000Y-45402079D01*
X82167000Y-45357921D01*
X82081212Y-44926637D01*
X81836909Y-44561012D01*
X81471284Y-44316709D01*
X81040000Y-44230921D01*
X80608716Y-44316709D01*
X80243091Y-44561012D01*
X79998788Y-44926637D01*
X79913000Y-45357921D01*
X79627000Y-45357921D01*
X79541212Y-44926637D01*
X79296909Y-44561012D01*
X78931284Y-44316709D01*
X78500000Y-44230921D01*
X78068716Y-44316709D01*
X77703091Y-44561012D01*
X77458788Y-44926637D01*
X77373000Y-45357921D01*
X73833200Y-45357921D01*
X73833200Y-39545800D01*
X73789278Y-39324992D01*
X73664201Y-39137799D01*
X72577000Y-38050598D01*
X72577000Y-36481004D01*
X72637560Y-36455981D01*
X72954867Y-36139228D01*
X72980706Y-36077000D01*
X73129695Y-36077000D01*
X73129700Y-36077001D01*
X73350508Y-36033078D01*
X73537701Y-35908001D01*
X74988702Y-34457000D01*
X75041400Y-34457000D01*
X75203091Y-34698988D01*
X75568716Y-34943291D01*
X76000000Y-35029079D01*
X76431284Y-34943291D01*
X76796909Y-34698988D01*
X76958600Y-34457000D01*
X77250300Y-34457000D01*
X77471108Y-34413078D01*
X77527068Y-34375687D01*
X77743091Y-34698988D01*
X78108716Y-34943291D01*
X78540000Y-35029079D01*
X78971284Y-34943291D01*
X79336909Y-34698988D01*
X79581212Y-34333363D01*
X79667000Y-33902079D01*
X79667000Y-33857921D01*
X79953000Y-33857921D01*
X79953000Y-33902079D01*
X80038788Y-34333363D01*
X80283091Y-34698988D01*
X80648716Y-34943291D01*
X81080000Y-35029079D01*
X81511284Y-34943291D01*
X81876909Y-34698988D01*
X82121212Y-34333363D01*
X82207000Y-33902079D01*
X82207000Y-33857921D01*
X82493000Y-33857921D01*
X82493000Y-33902079D01*
X82578788Y-34333363D01*
X82823091Y-34698988D01*
X83188716Y-34943291D01*
X83620000Y-35029079D01*
X84051284Y-34943291D01*
X84416909Y-34698988D01*
X84661212Y-34333363D01*
X84747000Y-33902079D01*
X84747000Y-33857921D01*
X85033000Y-33857921D01*
X85033000Y-33902079D01*
X85118788Y-34333363D01*
X85363091Y-34698988D01*
X85728716Y-34943291D01*
X86160000Y-35029079D01*
X86591284Y-34943291D01*
X86956909Y-34698988D01*
X87201212Y-34333363D01*
X87287000Y-33902079D01*
X87287000Y-33857921D01*
X87573000Y-33857921D01*
X87573000Y-33902079D01*
X87658788Y-34333363D01*
X87903091Y-34698988D01*
X88268716Y-34943291D01*
X88700000Y-35029079D01*
X89131284Y-34943291D01*
X89496909Y-34698988D01*
X89741212Y-34333363D01*
X89827000Y-33902079D01*
X89827000Y-33857921D01*
X90113000Y-33857921D01*
X90113000Y-33902079D01*
X90198788Y-34333363D01*
X90443091Y-34698988D01*
X90808716Y-34943291D01*
X91240000Y-35029079D01*
X91671284Y-34943291D01*
X92036909Y-34698988D01*
X92281212Y-34333363D01*
X92367000Y-33902079D01*
X92367000Y-33857921D01*
X92653000Y-33857921D01*
X92653000Y-33902079D01*
X92738788Y-34333363D01*
X92983091Y-34698988D01*
X93348716Y-34943291D01*
X93780000Y-35029079D01*
X94211284Y-34943291D01*
X94576909Y-34698988D01*
X94821212Y-34333363D01*
X94907000Y-33902079D01*
X94907000Y-33857921D01*
X95193000Y-33857921D01*
X95193000Y-33902079D01*
X95278788Y-34333363D01*
X95523091Y-34698988D01*
X95888716Y-34943291D01*
X96320000Y-35029079D01*
X96751284Y-34943291D01*
X97116909Y-34698988D01*
X97361212Y-34333363D01*
X97447000Y-33902079D01*
X97447000Y-33857921D01*
X97361212Y-33426637D01*
X97116909Y-33061012D01*
X96751284Y-32816709D01*
X96320000Y-32730921D01*
X95888716Y-32816709D01*
X95523091Y-33061012D01*
X95278788Y-33426637D01*
X95193000Y-33857921D01*
X94907000Y-33857921D01*
X94821212Y-33426637D01*
X94576909Y-33061012D01*
X94211284Y-32816709D01*
X93780000Y-32730921D01*
X93348716Y-32816709D01*
X92983091Y-33061012D01*
X92738788Y-33426637D01*
X92653000Y-33857921D01*
X92367000Y-33857921D01*
X92281212Y-33426637D01*
X92036909Y-33061012D01*
X91671284Y-32816709D01*
X91240000Y-32730921D01*
X90808716Y-32816709D01*
X90443091Y-33061012D01*
X90198788Y-33426637D01*
X90113000Y-33857921D01*
X89827000Y-33857921D01*
X89741212Y-33426637D01*
X89496909Y-33061012D01*
X89131284Y-32816709D01*
X88700000Y-32730921D01*
X88268716Y-32816709D01*
X87903091Y-33061012D01*
X87658788Y-33426637D01*
X87573000Y-33857921D01*
X87287000Y-33857921D01*
X87201212Y-33426637D01*
X86956909Y-33061012D01*
X86591284Y-32816709D01*
X86160000Y-32730921D01*
X85728716Y-32816709D01*
X85363091Y-33061012D01*
X85118788Y-33426637D01*
X85033000Y-33857921D01*
X84747000Y-33857921D01*
X84661212Y-33426637D01*
X84416909Y-33061012D01*
X84051284Y-32816709D01*
X83620000Y-32730921D01*
X83188716Y-32816709D01*
X82823091Y-33061012D01*
X82578788Y-33426637D01*
X82493000Y-33857921D01*
X82207000Y-33857921D01*
X82121212Y-33426637D01*
X81876909Y-33061012D01*
X81511284Y-32816709D01*
X81080000Y-32730921D01*
X80648716Y-32816709D01*
X80283091Y-33061012D01*
X80038788Y-33426637D01*
X79953000Y-33857921D01*
X79667000Y-33857921D01*
X79581212Y-33426637D01*
X79336909Y-33061012D01*
X78971284Y-32816709D01*
X78649667Y-32752735D01*
X79121902Y-32280500D01*
X103233734Y-32280500D01*
X103053035Y-32783223D01*
X103080222Y-33353454D01*
X103246136Y-33754005D01*
X103492255Y-33828139D01*
X104320395Y-33000000D01*
X104306252Y-32985858D01*
X104485858Y-32806252D01*
X104500000Y-32820395D01*
X104514142Y-32806252D01*
X104693748Y-32985858D01*
X104679605Y-33000000D01*
X105507745Y-33828139D01*
X105753864Y-33754005D01*
X105946965Y-33216777D01*
X105919778Y-32646546D01*
X105768156Y-32280500D01*
X107964498Y-32280500D01*
X108398324Y-32714326D01*
X108373196Y-32774842D01*
X108372805Y-33223191D01*
X108477479Y-33476520D01*
X104801624Y-37152374D01*
X104776250Y-37127000D01*
X103627000Y-37127000D01*
X103627000Y-37147000D01*
X103373000Y-37147000D01*
X103373000Y-37127000D01*
X102223750Y-37127000D01*
X102065000Y-37285750D01*
X102065000Y-37926310D01*
X102161673Y-38159699D01*
X102340302Y-38338327D01*
X102573691Y-38435000D01*
X102923000Y-38435000D01*
X102923000Y-38581400D01*
X102681012Y-38743091D01*
X102436709Y-39108716D01*
X102350921Y-39540000D01*
X102436709Y-39971284D01*
X102681012Y-40336909D01*
X103046637Y-40581212D01*
X103372998Y-40646129D01*
X103372998Y-40809370D01*
X103150959Y-40688086D01*
X102644866Y-40927611D01*
X102268959Y-41342577D01*
X102108096Y-41730961D01*
X102230085Y-41953000D01*
X103373000Y-41953000D01*
X103373000Y-41933000D01*
X103627000Y-41933000D01*
X103627000Y-41953000D01*
X104769915Y-41953000D01*
X104891904Y-41730961D01*
X104731041Y-41342577D01*
X104355134Y-40927611D01*
X103849041Y-40688086D01*
X103627002Y-40809370D01*
X103627002Y-40646129D01*
X103953363Y-40581212D01*
X104318988Y-40336909D01*
X104563291Y-39971284D01*
X104649079Y-39540000D01*
X104563291Y-39108716D01*
X104401581Y-38866700D01*
X104480295Y-38866700D01*
X104480300Y-38866701D01*
X104701108Y-38822778D01*
X104888301Y-38697701D01*
X109459036Y-34126965D01*
X109723191Y-34127195D01*
X110137560Y-33955981D01*
X110454867Y-33639228D01*
X110626804Y-33225158D01*
X110627195Y-32776809D01*
X110455981Y-32362440D01*
X110139228Y-32045133D01*
X109725158Y-31873196D01*
X109276809Y-31872805D01*
X109214537Y-31898535D01*
X108611501Y-31295499D01*
X108424308Y-31170422D01*
X108203500Y-31126499D01*
X108203495Y-31126500D01*
X78882905Y-31126500D01*
X78882900Y-31126499D01*
X78662092Y-31170422D01*
X78474899Y-31295499D01*
X76842299Y-32928099D01*
X76766892Y-33040955D01*
X76431284Y-32816709D01*
X76000000Y-32730921D01*
X75568716Y-32816709D01*
X75203091Y-33061012D01*
X75041400Y-33303000D01*
X74749705Y-33303000D01*
X74749700Y-33302999D01*
X74528892Y-33346922D01*
X74341699Y-33471999D01*
X72953622Y-34860076D01*
X72639228Y-34545133D01*
X72225158Y-34373196D01*
X71776809Y-34372805D01*
X71362440Y-34544019D01*
X71045133Y-34860772D01*
X70873196Y-35274842D01*
X70872805Y-35723191D01*
X71044019Y-36137560D01*
X71360772Y-36454867D01*
X71423000Y-36480706D01*
X71423000Y-37712600D01*
X70115322Y-37712600D01*
X70303291Y-37431284D01*
X70389079Y-37000000D01*
X70303291Y-36568716D01*
X70058988Y-36203091D01*
X69693363Y-35958788D01*
X69262079Y-35873000D01*
X69217921Y-35873000D01*
X68786637Y-35958788D01*
X68421012Y-36203091D01*
X68176709Y-36568716D01*
X68090921Y-37000000D01*
X68176709Y-37431284D01*
X68364678Y-37712600D01*
X56500705Y-37712600D01*
X56500700Y-37712599D01*
X56279892Y-37756522D01*
X56092699Y-37881599D01*
X56092697Y-37881602D01*
X55011298Y-38963000D01*
X54965927Y-38963000D01*
X54818988Y-38743091D01*
X54453363Y-38498788D01*
X54127002Y-38433871D01*
X54127002Y-38276252D01*
X54285750Y-38435000D01*
X54926309Y-38435000D01*
X55159698Y-38338327D01*
X55338327Y-38159699D01*
X55435000Y-37926310D01*
X55435000Y-37285750D01*
X55276250Y-37127000D01*
X54127000Y-37127000D01*
X54127000Y-37147000D01*
X53873000Y-37147000D01*
X53873000Y-37127000D01*
X52723750Y-37127000D01*
X52565000Y-37285750D01*
X50627000Y-37285750D01*
X50627000Y-36073690D01*
X52565000Y-36073690D01*
X52565000Y-36714250D01*
X52723750Y-36873000D01*
X53873000Y-36873000D01*
X53873000Y-35723750D01*
X54127000Y-35723750D01*
X54127000Y-36873000D01*
X55276250Y-36873000D01*
X55435000Y-36714250D01*
X55435000Y-36073690D01*
X55338327Y-35840301D01*
X55159698Y-35661673D01*
X54926309Y-35565000D01*
X54285750Y-35565000D01*
X54127000Y-35723750D01*
X53873000Y-35723750D01*
X53714250Y-35565000D01*
X53073691Y-35565000D01*
X52840302Y-35661673D01*
X52661673Y-35840301D01*
X52565000Y-36073690D01*
X50627000Y-36073690D01*
X50627000Y-30627000D01*
X121373000Y-30627000D01*
X121373000Y-76373000D01*
G36*
X106364700Y-64296825D02*
X106364700Y-69910200D01*
X106399106Y-70083173D01*
X106497088Y-70229812D01*
X106933976Y-70666700D01*
X103780260Y-70666700D01*
X103828139Y-70507745D01*
X103000000Y-69679605D01*
X102171861Y-70507745D01*
X102219740Y-70666700D01*
X68918524Y-70666700D01*
X68878719Y-70626895D01*
X69223191Y-70627195D01*
X69637560Y-70455981D01*
X69954867Y-70139228D01*
X70126804Y-69725158D01*
X70127195Y-69276809D01*
X70101465Y-69214537D01*
X70239001Y-69077000D01*
X85018996Y-69077000D01*
X85044019Y-69137560D01*
X85360772Y-69454867D01*
X85774842Y-69626804D01*
X86223191Y-69627195D01*
X86637560Y-69455981D01*
X86810620Y-69283223D01*
X101553035Y-69283223D01*
X101580222Y-69853454D01*
X101746136Y-70254005D01*
X101992255Y-70328139D01*
X102820395Y-69500000D01*
X103179605Y-69500000D01*
X104007745Y-70328139D01*
X104253864Y-70254005D01*
X104446965Y-69716777D01*
X104419778Y-69146546D01*
X104253864Y-68745995D01*
X104007745Y-68671861D01*
X103179605Y-69500000D01*
X102820395Y-69500000D01*
X101992255Y-68671861D01*
X101746136Y-68745995D01*
X101553035Y-69283223D01*
X86810620Y-69283223D01*
X86954867Y-69139228D01*
X87126804Y-68725158D01*
X87127195Y-68276809D01*
X87101465Y-68214537D01*
X87359001Y-67957000D01*
X88541400Y-67957000D01*
X88703091Y-68198988D01*
X89068716Y-68443291D01*
X89500000Y-68529079D01*
X89931284Y-68443291D01*
X90296909Y-68198988D01*
X90541212Y-67833363D01*
X90627000Y-67402079D01*
X90627000Y-67357921D01*
X90541212Y-66926637D01*
X90296909Y-66561012D01*
X90231489Y-66517300D01*
X91308511Y-66517300D01*
X91243091Y-66561012D01*
X90998788Y-66926637D01*
X90913000Y-67357921D01*
X90913000Y-67402079D01*
X90998788Y-67833363D01*
X91243091Y-68198988D01*
X91608716Y-68443291D01*
X92040000Y-68529079D01*
X92471284Y-68443291D01*
X92836909Y-68198988D01*
X93081212Y-67833363D01*
X93167000Y-67402079D01*
X93167000Y-67357921D01*
X93081212Y-66926637D01*
X92836909Y-66561012D01*
X92771489Y-66517300D01*
X93848511Y-66517300D01*
X93783091Y-66561012D01*
X93538788Y-66926637D01*
X93453000Y-67357921D01*
X93453000Y-67402079D01*
X93538788Y-67833363D01*
X93783091Y-68198988D01*
X94148716Y-68443291D01*
X94580000Y-68529079D01*
X95011284Y-68443291D01*
X95376909Y-68198988D01*
X95621212Y-67833363D01*
X95707000Y-67402079D01*
X95707000Y-67357921D01*
X95621212Y-66926637D01*
X95376909Y-66561012D01*
X95311489Y-66517300D01*
X96388511Y-66517300D01*
X96323091Y-66561012D01*
X96078788Y-66926637D01*
X95993000Y-67357921D01*
X95993000Y-67402079D01*
X96078788Y-67833363D01*
X96323091Y-68198988D01*
X96688716Y-68443291D01*
X97120000Y-68529079D01*
X97305126Y-68492255D01*
X102171861Y-68492255D01*
X103000000Y-69320395D01*
X103828139Y-68492255D01*
X103754005Y-68246136D01*
X103216777Y-68053035D01*
X102646546Y-68080222D01*
X102245995Y-68246136D01*
X102171861Y-68492255D01*
X97305126Y-68492255D01*
X97551284Y-68443291D01*
X97916909Y-68198988D01*
X98161212Y-67833363D01*
X98161483Y-67832000D01*
X102683700Y-67832000D01*
X102856673Y-67797594D01*
X103003312Y-67699612D01*
X105896312Y-64806612D01*
X105994294Y-64659973D01*
X106028700Y-64487000D01*
X106028700Y-64414928D01*
X106107935Y-64335831D01*
X106194715Y-64126840D01*
X106364700Y-64296825D01*
X106364700Y-64296825D01*
G37*
X106364700Y-64296825D02*
X106364700Y-69910200D01*
X106399106Y-70083173D01*
X106497088Y-70229812D01*
X106933976Y-70666700D01*
X103780260Y-70666700D01*
X103828139Y-70507745D01*
X103000000Y-69679605D01*
X102171861Y-70507745D01*
X102219740Y-70666700D01*
X68918524Y-70666700D01*
X68878719Y-70626895D01*
X69223191Y-70627195D01*
X69637560Y-70455981D01*
X69954867Y-70139228D01*
X70126804Y-69725158D01*
X70127195Y-69276809D01*
X70101465Y-69214537D01*
X70239001Y-69077000D01*
X85018996Y-69077000D01*
X85044019Y-69137560D01*
X85360772Y-69454867D01*
X85774842Y-69626804D01*
X86223191Y-69627195D01*
X86637560Y-69455981D01*
X86810620Y-69283223D01*
X101553035Y-69283223D01*
X101580222Y-69853454D01*
X101746136Y-70254005D01*
X101992255Y-70328139D01*
X102820395Y-69500000D01*
X103179605Y-69500000D01*
X104007745Y-70328139D01*
X104253864Y-70254005D01*
X104446965Y-69716777D01*
X104419778Y-69146546D01*
X104253864Y-68745995D01*
X104007745Y-68671861D01*
X103179605Y-69500000D01*
X102820395Y-69500000D01*
X101992255Y-68671861D01*
X101746136Y-68745995D01*
X101553035Y-69283223D01*
X86810620Y-69283223D01*
X86954867Y-69139228D01*
X87126804Y-68725158D01*
X87127195Y-68276809D01*
X87101465Y-68214537D01*
X87359001Y-67957000D01*
X88541400Y-67957000D01*
X88703091Y-68198988D01*
X89068716Y-68443291D01*
X89500000Y-68529079D01*
X89931284Y-68443291D01*
X90296909Y-68198988D01*
X90541212Y-67833363D01*
X90627000Y-67402079D01*
X90627000Y-67357921D01*
X90541212Y-66926637D01*
X90296909Y-66561012D01*
X90231489Y-66517300D01*
X91308511Y-66517300D01*
X91243091Y-66561012D01*
X90998788Y-66926637D01*
X90913000Y-67357921D01*
X90913000Y-67402079D01*
X90998788Y-67833363D01*
X91243091Y-68198988D01*
X91608716Y-68443291D01*
X92040000Y-68529079D01*
X92471284Y-68443291D01*
X92836909Y-68198988D01*
X93081212Y-67833363D01*
X93167000Y-67402079D01*
X93167000Y-67357921D01*
X93081212Y-66926637D01*
X92836909Y-66561012D01*
X92771489Y-66517300D01*
X93848511Y-66517300D01*
X93783091Y-66561012D01*
X93538788Y-66926637D01*
X93453000Y-67357921D01*
X93453000Y-67402079D01*
X93538788Y-67833363D01*
X93783091Y-68198988D01*
X94148716Y-68443291D01*
X94580000Y-68529079D01*
X95011284Y-68443291D01*
X95376909Y-68198988D01*
X95621212Y-67833363D01*
X95707000Y-67402079D01*
X95707000Y-67357921D01*
X95621212Y-66926637D01*
X95376909Y-66561012D01*
X95311489Y-66517300D01*
X96388511Y-66517300D01*
X96323091Y-66561012D01*
X96078788Y-66926637D01*
X95993000Y-67357921D01*
X95993000Y-67402079D01*
X96078788Y-67833363D01*
X96323091Y-68198988D01*
X96688716Y-68443291D01*
X97120000Y-68529079D01*
X97305126Y-68492255D01*
X102171861Y-68492255D01*
X103000000Y-69320395D01*
X103828139Y-68492255D01*
X103754005Y-68246136D01*
X103216777Y-68053035D01*
X102646546Y-68080222D01*
X102245995Y-68246136D01*
X102171861Y-68492255D01*
X97305126Y-68492255D01*
X97551284Y-68443291D01*
X97916909Y-68198988D01*
X98161212Y-67833363D01*
X98161483Y-67832000D01*
X102683700Y-67832000D01*
X102856673Y-67797594D01*
X103003312Y-67699612D01*
X105896312Y-64806612D01*
X105994294Y-64659973D01*
X106028700Y-64487000D01*
X106028700Y-64414928D01*
X106107935Y-64335831D01*
X106194715Y-64126840D01*
X106364700Y-64296825D01*
G36*
X83142069Y-62858935D02*
X83295633Y-62922700D01*
X81009200Y-62922700D01*
X80836227Y-62957106D01*
X80689588Y-63055088D01*
X79927734Y-63816942D01*
X79836909Y-63681012D01*
X79471284Y-63436709D01*
X79040000Y-63350921D01*
X78608716Y-63436709D01*
X78243091Y-63681012D01*
X77998788Y-64046637D01*
X77933871Y-64372998D01*
X77776252Y-64372998D01*
X77935000Y-64214250D01*
X77935000Y-63573691D01*
X77838327Y-63340302D01*
X77659699Y-63161673D01*
X77426310Y-63065000D01*
X76785750Y-63065000D01*
X76627000Y-63223750D01*
X76627000Y-64373000D01*
X76647000Y-64373000D01*
X76647000Y-64627000D01*
X76627000Y-64627000D01*
X76627000Y-64647000D01*
X76373000Y-64647000D01*
X76373000Y-64627000D01*
X75223750Y-64627000D01*
X75065000Y-64785750D01*
X75065000Y-65426309D01*
X75142454Y-65613300D01*
X70141581Y-65613300D01*
X70303291Y-65371284D01*
X70389079Y-64940000D01*
X70303291Y-64508716D01*
X70302643Y-64507745D01*
X71671861Y-64507745D01*
X71745995Y-64753864D01*
X72283223Y-64946965D01*
X72853454Y-64919778D01*
X73254005Y-64753864D01*
X73328139Y-64507745D01*
X72500000Y-63679605D01*
X71671861Y-64507745D01*
X70302643Y-64507745D01*
X70058988Y-64143091D01*
X69846933Y-64001400D01*
X69914800Y-64001400D01*
X70087773Y-63966994D01*
X70234412Y-63869012D01*
X71183686Y-62919738D01*
X71053035Y-63283223D01*
X71080222Y-63853454D01*
X71246136Y-64254005D01*
X71492255Y-64328139D01*
X72320395Y-63500000D01*
X72306252Y-63485858D01*
X72485858Y-63306252D01*
X72500000Y-63320395D01*
X72514142Y-63306252D01*
X72693748Y-63485858D01*
X72679605Y-63500000D01*
X73507745Y-64328139D01*
X73753864Y-64254005D01*
X73946965Y-63716777D01*
X73940144Y-63573691D01*
X75065000Y-63573691D01*
X75065000Y-64214250D01*
X75223750Y-64373000D01*
X76373000Y-64373000D01*
X76373000Y-63223750D01*
X76214250Y-63065000D01*
X75573690Y-63065000D01*
X75340301Y-63161673D01*
X75161673Y-63340302D01*
X75065000Y-63573691D01*
X73940144Y-63573691D01*
X73919778Y-63146546D01*
X73767825Y-62779700D01*
X83062972Y-62779700D01*
X83142069Y-62858935D01*
X83142069Y-62858935D01*
G37*
X83142069Y-62858935D02*
X83295633Y-62922700D01*
X81009200Y-62922700D01*
X80836227Y-62957106D01*
X80689588Y-63055088D01*
X79927734Y-63816942D01*
X79836909Y-63681012D01*
X79471284Y-63436709D01*
X79040000Y-63350921D01*
X78608716Y-63436709D01*
X78243091Y-63681012D01*
X77998788Y-64046637D01*
X77933871Y-64372998D01*
X77776252Y-64372998D01*
X77935000Y-64214250D01*
X77935000Y-63573691D01*
X77838327Y-63340302D01*
X77659699Y-63161673D01*
X77426310Y-63065000D01*
X76785750Y-63065000D01*
X76627000Y-63223750D01*
X76627000Y-64373000D01*
X76647000Y-64373000D01*
X76647000Y-64627000D01*
X76627000Y-64627000D01*
X76627000Y-64647000D01*
X76373000Y-64647000D01*
X76373000Y-64627000D01*
X75223750Y-64627000D01*
X75065000Y-64785750D01*
X75065000Y-65426309D01*
X75142454Y-65613300D01*
X70141581Y-65613300D01*
X70303291Y-65371284D01*
X70389079Y-64940000D01*
X70303291Y-64508716D01*
X70302643Y-64507745D01*
X71671861Y-64507745D01*
X71745995Y-64753864D01*
X72283223Y-64946965D01*
X72853454Y-64919778D01*
X73254005Y-64753864D01*
X73328139Y-64507745D01*
X72500000Y-63679605D01*
X71671861Y-64507745D01*
X70302643Y-64507745D01*
X70058988Y-64143091D01*
X69846933Y-64001400D01*
X69914800Y-64001400D01*
X70087773Y-63966994D01*
X70234412Y-63869012D01*
X71183686Y-62919738D01*
X71053035Y-63283223D01*
X71080222Y-63853454D01*
X71246136Y-64254005D01*
X71492255Y-64328139D01*
X72320395Y-63500000D01*
X72306252Y-63485858D01*
X72485858Y-63306252D01*
X72500000Y-63320395D01*
X72514142Y-63306252D01*
X72693748Y-63485858D01*
X72679605Y-63500000D01*
X73507745Y-64328139D01*
X73753864Y-64254005D01*
X73946965Y-63716777D01*
X73940144Y-63573691D01*
X75065000Y-63573691D01*
X75065000Y-64214250D01*
X75223750Y-64373000D01*
X76373000Y-64373000D01*
X76373000Y-63223750D01*
X76214250Y-63065000D01*
X75573690Y-63065000D01*
X75340301Y-63161673D01*
X75161673Y-63340302D01*
X75065000Y-63573691D01*
X73940144Y-63573691D01*
X73919778Y-63146546D01*
X73767825Y-62779700D01*
X83062972Y-62779700D01*
X83142069Y-62858935D01*
G36*
X105430195Y-63362319D02*
X105221997Y-63448345D01*
X105045465Y-63624569D01*
X104949809Y-63854935D01*
X104949591Y-64104371D01*
X105044845Y-64334903D01*
X105067189Y-64357287D01*
X104621770Y-64802706D01*
X104563291Y-64508716D01*
X104318988Y-64143091D01*
X103953363Y-63898788D01*
X103522079Y-63813000D01*
X103477921Y-63813000D01*
X103046637Y-63898788D01*
X102681012Y-64143091D01*
X102450551Y-64488000D01*
X102374700Y-64488000D01*
X102201727Y-64522406D01*
X102055088Y-64620387D01*
X101062176Y-65613300D01*
X100227398Y-65613300D01*
X100512389Y-65355134D01*
X100751914Y-64849041D01*
X100630629Y-64627000D01*
X99487000Y-64627000D01*
X99487000Y-64647000D01*
X99233000Y-64647000D01*
X99233000Y-64627000D01*
X99213000Y-64627000D01*
X99213000Y-64373000D01*
X99233000Y-64373000D01*
X99233000Y-63230085D01*
X99487000Y-63230085D01*
X99487000Y-64373000D01*
X100630629Y-64373000D01*
X100751914Y-64150959D01*
X100512389Y-63644866D01*
X100097423Y-63268959D01*
X99709039Y-63108096D01*
X99487000Y-63230085D01*
X99233000Y-63230085D01*
X99010961Y-63108096D01*
X98622577Y-63268959D01*
X98207611Y-63644866D01*
X97968086Y-64150959D01*
X98089370Y-64372998D01*
X97926129Y-64372998D01*
X97861212Y-64046637D01*
X97616909Y-63681012D01*
X97251284Y-63436709D01*
X96820000Y-63350921D01*
X96388716Y-63436709D01*
X96023091Y-63681012D01*
X95778788Y-64046637D01*
X95778517Y-64048000D01*
X95321483Y-64048000D01*
X95321212Y-64046637D01*
X95076909Y-63681012D01*
X94711284Y-63436709D01*
X94280000Y-63350921D01*
X93848716Y-63436709D01*
X93483091Y-63681012D01*
X93238788Y-64046637D01*
X93238517Y-64048000D01*
X92781483Y-64048000D01*
X92781212Y-64046637D01*
X92536909Y-63681012D01*
X92171284Y-63436709D01*
X91740000Y-63350921D01*
X91308716Y-63436709D01*
X90943091Y-63681012D01*
X90698788Y-64046637D01*
X90698517Y-64048000D01*
X90241483Y-64048000D01*
X90241212Y-64046637D01*
X89996909Y-63681012D01*
X89631284Y-63436709D01*
X89200000Y-63350921D01*
X88768716Y-63436709D01*
X88403091Y-63681012D01*
X88312266Y-63816942D01*
X87550412Y-63055088D01*
X87403773Y-62957106D01*
X87230800Y-62922700D01*
X83699581Y-62922700D01*
X83852403Y-62859555D01*
X83932398Y-62779700D01*
X102145015Y-62779700D01*
X102201727Y-62817594D01*
X102374700Y-62852000D01*
X102450551Y-62852000D01*
X102681012Y-63196909D01*
X103046637Y-63441212D01*
X103477921Y-63527000D01*
X103522079Y-63527000D01*
X103953363Y-63441212D01*
X104318988Y-63196909D01*
X104563291Y-62831284D01*
X104619015Y-62551140D01*
X105430195Y-63362319D01*
X105430195Y-63362319D01*
G37*
X105430195Y-63362319D02*
X105221997Y-63448345D01*
X105045465Y-63624569D01*
X104949809Y-63854935D01*
X104949591Y-64104371D01*
X105044845Y-64334903D01*
X105067189Y-64357287D01*
X104621770Y-64802706D01*
X104563291Y-64508716D01*
X104318988Y-64143091D01*
X103953363Y-63898788D01*
X103522079Y-63813000D01*
X103477921Y-63813000D01*
X103046637Y-63898788D01*
X102681012Y-64143091D01*
X102450551Y-64488000D01*
X102374700Y-64488000D01*
X102201727Y-64522406D01*
X102055088Y-64620387D01*
X101062176Y-65613300D01*
X100227398Y-65613300D01*
X100512389Y-65355134D01*
X100751914Y-64849041D01*
X100630629Y-64627000D01*
X99487000Y-64627000D01*
X99487000Y-64647000D01*
X99233000Y-64647000D01*
X99233000Y-64627000D01*
X99213000Y-64627000D01*
X99213000Y-64373000D01*
X99233000Y-64373000D01*
X99233000Y-63230085D01*
X99487000Y-63230085D01*
X99487000Y-64373000D01*
X100630629Y-64373000D01*
X100751914Y-64150959D01*
X100512389Y-63644866D01*
X100097423Y-63268959D01*
X99709039Y-63108096D01*
X99487000Y-63230085D01*
X99233000Y-63230085D01*
X99010961Y-63108096D01*
X98622577Y-63268959D01*
X98207611Y-63644866D01*
X97968086Y-64150959D01*
X98089370Y-64372998D01*
X97926129Y-64372998D01*
X97861212Y-64046637D01*
X97616909Y-63681012D01*
X97251284Y-63436709D01*
X96820000Y-63350921D01*
X96388716Y-63436709D01*
X96023091Y-63681012D01*
X95778788Y-64046637D01*
X95778517Y-64048000D01*
X95321483Y-64048000D01*
X95321212Y-64046637D01*
X95076909Y-63681012D01*
X94711284Y-63436709D01*
X94280000Y-63350921D01*
X93848716Y-63436709D01*
X93483091Y-63681012D01*
X93238788Y-64046637D01*
X93238517Y-64048000D01*
X92781483Y-64048000D01*
X92781212Y-64046637D01*
X92536909Y-63681012D01*
X92171284Y-63436709D01*
X91740000Y-63350921D01*
X91308716Y-63436709D01*
X90943091Y-63681012D01*
X90698788Y-64046637D01*
X90698517Y-64048000D01*
X90241483Y-64048000D01*
X90241212Y-64046637D01*
X89996909Y-63681012D01*
X89631284Y-63436709D01*
X89200000Y-63350921D01*
X88768716Y-63436709D01*
X88403091Y-63681012D01*
X88312266Y-63816942D01*
X87550412Y-63055088D01*
X87403773Y-62957106D01*
X87230800Y-62922700D01*
X83699581Y-62922700D01*
X83852403Y-62859555D01*
X83932398Y-62779700D01*
X102145015Y-62779700D01*
X102201727Y-62817594D01*
X102374700Y-62852000D01*
X102450551Y-62852000D01*
X102681012Y-63196909D01*
X103046637Y-63441212D01*
X103477921Y-63527000D01*
X103522079Y-63527000D01*
X103953363Y-63441212D01*
X104318988Y-63196909D01*
X104563291Y-62831284D01*
X104619015Y-62551140D01*
X105430195Y-63362319D01*
M02*
