M48
;DRILL file {KiCad 4.0.7} date 07/30/18 12:41:58
;FORMAT={2:4/ absolute / inch / suppress leading zeros}
FMAT,2
INCH,TZ
T1C0.016
T2C0.030
T3C0.031
T4C0.039
T5C0.126
T6C0.138
%
G90
G05
M72
T1
X38546Y-43952
X38659Y-36000
X39242Y-28713
X45441Y-18220
X46085Y-23259
X46474Y-50533
T2
X24953Y-23559
X24953Y-24559
X24953Y-25559
X24953Y-26559
X24953Y-27559
X24953Y-28559
X24953Y-29559
X24953Y-30559
X30953Y-23559
X30953Y-24559
X30953Y-25559
X30953Y-26559
X30953Y-27559
X30953Y-28559
X30953Y-29559
X30953Y-30559
X34008Y-20409
X34008Y-21409
X34008Y-22409
X34008Y-23409
X34008Y-24409
X34008Y-25409
X34008Y-26409
X34008Y-27409
X40008Y-20409
X40008Y-21409
X40008Y-22409
X40008Y-23409
X40008Y-24409
X40008Y-25409
X40008Y-26409
X40008Y-27409
X43110Y-20669
X43110Y-21669
X43110Y-22669
X43110Y-23669
X48110Y-20669
X48110Y-21669
X48110Y-22669
X48110Y-23669
X50150Y-22378
X50150Y-23378
X50150Y-24378
X50150Y-25378
X50150Y-26378
X50150Y-27378
X50150Y-28378
X50150Y-29378
X56150Y-22378
X56150Y-23378
X56150Y-24378
X56150Y-25378
X56150Y-26378
X56150Y-27378
X56150Y-28378
X56150Y-29378
T3
X25394Y-33268
X25400Y-35700
X29394Y-33268
X29400Y-35700
X31550Y-34881
X31550Y-35881
X31550Y-36881
X31550Y-37881
X31550Y-38881
X31550Y-39881
X32283Y-18701
X32283Y-22701
X32677Y-28937
X32677Y-30906
X35550Y-34881
X35550Y-35881
X35550Y-36881
X35550Y-37881
X35550Y-38881
X35550Y-39881
X36500Y-52516
X36500Y-53500
X37000Y-46500
X37000Y-49500
X37795Y-43307
X39764Y-43307
X40000Y-46500
X40000Y-49500
X41929Y-25394
X41929Y-27362
X42000Y-15000
X42000Y-32000
X42000Y-33000
X42000Y-34000
X42000Y-35000
X42000Y-36000
X42000Y-37000
X42000Y-38000
X42000Y-39000
X42000Y-40000
X42000Y-41000
X42000Y-42000
X42000Y-43000
X42000Y-44000
X42000Y-45000
X42000Y-46000
X42000Y-47000
X42000Y-48000
X42000Y-49000
X42000Y-50000
X42000Y-51000
X42050Y-18400
X42787Y-15000
X42837Y-18400
X43575Y-15000
X43625Y-18400
X44291Y-29724
X44362Y-15000
X44412Y-18400
X46260Y-29724
X46500Y-15000
X47287Y-15000
X48000Y-32000
X48000Y-33000
X48000Y-34000
X48000Y-35000
X48000Y-36000
X48000Y-37000
X48000Y-38000
X48000Y-39000
X48000Y-40000
X48000Y-41000
X48000Y-42000
X48000Y-43000
X48000Y-44000
X48000Y-45000
X48000Y-46000
X48000Y-47000
X48000Y-48000
X48000Y-49000
X48000Y-50000
X48000Y-51000
X48075Y-15000
X48862Y-15000
X50581Y-36299
X51000Y-15000
X51100Y-17150
X51100Y-21150
X51787Y-15000
X51850Y-48831
X51850Y-50800
X52550Y-36299
X52575Y-15000
X53362Y-15000
X53740Y-17126
X53740Y-21126
X56693Y-15945
X56693Y-17913
X56700Y-39750
X56700Y-40750
X56700Y-41750
X56700Y-42750
X56700Y-43750
X56700Y-44750
X56700Y-45750
X56700Y-46750
X56700Y-47750
X56700Y-48750
X57874Y-22244
X57874Y-24213
X59171Y-28650
X59171Y-32650
X59700Y-39750
X59700Y-40750
X59700Y-41750
X59700Y-42750
X59700Y-43750
X59700Y-44750
X59700Y-45750
X59700Y-46750
X59700Y-47750
X59700Y-48750
X61417Y-15945
X61417Y-17913
X61614Y-22638
X61614Y-26638
X61621Y-28600
X61621Y-32600
X66350Y-42700
X66535Y-15748
X66535Y-17717
X66866Y-36200
X67850Y-36200
X68110Y-22835
X68110Y-26835
X68319Y-42700
X72441Y-15748
X72441Y-17717
T4
X22835Y-38764
X22835Y-39764
X25689Y-15732
X25689Y-16732
X26689Y-15732
X26689Y-16732
X27689Y-15732
X27689Y-16732
X28689Y-15732
X28689Y-16732
X29689Y-15732
X29689Y-16732
X32700Y-44750
X32700Y-45750
X32700Y-46750
X32700Y-47750
X32700Y-48750
X33661Y-15732
X33661Y-16732
X34661Y-15732
X34661Y-16732
X34843Y-30118
X34843Y-31118
X34843Y-32118
X35661Y-15732
X35661Y-16732
X36661Y-15732
X36661Y-16732
X36811Y-30118
X36811Y-31118
X36811Y-32118
X37661Y-15732
X37661Y-16732
X38350Y-37550
X38350Y-38550
X38350Y-39550
X38386Y-35039
X38780Y-30118
X38780Y-31118
X38780Y-32118
X39350Y-37550
X39350Y-38550
X39350Y-39550
X39386Y-35039
X39764Y-53724
X39764Y-54724
X40764Y-53724
X40764Y-54724
X41764Y-53724
X41764Y-54724
X42764Y-53724
X42764Y-54724
X43764Y-53724
X43764Y-54724
X44764Y-53724
X44764Y-54724
X45764Y-53724
X45764Y-54724
X46764Y-53724
X46764Y-54724
X47764Y-53724
X47764Y-54724
X48764Y-53724
X48764Y-54724
X49764Y-53724
X49764Y-54724
X50102Y-32087
X50102Y-33087
X50102Y-34087
X50764Y-53724
X50764Y-54724
X51764Y-53724
X51764Y-54724
X52102Y-32087
X52102Y-33087
X52102Y-34087
X52764Y-53724
X52764Y-54724
X53764Y-53724
X53764Y-54724
X54102Y-32087
X54102Y-33087
X54102Y-34087
X54764Y-53724
X54764Y-54724
X55764Y-53724
X55764Y-54724
X56102Y-32087
X56102Y-33087
X56102Y-34087
X56764Y-53724
X56764Y-54724
X57764Y-53724
X57764Y-54724
X58764Y-53724
X58764Y-54724
X63976Y-24394
X63976Y-25394
X64976Y-24394
X64976Y-25394
X65976Y-24394
X65976Y-25394
X71650Y-42700
X72650Y-42700
X73650Y-42700
X74650Y-42700
T5
X21654Y-13780
X21654Y-54724
X78740Y-13780
X78740Y-54724
T6
X73150Y-36141
T0
M30
