M48
;DRILL file {KiCad 4.0.7} date 03/07/19 09:20:21
;FORMAT={2:4/ absolute / inch / suppress leading zeros}
FMAT,2
INCH,TZ
T1C0.016
T2C0.030
T3C0.031
T4C0.035
T5C0.039
T6C0.126
%
G90
G05
M72
T1
X42357Y-43512
X44478Y-44583
X45988Y-37865
X46197Y-43398
X47479Y-47118
X47802Y-27782
X52257Y-42139
X52427Y-44629
X53569Y-45083
X54321Y-39707
X56271Y-25749
X56586Y-40786
X57078Y-41045
X59200Y-42045
X59201Y-35404
X60081Y-23602
X62536Y-42600
T2
X23228Y-16929
X23228Y-51575
X34941Y-32480
X48720Y-17815
X53543Y-51673
X67618Y-18012
X77559Y-16929
X77559Y-51575
T3
X23031Y-22638
X23031Y-26378
X23031Y-30118
X23031Y-33858
X23031Y-37598
X23031Y-41339
X23031Y-45079
X27031Y-22638
X27031Y-26378
X27031Y-30118
X27031Y-33858
X27031Y-37598
X27031Y-41339
X27031Y-45079
X33417Y-29402
X33417Y-30402
X33417Y-31402
X33417Y-32402
X33417Y-33402
X33417Y-34402
X33417Y-35402
X33417Y-36402
X33417Y-37402
X36417Y-29402
X36417Y-30402
X36417Y-31402
X36417Y-32402
X36417Y-33402
X36417Y-34402
X36417Y-35402
X36417Y-36402
X36417Y-37402
X39764Y-49803
X39764Y-50787
X45276Y-38583
X45276Y-39583
X45276Y-40583
X45276Y-41583
X45276Y-42583
X45276Y-43583
X45276Y-44583
X45276Y-45583
X45276Y-46583
X45276Y-47583
X45472Y-16339
X45472Y-17339
X45472Y-18339
X45472Y-19339
X45472Y-20339
X45472Y-21339
X45472Y-22339
X45472Y-23339
X45472Y-24339
X45472Y-25339
X45472Y-26339
X45472Y-27339
X45472Y-28339
X45472Y-29339
X45472Y-30339
X45472Y-31339
X45669Y-36614
X47441Y-14370
X47638Y-36614
X48276Y-38583
X48276Y-39583
X48276Y-40583
X48276Y-41583
X48276Y-42583
X48276Y-43583
X48276Y-44583
X48276Y-45583
X48276Y-46583
X48276Y-47583
X49409Y-14370
X51472Y-16339
X51472Y-17339
X51472Y-18339
X51472Y-19339
X51472Y-20339
X51472Y-21339
X51472Y-22339
X51472Y-23339
X51472Y-24339
X51472Y-25339
X51472Y-26339
X51472Y-27339
X51472Y-28339
X51472Y-29339
X51472Y-30339
X51472Y-31339
X55512Y-38583
X55512Y-39583
X55512Y-40583
X55512Y-41583
X55512Y-42583
X55512Y-43583
X55512Y-44583
X55512Y-45583
X55512Y-46583
X55512Y-47583
X55512Y-48583
X55512Y-49583
X55906Y-36614
X57874Y-36614
X58512Y-38583
X58512Y-39583
X58512Y-40583
X58512Y-41583
X58512Y-42583
X58512Y-43583
X58512Y-44583
X58512Y-45583
X58512Y-46583
X58512Y-47583
X58512Y-48583
X58512Y-49583
X64567Y-17520
X64567Y-18520
X64567Y-19520
X64567Y-20520
X64567Y-21520
X64567Y-22520
X64567Y-23520
X64567Y-24520
X64567Y-25520
X64567Y-26520
X64567Y-27520
X64567Y-28520
X64567Y-29520
X64567Y-30520
X66535Y-15551
X66929Y-38780
X66929Y-39780
X66929Y-40780
X66929Y-41780
X66929Y-42780
X66929Y-43780
X66929Y-44780
X66929Y-45780
X66929Y-46780
X66929Y-47780
X67323Y-36811
X68504Y-15551
X69291Y-36811
X69929Y-38780
X69929Y-39780
X69929Y-40780
X69929Y-41780
X69929Y-42780
X69929Y-43780
X69929Y-44780
X69929Y-45780
X69929Y-46780
X69929Y-47780
X70567Y-17520
X70567Y-18520
X70567Y-19520
X70567Y-20520
X70567Y-21520
X70567Y-22520
X70567Y-23520
X70567Y-24520
X70567Y-25520
X70567Y-26520
X70567Y-27520
X70567Y-28520
X70567Y-29520
X70567Y-30520
T4
X28921Y-22638
X28921Y-26378
X28921Y-30118
X28921Y-33858
X28921Y-37598
X28921Y-41339
X28921Y-45079
X29921Y-22638
X29921Y-26378
X29921Y-30118
X29921Y-33858
X29921Y-37598
X29921Y-41339
X29921Y-45079
T5
X39764Y-53724
X39764Y-54724
X40764Y-53724
X40764Y-54724
X41764Y-53724
X41764Y-54724
X42764Y-53724
X42764Y-54724
X43764Y-53724
X43764Y-54724
X44764Y-53724
X44764Y-54724
X45764Y-53724
X45764Y-54724
X46764Y-53724
X46764Y-54724
X47764Y-53724
X47764Y-54724
X48764Y-53724
X48764Y-54724
X49764Y-53724
X49764Y-54724
X50764Y-53724
X50764Y-54724
X51764Y-53724
X51764Y-54724
X52764Y-53724
X52764Y-54724
X53764Y-53724
X53764Y-54724
X54764Y-53724
X54764Y-54724
X55764Y-53724
X55764Y-54724
X56764Y-53724
X56764Y-54724
X57764Y-53724
X57764Y-54724
X58764Y-53724
X58764Y-54724
T6
X21654Y-13780
X21654Y-54724
X78740Y-13780
X78740Y-54724
T0
M30
