M48
;DRILL file {KiCad 4.0.7} date 07/05/19 16:22:56
;FORMAT={-:-/ absolute / inch / decimal}
FMAT,2
INCH,TZ
T1C0.016
T2C0.030
T3C0.031
T4C0.039
T5C0.126
%
G90
G05
M72
T1
X3.5734Y-2.7412
X3.7276Y-2.5808
X3.7803Y-2.4352
X3.9041Y-3.0056
X3.9606Y-1.9208
X3.9921Y-1.9273
X3.9975Y-1.9598
X4.0019Y-1.8517
X4.1392Y-2.3155
X4.1885Y-2.2822
X4.1921Y-2.9867
X4.2267Y-2.9037
X4.2773Y-5.5405
X4.3029Y-2.9794
X4.4078Y-2.907
X4.5208Y-5.5145
X4.7447Y-5.5599
X4.8242Y-5.2944
X4.8961Y-5.2674
X4.9121Y-5.32
X4.924Y-5.2345
X5.5832Y-3.5278
X5.7532Y-3.5004
X5.7832Y-3.5546
X6.1747Y-3.1209
X6.4447Y-2.4423
X6.4735Y-2.411
X6.5226Y-2.3633
X6.5731Y-2.3122
X6.621Y-2.2658
X6.6593Y-1.8096
X6.6862Y-2.2262
X6.7211Y-1.786
X6.7538Y-2.1514
T2
X2.126Y-5.0394
X2.3228Y-1.6929
X2.3228Y-5.1575
X3.5827Y-4.1142
X4.9213Y-2.4803
X6.437Y-3.8386
X7.7559Y-1.6929
X7.7559Y-5.1575
T3
X2.126Y-2.5984
X2.126Y-2.7953
X2.126Y-3.4843
X2.126Y-3.6811
X2.2835Y-2.5543
X2.2835Y-2.8543
X2.2835Y-3.4402
X2.2835Y-3.7402
X2.3835Y-2.5543
X2.3835Y-2.8543
X2.3835Y-3.4402
X2.3835Y-3.7402
X2.4835Y-2.5543
X2.4835Y-2.8543
X2.4835Y-3.4402
X2.4835Y-3.7402
X2.489Y-4.2913
X2.489Y-4.5913
X2.5835Y-2.5543
X2.5835Y-2.8543
X2.5835Y-3.4402
X2.5835Y-3.7402
X2.589Y-4.2913
X2.589Y-4.5913
X2.6835Y-2.5543
X2.6835Y-2.8543
X2.6835Y-3.4402
X2.6835Y-3.7402
X2.689Y-4.2913
X2.689Y-4.5913
X2.7835Y-2.5543
X2.7835Y-2.8543
X2.7835Y-3.4402
X2.7835Y-3.7402
X2.789Y-4.2913
X2.789Y-4.5913
X2.8835Y-2.5543
X2.8835Y-2.8543
X2.8835Y-3.4402
X2.8835Y-3.7402
X2.889Y-4.2913
X2.889Y-4.5913
X2.9835Y-2.5543
X2.9835Y-2.8543
X2.9835Y-3.4402
X2.9835Y-3.7402
X2.989Y-4.2913
X2.989Y-4.5913
X3.0835Y-2.5543
X3.0835Y-2.8543
X3.0835Y-3.4402
X3.0835Y-3.7402
X3.089Y-4.2913
X3.089Y-4.5913
X3.1835Y-2.5543
X3.1835Y-2.8543
X3.1835Y-3.4402
X3.1835Y-3.7402
X3.189Y-4.2913
X3.189Y-4.5913
X3.3661Y-4.3307
X3.3661Y-4.5276
X3.5236Y-2.5984
X3.5236Y-2.7953
X3.5236Y-3.4843
X3.5236Y-3.6811
X3.6811Y-2.5543
X3.6811Y-2.8543
X3.6811Y-3.4402
X3.6811Y-3.7402
X3.6866Y-4.2913
X3.6866Y-4.5913
X3.7811Y-2.5543
X3.7811Y-2.8543
X3.7811Y-3.4402
X3.7811Y-3.7402
X3.7866Y-4.2913
X3.7866Y-4.5913
X3.8811Y-2.5543
X3.8811Y-2.8543
X3.8811Y-3.4402
X3.8811Y-3.7402
X3.8866Y-4.2913
X3.8866Y-4.5913
X3.9811Y-2.5543
X3.9811Y-2.8543
X3.9811Y-3.4402
X3.9811Y-3.7402
X3.9866Y-4.2913
X3.9866Y-4.5913
X4.0157Y-4.9606
X4.0811Y-2.5543
X4.0811Y-2.8543
X4.0811Y-3.4402
X4.0811Y-3.7402
X4.0866Y-4.2913
X4.0866Y-4.5913
X4.1142Y-4.9606
X4.1811Y-2.5543
X4.1811Y-2.8543
X4.1811Y-3.4402
X4.1811Y-3.7402
X4.1866Y-4.2913
X4.1866Y-4.5913
X4.2811Y-2.5543
X4.2811Y-2.8543
X4.2811Y-3.4402
X4.2811Y-3.7402
X4.2866Y-4.2913
X4.2866Y-4.5913
X4.3811Y-2.5543
X4.3811Y-2.8543
X4.3811Y-3.4402
X4.3811Y-3.7402
X4.3866Y-4.2913
X4.3866Y-4.5913
X4.4811Y-2.5543
X4.4811Y-2.8543
X4.4811Y-3.4402
X4.4811Y-3.7402
X4.4866Y-4.2913
X4.4866Y-4.5913
X4.5811Y-2.5543
X4.5811Y-2.8543
X4.5811Y-3.4402
X4.5811Y-3.7402
X4.5866Y-4.2913
X4.5866Y-4.5913
X4.7835Y-4.3504
X4.7835Y-4.5472
X4.9016Y-4.7244
X4.9016Y-4.9213
X4.9213Y-3.1693
X4.9213Y-3.3661
X5.1378Y-3.1055
X5.1378Y-3.4055
X5.1378Y-4.7
X5.1378Y-5.
X5.2362Y-3.8535
X5.2362Y-4.1535
X5.2378Y-3.1055
X5.2378Y-3.4055
X5.2378Y-4.7
X5.2378Y-5.
X5.2559Y-2.3772
X5.2559Y-2.6772
X5.3362Y-3.8535
X5.3362Y-4.1535
X5.3378Y-3.1055
X5.3378Y-3.4055
X5.3378Y-4.7
X5.3378Y-5.
X5.3559Y-2.3772
X5.3559Y-2.6772
X5.4362Y-3.8535
X5.4362Y-4.1535
X5.4378Y-3.1055
X5.4378Y-3.4055
X5.4378Y-4.7
X5.4378Y-5.
X5.4559Y-2.3772
X5.4559Y-2.6772
X5.5362Y-3.8535
X5.5362Y-4.1535
X5.5378Y-3.1055
X5.5378Y-3.4055
X5.5378Y-4.7
X5.5378Y-5.
X5.5559Y-2.3772
X5.5559Y-2.6772
X5.6362Y-3.8535
X5.6362Y-4.1535
X5.6378Y-3.1055
X5.6378Y-3.4055
X5.6378Y-4.7
X5.6378Y-5.
X5.6559Y-2.3772
X5.6559Y-2.6772
X5.7362Y-3.8535
X5.7362Y-4.1535
X5.7378Y-3.1055
X5.7378Y-3.4055
X5.7378Y-4.7
X5.7378Y-5.
X5.7559Y-2.3772
X5.7559Y-2.6772
X5.8362Y-3.8535
X5.8362Y-4.1535
X5.8378Y-3.1055
X5.8378Y-3.4055
X5.8378Y-4.7
X5.8378Y-5.
X5.8559Y-2.3772
X5.8559Y-2.6772
X5.9362Y-3.8535
X5.9362Y-4.1535
X5.9378Y-3.1055
X5.9378Y-3.4055
X5.9378Y-4.7
X5.9378Y-5.
X5.9559Y-2.3772
X5.9559Y-2.6772
X6.0362Y-3.8535
X6.0362Y-4.1535
X6.0378Y-3.1055
X6.0378Y-3.4055
X6.0378Y-4.7
X6.0378Y-5.
X6.0559Y-2.3772
X6.0559Y-2.6772
X6.2598Y-3.8976
X6.2598Y-4.0945
X6.2992Y-2.4409
X6.2992Y-2.6378
X6.3976Y-3.1299
X6.3976Y-3.3268
X6.3976Y-4.7441
X6.3976Y-4.9409
X6.6142Y-2.3575
X6.6142Y-2.6575
X6.6142Y-3.0858
X6.6142Y-3.3858
X6.6142Y-3.8339
X6.6142Y-4.1339
X6.6142Y-4.6803
X6.6142Y-4.9803
X6.7142Y-2.3575
X6.7142Y-2.6575
X6.7142Y-3.0858
X6.7142Y-3.3858
X6.7142Y-3.8339
X6.7142Y-4.1339
X6.7142Y-4.6803
X6.7142Y-4.9803
X6.8142Y-2.3575
X6.8142Y-2.6575
X6.8142Y-3.0858
X6.8142Y-3.3858
X6.8142Y-3.8339
X6.8142Y-4.1339
X6.8142Y-4.6803
X6.8142Y-4.9803
X6.9142Y-2.3575
X6.9142Y-2.6575
X6.9142Y-3.0858
X6.9142Y-3.3858
X6.9142Y-3.8339
X6.9142Y-4.1339
X6.9142Y-4.6803
X6.9142Y-4.9803
X7.0142Y-2.3575
X7.0142Y-2.6575
X7.0142Y-3.0858
X7.0142Y-3.3858
X7.0142Y-3.8339
X7.0142Y-4.1339
X7.0142Y-4.6803
X7.0142Y-4.9803
X7.1142Y-2.3575
X7.1142Y-2.6575
X7.1142Y-3.0858
X7.1142Y-3.3858
X7.1142Y-3.8339
X7.1142Y-4.1339
X7.1142Y-4.6803
X7.1142Y-4.9803
X7.2142Y-2.3575
X7.2142Y-2.6575
X7.2142Y-3.0858
X7.2142Y-3.3858
X7.2142Y-3.8339
X7.2142Y-4.1339
X7.2142Y-4.6803
X7.2142Y-4.9803
X7.3142Y-2.3575
X7.3142Y-2.6575
X7.3142Y-3.0858
X7.3142Y-3.3858
X7.3142Y-3.8339
X7.3142Y-4.1339
X7.3142Y-4.6803
X7.3142Y-4.9803
X7.4142Y-2.3575
X7.4142Y-2.6575
X7.4142Y-3.0858
X7.4142Y-3.3858
X7.4142Y-3.8339
X7.4142Y-4.1339
X7.4142Y-4.6803
X7.4142Y-4.9803
X7.5142Y-3.0858
X7.5142Y-3.3858
X7.5142Y-4.6803
X7.5142Y-4.9803
X7.6378Y-2.4016
X7.6378Y-2.5984
X7.6378Y-3.8976
X7.6378Y-4.0945
T4
X2.126Y-4.8016
X2.126Y-4.9016
X2.815Y-1.652
X2.815Y-1.752
X2.915Y-1.652
X2.915Y-1.752
X3.015Y-1.652
X3.015Y-1.752
X3.115Y-1.652
X3.115Y-1.752
X3.215Y-1.652
X3.215Y-1.752
X3.315Y-1.652
X3.315Y-1.752
X3.415Y-1.652
X3.415Y-1.752
X3.515Y-1.652
X3.515Y-1.752
X3.615Y-1.652
X3.615Y-1.752
X3.715Y-1.652
X3.715Y-1.752
X3.815Y-1.652
X3.815Y-1.752
X3.915Y-1.652
X3.915Y-1.752
X3.9764Y-5.3724
X3.9764Y-5.4724
X4.015Y-1.652
X4.015Y-1.752
X4.0764Y-5.3724
X4.0764Y-5.4724
X4.115Y-1.652
X4.115Y-1.752
X4.1764Y-5.3724
X4.1764Y-5.4724
X4.215Y-1.652
X4.215Y-1.752
X4.2764Y-5.3724
X4.2764Y-5.4724
X4.315Y-1.652
X4.315Y-1.752
X4.3764Y-5.3724
X4.3764Y-5.4724
X4.415Y-1.652
X4.415Y-1.752
X4.4764Y-5.3724
X4.4764Y-5.4724
X4.515Y-1.652
X4.515Y-1.752
X4.5764Y-5.3724
X4.5764Y-5.4724
X4.615Y-1.652
X4.615Y-1.752
X4.6764Y-5.3724
X4.6764Y-5.4724
X4.715Y-1.652
X4.715Y-1.752
X4.7764Y-5.3724
X4.7764Y-5.4724
X4.8764Y-5.3724
X4.8764Y-5.4724
X4.9764Y-5.3724
X4.9764Y-5.4724
X5.0764Y-5.3724
X5.0764Y-5.4724
X5.1764Y-5.3724
X5.1764Y-5.4724
X5.2764Y-5.3724
X5.2764Y-5.4724
X5.3346Y-1.6323
X5.3346Y-1.7323
X5.3764Y-5.3724
X5.3764Y-5.4724
X5.4346Y-1.6323
X5.4346Y-1.7323
X5.4764Y-5.3724
X5.4764Y-5.4724
X5.5346Y-1.6323
X5.5346Y-1.7323
X5.5764Y-5.3724
X5.5764Y-5.4724
X5.6346Y-1.6323
X5.6346Y-1.7323
X5.6764Y-5.3724
X5.6764Y-5.4724
X5.7346Y-1.6323
X5.7346Y-1.7323
X5.7764Y-5.3724
X5.7764Y-5.4724
X5.8346Y-1.6323
X5.8346Y-1.7323
X5.8764Y-5.3724
X5.8764Y-5.4724
X5.9346Y-1.6323
X5.9346Y-1.7323
X6.0346Y-1.6323
X6.0346Y-1.7323
X6.1346Y-1.6323
X6.1346Y-1.7323
X6.2346Y-1.6323
X6.2346Y-1.7323
X6.3346Y-1.6323
X6.3346Y-1.7323
X6.4346Y-1.6323
X6.4346Y-1.7323
X6.5346Y-1.6323
X6.5346Y-1.7323
X6.6346Y-1.6323
X6.6346Y-1.7323
X6.7346Y-1.6323
X6.7346Y-1.7323
X6.8346Y-1.6323
X6.8346Y-1.7323
X6.9346Y-1.6323
X6.9346Y-1.7323
X7.0346Y-1.6323
X7.0346Y-1.7323
X7.1346Y-1.6323
X7.1346Y-1.7323
X7.2346Y-1.6323
X7.2346Y-1.7323
T5
X2.1654Y-1.3976
X2.1654Y-5.4724
X7.874Y-5.4724
X7.8937Y-1.378
T0
M30
