G04 #@! TF.FileFunction,Soldermask,Top*
%FSLAX46Y46*%
G04 Gerber Fmt 4.6, Leading zero omitted, Abs format (unit mm)*
G04 Created by KiCad (PCBNEW 4.0.7) date 07/30/18 12:41:52*
%MOMM*%
%LPD*%
G01*
G04 APERTURE LIST*
%ADD10C,0.100000*%
%ADD11C,2.000000*%
%ADD12R,2.000000X2.000000*%
%ADD13C,3.600000*%
%ADD14R,2.100000X2.100000*%
%ADD15O,2.100000X2.100000*%
%ADD16R,1.750000X1.750000*%
%ADD17O,1.750000X1.750000*%
%ADD18O,2.000000X2.000000*%
%ADD19R,1.300000X1.200000*%
%ADD20C,1.924000*%
%ADD21R,1.950000X1.000000*%
%ADD22O,3.900000X3.900000*%
%ADD23R,2.200000X2.200000*%
%ADD24O,2.200000X2.200000*%
G04 APERTURE END LIST*
D10*
D11*
X128476000Y-92200000D03*
X133476000Y-92200000D03*
X168529000Y-108458000D03*
X173529000Y-108458000D03*
X117500000Y-75500000D03*
X112500000Y-75500000D03*
X96000000Y-110000000D03*
X101000000Y-110000000D03*
X83000000Y-73500000D03*
X83000000Y-78500000D03*
X147000000Y-56500000D03*
X147000000Y-61500000D03*
X144000000Y-45500000D03*
X144000000Y-40500000D03*
X169000000Y-45000000D03*
X169000000Y-40000000D03*
X156000000Y-45500000D03*
X156000000Y-40500000D03*
X184000000Y-40000000D03*
X184000000Y-45000000D03*
X106500000Y-69500000D03*
X106500000Y-64500000D03*
D12*
X172339000Y-91948000D03*
D11*
X169839000Y-91948000D03*
D12*
X92710000Y-135890000D03*
D11*
X92710000Y-133390000D03*
D13*
X55000000Y-139000000D03*
X200000000Y-35000000D03*
X55000000Y-35000000D03*
X200000000Y-139000000D03*
D14*
X97409000Y-95377000D03*
D15*
X99949000Y-95377000D03*
X97409000Y-97917000D03*
X99949000Y-97917000D03*
X97409000Y-100457000D03*
X99949000Y-100457000D03*
D14*
X65250000Y-42500000D03*
D15*
X65250000Y-39960000D03*
X67790000Y-42500000D03*
X67790000Y-39960000D03*
X70330000Y-42500000D03*
X70330000Y-39960000D03*
X72870000Y-42500000D03*
X72870000Y-39960000D03*
X75410000Y-42500000D03*
X75410000Y-39960000D03*
D14*
X58000000Y-101000000D03*
D15*
X58000000Y-98460000D03*
D14*
X162500000Y-64500000D03*
D15*
X162500000Y-61960000D03*
X165040000Y-64500000D03*
X165040000Y-61960000D03*
X167580000Y-64500000D03*
X167580000Y-61960000D03*
D14*
X85500000Y-42500000D03*
D15*
X85500000Y-39960000D03*
X88040000Y-42500000D03*
X88040000Y-39960000D03*
X90580000Y-42500000D03*
X90580000Y-39960000D03*
X93120000Y-42500000D03*
X93120000Y-39960000D03*
X95660000Y-42500000D03*
X95660000Y-39960000D03*
D14*
X101000000Y-139000000D03*
D15*
X101000000Y-136460000D03*
X103540000Y-139000000D03*
X103540000Y-136460000D03*
X106080000Y-139000000D03*
X106080000Y-136460000D03*
X108620000Y-139000000D03*
X108620000Y-136460000D03*
X111160000Y-139000000D03*
X111160000Y-136460000D03*
X113700000Y-139000000D03*
X113700000Y-136460000D03*
X116240000Y-139000000D03*
X116240000Y-136460000D03*
X118780000Y-139000000D03*
X118780000Y-136460000D03*
X121320000Y-139000000D03*
X121320000Y-136460000D03*
X123860000Y-139000000D03*
X123860000Y-136460000D03*
X126400000Y-139000000D03*
X126400000Y-136460000D03*
X128940000Y-139000000D03*
X128940000Y-136460000D03*
X131480000Y-139000000D03*
X131480000Y-136460000D03*
X134020000Y-139000000D03*
X134020000Y-136460000D03*
X136560000Y-139000000D03*
X136560000Y-136460000D03*
X139100000Y-139000000D03*
X139100000Y-136460000D03*
X141640000Y-139000000D03*
X141640000Y-136460000D03*
X144180000Y-139000000D03*
X144180000Y-136460000D03*
X146720000Y-139000000D03*
X146720000Y-136460000D03*
X149260000Y-139000000D03*
X149260000Y-136460000D03*
D16*
X106680000Y-38100000D03*
D17*
X108680000Y-38100000D03*
X110680000Y-38100000D03*
X112680000Y-38100000D03*
D16*
X118110000Y-38100000D03*
D17*
X120110000Y-38100000D03*
X122110000Y-38100000D03*
X124110000Y-38100000D03*
D16*
X129540000Y-38100000D03*
D17*
X131540000Y-38100000D03*
X133540000Y-38100000D03*
X135540000Y-38100000D03*
D16*
X106807000Y-46736000D03*
D17*
X108807000Y-46736000D03*
X110807000Y-46736000D03*
X112807000Y-46736000D03*
D14*
X97500000Y-89000000D03*
D15*
X100040000Y-89000000D03*
D14*
X127260000Y-81500000D03*
D15*
X127260000Y-84040000D03*
X127260000Y-86580000D03*
D14*
X88500000Y-76500000D03*
D15*
X88500000Y-79040000D03*
X88500000Y-81580000D03*
D14*
X132340000Y-81500000D03*
D15*
X132340000Y-84040000D03*
X132340000Y-86580000D03*
D14*
X93500000Y-76500000D03*
D15*
X93500000Y-79040000D03*
X93500000Y-81580000D03*
D14*
X137420000Y-81500000D03*
D15*
X137420000Y-84040000D03*
X137420000Y-86580000D03*
D14*
X98500000Y-76500000D03*
D15*
X98500000Y-79040000D03*
X98500000Y-81580000D03*
D14*
X142500000Y-81500000D03*
D15*
X142500000Y-84040000D03*
X142500000Y-86580000D03*
D11*
X64500000Y-84500000D03*
D18*
X74660000Y-84500000D03*
D11*
X64516000Y-90678000D03*
D18*
X74676000Y-90678000D03*
D11*
X129794000Y-43561000D03*
D18*
X129794000Y-53721000D03*
D11*
X136500000Y-43500000D03*
D18*
X136500000Y-53660000D03*
D11*
X82000000Y-47500000D03*
D18*
X82000000Y-57660000D03*
D11*
X150295000Y-82931000D03*
D18*
X150295000Y-72771000D03*
D11*
X173000000Y-58000000D03*
D18*
X173000000Y-68160000D03*
D11*
X156500000Y-57500000D03*
D18*
X156500000Y-67660000D03*
D11*
X156518000Y-82804000D03*
D18*
X156518000Y-72644000D03*
D19*
X130270000Y-97600000D03*
X130270000Y-99500000D03*
X132270000Y-98550000D03*
X170069000Y-101158000D03*
X170069000Y-103058000D03*
X172069000Y-102108000D03*
D12*
X93980000Y-125730000D03*
D11*
X93980000Y-118110000D03*
X101600000Y-118110000D03*
X101600000Y-125730000D03*
D12*
X106680000Y-81280000D03*
D18*
X121920000Y-129540000D03*
X106680000Y-83820000D03*
X121920000Y-127000000D03*
X106680000Y-86360000D03*
X121920000Y-124460000D03*
X106680000Y-88900000D03*
X121920000Y-121920000D03*
X106680000Y-91440000D03*
X121920000Y-119380000D03*
X106680000Y-93980000D03*
X121920000Y-116840000D03*
X106680000Y-96520000D03*
X121920000Y-114300000D03*
X106680000Y-99060000D03*
X121920000Y-111760000D03*
X106680000Y-101600000D03*
X121920000Y-109220000D03*
X106680000Y-104140000D03*
X121920000Y-106680000D03*
X106680000Y-106680000D03*
X121920000Y-104140000D03*
X106680000Y-109220000D03*
X121920000Y-101600000D03*
X106680000Y-111760000D03*
X121920000Y-99060000D03*
X106680000Y-114300000D03*
X121920000Y-96520000D03*
X106680000Y-116840000D03*
X121920000Y-93980000D03*
X106680000Y-119380000D03*
X121920000Y-91440000D03*
X106680000Y-121920000D03*
X121920000Y-88900000D03*
X106680000Y-124460000D03*
X121920000Y-86360000D03*
X106680000Y-127000000D03*
X121920000Y-83820000D03*
X106680000Y-129540000D03*
X121920000Y-81280000D03*
D12*
X90297000Y-101297000D03*
D18*
X80137000Y-88597000D03*
X90297000Y-98757000D03*
X80137000Y-91137000D03*
X90297000Y-96217000D03*
X80137000Y-93677000D03*
X90297000Y-93677000D03*
X80137000Y-96217000D03*
X90297000Y-91137000D03*
X80137000Y-98757000D03*
X90297000Y-88597000D03*
X80137000Y-101297000D03*
D20*
X109500000Y-52500000D03*
X109500000Y-55040000D03*
X109500000Y-57580000D03*
X109500000Y-60120000D03*
X122200000Y-60120000D03*
X122200000Y-57580000D03*
X122200000Y-55040000D03*
X122200000Y-52500000D03*
D12*
X144018000Y-100965000D03*
D18*
X151638000Y-123825000D03*
X144018000Y-103505000D03*
X151638000Y-121285000D03*
X144018000Y-106045000D03*
X151638000Y-118745000D03*
X144018000Y-108585000D03*
X151638000Y-116205000D03*
X144018000Y-111125000D03*
X151638000Y-113665000D03*
X144018000Y-113665000D03*
X151638000Y-111125000D03*
X144018000Y-116205000D03*
X151638000Y-108585000D03*
X144018000Y-118745000D03*
X151638000Y-106045000D03*
X144018000Y-121285000D03*
X151638000Y-103505000D03*
X144018000Y-123825000D03*
X151638000Y-100965000D03*
D14*
X83058000Y-113665000D03*
D15*
X83058000Y-116205000D03*
X83058000Y-118745000D03*
X83058000Y-121285000D03*
X83058000Y-123825000D03*
D21*
X147160000Y-47625000D03*
X147160000Y-48895000D03*
X147160000Y-50165000D03*
X147160000Y-51435000D03*
X152560000Y-51435000D03*
X152560000Y-50165000D03*
X152560000Y-48895000D03*
X152560000Y-47625000D03*
X173830000Y-47625000D03*
X173830000Y-48895000D03*
X173830000Y-50165000D03*
X173830000Y-51435000D03*
X179230000Y-51435000D03*
X179230000Y-50165000D03*
X179230000Y-48895000D03*
X179230000Y-47625000D03*
D19*
X125500000Y-128550000D03*
X125500000Y-130450000D03*
X127500000Y-129500000D03*
D22*
X185801000Y-91798000D03*
D23*
X181991000Y-108458000D03*
D24*
X184531000Y-108458000D03*
X187071000Y-108458000D03*
X189611000Y-108458000D03*
D11*
X131699000Y-129032000D03*
X131699000Y-124032000D03*
D20*
X63380000Y-59840000D03*
X63380000Y-62380000D03*
X63380000Y-64920000D03*
X63380000Y-67460000D03*
X63380000Y-70000000D03*
X63380000Y-72540000D03*
X63380000Y-75080000D03*
X63380000Y-77620000D03*
X78620000Y-77620000D03*
X78620000Y-75080000D03*
X78620000Y-72540000D03*
X78620000Y-70000000D03*
X78620000Y-67460000D03*
X78620000Y-64920000D03*
X78620000Y-62380000D03*
X78620000Y-59840000D03*
X127380000Y-56840000D03*
X127380000Y-59380000D03*
X127380000Y-61920000D03*
X127380000Y-64460000D03*
X127380000Y-67000000D03*
X127380000Y-69540000D03*
X127380000Y-72080000D03*
X127380000Y-74620000D03*
X142620000Y-74620000D03*
X142620000Y-72080000D03*
X142620000Y-69540000D03*
X142620000Y-67000000D03*
X142620000Y-64460000D03*
X142620000Y-61920000D03*
X142620000Y-59380000D03*
X142620000Y-56840000D03*
X86380000Y-51840000D03*
X86380000Y-54380000D03*
X86380000Y-56920000D03*
X86380000Y-59460000D03*
X86380000Y-62000000D03*
X86380000Y-64540000D03*
X86380000Y-67080000D03*
X86380000Y-69620000D03*
X101620000Y-69620000D03*
X101620000Y-67080000D03*
X101620000Y-64540000D03*
X101620000Y-62000000D03*
X101620000Y-59460000D03*
X101620000Y-56920000D03*
X101620000Y-54380000D03*
X101620000Y-51840000D03*
M02*
