M48
;DRILL file {KiCad 4.0.7} date 07/01/18 21:38:34
;FORMAT={-:-/ absolute / inch / decimal}
FMAT,2
INCH,TZ
T1C0.016
T2C0.031
T3C0.032
T4C0.039
%
G90
G05
M72
T1
X3.2136Y-3.9462
X4.2773Y-2.7145
X4.3337Y-2.7902
X4.3362Y-3.2615
X4.3385Y-2.7009
X4.5843Y-5.0157
X4.7492Y-4.4207
X4.7768Y-5.0682
X4.8106Y-3.9849
X4.922Y-4.2067
X4.9291Y-4.3271
X5.0441Y-4.7606
X5.1762Y-2.7849
X5.2159Y-2.7817
X5.418Y-3.6935
X5.4701Y-4.4766
X5.4844Y-4.6128
X5.73Y-3.1554
X5.74Y-2.8211
X5.7564Y-2.9992
X5.7577Y-3.0875
X5.7844Y-3.4838
X5.8212Y-2.4929
X5.8357Y-4.9054
X5.8944Y-4.947
X5.956Y-4.3581
X6.4298Y-5.4711
X6.4408Y-4.1845
X6.4453Y-3.9257
X6.4636Y-4.3063
X6.474Y-3.9994
X6.486Y-4.0665
X6.7933Y-4.6167
X6.8451Y-3.8307
X6.8921Y-4.4886
X7.3143Y-2.5142
T2
X2.4435Y-3.4561
X2.4435Y-3.8561
X2.4435Y-4.0061
X2.4435Y-4.4061
X2.5394Y-4.8228
X2.6378Y-4.8228
X2.6772Y-1.9882
X2.6772Y-2.0882
X2.6772Y-2.1882
X2.6772Y-2.2882
X2.6772Y-2.3882
X2.6772Y-2.4882
X2.6772Y-2.5882
X2.6935Y-3.7561
X2.6935Y-3.8561
X2.6935Y-3.9561
X2.6935Y-4.0561
X2.6935Y-4.1561
X2.6935Y-4.2561
X2.6935Y-4.3561
X2.7165Y-3.0465
X2.7165Y-3.3465
X2.7362Y-2.7953
X2.9185Y-4.7061
X2.9185Y-4.903
X2.9331Y-2.7953
X2.9772Y-1.9882
X2.9772Y-2.0882
X2.9772Y-2.1882
X2.9772Y-2.2882
X2.9772Y-2.3882
X2.9772Y-2.4882
X2.9772Y-2.5882
X2.9935Y-3.7561
X2.9935Y-3.8561
X2.9935Y-3.9561
X2.9935Y-4.0561
X2.9935Y-4.1561
X2.9935Y-4.2561
X2.9935Y-4.3561
X3.0165Y-3.0465
X3.0165Y-3.3465
X3.248Y-1.9882
X3.2677Y-2.2244
X3.2677Y-2.3244
X3.2677Y-2.4244
X3.2677Y-2.5244
X3.2677Y-2.6244
X3.2677Y-2.7244
X3.2677Y-2.8244
X3.2677Y-2.9244
X3.2677Y-3.0244
X3.2677Y-3.1244
X3.2677Y-3.2244
X3.2677Y-3.3244
X3.2677Y-3.5433
X3.4646Y-3.5433
X3.4646Y-3.7598
X3.4646Y-3.8598
X3.4646Y-3.9598
X3.4646Y-4.0598
X3.4646Y-4.1598
X3.4646Y-4.2598
X3.4646Y-4.3598
X3.4646Y-4.4598
X3.4646Y-4.5598
X3.4646Y-4.6598
X3.4646Y-4.7598
X3.4646Y-4.8598
X3.648Y-1.9882
X3.6811Y-5.0984
X3.8677Y-2.2244
X3.8677Y-2.3244
X3.8677Y-2.4244
X3.8677Y-2.5244
X3.8677Y-2.6244
X3.8677Y-2.7244
X3.8677Y-2.8244
X3.8677Y-2.9244
X3.8677Y-3.0244
X3.8677Y-3.1244
X3.8677Y-3.2244
X3.8677Y-3.3244
X3.878Y-5.0984
X3.8976Y-1.9882
X4.0646Y-3.7598
X4.0646Y-3.8598
X4.0646Y-3.9598
X4.0646Y-4.0598
X4.0646Y-4.1598
X4.0646Y-4.2598
X4.0646Y-4.3598
X4.0646Y-4.4598
X4.0646Y-4.5598
X4.0646Y-4.6598
X4.0646Y-4.7598
X4.0646Y-4.8598
X4.1732Y-3.5236
X4.2126Y-2.2244
X4.2126Y-2.3244
X4.2126Y-2.4244
X4.2126Y-2.5244
X4.2126Y-2.6244
X4.2126Y-2.7244
X4.2126Y-2.8244
X4.2126Y-2.9244
X4.2126Y-3.0244
X4.2126Y-3.1244
X4.2126Y-3.2244
X4.2126Y-3.3244
X4.252Y-3.937
X4.252Y-4.1339
X4.252Y-4.2913
X4.252Y-4.4882
X4.2976Y-1.9882
X4.3701Y-3.5236
X4.4685Y-4.0354
X4.4685Y-4.1354
X4.4685Y-4.2354
X4.4685Y-4.3354
X4.4685Y-4.5827
X4.4685Y-4.6811
X4.6654Y-3.5236
X4.7185Y-4.6311
X4.7685Y-4.0354
X4.7685Y-4.1354
X4.7685Y-4.2354
X4.7685Y-4.3354
X4.8126Y-2.2244
X4.8126Y-2.3244
X4.8126Y-2.4244
X4.8126Y-2.5244
X4.8126Y-2.6244
X4.8126Y-2.7244
X4.8126Y-2.8244
X4.8126Y-2.9244
X4.8126Y-3.0244
X4.8126Y-3.1244
X4.8126Y-3.2244
X4.8126Y-3.3244
X4.8169Y-4.6311
X4.8622Y-3.5236
X5.0185Y-3.6311
X5.0935Y-3.8311
X5.0935Y-3.9311
X5.0935Y-4.0311
X5.0935Y-4.1311
X5.0935Y-4.2311
X5.0935Y-4.3311
X5.0935Y-4.4311
X5.0935Y-4.5311
X5.0935Y-4.6311
X5.0935Y-4.7311
X5.0935Y-4.8311
X5.0935Y-4.9311
X5.2154Y-3.6311
X5.3346Y-1.5157
X5.3346Y-1.6157
X5.3346Y-1.7157
X5.3346Y-1.8157
X5.3346Y-1.9157
X5.3346Y-2.0157
X5.3346Y-2.1157
X5.3346Y-2.2157
X5.3346Y-2.3157
X5.3346Y-2.4157
X5.3346Y-2.5157
X5.3346Y-2.6157
X5.3346Y-2.7157
X5.3346Y-2.8157
X5.3346Y-2.9157
X5.3346Y-3.0157
X5.3346Y-3.1157
X5.3346Y-3.2157
X5.3346Y-3.3157
X5.3346Y-3.4157
X5.3346Y-5.1575
X5.3935Y-3.8311
X5.3935Y-3.9311
X5.3935Y-4.0311
X5.3935Y-4.1311
X5.3935Y-4.2311
X5.3935Y-4.3311
X5.3935Y-4.4311
X5.3935Y-4.5311
X5.3935Y-4.6311
X5.3935Y-4.7311
X5.3935Y-4.8311
X5.3935Y-4.9311
X5.3937Y-3.6024
X5.4331Y-5.1575
X5.5906Y-3.6024
X5.6935Y-3.7561
X5.6935Y-3.8561
X5.6935Y-3.9561
X5.6935Y-4.0561
X5.6935Y-4.1561
X5.6935Y-4.2561
X5.6935Y-4.3561
X5.6935Y-4.4561
X5.6935Y-4.5561
X5.6935Y-4.6561
X5.6935Y-4.7561
X5.6935Y-4.8561
X5.6935Y-4.9561
X5.6935Y-5.0561
X5.9346Y-1.5157
X5.9346Y-1.6157
X5.9346Y-1.7157
X5.9346Y-1.8157
X5.9346Y-1.9157
X5.9346Y-2.0157
X5.9346Y-2.1157
X5.9346Y-2.2157
X5.9346Y-2.3157
X5.9346Y-2.4157
X5.9346Y-2.5157
X5.9346Y-2.6157
X5.9346Y-2.7157
X5.9346Y-2.8157
X5.9346Y-2.9157
X5.9346Y-3.0157
X5.9346Y-3.1157
X5.9346Y-3.2157
X5.9346Y-3.3157
X5.9346Y-3.4157
X6.0685Y-3.5561
X6.2654Y-3.5561
X6.2685Y-1.5311
X6.2685Y-1.6311
X6.2685Y-1.7311
X6.2685Y-1.8311
X6.2685Y-1.9311
X6.2685Y-2.0311
X6.2685Y-2.1311
X6.2685Y-2.2311
X6.2685Y-2.3311
X6.2685Y-2.4311
X6.2685Y-2.5311
X6.2685Y-2.6311
X6.2685Y-2.7311
X6.2685Y-2.8311
X6.2935Y-3.7561
X6.2935Y-3.8561
X6.2935Y-3.9561
X6.2935Y-4.0561
X6.2935Y-4.1561
X6.2935Y-4.2561
X6.2935Y-4.3561
X6.2935Y-4.4561
X6.2935Y-4.5561
X6.2935Y-4.6561
X6.2935Y-4.7561
X6.2935Y-4.8561
X6.2935Y-4.9561
X6.2935Y-5.0561
X6.5435Y-3.1311
X6.5435Y-3.3811
X6.5435Y-3.6311
X6.5435Y-3.8811
X6.5435Y-4.1311
X6.5435Y-4.3811
X6.8685Y-1.5311
X6.8685Y-1.6311
X6.8685Y-1.7311
X6.8685Y-1.8311
X6.8685Y-1.9311
X6.8685Y-2.0311
X6.8685Y-2.1311
X6.8685Y-2.2311
X6.8685Y-2.3311
X6.8685Y-2.4311
X6.8685Y-2.5311
X6.8685Y-2.6311
X6.8685Y-2.7311
X6.8685Y-2.8311
X6.9435Y-3.1311
X6.9435Y-3.3811
X6.9435Y-3.6311
X6.9435Y-3.8811
X6.9435Y-4.1311
X6.9435Y-4.3811
X7.0435Y-1.6061
X7.1185Y-2.6561
X7.1185Y-3.0561
X7.1185Y-3.1811
X7.1185Y-3.2811
X7.1185Y-3.3811
X7.1185Y-3.4811
X7.1185Y-3.5811
X7.1185Y-3.6811
X7.1185Y-3.7811
X7.1185Y-3.8811
X7.1185Y-3.9811
X7.1185Y-4.0811
X7.1185Y-4.1811
X7.1185Y-4.2811
X7.1185Y-4.3811
X7.1185Y-4.4811
X7.1185Y-4.5811
X7.1185Y-4.6811
X7.1185Y-4.7811
X7.1185Y-4.8811
X7.1185Y-4.9811
X7.1185Y-5.0811
X7.1419Y-1.6061
X7.3185Y-5.3311
X7.3685Y-2.5811
X7.3685Y-2.8811
X7.5154Y-5.3311
X7.6685Y-2.5811
X7.6685Y-2.8811
X7.7185Y-3.1811
X7.7185Y-3.2811
X7.7185Y-3.3811
X7.7185Y-3.4811
X7.7185Y-3.5811
X7.7185Y-3.6811
X7.7185Y-3.7811
X7.7185Y-3.8811
X7.7185Y-3.9811
X7.7185Y-4.0811
X7.7185Y-4.1811
X7.7185Y-4.2811
X7.7185Y-4.3811
X7.7185Y-4.4811
X7.7185Y-4.5811
X7.7185Y-4.6811
X7.7185Y-4.7811
X7.7185Y-4.8811
X7.7185Y-4.9811
X7.7185Y-5.0811
T3
X7.2935Y-1.7311
X7.2935Y-2.0311
X7.4935Y-1.7311
X7.4935Y-2.0311
T4
X2.1685Y-4.0061
X2.1685Y-4.1061
X2.1685Y-4.7811
X2.1685Y-4.8811
X2.3819Y-2.
X2.3819Y-2.1
X2.3819Y-2.2
X2.3819Y-2.3
X2.3819Y-2.4
X2.3819Y-2.5
X2.5Y-5.2165
X2.5685Y-1.5811
X2.5685Y-1.6811
X2.6685Y-1.5811
X2.6685Y-1.6811
X2.6985Y-5.2111
X2.7685Y-1.5811
X2.7685Y-1.6811
X2.8685Y-1.5811
X2.8685Y-1.6811
X2.9685Y-1.5811
X2.9685Y-1.6811
X3.1935Y-4.6811
X3.2435Y-5.2061
X3.2935Y-4.6811
X3.3685Y-1.5811
X3.3685Y-1.6811
X3.4435Y-5.2061
X3.4685Y-1.5811
X3.4685Y-1.6811
X3.5685Y-1.5811
X3.5685Y-1.6811
X3.6685Y-1.5811
X3.6685Y-1.6811
X3.7685Y-1.5811
X3.7685Y-1.6811
X3.9764Y-5.3724
X3.9764Y-5.4724
X4.0764Y-5.3724
X4.0764Y-5.4724
X4.1685Y-1.5811
X4.1685Y-1.6811
X4.1764Y-5.3724
X4.1764Y-5.4724
X4.2685Y-1.5811
X4.2685Y-1.6811
X4.2764Y-5.3724
X4.2764Y-5.4724
X4.3685Y-1.5811
X4.3685Y-1.6811
X4.3764Y-5.3724
X4.3764Y-5.4724
X4.3935Y-5.0311
X4.4685Y-1.5811
X4.4685Y-1.6811
X4.4764Y-5.3724
X4.4764Y-5.4724
X4.5685Y-1.5811
X4.5685Y-1.6811
X4.5764Y-5.3724
X4.5764Y-5.4724
X4.6063Y-3.7795
X4.6764Y-5.3724
X4.6764Y-5.4724
X4.7764Y-5.3724
X4.7764Y-5.4724
X4.8764Y-5.3724
X4.8764Y-5.4724
X4.9764Y-5.3724
X4.9764Y-5.4724
X5.0394Y-3.2268
X5.0394Y-3.3268
X5.0764Y-5.3724
X5.0764Y-5.4724
X5.1764Y-5.3724
X5.1764Y-5.4724
X5.2764Y-5.3724
X5.2764Y-5.4724
X5.3764Y-5.3724
X5.3764Y-5.4724
X5.4764Y-5.3724
X5.4764Y-5.4724
X5.5764Y-5.3724
X5.5764Y-5.4724
X5.6764Y-5.3724
X5.6764Y-5.4724
X5.7764Y-5.3724
X5.7764Y-5.4724
X5.8764Y-5.3724
X5.8764Y-5.4724
T0
M30
