M48
;DRILL file {KiCad 4.0.7} date 01/11/19 10:06:30
;FORMAT={2:4/ absolute / inch / suppress leading zeros}
FMAT,2
INCH,TZ
T1C0.016
T2C0.030
T3C0.031
T4C0.035
T5C0.039
T6C0.126
%
G90
G05
M72
T1
X38280Y-18529
X41845Y-24205
X41861Y-23706
X42518Y-36550
X47657Y-20872
X49313Y-23174
X51000Y-20945
X55333Y-46906
T2
X23622Y-15748
X23622Y-52756
X24953Y-23559
X24953Y-24559
X24953Y-25559
X24953Y-26559
X24953Y-27559
X24953Y-28559
X24953Y-29559
X24953Y-30559
X28150Y-29134
X30953Y-23559
X30953Y-24559
X30953Y-25559
X30953Y-26559
X30953Y-27559
X30953Y-28559
X30953Y-29559
X30953Y-30559
X34008Y-20409
X34008Y-21409
X34008Y-22409
X34008Y-23409
X34008Y-24409
X34008Y-25409
X34008Y-26409
X34008Y-27409
X37205Y-26969
X40008Y-20409
X40008Y-21409
X40008Y-22409
X40008Y-23409
X40008Y-24409
X40008Y-25409
X40008Y-26409
X40008Y-27409
X45079Y-43110
X51772Y-31693
X56843Y-22772
X56843Y-23772
X56843Y-24772
X56843Y-25772
X56843Y-26772
X56843Y-27772
X56843Y-28772
X56843Y-29772
X58268Y-43110
X60039Y-27165
X62843Y-22772
X62843Y-23772
X62843Y-24772
X62843Y-25772
X62843Y-26772
X62843Y-27772
X62843Y-28772
X62843Y-29772
X66929Y-16142
X73228Y-33465
X76772Y-15748
X76772Y-52756
T3
X25394Y-33268
X25400Y-35700
X29394Y-33268
X29400Y-35700
X32283Y-18701
X32283Y-22701
X32677Y-28937
X32677Y-30906
X36500Y-52516
X36500Y-53500
X37000Y-46500
X37000Y-49500
X37795Y-43307
X39764Y-43307
X40000Y-46500
X40000Y-49500
X41929Y-25394
X41929Y-27362
X42000Y-15000
X42000Y-32000
X42000Y-33000
X42000Y-34000
X42000Y-35000
X42000Y-36000
X42000Y-37000
X42000Y-38000
X42000Y-39000
X42000Y-40000
X42000Y-41000
X42000Y-42000
X42000Y-43000
X42000Y-44000
X42000Y-45000
X42000Y-46000
X42000Y-47000
X42000Y-48000
X42000Y-49000
X42000Y-50000
X42000Y-51000
X42050Y-18400
X42787Y-15000
X42837Y-18400
X43575Y-15000
X43625Y-18400
X44291Y-21457
X44291Y-22457
X44291Y-23457
X44291Y-24457
X44291Y-25457
X44291Y-26457
X44291Y-29724
X44362Y-15000
X44412Y-18400
X46260Y-17126
X46260Y-18701
X46260Y-29724
X46500Y-15000
X47287Y-15000
X48000Y-32000
X48000Y-33000
X48000Y-34000
X48000Y-35000
X48000Y-36000
X48000Y-37000
X48000Y-38000
X48000Y-39000
X48000Y-40000
X48000Y-41000
X48000Y-42000
X48000Y-43000
X48000Y-44000
X48000Y-45000
X48000Y-46000
X48000Y-47000
X48000Y-48000
X48000Y-49000
X48000Y-50000
X48000Y-51000
X48075Y-15000
X48291Y-21457
X48291Y-22457
X48291Y-23457
X48291Y-24457
X48291Y-25457
X48291Y-26457
X48862Y-15000
X50260Y-17126
X50260Y-18701
X50581Y-36299
X50591Y-21457
X50591Y-22457
X50591Y-23457
X50591Y-24457
X50591Y-25457
X50591Y-26457
X52550Y-36299
X53150Y-44685
X53150Y-46654
X54591Y-21457
X54591Y-22457
X54591Y-23457
X54591Y-24457
X54591Y-25457
X54591Y-26457
X56700Y-39750
X56700Y-40750
X56700Y-41750
X56700Y-42750
X56700Y-43750
X56700Y-44750
X56700Y-45750
X56700Y-46750
X56700Y-47750
X56700Y-48750
X57283Y-37795
X57677Y-14961
X58465Y-14961
X59252Y-14961
X59252Y-37795
X59700Y-39750
X59700Y-40750
X59700Y-41750
X59700Y-42750
X59700Y-43750
X59700Y-44750
X59700Y-45750
X59700Y-46750
X59700Y-47750
X59700Y-48750
X60039Y-14961
X63583Y-16142
X63583Y-18110
X64173Y-36811
X64173Y-37795
X64567Y-22638
X64567Y-24606
X65354Y-15551
X65354Y-16551
X65354Y-17551
X65354Y-18551
X65864Y-29044
X65864Y-33044
X66339Y-38583
X68307Y-23031
X68307Y-27031
X68307Y-38583
X68314Y-28994
X68314Y-32994
X68354Y-15551
X68354Y-16551
X68354Y-17551
X68354Y-18551
X70079Y-16339
X70079Y-18307
X72441Y-14898
X72441Y-18898
X74409Y-14898
X74409Y-18898
X74803Y-23228
X74803Y-27228
T4
X63000Y-43000
X63000Y-44000
X63000Y-45000
X63000Y-46000
X63000Y-47000
X63000Y-48000
X63000Y-49000
X63000Y-50000
X64000Y-42000
X64000Y-43000
X64000Y-44000
X64000Y-45000
X64000Y-46000
X64000Y-47000
X64000Y-48000
X64000Y-49000
X64000Y-50000
X64000Y-51000
X65000Y-42000
X65000Y-43000
X65000Y-44000
X65000Y-45000
X65000Y-46000
X65000Y-47000
X65000Y-48000
X65000Y-49000
X65000Y-50000
X65000Y-51000
X66000Y-42000
X66000Y-43000
X66000Y-44000
X66000Y-45000
X66000Y-46000
X66000Y-47000
X66000Y-48000
X66000Y-49000
X66000Y-50000
X66000Y-51000
X67000Y-42000
X67000Y-43000
X67000Y-44000
X67000Y-45000
X67000Y-46000
X67000Y-47000
X67000Y-48000
X67000Y-49000
X67000Y-50000
X67000Y-51000
X68000Y-42000
X68000Y-43000
X68000Y-44000
X68000Y-45000
X68000Y-46000
X68000Y-47000
X68000Y-48000
X68000Y-49000
X68000Y-50000
X68000Y-51000
X69000Y-42000
X69000Y-43000
X69000Y-44000
X69000Y-45000
X69000Y-46000
X69000Y-47000
X69000Y-48000
X69000Y-49000
X69000Y-50000
X69000Y-51000
X70000Y-42000
X70000Y-43000
X70000Y-44000
X70000Y-45000
X70000Y-46000
X70000Y-47000
X70000Y-48000
X70000Y-49000
X70000Y-50000
X70000Y-51000
X71000Y-42000
X71000Y-43000
X71000Y-44000
X71000Y-45000
X71000Y-46000
X71000Y-47000
X71000Y-48000
X71000Y-49000
X71000Y-50000
X71000Y-51000
X72000Y-42000
X72000Y-43000
X72000Y-44000
X72000Y-45000
X72000Y-46000
X72000Y-47000
X72000Y-48000
X72000Y-49000
X72000Y-50000
X72000Y-51000
X73000Y-42000
X73000Y-43000
X73000Y-44000
X73000Y-45000
X73000Y-46000
X73000Y-47000
X73000Y-48000
X73000Y-49000
X73000Y-50000
X73000Y-51000
X74000Y-42000
X74000Y-43000
X74000Y-44000
X74000Y-45000
X74000Y-46000
X74000Y-47000
X74000Y-48000
X74000Y-49000
X74000Y-50000
X74000Y-51000
X75000Y-43000
X75000Y-44000
X75000Y-45000
X75000Y-46000
X75000Y-47000
X75000Y-48000
X75000Y-49000
X75000Y-50000
T5
X22835Y-36417
X22835Y-37417
X22835Y-38417
X22835Y-39417
X22835Y-40417
X25689Y-15732
X25689Y-16732
X26689Y-15732
X26689Y-16732
X27689Y-15732
X27689Y-16732
X28689Y-15732
X28689Y-16732
X29689Y-15732
X29689Y-16732
X32700Y-44750
X32700Y-45750
X32700Y-46750
X32700Y-47750
X32700Y-48750
X32700Y-49750
X32700Y-50750
X32700Y-51750
X33661Y-15732
X33661Y-16732
X34661Y-15732
X34661Y-16732
X34843Y-30118
X34843Y-31118
X34843Y-32118
X35661Y-15732
X35661Y-16732
X35827Y-36614
X35827Y-37614
X35827Y-38614
X36661Y-15732
X36661Y-16732
X36811Y-30118
X36811Y-31118
X36811Y-32118
X36827Y-36614
X36827Y-37614
X36827Y-38614
X37661Y-15732
X37661Y-16732
X38780Y-30118
X38780Y-31118
X38780Y-32118
X39764Y-53724
X39764Y-54724
X40764Y-53724
X40764Y-54724
X41764Y-53724
X41764Y-54724
X42764Y-53724
X42764Y-54724
X43764Y-53724
X43764Y-54724
X44764Y-53724
X44764Y-54724
X45764Y-53724
X45764Y-54724
X46764Y-53724
X46764Y-54724
X47764Y-53724
X47764Y-54724
X48764Y-53724
X48764Y-54724
X49764Y-53724
X49764Y-54724
X50764Y-53724
X50764Y-54724
X51764Y-53724
X51764Y-54724
X52764Y-53724
X52764Y-54724
X53764Y-53724
X53764Y-54724
X54764Y-53724
X54764Y-54724
X55764Y-53724
X55764Y-54724
X56693Y-32480
X56693Y-33480
X56693Y-34480
X56764Y-53724
X56764Y-54724
X57764Y-53724
X57764Y-54724
X58764Y-53724
X58764Y-54724
X58795Y-32480
X58795Y-33480
X58795Y-34480
X60795Y-32480
X60795Y-33480
X60795Y-34480
X62795Y-32480
X62795Y-33480
X62795Y-34480
X70669Y-24787
X70669Y-25787
X70866Y-38780
X71669Y-24787
X71669Y-25787
X71866Y-38780
X72669Y-24787
X72669Y-25787
X72866Y-38780
X73866Y-38780
T6
X21654Y-13780
X21654Y-54724
X78740Y-13780
X78740Y-54724
T0
M30
