G04 #@! TF.FileFunction,Soldermask,Bot*
%FSLAX46Y46*%
G04 Gerber Fmt 4.6, Leading zero omitted, Abs format (unit mm)*
G04 Created by KiCad (PCBNEW 4.0.7) date 07/05/19 16:22:17*
%MOMM*%
%LPD*%
G01*
G04 APERTURE LIST*
%ADD10C,0.100000*%
%ADD11C,1.924000*%
%ADD12C,2.000000*%
%ADD13R,2.100000X2.100000*%
%ADD14O,2.100000X2.100000*%
%ADD15C,3.600000*%
%ADD16R,2.000000X2.000000*%
%ADD17O,2.000000X2.000000*%
G04 APERTURE END LIST*
D10*
D11*
X125000000Y-63000000D03*
X163500000Y-97500000D03*
X197000000Y-131000000D03*
X91000000Y-104500000D03*
X54000000Y-128000000D03*
X59000000Y-131000000D03*
X197000000Y-43000000D03*
D12*
X85500000Y-115000000D03*
X85500000Y-110000000D03*
X54000000Y-88500000D03*
X54000000Y-93500000D03*
X89500000Y-66000000D03*
X89500000Y-71000000D03*
X89500000Y-88500000D03*
X89500000Y-93500000D03*
X160000000Y-62000000D03*
X160000000Y-67000000D03*
X125000000Y-85500000D03*
X125000000Y-80500000D03*
X162500000Y-84500000D03*
X162500000Y-79500000D03*
X194000000Y-61000000D03*
X194000000Y-66000000D03*
X54000000Y-71000000D03*
X54000000Y-66000000D03*
X159000000Y-99000000D03*
X159000000Y-104000000D03*
X162500000Y-125500000D03*
X162500000Y-120500000D03*
X194000000Y-99000000D03*
X194000000Y-104000000D03*
X124500000Y-125000000D03*
X124500000Y-120000000D03*
D13*
X54000000Y-124500000D03*
D14*
X54000000Y-121960000D03*
D15*
X55000000Y-35500000D03*
X200500000Y-35000000D03*
X55000000Y-139000000D03*
X200000000Y-139000000D03*
D16*
X58000000Y-72500000D03*
D17*
X80860000Y-64880000D03*
X60540000Y-72500000D03*
X78320000Y-64880000D03*
X63080000Y-72500000D03*
X75780000Y-64880000D03*
X65620000Y-72500000D03*
X73240000Y-64880000D03*
X68160000Y-72500000D03*
X70700000Y-64880000D03*
X70700000Y-72500000D03*
X68160000Y-64880000D03*
X73240000Y-72500000D03*
X65620000Y-64880000D03*
X75780000Y-72500000D03*
X63080000Y-64880000D03*
X78320000Y-72500000D03*
X60540000Y-64880000D03*
X80860000Y-72500000D03*
X58000000Y-64880000D03*
D16*
X58000000Y-95000000D03*
D17*
X80860000Y-87380000D03*
X60540000Y-95000000D03*
X78320000Y-87380000D03*
X63080000Y-95000000D03*
X75780000Y-87380000D03*
X65620000Y-95000000D03*
X73240000Y-87380000D03*
X68160000Y-95000000D03*
X70700000Y-87380000D03*
X70700000Y-95000000D03*
X68160000Y-87380000D03*
X73240000Y-95000000D03*
X65620000Y-87380000D03*
X75780000Y-95000000D03*
X63080000Y-87380000D03*
X78320000Y-95000000D03*
X60540000Y-87380000D03*
X80860000Y-95000000D03*
X58000000Y-87380000D03*
D16*
X93500000Y-72500000D03*
D17*
X116360000Y-64880000D03*
X96040000Y-72500000D03*
X113820000Y-64880000D03*
X98580000Y-72500000D03*
X111280000Y-64880000D03*
X101120000Y-72500000D03*
X108740000Y-64880000D03*
X103660000Y-72500000D03*
X106200000Y-64880000D03*
X106200000Y-72500000D03*
X103660000Y-64880000D03*
X108740000Y-72500000D03*
X101120000Y-64880000D03*
X111280000Y-72500000D03*
X98580000Y-64880000D03*
X113820000Y-72500000D03*
X96040000Y-64880000D03*
X116360000Y-72500000D03*
X93500000Y-64880000D03*
D16*
X93500000Y-95000000D03*
D17*
X116360000Y-87380000D03*
X96040000Y-95000000D03*
X113820000Y-87380000D03*
X98580000Y-95000000D03*
X111280000Y-87380000D03*
X101120000Y-95000000D03*
X108740000Y-87380000D03*
X103660000Y-95000000D03*
X106200000Y-87380000D03*
X106200000Y-95000000D03*
X103660000Y-87380000D03*
X108740000Y-95000000D03*
X101120000Y-87380000D03*
X111280000Y-95000000D03*
X98580000Y-87380000D03*
X113820000Y-95000000D03*
X96040000Y-87380000D03*
X116360000Y-95000000D03*
X93500000Y-87380000D03*
D16*
X133500000Y-68000000D03*
D17*
X153820000Y-60380000D03*
X136040000Y-68000000D03*
X151280000Y-60380000D03*
X138580000Y-68000000D03*
X148740000Y-60380000D03*
X141120000Y-68000000D03*
X146200000Y-60380000D03*
X143660000Y-68000000D03*
X143660000Y-60380000D03*
X146200000Y-68000000D03*
X141120000Y-60380000D03*
X148740000Y-68000000D03*
X138580000Y-60380000D03*
X151280000Y-68000000D03*
X136040000Y-60380000D03*
X153820000Y-68000000D03*
X133500000Y-60380000D03*
D16*
X168000000Y-67500000D03*
D17*
X188320000Y-59880000D03*
X170540000Y-67500000D03*
X185780000Y-59880000D03*
X173080000Y-67500000D03*
X183240000Y-59880000D03*
X175620000Y-67500000D03*
X180700000Y-59880000D03*
X178160000Y-67500000D03*
X178160000Y-59880000D03*
X180700000Y-67500000D03*
X175620000Y-59880000D03*
X183240000Y-67500000D03*
X173080000Y-59880000D03*
X185780000Y-67500000D03*
X170540000Y-59880000D03*
X188320000Y-67500000D03*
X168000000Y-59880000D03*
D16*
X81000000Y-109000000D03*
D17*
X63220000Y-116620000D03*
X78460000Y-109000000D03*
X65760000Y-116620000D03*
X75920000Y-109000000D03*
X68300000Y-116620000D03*
X73380000Y-109000000D03*
X70840000Y-116620000D03*
X70840000Y-109000000D03*
X73380000Y-116620000D03*
X68300000Y-109000000D03*
X75920000Y-116620000D03*
X65760000Y-109000000D03*
X78460000Y-116620000D03*
X63220000Y-109000000D03*
X81000000Y-116620000D03*
D16*
X133000000Y-105500000D03*
D17*
X153320000Y-97880000D03*
X135540000Y-105500000D03*
X150780000Y-97880000D03*
X138080000Y-105500000D03*
X148240000Y-97880000D03*
X140620000Y-105500000D03*
X145700000Y-97880000D03*
X143160000Y-105500000D03*
X143160000Y-97880000D03*
X145700000Y-105500000D03*
X140620000Y-97880000D03*
X148240000Y-105500000D03*
X138080000Y-97880000D03*
X150780000Y-105500000D03*
X135540000Y-97880000D03*
X153320000Y-105500000D03*
X133000000Y-97880000D03*
D16*
X168000000Y-105000000D03*
D17*
X188320000Y-97380000D03*
X170540000Y-105000000D03*
X185780000Y-97380000D03*
X173080000Y-105000000D03*
X183240000Y-97380000D03*
X175620000Y-105000000D03*
X180700000Y-97380000D03*
X178160000Y-105000000D03*
X178160000Y-97380000D03*
X180700000Y-105000000D03*
X175620000Y-97380000D03*
X183240000Y-105000000D03*
X173080000Y-97380000D03*
X185780000Y-105000000D03*
X170540000Y-97380000D03*
X188320000Y-105000000D03*
X168000000Y-97380000D03*
D12*
X121500000Y-115500000D03*
X121500000Y-110500000D03*
D16*
X102000000Y-126000000D03*
D12*
X104500000Y-126000000D03*
D13*
X71500000Y-44500000D03*
D14*
X71500000Y-41960000D03*
X74040000Y-44500000D03*
X74040000Y-41960000D03*
X76580000Y-44500000D03*
X76580000Y-41960000D03*
X79120000Y-44500000D03*
X79120000Y-41960000D03*
X81660000Y-44500000D03*
X81660000Y-41960000D03*
X84200000Y-44500000D03*
X84200000Y-41960000D03*
X86740000Y-44500000D03*
X86740000Y-41960000D03*
X89280000Y-44500000D03*
X89280000Y-41960000D03*
X91820000Y-44500000D03*
X91820000Y-41960000D03*
X94360000Y-44500000D03*
X94360000Y-41960000D03*
X96900000Y-44500000D03*
X96900000Y-41960000D03*
X99440000Y-44500000D03*
X99440000Y-41960000D03*
X101980000Y-44500000D03*
X101980000Y-41960000D03*
X104520000Y-44500000D03*
X104520000Y-41960000D03*
X107060000Y-44500000D03*
X107060000Y-41960000D03*
X109600000Y-44500000D03*
X109600000Y-41960000D03*
X112140000Y-44500000D03*
X112140000Y-41960000D03*
X114680000Y-44500000D03*
X114680000Y-41960000D03*
X117220000Y-44500000D03*
X117220000Y-41960000D03*
X119760000Y-44500000D03*
X119760000Y-41960000D03*
D13*
X101000000Y-139000000D03*
D14*
X101000000Y-136460000D03*
X103540000Y-139000000D03*
X103540000Y-136460000D03*
X106080000Y-139000000D03*
X106080000Y-136460000D03*
X108620000Y-139000000D03*
X108620000Y-136460000D03*
X111160000Y-139000000D03*
X111160000Y-136460000D03*
X113700000Y-139000000D03*
X113700000Y-136460000D03*
X116240000Y-139000000D03*
X116240000Y-136460000D03*
X118780000Y-139000000D03*
X118780000Y-136460000D03*
X121320000Y-139000000D03*
X121320000Y-136460000D03*
X123860000Y-139000000D03*
X123860000Y-136460000D03*
X126400000Y-139000000D03*
X126400000Y-136460000D03*
X128940000Y-139000000D03*
X128940000Y-136460000D03*
X131480000Y-139000000D03*
X131480000Y-136460000D03*
X134020000Y-139000000D03*
X134020000Y-136460000D03*
X136560000Y-139000000D03*
X136560000Y-136460000D03*
X139100000Y-139000000D03*
X139100000Y-136460000D03*
X141640000Y-139000000D03*
X141640000Y-136460000D03*
X144180000Y-139000000D03*
X144180000Y-136460000D03*
X146720000Y-139000000D03*
X146720000Y-136460000D03*
X149260000Y-139000000D03*
X149260000Y-136460000D03*
D13*
X135500000Y-44000000D03*
D14*
X135500000Y-41460000D03*
X138040000Y-44000000D03*
X138040000Y-41460000D03*
X140580000Y-44000000D03*
X140580000Y-41460000D03*
X143120000Y-44000000D03*
X143120000Y-41460000D03*
X145660000Y-44000000D03*
X145660000Y-41460000D03*
X148200000Y-44000000D03*
X148200000Y-41460000D03*
X150740000Y-44000000D03*
X150740000Y-41460000D03*
X153280000Y-44000000D03*
X153280000Y-41460000D03*
X155820000Y-44000000D03*
X155820000Y-41460000D03*
X158360000Y-44000000D03*
X158360000Y-41460000D03*
X160900000Y-44000000D03*
X160900000Y-41460000D03*
X163440000Y-44000000D03*
X163440000Y-41460000D03*
X165980000Y-44000000D03*
X165980000Y-41460000D03*
X168520000Y-44000000D03*
X168520000Y-41460000D03*
X171060000Y-44000000D03*
X171060000Y-41460000D03*
X173600000Y-44000000D03*
X173600000Y-41460000D03*
X176140000Y-44000000D03*
X176140000Y-41460000D03*
X178680000Y-44000000D03*
X178680000Y-41460000D03*
X181220000Y-44000000D03*
X181220000Y-41460000D03*
X183760000Y-44000000D03*
X183760000Y-41460000D03*
D16*
X116500000Y-109000000D03*
D17*
X93640000Y-116620000D03*
X113960000Y-109000000D03*
X96180000Y-116620000D03*
X111420000Y-109000000D03*
X98720000Y-116620000D03*
X108880000Y-109000000D03*
X101260000Y-116620000D03*
X106340000Y-109000000D03*
X103800000Y-116620000D03*
X103800000Y-109000000D03*
X106340000Y-116620000D03*
X101260000Y-109000000D03*
X108880000Y-116620000D03*
X98720000Y-109000000D03*
X111420000Y-116620000D03*
X96180000Y-109000000D03*
X113960000Y-116620000D03*
X93640000Y-109000000D03*
X116500000Y-116620000D03*
D16*
X130500000Y-86500000D03*
D17*
X153360000Y-78880000D03*
X133040000Y-86500000D03*
X150820000Y-78880000D03*
X135580000Y-86500000D03*
X148280000Y-78880000D03*
X138120000Y-86500000D03*
X145740000Y-78880000D03*
X140660000Y-86500000D03*
X143200000Y-78880000D03*
X143200000Y-86500000D03*
X140660000Y-78880000D03*
X145740000Y-86500000D03*
X138120000Y-78880000D03*
X148280000Y-86500000D03*
X135580000Y-78880000D03*
X150820000Y-86500000D03*
X133040000Y-78880000D03*
X153360000Y-86500000D03*
X130500000Y-78880000D03*
D16*
X168000000Y-86000000D03*
D17*
X190860000Y-78380000D03*
X170540000Y-86000000D03*
X188320000Y-78380000D03*
X173080000Y-86000000D03*
X185780000Y-78380000D03*
X175620000Y-86000000D03*
X183240000Y-78380000D03*
X178160000Y-86000000D03*
X180700000Y-78380000D03*
X180700000Y-86000000D03*
X178160000Y-78380000D03*
X183240000Y-86000000D03*
X175620000Y-78380000D03*
X185780000Y-86000000D03*
X173080000Y-78380000D03*
X188320000Y-86000000D03*
X170540000Y-78380000D03*
X190860000Y-86000000D03*
X168000000Y-78380000D03*
D16*
X130500000Y-127000000D03*
D17*
X153360000Y-119380000D03*
X133040000Y-127000000D03*
X150820000Y-119380000D03*
X135580000Y-127000000D03*
X148280000Y-119380000D03*
X138120000Y-127000000D03*
X145740000Y-119380000D03*
X140660000Y-127000000D03*
X143200000Y-119380000D03*
X143200000Y-127000000D03*
X140660000Y-119380000D03*
X145740000Y-127000000D03*
X138120000Y-119380000D03*
X148280000Y-127000000D03*
X135580000Y-119380000D03*
X150820000Y-127000000D03*
X133040000Y-119380000D03*
X153360000Y-127000000D03*
X130500000Y-119380000D03*
D16*
X168000000Y-126500000D03*
D17*
X190860000Y-118880000D03*
X170540000Y-126500000D03*
X188320000Y-118880000D03*
X173080000Y-126500000D03*
X185780000Y-118880000D03*
X175620000Y-126500000D03*
X183240000Y-118880000D03*
X178160000Y-126500000D03*
X180700000Y-118880000D03*
X180700000Y-126500000D03*
X178160000Y-118880000D03*
X183240000Y-126500000D03*
X175620000Y-118880000D03*
X185780000Y-126500000D03*
X173080000Y-118880000D03*
X188320000Y-126500000D03*
X170540000Y-118880000D03*
X190860000Y-126500000D03*
X168000000Y-118880000D03*
D11*
X59000000Y-43000000D03*
M02*
