G04 #@! TF.FileFunction,Legend,Top*
%FSLAX46Y46*%
G04 Gerber Fmt 4.6, Leading zero omitted, Abs format (unit mm)*
G04 Created by KiCad (PCBNEW 4.0.7) date 07/05/19 16:22:17*
%MOMM*%
%LPD*%
G01*
G04 APERTURE LIST*
%ADD10C,0.100000*%
%ADD11C,0.200000*%
%ADD12C,0.120000*%
%ADD13C,0.010000*%
%ADD14C,0.150000*%
G04 APERTURE END LIST*
D10*
D11*
X140828573Y-50400000D02*
X140714287Y-50342857D01*
X140542858Y-50342857D01*
X140371430Y-50400000D01*
X140257144Y-50514286D01*
X140200001Y-50628571D01*
X140142858Y-50857143D01*
X140142858Y-51028571D01*
X140200001Y-51257143D01*
X140257144Y-51371429D01*
X140371430Y-51485714D01*
X140542858Y-51542857D01*
X140657144Y-51542857D01*
X140828573Y-51485714D01*
X140885716Y-51428571D01*
X140885716Y-51028571D01*
X140657144Y-51028571D01*
X141857144Y-51485714D02*
X141742858Y-51542857D01*
X141514287Y-51542857D01*
X141400001Y-51485714D01*
X141342858Y-51371429D01*
X141342858Y-50914286D01*
X141400001Y-50800000D01*
X141514287Y-50742857D01*
X141742858Y-50742857D01*
X141857144Y-50800000D01*
X141914287Y-50914286D01*
X141914287Y-51028571D01*
X141342858Y-51142857D01*
X142428572Y-50742857D02*
X142428572Y-51542857D01*
X142428572Y-50857143D02*
X142485715Y-50800000D01*
X142600001Y-50742857D01*
X142771429Y-50742857D01*
X142885715Y-50800000D01*
X142942858Y-50914286D01*
X142942858Y-51542857D01*
X143971429Y-51485714D02*
X143857143Y-51542857D01*
X143628572Y-51542857D01*
X143514286Y-51485714D01*
X143457143Y-51371429D01*
X143457143Y-50914286D01*
X143514286Y-50800000D01*
X143628572Y-50742857D01*
X143857143Y-50742857D01*
X143971429Y-50800000D01*
X144028572Y-50914286D01*
X144028572Y-51028571D01*
X143457143Y-51142857D01*
X144542857Y-51542857D02*
X144542857Y-50742857D01*
X144542857Y-50971429D02*
X144600000Y-50857143D01*
X144657143Y-50800000D01*
X144771429Y-50742857D01*
X144885714Y-50742857D01*
X145800000Y-51542857D02*
X145800000Y-50914286D01*
X145742857Y-50800000D01*
X145628571Y-50742857D01*
X145400000Y-50742857D01*
X145285714Y-50800000D01*
X145800000Y-51485714D02*
X145685714Y-51542857D01*
X145400000Y-51542857D01*
X145285714Y-51485714D01*
X145228571Y-51371429D01*
X145228571Y-51257143D01*
X145285714Y-51142857D01*
X145400000Y-51085714D01*
X145685714Y-51085714D01*
X145800000Y-51028571D01*
X146542857Y-51542857D02*
X146428571Y-51485714D01*
X146371428Y-51371429D01*
X146371428Y-50342857D01*
X147914285Y-51542857D02*
X147914285Y-50342857D01*
X148371428Y-50342857D01*
X148485714Y-50400000D01*
X148542857Y-50457143D01*
X148600000Y-50571429D01*
X148600000Y-50742857D01*
X148542857Y-50857143D01*
X148485714Y-50914286D01*
X148371428Y-50971429D01*
X147914285Y-50971429D01*
X149628571Y-50742857D02*
X149628571Y-51542857D01*
X149114285Y-50742857D02*
X149114285Y-51371429D01*
X149171428Y-51485714D01*
X149285714Y-51542857D01*
X149457142Y-51542857D01*
X149571428Y-51485714D01*
X149628571Y-51428571D01*
X150199999Y-51542857D02*
X150199999Y-50742857D01*
X150199999Y-50971429D02*
X150257142Y-50857143D01*
X150314285Y-50800000D01*
X150428571Y-50742857D01*
X150542856Y-50742857D01*
X150942856Y-50742857D02*
X150942856Y-51942857D01*
X150942856Y-50800000D02*
X151057142Y-50742857D01*
X151285713Y-50742857D01*
X151399999Y-50800000D01*
X151457142Y-50857143D01*
X151514285Y-50971429D01*
X151514285Y-51314286D01*
X151457142Y-51428571D01*
X151399999Y-51485714D01*
X151285713Y-51542857D01*
X151057142Y-51542857D01*
X150942856Y-51485714D01*
X152199999Y-51542857D02*
X152085713Y-51485714D01*
X152028570Y-51428571D01*
X151971427Y-51314286D01*
X151971427Y-50971429D01*
X152028570Y-50857143D01*
X152085713Y-50800000D01*
X152199999Y-50742857D01*
X152371427Y-50742857D01*
X152485713Y-50800000D01*
X152542856Y-50857143D01*
X152599999Y-50971429D01*
X152599999Y-51314286D01*
X152542856Y-51428571D01*
X152485713Y-51485714D01*
X152371427Y-51542857D01*
X152199999Y-51542857D01*
X153057141Y-51485714D02*
X153171427Y-51542857D01*
X153399999Y-51542857D01*
X153514284Y-51485714D01*
X153571427Y-51371429D01*
X153571427Y-51314286D01*
X153514284Y-51200000D01*
X153399999Y-51142857D01*
X153228570Y-51142857D01*
X153114284Y-51085714D01*
X153057141Y-50971429D01*
X153057141Y-50914286D01*
X153114284Y-50800000D01*
X153228570Y-50742857D01*
X153399999Y-50742857D01*
X153514284Y-50800000D01*
X154542856Y-51485714D02*
X154428570Y-51542857D01*
X154199999Y-51542857D01*
X154085713Y-51485714D01*
X154028570Y-51371429D01*
X154028570Y-50914286D01*
X154085713Y-50800000D01*
X154199999Y-50742857D01*
X154428570Y-50742857D01*
X154542856Y-50800000D01*
X154599999Y-50914286D01*
X154599999Y-51028571D01*
X154028570Y-51142857D01*
X156257142Y-50342857D02*
X156485713Y-50342857D01*
X156599999Y-50400000D01*
X156714285Y-50514286D01*
X156771427Y-50742857D01*
X156771427Y-51142857D01*
X156714285Y-51371429D01*
X156599999Y-51485714D01*
X156485713Y-51542857D01*
X156257142Y-51542857D01*
X156142856Y-51485714D01*
X156028570Y-51371429D01*
X155971427Y-51142857D01*
X155971427Y-50742857D01*
X156028570Y-50514286D01*
X156142856Y-50400000D01*
X156257142Y-50342857D01*
X157799999Y-50742857D02*
X157799999Y-51542857D01*
X157285713Y-50742857D02*
X157285713Y-51371429D01*
X157342856Y-51485714D01*
X157457142Y-51542857D01*
X157628570Y-51542857D01*
X157742856Y-51485714D01*
X157799999Y-51428571D01*
X158199999Y-50742857D02*
X158657142Y-50742857D01*
X158371427Y-50342857D02*
X158371427Y-51371429D01*
X158428570Y-51485714D01*
X158542856Y-51542857D01*
X158657142Y-51542857D01*
X159057141Y-50742857D02*
X159057141Y-51942857D01*
X159057141Y-50800000D02*
X159171427Y-50742857D01*
X159399998Y-50742857D01*
X159514284Y-50800000D01*
X159571427Y-50857143D01*
X159628570Y-50971429D01*
X159628570Y-51314286D01*
X159571427Y-51428571D01*
X159514284Y-51485714D01*
X159399998Y-51542857D01*
X159171427Y-51542857D01*
X159057141Y-51485714D01*
X160657141Y-50742857D02*
X160657141Y-51542857D01*
X160142855Y-50742857D02*
X160142855Y-51371429D01*
X160199998Y-51485714D01*
X160314284Y-51542857D01*
X160485712Y-51542857D01*
X160599998Y-51485714D01*
X160657141Y-51428571D01*
X161057141Y-50742857D02*
X161514284Y-50742857D01*
X161228569Y-50342857D02*
X161228569Y-51371429D01*
X161285712Y-51485714D01*
X161399998Y-51542857D01*
X161514284Y-51542857D01*
X162828569Y-51542857D02*
X162828569Y-50342857D01*
X163285712Y-50342857D01*
X163399998Y-50400000D01*
X163457141Y-50457143D01*
X163514284Y-50571429D01*
X163514284Y-50742857D01*
X163457141Y-50857143D01*
X163399998Y-50914286D01*
X163285712Y-50971429D01*
X162828569Y-50971429D01*
X164199998Y-51542857D02*
X164085712Y-51485714D01*
X164028569Y-51428571D01*
X163971426Y-51314286D01*
X163971426Y-50971429D01*
X164028569Y-50857143D01*
X164085712Y-50800000D01*
X164199998Y-50742857D01*
X164371426Y-50742857D01*
X164485712Y-50800000D01*
X164542855Y-50857143D01*
X164599998Y-50971429D01*
X164599998Y-51314286D01*
X164542855Y-51428571D01*
X164485712Y-51485714D01*
X164371426Y-51542857D01*
X164199998Y-51542857D01*
X165114283Y-51542857D02*
X165114283Y-50742857D01*
X165114283Y-50971429D02*
X165171426Y-50857143D01*
X165228569Y-50800000D01*
X165342855Y-50742857D01*
X165457140Y-50742857D01*
X165685712Y-50742857D02*
X166142855Y-50742857D01*
X165857140Y-50342857D02*
X165857140Y-51371429D01*
X165914283Y-51485714D01*
X166028569Y-51542857D01*
X166142855Y-51542857D01*
X166485711Y-51485714D02*
X166599997Y-51542857D01*
X166828569Y-51542857D01*
X166942854Y-51485714D01*
X166999997Y-51371429D01*
X166999997Y-51314286D01*
X166942854Y-51200000D01*
X166828569Y-51142857D01*
X166657140Y-51142857D01*
X166542854Y-51085714D01*
X166485711Y-50971429D01*
X166485711Y-50914286D01*
X166542854Y-50800000D01*
X166657140Y-50742857D01*
X166828569Y-50742857D01*
X166942854Y-50800000D01*
X168771426Y-52000000D02*
X168714284Y-51942857D01*
X168599998Y-51771429D01*
X168542855Y-51657143D01*
X168485712Y-51485714D01*
X168428569Y-51200000D01*
X168428569Y-50971429D01*
X168485712Y-50685714D01*
X168542855Y-50514286D01*
X168599998Y-50400000D01*
X168714284Y-50228571D01*
X168771426Y-50171429D01*
X169399998Y-50857143D02*
X169285712Y-50800000D01*
X169228569Y-50742857D01*
X169171426Y-50628571D01*
X169171426Y-50571429D01*
X169228569Y-50457143D01*
X169285712Y-50400000D01*
X169399998Y-50342857D01*
X169628569Y-50342857D01*
X169742855Y-50400000D01*
X169799998Y-50457143D01*
X169857141Y-50571429D01*
X169857141Y-50628571D01*
X169799998Y-50742857D01*
X169742855Y-50800000D01*
X169628569Y-50857143D01*
X169399998Y-50857143D01*
X169285712Y-50914286D01*
X169228569Y-50971429D01*
X169171426Y-51085714D01*
X169171426Y-51314286D01*
X169228569Y-51428571D01*
X169285712Y-51485714D01*
X169399998Y-51542857D01*
X169628569Y-51542857D01*
X169742855Y-51485714D01*
X169799998Y-51428571D01*
X169857141Y-51314286D01*
X169857141Y-51085714D01*
X169799998Y-50971429D01*
X169742855Y-50914286D01*
X169628569Y-50857143D01*
X171285712Y-51542857D02*
X171285712Y-50342857D01*
X171285712Y-50800000D02*
X171399998Y-50742857D01*
X171628569Y-50742857D01*
X171742855Y-50800000D01*
X171799998Y-50857143D01*
X171857141Y-50971429D01*
X171857141Y-51314286D01*
X171799998Y-51428571D01*
X171742855Y-51485714D01*
X171628569Y-51542857D01*
X171399998Y-51542857D01*
X171285712Y-51485714D01*
X172371426Y-51542857D02*
X172371426Y-50742857D01*
X172371426Y-50342857D02*
X172314283Y-50400000D01*
X172371426Y-50457143D01*
X172428569Y-50400000D01*
X172371426Y-50342857D01*
X172371426Y-50457143D01*
X172771427Y-50742857D02*
X173228570Y-50742857D01*
X172942855Y-50342857D02*
X172942855Y-51371429D01*
X172999998Y-51485714D01*
X173114284Y-51542857D01*
X173228570Y-51542857D01*
X174428570Y-51542857D02*
X175057141Y-50742857D01*
X174428570Y-50742857D02*
X175057141Y-51542857D01*
X176942856Y-50742857D02*
X176942856Y-51542857D01*
X176657142Y-50285714D02*
X176371427Y-51142857D01*
X177114285Y-51142857D01*
X177457142Y-52000000D02*
X177514284Y-51942857D01*
X177628570Y-51771429D01*
X177685713Y-51657143D01*
X177742856Y-51485714D01*
X177799999Y-51200000D01*
X177799999Y-50971429D01*
X177742856Y-50685714D01*
X177685713Y-50514286D01*
X177628570Y-50400000D01*
X177514284Y-50228571D01*
X177457142Y-50171429D01*
X77014287Y-50900000D02*
X76900001Y-50842857D01*
X76728572Y-50842857D01*
X76557144Y-50900000D01*
X76442858Y-51014286D01*
X76385715Y-51128571D01*
X76328572Y-51357143D01*
X76328572Y-51528571D01*
X76385715Y-51757143D01*
X76442858Y-51871429D01*
X76557144Y-51985714D01*
X76728572Y-52042857D01*
X76842858Y-52042857D01*
X77014287Y-51985714D01*
X77071430Y-51928571D01*
X77071430Y-51528571D01*
X76842858Y-51528571D01*
X78042858Y-51985714D02*
X77928572Y-52042857D01*
X77700001Y-52042857D01*
X77585715Y-51985714D01*
X77528572Y-51871429D01*
X77528572Y-51414286D01*
X77585715Y-51300000D01*
X77700001Y-51242857D01*
X77928572Y-51242857D01*
X78042858Y-51300000D01*
X78100001Y-51414286D01*
X78100001Y-51528571D01*
X77528572Y-51642857D01*
X78614286Y-51242857D02*
X78614286Y-52042857D01*
X78614286Y-51357143D02*
X78671429Y-51300000D01*
X78785715Y-51242857D01*
X78957143Y-51242857D01*
X79071429Y-51300000D01*
X79128572Y-51414286D01*
X79128572Y-52042857D01*
X80157143Y-51985714D02*
X80042857Y-52042857D01*
X79814286Y-52042857D01*
X79700000Y-51985714D01*
X79642857Y-51871429D01*
X79642857Y-51414286D01*
X79700000Y-51300000D01*
X79814286Y-51242857D01*
X80042857Y-51242857D01*
X80157143Y-51300000D01*
X80214286Y-51414286D01*
X80214286Y-51528571D01*
X79642857Y-51642857D01*
X80728571Y-52042857D02*
X80728571Y-51242857D01*
X80728571Y-51471429D02*
X80785714Y-51357143D01*
X80842857Y-51300000D01*
X80957143Y-51242857D01*
X81071428Y-51242857D01*
X81985714Y-52042857D02*
X81985714Y-51414286D01*
X81928571Y-51300000D01*
X81814285Y-51242857D01*
X81585714Y-51242857D01*
X81471428Y-51300000D01*
X81985714Y-51985714D02*
X81871428Y-52042857D01*
X81585714Y-52042857D01*
X81471428Y-51985714D01*
X81414285Y-51871429D01*
X81414285Y-51757143D01*
X81471428Y-51642857D01*
X81585714Y-51585714D01*
X81871428Y-51585714D01*
X81985714Y-51528571D01*
X82728571Y-52042857D02*
X82614285Y-51985714D01*
X82557142Y-51871429D01*
X82557142Y-50842857D01*
X84099999Y-52042857D02*
X84099999Y-50842857D01*
X84557142Y-50842857D01*
X84671428Y-50900000D01*
X84728571Y-50957143D01*
X84785714Y-51071429D01*
X84785714Y-51242857D01*
X84728571Y-51357143D01*
X84671428Y-51414286D01*
X84557142Y-51471429D01*
X84099999Y-51471429D01*
X85814285Y-51242857D02*
X85814285Y-52042857D01*
X85299999Y-51242857D02*
X85299999Y-51871429D01*
X85357142Y-51985714D01*
X85471428Y-52042857D01*
X85642856Y-52042857D01*
X85757142Y-51985714D01*
X85814285Y-51928571D01*
X86385713Y-52042857D02*
X86385713Y-51242857D01*
X86385713Y-51471429D02*
X86442856Y-51357143D01*
X86499999Y-51300000D01*
X86614285Y-51242857D01*
X86728570Y-51242857D01*
X87128570Y-51242857D02*
X87128570Y-52442857D01*
X87128570Y-51300000D02*
X87242856Y-51242857D01*
X87471427Y-51242857D01*
X87585713Y-51300000D01*
X87642856Y-51357143D01*
X87699999Y-51471429D01*
X87699999Y-51814286D01*
X87642856Y-51928571D01*
X87585713Y-51985714D01*
X87471427Y-52042857D01*
X87242856Y-52042857D01*
X87128570Y-51985714D01*
X88385713Y-52042857D02*
X88271427Y-51985714D01*
X88214284Y-51928571D01*
X88157141Y-51814286D01*
X88157141Y-51471429D01*
X88214284Y-51357143D01*
X88271427Y-51300000D01*
X88385713Y-51242857D01*
X88557141Y-51242857D01*
X88671427Y-51300000D01*
X88728570Y-51357143D01*
X88785713Y-51471429D01*
X88785713Y-51814286D01*
X88728570Y-51928571D01*
X88671427Y-51985714D01*
X88557141Y-52042857D01*
X88385713Y-52042857D01*
X89242855Y-51985714D02*
X89357141Y-52042857D01*
X89585713Y-52042857D01*
X89699998Y-51985714D01*
X89757141Y-51871429D01*
X89757141Y-51814286D01*
X89699998Y-51700000D01*
X89585713Y-51642857D01*
X89414284Y-51642857D01*
X89299998Y-51585714D01*
X89242855Y-51471429D01*
X89242855Y-51414286D01*
X89299998Y-51300000D01*
X89414284Y-51242857D01*
X89585713Y-51242857D01*
X89699998Y-51300000D01*
X90728570Y-51985714D02*
X90614284Y-52042857D01*
X90385713Y-52042857D01*
X90271427Y-51985714D01*
X90214284Y-51871429D01*
X90214284Y-51414286D01*
X90271427Y-51300000D01*
X90385713Y-51242857D01*
X90614284Y-51242857D01*
X90728570Y-51300000D01*
X90785713Y-51414286D01*
X90785713Y-51528571D01*
X90214284Y-51642857D01*
X92214284Y-52042857D02*
X92214284Y-50842857D01*
X92785713Y-51242857D02*
X92785713Y-52042857D01*
X92785713Y-51357143D02*
X92842856Y-51300000D01*
X92957142Y-51242857D01*
X93128570Y-51242857D01*
X93242856Y-51300000D01*
X93299999Y-51414286D01*
X93299999Y-52042857D01*
X93871427Y-51242857D02*
X93871427Y-52442857D01*
X93871427Y-51300000D02*
X93985713Y-51242857D01*
X94214284Y-51242857D01*
X94328570Y-51300000D01*
X94385713Y-51357143D01*
X94442856Y-51471429D01*
X94442856Y-51814286D01*
X94385713Y-51928571D01*
X94328570Y-51985714D01*
X94214284Y-52042857D01*
X93985713Y-52042857D01*
X93871427Y-51985714D01*
X95471427Y-51242857D02*
X95471427Y-52042857D01*
X94957141Y-51242857D02*
X94957141Y-51871429D01*
X95014284Y-51985714D01*
X95128570Y-52042857D01*
X95299998Y-52042857D01*
X95414284Y-51985714D01*
X95471427Y-51928571D01*
X95871427Y-51242857D02*
X96328570Y-51242857D01*
X96042855Y-50842857D02*
X96042855Y-51871429D01*
X96099998Y-51985714D01*
X96214284Y-52042857D01*
X96328570Y-52042857D01*
X97642855Y-52042857D02*
X97642855Y-50842857D01*
X98099998Y-50842857D01*
X98214284Y-50900000D01*
X98271427Y-50957143D01*
X98328570Y-51071429D01*
X98328570Y-51242857D01*
X98271427Y-51357143D01*
X98214284Y-51414286D01*
X98099998Y-51471429D01*
X97642855Y-51471429D01*
X99014284Y-52042857D02*
X98899998Y-51985714D01*
X98842855Y-51928571D01*
X98785712Y-51814286D01*
X98785712Y-51471429D01*
X98842855Y-51357143D01*
X98899998Y-51300000D01*
X99014284Y-51242857D01*
X99185712Y-51242857D01*
X99299998Y-51300000D01*
X99357141Y-51357143D01*
X99414284Y-51471429D01*
X99414284Y-51814286D01*
X99357141Y-51928571D01*
X99299998Y-51985714D01*
X99185712Y-52042857D01*
X99014284Y-52042857D01*
X99928569Y-52042857D02*
X99928569Y-51242857D01*
X99928569Y-51471429D02*
X99985712Y-51357143D01*
X100042855Y-51300000D01*
X100157141Y-51242857D01*
X100271426Y-51242857D01*
X100499998Y-51242857D02*
X100957141Y-51242857D01*
X100671426Y-50842857D02*
X100671426Y-51871429D01*
X100728569Y-51985714D01*
X100842855Y-52042857D01*
X100957141Y-52042857D01*
X101299997Y-51985714D02*
X101414283Y-52042857D01*
X101642855Y-52042857D01*
X101757140Y-51985714D01*
X101814283Y-51871429D01*
X101814283Y-51814286D01*
X101757140Y-51700000D01*
X101642855Y-51642857D01*
X101471426Y-51642857D01*
X101357140Y-51585714D01*
X101299997Y-51471429D01*
X101299997Y-51414286D01*
X101357140Y-51300000D01*
X101471426Y-51242857D01*
X101642855Y-51242857D01*
X101757140Y-51300000D01*
X103585712Y-52500000D02*
X103528570Y-52442857D01*
X103414284Y-52271429D01*
X103357141Y-52157143D01*
X103299998Y-51985714D01*
X103242855Y-51700000D01*
X103242855Y-51471429D01*
X103299998Y-51185714D01*
X103357141Y-51014286D01*
X103414284Y-50900000D01*
X103528570Y-50728571D01*
X103585712Y-50671429D01*
X104214284Y-51357143D02*
X104099998Y-51300000D01*
X104042855Y-51242857D01*
X103985712Y-51128571D01*
X103985712Y-51071429D01*
X104042855Y-50957143D01*
X104099998Y-50900000D01*
X104214284Y-50842857D01*
X104442855Y-50842857D01*
X104557141Y-50900000D01*
X104614284Y-50957143D01*
X104671427Y-51071429D01*
X104671427Y-51128571D01*
X104614284Y-51242857D01*
X104557141Y-51300000D01*
X104442855Y-51357143D01*
X104214284Y-51357143D01*
X104099998Y-51414286D01*
X104042855Y-51471429D01*
X103985712Y-51585714D01*
X103985712Y-51814286D01*
X104042855Y-51928571D01*
X104099998Y-51985714D01*
X104214284Y-52042857D01*
X104442855Y-52042857D01*
X104557141Y-51985714D01*
X104614284Y-51928571D01*
X104671427Y-51814286D01*
X104671427Y-51585714D01*
X104614284Y-51471429D01*
X104557141Y-51414286D01*
X104442855Y-51357143D01*
X106099998Y-52042857D02*
X106099998Y-50842857D01*
X106099998Y-51300000D02*
X106214284Y-51242857D01*
X106442855Y-51242857D01*
X106557141Y-51300000D01*
X106614284Y-51357143D01*
X106671427Y-51471429D01*
X106671427Y-51814286D01*
X106614284Y-51928571D01*
X106557141Y-51985714D01*
X106442855Y-52042857D01*
X106214284Y-52042857D01*
X106099998Y-51985714D01*
X107185712Y-52042857D02*
X107185712Y-51242857D01*
X107185712Y-50842857D02*
X107128569Y-50900000D01*
X107185712Y-50957143D01*
X107242855Y-50900000D01*
X107185712Y-50842857D01*
X107185712Y-50957143D01*
X107585713Y-51242857D02*
X108042856Y-51242857D01*
X107757141Y-50842857D02*
X107757141Y-51871429D01*
X107814284Y-51985714D01*
X107928570Y-52042857D01*
X108042856Y-52042857D01*
X109242856Y-52042857D02*
X109871427Y-51242857D01*
X109242856Y-51242857D02*
X109871427Y-52042857D01*
X111757142Y-51242857D02*
X111757142Y-52042857D01*
X111471428Y-50785714D02*
X111185713Y-51642857D01*
X111928571Y-51642857D01*
X112271428Y-52500000D02*
X112328570Y-52442857D01*
X112442856Y-52271429D01*
X112499999Y-52157143D01*
X112557142Y-51985714D01*
X112614285Y-51700000D01*
X112614285Y-51471429D01*
X112557142Y-51185714D01*
X112499999Y-51014286D01*
X112442856Y-50900000D01*
X112328570Y-50728571D01*
X112271428Y-50671429D01*
X103952381Y-40785714D02*
X102952381Y-40785714D01*
X103952381Y-40214285D01*
X102952381Y-40214285D01*
X103857143Y-39166666D02*
X103904762Y-39214285D01*
X103952381Y-39357142D01*
X103952381Y-39452380D01*
X103904762Y-39595238D01*
X103809524Y-39690476D01*
X103714286Y-39738095D01*
X103523810Y-39785714D01*
X103380952Y-39785714D01*
X103190476Y-39738095D01*
X103095238Y-39690476D01*
X103000000Y-39595238D01*
X102952381Y-39452380D01*
X102952381Y-39357142D01*
X103000000Y-39214285D01*
X103047619Y-39166666D01*
X103000000Y-42238095D02*
X102952381Y-42333333D01*
X102952381Y-42476190D01*
X103000000Y-42619048D01*
X103095238Y-42714286D01*
X103190476Y-42761905D01*
X103380952Y-42809524D01*
X103523810Y-42809524D01*
X103714286Y-42761905D01*
X103809524Y-42714286D01*
X103904762Y-42619048D01*
X103952381Y-42476190D01*
X103952381Y-42380952D01*
X103904762Y-42238095D01*
X103857143Y-42190476D01*
X103523810Y-42190476D01*
X103523810Y-42380952D01*
X51571429Y-126285714D02*
X51571429Y-125523809D01*
X51952381Y-125904761D02*
X51190476Y-125904761D01*
X50952381Y-124571428D02*
X50952381Y-125047619D01*
X51428571Y-125095238D01*
X51380952Y-125047619D01*
X51333333Y-124952381D01*
X51333333Y-124714285D01*
X51380952Y-124619047D01*
X51428571Y-124571428D01*
X51523810Y-124523809D01*
X51761905Y-124523809D01*
X51857143Y-124571428D01*
X51904762Y-124619047D01*
X51952381Y-124714285D01*
X51952381Y-124952381D01*
X51904762Y-125047619D01*
X51857143Y-125095238D01*
X50952381Y-124238095D02*
X51952381Y-123904762D01*
X50952381Y-123571428D01*
X51000000Y-121238095D02*
X50952381Y-121333333D01*
X50952381Y-121476190D01*
X51000000Y-121619048D01*
X51095238Y-121714286D01*
X51190476Y-121761905D01*
X51380952Y-121809524D01*
X51523810Y-121809524D01*
X51714286Y-121761905D01*
X51809524Y-121714286D01*
X51904762Y-121619048D01*
X51952381Y-121476190D01*
X51952381Y-121380952D01*
X51904762Y-121238095D01*
X51857143Y-121190476D01*
X51523810Y-121190476D01*
X51523810Y-121380952D01*
X70785714Y-133452381D02*
X70785714Y-132452381D01*
X71023809Y-132452381D01*
X71166667Y-132500000D01*
X71261905Y-132595238D01*
X71309524Y-132690476D01*
X71357143Y-132880952D01*
X71357143Y-133023810D01*
X71309524Y-133214286D01*
X71261905Y-133309524D01*
X71166667Y-133404762D01*
X71023809Y-133452381D01*
X70785714Y-133452381D01*
X72166667Y-133404762D02*
X72071429Y-133452381D01*
X71880952Y-133452381D01*
X71785714Y-133404762D01*
X71738095Y-133309524D01*
X71738095Y-132928571D01*
X71785714Y-132833333D01*
X71880952Y-132785714D01*
X72071429Y-132785714D01*
X72166667Y-132833333D01*
X72214286Y-132928571D01*
X72214286Y-133023810D01*
X71738095Y-133119048D01*
X72595238Y-133404762D02*
X72690476Y-133452381D01*
X72880952Y-133452381D01*
X72976191Y-133404762D01*
X73023810Y-133309524D01*
X73023810Y-133261905D01*
X72976191Y-133166667D01*
X72880952Y-133119048D01*
X72738095Y-133119048D01*
X72642857Y-133071429D01*
X72595238Y-132976190D01*
X72595238Y-132928571D01*
X72642857Y-132833333D01*
X72738095Y-132785714D01*
X72880952Y-132785714D01*
X72976191Y-132833333D01*
X73452381Y-133452381D02*
X73452381Y-132785714D01*
X73452381Y-132452381D02*
X73404762Y-132500000D01*
X73452381Y-132547619D01*
X73500000Y-132500000D01*
X73452381Y-132452381D01*
X73452381Y-132547619D01*
X74357143Y-132785714D02*
X74357143Y-133595238D01*
X74309524Y-133690476D01*
X74261905Y-133738095D01*
X74166666Y-133785714D01*
X74023809Y-133785714D01*
X73928571Y-133738095D01*
X74357143Y-133404762D02*
X74261905Y-133452381D01*
X74071428Y-133452381D01*
X73976190Y-133404762D01*
X73928571Y-133357143D01*
X73880952Y-133261905D01*
X73880952Y-132976190D01*
X73928571Y-132880952D01*
X73976190Y-132833333D01*
X74071428Y-132785714D01*
X74261905Y-132785714D01*
X74357143Y-132833333D01*
X74833333Y-132785714D02*
X74833333Y-133452381D01*
X74833333Y-132880952D02*
X74880952Y-132833333D01*
X74976190Y-132785714D01*
X75119048Y-132785714D01*
X75214286Y-132833333D01*
X75261905Y-132928571D01*
X75261905Y-133452381D01*
X76119048Y-133404762D02*
X76023810Y-133452381D01*
X75833333Y-133452381D01*
X75738095Y-133404762D01*
X75690476Y-133309524D01*
X75690476Y-132928571D01*
X75738095Y-132833333D01*
X75833333Y-132785714D01*
X76023810Y-132785714D01*
X76119048Y-132833333D01*
X76166667Y-132928571D01*
X76166667Y-133023810D01*
X75690476Y-133119048D01*
X77023810Y-133452381D02*
X77023810Y-132452381D01*
X77023810Y-133404762D02*
X76928572Y-133452381D01*
X76738095Y-133452381D01*
X76642857Y-133404762D01*
X76595238Y-133357143D01*
X76547619Y-133261905D01*
X76547619Y-132976190D01*
X76595238Y-132880952D01*
X76642857Y-132833333D01*
X76738095Y-132785714D01*
X76928572Y-132785714D01*
X77023810Y-132833333D01*
X78261905Y-133452381D02*
X78261905Y-132452381D01*
X78261905Y-132833333D02*
X78357143Y-132785714D01*
X78547620Y-132785714D01*
X78642858Y-132833333D01*
X78690477Y-132880952D01*
X78738096Y-132976190D01*
X78738096Y-133261905D01*
X78690477Y-133357143D01*
X78642858Y-133404762D01*
X78547620Y-133452381D01*
X78357143Y-133452381D01*
X78261905Y-133404762D01*
X79071429Y-132785714D02*
X79309524Y-133452381D01*
X79547620Y-132785714D02*
X79309524Y-133452381D01*
X79214286Y-133690476D01*
X79166667Y-133738095D01*
X79071429Y-133785714D01*
X81119049Y-132785714D02*
X81119049Y-133452381D01*
X80690477Y-132785714D02*
X80690477Y-133309524D01*
X80738096Y-133404762D01*
X80833334Y-133452381D01*
X80976192Y-133452381D01*
X81071430Y-133404762D01*
X81119049Y-133357143D01*
X81547620Y-133404762D02*
X81642858Y-133452381D01*
X81833334Y-133452381D01*
X81928573Y-133404762D01*
X81976192Y-133309524D01*
X81976192Y-133261905D01*
X81928573Y-133166667D01*
X81833334Y-133119048D01*
X81690477Y-133119048D01*
X81595239Y-133071429D01*
X81547620Y-132976190D01*
X81547620Y-132928571D01*
X81595239Y-132833333D01*
X81690477Y-132785714D01*
X81833334Y-132785714D01*
X81928573Y-132833333D01*
X82404763Y-133452381D02*
X82404763Y-132785714D01*
X82404763Y-132452381D02*
X82357144Y-132500000D01*
X82404763Y-132547619D01*
X82452382Y-132500000D01*
X82404763Y-132452381D01*
X82404763Y-132547619D01*
X82880953Y-132785714D02*
X82880953Y-133452381D01*
X82880953Y-132880952D02*
X82928572Y-132833333D01*
X83023810Y-132785714D01*
X83166668Y-132785714D01*
X83261906Y-132833333D01*
X83309525Y-132928571D01*
X83309525Y-133452381D01*
X84214287Y-132785714D02*
X84214287Y-133595238D01*
X84166668Y-133690476D01*
X84119049Y-133738095D01*
X84023810Y-133785714D01*
X83880953Y-133785714D01*
X83785715Y-133738095D01*
X84214287Y-133404762D02*
X84119049Y-133452381D01*
X83928572Y-133452381D01*
X83833334Y-133404762D01*
X83785715Y-133357143D01*
X83738096Y-133261905D01*
X83738096Y-132976190D01*
X83785715Y-132880952D01*
X83833334Y-132833333D01*
X83928572Y-132785714D01*
X84119049Y-132785714D01*
X84214287Y-132833333D01*
X201857143Y-103166667D02*
X201904762Y-103214286D01*
X201952381Y-103357143D01*
X201952381Y-103452381D01*
X201904762Y-103595239D01*
X201809524Y-103690477D01*
X201714286Y-103738096D01*
X201523810Y-103785715D01*
X201380952Y-103785715D01*
X201190476Y-103738096D01*
X201095238Y-103690477D01*
X201000000Y-103595239D01*
X200952381Y-103452381D01*
X200952381Y-103357143D01*
X201000000Y-103214286D01*
X201047619Y-103166667D01*
X201952381Y-102738096D02*
X201285714Y-102738096D01*
X200952381Y-102738096D02*
X201000000Y-102785715D01*
X201047619Y-102738096D01*
X201000000Y-102690477D01*
X200952381Y-102738096D01*
X201047619Y-102738096D01*
X201952381Y-102261906D02*
X201285714Y-102261906D01*
X201476190Y-102261906D02*
X201380952Y-102214287D01*
X201333333Y-102166668D01*
X201285714Y-102071430D01*
X201285714Y-101976191D01*
X201904762Y-101214286D02*
X201952381Y-101309524D01*
X201952381Y-101500001D01*
X201904762Y-101595239D01*
X201857143Y-101642858D01*
X201761905Y-101690477D01*
X201476190Y-101690477D01*
X201380952Y-101642858D01*
X201333333Y-101595239D01*
X201285714Y-101500001D01*
X201285714Y-101309524D01*
X201333333Y-101214286D01*
X201952381Y-100642858D02*
X201904762Y-100738096D01*
X201809524Y-100785715D01*
X200952381Y-100785715D01*
X201904762Y-99880952D02*
X201952381Y-99976190D01*
X201952381Y-100166667D01*
X201904762Y-100261905D01*
X201809524Y-100309524D01*
X201428571Y-100309524D01*
X201333333Y-100261905D01*
X201285714Y-100166667D01*
X201285714Y-99976190D01*
X201333333Y-99880952D01*
X201428571Y-99833333D01*
X201523810Y-99833333D01*
X201619048Y-100309524D01*
X201952381Y-98642857D02*
X200952381Y-98642857D01*
X201666667Y-98309523D01*
X200952381Y-97976190D01*
X201952381Y-97976190D01*
X201904762Y-97119047D02*
X201952381Y-97214285D01*
X201952381Y-97404762D01*
X201904762Y-97500000D01*
X201809524Y-97547619D01*
X201428571Y-97547619D01*
X201333333Y-97500000D01*
X201285714Y-97404762D01*
X201285714Y-97214285D01*
X201333333Y-97119047D01*
X201428571Y-97071428D01*
X201523810Y-97071428D01*
X201619048Y-97547619D01*
X201952381Y-96642857D02*
X201285714Y-96642857D01*
X201476190Y-96642857D02*
X201380952Y-96595238D01*
X201333333Y-96547619D01*
X201285714Y-96452381D01*
X201285714Y-96357142D01*
X201904762Y-95595237D02*
X201952381Y-95690475D01*
X201952381Y-95880952D01*
X201904762Y-95976190D01*
X201857143Y-96023809D01*
X201761905Y-96071428D01*
X201476190Y-96071428D01*
X201380952Y-96023809D01*
X201333333Y-95976190D01*
X201285714Y-95880952D01*
X201285714Y-95690475D01*
X201333333Y-95595237D01*
X201285714Y-94738094D02*
X201952381Y-94738094D01*
X201285714Y-95166666D02*
X201809524Y-95166666D01*
X201904762Y-95119047D01*
X201952381Y-95023809D01*
X201952381Y-94880951D01*
X201904762Y-94785713D01*
X201857143Y-94738094D01*
X201952381Y-94261904D02*
X201285714Y-94261904D01*
X201476190Y-94261904D02*
X201380952Y-94214285D01*
X201333333Y-94166666D01*
X201285714Y-94071428D01*
X201285714Y-93976189D01*
X201285714Y-93738094D02*
X201952381Y-93499999D01*
X201285714Y-93261903D02*
X201952381Y-93499999D01*
X202190476Y-93595237D01*
X202238095Y-93642856D01*
X202285714Y-93738094D01*
X201952381Y-92119046D02*
X200952381Y-92119046D01*
X201952381Y-91547617D01*
X200952381Y-91547617D01*
X201952381Y-91071427D02*
X200952381Y-91071427D01*
X201952381Y-90595237D02*
X200952381Y-90595237D01*
X201428571Y-90595237D02*
X201428571Y-90023808D01*
X201952381Y-90023808D02*
X200952381Y-90023808D01*
X200952381Y-89357142D02*
X200952381Y-89166665D01*
X201000000Y-89071427D01*
X201095238Y-88976189D01*
X201285714Y-88928570D01*
X201619048Y-88928570D01*
X201809524Y-88976189D01*
X201904762Y-89071427D01*
X201952381Y-89166665D01*
X201952381Y-89357142D01*
X201904762Y-89452380D01*
X201809524Y-89547618D01*
X201619048Y-89595237D01*
X201285714Y-89595237D01*
X201095238Y-89547618D01*
X201000000Y-89452380D01*
X200952381Y-89357142D01*
X201952381Y-88499999D02*
X200952381Y-88499999D01*
X201666667Y-88166665D01*
X200952381Y-87833332D01*
X201952381Y-87833332D01*
X201428571Y-87023808D02*
X201476190Y-86880951D01*
X201523810Y-86833332D01*
X201619048Y-86785713D01*
X201761905Y-86785713D01*
X201857143Y-86833332D01*
X201904762Y-86880951D01*
X201952381Y-86976189D01*
X201952381Y-87357142D01*
X200952381Y-87357142D01*
X200952381Y-87023808D01*
X201000000Y-86928570D01*
X201047619Y-86880951D01*
X201142857Y-86833332D01*
X201238095Y-86833332D01*
X201333333Y-86880951D01*
X201380952Y-86928570D01*
X201428571Y-87023808D01*
X201428571Y-87357142D01*
X201666667Y-86404761D02*
X201666667Y-85928570D01*
X201952381Y-86499999D02*
X200952381Y-86166666D01*
X201952381Y-85833332D01*
X201904762Y-85547618D02*
X201952381Y-85404761D01*
X201952381Y-85166665D01*
X201904762Y-85071427D01*
X201857143Y-85023808D01*
X201761905Y-84976189D01*
X201666667Y-84976189D01*
X201571429Y-85023808D01*
X201523810Y-85071427D01*
X201476190Y-85166665D01*
X201428571Y-85357142D01*
X201380952Y-85452380D01*
X201333333Y-85499999D01*
X201238095Y-85547618D01*
X201142857Y-85547618D01*
X201047619Y-85499999D01*
X201000000Y-85452380D01*
X200952381Y-85357142D01*
X200952381Y-85119046D01*
X201000000Y-84976189D01*
X201952381Y-84547618D02*
X200952381Y-84547618D01*
X201428571Y-84547618D02*
X201428571Y-83976189D01*
X201952381Y-83976189D02*
X200952381Y-83976189D01*
X201952381Y-83499999D02*
X200952381Y-83499999D01*
X201952381Y-82261904D02*
X200952381Y-82261904D01*
X201666667Y-81928570D01*
X200952381Y-81595237D01*
X201952381Y-81595237D01*
X201952381Y-81119047D02*
X200952381Y-81119047D01*
X201666667Y-80785713D01*
X200952381Y-80452380D01*
X201952381Y-80452380D01*
X200952381Y-80071428D02*
X201952381Y-79404761D01*
X200952381Y-79404761D02*
X201952381Y-80071428D01*
X201952381Y-79023809D02*
X200952381Y-79023809D01*
X200952381Y-78642857D02*
X201952381Y-77976190D01*
X200952381Y-77976190D02*
X201952381Y-78642857D01*
X201952381Y-76833333D02*
X200952381Y-76833333D01*
X201333333Y-76833333D02*
X201285714Y-76738095D01*
X201285714Y-76547618D01*
X201333333Y-76452380D01*
X201380952Y-76404761D01*
X201476190Y-76357142D01*
X201761905Y-76357142D01*
X201857143Y-76404761D01*
X201904762Y-76452380D01*
X201952381Y-76547618D01*
X201952381Y-76738095D01*
X201904762Y-76833333D01*
X201285714Y-76023809D02*
X201952381Y-75785714D01*
X201285714Y-75547618D02*
X201952381Y-75785714D01*
X202190476Y-75880952D01*
X202238095Y-75928571D01*
X202285714Y-76023809D01*
X200952381Y-74119046D02*
X201666667Y-74119046D01*
X201809524Y-74166666D01*
X201904762Y-74261904D01*
X201952381Y-74404761D01*
X201952381Y-74499999D01*
X201666667Y-73690475D02*
X201666667Y-73214284D01*
X201952381Y-73785713D02*
X200952381Y-73452380D01*
X201952381Y-73119046D01*
X201952381Y-72261903D02*
X201952381Y-72833332D01*
X201952381Y-72547618D02*
X200952381Y-72547618D01*
X201095238Y-72642856D01*
X201190476Y-72738094D01*
X201238095Y-72833332D01*
X200952381Y-71833332D02*
X201761905Y-71833332D01*
X201857143Y-71785713D01*
X201904762Y-71738094D01*
X201952381Y-71642856D01*
X201952381Y-71452379D01*
X201904762Y-71357141D01*
X201857143Y-71309522D01*
X201761905Y-71261903D01*
X200952381Y-71261903D01*
X201952381Y-70785713D02*
X200952381Y-70785713D01*
X201666667Y-70452379D01*
X200952381Y-70119046D01*
X201952381Y-70119046D01*
X201952381Y-69642856D02*
X200952381Y-69642856D01*
X200904762Y-68452380D02*
X202190476Y-69309523D01*
X201666667Y-68166666D02*
X201666667Y-67690475D01*
X201952381Y-68261904D02*
X200952381Y-67928571D01*
X201952381Y-67595237D01*
X201428571Y-67261904D02*
X201428571Y-66928570D01*
X201952381Y-66785713D02*
X201952381Y-67261904D01*
X200952381Y-67261904D01*
X200952381Y-66785713D01*
X200952381Y-65928570D02*
X200952381Y-66119047D01*
X201000000Y-66214285D01*
X201047619Y-66261904D01*
X201190476Y-66357142D01*
X201380952Y-66404761D01*
X201761905Y-66404761D01*
X201857143Y-66357142D01*
X201904762Y-66309523D01*
X201952381Y-66214285D01*
X201952381Y-66023808D01*
X201904762Y-65928570D01*
X201857143Y-65880951D01*
X201761905Y-65833332D01*
X201523810Y-65833332D01*
X201428571Y-65880951D01*
X201380952Y-65928570D01*
X201333333Y-66023808D01*
X201333333Y-66214285D01*
X201380952Y-66309523D01*
X201428571Y-66357142D01*
X201523810Y-66404761D01*
X200952381Y-65547618D02*
X200952381Y-64976189D01*
X201952381Y-65261904D02*
X200952381Y-65261904D01*
X201428571Y-64309522D02*
X201428571Y-64642856D01*
X201952381Y-64642856D02*
X200952381Y-64642856D01*
X200952381Y-64166665D01*
X200178571Y-115714285D02*
X200178571Y-116071428D01*
X198035714Y-116071428D01*
X198035714Y-115714285D01*
X199678571Y-115142856D02*
X198178571Y-115142856D01*
X199250000Y-114642856D01*
X198178571Y-114142856D01*
X199678571Y-114142856D01*
X198178571Y-113428570D02*
X199392857Y-113428570D01*
X199535714Y-113357142D01*
X199607143Y-113285713D01*
X199678571Y-113142856D01*
X199678571Y-112857142D01*
X199607143Y-112714284D01*
X199535714Y-112642856D01*
X199392857Y-112571427D01*
X198178571Y-112571427D01*
X198178571Y-112071427D02*
X198178571Y-111214284D01*
X199678571Y-111642855D02*
X198178571Y-111642855D01*
X199678571Y-110714284D02*
X198178571Y-110714284D01*
X198892857Y-109499998D02*
X198892857Y-109999998D01*
X199678571Y-109999998D02*
X198178571Y-109999998D01*
X198178571Y-109285712D01*
X198178571Y-108428570D02*
X198178571Y-108285713D01*
X198250000Y-108142856D01*
X198321429Y-108071427D01*
X198464286Y-107999998D01*
X198750000Y-107928570D01*
X199107143Y-107928570D01*
X199392857Y-107999998D01*
X199535714Y-108071427D01*
X199607143Y-108142856D01*
X199678571Y-108285713D01*
X199678571Y-108428570D01*
X199607143Y-108571427D01*
X199535714Y-108642856D01*
X199392857Y-108714284D01*
X199107143Y-108785713D01*
X198750000Y-108785713D01*
X198464286Y-108714284D01*
X198321429Y-108642856D01*
X198250000Y-108571427D01*
X198178571Y-108428570D01*
X199678571Y-107214285D02*
X199678571Y-106928570D01*
X199607143Y-106785713D01*
X199535714Y-106714285D01*
X199321429Y-106571427D01*
X199035714Y-106499999D01*
X198464286Y-106499999D01*
X198321429Y-106571427D01*
X198250000Y-106642856D01*
X198178571Y-106785713D01*
X198178571Y-107071427D01*
X198250000Y-107214285D01*
X198321429Y-107285713D01*
X198464286Y-107357142D01*
X198821429Y-107357142D01*
X198964286Y-107285713D01*
X199035714Y-107214285D01*
X199107143Y-107071427D01*
X199107143Y-106785713D01*
X199035714Y-106642856D01*
X198964286Y-106571427D01*
X198821429Y-106499999D01*
X200178571Y-105999999D02*
X200178571Y-105642856D01*
X198035714Y-105642856D01*
X198035714Y-105999999D01*
X198250000Y-102928571D02*
X198178571Y-103071428D01*
X198178571Y-103285714D01*
X198250000Y-103499999D01*
X198392857Y-103642857D01*
X198535714Y-103714285D01*
X198821429Y-103785714D01*
X199035714Y-103785714D01*
X199321429Y-103714285D01*
X199464286Y-103642857D01*
X199607143Y-103499999D01*
X199678571Y-103285714D01*
X199678571Y-103142857D01*
X199607143Y-102928571D01*
X199535714Y-102857142D01*
X199035714Y-102857142D01*
X199035714Y-103142857D01*
X199678571Y-102214285D02*
X198178571Y-102214285D01*
X198178571Y-101642857D01*
X198250000Y-101499999D01*
X198321429Y-101428571D01*
X198464286Y-101357142D01*
X198678571Y-101357142D01*
X198821429Y-101428571D01*
X198892857Y-101499999D01*
X198964286Y-101642857D01*
X198964286Y-102214285D01*
X199678571Y-100714285D02*
X198178571Y-100714285D01*
X198178571Y-99714285D02*
X198178571Y-99428571D01*
X198250000Y-99285713D01*
X198392857Y-99142856D01*
X198678571Y-99071428D01*
X199178571Y-99071428D01*
X199464286Y-99142856D01*
X199607143Y-99285713D01*
X199678571Y-99428571D01*
X199678571Y-99714285D01*
X199607143Y-99857142D01*
X199464286Y-99999999D01*
X199178571Y-100071428D01*
X198678571Y-100071428D01*
X198392857Y-99999999D01*
X198250000Y-99857142D01*
X198178571Y-99714285D01*
X198892857Y-97285713D02*
X198892857Y-96785713D01*
X199678571Y-96571427D02*
X199678571Y-97285713D01*
X198178571Y-97285713D01*
X198178571Y-96571427D01*
X199678571Y-96071427D02*
X198678571Y-95285713D01*
X198678571Y-96071427D02*
X199678571Y-95285713D01*
X198678571Y-94714284D02*
X200178571Y-94714284D01*
X198750000Y-94714284D02*
X198678571Y-94571427D01*
X198678571Y-94285713D01*
X198750000Y-94142856D01*
X198821429Y-94071427D01*
X198964286Y-93999998D01*
X199392857Y-93999998D01*
X199535714Y-94071427D01*
X199607143Y-94142856D01*
X199678571Y-94285713D01*
X199678571Y-94571427D01*
X199607143Y-94714284D01*
X199678571Y-92714284D02*
X198892857Y-92714284D01*
X198750000Y-92785713D01*
X198678571Y-92928570D01*
X198678571Y-93214284D01*
X198750000Y-93357141D01*
X199607143Y-92714284D02*
X199678571Y-92857141D01*
X199678571Y-93214284D01*
X199607143Y-93357141D01*
X199464286Y-93428570D01*
X199321429Y-93428570D01*
X199178571Y-93357141D01*
X199107143Y-93214284D01*
X199107143Y-92857141D01*
X199035714Y-92714284D01*
X198678571Y-91999998D02*
X199678571Y-91999998D01*
X198821429Y-91999998D02*
X198750000Y-91928570D01*
X198678571Y-91785712D01*
X198678571Y-91571427D01*
X198750000Y-91428570D01*
X198892857Y-91357141D01*
X199678571Y-91357141D01*
X199607143Y-90714284D02*
X199678571Y-90571427D01*
X199678571Y-90285712D01*
X199607143Y-90142855D01*
X199464286Y-90071427D01*
X199392857Y-90071427D01*
X199250000Y-90142855D01*
X199178571Y-90285712D01*
X199178571Y-90499998D01*
X199107143Y-90642855D01*
X198964286Y-90714284D01*
X198892857Y-90714284D01*
X198750000Y-90642855D01*
X198678571Y-90499998D01*
X198678571Y-90285712D01*
X198750000Y-90142855D01*
X199678571Y-89428569D02*
X198678571Y-89428569D01*
X198178571Y-89428569D02*
X198250000Y-89499998D01*
X198321429Y-89428569D01*
X198250000Y-89357141D01*
X198178571Y-89428569D01*
X198321429Y-89428569D01*
X199678571Y-88499997D02*
X199607143Y-88642855D01*
X199535714Y-88714283D01*
X199392857Y-88785712D01*
X198964286Y-88785712D01*
X198821429Y-88714283D01*
X198750000Y-88642855D01*
X198678571Y-88499997D01*
X198678571Y-88285712D01*
X198750000Y-88142855D01*
X198821429Y-88071426D01*
X198964286Y-87999997D01*
X199392857Y-87999997D01*
X199535714Y-88071426D01*
X199607143Y-88142855D01*
X199678571Y-88285712D01*
X199678571Y-88499997D01*
X198678571Y-87357140D02*
X199678571Y-87357140D01*
X198821429Y-87357140D02*
X198750000Y-87285712D01*
X198678571Y-87142854D01*
X198678571Y-86928569D01*
X198750000Y-86785712D01*
X198892857Y-86714283D01*
X199678571Y-86714283D01*
X198892857Y-84357140D02*
X198964286Y-84142854D01*
X199035714Y-84071426D01*
X199178571Y-83999997D01*
X199392857Y-83999997D01*
X199535714Y-84071426D01*
X199607143Y-84142854D01*
X199678571Y-84285712D01*
X199678571Y-84857140D01*
X198178571Y-84857140D01*
X198178571Y-84357140D01*
X198250000Y-84214283D01*
X198321429Y-84142854D01*
X198464286Y-84071426D01*
X198607143Y-84071426D01*
X198750000Y-84142854D01*
X198821429Y-84214283D01*
X198892857Y-84357140D01*
X198892857Y-84857140D01*
X199678571Y-83142854D02*
X199607143Y-83285712D01*
X199535714Y-83357140D01*
X199392857Y-83428569D01*
X198964286Y-83428569D01*
X198821429Y-83357140D01*
X198750000Y-83285712D01*
X198678571Y-83142854D01*
X198678571Y-82928569D01*
X198750000Y-82785712D01*
X198821429Y-82714283D01*
X198964286Y-82642854D01*
X199392857Y-82642854D01*
X199535714Y-82714283D01*
X199607143Y-82785712D01*
X199678571Y-82928569D01*
X199678571Y-83142854D01*
X199678571Y-81357140D02*
X198892857Y-81357140D01*
X198750000Y-81428569D01*
X198678571Y-81571426D01*
X198678571Y-81857140D01*
X198750000Y-81999997D01*
X199607143Y-81357140D02*
X199678571Y-81499997D01*
X199678571Y-81857140D01*
X199607143Y-81999997D01*
X199464286Y-82071426D01*
X199321429Y-82071426D01*
X199178571Y-81999997D01*
X199107143Y-81857140D01*
X199107143Y-81499997D01*
X199035714Y-81357140D01*
X199678571Y-80642854D02*
X198678571Y-80642854D01*
X198964286Y-80642854D02*
X198821429Y-80571426D01*
X198750000Y-80499997D01*
X198678571Y-80357140D01*
X198678571Y-80214283D01*
X199678571Y-79071426D02*
X198178571Y-79071426D01*
X199607143Y-79071426D02*
X199678571Y-79214283D01*
X199678571Y-79499997D01*
X199607143Y-79642855D01*
X199535714Y-79714283D01*
X199392857Y-79785712D01*
X198964286Y-79785712D01*
X198821429Y-79714283D01*
X198750000Y-79642855D01*
X198678571Y-79499997D01*
X198678571Y-79214283D01*
X198750000Y-79071426D01*
X198678571Y-77428569D02*
X198678571Y-76857140D01*
X199678571Y-77214283D02*
X198392857Y-77214283D01*
X198250000Y-77142855D01*
X198178571Y-76999997D01*
X198178571Y-76857140D01*
X199678571Y-76142854D02*
X199607143Y-76285712D01*
X199535714Y-76357140D01*
X199392857Y-76428569D01*
X198964286Y-76428569D01*
X198821429Y-76357140D01*
X198750000Y-76285712D01*
X198678571Y-76142854D01*
X198678571Y-75928569D01*
X198750000Y-75785712D01*
X198821429Y-75714283D01*
X198964286Y-75642854D01*
X199392857Y-75642854D01*
X199535714Y-75714283D01*
X199607143Y-75785712D01*
X199678571Y-75928569D01*
X199678571Y-76142854D01*
X199678571Y-74999997D02*
X198678571Y-74999997D01*
X198964286Y-74999997D02*
X198821429Y-74928569D01*
X198750000Y-74857140D01*
X198678571Y-74714283D01*
X198678571Y-74571426D01*
X198178571Y-72285712D02*
X198178571Y-72571426D01*
X198250000Y-72714283D01*
X198321429Y-72785712D01*
X198535714Y-72928569D01*
X198821429Y-72999998D01*
X199392857Y-72999998D01*
X199535714Y-72928569D01*
X199607143Y-72857141D01*
X199678571Y-72714283D01*
X199678571Y-72428569D01*
X199607143Y-72285712D01*
X199535714Y-72214283D01*
X199392857Y-72142855D01*
X199035714Y-72142855D01*
X198892857Y-72214283D01*
X198821429Y-72285712D01*
X198750000Y-72428569D01*
X198750000Y-72714283D01*
X198821429Y-72857141D01*
X198892857Y-72928569D01*
X199035714Y-72999998D01*
X198821429Y-71285712D02*
X198750000Y-71428570D01*
X198678571Y-71499998D01*
X198535714Y-71571427D01*
X198464286Y-71571427D01*
X198321429Y-71499998D01*
X198250000Y-71428570D01*
X198178571Y-71285712D01*
X198178571Y-70999998D01*
X198250000Y-70857141D01*
X198321429Y-70785712D01*
X198464286Y-70714284D01*
X198535714Y-70714284D01*
X198678571Y-70785712D01*
X198750000Y-70857141D01*
X198821429Y-70999998D01*
X198821429Y-71285712D01*
X198892857Y-71428570D01*
X198964286Y-71499998D01*
X199107143Y-71571427D01*
X199392857Y-71571427D01*
X199535714Y-71499998D01*
X199607143Y-71428570D01*
X199678571Y-71285712D01*
X199678571Y-70999998D01*
X199607143Y-70857141D01*
X199535714Y-70785712D01*
X199392857Y-70714284D01*
X199107143Y-70714284D01*
X198964286Y-70785712D01*
X198892857Y-70857141D01*
X198821429Y-70999998D01*
X198178571Y-69785713D02*
X198178571Y-69642856D01*
X198250000Y-69499999D01*
X198321429Y-69428570D01*
X198464286Y-69357141D01*
X198750000Y-69285713D01*
X199107143Y-69285713D01*
X199392857Y-69357141D01*
X199535714Y-69428570D01*
X199607143Y-69499999D01*
X199678571Y-69642856D01*
X199678571Y-69785713D01*
X199607143Y-69928570D01*
X199535714Y-69999999D01*
X199392857Y-70071427D01*
X199107143Y-70142856D01*
X198750000Y-70142856D01*
X198464286Y-70071427D01*
X198321429Y-69999999D01*
X198250000Y-69928570D01*
X198178571Y-69785713D01*
X199678571Y-68571428D02*
X199678571Y-68285713D01*
X199607143Y-68142856D01*
X199535714Y-68071428D01*
X199321429Y-67928570D01*
X199035714Y-67857142D01*
X198464286Y-67857142D01*
X198321429Y-67928570D01*
X198250000Y-67999999D01*
X198178571Y-68142856D01*
X198178571Y-68428570D01*
X198250000Y-68571428D01*
X198321429Y-68642856D01*
X198464286Y-68714285D01*
X198821429Y-68714285D01*
X198964286Y-68642856D01*
X199035714Y-68571428D01*
X199107143Y-68428570D01*
X199107143Y-68142856D01*
X199035714Y-67999999D01*
X198964286Y-67928570D01*
X198821429Y-67857142D01*
X199607143Y-66142857D02*
X199678571Y-65928571D01*
X199678571Y-65571428D01*
X199607143Y-65428571D01*
X199535714Y-65357142D01*
X199392857Y-65285714D01*
X199250000Y-65285714D01*
X199107143Y-65357142D01*
X199035714Y-65428571D01*
X198964286Y-65571428D01*
X198892857Y-65857142D01*
X198821429Y-66000000D01*
X198750000Y-66071428D01*
X198607143Y-66142857D01*
X198464286Y-66142857D01*
X198321429Y-66071428D01*
X198250000Y-66000000D01*
X198178571Y-65857142D01*
X198178571Y-65500000D01*
X198250000Y-65285714D01*
X198892857Y-64142857D02*
X198964286Y-63928571D01*
X199035714Y-63857143D01*
X199178571Y-63785714D01*
X199392857Y-63785714D01*
X199535714Y-63857143D01*
X199607143Y-63928571D01*
X199678571Y-64071429D01*
X199678571Y-64642857D01*
X198178571Y-64642857D01*
X198178571Y-64142857D01*
X198250000Y-64000000D01*
X198321429Y-63928571D01*
X198464286Y-63857143D01*
X198607143Y-63857143D01*
X198750000Y-63928571D01*
X198821429Y-64000000D01*
X198892857Y-64142857D01*
X198892857Y-64642857D01*
X199535714Y-62285714D02*
X199607143Y-62357143D01*
X199678571Y-62571429D01*
X199678571Y-62714286D01*
X199607143Y-62928571D01*
X199464286Y-63071429D01*
X199321429Y-63142857D01*
X199035714Y-63214286D01*
X198821429Y-63214286D01*
X198535714Y-63142857D01*
X198392857Y-63071429D01*
X198250000Y-62928571D01*
X198178571Y-62714286D01*
X198178571Y-62571429D01*
X198250000Y-62357143D01*
X198321429Y-62285714D01*
X199607143Y-61571429D02*
X199678571Y-61571429D01*
X199821429Y-61642857D01*
X199892857Y-61714286D01*
X199678571Y-58928571D02*
X198964286Y-59428571D01*
X199678571Y-59785714D02*
X198178571Y-59785714D01*
X198178571Y-59214286D01*
X198250000Y-59071428D01*
X198321429Y-59000000D01*
X198464286Y-58928571D01*
X198678571Y-58928571D01*
X198821429Y-59000000D01*
X198892857Y-59071428D01*
X198964286Y-59214286D01*
X198964286Y-59785714D01*
X199607143Y-57714286D02*
X199678571Y-57857143D01*
X199678571Y-58142857D01*
X199607143Y-58285714D01*
X199464286Y-58357143D01*
X198892857Y-58357143D01*
X198750000Y-58285714D01*
X198678571Y-58142857D01*
X198678571Y-57857143D01*
X198750000Y-57714286D01*
X198892857Y-57642857D01*
X199035714Y-57642857D01*
X199178571Y-58357143D01*
X198678571Y-57142857D02*
X199678571Y-56785714D01*
X198678571Y-56428572D01*
X198321429Y-54785715D02*
X198250000Y-54714286D01*
X198178571Y-54571429D01*
X198178571Y-54214286D01*
X198250000Y-54071429D01*
X198321429Y-54000000D01*
X198464286Y-53928572D01*
X198607143Y-53928572D01*
X198821429Y-54000000D01*
X199678571Y-54857143D01*
X199678571Y-53928572D01*
D12*
X84190000Y-115060000D02*
X84190000Y-109940000D01*
X86810000Y-115060000D02*
X86810000Y-109940000D01*
X84190000Y-115060000D02*
X84504000Y-115060000D01*
X86496000Y-115060000D02*
X86810000Y-115060000D01*
X84190000Y-109940000D02*
X84504000Y-109940000D01*
X86496000Y-109940000D02*
X86810000Y-109940000D01*
X55310000Y-88440000D02*
X55310000Y-93560000D01*
X52690000Y-88440000D02*
X52690000Y-93560000D01*
X55310000Y-88440000D02*
X54996000Y-88440000D01*
X53004000Y-88440000D02*
X52690000Y-88440000D01*
X55310000Y-93560000D02*
X54996000Y-93560000D01*
X53004000Y-93560000D02*
X52690000Y-93560000D01*
X90810000Y-65940000D02*
X90810000Y-71060000D01*
X88190000Y-65940000D02*
X88190000Y-71060000D01*
X90810000Y-65940000D02*
X90496000Y-65940000D01*
X88504000Y-65940000D02*
X88190000Y-65940000D01*
X90810000Y-71060000D02*
X90496000Y-71060000D01*
X88504000Y-71060000D02*
X88190000Y-71060000D01*
X90810000Y-88440000D02*
X90810000Y-93560000D01*
X88190000Y-88440000D02*
X88190000Y-93560000D01*
X90810000Y-88440000D02*
X90496000Y-88440000D01*
X88504000Y-88440000D02*
X88190000Y-88440000D01*
X90810000Y-93560000D02*
X90496000Y-93560000D01*
X88504000Y-93560000D02*
X88190000Y-93560000D01*
X161310000Y-61940000D02*
X161310000Y-67060000D01*
X158690000Y-61940000D02*
X158690000Y-67060000D01*
X161310000Y-61940000D02*
X160996000Y-61940000D01*
X159004000Y-61940000D02*
X158690000Y-61940000D01*
X161310000Y-67060000D02*
X160996000Y-67060000D01*
X159004000Y-67060000D02*
X158690000Y-67060000D01*
X123690000Y-85560000D02*
X123690000Y-80440000D01*
X126310000Y-85560000D02*
X126310000Y-80440000D01*
X123690000Y-85560000D02*
X124004000Y-85560000D01*
X125996000Y-85560000D02*
X126310000Y-85560000D01*
X123690000Y-80440000D02*
X124004000Y-80440000D01*
X125996000Y-80440000D02*
X126310000Y-80440000D01*
X161190000Y-84560000D02*
X161190000Y-79440000D01*
X163810000Y-84560000D02*
X163810000Y-79440000D01*
X161190000Y-84560000D02*
X161504000Y-84560000D01*
X163496000Y-84560000D02*
X163810000Y-84560000D01*
X161190000Y-79440000D02*
X161504000Y-79440000D01*
X163496000Y-79440000D02*
X163810000Y-79440000D01*
X195310000Y-60940000D02*
X195310000Y-66060000D01*
X192690000Y-60940000D02*
X192690000Y-66060000D01*
X195310000Y-60940000D02*
X194996000Y-60940000D01*
X193004000Y-60940000D02*
X192690000Y-60940000D01*
X195310000Y-66060000D02*
X194996000Y-66060000D01*
X193004000Y-66060000D02*
X192690000Y-66060000D01*
X52690000Y-71060000D02*
X52690000Y-65940000D01*
X55310000Y-71060000D02*
X55310000Y-65940000D01*
X52690000Y-71060000D02*
X53004000Y-71060000D01*
X54996000Y-71060000D02*
X55310000Y-71060000D01*
X52690000Y-65940000D02*
X53004000Y-65940000D01*
X54996000Y-65940000D02*
X55310000Y-65940000D01*
X160310000Y-98940000D02*
X160310000Y-104060000D01*
X157690000Y-98940000D02*
X157690000Y-104060000D01*
X160310000Y-98940000D02*
X159996000Y-98940000D01*
X158004000Y-98940000D02*
X157690000Y-98940000D01*
X160310000Y-104060000D02*
X159996000Y-104060000D01*
X158004000Y-104060000D02*
X157690000Y-104060000D01*
X161190000Y-125560000D02*
X161190000Y-120440000D01*
X163810000Y-125560000D02*
X163810000Y-120440000D01*
X161190000Y-125560000D02*
X161504000Y-125560000D01*
X163496000Y-125560000D02*
X163810000Y-125560000D01*
X161190000Y-120440000D02*
X161504000Y-120440000D01*
X163496000Y-120440000D02*
X163810000Y-120440000D01*
X195310000Y-98940000D02*
X195310000Y-104060000D01*
X192690000Y-98940000D02*
X192690000Y-104060000D01*
X195310000Y-98940000D02*
X194996000Y-98940000D01*
X193004000Y-98940000D02*
X192690000Y-98940000D01*
X195310000Y-104060000D02*
X194996000Y-104060000D01*
X193004000Y-104060000D02*
X192690000Y-104060000D01*
X123190000Y-125060000D02*
X123190000Y-119940000D01*
X125810000Y-125060000D02*
X125810000Y-119940000D01*
X123190000Y-125060000D02*
X123504000Y-125060000D01*
X125496000Y-125060000D02*
X125810000Y-125060000D01*
X123190000Y-119940000D02*
X123504000Y-119940000D01*
X125496000Y-119940000D02*
X125810000Y-119940000D01*
X55330000Y-120630000D02*
X52670000Y-120630000D01*
X55330000Y-123230000D02*
X55330000Y-120630000D01*
X52670000Y-123230000D02*
X52670000Y-120630000D01*
X55330000Y-123230000D02*
X52670000Y-123230000D01*
X55330000Y-124500000D02*
X55330000Y-125830000D01*
X55330000Y-125830000D02*
X54000000Y-125830000D01*
X56670000Y-67690000D02*
G75*
G02X56670000Y-69690000I0J-1000000D01*
G01*
X56670000Y-69690000D02*
X56670000Y-71340000D01*
X56670000Y-71340000D02*
X82190000Y-71340000D01*
X82190000Y-71340000D02*
X82190000Y-66040000D01*
X82190000Y-66040000D02*
X56670000Y-66040000D01*
X56670000Y-66040000D02*
X56670000Y-67690000D01*
X56670000Y-90190000D02*
G75*
G02X56670000Y-92190000I0J-1000000D01*
G01*
X56670000Y-92190000D02*
X56670000Y-93840000D01*
X56670000Y-93840000D02*
X82190000Y-93840000D01*
X82190000Y-93840000D02*
X82190000Y-88540000D01*
X82190000Y-88540000D02*
X56670000Y-88540000D01*
X56670000Y-88540000D02*
X56670000Y-90190000D01*
X92170000Y-67690000D02*
G75*
G02X92170000Y-69690000I0J-1000000D01*
G01*
X92170000Y-69690000D02*
X92170000Y-71340000D01*
X92170000Y-71340000D02*
X117690000Y-71340000D01*
X117690000Y-71340000D02*
X117690000Y-66040000D01*
X117690000Y-66040000D02*
X92170000Y-66040000D01*
X92170000Y-66040000D02*
X92170000Y-67690000D01*
X92170000Y-90190000D02*
G75*
G02X92170000Y-92190000I0J-1000000D01*
G01*
X92170000Y-92190000D02*
X92170000Y-93840000D01*
X92170000Y-93840000D02*
X117690000Y-93840000D01*
X117690000Y-93840000D02*
X117690000Y-88540000D01*
X117690000Y-88540000D02*
X92170000Y-88540000D01*
X92170000Y-88540000D02*
X92170000Y-90190000D01*
X132170000Y-63190000D02*
G75*
G02X132170000Y-65190000I0J-1000000D01*
G01*
X132170000Y-65190000D02*
X132170000Y-66840000D01*
X132170000Y-66840000D02*
X155150000Y-66840000D01*
X155150000Y-66840000D02*
X155150000Y-61540000D01*
X155150000Y-61540000D02*
X132170000Y-61540000D01*
X132170000Y-61540000D02*
X132170000Y-63190000D01*
X166670000Y-62690000D02*
G75*
G02X166670000Y-64690000I0J-1000000D01*
G01*
X166670000Y-64690000D02*
X166670000Y-66340000D01*
X166670000Y-66340000D02*
X189650000Y-66340000D01*
X189650000Y-66340000D02*
X189650000Y-61040000D01*
X189650000Y-61040000D02*
X166670000Y-61040000D01*
X166670000Y-61040000D02*
X166670000Y-62690000D01*
X82330000Y-113810000D02*
G75*
G02X82330000Y-111810000I0J1000000D01*
G01*
X82330000Y-111810000D02*
X82330000Y-110160000D01*
X82330000Y-110160000D02*
X61890000Y-110160000D01*
X61890000Y-110160000D02*
X61890000Y-115460000D01*
X61890000Y-115460000D02*
X82330000Y-115460000D01*
X82330000Y-115460000D02*
X82330000Y-113810000D01*
X131670000Y-100690000D02*
G75*
G02X131670000Y-102690000I0J-1000000D01*
G01*
X131670000Y-102690000D02*
X131670000Y-104340000D01*
X131670000Y-104340000D02*
X154650000Y-104340000D01*
X154650000Y-104340000D02*
X154650000Y-99040000D01*
X154650000Y-99040000D02*
X131670000Y-99040000D01*
X131670000Y-99040000D02*
X131670000Y-100690000D01*
X166670000Y-100190000D02*
G75*
G02X166670000Y-102190000I0J-1000000D01*
G01*
X166670000Y-102190000D02*
X166670000Y-103840000D01*
X166670000Y-103840000D02*
X189650000Y-103840000D01*
X189650000Y-103840000D02*
X189650000Y-98540000D01*
X189650000Y-98540000D02*
X166670000Y-98540000D01*
X166670000Y-98540000D02*
X166670000Y-100190000D01*
X120190000Y-115560000D02*
X120190000Y-110440000D01*
X122810000Y-115560000D02*
X122810000Y-110440000D01*
X120190000Y-115560000D02*
X120504000Y-115560000D01*
X122496000Y-115560000D02*
X122810000Y-115560000D01*
X120190000Y-110440000D02*
X120504000Y-110440000D01*
X122496000Y-110440000D02*
X122810000Y-110440000D01*
X105555722Y-124820277D02*
G75*
G03X100944420Y-124820000I-2305722J-1179723D01*
G01*
X105555722Y-127179723D02*
G75*
G02X100944420Y-127180000I-2305722J1179723D01*
G01*
X105555722Y-127179723D02*
G75*
G03X105555580Y-124820000I-2305722J1179723D01*
G01*
X103250000Y-123450000D02*
X103250000Y-128550000D01*
X103290000Y-123450000D02*
X103290000Y-128550000D01*
X103330000Y-123451000D02*
X103330000Y-128549000D01*
X103370000Y-123452000D02*
X103370000Y-128548000D01*
X103410000Y-123454000D02*
X103410000Y-128546000D01*
X103450000Y-123457000D02*
X103450000Y-128543000D01*
X103490000Y-123461000D02*
X103490000Y-128539000D01*
X103530000Y-123465000D02*
X103530000Y-125020000D01*
X103530000Y-126980000D02*
X103530000Y-128535000D01*
X103570000Y-123469000D02*
X103570000Y-125020000D01*
X103570000Y-126980000D02*
X103570000Y-128531000D01*
X103610000Y-123475000D02*
X103610000Y-125020000D01*
X103610000Y-126980000D02*
X103610000Y-128525000D01*
X103650000Y-123481000D02*
X103650000Y-125020000D01*
X103650000Y-126980000D02*
X103650000Y-128519000D01*
X103690000Y-123487000D02*
X103690000Y-125020000D01*
X103690000Y-126980000D02*
X103690000Y-128513000D01*
X103730000Y-123494000D02*
X103730000Y-125020000D01*
X103730000Y-126980000D02*
X103730000Y-128506000D01*
X103770000Y-123502000D02*
X103770000Y-125020000D01*
X103770000Y-126980000D02*
X103770000Y-128498000D01*
X103810000Y-123511000D02*
X103810000Y-125020000D01*
X103810000Y-126980000D02*
X103810000Y-128489000D01*
X103850000Y-123520000D02*
X103850000Y-125020000D01*
X103850000Y-126980000D02*
X103850000Y-128480000D01*
X103890000Y-123530000D02*
X103890000Y-125020000D01*
X103890000Y-126980000D02*
X103890000Y-128470000D01*
X103930000Y-123540000D02*
X103930000Y-125020000D01*
X103930000Y-126980000D02*
X103930000Y-128460000D01*
X103971000Y-123552000D02*
X103971000Y-125020000D01*
X103971000Y-126980000D02*
X103971000Y-128448000D01*
X104011000Y-123564000D02*
X104011000Y-125020000D01*
X104011000Y-126980000D02*
X104011000Y-128436000D01*
X104051000Y-123576000D02*
X104051000Y-125020000D01*
X104051000Y-126980000D02*
X104051000Y-128424000D01*
X104091000Y-123590000D02*
X104091000Y-125020000D01*
X104091000Y-126980000D02*
X104091000Y-128410000D01*
X104131000Y-123604000D02*
X104131000Y-125020000D01*
X104131000Y-126980000D02*
X104131000Y-128396000D01*
X104171000Y-123618000D02*
X104171000Y-125020000D01*
X104171000Y-126980000D02*
X104171000Y-128382000D01*
X104211000Y-123634000D02*
X104211000Y-125020000D01*
X104211000Y-126980000D02*
X104211000Y-128366000D01*
X104251000Y-123650000D02*
X104251000Y-125020000D01*
X104251000Y-126980000D02*
X104251000Y-128350000D01*
X104291000Y-123667000D02*
X104291000Y-125020000D01*
X104291000Y-126980000D02*
X104291000Y-128333000D01*
X104331000Y-123685000D02*
X104331000Y-125020000D01*
X104331000Y-126980000D02*
X104331000Y-128315000D01*
X104371000Y-123704000D02*
X104371000Y-125020000D01*
X104371000Y-126980000D02*
X104371000Y-128296000D01*
X104411000Y-123724000D02*
X104411000Y-125020000D01*
X104411000Y-126980000D02*
X104411000Y-128276000D01*
X104451000Y-123744000D02*
X104451000Y-125020000D01*
X104451000Y-126980000D02*
X104451000Y-128256000D01*
X104491000Y-123766000D02*
X104491000Y-125020000D01*
X104491000Y-126980000D02*
X104491000Y-128234000D01*
X104531000Y-123788000D02*
X104531000Y-125020000D01*
X104531000Y-126980000D02*
X104531000Y-128212000D01*
X104571000Y-123811000D02*
X104571000Y-125020000D01*
X104571000Y-126980000D02*
X104571000Y-128189000D01*
X104611000Y-123835000D02*
X104611000Y-125020000D01*
X104611000Y-126980000D02*
X104611000Y-128165000D01*
X104651000Y-123860000D02*
X104651000Y-125020000D01*
X104651000Y-126980000D02*
X104651000Y-128140000D01*
X104691000Y-123887000D02*
X104691000Y-125020000D01*
X104691000Y-126980000D02*
X104691000Y-128113000D01*
X104731000Y-123914000D02*
X104731000Y-125020000D01*
X104731000Y-126980000D02*
X104731000Y-128086000D01*
X104771000Y-123942000D02*
X104771000Y-125020000D01*
X104771000Y-126980000D02*
X104771000Y-128058000D01*
X104811000Y-123972000D02*
X104811000Y-125020000D01*
X104811000Y-126980000D02*
X104811000Y-128028000D01*
X104851000Y-124003000D02*
X104851000Y-125020000D01*
X104851000Y-126980000D02*
X104851000Y-127997000D01*
X104891000Y-124035000D02*
X104891000Y-125020000D01*
X104891000Y-126980000D02*
X104891000Y-127965000D01*
X104931000Y-124068000D02*
X104931000Y-125020000D01*
X104931000Y-126980000D02*
X104931000Y-127932000D01*
X104971000Y-124103000D02*
X104971000Y-125020000D01*
X104971000Y-126980000D02*
X104971000Y-127897000D01*
X105011000Y-124139000D02*
X105011000Y-125020000D01*
X105011000Y-126980000D02*
X105011000Y-127861000D01*
X105051000Y-124177000D02*
X105051000Y-125020000D01*
X105051000Y-126980000D02*
X105051000Y-127823000D01*
X105091000Y-124217000D02*
X105091000Y-125020000D01*
X105091000Y-126980000D02*
X105091000Y-127783000D01*
X105131000Y-124258000D02*
X105131000Y-125020000D01*
X105131000Y-126980000D02*
X105131000Y-127742000D01*
X105171000Y-124301000D02*
X105171000Y-125020000D01*
X105171000Y-126980000D02*
X105171000Y-127699000D01*
X105211000Y-124346000D02*
X105211000Y-125020000D01*
X105211000Y-126980000D02*
X105211000Y-127654000D01*
X105251000Y-124394000D02*
X105251000Y-125020000D01*
X105251000Y-126980000D02*
X105251000Y-127606000D01*
X105291000Y-124444000D02*
X105291000Y-125020000D01*
X105291000Y-126980000D02*
X105291000Y-127556000D01*
X105331000Y-124496000D02*
X105331000Y-125020000D01*
X105331000Y-126980000D02*
X105331000Y-127504000D01*
X105371000Y-124552000D02*
X105371000Y-125020000D01*
X105371000Y-126980000D02*
X105371000Y-127448000D01*
X105411000Y-124610000D02*
X105411000Y-125020000D01*
X105411000Y-126980000D02*
X105411000Y-127390000D01*
X105451000Y-124673000D02*
X105451000Y-125020000D01*
X105451000Y-126980000D02*
X105451000Y-127327000D01*
X105491000Y-124739000D02*
X105491000Y-127261000D01*
X105531000Y-124811000D02*
X105531000Y-127189000D01*
X105571000Y-124888000D02*
X105571000Y-127112000D01*
X105611000Y-124972000D02*
X105611000Y-127028000D01*
X105651000Y-125066000D02*
X105651000Y-126934000D01*
X105691000Y-125171000D02*
X105691000Y-126829000D01*
X105731000Y-125293000D02*
X105731000Y-126707000D01*
X105771000Y-125441000D02*
X105771000Y-126559000D01*
X105811000Y-125646000D02*
X105811000Y-126354000D01*
X99800000Y-126000000D02*
X101000000Y-126000000D01*
X100400000Y-125350000D02*
X100400000Y-126650000D01*
X70170000Y-40520000D02*
X121090000Y-40520000D01*
X121090000Y-40520000D02*
X121090000Y-37860000D01*
X121090000Y-37860000D02*
X70170000Y-37860000D01*
X70170000Y-37860000D02*
X70170000Y-40520000D01*
X71120000Y-37860000D02*
X71120000Y-31860000D01*
X71120000Y-31860000D02*
X71880000Y-31860000D01*
X71880000Y-31860000D02*
X71880000Y-37860000D01*
X71180000Y-37860000D02*
X71180000Y-31860000D01*
X71300000Y-37860000D02*
X71300000Y-31860000D01*
X71420000Y-37860000D02*
X71420000Y-31860000D01*
X71540000Y-37860000D02*
X71540000Y-31860000D01*
X71660000Y-37860000D02*
X71660000Y-31860000D01*
X71780000Y-37860000D02*
X71780000Y-31860000D01*
X71120000Y-40917071D02*
X71120000Y-40520000D01*
X71880000Y-40917071D02*
X71880000Y-40520000D01*
X71120000Y-43390000D02*
X71120000Y-43002929D01*
X71880000Y-43390000D02*
X71880000Y-43002929D01*
X72770000Y-40520000D02*
X72770000Y-37860000D01*
X73660000Y-37860000D02*
X73660000Y-31860000D01*
X73660000Y-31860000D02*
X74420000Y-31860000D01*
X74420000Y-31860000D02*
X74420000Y-37860000D01*
X73660000Y-40917071D02*
X73660000Y-40520000D01*
X74420000Y-40917071D02*
X74420000Y-40520000D01*
X73660000Y-43457071D02*
X73660000Y-43002929D01*
X74420000Y-43457071D02*
X74420000Y-43002929D01*
X75310000Y-40520000D02*
X75310000Y-37860000D01*
X76200000Y-37860000D02*
X76200000Y-31860000D01*
X76200000Y-31860000D02*
X76960000Y-31860000D01*
X76960000Y-31860000D02*
X76960000Y-37860000D01*
X76200000Y-40917071D02*
X76200000Y-40520000D01*
X76960000Y-40917071D02*
X76960000Y-40520000D01*
X76200000Y-43457071D02*
X76200000Y-43002929D01*
X76960000Y-43457071D02*
X76960000Y-43002929D01*
X77850000Y-40520000D02*
X77850000Y-37860000D01*
X78740000Y-37860000D02*
X78740000Y-31860000D01*
X78740000Y-31860000D02*
X79500000Y-31860000D01*
X79500000Y-31860000D02*
X79500000Y-37860000D01*
X78740000Y-40917071D02*
X78740000Y-40520000D01*
X79500000Y-40917071D02*
X79500000Y-40520000D01*
X78740000Y-43457071D02*
X78740000Y-43002929D01*
X79500000Y-43457071D02*
X79500000Y-43002929D01*
X80390000Y-40520000D02*
X80390000Y-37860000D01*
X81280000Y-37860000D02*
X81280000Y-31860000D01*
X81280000Y-31860000D02*
X82040000Y-31860000D01*
X82040000Y-31860000D02*
X82040000Y-37860000D01*
X81280000Y-40917071D02*
X81280000Y-40520000D01*
X82040000Y-40917071D02*
X82040000Y-40520000D01*
X81280000Y-43457071D02*
X81280000Y-43002929D01*
X82040000Y-43457071D02*
X82040000Y-43002929D01*
X82930000Y-40520000D02*
X82930000Y-37860000D01*
X83820000Y-37860000D02*
X83820000Y-31860000D01*
X83820000Y-31860000D02*
X84580000Y-31860000D01*
X84580000Y-31860000D02*
X84580000Y-37860000D01*
X83820000Y-40917071D02*
X83820000Y-40520000D01*
X84580000Y-40917071D02*
X84580000Y-40520000D01*
X83820000Y-43457071D02*
X83820000Y-43002929D01*
X84580000Y-43457071D02*
X84580000Y-43002929D01*
X85470000Y-40520000D02*
X85470000Y-37860000D01*
X86360000Y-37860000D02*
X86360000Y-31860000D01*
X86360000Y-31860000D02*
X87120000Y-31860000D01*
X87120000Y-31860000D02*
X87120000Y-37860000D01*
X86360000Y-40917071D02*
X86360000Y-40520000D01*
X87120000Y-40917071D02*
X87120000Y-40520000D01*
X86360000Y-43457071D02*
X86360000Y-43002929D01*
X87120000Y-43457071D02*
X87120000Y-43002929D01*
X88010000Y-40520000D02*
X88010000Y-37860000D01*
X88900000Y-37860000D02*
X88900000Y-31860000D01*
X88900000Y-31860000D02*
X89660000Y-31860000D01*
X89660000Y-31860000D02*
X89660000Y-37860000D01*
X88900000Y-40917071D02*
X88900000Y-40520000D01*
X89660000Y-40917071D02*
X89660000Y-40520000D01*
X88900000Y-43457071D02*
X88900000Y-43002929D01*
X89660000Y-43457071D02*
X89660000Y-43002929D01*
X90550000Y-40520000D02*
X90550000Y-37860000D01*
X91440000Y-37860000D02*
X91440000Y-31860000D01*
X91440000Y-31860000D02*
X92200000Y-31860000D01*
X92200000Y-31860000D02*
X92200000Y-37860000D01*
X91440000Y-40917071D02*
X91440000Y-40520000D01*
X92200000Y-40917071D02*
X92200000Y-40520000D01*
X91440000Y-43457071D02*
X91440000Y-43002929D01*
X92200000Y-43457071D02*
X92200000Y-43002929D01*
X93090000Y-40520000D02*
X93090000Y-37860000D01*
X93980000Y-37860000D02*
X93980000Y-31860000D01*
X93980000Y-31860000D02*
X94740000Y-31860000D01*
X94740000Y-31860000D02*
X94740000Y-37860000D01*
X93980000Y-40917071D02*
X93980000Y-40520000D01*
X94740000Y-40917071D02*
X94740000Y-40520000D01*
X93980000Y-43457071D02*
X93980000Y-43002929D01*
X94740000Y-43457071D02*
X94740000Y-43002929D01*
X95630000Y-40520000D02*
X95630000Y-37860000D01*
X96520000Y-37860000D02*
X96520000Y-31860000D01*
X96520000Y-31860000D02*
X97280000Y-31860000D01*
X97280000Y-31860000D02*
X97280000Y-37860000D01*
X96520000Y-40917071D02*
X96520000Y-40520000D01*
X97280000Y-40917071D02*
X97280000Y-40520000D01*
X96520000Y-43457071D02*
X96520000Y-43002929D01*
X97280000Y-43457071D02*
X97280000Y-43002929D01*
X98170000Y-40520000D02*
X98170000Y-37860000D01*
X99060000Y-37860000D02*
X99060000Y-31860000D01*
X99060000Y-31860000D02*
X99820000Y-31860000D01*
X99820000Y-31860000D02*
X99820000Y-37860000D01*
X99060000Y-40917071D02*
X99060000Y-40520000D01*
X99820000Y-40917071D02*
X99820000Y-40520000D01*
X99060000Y-43457071D02*
X99060000Y-43002929D01*
X99820000Y-43457071D02*
X99820000Y-43002929D01*
X100710000Y-40520000D02*
X100710000Y-37860000D01*
X101600000Y-37860000D02*
X101600000Y-31860000D01*
X101600000Y-31860000D02*
X102360000Y-31860000D01*
X102360000Y-31860000D02*
X102360000Y-37860000D01*
X101600000Y-40917071D02*
X101600000Y-40520000D01*
X102360000Y-40917071D02*
X102360000Y-40520000D01*
X101600000Y-43457071D02*
X101600000Y-43002929D01*
X102360000Y-43457071D02*
X102360000Y-43002929D01*
X103250000Y-40520000D02*
X103250000Y-37860000D01*
X104140000Y-37860000D02*
X104140000Y-31860000D01*
X104140000Y-31860000D02*
X104900000Y-31860000D01*
X104900000Y-31860000D02*
X104900000Y-37860000D01*
X104140000Y-40917071D02*
X104140000Y-40520000D01*
X104900000Y-40917071D02*
X104900000Y-40520000D01*
X104140000Y-43457071D02*
X104140000Y-43002929D01*
X104900000Y-43457071D02*
X104900000Y-43002929D01*
X105790000Y-40520000D02*
X105790000Y-37860000D01*
X106680000Y-37860000D02*
X106680000Y-31860000D01*
X106680000Y-31860000D02*
X107440000Y-31860000D01*
X107440000Y-31860000D02*
X107440000Y-37860000D01*
X106680000Y-40917071D02*
X106680000Y-40520000D01*
X107440000Y-40917071D02*
X107440000Y-40520000D01*
X106680000Y-43457071D02*
X106680000Y-43002929D01*
X107440000Y-43457071D02*
X107440000Y-43002929D01*
X108330000Y-40520000D02*
X108330000Y-37860000D01*
X109220000Y-37860000D02*
X109220000Y-31860000D01*
X109220000Y-31860000D02*
X109980000Y-31860000D01*
X109980000Y-31860000D02*
X109980000Y-37860000D01*
X109220000Y-40917071D02*
X109220000Y-40520000D01*
X109980000Y-40917071D02*
X109980000Y-40520000D01*
X109220000Y-43457071D02*
X109220000Y-43002929D01*
X109980000Y-43457071D02*
X109980000Y-43002929D01*
X110870000Y-40520000D02*
X110870000Y-37860000D01*
X111760000Y-37860000D02*
X111760000Y-31860000D01*
X111760000Y-31860000D02*
X112520000Y-31860000D01*
X112520000Y-31860000D02*
X112520000Y-37860000D01*
X111760000Y-40917071D02*
X111760000Y-40520000D01*
X112520000Y-40917071D02*
X112520000Y-40520000D01*
X111760000Y-43457071D02*
X111760000Y-43002929D01*
X112520000Y-43457071D02*
X112520000Y-43002929D01*
X113410000Y-40520000D02*
X113410000Y-37860000D01*
X114300000Y-37860000D02*
X114300000Y-31860000D01*
X114300000Y-31860000D02*
X115060000Y-31860000D01*
X115060000Y-31860000D02*
X115060000Y-37860000D01*
X114300000Y-40917071D02*
X114300000Y-40520000D01*
X115060000Y-40917071D02*
X115060000Y-40520000D01*
X114300000Y-43457071D02*
X114300000Y-43002929D01*
X115060000Y-43457071D02*
X115060000Y-43002929D01*
X115950000Y-40520000D02*
X115950000Y-37860000D01*
X116840000Y-37860000D02*
X116840000Y-31860000D01*
X116840000Y-31860000D02*
X117600000Y-31860000D01*
X117600000Y-31860000D02*
X117600000Y-37860000D01*
X116840000Y-40917071D02*
X116840000Y-40520000D01*
X117600000Y-40917071D02*
X117600000Y-40520000D01*
X116840000Y-43457071D02*
X116840000Y-43002929D01*
X117600000Y-43457071D02*
X117600000Y-43002929D01*
X118490000Y-40520000D02*
X118490000Y-37860000D01*
X119380000Y-37860000D02*
X119380000Y-31860000D01*
X119380000Y-31860000D02*
X120140000Y-31860000D01*
X120140000Y-31860000D02*
X120140000Y-37860000D01*
X119380000Y-40917071D02*
X119380000Y-40520000D01*
X120140000Y-40917071D02*
X120140000Y-40520000D01*
X119380000Y-43457071D02*
X119380000Y-43002929D01*
X120140000Y-43457071D02*
X120140000Y-43002929D01*
X71500000Y-45770000D02*
X70230000Y-45770000D01*
X70230000Y-45770000D02*
X70230000Y-44500000D01*
X150590000Y-140330000D02*
X150590000Y-135130000D01*
X102270000Y-140330000D02*
X150590000Y-140330000D01*
X99670000Y-135130000D02*
X150590000Y-135130000D01*
X102270000Y-140330000D02*
X102270000Y-137730000D01*
X102270000Y-137730000D02*
X99670000Y-137730000D01*
X99670000Y-137730000D02*
X99670000Y-135130000D01*
X101000000Y-140330000D02*
X99670000Y-140330000D01*
X99670000Y-140330000D02*
X99670000Y-139000000D01*
X134170000Y-40020000D02*
X185090000Y-40020000D01*
X185090000Y-40020000D02*
X185090000Y-37360000D01*
X185090000Y-37360000D02*
X134170000Y-37360000D01*
X134170000Y-37360000D02*
X134170000Y-40020000D01*
X135120000Y-37360000D02*
X135120000Y-31360000D01*
X135120000Y-31360000D02*
X135880000Y-31360000D01*
X135880000Y-31360000D02*
X135880000Y-37360000D01*
X135180000Y-37360000D02*
X135180000Y-31360000D01*
X135300000Y-37360000D02*
X135300000Y-31360000D01*
X135420000Y-37360000D02*
X135420000Y-31360000D01*
X135540000Y-37360000D02*
X135540000Y-31360000D01*
X135660000Y-37360000D02*
X135660000Y-31360000D01*
X135780000Y-37360000D02*
X135780000Y-31360000D01*
X135120000Y-40417071D02*
X135120000Y-40020000D01*
X135880000Y-40417071D02*
X135880000Y-40020000D01*
X135120000Y-42890000D02*
X135120000Y-42502929D01*
X135880000Y-42890000D02*
X135880000Y-42502929D01*
X136770000Y-40020000D02*
X136770000Y-37360000D01*
X137660000Y-37360000D02*
X137660000Y-31360000D01*
X137660000Y-31360000D02*
X138420000Y-31360000D01*
X138420000Y-31360000D02*
X138420000Y-37360000D01*
X137660000Y-40417071D02*
X137660000Y-40020000D01*
X138420000Y-40417071D02*
X138420000Y-40020000D01*
X137660000Y-42957071D02*
X137660000Y-42502929D01*
X138420000Y-42957071D02*
X138420000Y-42502929D01*
X139310000Y-40020000D02*
X139310000Y-37360000D01*
X140200000Y-37360000D02*
X140200000Y-31360000D01*
X140200000Y-31360000D02*
X140960000Y-31360000D01*
X140960000Y-31360000D02*
X140960000Y-37360000D01*
X140200000Y-40417071D02*
X140200000Y-40020000D01*
X140960000Y-40417071D02*
X140960000Y-40020000D01*
X140200000Y-42957071D02*
X140200000Y-42502929D01*
X140960000Y-42957071D02*
X140960000Y-42502929D01*
X141850000Y-40020000D02*
X141850000Y-37360000D01*
X142740000Y-37360000D02*
X142740000Y-31360000D01*
X142740000Y-31360000D02*
X143500000Y-31360000D01*
X143500000Y-31360000D02*
X143500000Y-37360000D01*
X142740000Y-40417071D02*
X142740000Y-40020000D01*
X143500000Y-40417071D02*
X143500000Y-40020000D01*
X142740000Y-42957071D02*
X142740000Y-42502929D01*
X143500000Y-42957071D02*
X143500000Y-42502929D01*
X144390000Y-40020000D02*
X144390000Y-37360000D01*
X145280000Y-37360000D02*
X145280000Y-31360000D01*
X145280000Y-31360000D02*
X146040000Y-31360000D01*
X146040000Y-31360000D02*
X146040000Y-37360000D01*
X145280000Y-40417071D02*
X145280000Y-40020000D01*
X146040000Y-40417071D02*
X146040000Y-40020000D01*
X145280000Y-42957071D02*
X145280000Y-42502929D01*
X146040000Y-42957071D02*
X146040000Y-42502929D01*
X146930000Y-40020000D02*
X146930000Y-37360000D01*
X147820000Y-37360000D02*
X147820000Y-31360000D01*
X147820000Y-31360000D02*
X148580000Y-31360000D01*
X148580000Y-31360000D02*
X148580000Y-37360000D01*
X147820000Y-40417071D02*
X147820000Y-40020000D01*
X148580000Y-40417071D02*
X148580000Y-40020000D01*
X147820000Y-42957071D02*
X147820000Y-42502929D01*
X148580000Y-42957071D02*
X148580000Y-42502929D01*
X149470000Y-40020000D02*
X149470000Y-37360000D01*
X150360000Y-37360000D02*
X150360000Y-31360000D01*
X150360000Y-31360000D02*
X151120000Y-31360000D01*
X151120000Y-31360000D02*
X151120000Y-37360000D01*
X150360000Y-40417071D02*
X150360000Y-40020000D01*
X151120000Y-40417071D02*
X151120000Y-40020000D01*
X150360000Y-42957071D02*
X150360000Y-42502929D01*
X151120000Y-42957071D02*
X151120000Y-42502929D01*
X152010000Y-40020000D02*
X152010000Y-37360000D01*
X152900000Y-37360000D02*
X152900000Y-31360000D01*
X152900000Y-31360000D02*
X153660000Y-31360000D01*
X153660000Y-31360000D02*
X153660000Y-37360000D01*
X152900000Y-40417071D02*
X152900000Y-40020000D01*
X153660000Y-40417071D02*
X153660000Y-40020000D01*
X152900000Y-42957071D02*
X152900000Y-42502929D01*
X153660000Y-42957071D02*
X153660000Y-42502929D01*
X154550000Y-40020000D02*
X154550000Y-37360000D01*
X155440000Y-37360000D02*
X155440000Y-31360000D01*
X155440000Y-31360000D02*
X156200000Y-31360000D01*
X156200000Y-31360000D02*
X156200000Y-37360000D01*
X155440000Y-40417071D02*
X155440000Y-40020000D01*
X156200000Y-40417071D02*
X156200000Y-40020000D01*
X155440000Y-42957071D02*
X155440000Y-42502929D01*
X156200000Y-42957071D02*
X156200000Y-42502929D01*
X157090000Y-40020000D02*
X157090000Y-37360000D01*
X157980000Y-37360000D02*
X157980000Y-31360000D01*
X157980000Y-31360000D02*
X158740000Y-31360000D01*
X158740000Y-31360000D02*
X158740000Y-37360000D01*
X157980000Y-40417071D02*
X157980000Y-40020000D01*
X158740000Y-40417071D02*
X158740000Y-40020000D01*
X157980000Y-42957071D02*
X157980000Y-42502929D01*
X158740000Y-42957071D02*
X158740000Y-42502929D01*
X159630000Y-40020000D02*
X159630000Y-37360000D01*
X160520000Y-37360000D02*
X160520000Y-31360000D01*
X160520000Y-31360000D02*
X161280000Y-31360000D01*
X161280000Y-31360000D02*
X161280000Y-37360000D01*
X160520000Y-40417071D02*
X160520000Y-40020000D01*
X161280000Y-40417071D02*
X161280000Y-40020000D01*
X160520000Y-42957071D02*
X160520000Y-42502929D01*
X161280000Y-42957071D02*
X161280000Y-42502929D01*
X162170000Y-40020000D02*
X162170000Y-37360000D01*
X163060000Y-37360000D02*
X163060000Y-31360000D01*
X163060000Y-31360000D02*
X163820000Y-31360000D01*
X163820000Y-31360000D02*
X163820000Y-37360000D01*
X163060000Y-40417071D02*
X163060000Y-40020000D01*
X163820000Y-40417071D02*
X163820000Y-40020000D01*
X163060000Y-42957071D02*
X163060000Y-42502929D01*
X163820000Y-42957071D02*
X163820000Y-42502929D01*
X164710000Y-40020000D02*
X164710000Y-37360000D01*
X165600000Y-37360000D02*
X165600000Y-31360000D01*
X165600000Y-31360000D02*
X166360000Y-31360000D01*
X166360000Y-31360000D02*
X166360000Y-37360000D01*
X165600000Y-40417071D02*
X165600000Y-40020000D01*
X166360000Y-40417071D02*
X166360000Y-40020000D01*
X165600000Y-42957071D02*
X165600000Y-42502929D01*
X166360000Y-42957071D02*
X166360000Y-42502929D01*
X167250000Y-40020000D02*
X167250000Y-37360000D01*
X168140000Y-37360000D02*
X168140000Y-31360000D01*
X168140000Y-31360000D02*
X168900000Y-31360000D01*
X168900000Y-31360000D02*
X168900000Y-37360000D01*
X168140000Y-40417071D02*
X168140000Y-40020000D01*
X168900000Y-40417071D02*
X168900000Y-40020000D01*
X168140000Y-42957071D02*
X168140000Y-42502929D01*
X168900000Y-42957071D02*
X168900000Y-42502929D01*
X169790000Y-40020000D02*
X169790000Y-37360000D01*
X170680000Y-37360000D02*
X170680000Y-31360000D01*
X170680000Y-31360000D02*
X171440000Y-31360000D01*
X171440000Y-31360000D02*
X171440000Y-37360000D01*
X170680000Y-40417071D02*
X170680000Y-40020000D01*
X171440000Y-40417071D02*
X171440000Y-40020000D01*
X170680000Y-42957071D02*
X170680000Y-42502929D01*
X171440000Y-42957071D02*
X171440000Y-42502929D01*
X172330000Y-40020000D02*
X172330000Y-37360000D01*
X173220000Y-37360000D02*
X173220000Y-31360000D01*
X173220000Y-31360000D02*
X173980000Y-31360000D01*
X173980000Y-31360000D02*
X173980000Y-37360000D01*
X173220000Y-40417071D02*
X173220000Y-40020000D01*
X173980000Y-40417071D02*
X173980000Y-40020000D01*
X173220000Y-42957071D02*
X173220000Y-42502929D01*
X173980000Y-42957071D02*
X173980000Y-42502929D01*
X174870000Y-40020000D02*
X174870000Y-37360000D01*
X175760000Y-37360000D02*
X175760000Y-31360000D01*
X175760000Y-31360000D02*
X176520000Y-31360000D01*
X176520000Y-31360000D02*
X176520000Y-37360000D01*
X175760000Y-40417071D02*
X175760000Y-40020000D01*
X176520000Y-40417071D02*
X176520000Y-40020000D01*
X175760000Y-42957071D02*
X175760000Y-42502929D01*
X176520000Y-42957071D02*
X176520000Y-42502929D01*
X177410000Y-40020000D02*
X177410000Y-37360000D01*
X178300000Y-37360000D02*
X178300000Y-31360000D01*
X178300000Y-31360000D02*
X179060000Y-31360000D01*
X179060000Y-31360000D02*
X179060000Y-37360000D01*
X178300000Y-40417071D02*
X178300000Y-40020000D01*
X179060000Y-40417071D02*
X179060000Y-40020000D01*
X178300000Y-42957071D02*
X178300000Y-42502929D01*
X179060000Y-42957071D02*
X179060000Y-42502929D01*
X179950000Y-40020000D02*
X179950000Y-37360000D01*
X180840000Y-37360000D02*
X180840000Y-31360000D01*
X180840000Y-31360000D02*
X181600000Y-31360000D01*
X181600000Y-31360000D02*
X181600000Y-37360000D01*
X180840000Y-40417071D02*
X180840000Y-40020000D01*
X181600000Y-40417071D02*
X181600000Y-40020000D01*
X180840000Y-42957071D02*
X180840000Y-42502929D01*
X181600000Y-42957071D02*
X181600000Y-42502929D01*
X182490000Y-40020000D02*
X182490000Y-37360000D01*
X183380000Y-37360000D02*
X183380000Y-31360000D01*
X183380000Y-31360000D02*
X184140000Y-31360000D01*
X184140000Y-31360000D02*
X184140000Y-37360000D01*
X183380000Y-40417071D02*
X183380000Y-40020000D01*
X184140000Y-40417071D02*
X184140000Y-40020000D01*
X183380000Y-42957071D02*
X183380000Y-42502929D01*
X184140000Y-42957071D02*
X184140000Y-42502929D01*
X135500000Y-45270000D02*
X134230000Y-45270000D01*
X134230000Y-45270000D02*
X134230000Y-44000000D01*
X117830000Y-113810000D02*
G75*
G02X117830000Y-111810000I0J1000000D01*
G01*
X117830000Y-111810000D02*
X117830000Y-110160000D01*
X117830000Y-110160000D02*
X92310000Y-110160000D01*
X92310000Y-110160000D02*
X92310000Y-115460000D01*
X92310000Y-115460000D02*
X117830000Y-115460000D01*
X117830000Y-115460000D02*
X117830000Y-113810000D01*
X117890000Y-107670000D02*
X92250000Y-107670000D01*
X92250000Y-107670000D02*
X92250000Y-117950000D01*
X92250000Y-117950000D02*
X117890000Y-117950000D01*
X117890000Y-117950000D02*
X117890000Y-107670000D01*
X129170000Y-81690000D02*
G75*
G02X129170000Y-83690000I0J-1000000D01*
G01*
X129170000Y-83690000D02*
X129170000Y-85340000D01*
X129170000Y-85340000D02*
X154690000Y-85340000D01*
X154690000Y-85340000D02*
X154690000Y-80040000D01*
X154690000Y-80040000D02*
X129170000Y-80040000D01*
X129170000Y-80040000D02*
X129170000Y-81690000D01*
X129110000Y-87830000D02*
X154750000Y-87830000D01*
X154750000Y-87830000D02*
X154750000Y-77550000D01*
X154750000Y-77550000D02*
X129110000Y-77550000D01*
X129110000Y-77550000D02*
X129110000Y-87830000D01*
X166670000Y-81190000D02*
G75*
G02X166670000Y-83190000I0J-1000000D01*
G01*
X166670000Y-83190000D02*
X166670000Y-84840000D01*
X166670000Y-84840000D02*
X192190000Y-84840000D01*
X192190000Y-84840000D02*
X192190000Y-79540000D01*
X192190000Y-79540000D02*
X166670000Y-79540000D01*
X166670000Y-79540000D02*
X166670000Y-81190000D01*
X166610000Y-87330000D02*
X192250000Y-87330000D01*
X192250000Y-87330000D02*
X192250000Y-77050000D01*
X192250000Y-77050000D02*
X166610000Y-77050000D01*
X166610000Y-77050000D02*
X166610000Y-87330000D01*
X129170000Y-122190000D02*
G75*
G02X129170000Y-124190000I0J-1000000D01*
G01*
X129170000Y-124190000D02*
X129170000Y-125840000D01*
X129170000Y-125840000D02*
X154690000Y-125840000D01*
X154690000Y-125840000D02*
X154690000Y-120540000D01*
X154690000Y-120540000D02*
X129170000Y-120540000D01*
X129170000Y-120540000D02*
X129170000Y-122190000D01*
X129110000Y-128330000D02*
X154750000Y-128330000D01*
X154750000Y-128330000D02*
X154750000Y-118050000D01*
X154750000Y-118050000D02*
X129110000Y-118050000D01*
X129110000Y-118050000D02*
X129110000Y-128330000D01*
X166670000Y-121690000D02*
G75*
G02X166670000Y-123690000I0J-1000000D01*
G01*
X166670000Y-123690000D02*
X166670000Y-125340000D01*
X166670000Y-125340000D02*
X192190000Y-125340000D01*
X192190000Y-125340000D02*
X192190000Y-120040000D01*
X192190000Y-120040000D02*
X166670000Y-120040000D01*
X166670000Y-120040000D02*
X166670000Y-121690000D01*
X166610000Y-127830000D02*
X192250000Y-127830000D01*
X192250000Y-127830000D02*
X192250000Y-117550000D01*
X192250000Y-117550000D02*
X166610000Y-117550000D01*
X166610000Y-117550000D02*
X166610000Y-127830000D01*
D13*
G36*
X71544257Y-134473689D02*
X71808780Y-134473725D01*
X71931912Y-134473730D01*
X73902811Y-134473730D01*
X73902811Y-134589910D01*
X73915211Y-134731291D01*
X73952636Y-134861684D01*
X74015423Y-134981862D01*
X74103906Y-135092602D01*
X74133843Y-135122511D01*
X74241534Y-135207348D01*
X74360275Y-135269221D01*
X74486540Y-135308159D01*
X74616803Y-135324190D01*
X74747535Y-135317342D01*
X74875212Y-135287643D01*
X74996305Y-135235120D01*
X75107288Y-135159803D01*
X75157132Y-135114363D01*
X75250017Y-135002952D01*
X75318127Y-134880435D01*
X75360871Y-134748215D01*
X75377653Y-134607692D01*
X75377876Y-134593867D01*
X75378756Y-134473734D01*
X75431557Y-134473732D01*
X75478396Y-134480089D01*
X75521183Y-134495556D01*
X75524011Y-134497154D01*
X75533675Y-134502168D01*
X75542549Y-134506073D01*
X75550665Y-134510007D01*
X75558057Y-134515106D01*
X75564755Y-134522508D01*
X75570792Y-134533351D01*
X75576199Y-134548772D01*
X75581010Y-134569909D01*
X75585255Y-134597899D01*
X75588968Y-134633879D01*
X75592179Y-134678987D01*
X75594922Y-134734360D01*
X75597228Y-134801137D01*
X75599129Y-134880453D01*
X75600658Y-134973447D01*
X75601846Y-135081257D01*
X75602726Y-135205019D01*
X75603330Y-135345871D01*
X75603689Y-135504950D01*
X75603835Y-135683395D01*
X75603802Y-135882342D01*
X75603620Y-136102929D01*
X75603323Y-136346293D01*
X75602941Y-136613572D01*
X75602508Y-136905903D01*
X75602055Y-137224424D01*
X75602002Y-137263230D01*
X75601596Y-137583782D01*
X75601251Y-137878012D01*
X75600931Y-138147056D01*
X75600600Y-138392052D01*
X75600221Y-138614137D01*
X75599757Y-138814447D01*
X75599172Y-138994119D01*
X75598430Y-139154290D01*
X75597494Y-139296098D01*
X75596327Y-139420679D01*
X75594893Y-139529170D01*
X75593156Y-139622707D01*
X75591078Y-139702429D01*
X75588624Y-139769472D01*
X75585756Y-139824973D01*
X75582439Y-139870068D01*
X75578636Y-139905895D01*
X75574310Y-139933591D01*
X75569425Y-139954293D01*
X75563945Y-139969137D01*
X75557832Y-139979260D01*
X75551050Y-139985800D01*
X75543563Y-139989893D01*
X75535334Y-139992676D01*
X75526327Y-139995287D01*
X75516505Y-139998862D01*
X75514106Y-139999950D01*
X75506565Y-140002396D01*
X75493944Y-140004642D01*
X75475141Y-140006698D01*
X75449053Y-140008572D01*
X75414578Y-140010271D01*
X75370615Y-140011803D01*
X75316061Y-140013177D01*
X75249815Y-140014400D01*
X75170774Y-140015481D01*
X75077837Y-140016427D01*
X74969901Y-140017247D01*
X74845864Y-140017947D01*
X74704624Y-140018538D01*
X74545079Y-140019025D01*
X74366128Y-140019419D01*
X74166668Y-140019725D01*
X73945596Y-140019953D01*
X73701812Y-140020110D01*
X73434213Y-140020205D01*
X73141697Y-140020245D01*
X72823161Y-140020238D01*
X72719979Y-140020228D01*
X72394377Y-140020176D01*
X72095119Y-140020091D01*
X71821091Y-140019963D01*
X71571176Y-140019785D01*
X71344260Y-140019548D01*
X71139227Y-140019242D01*
X70954962Y-140018860D01*
X70790350Y-140018392D01*
X70644275Y-140017830D01*
X70515624Y-140017165D01*
X70403279Y-140016388D01*
X70306126Y-140015491D01*
X70223050Y-140014465D01*
X70152936Y-140013301D01*
X70094668Y-140011991D01*
X70047131Y-140010525D01*
X70009210Y-140008896D01*
X69979790Y-140007093D01*
X69957755Y-140005110D01*
X69941990Y-140002936D01*
X69931380Y-140000563D01*
X69925596Y-139998391D01*
X69915316Y-139994056D01*
X69905878Y-139990859D01*
X69897245Y-139987665D01*
X69889381Y-139983338D01*
X69882252Y-139976744D01*
X69875821Y-139966747D01*
X69870053Y-139952212D01*
X69864911Y-139932003D01*
X69860360Y-139904985D01*
X69856365Y-139870023D01*
X69852889Y-139825981D01*
X69849898Y-139771724D01*
X69847354Y-139706117D01*
X69845223Y-139628024D01*
X69843468Y-139536310D01*
X69842055Y-139429840D01*
X69841685Y-139388973D01*
X70208116Y-139388973D01*
X71503266Y-139388973D01*
X71478345Y-139351217D01*
X71453553Y-139312417D01*
X71432560Y-139275469D01*
X71415065Y-139237788D01*
X71400770Y-139196788D01*
X71389377Y-139149883D01*
X71380587Y-139094487D01*
X71374102Y-139028016D01*
X71369623Y-138947883D01*
X71366850Y-138851502D01*
X71365487Y-138736289D01*
X71365233Y-138599657D01*
X71365791Y-138439020D01*
X71366107Y-138379382D01*
X71369675Y-137740041D01*
X71774702Y-138291449D01*
X71889446Y-138447876D01*
X71988857Y-138584088D01*
X72074010Y-138701890D01*
X72145978Y-138803084D01*
X72205834Y-138889477D01*
X72254652Y-138962874D01*
X72293505Y-139025077D01*
X72323466Y-139077893D01*
X72345609Y-139123125D01*
X72361007Y-139162578D01*
X72370734Y-139198058D01*
X72375863Y-139231368D01*
X72377468Y-139264313D01*
X72376621Y-139298697D01*
X72376405Y-139303019D01*
X72371946Y-139389031D01*
X73791308Y-139388973D01*
X73685735Y-139282522D01*
X73657087Y-139253406D01*
X73629910Y-139225076D01*
X73603011Y-139195968D01*
X73575197Y-139164520D01*
X73545275Y-139129169D01*
X73512054Y-139088354D01*
X73474339Y-139040511D01*
X73430940Y-138984079D01*
X73380662Y-138917494D01*
X73322312Y-138839195D01*
X73254700Y-138747619D01*
X73176631Y-138641204D01*
X73086912Y-138518387D01*
X72984352Y-138377605D01*
X72867758Y-138217297D01*
X72772191Y-138085798D01*
X72652251Y-137920596D01*
X72547620Y-137776152D01*
X72457352Y-137651094D01*
X72380497Y-137544052D01*
X72316109Y-137453654D01*
X72263239Y-137378529D01*
X72220940Y-137317304D01*
X72188264Y-137268610D01*
X72164262Y-137231074D01*
X72147987Y-137203325D01*
X72138492Y-137183992D01*
X72134827Y-137171703D01*
X72135929Y-137165242D01*
X72149276Y-137148048D01*
X72178134Y-137111655D01*
X72220760Y-137058224D01*
X72275415Y-136989919D01*
X72340356Y-136908903D01*
X72413842Y-136817340D01*
X72494132Y-136717392D01*
X72579485Y-136611224D01*
X72668160Y-136500997D01*
X72758414Y-136388876D01*
X72808056Y-136327244D01*
X74040627Y-136327244D01*
X74091854Y-136419919D01*
X74143081Y-136512595D01*
X74143081Y-139203622D01*
X74091854Y-139296298D01*
X74040627Y-139388973D01*
X74646604Y-139388973D01*
X74791266Y-139388931D01*
X74910756Y-139388741D01*
X75007358Y-139388308D01*
X75083358Y-139387536D01*
X75141043Y-139386330D01*
X75182699Y-139384594D01*
X75210611Y-139382232D01*
X75227065Y-139379150D01*
X75234348Y-139375251D01*
X75234745Y-139370440D01*
X75230542Y-139364622D01*
X75230499Y-139364574D01*
X75213187Y-139339532D01*
X75190264Y-139298815D01*
X75170019Y-139258168D01*
X75131621Y-139176162D01*
X75123789Y-136327244D01*
X74040627Y-136327244D01*
X72808056Y-136327244D01*
X72848507Y-136277024D01*
X72936698Y-136167604D01*
X73021246Y-136062778D01*
X73100408Y-135964711D01*
X73172444Y-135875566D01*
X73235613Y-135797505D01*
X73288173Y-135732692D01*
X73328383Y-135683290D01*
X73352000Y-135654487D01*
X73443710Y-135546778D01*
X73531940Y-135449580D01*
X73613597Y-135366076D01*
X73685590Y-135299448D01*
X73736681Y-135258599D01*
X73797093Y-135215135D01*
X72407702Y-135215135D01*
X72408092Y-135296666D01*
X72404209Y-135356606D01*
X72389610Y-135412177D01*
X72367012Y-135464855D01*
X72352322Y-135494615D01*
X72336528Y-135524103D01*
X72318186Y-135555276D01*
X72295855Y-135590093D01*
X72268091Y-135630510D01*
X72233451Y-135678486D01*
X72190493Y-135735978D01*
X72137773Y-135804943D01*
X72073849Y-135887339D01*
X71997279Y-135985124D01*
X71906619Y-136100255D01*
X71800426Y-136234690D01*
X71788432Y-136249859D01*
X71369675Y-136779412D01*
X71365622Y-136192922D01*
X71364805Y-136017251D01*
X71364979Y-135868532D01*
X71366151Y-135746275D01*
X71368331Y-135649989D01*
X71371526Y-135579183D01*
X71375744Y-135533369D01*
X71377162Y-135524679D01*
X71399409Y-135433135D01*
X71428557Y-135350608D01*
X71461818Y-135284253D01*
X71481800Y-135256110D01*
X71516278Y-135215135D01*
X70862086Y-135215135D01*
X70706031Y-135215269D01*
X70575533Y-135215703D01*
X70468690Y-135216489D01*
X70383602Y-135217676D01*
X70318365Y-135219317D01*
X70271079Y-135221461D01*
X70239843Y-135224159D01*
X70222754Y-135227462D01*
X70217912Y-135231421D01*
X70218247Y-135232298D01*
X70232115Y-135253231D01*
X70255268Y-135286412D01*
X70267246Y-135303193D01*
X70279631Y-135319940D01*
X70290763Y-135334915D01*
X70300712Y-135349594D01*
X70309549Y-135365449D01*
X70317343Y-135383955D01*
X70324165Y-135406585D01*
X70330084Y-135434813D01*
X70335171Y-135470113D01*
X70339496Y-135513958D01*
X70343129Y-135567822D01*
X70346140Y-135633180D01*
X70348599Y-135711504D01*
X70350577Y-135804268D01*
X70352142Y-135912947D01*
X70353366Y-136039013D01*
X70354319Y-136183942D01*
X70355070Y-136349206D01*
X70355689Y-136536279D01*
X70356248Y-136746635D01*
X70356815Y-136981748D01*
X70357345Y-137197741D01*
X70357845Y-137438535D01*
X70358105Y-137668274D01*
X70358132Y-137885493D01*
X70357933Y-138088722D01*
X70357514Y-138276496D01*
X70356882Y-138447345D01*
X70356044Y-138599803D01*
X70355008Y-138732403D01*
X70353780Y-138843676D01*
X70352367Y-138932156D01*
X70350775Y-138996375D01*
X70349013Y-139034865D01*
X70348679Y-139038933D01*
X70336534Y-139132248D01*
X70317573Y-139207190D01*
X70288698Y-139272594D01*
X70246810Y-139337293D01*
X70241571Y-139344352D01*
X70208116Y-139388973D01*
X69841685Y-139388973D01*
X69840946Y-139307479D01*
X69840107Y-139168090D01*
X69839502Y-139010539D01*
X69839095Y-138833691D01*
X69838850Y-138636410D01*
X69838733Y-138417560D01*
X69838705Y-138176007D01*
X69838733Y-137910615D01*
X69838780Y-137620249D01*
X69838810Y-137303773D01*
X69838811Y-137240946D01*
X69838828Y-136921137D01*
X69838888Y-136627661D01*
X69838998Y-136359390D01*
X69839167Y-136115198D01*
X69839403Y-135893957D01*
X69839716Y-135694540D01*
X69840115Y-135515820D01*
X69840607Y-135356671D01*
X69841203Y-135215966D01*
X69841910Y-135092576D01*
X69842737Y-134985376D01*
X69843693Y-134893238D01*
X69844787Y-134815035D01*
X69846027Y-134749641D01*
X69847422Y-134695928D01*
X69848982Y-134652769D01*
X69850714Y-134619037D01*
X69852628Y-134593605D01*
X69854732Y-134575347D01*
X69857034Y-134563134D01*
X69859545Y-134555841D01*
X69859637Y-134555659D01*
X69864808Y-134544518D01*
X69869115Y-134534431D01*
X69873879Y-134525346D01*
X69880422Y-134517212D01*
X69890065Y-134509976D01*
X69904129Y-134503586D01*
X69923937Y-134497989D01*
X69950809Y-134493133D01*
X69986067Y-134488966D01*
X70031032Y-134485436D01*
X70087026Y-134482491D01*
X70155371Y-134480077D01*
X70237386Y-134478144D01*
X70334395Y-134476638D01*
X70447718Y-134475508D01*
X70578677Y-134474702D01*
X70728593Y-134474166D01*
X70898787Y-134473849D01*
X71090582Y-134473699D01*
X71305298Y-134473663D01*
X71544257Y-134473689D01*
X71544257Y-134473689D01*
G37*
X71544257Y-134473689D02*
X71808780Y-134473725D01*
X71931912Y-134473730D01*
X73902811Y-134473730D01*
X73902811Y-134589910D01*
X73915211Y-134731291D01*
X73952636Y-134861684D01*
X74015423Y-134981862D01*
X74103906Y-135092602D01*
X74133843Y-135122511D01*
X74241534Y-135207348D01*
X74360275Y-135269221D01*
X74486540Y-135308159D01*
X74616803Y-135324190D01*
X74747535Y-135317342D01*
X74875212Y-135287643D01*
X74996305Y-135235120D01*
X75107288Y-135159803D01*
X75157132Y-135114363D01*
X75250017Y-135002952D01*
X75318127Y-134880435D01*
X75360871Y-134748215D01*
X75377653Y-134607692D01*
X75377876Y-134593867D01*
X75378756Y-134473734D01*
X75431557Y-134473732D01*
X75478396Y-134480089D01*
X75521183Y-134495556D01*
X75524011Y-134497154D01*
X75533675Y-134502168D01*
X75542549Y-134506073D01*
X75550665Y-134510007D01*
X75558057Y-134515106D01*
X75564755Y-134522508D01*
X75570792Y-134533351D01*
X75576199Y-134548772D01*
X75581010Y-134569909D01*
X75585255Y-134597899D01*
X75588968Y-134633879D01*
X75592179Y-134678987D01*
X75594922Y-134734360D01*
X75597228Y-134801137D01*
X75599129Y-134880453D01*
X75600658Y-134973447D01*
X75601846Y-135081257D01*
X75602726Y-135205019D01*
X75603330Y-135345871D01*
X75603689Y-135504950D01*
X75603835Y-135683395D01*
X75603802Y-135882342D01*
X75603620Y-136102929D01*
X75603323Y-136346293D01*
X75602941Y-136613572D01*
X75602508Y-136905903D01*
X75602055Y-137224424D01*
X75602002Y-137263230D01*
X75601596Y-137583782D01*
X75601251Y-137878012D01*
X75600931Y-138147056D01*
X75600600Y-138392052D01*
X75600221Y-138614137D01*
X75599757Y-138814447D01*
X75599172Y-138994119D01*
X75598430Y-139154290D01*
X75597494Y-139296098D01*
X75596327Y-139420679D01*
X75594893Y-139529170D01*
X75593156Y-139622707D01*
X75591078Y-139702429D01*
X75588624Y-139769472D01*
X75585756Y-139824973D01*
X75582439Y-139870068D01*
X75578636Y-139905895D01*
X75574310Y-139933591D01*
X75569425Y-139954293D01*
X75563945Y-139969137D01*
X75557832Y-139979260D01*
X75551050Y-139985800D01*
X75543563Y-139989893D01*
X75535334Y-139992676D01*
X75526327Y-139995287D01*
X75516505Y-139998862D01*
X75514106Y-139999950D01*
X75506565Y-140002396D01*
X75493944Y-140004642D01*
X75475141Y-140006698D01*
X75449053Y-140008572D01*
X75414578Y-140010271D01*
X75370615Y-140011803D01*
X75316061Y-140013177D01*
X75249815Y-140014400D01*
X75170774Y-140015481D01*
X75077837Y-140016427D01*
X74969901Y-140017247D01*
X74845864Y-140017947D01*
X74704624Y-140018538D01*
X74545079Y-140019025D01*
X74366128Y-140019419D01*
X74166668Y-140019725D01*
X73945596Y-140019953D01*
X73701812Y-140020110D01*
X73434213Y-140020205D01*
X73141697Y-140020245D01*
X72823161Y-140020238D01*
X72719979Y-140020228D01*
X72394377Y-140020176D01*
X72095119Y-140020091D01*
X71821091Y-140019963D01*
X71571176Y-140019785D01*
X71344260Y-140019548D01*
X71139227Y-140019242D01*
X70954962Y-140018860D01*
X70790350Y-140018392D01*
X70644275Y-140017830D01*
X70515624Y-140017165D01*
X70403279Y-140016388D01*
X70306126Y-140015491D01*
X70223050Y-140014465D01*
X70152936Y-140013301D01*
X70094668Y-140011991D01*
X70047131Y-140010525D01*
X70009210Y-140008896D01*
X69979790Y-140007093D01*
X69957755Y-140005110D01*
X69941990Y-140002936D01*
X69931380Y-140000563D01*
X69925596Y-139998391D01*
X69915316Y-139994056D01*
X69905878Y-139990859D01*
X69897245Y-139987665D01*
X69889381Y-139983338D01*
X69882252Y-139976744D01*
X69875821Y-139966747D01*
X69870053Y-139952212D01*
X69864911Y-139932003D01*
X69860360Y-139904985D01*
X69856365Y-139870023D01*
X69852889Y-139825981D01*
X69849898Y-139771724D01*
X69847354Y-139706117D01*
X69845223Y-139628024D01*
X69843468Y-139536310D01*
X69842055Y-139429840D01*
X69841685Y-139388973D01*
X70208116Y-139388973D01*
X71503266Y-139388973D01*
X71478345Y-139351217D01*
X71453553Y-139312417D01*
X71432560Y-139275469D01*
X71415065Y-139237788D01*
X71400770Y-139196788D01*
X71389377Y-139149883D01*
X71380587Y-139094487D01*
X71374102Y-139028016D01*
X71369623Y-138947883D01*
X71366850Y-138851502D01*
X71365487Y-138736289D01*
X71365233Y-138599657D01*
X71365791Y-138439020D01*
X71366107Y-138379382D01*
X71369675Y-137740041D01*
X71774702Y-138291449D01*
X71889446Y-138447876D01*
X71988857Y-138584088D01*
X72074010Y-138701890D01*
X72145978Y-138803084D01*
X72205834Y-138889477D01*
X72254652Y-138962874D01*
X72293505Y-139025077D01*
X72323466Y-139077893D01*
X72345609Y-139123125D01*
X72361007Y-139162578D01*
X72370734Y-139198058D01*
X72375863Y-139231368D01*
X72377468Y-139264313D01*
X72376621Y-139298697D01*
X72376405Y-139303019D01*
X72371946Y-139389031D01*
X73791308Y-139388973D01*
X73685735Y-139282522D01*
X73657087Y-139253406D01*
X73629910Y-139225076D01*
X73603011Y-139195968D01*
X73575197Y-139164520D01*
X73545275Y-139129169D01*
X73512054Y-139088354D01*
X73474339Y-139040511D01*
X73430940Y-138984079D01*
X73380662Y-138917494D01*
X73322312Y-138839195D01*
X73254700Y-138747619D01*
X73176631Y-138641204D01*
X73086912Y-138518387D01*
X72984352Y-138377605D01*
X72867758Y-138217297D01*
X72772191Y-138085798D01*
X72652251Y-137920596D01*
X72547620Y-137776152D01*
X72457352Y-137651094D01*
X72380497Y-137544052D01*
X72316109Y-137453654D01*
X72263239Y-137378529D01*
X72220940Y-137317304D01*
X72188264Y-137268610D01*
X72164262Y-137231074D01*
X72147987Y-137203325D01*
X72138492Y-137183992D01*
X72134827Y-137171703D01*
X72135929Y-137165242D01*
X72149276Y-137148048D01*
X72178134Y-137111655D01*
X72220760Y-137058224D01*
X72275415Y-136989919D01*
X72340356Y-136908903D01*
X72413842Y-136817340D01*
X72494132Y-136717392D01*
X72579485Y-136611224D01*
X72668160Y-136500997D01*
X72758414Y-136388876D01*
X72808056Y-136327244D01*
X74040627Y-136327244D01*
X74091854Y-136419919D01*
X74143081Y-136512595D01*
X74143081Y-139203622D01*
X74091854Y-139296298D01*
X74040627Y-139388973D01*
X74646604Y-139388973D01*
X74791266Y-139388931D01*
X74910756Y-139388741D01*
X75007358Y-139388308D01*
X75083358Y-139387536D01*
X75141043Y-139386330D01*
X75182699Y-139384594D01*
X75210611Y-139382232D01*
X75227065Y-139379150D01*
X75234348Y-139375251D01*
X75234745Y-139370440D01*
X75230542Y-139364622D01*
X75230499Y-139364574D01*
X75213187Y-139339532D01*
X75190264Y-139298815D01*
X75170019Y-139258168D01*
X75131621Y-139176162D01*
X75123789Y-136327244D01*
X74040627Y-136327244D01*
X72808056Y-136327244D01*
X72848507Y-136277024D01*
X72936698Y-136167604D01*
X73021246Y-136062778D01*
X73100408Y-135964711D01*
X73172444Y-135875566D01*
X73235613Y-135797505D01*
X73288173Y-135732692D01*
X73328383Y-135683290D01*
X73352000Y-135654487D01*
X73443710Y-135546778D01*
X73531940Y-135449580D01*
X73613597Y-135366076D01*
X73685590Y-135299448D01*
X73736681Y-135258599D01*
X73797093Y-135215135D01*
X72407702Y-135215135D01*
X72408092Y-135296666D01*
X72404209Y-135356606D01*
X72389610Y-135412177D01*
X72367012Y-135464855D01*
X72352322Y-135494615D01*
X72336528Y-135524103D01*
X72318186Y-135555276D01*
X72295855Y-135590093D01*
X72268091Y-135630510D01*
X72233451Y-135678486D01*
X72190493Y-135735978D01*
X72137773Y-135804943D01*
X72073849Y-135887339D01*
X71997279Y-135985124D01*
X71906619Y-136100255D01*
X71800426Y-136234690D01*
X71788432Y-136249859D01*
X71369675Y-136779412D01*
X71365622Y-136192922D01*
X71364805Y-136017251D01*
X71364979Y-135868532D01*
X71366151Y-135746275D01*
X71368331Y-135649989D01*
X71371526Y-135579183D01*
X71375744Y-135533369D01*
X71377162Y-135524679D01*
X71399409Y-135433135D01*
X71428557Y-135350608D01*
X71461818Y-135284253D01*
X71481800Y-135256110D01*
X71516278Y-135215135D01*
X70862086Y-135215135D01*
X70706031Y-135215269D01*
X70575533Y-135215703D01*
X70468690Y-135216489D01*
X70383602Y-135217676D01*
X70318365Y-135219317D01*
X70271079Y-135221461D01*
X70239843Y-135224159D01*
X70222754Y-135227462D01*
X70217912Y-135231421D01*
X70218247Y-135232298D01*
X70232115Y-135253231D01*
X70255268Y-135286412D01*
X70267246Y-135303193D01*
X70279631Y-135319940D01*
X70290763Y-135334915D01*
X70300712Y-135349594D01*
X70309549Y-135365449D01*
X70317343Y-135383955D01*
X70324165Y-135406585D01*
X70330084Y-135434813D01*
X70335171Y-135470113D01*
X70339496Y-135513958D01*
X70343129Y-135567822D01*
X70346140Y-135633180D01*
X70348599Y-135711504D01*
X70350577Y-135804268D01*
X70352142Y-135912947D01*
X70353366Y-136039013D01*
X70354319Y-136183942D01*
X70355070Y-136349206D01*
X70355689Y-136536279D01*
X70356248Y-136746635D01*
X70356815Y-136981748D01*
X70357345Y-137197741D01*
X70357845Y-137438535D01*
X70358105Y-137668274D01*
X70358132Y-137885493D01*
X70357933Y-138088722D01*
X70357514Y-138276496D01*
X70356882Y-138447345D01*
X70356044Y-138599803D01*
X70355008Y-138732403D01*
X70353780Y-138843676D01*
X70352367Y-138932156D01*
X70350775Y-138996375D01*
X70349013Y-139034865D01*
X70348679Y-139038933D01*
X70336534Y-139132248D01*
X70317573Y-139207190D01*
X70288698Y-139272594D01*
X70246810Y-139337293D01*
X70241571Y-139344352D01*
X70208116Y-139388973D01*
X69841685Y-139388973D01*
X69840946Y-139307479D01*
X69840107Y-139168090D01*
X69839502Y-139010539D01*
X69839095Y-138833691D01*
X69838850Y-138636410D01*
X69838733Y-138417560D01*
X69838705Y-138176007D01*
X69838733Y-137910615D01*
X69838780Y-137620249D01*
X69838810Y-137303773D01*
X69838811Y-137240946D01*
X69838828Y-136921137D01*
X69838888Y-136627661D01*
X69838998Y-136359390D01*
X69839167Y-136115198D01*
X69839403Y-135893957D01*
X69839716Y-135694540D01*
X69840115Y-135515820D01*
X69840607Y-135356671D01*
X69841203Y-135215966D01*
X69841910Y-135092576D01*
X69842737Y-134985376D01*
X69843693Y-134893238D01*
X69844787Y-134815035D01*
X69846027Y-134749641D01*
X69847422Y-134695928D01*
X69848982Y-134652769D01*
X69850714Y-134619037D01*
X69852628Y-134593605D01*
X69854732Y-134575347D01*
X69857034Y-134563134D01*
X69859545Y-134555841D01*
X69859637Y-134555659D01*
X69864808Y-134544518D01*
X69869115Y-134534431D01*
X69873879Y-134525346D01*
X69880422Y-134517212D01*
X69890065Y-134509976D01*
X69904129Y-134503586D01*
X69923937Y-134497989D01*
X69950809Y-134493133D01*
X69986067Y-134488966D01*
X70031032Y-134485436D01*
X70087026Y-134482491D01*
X70155371Y-134480077D01*
X70237386Y-134478144D01*
X70334395Y-134476638D01*
X70447718Y-134475508D01*
X70578677Y-134474702D01*
X70728593Y-134474166D01*
X70898787Y-134473849D01*
X71090582Y-134473699D01*
X71305298Y-134473663D01*
X71544257Y-134473689D01*
G36*
X77939962Y-135160499D02*
X78088014Y-135176707D01*
X78231452Y-135205718D01*
X78376110Y-135249045D01*
X78527824Y-135308201D01*
X78692428Y-135384700D01*
X78722071Y-135399517D01*
X78790098Y-135433031D01*
X78854256Y-135463208D01*
X78908215Y-135487166D01*
X78945640Y-135502024D01*
X78951389Y-135503895D01*
X79006486Y-135520402D01*
X78759851Y-135879201D01*
X78699552Y-135966893D01*
X78644422Y-136047012D01*
X78596336Y-136116836D01*
X78557168Y-136173647D01*
X78528794Y-136214723D01*
X78513087Y-136237346D01*
X78510536Y-136240928D01*
X78500171Y-136233438D01*
X78474660Y-136210918D01*
X78438563Y-136177461D01*
X78418642Y-136158550D01*
X78305773Y-136068778D01*
X78179014Y-136000561D01*
X78069783Y-135963195D01*
X78004214Y-135951460D01*
X77922116Y-135944308D01*
X77833144Y-135941874D01*
X77746956Y-135944288D01*
X77673205Y-135951683D01*
X77643776Y-135957347D01*
X77511133Y-136002982D01*
X77391606Y-136072663D01*
X77285283Y-136166260D01*
X77192253Y-136283649D01*
X77112605Y-136424700D01*
X77046426Y-136589286D01*
X76993806Y-136777280D01*
X76962533Y-136938217D01*
X76954374Y-137009263D01*
X76948815Y-137101046D01*
X76945802Y-137206968D01*
X76945281Y-137320434D01*
X76947200Y-137434849D01*
X76951503Y-137543617D01*
X76958137Y-137640143D01*
X76967049Y-137717831D01*
X76968979Y-137729817D01*
X77011499Y-137922892D01*
X77069433Y-138093773D01*
X77143133Y-138243224D01*
X77232951Y-138372011D01*
X77296707Y-138441639D01*
X77411286Y-138536173D01*
X77536942Y-138606246D01*
X77671557Y-138651477D01*
X77813011Y-138671484D01*
X77959183Y-138665885D01*
X78107955Y-138634300D01*
X78195911Y-138603394D01*
X78317629Y-138541506D01*
X78443080Y-138452729D01*
X78513353Y-138392694D01*
X78552811Y-138357947D01*
X78583812Y-138332454D01*
X78601458Y-138320170D01*
X78603648Y-138319795D01*
X78611524Y-138332347D01*
X78631932Y-138365516D01*
X78663132Y-138416458D01*
X78703386Y-138482331D01*
X78750957Y-138560289D01*
X78804104Y-138647490D01*
X78833687Y-138696067D01*
X79059648Y-139067215D01*
X78777527Y-139206639D01*
X78675522Y-139256719D01*
X78592889Y-139296210D01*
X78524578Y-139327073D01*
X78465537Y-139351268D01*
X78410714Y-139370758D01*
X78355060Y-139387503D01*
X78293523Y-139403465D01*
X78234540Y-139417482D01*
X78182115Y-139428329D01*
X78127288Y-139436526D01*
X78064572Y-139442528D01*
X77988477Y-139446790D01*
X77893516Y-139449767D01*
X77829513Y-139451052D01*
X77738192Y-139451930D01*
X77650627Y-139451487D01*
X77572612Y-139449852D01*
X77509942Y-139447149D01*
X77468413Y-139443505D01*
X77465952Y-139443142D01*
X77250303Y-139396487D01*
X77047793Y-139325729D01*
X76858495Y-139230914D01*
X76682479Y-139112089D01*
X76519816Y-138969300D01*
X76370578Y-138802594D01*
X76262496Y-138654433D01*
X76147434Y-138460502D01*
X76054423Y-138255699D01*
X75983013Y-138038383D01*
X75932756Y-137806912D01*
X75903201Y-137559643D01*
X75893889Y-137308559D01*
X75901548Y-137065670D01*
X75925613Y-136841570D01*
X75966852Y-136632477D01*
X76026027Y-136434613D01*
X76103904Y-136244196D01*
X76113203Y-136224468D01*
X76215648Y-136040059D01*
X76341472Y-135864576D01*
X76487112Y-135701650D01*
X76649001Y-135554914D01*
X76823576Y-135428001D01*
X76986244Y-135334905D01*
X77150573Y-135261991D01*
X77315251Y-135209174D01*
X77486652Y-135175015D01*
X77671153Y-135158078D01*
X77781459Y-135155580D01*
X77939962Y-135160499D01*
X77939962Y-135160499D01*
G37*
X77939962Y-135160499D02*
X78088014Y-135176707D01*
X78231452Y-135205718D01*
X78376110Y-135249045D01*
X78527824Y-135308201D01*
X78692428Y-135384700D01*
X78722071Y-135399517D01*
X78790098Y-135433031D01*
X78854256Y-135463208D01*
X78908215Y-135487166D01*
X78945640Y-135502024D01*
X78951389Y-135503895D01*
X79006486Y-135520402D01*
X78759851Y-135879201D01*
X78699552Y-135966893D01*
X78644422Y-136047012D01*
X78596336Y-136116836D01*
X78557168Y-136173647D01*
X78528794Y-136214723D01*
X78513087Y-136237346D01*
X78510536Y-136240928D01*
X78500171Y-136233438D01*
X78474660Y-136210918D01*
X78438563Y-136177461D01*
X78418642Y-136158550D01*
X78305773Y-136068778D01*
X78179014Y-136000561D01*
X78069783Y-135963195D01*
X78004214Y-135951460D01*
X77922116Y-135944308D01*
X77833144Y-135941874D01*
X77746956Y-135944288D01*
X77673205Y-135951683D01*
X77643776Y-135957347D01*
X77511133Y-136002982D01*
X77391606Y-136072663D01*
X77285283Y-136166260D01*
X77192253Y-136283649D01*
X77112605Y-136424700D01*
X77046426Y-136589286D01*
X76993806Y-136777280D01*
X76962533Y-136938217D01*
X76954374Y-137009263D01*
X76948815Y-137101046D01*
X76945802Y-137206968D01*
X76945281Y-137320434D01*
X76947200Y-137434849D01*
X76951503Y-137543617D01*
X76958137Y-137640143D01*
X76967049Y-137717831D01*
X76968979Y-137729817D01*
X77011499Y-137922892D01*
X77069433Y-138093773D01*
X77143133Y-138243224D01*
X77232951Y-138372011D01*
X77296707Y-138441639D01*
X77411286Y-138536173D01*
X77536942Y-138606246D01*
X77671557Y-138651477D01*
X77813011Y-138671484D01*
X77959183Y-138665885D01*
X78107955Y-138634300D01*
X78195911Y-138603394D01*
X78317629Y-138541506D01*
X78443080Y-138452729D01*
X78513353Y-138392694D01*
X78552811Y-138357947D01*
X78583812Y-138332454D01*
X78601458Y-138320170D01*
X78603648Y-138319795D01*
X78611524Y-138332347D01*
X78631932Y-138365516D01*
X78663132Y-138416458D01*
X78703386Y-138482331D01*
X78750957Y-138560289D01*
X78804104Y-138647490D01*
X78833687Y-138696067D01*
X79059648Y-139067215D01*
X78777527Y-139206639D01*
X78675522Y-139256719D01*
X78592889Y-139296210D01*
X78524578Y-139327073D01*
X78465537Y-139351268D01*
X78410714Y-139370758D01*
X78355060Y-139387503D01*
X78293523Y-139403465D01*
X78234540Y-139417482D01*
X78182115Y-139428329D01*
X78127288Y-139436526D01*
X78064572Y-139442528D01*
X77988477Y-139446790D01*
X77893516Y-139449767D01*
X77829513Y-139451052D01*
X77738192Y-139451930D01*
X77650627Y-139451487D01*
X77572612Y-139449852D01*
X77509942Y-139447149D01*
X77468413Y-139443505D01*
X77465952Y-139443142D01*
X77250303Y-139396487D01*
X77047793Y-139325729D01*
X76858495Y-139230914D01*
X76682479Y-139112089D01*
X76519816Y-138969300D01*
X76370578Y-138802594D01*
X76262496Y-138654433D01*
X76147434Y-138460502D01*
X76054423Y-138255699D01*
X75983013Y-138038383D01*
X75932756Y-137806912D01*
X75903201Y-137559643D01*
X75893889Y-137308559D01*
X75901548Y-137065670D01*
X75925613Y-136841570D01*
X75966852Y-136632477D01*
X76026027Y-136434613D01*
X76103904Y-136244196D01*
X76113203Y-136224468D01*
X76215648Y-136040059D01*
X76341472Y-135864576D01*
X76487112Y-135701650D01*
X76649001Y-135554914D01*
X76823576Y-135428001D01*
X76986244Y-135334905D01*
X77150573Y-135261991D01*
X77315251Y-135209174D01*
X77486652Y-135175015D01*
X77671153Y-135158078D01*
X77781459Y-135155580D01*
X77939962Y-135160499D01*
G36*
X80667505Y-136264229D02*
X80735531Y-136269378D01*
X80930163Y-136295273D01*
X81102529Y-136336575D01*
X81253470Y-136393853D01*
X81383825Y-136467674D01*
X81494434Y-136558608D01*
X81586135Y-136667222D01*
X81659770Y-136794085D01*
X81713539Y-136931352D01*
X81727187Y-136975137D01*
X81739073Y-137016141D01*
X81749334Y-137056569D01*
X81758113Y-137098630D01*
X81765548Y-137144531D01*
X81771780Y-137196480D01*
X81776950Y-137256685D01*
X81781196Y-137327352D01*
X81784660Y-137410689D01*
X81787481Y-137508905D01*
X81789800Y-137624205D01*
X81791757Y-137758799D01*
X81793491Y-137914893D01*
X81795143Y-138094695D01*
X81796324Y-138235676D01*
X81804270Y-139203622D01*
X81855756Y-139296770D01*
X81880137Y-139341645D01*
X81898280Y-139376501D01*
X81906935Y-139395054D01*
X81907243Y-139396311D01*
X81894014Y-139397749D01*
X81856326Y-139399074D01*
X81797183Y-139400249D01*
X81719586Y-139401237D01*
X81626536Y-139401999D01*
X81521035Y-139402500D01*
X81406084Y-139402701D01*
X81392378Y-139402703D01*
X80877513Y-139402703D01*
X80877513Y-139286000D01*
X80876635Y-139233260D01*
X80874292Y-139192926D01*
X80870921Y-139171300D01*
X80869431Y-139169298D01*
X80855804Y-139177683D01*
X80827757Y-139199692D01*
X80791303Y-139230601D01*
X80790485Y-139231316D01*
X80723962Y-139280843D01*
X80639948Y-139330575D01*
X80547937Y-139375626D01*
X80457421Y-139411110D01*
X80417567Y-139423236D01*
X80338255Y-139438637D01*
X80240935Y-139448465D01*
X80134516Y-139452580D01*
X80027907Y-139450841D01*
X79930017Y-139443108D01*
X79861513Y-139431981D01*
X79693520Y-139382648D01*
X79542281Y-139312342D01*
X79408782Y-139221933D01*
X79294006Y-139112295D01*
X79198937Y-138984299D01*
X79124560Y-138838818D01*
X79092474Y-138750541D01*
X79072365Y-138664739D01*
X79059038Y-138561736D01*
X79052872Y-138451034D01*
X79053074Y-138434925D01*
X79981648Y-138434925D01*
X79989348Y-138517184D01*
X80014989Y-138585546D01*
X80062378Y-138648970D01*
X80080579Y-138667567D01*
X80145282Y-138717846D01*
X80220066Y-138750056D01*
X80309662Y-138765648D01*
X80404012Y-138766796D01*
X80493501Y-138759216D01*
X80562018Y-138744389D01*
X80591775Y-138733253D01*
X80645408Y-138702904D01*
X80702235Y-138660221D01*
X80754082Y-138612317D01*
X80792778Y-138566301D01*
X80803054Y-138549421D01*
X80811042Y-138525782D01*
X80816721Y-138488168D01*
X80820356Y-138432985D01*
X80822211Y-138356640D01*
X80822594Y-138283981D01*
X80822335Y-138199270D01*
X80821287Y-138138018D01*
X80819045Y-138096227D01*
X80815206Y-138069899D01*
X80809365Y-138055035D01*
X80801118Y-138047639D01*
X80798567Y-138046461D01*
X80776400Y-138042833D01*
X80732680Y-138039866D01*
X80673311Y-138037827D01*
X80604196Y-138036983D01*
X80589189Y-138036982D01*
X80496805Y-138038457D01*
X80425432Y-138042842D01*
X80368719Y-138050738D01*
X80321872Y-138062270D01*
X80205669Y-138106215D01*
X80114543Y-138160243D01*
X80047705Y-138225219D01*
X80004365Y-138302005D01*
X79983734Y-138391467D01*
X79981648Y-138434925D01*
X79053074Y-138434925D01*
X79054244Y-138342133D01*
X79063532Y-138244536D01*
X79070777Y-138205105D01*
X79117039Y-138058701D01*
X79187384Y-137923995D01*
X79280484Y-137802280D01*
X79395012Y-137694847D01*
X79529640Y-137602988D01*
X79683040Y-137527996D01*
X79813459Y-137482458D01*
X79900623Y-137458533D01*
X79983996Y-137439943D01*
X80068976Y-137426084D01*
X80160965Y-137416351D01*
X80265362Y-137410141D01*
X80387568Y-137406851D01*
X80498055Y-137405924D01*
X80825677Y-137405027D01*
X80819401Y-137306547D01*
X80801579Y-137199695D01*
X80763667Y-137107852D01*
X80707280Y-137033310D01*
X80634031Y-136978364D01*
X80569535Y-136951552D01*
X80477123Y-136934654D01*
X80367111Y-136932227D01*
X80244656Y-136943378D01*
X80114914Y-136967210D01*
X79983042Y-137002830D01*
X79854198Y-137049343D01*
X79760566Y-137091883D01*
X79715517Y-137113728D01*
X79681156Y-137128984D01*
X79663681Y-137134937D01*
X79662733Y-137134746D01*
X79656703Y-137121412D01*
X79641645Y-137086068D01*
X79618977Y-137032101D01*
X79590115Y-136962896D01*
X79556477Y-136881840D01*
X79522284Y-136799118D01*
X79385586Y-136467803D01*
X79482820Y-136451833D01*
X79524964Y-136443820D01*
X79588319Y-136430361D01*
X79667457Y-136412679D01*
X79756951Y-136391996D01*
X79851373Y-136369532D01*
X79888973Y-136360403D01*
X80051637Y-136322674D01*
X80194050Y-136294388D01*
X80321527Y-136274972D01*
X80439384Y-136263854D01*
X80552938Y-136260464D01*
X80667505Y-136264229D01*
X80667505Y-136264229D01*
G37*
X80667505Y-136264229D02*
X80735531Y-136269378D01*
X80930163Y-136295273D01*
X81102529Y-136336575D01*
X81253470Y-136393853D01*
X81383825Y-136467674D01*
X81494434Y-136558608D01*
X81586135Y-136667222D01*
X81659770Y-136794085D01*
X81713539Y-136931352D01*
X81727187Y-136975137D01*
X81739073Y-137016141D01*
X81749334Y-137056569D01*
X81758113Y-137098630D01*
X81765548Y-137144531D01*
X81771780Y-137196480D01*
X81776950Y-137256685D01*
X81781196Y-137327352D01*
X81784660Y-137410689D01*
X81787481Y-137508905D01*
X81789800Y-137624205D01*
X81791757Y-137758799D01*
X81793491Y-137914893D01*
X81795143Y-138094695D01*
X81796324Y-138235676D01*
X81804270Y-139203622D01*
X81855756Y-139296770D01*
X81880137Y-139341645D01*
X81898280Y-139376501D01*
X81906935Y-139395054D01*
X81907243Y-139396311D01*
X81894014Y-139397749D01*
X81856326Y-139399074D01*
X81797183Y-139400249D01*
X81719586Y-139401237D01*
X81626536Y-139401999D01*
X81521035Y-139402500D01*
X81406084Y-139402701D01*
X81392378Y-139402703D01*
X80877513Y-139402703D01*
X80877513Y-139286000D01*
X80876635Y-139233260D01*
X80874292Y-139192926D01*
X80870921Y-139171300D01*
X80869431Y-139169298D01*
X80855804Y-139177683D01*
X80827757Y-139199692D01*
X80791303Y-139230601D01*
X80790485Y-139231316D01*
X80723962Y-139280843D01*
X80639948Y-139330575D01*
X80547937Y-139375626D01*
X80457421Y-139411110D01*
X80417567Y-139423236D01*
X80338255Y-139438637D01*
X80240935Y-139448465D01*
X80134516Y-139452580D01*
X80027907Y-139450841D01*
X79930017Y-139443108D01*
X79861513Y-139431981D01*
X79693520Y-139382648D01*
X79542281Y-139312342D01*
X79408782Y-139221933D01*
X79294006Y-139112295D01*
X79198937Y-138984299D01*
X79124560Y-138838818D01*
X79092474Y-138750541D01*
X79072365Y-138664739D01*
X79059038Y-138561736D01*
X79052872Y-138451034D01*
X79053074Y-138434925D01*
X79981648Y-138434925D01*
X79989348Y-138517184D01*
X80014989Y-138585546D01*
X80062378Y-138648970D01*
X80080579Y-138667567D01*
X80145282Y-138717846D01*
X80220066Y-138750056D01*
X80309662Y-138765648D01*
X80404012Y-138766796D01*
X80493501Y-138759216D01*
X80562018Y-138744389D01*
X80591775Y-138733253D01*
X80645408Y-138702904D01*
X80702235Y-138660221D01*
X80754082Y-138612317D01*
X80792778Y-138566301D01*
X80803054Y-138549421D01*
X80811042Y-138525782D01*
X80816721Y-138488168D01*
X80820356Y-138432985D01*
X80822211Y-138356640D01*
X80822594Y-138283981D01*
X80822335Y-138199270D01*
X80821287Y-138138018D01*
X80819045Y-138096227D01*
X80815206Y-138069899D01*
X80809365Y-138055035D01*
X80801118Y-138047639D01*
X80798567Y-138046461D01*
X80776400Y-138042833D01*
X80732680Y-138039866D01*
X80673311Y-138037827D01*
X80604196Y-138036983D01*
X80589189Y-138036982D01*
X80496805Y-138038457D01*
X80425432Y-138042842D01*
X80368719Y-138050738D01*
X80321872Y-138062270D01*
X80205669Y-138106215D01*
X80114543Y-138160243D01*
X80047705Y-138225219D01*
X80004365Y-138302005D01*
X79983734Y-138391467D01*
X79981648Y-138434925D01*
X79053074Y-138434925D01*
X79054244Y-138342133D01*
X79063532Y-138244536D01*
X79070777Y-138205105D01*
X79117039Y-138058701D01*
X79187384Y-137923995D01*
X79280484Y-137802280D01*
X79395012Y-137694847D01*
X79529640Y-137602988D01*
X79683040Y-137527996D01*
X79813459Y-137482458D01*
X79900623Y-137458533D01*
X79983996Y-137439943D01*
X80068976Y-137426084D01*
X80160965Y-137416351D01*
X80265362Y-137410141D01*
X80387568Y-137406851D01*
X80498055Y-137405924D01*
X80825677Y-137405027D01*
X80819401Y-137306547D01*
X80801579Y-137199695D01*
X80763667Y-137107852D01*
X80707280Y-137033310D01*
X80634031Y-136978364D01*
X80569535Y-136951552D01*
X80477123Y-136934654D01*
X80367111Y-136932227D01*
X80244656Y-136943378D01*
X80114914Y-136967210D01*
X79983042Y-137002830D01*
X79854198Y-137049343D01*
X79760566Y-137091883D01*
X79715517Y-137113728D01*
X79681156Y-137128984D01*
X79663681Y-137134937D01*
X79662733Y-137134746D01*
X79656703Y-137121412D01*
X79641645Y-137086068D01*
X79618977Y-137032101D01*
X79590115Y-136962896D01*
X79556477Y-136881840D01*
X79522284Y-136799118D01*
X79385586Y-136467803D01*
X79482820Y-136451833D01*
X79524964Y-136443820D01*
X79588319Y-136430361D01*
X79667457Y-136412679D01*
X79756951Y-136391996D01*
X79851373Y-136369532D01*
X79888973Y-136360403D01*
X80051637Y-136322674D01*
X80194050Y-136294388D01*
X80321527Y-136274972D01*
X80439384Y-136263854D01*
X80552938Y-136260464D01*
X80667505Y-136264229D01*
G36*
X84342270Y-134956825D02*
X84459041Y-134957304D01*
X84498729Y-134957545D01*
X85044486Y-134961135D01*
X85051351Y-137054919D01*
X85052258Y-137338842D01*
X85053062Y-137596640D01*
X85053815Y-137829646D01*
X85054569Y-138039194D01*
X85055375Y-138226618D01*
X85056285Y-138393250D01*
X85057351Y-138540425D01*
X85058624Y-138669477D01*
X85060156Y-138781739D01*
X85061998Y-138878544D01*
X85064203Y-138961226D01*
X85066822Y-139031119D01*
X85069906Y-139089557D01*
X85073508Y-139137872D01*
X85077678Y-139177400D01*
X85082469Y-139209473D01*
X85087931Y-139235424D01*
X85094118Y-139256589D01*
X85101080Y-139274299D01*
X85108869Y-139289889D01*
X85117537Y-139304693D01*
X85127135Y-139320044D01*
X85137715Y-139337276D01*
X85139884Y-139340946D01*
X85176268Y-139403031D01*
X84650431Y-139399434D01*
X84124594Y-139395838D01*
X84117729Y-139280331D01*
X84113992Y-139224899D01*
X84110097Y-139192851D01*
X84104811Y-139180135D01*
X84096903Y-139182696D01*
X84090270Y-139190024D01*
X84061374Y-139216714D01*
X84014279Y-139251021D01*
X83955620Y-139288846D01*
X83892031Y-139326090D01*
X83830149Y-139358653D01*
X83782634Y-139380077D01*
X83671316Y-139415283D01*
X83543596Y-139440222D01*
X83408901Y-139453941D01*
X83276663Y-139455486D01*
X83156308Y-139443906D01*
X83154326Y-139443574D01*
X82989641Y-139402250D01*
X82835479Y-139336412D01*
X82693328Y-139247474D01*
X82564675Y-139136852D01*
X82451007Y-139005961D01*
X82353810Y-138856216D01*
X82274572Y-138689033D01*
X82231430Y-138565190D01*
X82202979Y-138461581D01*
X82181880Y-138361252D01*
X82167488Y-138258109D01*
X82159158Y-138146057D01*
X82156245Y-138019001D01*
X82157535Y-137915252D01*
X83170650Y-137915252D01*
X83175444Y-138089222D01*
X83190568Y-138238895D01*
X83216485Y-138365597D01*
X83253663Y-138470658D01*
X83302565Y-138555406D01*
X83363658Y-138621169D01*
X83434177Y-138667659D01*
X83470871Y-138685014D01*
X83502696Y-138695419D01*
X83538177Y-138700179D01*
X83585841Y-138700601D01*
X83637189Y-138698748D01*
X83738169Y-138689841D01*
X83818035Y-138672398D01*
X83843135Y-138663661D01*
X83900448Y-138637857D01*
X83960897Y-138605453D01*
X83987297Y-138589233D01*
X84055946Y-138544205D01*
X84055946Y-137116982D01*
X83980432Y-137071718D01*
X83875121Y-137020572D01*
X83767525Y-136990324D01*
X83661581Y-136980795D01*
X83561224Y-136991807D01*
X83470387Y-137023181D01*
X83393007Y-137074740D01*
X83368039Y-137099488D01*
X83307856Y-137180577D01*
X83259145Y-137278734D01*
X83221499Y-137395643D01*
X83194512Y-137532985D01*
X83177775Y-137692444D01*
X83170883Y-137875700D01*
X83170650Y-137915252D01*
X82157535Y-137915252D01*
X82158073Y-137872067D01*
X82169647Y-137646053D01*
X82192920Y-137442192D01*
X82228504Y-137257513D01*
X82277013Y-137089048D01*
X82339060Y-136933826D01*
X82361201Y-136887808D01*
X82450385Y-136737739D01*
X82558159Y-136604377D01*
X82681990Y-136489877D01*
X82819342Y-136396389D01*
X82967683Y-136326068D01*
X83056604Y-136297060D01*
X83143933Y-136279840D01*
X83249011Y-136269594D01*
X83363029Y-136266318D01*
X83477177Y-136270009D01*
X83582648Y-136280660D01*
X83667334Y-136297370D01*
X83768128Y-136330140D01*
X83865822Y-136372279D01*
X83951296Y-136419519D01*
X83996789Y-136451581D01*
X84028169Y-136475422D01*
X84050142Y-136489939D01*
X84055141Y-136492000D01*
X84056690Y-136478718D01*
X84058135Y-136440663D01*
X84059443Y-136380519D01*
X84060583Y-136300973D01*
X84061521Y-136204711D01*
X84062226Y-136094419D01*
X84062667Y-135972781D01*
X84062811Y-135848885D01*
X84062730Y-135690196D01*
X84062335Y-135556408D01*
X84061395Y-135444960D01*
X84059680Y-135353295D01*
X84056957Y-135278853D01*
X84052997Y-135219075D01*
X84047569Y-135171402D01*
X84040441Y-135133274D01*
X84031384Y-135102134D01*
X84020167Y-135075421D01*
X84006558Y-135050577D01*
X83990328Y-135025043D01*
X83988240Y-135021881D01*
X83967306Y-134988810D01*
X83954667Y-134966069D01*
X83952973Y-134961272D01*
X83966216Y-134959759D01*
X84004002Y-134958528D01*
X84063416Y-134957599D01*
X84141542Y-134956992D01*
X84235465Y-134956727D01*
X84342270Y-134956825D01*
X84342270Y-134956825D01*
G37*
X84342270Y-134956825D02*
X84459041Y-134957304D01*
X84498729Y-134957545D01*
X85044486Y-134961135D01*
X85051351Y-137054919D01*
X85052258Y-137338842D01*
X85053062Y-137596640D01*
X85053815Y-137829646D01*
X85054569Y-138039194D01*
X85055375Y-138226618D01*
X85056285Y-138393250D01*
X85057351Y-138540425D01*
X85058624Y-138669477D01*
X85060156Y-138781739D01*
X85061998Y-138878544D01*
X85064203Y-138961226D01*
X85066822Y-139031119D01*
X85069906Y-139089557D01*
X85073508Y-139137872D01*
X85077678Y-139177400D01*
X85082469Y-139209473D01*
X85087931Y-139235424D01*
X85094118Y-139256589D01*
X85101080Y-139274299D01*
X85108869Y-139289889D01*
X85117537Y-139304693D01*
X85127135Y-139320044D01*
X85137715Y-139337276D01*
X85139884Y-139340946D01*
X85176268Y-139403031D01*
X84650431Y-139399434D01*
X84124594Y-139395838D01*
X84117729Y-139280331D01*
X84113992Y-139224899D01*
X84110097Y-139192851D01*
X84104811Y-139180135D01*
X84096903Y-139182696D01*
X84090270Y-139190024D01*
X84061374Y-139216714D01*
X84014279Y-139251021D01*
X83955620Y-139288846D01*
X83892031Y-139326090D01*
X83830149Y-139358653D01*
X83782634Y-139380077D01*
X83671316Y-139415283D01*
X83543596Y-139440222D01*
X83408901Y-139453941D01*
X83276663Y-139455486D01*
X83156308Y-139443906D01*
X83154326Y-139443574D01*
X82989641Y-139402250D01*
X82835479Y-139336412D01*
X82693328Y-139247474D01*
X82564675Y-139136852D01*
X82451007Y-139005961D01*
X82353810Y-138856216D01*
X82274572Y-138689033D01*
X82231430Y-138565190D01*
X82202979Y-138461581D01*
X82181880Y-138361252D01*
X82167488Y-138258109D01*
X82159158Y-138146057D01*
X82156245Y-138019001D01*
X82157535Y-137915252D01*
X83170650Y-137915252D01*
X83175444Y-138089222D01*
X83190568Y-138238895D01*
X83216485Y-138365597D01*
X83253663Y-138470658D01*
X83302565Y-138555406D01*
X83363658Y-138621169D01*
X83434177Y-138667659D01*
X83470871Y-138685014D01*
X83502696Y-138695419D01*
X83538177Y-138700179D01*
X83585841Y-138700601D01*
X83637189Y-138698748D01*
X83738169Y-138689841D01*
X83818035Y-138672398D01*
X83843135Y-138663661D01*
X83900448Y-138637857D01*
X83960897Y-138605453D01*
X83987297Y-138589233D01*
X84055946Y-138544205D01*
X84055946Y-137116982D01*
X83980432Y-137071718D01*
X83875121Y-137020572D01*
X83767525Y-136990324D01*
X83661581Y-136980795D01*
X83561224Y-136991807D01*
X83470387Y-137023181D01*
X83393007Y-137074740D01*
X83368039Y-137099488D01*
X83307856Y-137180577D01*
X83259145Y-137278734D01*
X83221499Y-137395643D01*
X83194512Y-137532985D01*
X83177775Y-137692444D01*
X83170883Y-137875700D01*
X83170650Y-137915252D01*
X82157535Y-137915252D01*
X82158073Y-137872067D01*
X82169647Y-137646053D01*
X82192920Y-137442192D01*
X82228504Y-137257513D01*
X82277013Y-137089048D01*
X82339060Y-136933826D01*
X82361201Y-136887808D01*
X82450385Y-136737739D01*
X82558159Y-136604377D01*
X82681990Y-136489877D01*
X82819342Y-136396389D01*
X82967683Y-136326068D01*
X83056604Y-136297060D01*
X83143933Y-136279840D01*
X83249011Y-136269594D01*
X83363029Y-136266318D01*
X83477177Y-136270009D01*
X83582648Y-136280660D01*
X83667334Y-136297370D01*
X83768128Y-136330140D01*
X83865822Y-136372279D01*
X83951296Y-136419519D01*
X83996789Y-136451581D01*
X84028169Y-136475422D01*
X84050142Y-136489939D01*
X84055141Y-136492000D01*
X84056690Y-136478718D01*
X84058135Y-136440663D01*
X84059443Y-136380519D01*
X84060583Y-136300973D01*
X84061521Y-136204711D01*
X84062226Y-136094419D01*
X84062667Y-135972781D01*
X84062811Y-135848885D01*
X84062730Y-135690196D01*
X84062335Y-135556408D01*
X84061395Y-135444960D01*
X84059680Y-135353295D01*
X84056957Y-135278853D01*
X84052997Y-135219075D01*
X84047569Y-135171402D01*
X84040441Y-135133274D01*
X84031384Y-135102134D01*
X84020167Y-135075421D01*
X84006558Y-135050577D01*
X83990328Y-135025043D01*
X83988240Y-135021881D01*
X83967306Y-134988810D01*
X83954667Y-134966069D01*
X83952973Y-134961272D01*
X83966216Y-134959759D01*
X84004002Y-134958528D01*
X84063416Y-134957599D01*
X84141542Y-134956992D01*
X84235465Y-134956727D01*
X84342270Y-134956825D01*
G36*
X74773921Y-134036490D02*
X74877027Y-134072238D01*
X74973022Y-134128507D01*
X75058753Y-134205288D01*
X75131070Y-134302573D01*
X75163555Y-134363892D01*
X75191668Y-134449660D01*
X75205295Y-134548677D01*
X75203786Y-134650471D01*
X75187031Y-134742714D01*
X75141237Y-134855432D01*
X75074832Y-134953207D01*
X74991191Y-135034115D01*
X74893688Y-135096232D01*
X74785700Y-135137634D01*
X74670601Y-135156397D01*
X74551766Y-135150598D01*
X74493189Y-135138206D01*
X74379028Y-135093797D01*
X74277635Y-135026033D01*
X74191455Y-134937001D01*
X74122934Y-134828791D01*
X74117136Y-134816973D01*
X74097096Y-134772628D01*
X74084513Y-134735280D01*
X74077681Y-134695880D01*
X74074895Y-134645381D01*
X74074432Y-134590433D01*
X74075197Y-134524415D01*
X74078648Y-134476689D01*
X74086523Y-134438103D01*
X74100557Y-134399506D01*
X74117880Y-134361426D01*
X74182495Y-134253328D01*
X74262066Y-134165803D01*
X74353440Y-134098841D01*
X74453464Y-134052436D01*
X74558988Y-134026581D01*
X74666858Y-134021268D01*
X74773921Y-134036490D01*
X74773921Y-134036490D01*
G37*
X74773921Y-134036490D02*
X74877027Y-134072238D01*
X74973022Y-134128507D01*
X75058753Y-134205288D01*
X75131070Y-134302573D01*
X75163555Y-134363892D01*
X75191668Y-134449660D01*
X75205295Y-134548677D01*
X75203786Y-134650471D01*
X75187031Y-134742714D01*
X75141237Y-134855432D01*
X75074832Y-134953207D01*
X74991191Y-135034115D01*
X74893688Y-135096232D01*
X74785700Y-135137634D01*
X74670601Y-135156397D01*
X74551766Y-135150598D01*
X74493189Y-135138206D01*
X74379028Y-135093797D01*
X74277635Y-135026033D01*
X74191455Y-134937001D01*
X74122934Y-134828791D01*
X74117136Y-134816973D01*
X74097096Y-134772628D01*
X74084513Y-134735280D01*
X74077681Y-134695880D01*
X74074895Y-134645381D01*
X74074432Y-134590433D01*
X74075197Y-134524415D01*
X74078648Y-134476689D01*
X74086523Y-134438103D01*
X74100557Y-134399506D01*
X74117880Y-134361426D01*
X74182495Y-134253328D01*
X74262066Y-134165803D01*
X74353440Y-134098841D01*
X74453464Y-134052436D01*
X74558988Y-134026581D01*
X74666858Y-134021268D01*
X74773921Y-134036490D01*
D14*
X85857143Y-108166666D02*
X85904762Y-108214285D01*
X85952381Y-108357142D01*
X85952381Y-108452380D01*
X85904762Y-108595238D01*
X85809524Y-108690476D01*
X85714286Y-108738095D01*
X85523810Y-108785714D01*
X85380952Y-108785714D01*
X85190476Y-108738095D01*
X85095238Y-108690476D01*
X85000000Y-108595238D01*
X84952381Y-108452380D01*
X84952381Y-108357142D01*
X85000000Y-108214285D01*
X85047619Y-108166666D01*
X85952381Y-107214285D02*
X85952381Y-107785714D01*
X85952381Y-107500000D02*
X84952381Y-107500000D01*
X85095238Y-107595238D01*
X85190476Y-107690476D01*
X85238095Y-107785714D01*
X54357143Y-95666666D02*
X54404762Y-95714285D01*
X54452381Y-95857142D01*
X54452381Y-95952380D01*
X54404762Y-96095238D01*
X54309524Y-96190476D01*
X54214286Y-96238095D01*
X54023810Y-96285714D01*
X53880952Y-96285714D01*
X53690476Y-96238095D01*
X53595238Y-96190476D01*
X53500000Y-96095238D01*
X53452381Y-95952380D01*
X53452381Y-95857142D01*
X53500000Y-95714285D01*
X53547619Y-95666666D01*
X53547619Y-95285714D02*
X53500000Y-95238095D01*
X53452381Y-95142857D01*
X53452381Y-94904761D01*
X53500000Y-94809523D01*
X53547619Y-94761904D01*
X53642857Y-94714285D01*
X53738095Y-94714285D01*
X53880952Y-94761904D01*
X54452381Y-95333333D01*
X54452381Y-94714285D01*
X89857143Y-73166666D02*
X89904762Y-73214285D01*
X89952381Y-73357142D01*
X89952381Y-73452380D01*
X89904762Y-73595238D01*
X89809524Y-73690476D01*
X89714286Y-73738095D01*
X89523810Y-73785714D01*
X89380952Y-73785714D01*
X89190476Y-73738095D01*
X89095238Y-73690476D01*
X89000000Y-73595238D01*
X88952381Y-73452380D01*
X88952381Y-73357142D01*
X89000000Y-73214285D01*
X89047619Y-73166666D01*
X88952381Y-72833333D02*
X88952381Y-72214285D01*
X89333333Y-72547619D01*
X89333333Y-72404761D01*
X89380952Y-72309523D01*
X89428571Y-72261904D01*
X89523810Y-72214285D01*
X89761905Y-72214285D01*
X89857143Y-72261904D01*
X89904762Y-72309523D01*
X89952381Y-72404761D01*
X89952381Y-72690476D01*
X89904762Y-72785714D01*
X89857143Y-72833333D01*
X89857143Y-95666666D02*
X89904762Y-95714285D01*
X89952381Y-95857142D01*
X89952381Y-95952380D01*
X89904762Y-96095238D01*
X89809524Y-96190476D01*
X89714286Y-96238095D01*
X89523810Y-96285714D01*
X89380952Y-96285714D01*
X89190476Y-96238095D01*
X89095238Y-96190476D01*
X89000000Y-96095238D01*
X88952381Y-95952380D01*
X88952381Y-95857142D01*
X89000000Y-95714285D01*
X89047619Y-95666666D01*
X89285714Y-94809523D02*
X89952381Y-94809523D01*
X88904762Y-95047619D02*
X89619048Y-95285714D01*
X89619048Y-94666666D01*
X160357143Y-60166666D02*
X160404762Y-60214285D01*
X160452381Y-60357142D01*
X160452381Y-60452380D01*
X160404762Y-60595238D01*
X160309524Y-60690476D01*
X160214286Y-60738095D01*
X160023810Y-60785714D01*
X159880952Y-60785714D01*
X159690476Y-60738095D01*
X159595238Y-60690476D01*
X159500000Y-60595238D01*
X159452381Y-60452380D01*
X159452381Y-60357142D01*
X159500000Y-60214285D01*
X159547619Y-60166666D01*
X159452381Y-59261904D02*
X159452381Y-59738095D01*
X159928571Y-59785714D01*
X159880952Y-59738095D01*
X159833333Y-59642857D01*
X159833333Y-59404761D01*
X159880952Y-59309523D01*
X159928571Y-59261904D01*
X160023810Y-59214285D01*
X160261905Y-59214285D01*
X160357143Y-59261904D01*
X160404762Y-59309523D01*
X160452381Y-59404761D01*
X160452381Y-59642857D01*
X160404762Y-59738095D01*
X160357143Y-59785714D01*
X125357143Y-78666666D02*
X125404762Y-78714285D01*
X125452381Y-78857142D01*
X125452381Y-78952380D01*
X125404762Y-79095238D01*
X125309524Y-79190476D01*
X125214286Y-79238095D01*
X125023810Y-79285714D01*
X124880952Y-79285714D01*
X124690476Y-79238095D01*
X124595238Y-79190476D01*
X124500000Y-79095238D01*
X124452381Y-78952380D01*
X124452381Y-78857142D01*
X124500000Y-78714285D01*
X124547619Y-78666666D01*
X124452381Y-77809523D02*
X124452381Y-78000000D01*
X124500000Y-78095238D01*
X124547619Y-78142857D01*
X124690476Y-78238095D01*
X124880952Y-78285714D01*
X125261905Y-78285714D01*
X125357143Y-78238095D01*
X125404762Y-78190476D01*
X125452381Y-78095238D01*
X125452381Y-77904761D01*
X125404762Y-77809523D01*
X125357143Y-77761904D01*
X125261905Y-77714285D01*
X125023810Y-77714285D01*
X124928571Y-77761904D01*
X124880952Y-77809523D01*
X124833333Y-77904761D01*
X124833333Y-78095238D01*
X124880952Y-78190476D01*
X124928571Y-78238095D01*
X125023810Y-78285714D01*
X162857143Y-86666666D02*
X162904762Y-86714285D01*
X162952381Y-86857142D01*
X162952381Y-86952380D01*
X162904762Y-87095238D01*
X162809524Y-87190476D01*
X162714286Y-87238095D01*
X162523810Y-87285714D01*
X162380952Y-87285714D01*
X162190476Y-87238095D01*
X162095238Y-87190476D01*
X162000000Y-87095238D01*
X161952381Y-86952380D01*
X161952381Y-86857142D01*
X162000000Y-86714285D01*
X162047619Y-86666666D01*
X161952381Y-86333333D02*
X161952381Y-85666666D01*
X162952381Y-86095238D01*
X194357143Y-68166666D02*
X194404762Y-68214285D01*
X194452381Y-68357142D01*
X194452381Y-68452380D01*
X194404762Y-68595238D01*
X194309524Y-68690476D01*
X194214286Y-68738095D01*
X194023810Y-68785714D01*
X193880952Y-68785714D01*
X193690476Y-68738095D01*
X193595238Y-68690476D01*
X193500000Y-68595238D01*
X193452381Y-68452380D01*
X193452381Y-68357142D01*
X193500000Y-68214285D01*
X193547619Y-68166666D01*
X193880952Y-67595238D02*
X193833333Y-67690476D01*
X193785714Y-67738095D01*
X193690476Y-67785714D01*
X193642857Y-67785714D01*
X193547619Y-67738095D01*
X193500000Y-67690476D01*
X193452381Y-67595238D01*
X193452381Y-67404761D01*
X193500000Y-67309523D01*
X193547619Y-67261904D01*
X193642857Y-67214285D01*
X193690476Y-67214285D01*
X193785714Y-67261904D01*
X193833333Y-67309523D01*
X193880952Y-67404761D01*
X193880952Y-67595238D01*
X193928571Y-67690476D01*
X193976190Y-67738095D01*
X194071429Y-67785714D01*
X194261905Y-67785714D01*
X194357143Y-67738095D01*
X194404762Y-67690476D01*
X194452381Y-67595238D01*
X194452381Y-67404761D01*
X194404762Y-67309523D01*
X194357143Y-67261904D01*
X194261905Y-67214285D01*
X194071429Y-67214285D01*
X193976190Y-67261904D01*
X193928571Y-67309523D01*
X193880952Y-67404761D01*
X54357143Y-64166666D02*
X54404762Y-64214285D01*
X54452381Y-64357142D01*
X54452381Y-64452380D01*
X54404762Y-64595238D01*
X54309524Y-64690476D01*
X54214286Y-64738095D01*
X54023810Y-64785714D01*
X53880952Y-64785714D01*
X53690476Y-64738095D01*
X53595238Y-64690476D01*
X53500000Y-64595238D01*
X53452381Y-64452380D01*
X53452381Y-64357142D01*
X53500000Y-64214285D01*
X53547619Y-64166666D01*
X54452381Y-63690476D02*
X54452381Y-63500000D01*
X54404762Y-63404761D01*
X54357143Y-63357142D01*
X54214286Y-63261904D01*
X54023810Y-63214285D01*
X53642857Y-63214285D01*
X53547619Y-63261904D01*
X53500000Y-63309523D01*
X53452381Y-63404761D01*
X53452381Y-63595238D01*
X53500000Y-63690476D01*
X53547619Y-63738095D01*
X53642857Y-63785714D01*
X53880952Y-63785714D01*
X53976190Y-63738095D01*
X54023810Y-63690476D01*
X54071429Y-63595238D01*
X54071429Y-63404761D01*
X54023810Y-63309523D01*
X53976190Y-63261904D01*
X53880952Y-63214285D01*
X159357143Y-97142857D02*
X159404762Y-97190476D01*
X159452381Y-97333333D01*
X159452381Y-97428571D01*
X159404762Y-97571429D01*
X159309524Y-97666667D01*
X159214286Y-97714286D01*
X159023810Y-97761905D01*
X158880952Y-97761905D01*
X158690476Y-97714286D01*
X158595238Y-97666667D01*
X158500000Y-97571429D01*
X158452381Y-97428571D01*
X158452381Y-97333333D01*
X158500000Y-97190476D01*
X158547619Y-97142857D01*
X159452381Y-96190476D02*
X159452381Y-96761905D01*
X159452381Y-96476191D02*
X158452381Y-96476191D01*
X158595238Y-96571429D01*
X158690476Y-96666667D01*
X158738095Y-96761905D01*
X158452381Y-95571429D02*
X158452381Y-95476190D01*
X158500000Y-95380952D01*
X158547619Y-95333333D01*
X158642857Y-95285714D01*
X158833333Y-95238095D01*
X159071429Y-95238095D01*
X159261905Y-95285714D01*
X159357143Y-95333333D01*
X159404762Y-95380952D01*
X159452381Y-95476190D01*
X159452381Y-95571429D01*
X159404762Y-95666667D01*
X159357143Y-95714286D01*
X159261905Y-95761905D01*
X159071429Y-95809524D01*
X158833333Y-95809524D01*
X158642857Y-95761905D01*
X158547619Y-95714286D01*
X158500000Y-95666667D01*
X158452381Y-95571429D01*
X162857143Y-118642857D02*
X162904762Y-118690476D01*
X162952381Y-118833333D01*
X162952381Y-118928571D01*
X162904762Y-119071429D01*
X162809524Y-119166667D01*
X162714286Y-119214286D01*
X162523810Y-119261905D01*
X162380952Y-119261905D01*
X162190476Y-119214286D01*
X162095238Y-119166667D01*
X162000000Y-119071429D01*
X161952381Y-118928571D01*
X161952381Y-118833333D01*
X162000000Y-118690476D01*
X162047619Y-118642857D01*
X162952381Y-117690476D02*
X162952381Y-118261905D01*
X162952381Y-117976191D02*
X161952381Y-117976191D01*
X162095238Y-118071429D01*
X162190476Y-118166667D01*
X162238095Y-118261905D01*
X162952381Y-116738095D02*
X162952381Y-117309524D01*
X162952381Y-117023810D02*
X161952381Y-117023810D01*
X162095238Y-117119048D01*
X162190476Y-117214286D01*
X162238095Y-117309524D01*
X194357143Y-97142857D02*
X194404762Y-97190476D01*
X194452381Y-97333333D01*
X194452381Y-97428571D01*
X194404762Y-97571429D01*
X194309524Y-97666667D01*
X194214286Y-97714286D01*
X194023810Y-97761905D01*
X193880952Y-97761905D01*
X193690476Y-97714286D01*
X193595238Y-97666667D01*
X193500000Y-97571429D01*
X193452381Y-97428571D01*
X193452381Y-97333333D01*
X193500000Y-97190476D01*
X193547619Y-97142857D01*
X194452381Y-96190476D02*
X194452381Y-96761905D01*
X194452381Y-96476191D02*
X193452381Y-96476191D01*
X193595238Y-96571429D01*
X193690476Y-96666667D01*
X193738095Y-96761905D01*
X193547619Y-95809524D02*
X193500000Y-95761905D01*
X193452381Y-95666667D01*
X193452381Y-95428571D01*
X193500000Y-95333333D01*
X193547619Y-95285714D01*
X193642857Y-95238095D01*
X193738095Y-95238095D01*
X193880952Y-95285714D01*
X194452381Y-95857143D01*
X194452381Y-95238095D01*
X124857143Y-118142857D02*
X124904762Y-118190476D01*
X124952381Y-118333333D01*
X124952381Y-118428571D01*
X124904762Y-118571429D01*
X124809524Y-118666667D01*
X124714286Y-118714286D01*
X124523810Y-118761905D01*
X124380952Y-118761905D01*
X124190476Y-118714286D01*
X124095238Y-118666667D01*
X124000000Y-118571429D01*
X123952381Y-118428571D01*
X123952381Y-118333333D01*
X124000000Y-118190476D01*
X124047619Y-118142857D01*
X124952381Y-117190476D02*
X124952381Y-117761905D01*
X124952381Y-117476191D02*
X123952381Y-117476191D01*
X124095238Y-117571429D01*
X124190476Y-117666667D01*
X124238095Y-117761905D01*
X123952381Y-116857143D02*
X123952381Y-116238095D01*
X124333333Y-116571429D01*
X124333333Y-116428571D01*
X124380952Y-116333333D01*
X124428571Y-116285714D01*
X124523810Y-116238095D01*
X124761905Y-116238095D01*
X124857143Y-116285714D01*
X124904762Y-116333333D01*
X124952381Y-116428571D01*
X124952381Y-116714286D01*
X124904762Y-116809524D01*
X124857143Y-116857143D01*
X53666667Y-126282381D02*
X53666667Y-126996667D01*
X53619047Y-127139524D01*
X53523809Y-127234762D01*
X53380952Y-127282381D01*
X53285714Y-127282381D01*
X54666667Y-127282381D02*
X54095238Y-127282381D01*
X54380952Y-127282381D02*
X54380952Y-126282381D01*
X54285714Y-126425238D01*
X54190476Y-126520476D01*
X54095238Y-126568095D01*
X67452381Y-69261905D02*
X68261905Y-69261905D01*
X68357143Y-69214286D01*
X68404762Y-69166667D01*
X68452381Y-69071429D01*
X68452381Y-68880952D01*
X68404762Y-68785714D01*
X68357143Y-68738095D01*
X68261905Y-68690476D01*
X67452381Y-68690476D01*
X68452381Y-67690476D02*
X68452381Y-68261905D01*
X68452381Y-67976191D02*
X67452381Y-67976191D01*
X67595238Y-68071429D01*
X67690476Y-68166667D01*
X67738095Y-68261905D01*
X67452381Y-91761905D02*
X68261905Y-91761905D01*
X68357143Y-91714286D01*
X68404762Y-91666667D01*
X68452381Y-91571429D01*
X68452381Y-91380952D01*
X68404762Y-91285714D01*
X68357143Y-91238095D01*
X68261905Y-91190476D01*
X67452381Y-91190476D01*
X67547619Y-90761905D02*
X67500000Y-90714286D01*
X67452381Y-90619048D01*
X67452381Y-90380952D01*
X67500000Y-90285714D01*
X67547619Y-90238095D01*
X67642857Y-90190476D01*
X67738095Y-90190476D01*
X67880952Y-90238095D01*
X68452381Y-90809524D01*
X68452381Y-90190476D01*
X102952381Y-69261905D02*
X103761905Y-69261905D01*
X103857143Y-69214286D01*
X103904762Y-69166667D01*
X103952381Y-69071429D01*
X103952381Y-68880952D01*
X103904762Y-68785714D01*
X103857143Y-68738095D01*
X103761905Y-68690476D01*
X102952381Y-68690476D01*
X102952381Y-68309524D02*
X102952381Y-67690476D01*
X103333333Y-68023810D01*
X103333333Y-67880952D01*
X103380952Y-67785714D01*
X103428571Y-67738095D01*
X103523810Y-67690476D01*
X103761905Y-67690476D01*
X103857143Y-67738095D01*
X103904762Y-67785714D01*
X103952381Y-67880952D01*
X103952381Y-68166667D01*
X103904762Y-68261905D01*
X103857143Y-68309524D01*
X102952381Y-91761905D02*
X103761905Y-91761905D01*
X103857143Y-91714286D01*
X103904762Y-91666667D01*
X103952381Y-91571429D01*
X103952381Y-91380952D01*
X103904762Y-91285714D01*
X103857143Y-91238095D01*
X103761905Y-91190476D01*
X102952381Y-91190476D01*
X103285714Y-90285714D02*
X103952381Y-90285714D01*
X102904762Y-90523810D02*
X103619048Y-90761905D01*
X103619048Y-90142857D01*
X141952381Y-64761905D02*
X142761905Y-64761905D01*
X142857143Y-64714286D01*
X142904762Y-64666667D01*
X142952381Y-64571429D01*
X142952381Y-64380952D01*
X142904762Y-64285714D01*
X142857143Y-64238095D01*
X142761905Y-64190476D01*
X141952381Y-64190476D01*
X141952381Y-63238095D02*
X141952381Y-63714286D01*
X142428571Y-63761905D01*
X142380952Y-63714286D01*
X142333333Y-63619048D01*
X142333333Y-63380952D01*
X142380952Y-63285714D01*
X142428571Y-63238095D01*
X142523810Y-63190476D01*
X142761905Y-63190476D01*
X142857143Y-63238095D01*
X142904762Y-63285714D01*
X142952381Y-63380952D01*
X142952381Y-63619048D01*
X142904762Y-63714286D01*
X142857143Y-63761905D01*
X175952381Y-64261905D02*
X176761905Y-64261905D01*
X176857143Y-64214286D01*
X176904762Y-64166667D01*
X176952381Y-64071429D01*
X176952381Y-63880952D01*
X176904762Y-63785714D01*
X176857143Y-63738095D01*
X176761905Y-63690476D01*
X175952381Y-63690476D01*
X175952381Y-63309524D02*
X175952381Y-62642857D01*
X176952381Y-63071429D01*
X72952381Y-113761905D02*
X73761905Y-113761905D01*
X73857143Y-113714286D01*
X73904762Y-113666667D01*
X73952381Y-113571429D01*
X73952381Y-113380952D01*
X73904762Y-113285714D01*
X73857143Y-113238095D01*
X73761905Y-113190476D01*
X72952381Y-113190476D01*
X73952381Y-112666667D02*
X73952381Y-112476191D01*
X73904762Y-112380952D01*
X73857143Y-112333333D01*
X73714286Y-112238095D01*
X73523810Y-112190476D01*
X73142857Y-112190476D01*
X73047619Y-112238095D01*
X73000000Y-112285714D01*
X72952381Y-112380952D01*
X72952381Y-112571429D01*
X73000000Y-112666667D01*
X73047619Y-112714286D01*
X73142857Y-112761905D01*
X73380952Y-112761905D01*
X73476190Y-112714286D01*
X73523810Y-112666667D01*
X73571429Y-112571429D01*
X73571429Y-112380952D01*
X73523810Y-112285714D01*
X73476190Y-112238095D01*
X73380952Y-112190476D01*
X141452381Y-102738095D02*
X142261905Y-102738095D01*
X142357143Y-102690476D01*
X142404762Y-102642857D01*
X142452381Y-102547619D01*
X142452381Y-102357142D01*
X142404762Y-102261904D01*
X142357143Y-102214285D01*
X142261905Y-102166666D01*
X141452381Y-102166666D01*
X142452381Y-101166666D02*
X142452381Y-101738095D01*
X142452381Y-101452381D02*
X141452381Y-101452381D01*
X141595238Y-101547619D01*
X141690476Y-101642857D01*
X141738095Y-101738095D01*
X141452381Y-100547619D02*
X141452381Y-100452380D01*
X141500000Y-100357142D01*
X141547619Y-100309523D01*
X141642857Y-100261904D01*
X141833333Y-100214285D01*
X142071429Y-100214285D01*
X142261905Y-100261904D01*
X142357143Y-100309523D01*
X142404762Y-100357142D01*
X142452381Y-100452380D01*
X142452381Y-100547619D01*
X142404762Y-100642857D01*
X142357143Y-100690476D01*
X142261905Y-100738095D01*
X142071429Y-100785714D01*
X141833333Y-100785714D01*
X141642857Y-100738095D01*
X141547619Y-100690476D01*
X141500000Y-100642857D01*
X141452381Y-100547619D01*
X176452381Y-102238095D02*
X177261905Y-102238095D01*
X177357143Y-102190476D01*
X177404762Y-102142857D01*
X177452381Y-102047619D01*
X177452381Y-101857142D01*
X177404762Y-101761904D01*
X177357143Y-101714285D01*
X177261905Y-101666666D01*
X176452381Y-101666666D01*
X177452381Y-100666666D02*
X177452381Y-101238095D01*
X177452381Y-100952381D02*
X176452381Y-100952381D01*
X176595238Y-101047619D01*
X176690476Y-101142857D01*
X176738095Y-101238095D01*
X176547619Y-100285714D02*
X176500000Y-100238095D01*
X176452381Y-100142857D01*
X176452381Y-99904761D01*
X176500000Y-99809523D01*
X176547619Y-99761904D01*
X176642857Y-99714285D01*
X176738095Y-99714285D01*
X176880952Y-99761904D01*
X177452381Y-100333333D01*
X177452381Y-99714285D01*
X119297143Y-113642857D02*
X119344762Y-113690476D01*
X119392381Y-113833333D01*
X119392381Y-113928571D01*
X119344762Y-114071429D01*
X119249524Y-114166667D01*
X119154286Y-114214286D01*
X118963810Y-114261905D01*
X118820952Y-114261905D01*
X118630476Y-114214286D01*
X118535238Y-114166667D01*
X118440000Y-114071429D01*
X118392381Y-113928571D01*
X118392381Y-113833333D01*
X118440000Y-113690476D01*
X118487619Y-113642857D01*
X119392381Y-112690476D02*
X119392381Y-113261905D01*
X119392381Y-112976191D02*
X118392381Y-112976191D01*
X118535238Y-113071429D01*
X118630476Y-113166667D01*
X118678095Y-113261905D01*
X118725714Y-111833333D02*
X119392381Y-111833333D01*
X118344762Y-112071429D02*
X119059048Y-112309524D01*
X119059048Y-111690476D01*
X102607143Y-122547143D02*
X102559524Y-122594762D01*
X102416667Y-122642381D01*
X102321429Y-122642381D01*
X102178571Y-122594762D01*
X102083333Y-122499524D01*
X102035714Y-122404286D01*
X101988095Y-122213810D01*
X101988095Y-122070952D01*
X102035714Y-121880476D01*
X102083333Y-121785238D01*
X102178571Y-121690000D01*
X102321429Y-121642381D01*
X102416667Y-121642381D01*
X102559524Y-121690000D01*
X102607143Y-121737619D01*
X103559524Y-122642381D02*
X102988095Y-122642381D01*
X103273809Y-122642381D02*
X103273809Y-121642381D01*
X103178571Y-121785238D01*
X103083333Y-121880476D01*
X102988095Y-121928095D01*
X104464286Y-121642381D02*
X103988095Y-121642381D01*
X103940476Y-122118571D01*
X103988095Y-122070952D01*
X104083333Y-122023333D01*
X104321429Y-122023333D01*
X104416667Y-122070952D01*
X104464286Y-122118571D01*
X104511905Y-122213810D01*
X104511905Y-122451905D01*
X104464286Y-122547143D01*
X104416667Y-122594762D01*
X104321429Y-122642381D01*
X104083333Y-122642381D01*
X103988095Y-122594762D01*
X103940476Y-122547143D01*
X68682381Y-39178333D02*
X69396667Y-39178333D01*
X69539524Y-39225953D01*
X69634762Y-39321191D01*
X69682381Y-39464048D01*
X69682381Y-39559286D01*
X68682381Y-38273571D02*
X68682381Y-38464048D01*
X68730000Y-38559286D01*
X68777619Y-38606905D01*
X68920476Y-38702143D01*
X69110952Y-38749762D01*
X69491905Y-38749762D01*
X69587143Y-38702143D01*
X69634762Y-38654524D01*
X69682381Y-38559286D01*
X69682381Y-38368809D01*
X69634762Y-38273571D01*
X69587143Y-38225952D01*
X69491905Y-38178333D01*
X69253810Y-38178333D01*
X69158571Y-38225952D01*
X69110952Y-38273571D01*
X69063333Y-38368809D01*
X69063333Y-38559286D01*
X69110952Y-38654524D01*
X69158571Y-38702143D01*
X69253810Y-38749762D01*
X98122381Y-138063333D02*
X98836667Y-138063333D01*
X98979524Y-138110953D01*
X99074762Y-138206191D01*
X99122381Y-138349048D01*
X99122381Y-138444286D01*
X98122381Y-137682381D02*
X98122381Y-137015714D01*
X99122381Y-137444286D01*
X132682381Y-39154523D02*
X133396667Y-39154523D01*
X133539524Y-39202143D01*
X133634762Y-39297381D01*
X133682381Y-39440238D01*
X133682381Y-39535476D01*
X133682381Y-38154523D02*
X133682381Y-38725952D01*
X133682381Y-38440238D02*
X132682381Y-38440238D01*
X132825238Y-38535476D01*
X132920476Y-38630714D01*
X132968095Y-38725952D01*
X133682381Y-37202142D02*
X133682381Y-37773571D01*
X133682381Y-37487857D02*
X132682381Y-37487857D01*
X132825238Y-37583095D01*
X132920476Y-37678333D01*
X132968095Y-37773571D01*
X118282381Y-113571905D02*
X119091905Y-113571905D01*
X119187143Y-113524286D01*
X119234762Y-113476667D01*
X119282381Y-113381429D01*
X119282381Y-113190952D01*
X119234762Y-113095714D01*
X119187143Y-113048095D01*
X119091905Y-113000476D01*
X118282381Y-113000476D01*
X118282381Y-112095714D02*
X118282381Y-112286191D01*
X118330000Y-112381429D01*
X118377619Y-112429048D01*
X118520476Y-112524286D01*
X118710952Y-112571905D01*
X119091905Y-112571905D01*
X119187143Y-112524286D01*
X119234762Y-112476667D01*
X119282381Y-112381429D01*
X119282381Y-112190952D01*
X119234762Y-112095714D01*
X119187143Y-112048095D01*
X119091905Y-112000476D01*
X118853810Y-112000476D01*
X118758571Y-112048095D01*
X118710952Y-112095714D01*
X118663333Y-112190952D01*
X118663333Y-112381429D01*
X118710952Y-112476667D01*
X118758571Y-112524286D01*
X118853810Y-112571905D01*
X127622381Y-83451905D02*
X128431905Y-83451905D01*
X128527143Y-83404286D01*
X128574762Y-83356667D01*
X128622381Y-83261429D01*
X128622381Y-83070952D01*
X128574762Y-82975714D01*
X128527143Y-82928095D01*
X128431905Y-82880476D01*
X127622381Y-82880476D01*
X128050952Y-82261429D02*
X128003333Y-82356667D01*
X127955714Y-82404286D01*
X127860476Y-82451905D01*
X127812857Y-82451905D01*
X127717619Y-82404286D01*
X127670000Y-82356667D01*
X127622381Y-82261429D01*
X127622381Y-82070952D01*
X127670000Y-81975714D01*
X127717619Y-81928095D01*
X127812857Y-81880476D01*
X127860476Y-81880476D01*
X127955714Y-81928095D01*
X128003333Y-81975714D01*
X128050952Y-82070952D01*
X128050952Y-82261429D01*
X128098571Y-82356667D01*
X128146190Y-82404286D01*
X128241429Y-82451905D01*
X128431905Y-82451905D01*
X128527143Y-82404286D01*
X128574762Y-82356667D01*
X128622381Y-82261429D01*
X128622381Y-82070952D01*
X128574762Y-81975714D01*
X128527143Y-81928095D01*
X128431905Y-81880476D01*
X128241429Y-81880476D01*
X128146190Y-81928095D01*
X128098571Y-81975714D01*
X128050952Y-82070952D01*
X165122381Y-83428095D02*
X165931905Y-83428095D01*
X166027143Y-83380476D01*
X166074762Y-83332857D01*
X166122381Y-83237619D01*
X166122381Y-83047142D01*
X166074762Y-82951904D01*
X166027143Y-82904285D01*
X165931905Y-82856666D01*
X165122381Y-82856666D01*
X166122381Y-81856666D02*
X166122381Y-82428095D01*
X166122381Y-82142381D02*
X165122381Y-82142381D01*
X165265238Y-82237619D01*
X165360476Y-82332857D01*
X165408095Y-82428095D01*
X166122381Y-80904285D02*
X166122381Y-81475714D01*
X166122381Y-81190000D02*
X165122381Y-81190000D01*
X165265238Y-81285238D01*
X165360476Y-81380476D01*
X165408095Y-81475714D01*
X127622381Y-124428095D02*
X128431905Y-124428095D01*
X128527143Y-124380476D01*
X128574762Y-124332857D01*
X128622381Y-124237619D01*
X128622381Y-124047142D01*
X128574762Y-123951904D01*
X128527143Y-123904285D01*
X128431905Y-123856666D01*
X127622381Y-123856666D01*
X128622381Y-122856666D02*
X128622381Y-123428095D01*
X128622381Y-123142381D02*
X127622381Y-123142381D01*
X127765238Y-123237619D01*
X127860476Y-123332857D01*
X127908095Y-123428095D01*
X127622381Y-122523333D02*
X127622381Y-121904285D01*
X128003333Y-122237619D01*
X128003333Y-122094761D01*
X128050952Y-121999523D01*
X128098571Y-121951904D01*
X128193810Y-121904285D01*
X128431905Y-121904285D01*
X128527143Y-121951904D01*
X128574762Y-121999523D01*
X128622381Y-122094761D01*
X128622381Y-122380476D01*
X128574762Y-122475714D01*
X128527143Y-122523333D01*
X165122381Y-123928095D02*
X165931905Y-123928095D01*
X166027143Y-123880476D01*
X166074762Y-123832857D01*
X166122381Y-123737619D01*
X166122381Y-123547142D01*
X166074762Y-123451904D01*
X166027143Y-123404285D01*
X165931905Y-123356666D01*
X165122381Y-123356666D01*
X166122381Y-122356666D02*
X166122381Y-122928095D01*
X166122381Y-122642381D02*
X165122381Y-122642381D01*
X165265238Y-122737619D01*
X165360476Y-122832857D01*
X165408095Y-122928095D01*
X165455714Y-121499523D02*
X166122381Y-121499523D01*
X165074762Y-121737619D02*
X165789048Y-121975714D01*
X165789048Y-121356666D01*
M02*
