G04 #@! TF.FileFunction,Copper,L2,Bot,Signal*
%FSLAX46Y46*%
G04 Gerber Fmt 4.6, Leading zero omitted, Abs format (unit mm)*
G04 Created by KiCad (PCBNEW 4.0.7) date 10/14/18 11:55:26*
%MOMM*%
%LPD*%
G01*
G04 APERTURE LIST*
%ADD10C,0.100000*%
%ADD11C,1.524000*%
%ADD12C,1.600000*%
%ADD13R,1.600000X1.600000*%
%ADD14O,1.600000X1.600000*%
%ADD15R,1.700000X1.700000*%
%ADD16O,1.700000X1.700000*%
%ADD17C,0.600000*%
%ADD18C,0.500000*%
%ADD19C,0.250000*%
%ADD20C,0.254000*%
G04 APERTURE END LIST*
D10*
D11*
X120500000Y-75270000D03*
D12*
X73000000Y-46500000D03*
X73000000Y-51500000D03*
X59500000Y-68500000D03*
X59500000Y-73500000D03*
X72000000Y-34500000D03*
X72000000Y-39500000D03*
X72500000Y-58000000D03*
X72500000Y-63000000D03*
X101500000Y-67500000D03*
X101500000Y-72500000D03*
X85500000Y-68500000D03*
X85500000Y-73500000D03*
X102500000Y-33000000D03*
X107500000Y-33000000D03*
D13*
X53500000Y-35500000D03*
D14*
X68740000Y-63440000D03*
X53500000Y-38040000D03*
X68740000Y-60900000D03*
X53500000Y-40580000D03*
X68740000Y-58360000D03*
X53500000Y-43120000D03*
X68740000Y-55820000D03*
X53500000Y-45660000D03*
X68740000Y-53280000D03*
X53500000Y-48200000D03*
X68740000Y-50740000D03*
X53500000Y-50740000D03*
X68740000Y-48200000D03*
X53500000Y-53280000D03*
X68740000Y-45660000D03*
X53500000Y-55820000D03*
X68740000Y-43120000D03*
X53500000Y-58360000D03*
X68740000Y-40580000D03*
X53500000Y-60900000D03*
X68740000Y-38040000D03*
X53500000Y-63440000D03*
X68740000Y-35500000D03*
D15*
X99000000Y-52000000D03*
D16*
X99000000Y-49460000D03*
X99000000Y-46920000D03*
D13*
X76000000Y-40500000D03*
D14*
X98860000Y-32880000D03*
X78540000Y-40500000D03*
X96320000Y-32880000D03*
X81080000Y-40500000D03*
X93780000Y-32880000D03*
X83620000Y-40500000D03*
X91240000Y-32880000D03*
X86160000Y-40500000D03*
X88700000Y-32880000D03*
X88700000Y-40500000D03*
X86160000Y-32880000D03*
X91240000Y-40500000D03*
X83620000Y-32880000D03*
X93780000Y-40500000D03*
X81080000Y-32880000D03*
X96320000Y-40500000D03*
X78540000Y-32880000D03*
X98860000Y-40500000D03*
X76000000Y-32880000D03*
D13*
X76500000Y-64000000D03*
D14*
X99360000Y-56380000D03*
X79040000Y-64000000D03*
X96820000Y-56380000D03*
X81580000Y-64000000D03*
X94280000Y-56380000D03*
X84120000Y-64000000D03*
X91740000Y-56380000D03*
X86660000Y-64000000D03*
X89200000Y-56380000D03*
X89200000Y-64000000D03*
X86660000Y-56380000D03*
X91740000Y-64000000D03*
X84120000Y-56380000D03*
X94280000Y-64000000D03*
X81580000Y-56380000D03*
X96820000Y-64000000D03*
X79040000Y-56380000D03*
X99360000Y-64000000D03*
X76500000Y-56380000D03*
D13*
X77500000Y-52500000D03*
D14*
X92740000Y-44880000D03*
X80040000Y-52500000D03*
X90200000Y-44880000D03*
X82580000Y-52500000D03*
X87660000Y-44880000D03*
X85120000Y-52500000D03*
X85120000Y-44880000D03*
X87660000Y-52500000D03*
X82580000Y-44880000D03*
X90200000Y-52500000D03*
X80040000Y-44880000D03*
X92740000Y-52500000D03*
X77500000Y-44880000D03*
D13*
X89500000Y-75000000D03*
D14*
X97120000Y-67380000D03*
X92040000Y-75000000D03*
X94580000Y-67380000D03*
X94580000Y-75000000D03*
X92040000Y-67380000D03*
X97120000Y-75000000D03*
X89500000Y-67380000D03*
D13*
X103500000Y-37000000D03*
D14*
X118740000Y-64940000D03*
X103500000Y-39540000D03*
X118740000Y-62400000D03*
X103500000Y-42080000D03*
X118740000Y-59860000D03*
X103500000Y-44620000D03*
X118740000Y-57320000D03*
X103500000Y-47160000D03*
X118740000Y-54780000D03*
X103500000Y-49700000D03*
X118740000Y-52240000D03*
X103500000Y-52240000D03*
X118740000Y-49700000D03*
X103500000Y-54780000D03*
X118740000Y-47160000D03*
X103500000Y-57320000D03*
X118740000Y-44620000D03*
X103500000Y-59860000D03*
X118740000Y-42080000D03*
X103500000Y-62400000D03*
X118740000Y-39540000D03*
X103500000Y-64940000D03*
X118740000Y-37000000D03*
D15*
X105000000Y-74500000D03*
D16*
X107540000Y-74500000D03*
X110080000Y-74500000D03*
X112620000Y-74500000D03*
X115160000Y-74500000D03*
X117700000Y-74500000D03*
D15*
X119500000Y-71000000D03*
D16*
X119500000Y-68460000D03*
D12*
X110000000Y-33000000D03*
D14*
X120160000Y-33000000D03*
D12*
X116000000Y-69000000D03*
D14*
X105840000Y-69000000D03*
D13*
X63500000Y-75000000D03*
D14*
X78740000Y-67380000D03*
X66040000Y-75000000D03*
X76200000Y-67380000D03*
X68580000Y-75000000D03*
X73660000Y-67380000D03*
X71120000Y-75000000D03*
X71120000Y-67380000D03*
X73660000Y-75000000D03*
X68580000Y-67380000D03*
X76200000Y-75000000D03*
X66040000Y-67380000D03*
X78740000Y-75000000D03*
X63500000Y-67380000D03*
D11*
X54500000Y-71270000D03*
D17*
X88175300Y-59785800D03*
X112622700Y-45279800D03*
X71588300Y-61830800D03*
X80855900Y-59144500D03*
X74038000Y-62474400D03*
X73848900Y-64643700D03*
X83066400Y-61420200D03*
X67946900Y-54635700D03*
X113396900Y-52666200D03*
D18*
X105840000Y-69000000D02*
X104589700Y-69000000D01*
X103500000Y-39540000D02*
X103500000Y-40790300D01*
X102956100Y-40790300D02*
X103500000Y-40790300D01*
X101349100Y-42397300D02*
X102956100Y-40790300D01*
X101349100Y-64622900D02*
X101349100Y-42397300D01*
X104589700Y-67863500D02*
X101349100Y-64622900D01*
X104589700Y-69000000D02*
X104589700Y-67863500D01*
X76000000Y-32880000D02*
X76000000Y-33505100D01*
X76500000Y-56380000D02*
X74268700Y-56380000D01*
X74120000Y-56380000D02*
X72500000Y-58000000D01*
X74268700Y-56380000D02*
X74120000Y-56380000D01*
X76878400Y-43629700D02*
X77500000Y-43629700D01*
X74737900Y-41489200D02*
X76878400Y-43629700D01*
X74737900Y-34500000D02*
X74737900Y-41489200D01*
X72000000Y-34500000D02*
X74737900Y-34500000D01*
X75005100Y-34500000D02*
X76000000Y-33505100D01*
X74737900Y-34500000D02*
X75005100Y-34500000D01*
X77500000Y-44880000D02*
X77500000Y-44254800D01*
X77500000Y-44254800D02*
X77500000Y-43629700D01*
X74268700Y-56380000D02*
X74268700Y-47400100D01*
X74354700Y-47400100D02*
X74268700Y-47400100D01*
X77500000Y-44254800D02*
X74354700Y-47400100D01*
X73900100Y-47400100D02*
X73000000Y-46500000D01*
X74268700Y-47400100D02*
X73900100Y-47400100D01*
X76200000Y-67380000D02*
X76200000Y-66129700D01*
X78740000Y-71170300D02*
X76200000Y-68630300D01*
X78740000Y-75000000D02*
X78740000Y-71170300D01*
X76200000Y-67380000D02*
X76200000Y-68630300D01*
X105000000Y-74500000D02*
X103699700Y-74500000D01*
X101699700Y-72500000D02*
X103699700Y-74500000D01*
X101500000Y-72500000D02*
X101699700Y-72500000D01*
X98860000Y-36640000D02*
X98860000Y-40500000D01*
X102500000Y-33000000D02*
X98860000Y-36640000D01*
X92740000Y-53125100D02*
X92740000Y-53750300D01*
X92740000Y-53125100D02*
X92740000Y-52500000D01*
X98860000Y-42907000D02*
X98860000Y-40500000D01*
X92740000Y-49027000D02*
X98860000Y-42907000D01*
X92740000Y-52500000D02*
X92740000Y-49027000D01*
X76500000Y-65829700D02*
X76500000Y-64000000D01*
X76200000Y-66129700D02*
X76500000Y-65829700D01*
X80310000Y-54020300D02*
X80040000Y-53750300D01*
X80310000Y-58590900D02*
X80310000Y-54020300D01*
X76500000Y-62400900D02*
X80310000Y-58590900D01*
X76500000Y-62749700D02*
X76500000Y-62400900D01*
X76500000Y-64000000D02*
X76500000Y-62749700D01*
X80040000Y-52500000D02*
X80040000Y-53750300D01*
X93492900Y-53750300D02*
X92740000Y-53750300D01*
X95550000Y-55807400D02*
X93492900Y-53750300D01*
X95550000Y-65890300D02*
X95550000Y-55807400D01*
X95869600Y-66209900D02*
X95550000Y-65890300D01*
X95869600Y-67906300D02*
X95869600Y-66209900D01*
X97117700Y-69154400D02*
X95869600Y-67906300D01*
X99360000Y-66912100D02*
X99360000Y-64000000D01*
X97117700Y-69154400D02*
X99360000Y-66912100D01*
X72500000Y-64749700D02*
X71120000Y-66129700D01*
X72500000Y-63000000D02*
X72500000Y-64749700D01*
X71120000Y-67380000D02*
X71120000Y-66129700D01*
X67993500Y-66129700D02*
X71120000Y-66129700D01*
X67290300Y-66832900D02*
X67993500Y-66129700D01*
X67290300Y-67380000D02*
X67290300Y-66832900D01*
X66040000Y-67380000D02*
X67290300Y-67380000D01*
X97120000Y-75000000D02*
X97120000Y-73749700D01*
X97120000Y-73500000D02*
X85500000Y-73500000D01*
X97120000Y-73500000D02*
X97120000Y-73749700D01*
X98951100Y-71668900D02*
X97120000Y-73500000D01*
X100668900Y-71668900D02*
X98951100Y-71668900D01*
X101500000Y-72500000D02*
X100668900Y-71668900D01*
X97117700Y-69835500D02*
X97117700Y-69154400D01*
X98951100Y-71668900D02*
X97117700Y-69835500D01*
X53500000Y-35500000D02*
X54750300Y-35500000D01*
X71328100Y-39329700D02*
X71749200Y-39750800D01*
X58580000Y-39329700D02*
X71328100Y-39329700D01*
X54750300Y-35500000D02*
X58580000Y-39329700D01*
X71749200Y-50249200D02*
X71749200Y-39750800D01*
X73000000Y-51500000D02*
X71749200Y-50249200D01*
X71749200Y-39750800D02*
X72000000Y-39500000D01*
X106000000Y-37000000D02*
X103500000Y-37000000D01*
X110000000Y-33000000D02*
X106000000Y-37000000D01*
D19*
X91240000Y-40500000D02*
X91240000Y-32880000D01*
X91240000Y-32880000D02*
X92365300Y-32880000D01*
X118740000Y-64940000D02*
X118740000Y-63814700D01*
X92365300Y-32598700D02*
X92365300Y-32880000D01*
X94039300Y-30924700D02*
X92365300Y-32598700D01*
X109540400Y-30924700D02*
X94039300Y-30924700D01*
X111870900Y-33255200D02*
X109540400Y-30924700D01*
X111870900Y-54588400D02*
X111870900Y-33255200D01*
X118412500Y-61130000D02*
X111870900Y-54588400D01*
X119074900Y-61130000D02*
X118412500Y-61130000D01*
X119865300Y-61920400D02*
X119074900Y-61130000D01*
X119865300Y-62970800D02*
X119865300Y-61920400D01*
X119021400Y-63814700D02*
X119865300Y-62970800D01*
X118740000Y-63814700D02*
X119021400Y-63814700D01*
X93780000Y-40500000D02*
X93780000Y-32880000D01*
X104625400Y-48285400D02*
X118740000Y-62400000D01*
X104625400Y-39056300D02*
X104625400Y-48285400D01*
X103694500Y-38125400D02*
X104625400Y-39056300D01*
X102497600Y-38125400D02*
X103694500Y-38125400D01*
X102374600Y-38002400D02*
X102497600Y-38125400D01*
X102374600Y-35562500D02*
X102374600Y-38002400D01*
X104158100Y-33779000D02*
X102374600Y-35562500D01*
X104158100Y-32382500D02*
X104158100Y-33779000D01*
X103150700Y-31375100D02*
X104158100Y-32382500D01*
X96128900Y-31375100D02*
X103150700Y-31375100D01*
X94905300Y-32598700D02*
X96128900Y-31375100D01*
X94905300Y-32880000D02*
X94905300Y-32598700D01*
X93780000Y-32880000D02*
X94905300Y-32880000D01*
X96320000Y-32880000D02*
X96320000Y-40500000D01*
X118740000Y-59860000D02*
X118740000Y-58734700D01*
X112622700Y-52828400D02*
X112622700Y-45279800D01*
X118529000Y-58734700D02*
X112622700Y-52828400D01*
X118740000Y-58734700D02*
X118529000Y-58734700D01*
X90470000Y-57491100D02*
X88175300Y-59785800D01*
X90470000Y-54814800D02*
X90470000Y-57491100D01*
X91614600Y-53670200D02*
X90470000Y-54814800D01*
X91614600Y-48877200D02*
X91614600Y-53670200D01*
X96320000Y-44171800D02*
X91614600Y-48877200D01*
X96320000Y-40500000D02*
X96320000Y-44171800D01*
X69021400Y-51865300D02*
X68740000Y-51865300D01*
X69865300Y-52709200D02*
X69021400Y-51865300D01*
X69865300Y-60107800D02*
X69865300Y-52709200D01*
X71588300Y-61830800D02*
X69865300Y-60107800D01*
X68740000Y-50740000D02*
X68740000Y-51865300D01*
X84120000Y-64000000D02*
X84120000Y-62874700D01*
X83636600Y-62874700D02*
X84120000Y-62874700D01*
X80855900Y-60094000D02*
X83636600Y-62874700D01*
X80855900Y-59144500D02*
X80855900Y-60094000D01*
X78540000Y-32880000D02*
X78540000Y-40500000D01*
X68740000Y-45660000D02*
X68740000Y-46785300D01*
X70582900Y-59019300D02*
X74038000Y-62474400D01*
X70582900Y-48423700D02*
X70582900Y-59019300D01*
X68944500Y-46785300D02*
X70582900Y-48423700D01*
X68740000Y-46785300D02*
X68944500Y-46785300D01*
X81080000Y-32880000D02*
X81080000Y-40500000D01*
X69021300Y-44245300D02*
X68740000Y-44245300D01*
X71173300Y-46397300D02*
X69021300Y-44245300D01*
X71173300Y-58719600D02*
X71173300Y-46397300D01*
X74700700Y-62247000D02*
X71173300Y-58719600D01*
X74700700Y-63791900D02*
X74700700Y-62247000D01*
X73848900Y-64643700D02*
X74700700Y-63791900D01*
X68740000Y-43120000D02*
X68740000Y-44245300D01*
X83620000Y-40500000D02*
X83620000Y-32880000D01*
X53218600Y-57234700D02*
X53500000Y-57234700D01*
X52374700Y-56390800D02*
X53218600Y-57234700D01*
X52374700Y-34487200D02*
X52374700Y-56390800D01*
X55117000Y-31744900D02*
X52374700Y-34487200D01*
X81640900Y-31744900D02*
X55117000Y-31744900D01*
X82494700Y-32598700D02*
X81640900Y-31744900D01*
X82494700Y-32880000D02*
X82494700Y-32598700D01*
X83620000Y-32880000D02*
X82494700Y-32880000D01*
X53500000Y-58360000D02*
X53500000Y-57234700D01*
X118740000Y-42080000D02*
X118740000Y-40954700D01*
X120160000Y-39816000D02*
X120160000Y-34125300D01*
X119021300Y-40954700D02*
X120160000Y-39816000D01*
X118740000Y-40954700D02*
X119021300Y-40954700D01*
X120160000Y-33000000D02*
X120160000Y-34125300D01*
X86160000Y-32880000D02*
X86160000Y-40500000D01*
X86160000Y-40500000D02*
X86160000Y-41625300D01*
X82994700Y-61348500D02*
X83066400Y-61420200D01*
X82994700Y-55716500D02*
X82994700Y-61348500D01*
X83705400Y-55005800D02*
X82994700Y-55716500D01*
X83705400Y-48690000D02*
X83705400Y-55005800D01*
X86275000Y-46120400D02*
X83705400Y-48690000D01*
X86275000Y-41740300D02*
X86275000Y-46120400D01*
X86160000Y-41625300D02*
X86275000Y-41740300D01*
X87660000Y-44880000D02*
X87660000Y-46005300D01*
X101024300Y-31841000D02*
X99985300Y-32880000D01*
X102932700Y-31841000D02*
X101024300Y-31841000D01*
X103657900Y-32566200D02*
X102932700Y-31841000D01*
X103657900Y-33642300D02*
X103657900Y-32566200D01*
X100175300Y-37124900D02*
X103657900Y-33642300D01*
X100175300Y-44569400D02*
X100175300Y-37124900D01*
X99000000Y-45744700D02*
X100175300Y-44569400D01*
X99000000Y-46920000D02*
X99000000Y-45744700D01*
X98860000Y-32880000D02*
X99985300Y-32880000D01*
X85120000Y-48545300D02*
X87660000Y-46005300D01*
X85120000Y-52500000D02*
X85120000Y-48545300D01*
X53218700Y-62314700D02*
X53500000Y-62314700D01*
X51910300Y-61006300D02*
X53218700Y-62314700D01*
X51910300Y-34314700D02*
X51910300Y-61006300D01*
X54930500Y-31294500D02*
X51910300Y-34314700D01*
X86270500Y-31294500D02*
X54930500Y-31294500D01*
X87574700Y-32598700D02*
X86270500Y-31294500D01*
X87574700Y-32880000D02*
X87574700Y-32598700D01*
X88700000Y-32880000D02*
X87574700Y-32880000D01*
X53500000Y-63440000D02*
X53500000Y-62314700D01*
X88700000Y-40500000D02*
X88700000Y-32880000D01*
X118350600Y-73324700D02*
X117700000Y-73324700D01*
X119500000Y-72175300D02*
X118350600Y-73324700D01*
X119500000Y-71000000D02*
X119500000Y-72175300D01*
X117700000Y-74500000D02*
X117700000Y-73324700D01*
X63500000Y-75000000D02*
X63500000Y-73874700D01*
X53500000Y-48200000D02*
X53500000Y-49325300D01*
X64663900Y-57918700D02*
X67946900Y-54635700D01*
X62374700Y-57918700D02*
X64663900Y-57918700D01*
X62374700Y-72749400D02*
X62374700Y-57918700D01*
X63500000Y-73874700D02*
X62374700Y-72749400D01*
X53781300Y-49325300D02*
X53500000Y-49325300D01*
X62374700Y-57918700D02*
X53781300Y-49325300D01*
X97120000Y-67380000D02*
X97120000Y-66254700D01*
X99000000Y-52000000D02*
X99000000Y-53175300D01*
X97967400Y-54207900D02*
X99000000Y-53175300D01*
X97967400Y-65407300D02*
X97967400Y-54207900D01*
X97120000Y-66254700D02*
X97967400Y-65407300D01*
X78625400Y-49959900D02*
X82580000Y-46005300D01*
X78625400Y-54473400D02*
X78625400Y-49959900D01*
X77625400Y-55473400D02*
X78625400Y-54473400D01*
X77625400Y-58361900D02*
X77625400Y-55473400D01*
X75260900Y-60726400D02*
X77625400Y-58361900D01*
X75260900Y-64122200D02*
X75260900Y-60726400D01*
X72390000Y-66993100D02*
X75260900Y-64122200D01*
X72390000Y-67806000D02*
X72390000Y-66993100D01*
X66321300Y-73874700D02*
X72390000Y-67806000D01*
X66040000Y-73874700D02*
X66321300Y-73874700D01*
X66040000Y-75000000D02*
X66040000Y-73874700D01*
X82580000Y-44880000D02*
X82580000Y-46005300D01*
X77125300Y-40781400D02*
X77125300Y-40500000D01*
X77969200Y-41625300D02*
X77125300Y-40781400D01*
X81021400Y-41625300D02*
X77969200Y-41625300D01*
X83994700Y-44598600D02*
X81021400Y-41625300D01*
X83994700Y-44880000D02*
X83994700Y-44598600D01*
X85120000Y-44880000D02*
X83994700Y-44880000D01*
X76000000Y-40500000D02*
X77125300Y-40500000D01*
X118740000Y-44620000D02*
X118740000Y-45745300D01*
X118458700Y-45745300D02*
X118740000Y-45745300D01*
X113396900Y-50807100D02*
X118458700Y-45745300D01*
X113396900Y-52666200D02*
X113396900Y-50807100D01*
X103500000Y-42080000D02*
X103500000Y-43205300D01*
X107540000Y-62257700D02*
X107540000Y-74500000D01*
X104016900Y-58734600D02*
X107540000Y-62257700D01*
X103306200Y-58734600D02*
X104016900Y-58734600D01*
X101924400Y-57352800D02*
X103306200Y-58734600D01*
X101924400Y-44499500D02*
X101924400Y-57352800D01*
X103218600Y-43205300D02*
X101924400Y-44499500D01*
X103500000Y-43205300D02*
X103218600Y-43205300D01*
X103500000Y-44620000D02*
X103500000Y-45745300D01*
X110080000Y-74500000D02*
X110080000Y-73324700D01*
X110080000Y-62278800D02*
X110080000Y-73324700D01*
X103851200Y-56050000D02*
X110080000Y-62278800D01*
X103148100Y-56050000D02*
X103851200Y-56050000D01*
X102374700Y-55276600D02*
X103148100Y-56050000D01*
X102374700Y-46677800D02*
X102374700Y-55276600D01*
X103307200Y-45745300D02*
X102374700Y-46677800D01*
X103500000Y-45745300D02*
X103307200Y-45745300D01*
X103692800Y-48285300D02*
X103500000Y-48285300D01*
X112620000Y-57212500D02*
X103692800Y-48285300D01*
X112620000Y-74500000D02*
X112620000Y-57212500D01*
X103500000Y-47160000D02*
X103500000Y-48285300D01*
X119021300Y-55905300D02*
X118740000Y-55905300D01*
X120328000Y-57212000D02*
X119021300Y-55905300D01*
X120328000Y-65850300D02*
X120328000Y-57212000D01*
X117987000Y-68191300D02*
X120328000Y-65850300D01*
X117987000Y-70497700D02*
X117987000Y-68191300D01*
X115160000Y-73324700D02*
X117987000Y-70497700D01*
X115160000Y-74500000D02*
X115160000Y-73324700D01*
X118740000Y-54780000D02*
X118740000Y-55905300D01*
X84120000Y-56380000D02*
X84120000Y-55254700D01*
X86261200Y-49944100D02*
X90200000Y-46005300D01*
X86261200Y-53113500D02*
X86261200Y-49944100D01*
X84120000Y-55254700D02*
X86261200Y-53113500D01*
X90200000Y-44880000D02*
X90200000Y-46005300D01*
X85245300Y-58630600D02*
X84120000Y-57505300D01*
X85245300Y-65474800D02*
X85245300Y-58630600D01*
X83342500Y-67377600D02*
X85245300Y-65474800D01*
X83342500Y-72022800D02*
X83342500Y-67377600D01*
X79220900Y-76144400D02*
X83342500Y-72022800D01*
X75748700Y-76144400D02*
X79220900Y-76144400D01*
X74930000Y-75325700D02*
X75748700Y-76144400D01*
X74930000Y-74672500D02*
X74930000Y-75325700D01*
X74132100Y-73874600D02*
X74930000Y-74672500D01*
X70549400Y-73874600D02*
X74132100Y-73874600D01*
X69705300Y-74718700D02*
X70549400Y-73874600D01*
X69705300Y-75000000D02*
X69705300Y-74718700D01*
X68580000Y-75000000D02*
X69705300Y-75000000D01*
X84120000Y-56380000D02*
X84120000Y-57505300D01*
X87795000Y-53760300D02*
X87660000Y-53625300D01*
X87795000Y-57045200D02*
X87795000Y-53760300D01*
X87549900Y-57290300D02*
X87795000Y-57045200D01*
X87549900Y-62874600D02*
X87549900Y-57290300D01*
X87835000Y-63159700D02*
X87549900Y-62874600D01*
X87835000Y-68182500D02*
X87835000Y-63159700D01*
X79404900Y-76612600D02*
X87835000Y-68182500D01*
X73576600Y-76612600D02*
X79404900Y-76612600D01*
X72245300Y-75281300D02*
X73576600Y-76612600D01*
X72245300Y-75000000D02*
X72245300Y-75281300D01*
X71120000Y-75000000D02*
X72245300Y-75000000D01*
X87660000Y-52500000D02*
X87660000Y-53625300D01*
D20*
G36*
X121290000Y-76290000D02*
X97715074Y-76290000D01*
X97857423Y-76231041D01*
X98272389Y-75855134D01*
X98511914Y-75349041D01*
X98390629Y-75127000D01*
X97247000Y-75127000D01*
X97247000Y-75147000D01*
X96993000Y-75147000D01*
X96993000Y-75127000D01*
X96973000Y-75127000D01*
X96973000Y-74873000D01*
X96993000Y-74873000D01*
X96993000Y-73730085D01*
X97247000Y-73730085D01*
X97247000Y-74873000D01*
X98390629Y-74873000D01*
X98438287Y-74785750D01*
X103515000Y-74785750D01*
X103515000Y-75476309D01*
X103611673Y-75709698D01*
X103790301Y-75888327D01*
X104023690Y-75985000D01*
X104714250Y-75985000D01*
X104873000Y-75826250D01*
X104873000Y-74627000D01*
X103673750Y-74627000D01*
X103515000Y-74785750D01*
X98438287Y-74785750D01*
X98511914Y-74650959D01*
X98272389Y-74144866D01*
X97857423Y-73768959D01*
X97469039Y-73608096D01*
X97247000Y-73730085D01*
X96993000Y-73730085D01*
X96770961Y-73608096D01*
X96382577Y-73768959D01*
X95967611Y-74144866D01*
X95864986Y-74361703D01*
X95594698Y-73957189D01*
X95129151Y-73646120D01*
X94580000Y-73536887D01*
X94030849Y-73646120D01*
X93565302Y-73957189D01*
X93310000Y-74339275D01*
X93054698Y-73957189D01*
X92589151Y-73646120D01*
X92040000Y-73536887D01*
X91490849Y-73646120D01*
X91025302Y-73957189D01*
X90928899Y-74101465D01*
X90903162Y-73964683D01*
X90764090Y-73748559D01*
X90551890Y-73603569D01*
X90300000Y-73552560D01*
X88700000Y-73552560D01*
X88464683Y-73596838D01*
X88248559Y-73735910D01*
X88103569Y-73948110D01*
X88052560Y-74200000D01*
X88052560Y-75800000D01*
X88096838Y-76035317D01*
X88235910Y-76251441D01*
X88292343Y-76290000D01*
X80802302Y-76290000D01*
X82584557Y-74507745D01*
X84671861Y-74507745D01*
X84745995Y-74753864D01*
X85283223Y-74946965D01*
X85853454Y-74919778D01*
X86254005Y-74753864D01*
X86328139Y-74507745D01*
X85500000Y-73679605D01*
X84671861Y-74507745D01*
X82584557Y-74507745D01*
X84189927Y-72902375D01*
X84053035Y-73283223D01*
X84080222Y-73853454D01*
X84246136Y-74254005D01*
X84492255Y-74328139D01*
X85320395Y-73500000D01*
X85679605Y-73500000D01*
X86507745Y-74328139D01*
X86753864Y-74254005D01*
X86946965Y-73716777D01*
X86936999Y-73507745D01*
X100671861Y-73507745D01*
X100745995Y-73753864D01*
X101283223Y-73946965D01*
X101853454Y-73919778D01*
X102254005Y-73753864D01*
X102323335Y-73523691D01*
X103515000Y-73523691D01*
X103515000Y-74214250D01*
X103673750Y-74373000D01*
X104873000Y-74373000D01*
X104873000Y-73173750D01*
X104714250Y-73015000D01*
X104023690Y-73015000D01*
X103790301Y-73111673D01*
X103611673Y-73290302D01*
X103515000Y-73523691D01*
X102323335Y-73523691D01*
X102328139Y-73507745D01*
X101500000Y-72679605D01*
X100671861Y-73507745D01*
X86936999Y-73507745D01*
X86919778Y-73146546D01*
X86753864Y-72745995D01*
X86507745Y-72671861D01*
X85679605Y-73500000D01*
X85320395Y-73500000D01*
X85306252Y-73485858D01*
X85485858Y-73306252D01*
X85500000Y-73320395D01*
X86328139Y-72492255D01*
X86265177Y-72283223D01*
X100053035Y-72283223D01*
X100080222Y-72853454D01*
X100246136Y-73254005D01*
X100492255Y-73328139D01*
X101320395Y-72500000D01*
X101679605Y-72500000D01*
X102507745Y-73328139D01*
X102753864Y-73254005D01*
X102946965Y-72716777D01*
X102919778Y-72146546D01*
X102753864Y-71745995D01*
X102507745Y-71671861D01*
X101679605Y-72500000D01*
X101320395Y-72500000D01*
X100492255Y-71671861D01*
X100246136Y-71745995D01*
X100053035Y-72283223D01*
X86265177Y-72283223D01*
X86254005Y-72246136D01*
X85716777Y-72053035D01*
X85146546Y-72080222D01*
X84916998Y-72175304D01*
X85600047Y-71492255D01*
X100671861Y-71492255D01*
X101500000Y-72320395D01*
X102328139Y-71492255D01*
X102254005Y-71246136D01*
X101716777Y-71053035D01*
X101146546Y-71080222D01*
X100745995Y-71246136D01*
X100671861Y-71492255D01*
X85600047Y-71492255D01*
X88372401Y-68719901D01*
X88537148Y-68473339D01*
X88539937Y-68459317D01*
X88950849Y-68733880D01*
X89500000Y-68843113D01*
X90049151Y-68733880D01*
X90514698Y-68422811D01*
X90770000Y-68040725D01*
X91025302Y-68422811D01*
X91490849Y-68733880D01*
X92040000Y-68843113D01*
X92589151Y-68733880D01*
X93054698Y-68422811D01*
X93310000Y-68040725D01*
X93565302Y-68422811D01*
X94030849Y-68733880D01*
X94580000Y-68843113D01*
X95129151Y-68733880D01*
X95594698Y-68422811D01*
X95850000Y-68040725D01*
X96105302Y-68422811D01*
X96570849Y-68733880D01*
X97120000Y-68843113D01*
X97669151Y-68733880D01*
X98134698Y-68422811D01*
X98445767Y-67957264D01*
X98555000Y-67408113D01*
X98555000Y-67351887D01*
X98445767Y-66802736D01*
X98134698Y-66337189D01*
X98121279Y-66328223D01*
X98504801Y-65944701D01*
X98669548Y-65698139D01*
X98727400Y-65407300D01*
X98727400Y-65274457D01*
X99010961Y-65391904D01*
X99233000Y-65269915D01*
X99233000Y-64127000D01*
X99213000Y-64127000D01*
X99213000Y-63873000D01*
X99233000Y-63873000D01*
X99233000Y-62730085D01*
X99010961Y-62608096D01*
X98727400Y-62725543D01*
X98727400Y-57678121D01*
X98810849Y-57733880D01*
X99360000Y-57843113D01*
X99909151Y-57733880D01*
X100374698Y-57422811D01*
X100464100Y-57289012D01*
X100464100Y-63101122D01*
X100097423Y-62768959D01*
X99709039Y-62608096D01*
X99487000Y-62730085D01*
X99487000Y-63873000D01*
X99507000Y-63873000D01*
X99507000Y-64127000D01*
X99487000Y-64127000D01*
X99487000Y-65269915D01*
X99709039Y-65391904D01*
X100097423Y-65231041D01*
X100510614Y-64856742D01*
X100531467Y-64961575D01*
X100656133Y-65148152D01*
X100723310Y-65248690D01*
X101539655Y-66065035D01*
X101215813Y-66064752D01*
X100688200Y-66282757D01*
X100284176Y-66686077D01*
X100065250Y-67213309D01*
X100064752Y-67784187D01*
X100282757Y-68311800D01*
X100686077Y-68715824D01*
X101213309Y-68934750D01*
X101784187Y-68935248D01*
X102311800Y-68717243D01*
X102715824Y-68313923D01*
X102934750Y-67786691D01*
X102935035Y-67460414D01*
X103704700Y-68230079D01*
X103704700Y-69000000D01*
X103772067Y-69338675D01*
X103963910Y-69625790D01*
X104251025Y-69817633D01*
X104589700Y-69885000D01*
X104710527Y-69885000D01*
X104797189Y-70014698D01*
X105262736Y-70325767D01*
X105811887Y-70435000D01*
X105868113Y-70435000D01*
X106417264Y-70325767D01*
X106780000Y-70083394D01*
X106780000Y-73227046D01*
X106489946Y-73420853D01*
X106460597Y-73464777D01*
X106388327Y-73290302D01*
X106209699Y-73111673D01*
X105976310Y-73015000D01*
X105285750Y-73015000D01*
X105127000Y-73173750D01*
X105127000Y-74373000D01*
X105147000Y-74373000D01*
X105147000Y-74627000D01*
X105127000Y-74627000D01*
X105127000Y-75826250D01*
X105285750Y-75985000D01*
X105976310Y-75985000D01*
X106209699Y-75888327D01*
X106388327Y-75709698D01*
X106460597Y-75535223D01*
X106489946Y-75579147D01*
X106971715Y-75901054D01*
X107540000Y-76014093D01*
X108108285Y-75901054D01*
X108590054Y-75579147D01*
X108810000Y-75249974D01*
X109029946Y-75579147D01*
X109511715Y-75901054D01*
X110080000Y-76014093D01*
X110648285Y-75901054D01*
X111130054Y-75579147D01*
X111350000Y-75249974D01*
X111569946Y-75579147D01*
X112051715Y-75901054D01*
X112620000Y-76014093D01*
X113188285Y-75901054D01*
X113670054Y-75579147D01*
X113890000Y-75249974D01*
X114109946Y-75579147D01*
X114591715Y-75901054D01*
X115160000Y-76014093D01*
X115728285Y-75901054D01*
X116210054Y-75579147D01*
X116430000Y-75249974D01*
X116649946Y-75579147D01*
X117131715Y-75901054D01*
X117700000Y-76014093D01*
X118268285Y-75901054D01*
X118750054Y-75579147D01*
X119071961Y-75097378D01*
X119185000Y-74529093D01*
X119185000Y-74470907D01*
X119071961Y-73902622D01*
X118982047Y-73768055D01*
X120037401Y-72712701D01*
X120181233Y-72497440D01*
X120350000Y-72497440D01*
X120585317Y-72453162D01*
X120801441Y-72314090D01*
X120946431Y-72101890D01*
X120997440Y-71850000D01*
X120997440Y-70150000D01*
X120953162Y-69914683D01*
X120814090Y-69698559D01*
X120601890Y-69553569D01*
X120534459Y-69539914D01*
X120579147Y-69510054D01*
X120901054Y-69028285D01*
X121014093Y-68460000D01*
X120901054Y-67891715D01*
X120579147Y-67409946D01*
X120137952Y-67115150D01*
X120865401Y-66387701D01*
X121030148Y-66141139D01*
X121088000Y-65850300D01*
X121088000Y-57212000D01*
X121030148Y-56921161D01*
X120865401Y-56674599D01*
X119863997Y-55673195D01*
X120093880Y-55329151D01*
X120203113Y-54780000D01*
X120093880Y-54230849D01*
X119782811Y-53765302D01*
X119400725Y-53510000D01*
X119782811Y-53254698D01*
X120093880Y-52789151D01*
X120203113Y-52240000D01*
X120093880Y-51690849D01*
X119782811Y-51225302D01*
X119400725Y-50970000D01*
X119782811Y-50714698D01*
X120093880Y-50249151D01*
X120203113Y-49700000D01*
X120093880Y-49150849D01*
X119782811Y-48685302D01*
X119400725Y-48430000D01*
X119782811Y-48174698D01*
X120093880Y-47709151D01*
X120203113Y-47160000D01*
X120093880Y-46610849D01*
X119782811Y-46145302D01*
X119462947Y-45931576D01*
X119482022Y-45835679D01*
X119782811Y-45634698D01*
X120093880Y-45169151D01*
X120203113Y-44620000D01*
X120093880Y-44070849D01*
X119782811Y-43605302D01*
X119400725Y-43350000D01*
X119782811Y-43094698D01*
X120093880Y-42629151D01*
X120203113Y-42080000D01*
X120093880Y-41530849D01*
X119863997Y-41186805D01*
X120697401Y-40353401D01*
X120862148Y-40106839D01*
X120920000Y-39816000D01*
X120920000Y-34203667D01*
X121202811Y-34014698D01*
X121290000Y-33884211D01*
X121290000Y-76290000D01*
X121290000Y-76290000D01*
G37*
X121290000Y-76290000D02*
X97715074Y-76290000D01*
X97857423Y-76231041D01*
X98272389Y-75855134D01*
X98511914Y-75349041D01*
X98390629Y-75127000D01*
X97247000Y-75127000D01*
X97247000Y-75147000D01*
X96993000Y-75147000D01*
X96993000Y-75127000D01*
X96973000Y-75127000D01*
X96973000Y-74873000D01*
X96993000Y-74873000D01*
X96993000Y-73730085D01*
X97247000Y-73730085D01*
X97247000Y-74873000D01*
X98390629Y-74873000D01*
X98438287Y-74785750D01*
X103515000Y-74785750D01*
X103515000Y-75476309D01*
X103611673Y-75709698D01*
X103790301Y-75888327D01*
X104023690Y-75985000D01*
X104714250Y-75985000D01*
X104873000Y-75826250D01*
X104873000Y-74627000D01*
X103673750Y-74627000D01*
X103515000Y-74785750D01*
X98438287Y-74785750D01*
X98511914Y-74650959D01*
X98272389Y-74144866D01*
X97857423Y-73768959D01*
X97469039Y-73608096D01*
X97247000Y-73730085D01*
X96993000Y-73730085D01*
X96770961Y-73608096D01*
X96382577Y-73768959D01*
X95967611Y-74144866D01*
X95864986Y-74361703D01*
X95594698Y-73957189D01*
X95129151Y-73646120D01*
X94580000Y-73536887D01*
X94030849Y-73646120D01*
X93565302Y-73957189D01*
X93310000Y-74339275D01*
X93054698Y-73957189D01*
X92589151Y-73646120D01*
X92040000Y-73536887D01*
X91490849Y-73646120D01*
X91025302Y-73957189D01*
X90928899Y-74101465D01*
X90903162Y-73964683D01*
X90764090Y-73748559D01*
X90551890Y-73603569D01*
X90300000Y-73552560D01*
X88700000Y-73552560D01*
X88464683Y-73596838D01*
X88248559Y-73735910D01*
X88103569Y-73948110D01*
X88052560Y-74200000D01*
X88052560Y-75800000D01*
X88096838Y-76035317D01*
X88235910Y-76251441D01*
X88292343Y-76290000D01*
X80802302Y-76290000D01*
X82584557Y-74507745D01*
X84671861Y-74507745D01*
X84745995Y-74753864D01*
X85283223Y-74946965D01*
X85853454Y-74919778D01*
X86254005Y-74753864D01*
X86328139Y-74507745D01*
X85500000Y-73679605D01*
X84671861Y-74507745D01*
X82584557Y-74507745D01*
X84189927Y-72902375D01*
X84053035Y-73283223D01*
X84080222Y-73853454D01*
X84246136Y-74254005D01*
X84492255Y-74328139D01*
X85320395Y-73500000D01*
X85679605Y-73500000D01*
X86507745Y-74328139D01*
X86753864Y-74254005D01*
X86946965Y-73716777D01*
X86936999Y-73507745D01*
X100671861Y-73507745D01*
X100745995Y-73753864D01*
X101283223Y-73946965D01*
X101853454Y-73919778D01*
X102254005Y-73753864D01*
X102323335Y-73523691D01*
X103515000Y-73523691D01*
X103515000Y-74214250D01*
X103673750Y-74373000D01*
X104873000Y-74373000D01*
X104873000Y-73173750D01*
X104714250Y-73015000D01*
X104023690Y-73015000D01*
X103790301Y-73111673D01*
X103611673Y-73290302D01*
X103515000Y-73523691D01*
X102323335Y-73523691D01*
X102328139Y-73507745D01*
X101500000Y-72679605D01*
X100671861Y-73507745D01*
X86936999Y-73507745D01*
X86919778Y-73146546D01*
X86753864Y-72745995D01*
X86507745Y-72671861D01*
X85679605Y-73500000D01*
X85320395Y-73500000D01*
X85306252Y-73485858D01*
X85485858Y-73306252D01*
X85500000Y-73320395D01*
X86328139Y-72492255D01*
X86265177Y-72283223D01*
X100053035Y-72283223D01*
X100080222Y-72853454D01*
X100246136Y-73254005D01*
X100492255Y-73328139D01*
X101320395Y-72500000D01*
X101679605Y-72500000D01*
X102507745Y-73328139D01*
X102753864Y-73254005D01*
X102946965Y-72716777D01*
X102919778Y-72146546D01*
X102753864Y-71745995D01*
X102507745Y-71671861D01*
X101679605Y-72500000D01*
X101320395Y-72500000D01*
X100492255Y-71671861D01*
X100246136Y-71745995D01*
X100053035Y-72283223D01*
X86265177Y-72283223D01*
X86254005Y-72246136D01*
X85716777Y-72053035D01*
X85146546Y-72080222D01*
X84916998Y-72175304D01*
X85600047Y-71492255D01*
X100671861Y-71492255D01*
X101500000Y-72320395D01*
X102328139Y-71492255D01*
X102254005Y-71246136D01*
X101716777Y-71053035D01*
X101146546Y-71080222D01*
X100745995Y-71246136D01*
X100671861Y-71492255D01*
X85600047Y-71492255D01*
X88372401Y-68719901D01*
X88537148Y-68473339D01*
X88539937Y-68459317D01*
X88950849Y-68733880D01*
X89500000Y-68843113D01*
X90049151Y-68733880D01*
X90514698Y-68422811D01*
X90770000Y-68040725D01*
X91025302Y-68422811D01*
X91490849Y-68733880D01*
X92040000Y-68843113D01*
X92589151Y-68733880D01*
X93054698Y-68422811D01*
X93310000Y-68040725D01*
X93565302Y-68422811D01*
X94030849Y-68733880D01*
X94580000Y-68843113D01*
X95129151Y-68733880D01*
X95594698Y-68422811D01*
X95850000Y-68040725D01*
X96105302Y-68422811D01*
X96570849Y-68733880D01*
X97120000Y-68843113D01*
X97669151Y-68733880D01*
X98134698Y-68422811D01*
X98445767Y-67957264D01*
X98555000Y-67408113D01*
X98555000Y-67351887D01*
X98445767Y-66802736D01*
X98134698Y-66337189D01*
X98121279Y-66328223D01*
X98504801Y-65944701D01*
X98669548Y-65698139D01*
X98727400Y-65407300D01*
X98727400Y-65274457D01*
X99010961Y-65391904D01*
X99233000Y-65269915D01*
X99233000Y-64127000D01*
X99213000Y-64127000D01*
X99213000Y-63873000D01*
X99233000Y-63873000D01*
X99233000Y-62730085D01*
X99010961Y-62608096D01*
X98727400Y-62725543D01*
X98727400Y-57678121D01*
X98810849Y-57733880D01*
X99360000Y-57843113D01*
X99909151Y-57733880D01*
X100374698Y-57422811D01*
X100464100Y-57289012D01*
X100464100Y-63101122D01*
X100097423Y-62768959D01*
X99709039Y-62608096D01*
X99487000Y-62730085D01*
X99487000Y-63873000D01*
X99507000Y-63873000D01*
X99507000Y-64127000D01*
X99487000Y-64127000D01*
X99487000Y-65269915D01*
X99709039Y-65391904D01*
X100097423Y-65231041D01*
X100510614Y-64856742D01*
X100531467Y-64961575D01*
X100656133Y-65148152D01*
X100723310Y-65248690D01*
X101539655Y-66065035D01*
X101215813Y-66064752D01*
X100688200Y-66282757D01*
X100284176Y-66686077D01*
X100065250Y-67213309D01*
X100064752Y-67784187D01*
X100282757Y-68311800D01*
X100686077Y-68715824D01*
X101213309Y-68934750D01*
X101784187Y-68935248D01*
X102311800Y-68717243D01*
X102715824Y-68313923D01*
X102934750Y-67786691D01*
X102935035Y-67460414D01*
X103704700Y-68230079D01*
X103704700Y-69000000D01*
X103772067Y-69338675D01*
X103963910Y-69625790D01*
X104251025Y-69817633D01*
X104589700Y-69885000D01*
X104710527Y-69885000D01*
X104797189Y-70014698D01*
X105262736Y-70325767D01*
X105811887Y-70435000D01*
X105868113Y-70435000D01*
X106417264Y-70325767D01*
X106780000Y-70083394D01*
X106780000Y-73227046D01*
X106489946Y-73420853D01*
X106460597Y-73464777D01*
X106388327Y-73290302D01*
X106209699Y-73111673D01*
X105976310Y-73015000D01*
X105285750Y-73015000D01*
X105127000Y-73173750D01*
X105127000Y-74373000D01*
X105147000Y-74373000D01*
X105147000Y-74627000D01*
X105127000Y-74627000D01*
X105127000Y-75826250D01*
X105285750Y-75985000D01*
X105976310Y-75985000D01*
X106209699Y-75888327D01*
X106388327Y-75709698D01*
X106460597Y-75535223D01*
X106489946Y-75579147D01*
X106971715Y-75901054D01*
X107540000Y-76014093D01*
X108108285Y-75901054D01*
X108590054Y-75579147D01*
X108810000Y-75249974D01*
X109029946Y-75579147D01*
X109511715Y-75901054D01*
X110080000Y-76014093D01*
X110648285Y-75901054D01*
X111130054Y-75579147D01*
X111350000Y-75249974D01*
X111569946Y-75579147D01*
X112051715Y-75901054D01*
X112620000Y-76014093D01*
X113188285Y-75901054D01*
X113670054Y-75579147D01*
X113890000Y-75249974D01*
X114109946Y-75579147D01*
X114591715Y-75901054D01*
X115160000Y-76014093D01*
X115728285Y-75901054D01*
X116210054Y-75579147D01*
X116430000Y-75249974D01*
X116649946Y-75579147D01*
X117131715Y-75901054D01*
X117700000Y-76014093D01*
X118268285Y-75901054D01*
X118750054Y-75579147D01*
X119071961Y-75097378D01*
X119185000Y-74529093D01*
X119185000Y-74470907D01*
X119071961Y-73902622D01*
X118982047Y-73768055D01*
X120037401Y-72712701D01*
X120181233Y-72497440D01*
X120350000Y-72497440D01*
X120585317Y-72453162D01*
X120801441Y-72314090D01*
X120946431Y-72101890D01*
X120997440Y-71850000D01*
X120997440Y-70150000D01*
X120953162Y-69914683D01*
X120814090Y-69698559D01*
X120601890Y-69553569D01*
X120534459Y-69539914D01*
X120579147Y-69510054D01*
X120901054Y-69028285D01*
X121014093Y-68460000D01*
X120901054Y-67891715D01*
X120579147Y-67409946D01*
X120137952Y-67115150D01*
X120865401Y-66387701D01*
X121030148Y-66141139D01*
X121088000Y-65850300D01*
X121088000Y-57212000D01*
X121030148Y-56921161D01*
X120865401Y-56674599D01*
X119863997Y-55673195D01*
X120093880Y-55329151D01*
X120203113Y-54780000D01*
X120093880Y-54230849D01*
X119782811Y-53765302D01*
X119400725Y-53510000D01*
X119782811Y-53254698D01*
X120093880Y-52789151D01*
X120203113Y-52240000D01*
X120093880Y-51690849D01*
X119782811Y-51225302D01*
X119400725Y-50970000D01*
X119782811Y-50714698D01*
X120093880Y-50249151D01*
X120203113Y-49700000D01*
X120093880Y-49150849D01*
X119782811Y-48685302D01*
X119400725Y-48430000D01*
X119782811Y-48174698D01*
X120093880Y-47709151D01*
X120203113Y-47160000D01*
X120093880Y-46610849D01*
X119782811Y-46145302D01*
X119462947Y-45931576D01*
X119482022Y-45835679D01*
X119782811Y-45634698D01*
X120093880Y-45169151D01*
X120203113Y-44620000D01*
X120093880Y-44070849D01*
X119782811Y-43605302D01*
X119400725Y-43350000D01*
X119782811Y-43094698D01*
X120093880Y-42629151D01*
X120203113Y-42080000D01*
X120093880Y-41530849D01*
X119863997Y-41186805D01*
X120697401Y-40353401D01*
X120862148Y-40106839D01*
X120920000Y-39816000D01*
X120920000Y-34203667D01*
X121202811Y-34014698D01*
X121290000Y-33884211D01*
X121290000Y-76290000D01*
G36*
X54393099Y-30757099D02*
X51372899Y-33777299D01*
X51208152Y-34023861D01*
X51150300Y-34314700D01*
X51150300Y-61006300D01*
X51208152Y-61297139D01*
X51372899Y-61543701D01*
X52376003Y-62546805D01*
X52146120Y-62890849D01*
X52036887Y-63440000D01*
X52146120Y-63989151D01*
X52457189Y-64454698D01*
X52922736Y-64765767D01*
X53471887Y-64875000D01*
X53528113Y-64875000D01*
X54077264Y-64765767D01*
X54542811Y-64454698D01*
X54853880Y-63989151D01*
X54963113Y-63440000D01*
X54853880Y-62890849D01*
X54542811Y-62425302D01*
X54242022Y-62224321D01*
X54222947Y-62128424D01*
X54542811Y-61914698D01*
X54853880Y-61449151D01*
X54963113Y-60900000D01*
X54853880Y-60350849D01*
X54542811Y-59885302D01*
X54160725Y-59630000D01*
X54542811Y-59374698D01*
X54853880Y-58909151D01*
X54963113Y-58360000D01*
X54853880Y-57810849D01*
X54542811Y-57345302D01*
X54242022Y-57144321D01*
X54222947Y-57048424D01*
X54542811Y-56834698D01*
X54853880Y-56369151D01*
X54963113Y-55820000D01*
X54853880Y-55270849D01*
X54542811Y-54805302D01*
X54160725Y-54550000D01*
X54542811Y-54294698D01*
X54853880Y-53829151D01*
X54963113Y-53280000D01*
X54853880Y-52730849D01*
X54542811Y-52265302D01*
X54160725Y-52010000D01*
X54542811Y-51754698D01*
X54780368Y-51399170D01*
X61614700Y-58233502D01*
X61614700Y-72749400D01*
X61672552Y-73040239D01*
X61837299Y-73286801D01*
X62271589Y-73721091D01*
X62248559Y-73735910D01*
X62103569Y-73948110D01*
X62052560Y-74200000D01*
X62052560Y-75800000D01*
X62096838Y-76035317D01*
X62235910Y-76251441D01*
X62292343Y-76290000D01*
X50710000Y-76290000D01*
X50710000Y-74507745D01*
X58671861Y-74507745D01*
X58745995Y-74753864D01*
X59283223Y-74946965D01*
X59853454Y-74919778D01*
X60254005Y-74753864D01*
X60328139Y-74507745D01*
X59500000Y-73679605D01*
X58671861Y-74507745D01*
X50710000Y-74507745D01*
X50710000Y-73283223D01*
X58053035Y-73283223D01*
X58080222Y-73853454D01*
X58246136Y-74254005D01*
X58492255Y-74328139D01*
X59320395Y-73500000D01*
X59679605Y-73500000D01*
X60507745Y-74328139D01*
X60753864Y-74254005D01*
X60946965Y-73716777D01*
X60919778Y-73146546D01*
X60753864Y-72745995D01*
X60507745Y-72671861D01*
X59679605Y-73500000D01*
X59320395Y-73500000D01*
X58492255Y-72671861D01*
X58246136Y-72745995D01*
X58053035Y-73283223D01*
X50710000Y-73283223D01*
X50710000Y-72492255D01*
X58671861Y-72492255D01*
X59500000Y-73320395D01*
X60328139Y-72492255D01*
X60254005Y-72246136D01*
X59716777Y-72053035D01*
X59146546Y-72080222D01*
X58745995Y-72246136D01*
X58671861Y-72492255D01*
X50710000Y-72492255D01*
X50710000Y-68784187D01*
X58064752Y-68784187D01*
X58282757Y-69311800D01*
X58686077Y-69715824D01*
X59213309Y-69934750D01*
X59784187Y-69935248D01*
X60311800Y-69717243D01*
X60715824Y-69313923D01*
X60934750Y-68786691D01*
X60935248Y-68215813D01*
X60717243Y-67688200D01*
X60313923Y-67284176D01*
X59786691Y-67065250D01*
X59215813Y-67064752D01*
X58688200Y-67282757D01*
X58284176Y-67686077D01*
X58065250Y-68213309D01*
X58064752Y-68784187D01*
X50710000Y-68784187D01*
X50710000Y-30710000D01*
X54463588Y-30710000D01*
X54393099Y-30757099D01*
X54393099Y-30757099D01*
G37*
X54393099Y-30757099D02*
X51372899Y-33777299D01*
X51208152Y-34023861D01*
X51150300Y-34314700D01*
X51150300Y-61006300D01*
X51208152Y-61297139D01*
X51372899Y-61543701D01*
X52376003Y-62546805D01*
X52146120Y-62890849D01*
X52036887Y-63440000D01*
X52146120Y-63989151D01*
X52457189Y-64454698D01*
X52922736Y-64765767D01*
X53471887Y-64875000D01*
X53528113Y-64875000D01*
X54077264Y-64765767D01*
X54542811Y-64454698D01*
X54853880Y-63989151D01*
X54963113Y-63440000D01*
X54853880Y-62890849D01*
X54542811Y-62425302D01*
X54242022Y-62224321D01*
X54222947Y-62128424D01*
X54542811Y-61914698D01*
X54853880Y-61449151D01*
X54963113Y-60900000D01*
X54853880Y-60350849D01*
X54542811Y-59885302D01*
X54160725Y-59630000D01*
X54542811Y-59374698D01*
X54853880Y-58909151D01*
X54963113Y-58360000D01*
X54853880Y-57810849D01*
X54542811Y-57345302D01*
X54242022Y-57144321D01*
X54222947Y-57048424D01*
X54542811Y-56834698D01*
X54853880Y-56369151D01*
X54963113Y-55820000D01*
X54853880Y-55270849D01*
X54542811Y-54805302D01*
X54160725Y-54550000D01*
X54542811Y-54294698D01*
X54853880Y-53829151D01*
X54963113Y-53280000D01*
X54853880Y-52730849D01*
X54542811Y-52265302D01*
X54160725Y-52010000D01*
X54542811Y-51754698D01*
X54780368Y-51399170D01*
X61614700Y-58233502D01*
X61614700Y-72749400D01*
X61672552Y-73040239D01*
X61837299Y-73286801D01*
X62271589Y-73721091D01*
X62248559Y-73735910D01*
X62103569Y-73948110D01*
X62052560Y-74200000D01*
X62052560Y-75800000D01*
X62096838Y-76035317D01*
X62235910Y-76251441D01*
X62292343Y-76290000D01*
X50710000Y-76290000D01*
X50710000Y-74507745D01*
X58671861Y-74507745D01*
X58745995Y-74753864D01*
X59283223Y-74946965D01*
X59853454Y-74919778D01*
X60254005Y-74753864D01*
X60328139Y-74507745D01*
X59500000Y-73679605D01*
X58671861Y-74507745D01*
X50710000Y-74507745D01*
X50710000Y-73283223D01*
X58053035Y-73283223D01*
X58080222Y-73853454D01*
X58246136Y-74254005D01*
X58492255Y-74328139D01*
X59320395Y-73500000D01*
X59679605Y-73500000D01*
X60507745Y-74328139D01*
X60753864Y-74254005D01*
X60946965Y-73716777D01*
X60919778Y-73146546D01*
X60753864Y-72745995D01*
X60507745Y-72671861D01*
X59679605Y-73500000D01*
X59320395Y-73500000D01*
X58492255Y-72671861D01*
X58246136Y-72745995D01*
X58053035Y-73283223D01*
X50710000Y-73283223D01*
X50710000Y-72492255D01*
X58671861Y-72492255D01*
X59500000Y-73320395D01*
X60328139Y-72492255D01*
X60254005Y-72246136D01*
X59716777Y-72053035D01*
X59146546Y-72080222D01*
X58745995Y-72246136D01*
X58671861Y-72492255D01*
X50710000Y-72492255D01*
X50710000Y-68784187D01*
X58064752Y-68784187D01*
X58282757Y-69311800D01*
X58686077Y-69715824D01*
X59213309Y-69934750D01*
X59784187Y-69935248D01*
X60311800Y-69717243D01*
X60715824Y-69313923D01*
X60934750Y-68786691D01*
X60935248Y-68215813D01*
X60717243Y-67688200D01*
X60313923Y-67284176D01*
X59786691Y-67065250D01*
X59215813Y-67064752D01*
X58688200Y-67282757D01*
X58284176Y-67686077D01*
X58065250Y-68213309D01*
X58064752Y-68784187D01*
X50710000Y-68784187D01*
X50710000Y-30710000D01*
X54463588Y-30710000D01*
X54393099Y-30757099D01*
G36*
X73787000Y-74873000D02*
X73807000Y-74873000D01*
X73807000Y-75127000D01*
X73787000Y-75127000D01*
X73787000Y-75147000D01*
X73533000Y-75147000D01*
X73533000Y-75127000D01*
X73513000Y-75127000D01*
X73513000Y-74873000D01*
X73533000Y-74873000D01*
X73533000Y-74853000D01*
X73787000Y-74853000D01*
X73787000Y-74873000D01*
X73787000Y-74873000D01*
G37*
X73787000Y-74873000D02*
X73807000Y-74873000D01*
X73807000Y-75127000D01*
X73787000Y-75127000D01*
X73787000Y-75147000D01*
X73533000Y-75147000D01*
X73533000Y-75127000D01*
X73513000Y-75127000D01*
X73513000Y-74873000D01*
X73533000Y-74873000D01*
X73533000Y-74853000D01*
X73787000Y-74853000D01*
X73787000Y-74873000D01*
G36*
X80565302Y-57422811D02*
X81030849Y-57733880D01*
X81580000Y-57843113D01*
X82129151Y-57733880D01*
X82234700Y-57663354D01*
X82234700Y-60397998D01*
X81615900Y-59779198D01*
X81615900Y-59706963D01*
X81648092Y-59674827D01*
X81790738Y-59331299D01*
X81791062Y-58959333D01*
X81649017Y-58615557D01*
X81386227Y-58352308D01*
X81042699Y-58209662D01*
X80670733Y-58209338D01*
X80326957Y-58351383D01*
X80063708Y-58614173D01*
X79921062Y-58957701D01*
X79920738Y-59329667D01*
X80062783Y-59673443D01*
X80095900Y-59706618D01*
X80095900Y-60094000D01*
X80153752Y-60384839D01*
X80318499Y-60631401D01*
X82920645Y-63233547D01*
X82850000Y-63339275D01*
X82594698Y-62957189D01*
X82129151Y-62646120D01*
X81580000Y-62536887D01*
X81030849Y-62646120D01*
X80565302Y-62957189D01*
X80310000Y-63339275D01*
X80054698Y-62957189D01*
X79589151Y-62646120D01*
X79040000Y-62536887D01*
X78490849Y-62646120D01*
X78025302Y-62957189D01*
X77935000Y-63092335D01*
X77935000Y-63073691D01*
X77838327Y-62840302D01*
X77659699Y-62661673D01*
X77426310Y-62565000D01*
X76785750Y-62565000D01*
X76627000Y-62723750D01*
X76627000Y-63873000D01*
X76647000Y-63873000D01*
X76647000Y-64127000D01*
X76627000Y-64127000D01*
X76627000Y-65276250D01*
X76785750Y-65435000D01*
X77426310Y-65435000D01*
X77659699Y-65338327D01*
X77838327Y-65159698D01*
X77935000Y-64926309D01*
X77935000Y-64907665D01*
X78025302Y-65042811D01*
X78490849Y-65353880D01*
X79040000Y-65463113D01*
X79589151Y-65353880D01*
X80054698Y-65042811D01*
X80310000Y-64660725D01*
X80565302Y-65042811D01*
X81030849Y-65353880D01*
X81580000Y-65463113D01*
X82129151Y-65353880D01*
X82594698Y-65042811D01*
X82850000Y-64660725D01*
X83105302Y-65042811D01*
X83570849Y-65353880D01*
X84120000Y-65463113D01*
X84197626Y-65447672D01*
X82805099Y-66840199D01*
X82640352Y-67086761D01*
X82582500Y-67377600D01*
X82582500Y-71707998D01*
X79973742Y-74316756D01*
X79892389Y-74144866D01*
X79477423Y-73768959D01*
X79089039Y-73608096D01*
X78867000Y-73730085D01*
X78867000Y-74873000D01*
X78887000Y-74873000D01*
X78887000Y-75127000D01*
X78867000Y-75127000D01*
X78867000Y-75147000D01*
X78613000Y-75147000D01*
X78613000Y-75127000D01*
X78593000Y-75127000D01*
X78593000Y-74873000D01*
X78613000Y-74873000D01*
X78613000Y-73730085D01*
X78390961Y-73608096D01*
X78002577Y-73768959D01*
X77587611Y-74144866D01*
X77484986Y-74361703D01*
X77214698Y-73957189D01*
X76749151Y-73646120D01*
X76200000Y-73536887D01*
X75650849Y-73646120D01*
X75247759Y-73915457D01*
X74669501Y-73337199D01*
X74422939Y-73172452D01*
X74132100Y-73114600D01*
X70549400Y-73114600D01*
X70258561Y-73172452D01*
X70011999Y-73337199D01*
X69473195Y-73876003D01*
X69129151Y-73646120D01*
X68580000Y-73536887D01*
X68030849Y-73646120D01*
X67565302Y-73957189D01*
X67310000Y-74339275D01*
X67158405Y-74112397D01*
X72766805Y-68503997D01*
X73110849Y-68733880D01*
X73660000Y-68843113D01*
X74209151Y-68733880D01*
X74674698Y-68422811D01*
X74944986Y-68018297D01*
X75047611Y-68235134D01*
X75462577Y-68611041D01*
X75850961Y-68771904D01*
X76073000Y-68649915D01*
X76073000Y-67507000D01*
X76053000Y-67507000D01*
X76053000Y-67253000D01*
X76073000Y-67253000D01*
X76073000Y-66110085D01*
X76327000Y-66110085D01*
X76327000Y-67253000D01*
X76347000Y-67253000D01*
X76347000Y-67507000D01*
X76327000Y-67507000D01*
X76327000Y-68649915D01*
X76549039Y-68771904D01*
X76937423Y-68611041D01*
X77352389Y-68235134D01*
X77455014Y-68018297D01*
X77725302Y-68422811D01*
X78190849Y-68733880D01*
X78740000Y-68843113D01*
X79289151Y-68733880D01*
X79754698Y-68422811D01*
X80065767Y-67957264D01*
X80175000Y-67408113D01*
X80175000Y-67351887D01*
X80065767Y-66802736D01*
X79754698Y-66337189D01*
X79289151Y-66026120D01*
X78740000Y-65916887D01*
X78190849Y-66026120D01*
X77725302Y-66337189D01*
X77455014Y-66741703D01*
X77352389Y-66524866D01*
X76937423Y-66148959D01*
X76549039Y-65988096D01*
X76327000Y-66110085D01*
X76073000Y-66110085D01*
X75850961Y-65988096D01*
X75462577Y-66148959D01*
X75047611Y-66524866D01*
X74944986Y-66741703D01*
X74674698Y-66337189D01*
X74342608Y-66115294D01*
X75229938Y-65227964D01*
X75340301Y-65338327D01*
X75573690Y-65435000D01*
X76214250Y-65435000D01*
X76373000Y-65276250D01*
X76373000Y-64127000D01*
X76353000Y-64127000D01*
X76353000Y-63873000D01*
X76373000Y-63873000D01*
X76373000Y-62723750D01*
X76214250Y-62565000D01*
X76020900Y-62565000D01*
X76020900Y-61041202D01*
X78162801Y-58899301D01*
X78327548Y-58652739D01*
X78385400Y-58361900D01*
X78385400Y-57663421D01*
X78490849Y-57733880D01*
X79040000Y-57843113D01*
X79589151Y-57733880D01*
X80054698Y-57422811D01*
X80310000Y-57040725D01*
X80565302Y-57422811D01*
X80565302Y-57422811D01*
G37*
X80565302Y-57422811D02*
X81030849Y-57733880D01*
X81580000Y-57843113D01*
X82129151Y-57733880D01*
X82234700Y-57663354D01*
X82234700Y-60397998D01*
X81615900Y-59779198D01*
X81615900Y-59706963D01*
X81648092Y-59674827D01*
X81790738Y-59331299D01*
X81791062Y-58959333D01*
X81649017Y-58615557D01*
X81386227Y-58352308D01*
X81042699Y-58209662D01*
X80670733Y-58209338D01*
X80326957Y-58351383D01*
X80063708Y-58614173D01*
X79921062Y-58957701D01*
X79920738Y-59329667D01*
X80062783Y-59673443D01*
X80095900Y-59706618D01*
X80095900Y-60094000D01*
X80153752Y-60384839D01*
X80318499Y-60631401D01*
X82920645Y-63233547D01*
X82850000Y-63339275D01*
X82594698Y-62957189D01*
X82129151Y-62646120D01*
X81580000Y-62536887D01*
X81030849Y-62646120D01*
X80565302Y-62957189D01*
X80310000Y-63339275D01*
X80054698Y-62957189D01*
X79589151Y-62646120D01*
X79040000Y-62536887D01*
X78490849Y-62646120D01*
X78025302Y-62957189D01*
X77935000Y-63092335D01*
X77935000Y-63073691D01*
X77838327Y-62840302D01*
X77659699Y-62661673D01*
X77426310Y-62565000D01*
X76785750Y-62565000D01*
X76627000Y-62723750D01*
X76627000Y-63873000D01*
X76647000Y-63873000D01*
X76647000Y-64127000D01*
X76627000Y-64127000D01*
X76627000Y-65276250D01*
X76785750Y-65435000D01*
X77426310Y-65435000D01*
X77659699Y-65338327D01*
X77838327Y-65159698D01*
X77935000Y-64926309D01*
X77935000Y-64907665D01*
X78025302Y-65042811D01*
X78490849Y-65353880D01*
X79040000Y-65463113D01*
X79589151Y-65353880D01*
X80054698Y-65042811D01*
X80310000Y-64660725D01*
X80565302Y-65042811D01*
X81030849Y-65353880D01*
X81580000Y-65463113D01*
X82129151Y-65353880D01*
X82594698Y-65042811D01*
X82850000Y-64660725D01*
X83105302Y-65042811D01*
X83570849Y-65353880D01*
X84120000Y-65463113D01*
X84197626Y-65447672D01*
X82805099Y-66840199D01*
X82640352Y-67086761D01*
X82582500Y-67377600D01*
X82582500Y-71707998D01*
X79973742Y-74316756D01*
X79892389Y-74144866D01*
X79477423Y-73768959D01*
X79089039Y-73608096D01*
X78867000Y-73730085D01*
X78867000Y-74873000D01*
X78887000Y-74873000D01*
X78887000Y-75127000D01*
X78867000Y-75127000D01*
X78867000Y-75147000D01*
X78613000Y-75147000D01*
X78613000Y-75127000D01*
X78593000Y-75127000D01*
X78593000Y-74873000D01*
X78613000Y-74873000D01*
X78613000Y-73730085D01*
X78390961Y-73608096D01*
X78002577Y-73768959D01*
X77587611Y-74144866D01*
X77484986Y-74361703D01*
X77214698Y-73957189D01*
X76749151Y-73646120D01*
X76200000Y-73536887D01*
X75650849Y-73646120D01*
X75247759Y-73915457D01*
X74669501Y-73337199D01*
X74422939Y-73172452D01*
X74132100Y-73114600D01*
X70549400Y-73114600D01*
X70258561Y-73172452D01*
X70011999Y-73337199D01*
X69473195Y-73876003D01*
X69129151Y-73646120D01*
X68580000Y-73536887D01*
X68030849Y-73646120D01*
X67565302Y-73957189D01*
X67310000Y-74339275D01*
X67158405Y-74112397D01*
X72766805Y-68503997D01*
X73110849Y-68733880D01*
X73660000Y-68843113D01*
X74209151Y-68733880D01*
X74674698Y-68422811D01*
X74944986Y-68018297D01*
X75047611Y-68235134D01*
X75462577Y-68611041D01*
X75850961Y-68771904D01*
X76073000Y-68649915D01*
X76073000Y-67507000D01*
X76053000Y-67507000D01*
X76053000Y-67253000D01*
X76073000Y-67253000D01*
X76073000Y-66110085D01*
X76327000Y-66110085D01*
X76327000Y-67253000D01*
X76347000Y-67253000D01*
X76347000Y-67507000D01*
X76327000Y-67507000D01*
X76327000Y-68649915D01*
X76549039Y-68771904D01*
X76937423Y-68611041D01*
X77352389Y-68235134D01*
X77455014Y-68018297D01*
X77725302Y-68422811D01*
X78190849Y-68733880D01*
X78740000Y-68843113D01*
X79289151Y-68733880D01*
X79754698Y-68422811D01*
X80065767Y-67957264D01*
X80175000Y-67408113D01*
X80175000Y-67351887D01*
X80065767Y-66802736D01*
X79754698Y-66337189D01*
X79289151Y-66026120D01*
X78740000Y-65916887D01*
X78190849Y-66026120D01*
X77725302Y-66337189D01*
X77455014Y-66741703D01*
X77352389Y-66524866D01*
X76937423Y-66148959D01*
X76549039Y-65988096D01*
X76327000Y-66110085D01*
X76073000Y-66110085D01*
X75850961Y-65988096D01*
X75462577Y-66148959D01*
X75047611Y-66524866D01*
X74944986Y-66741703D01*
X74674698Y-66337189D01*
X74342608Y-66115294D01*
X75229938Y-65227964D01*
X75340301Y-65338327D01*
X75573690Y-65435000D01*
X76214250Y-65435000D01*
X76373000Y-65276250D01*
X76373000Y-64127000D01*
X76353000Y-64127000D01*
X76353000Y-63873000D01*
X76373000Y-63873000D01*
X76373000Y-62723750D01*
X76214250Y-62565000D01*
X76020900Y-62565000D01*
X76020900Y-61041202D01*
X78162801Y-58899301D01*
X78327548Y-58652739D01*
X78385400Y-58361900D01*
X78385400Y-57663421D01*
X78490849Y-57733880D01*
X79040000Y-57843113D01*
X79589151Y-57733880D01*
X80054698Y-57422811D01*
X80310000Y-57040725D01*
X80565302Y-57422811D01*
G36*
X67386120Y-56369151D02*
X67697189Y-56834698D01*
X68079275Y-57090000D01*
X67697189Y-57345302D01*
X67386120Y-57810849D01*
X67276887Y-58360000D01*
X67386120Y-58909151D01*
X67697189Y-59374698D01*
X68079275Y-59630000D01*
X67697189Y-59885302D01*
X67386120Y-60350849D01*
X67276887Y-60900000D01*
X67386120Y-61449151D01*
X67697189Y-61914698D01*
X68079275Y-62170000D01*
X67697189Y-62425302D01*
X67386120Y-62890849D01*
X67276887Y-63440000D01*
X67386120Y-63989151D01*
X67697189Y-64454698D01*
X68162736Y-64765767D01*
X68711887Y-64875000D01*
X68768113Y-64875000D01*
X69317264Y-64765767D01*
X69782811Y-64454698D01*
X70093880Y-63989151D01*
X70203113Y-63440000D01*
X70093880Y-62890849D01*
X69782811Y-62425302D01*
X69400725Y-62170000D01*
X69782811Y-61914698D01*
X70093880Y-61449151D01*
X70100179Y-61417481D01*
X70653178Y-61970480D01*
X70653138Y-62015967D01*
X70795183Y-62359743D01*
X71057973Y-62622992D01*
X71103790Y-62642017D01*
X71053035Y-62783223D01*
X71080222Y-63353454D01*
X71246136Y-63754005D01*
X71492255Y-63828139D01*
X72320395Y-63000000D01*
X72306253Y-62985858D01*
X72485858Y-62806253D01*
X72500000Y-62820395D01*
X72514142Y-62806252D01*
X72693748Y-62985858D01*
X72679605Y-63000000D01*
X72693748Y-63014142D01*
X72514142Y-63193748D01*
X72500000Y-63179605D01*
X71671861Y-64007745D01*
X71745995Y-64253864D01*
X72283223Y-64446965D01*
X72853454Y-64419778D01*
X72945269Y-64381747D01*
X72914062Y-64456901D01*
X72913738Y-64828867D01*
X73055783Y-65172643D01*
X73095684Y-65212614D01*
X72015836Y-66292462D01*
X71857423Y-66148959D01*
X71469039Y-65988096D01*
X71247000Y-66110085D01*
X71247000Y-67253000D01*
X71267000Y-67253000D01*
X71267000Y-67507000D01*
X71247000Y-67507000D01*
X71247000Y-67527000D01*
X70993000Y-67527000D01*
X70993000Y-67507000D01*
X70973000Y-67507000D01*
X70973000Y-67253000D01*
X70993000Y-67253000D01*
X70993000Y-66110085D01*
X70770961Y-65988096D01*
X70382577Y-66148959D01*
X69967611Y-66524866D01*
X69864986Y-66741703D01*
X69594698Y-66337189D01*
X69129151Y-66026120D01*
X68580000Y-65916887D01*
X68030849Y-66026120D01*
X67565302Y-66337189D01*
X67295014Y-66741703D01*
X67192389Y-66524866D01*
X66777423Y-66148959D01*
X66389039Y-65988096D01*
X66167000Y-66110085D01*
X66167000Y-67253000D01*
X66187000Y-67253000D01*
X66187000Y-67507000D01*
X66167000Y-67507000D01*
X66167000Y-68649915D01*
X66389039Y-68771904D01*
X66777423Y-68611041D01*
X67192389Y-68235134D01*
X67295014Y-68018297D01*
X67565302Y-68422811D01*
X68030849Y-68733880D01*
X68580000Y-68843113D01*
X69129151Y-68733880D01*
X69594698Y-68422811D01*
X69864986Y-68018297D01*
X69967611Y-68235134D01*
X70382577Y-68611041D01*
X70472791Y-68648407D01*
X65998179Y-73123019D01*
X65749161Y-73172552D01*
X65502599Y-73337299D01*
X65337852Y-73583861D01*
X65300118Y-73773563D01*
X65025302Y-73957189D01*
X64928899Y-74101465D01*
X64903162Y-73964683D01*
X64764090Y-73748559D01*
X64551890Y-73603569D01*
X64300000Y-73552560D01*
X64181233Y-73552560D01*
X64037401Y-73337299D01*
X63134700Y-72434598D01*
X63134700Y-68770450D01*
X63500000Y-68843113D01*
X64049151Y-68733880D01*
X64514698Y-68422811D01*
X64784986Y-68018297D01*
X64887611Y-68235134D01*
X65302577Y-68611041D01*
X65690961Y-68771904D01*
X65913000Y-68649915D01*
X65913000Y-67507000D01*
X65893000Y-67507000D01*
X65893000Y-67253000D01*
X65913000Y-67253000D01*
X65913000Y-66110085D01*
X65690961Y-65988096D01*
X65302577Y-66148959D01*
X64887611Y-66524866D01*
X64784986Y-66741703D01*
X64514698Y-66337189D01*
X64049151Y-66026120D01*
X63500000Y-65916887D01*
X63134700Y-65989550D01*
X63134700Y-58678700D01*
X64663900Y-58678700D01*
X64954739Y-58620848D01*
X65201301Y-58456101D01*
X67369882Y-56287520D01*
X67386120Y-56369151D01*
X67386120Y-56369151D01*
G37*
X67386120Y-56369151D02*
X67697189Y-56834698D01*
X68079275Y-57090000D01*
X67697189Y-57345302D01*
X67386120Y-57810849D01*
X67276887Y-58360000D01*
X67386120Y-58909151D01*
X67697189Y-59374698D01*
X68079275Y-59630000D01*
X67697189Y-59885302D01*
X67386120Y-60350849D01*
X67276887Y-60900000D01*
X67386120Y-61449151D01*
X67697189Y-61914698D01*
X68079275Y-62170000D01*
X67697189Y-62425302D01*
X67386120Y-62890849D01*
X67276887Y-63440000D01*
X67386120Y-63989151D01*
X67697189Y-64454698D01*
X68162736Y-64765767D01*
X68711887Y-64875000D01*
X68768113Y-64875000D01*
X69317264Y-64765767D01*
X69782811Y-64454698D01*
X70093880Y-63989151D01*
X70203113Y-63440000D01*
X70093880Y-62890849D01*
X69782811Y-62425302D01*
X69400725Y-62170000D01*
X69782811Y-61914698D01*
X70093880Y-61449151D01*
X70100179Y-61417481D01*
X70653178Y-61970480D01*
X70653138Y-62015967D01*
X70795183Y-62359743D01*
X71057973Y-62622992D01*
X71103790Y-62642017D01*
X71053035Y-62783223D01*
X71080222Y-63353454D01*
X71246136Y-63754005D01*
X71492255Y-63828139D01*
X72320395Y-63000000D01*
X72306253Y-62985858D01*
X72485858Y-62806253D01*
X72500000Y-62820395D01*
X72514142Y-62806252D01*
X72693748Y-62985858D01*
X72679605Y-63000000D01*
X72693748Y-63014142D01*
X72514142Y-63193748D01*
X72500000Y-63179605D01*
X71671861Y-64007745D01*
X71745995Y-64253864D01*
X72283223Y-64446965D01*
X72853454Y-64419778D01*
X72945269Y-64381747D01*
X72914062Y-64456901D01*
X72913738Y-64828867D01*
X73055783Y-65172643D01*
X73095684Y-65212614D01*
X72015836Y-66292462D01*
X71857423Y-66148959D01*
X71469039Y-65988096D01*
X71247000Y-66110085D01*
X71247000Y-67253000D01*
X71267000Y-67253000D01*
X71267000Y-67507000D01*
X71247000Y-67507000D01*
X71247000Y-67527000D01*
X70993000Y-67527000D01*
X70993000Y-67507000D01*
X70973000Y-67507000D01*
X70973000Y-67253000D01*
X70993000Y-67253000D01*
X70993000Y-66110085D01*
X70770961Y-65988096D01*
X70382577Y-66148959D01*
X69967611Y-66524866D01*
X69864986Y-66741703D01*
X69594698Y-66337189D01*
X69129151Y-66026120D01*
X68580000Y-65916887D01*
X68030849Y-66026120D01*
X67565302Y-66337189D01*
X67295014Y-66741703D01*
X67192389Y-66524866D01*
X66777423Y-66148959D01*
X66389039Y-65988096D01*
X66167000Y-66110085D01*
X66167000Y-67253000D01*
X66187000Y-67253000D01*
X66187000Y-67507000D01*
X66167000Y-67507000D01*
X66167000Y-68649915D01*
X66389039Y-68771904D01*
X66777423Y-68611041D01*
X67192389Y-68235134D01*
X67295014Y-68018297D01*
X67565302Y-68422811D01*
X68030849Y-68733880D01*
X68580000Y-68843113D01*
X69129151Y-68733880D01*
X69594698Y-68422811D01*
X69864986Y-68018297D01*
X69967611Y-68235134D01*
X70382577Y-68611041D01*
X70472791Y-68648407D01*
X65998179Y-73123019D01*
X65749161Y-73172552D01*
X65502599Y-73337299D01*
X65337852Y-73583861D01*
X65300118Y-73773563D01*
X65025302Y-73957189D01*
X64928899Y-74101465D01*
X64903162Y-73964683D01*
X64764090Y-73748559D01*
X64551890Y-73603569D01*
X64300000Y-73552560D01*
X64181233Y-73552560D01*
X64037401Y-73337299D01*
X63134700Y-72434598D01*
X63134700Y-68770450D01*
X63500000Y-68843113D01*
X64049151Y-68733880D01*
X64514698Y-68422811D01*
X64784986Y-68018297D01*
X64887611Y-68235134D01*
X65302577Y-68611041D01*
X65690961Y-68771904D01*
X65913000Y-68649915D01*
X65913000Y-67507000D01*
X65893000Y-67507000D01*
X65893000Y-67253000D01*
X65913000Y-67253000D01*
X65913000Y-66110085D01*
X65690961Y-65988096D01*
X65302577Y-66148959D01*
X64887611Y-66524866D01*
X64784986Y-66741703D01*
X64514698Y-66337189D01*
X64049151Y-66026120D01*
X63500000Y-65916887D01*
X63134700Y-65989550D01*
X63134700Y-58678700D01*
X64663900Y-58678700D01*
X64954739Y-58620848D01*
X65201301Y-58456101D01*
X67369882Y-56287520D01*
X67386120Y-56369151D01*
G36*
X95805302Y-65042811D02*
X96270849Y-65353880D01*
X96820000Y-65463113D01*
X96840953Y-65458945D01*
X96582599Y-65717299D01*
X96417852Y-65963861D01*
X96380118Y-66153563D01*
X96105302Y-66337189D01*
X95850000Y-66719275D01*
X95594698Y-66337189D01*
X95129151Y-66026120D01*
X94580000Y-65916887D01*
X94030849Y-66026120D01*
X93565302Y-66337189D01*
X93310000Y-66719275D01*
X93054698Y-66337189D01*
X92589151Y-66026120D01*
X92040000Y-65916887D01*
X91490849Y-66026120D01*
X91025302Y-66337189D01*
X90770000Y-66719275D01*
X90514698Y-66337189D01*
X90049151Y-66026120D01*
X89500000Y-65916887D01*
X88950849Y-66026120D01*
X88595000Y-66263891D01*
X88595000Y-65316563D01*
X88650849Y-65353880D01*
X89200000Y-65463113D01*
X89749151Y-65353880D01*
X90214698Y-65042811D01*
X90470000Y-64660725D01*
X90725302Y-65042811D01*
X91190849Y-65353880D01*
X91740000Y-65463113D01*
X92289151Y-65353880D01*
X92754698Y-65042811D01*
X93010000Y-64660725D01*
X93265302Y-65042811D01*
X93730849Y-65353880D01*
X94280000Y-65463113D01*
X94829151Y-65353880D01*
X95294698Y-65042811D01*
X95550000Y-64660725D01*
X95805302Y-65042811D01*
X95805302Y-65042811D01*
G37*
X95805302Y-65042811D02*
X96270849Y-65353880D01*
X96820000Y-65463113D01*
X96840953Y-65458945D01*
X96582599Y-65717299D01*
X96417852Y-65963861D01*
X96380118Y-66153563D01*
X96105302Y-66337189D01*
X95850000Y-66719275D01*
X95594698Y-66337189D01*
X95129151Y-66026120D01*
X94580000Y-65916887D01*
X94030849Y-66026120D01*
X93565302Y-66337189D01*
X93310000Y-66719275D01*
X93054698Y-66337189D01*
X92589151Y-66026120D01*
X92040000Y-65916887D01*
X91490849Y-66026120D01*
X91025302Y-66337189D01*
X90770000Y-66719275D01*
X90514698Y-66337189D01*
X90049151Y-66026120D01*
X89500000Y-65916887D01*
X88950849Y-66026120D01*
X88595000Y-66263891D01*
X88595000Y-65316563D01*
X88650849Y-65353880D01*
X89200000Y-65463113D01*
X89749151Y-65353880D01*
X90214698Y-65042811D01*
X90470000Y-64660725D01*
X90725302Y-65042811D01*
X91190849Y-65353880D01*
X91740000Y-65463113D01*
X92289151Y-65353880D01*
X92754698Y-65042811D01*
X93010000Y-64660725D01*
X93265302Y-65042811D01*
X93730849Y-65353880D01*
X94280000Y-65463113D01*
X94829151Y-65353880D01*
X95294698Y-65042811D01*
X95550000Y-64660725D01*
X95805302Y-65042811D01*
G36*
X74565000Y-32851887D02*
X74565000Y-32908113D01*
X74674233Y-33457264D01*
X74723109Y-33530412D01*
X74638520Y-33615000D01*
X73144171Y-33615000D01*
X72813923Y-33284176D01*
X72286691Y-33065250D01*
X71715813Y-33064752D01*
X71188200Y-33282757D01*
X70784176Y-33686077D01*
X70565250Y-34213309D01*
X70564752Y-34784187D01*
X70782757Y-35311800D01*
X71186077Y-35715824D01*
X71713309Y-35934750D01*
X72284187Y-35935248D01*
X72811800Y-35717243D01*
X73144623Y-35385000D01*
X73852900Y-35385000D01*
X73852900Y-41489195D01*
X73852899Y-41489200D01*
X73891847Y-41685000D01*
X73920267Y-41827875D01*
X74010630Y-41963113D01*
X74112110Y-42114990D01*
X76224551Y-44227430D01*
X76174233Y-44302736D01*
X76167715Y-44335506D01*
X74392022Y-46111198D01*
X74217243Y-45688200D01*
X73813923Y-45284176D01*
X73286691Y-45065250D01*
X72715813Y-45064752D01*
X72188200Y-45282757D01*
X71784176Y-45686077D01*
X71711501Y-45861097D01*
X71710701Y-45859899D01*
X69863997Y-44013195D01*
X70093880Y-43669151D01*
X70203113Y-43120000D01*
X70093880Y-42570849D01*
X69782811Y-42105302D01*
X69400725Y-41850000D01*
X69782811Y-41594698D01*
X70093880Y-41129151D01*
X70203113Y-40580000D01*
X70188741Y-40507745D01*
X71171861Y-40507745D01*
X71245995Y-40753864D01*
X71783223Y-40946965D01*
X72353454Y-40919778D01*
X72754005Y-40753864D01*
X72828139Y-40507745D01*
X72000000Y-39679605D01*
X71171861Y-40507745D01*
X70188741Y-40507745D01*
X70093880Y-40030849D01*
X69782811Y-39565302D01*
X69400725Y-39310000D01*
X69440799Y-39283223D01*
X70553035Y-39283223D01*
X70580222Y-39853454D01*
X70746136Y-40254005D01*
X70992255Y-40328139D01*
X71820395Y-39500000D01*
X72179605Y-39500000D01*
X73007745Y-40328139D01*
X73253864Y-40254005D01*
X73446965Y-39716777D01*
X73419778Y-39146546D01*
X73253864Y-38745995D01*
X73007745Y-38671861D01*
X72179605Y-39500000D01*
X71820395Y-39500000D01*
X70992255Y-38671861D01*
X70746136Y-38745995D01*
X70553035Y-39283223D01*
X69440799Y-39283223D01*
X69782811Y-39054698D01*
X70093880Y-38589151D01*
X70113153Y-38492255D01*
X71171861Y-38492255D01*
X72000000Y-39320395D01*
X72828139Y-38492255D01*
X72754005Y-38246136D01*
X72216777Y-38053035D01*
X71646546Y-38080222D01*
X71245995Y-38246136D01*
X71171861Y-38492255D01*
X70113153Y-38492255D01*
X70203113Y-38040000D01*
X70093880Y-37490849D01*
X69782811Y-37025302D01*
X69400725Y-36770000D01*
X69782811Y-36514698D01*
X70093880Y-36049151D01*
X70203113Y-35500000D01*
X70093880Y-34950849D01*
X69782811Y-34485302D01*
X69317264Y-34174233D01*
X68768113Y-34065000D01*
X68711887Y-34065000D01*
X68162736Y-34174233D01*
X67697189Y-34485302D01*
X67386120Y-34950849D01*
X67276887Y-35500000D01*
X67386120Y-36049151D01*
X67697189Y-36514698D01*
X68079275Y-36770000D01*
X67697189Y-37025302D01*
X67386120Y-37490849D01*
X67276887Y-38040000D01*
X67386120Y-38589151D01*
X67697189Y-39054698D01*
X68079275Y-39310000D01*
X67697189Y-39565302D01*
X67386120Y-40030849D01*
X67276887Y-40580000D01*
X67386120Y-41129151D01*
X67697189Y-41594698D01*
X68079275Y-41850000D01*
X67697189Y-42105302D01*
X67386120Y-42570849D01*
X67276887Y-43120000D01*
X67386120Y-43669151D01*
X67697189Y-44134698D01*
X67997978Y-44335679D01*
X68017053Y-44431576D01*
X67697189Y-44645302D01*
X67386120Y-45110849D01*
X67276887Y-45660000D01*
X67386120Y-46209151D01*
X67697189Y-46674698D01*
X67997978Y-46875679D01*
X68017053Y-46971576D01*
X67697189Y-47185302D01*
X67386120Y-47650849D01*
X67276887Y-48200000D01*
X67386120Y-48749151D01*
X67697189Y-49214698D01*
X68079275Y-49470000D01*
X67697189Y-49725302D01*
X67386120Y-50190849D01*
X67276887Y-50740000D01*
X67386120Y-51289151D01*
X67697189Y-51754698D01*
X67997978Y-51955679D01*
X68017053Y-52051576D01*
X67697189Y-52265302D01*
X67386120Y-52730849D01*
X67276887Y-53280000D01*
X67386120Y-53829151D01*
X67404243Y-53856273D01*
X67154708Y-54105373D01*
X67012062Y-54448901D01*
X67012021Y-54495777D01*
X64349098Y-57158700D01*
X62689502Y-57158700D01*
X54623997Y-49093195D01*
X54853880Y-48749151D01*
X54963113Y-48200000D01*
X54853880Y-47650849D01*
X54542811Y-47185302D01*
X54160725Y-46930000D01*
X54542811Y-46674698D01*
X54853880Y-46209151D01*
X54963113Y-45660000D01*
X54853880Y-45110849D01*
X54542811Y-44645302D01*
X54160725Y-44390000D01*
X54542811Y-44134698D01*
X54853880Y-43669151D01*
X54963113Y-43120000D01*
X54853880Y-42570849D01*
X54542811Y-42105302D01*
X54160725Y-41850000D01*
X54542811Y-41594698D01*
X54853880Y-41129151D01*
X54963113Y-40580000D01*
X54853880Y-40030849D01*
X54542811Y-39565302D01*
X54160725Y-39310000D01*
X54542811Y-39054698D01*
X54853880Y-38589151D01*
X54963113Y-38040000D01*
X54853880Y-37490849D01*
X54542811Y-37025302D01*
X54407665Y-36935000D01*
X54426309Y-36935000D01*
X54659698Y-36838327D01*
X54838327Y-36659699D01*
X54935000Y-36426310D01*
X54935000Y-35785750D01*
X54776250Y-35627000D01*
X53627000Y-35627000D01*
X53627000Y-35647000D01*
X53373000Y-35647000D01*
X53373000Y-35627000D01*
X53353000Y-35627000D01*
X53353000Y-35373000D01*
X53373000Y-35373000D01*
X53373000Y-35353000D01*
X53627000Y-35353000D01*
X53627000Y-35373000D01*
X54776250Y-35373000D01*
X54935000Y-35214250D01*
X54935000Y-34573690D01*
X54838327Y-34340301D01*
X54659698Y-34161673D01*
X54426309Y-34065000D01*
X53871702Y-34065000D01*
X55431802Y-32504900D01*
X74634020Y-32504900D01*
X74565000Y-32851887D01*
X74565000Y-32851887D01*
G37*
X74565000Y-32851887D02*
X74565000Y-32908113D01*
X74674233Y-33457264D01*
X74723109Y-33530412D01*
X74638520Y-33615000D01*
X73144171Y-33615000D01*
X72813923Y-33284176D01*
X72286691Y-33065250D01*
X71715813Y-33064752D01*
X71188200Y-33282757D01*
X70784176Y-33686077D01*
X70565250Y-34213309D01*
X70564752Y-34784187D01*
X70782757Y-35311800D01*
X71186077Y-35715824D01*
X71713309Y-35934750D01*
X72284187Y-35935248D01*
X72811800Y-35717243D01*
X73144623Y-35385000D01*
X73852900Y-35385000D01*
X73852900Y-41489195D01*
X73852899Y-41489200D01*
X73891847Y-41685000D01*
X73920267Y-41827875D01*
X74010630Y-41963113D01*
X74112110Y-42114990D01*
X76224551Y-44227430D01*
X76174233Y-44302736D01*
X76167715Y-44335506D01*
X74392022Y-46111198D01*
X74217243Y-45688200D01*
X73813923Y-45284176D01*
X73286691Y-45065250D01*
X72715813Y-45064752D01*
X72188200Y-45282757D01*
X71784176Y-45686077D01*
X71711501Y-45861097D01*
X71710701Y-45859899D01*
X69863997Y-44013195D01*
X70093880Y-43669151D01*
X70203113Y-43120000D01*
X70093880Y-42570849D01*
X69782811Y-42105302D01*
X69400725Y-41850000D01*
X69782811Y-41594698D01*
X70093880Y-41129151D01*
X70203113Y-40580000D01*
X70188741Y-40507745D01*
X71171861Y-40507745D01*
X71245995Y-40753864D01*
X71783223Y-40946965D01*
X72353454Y-40919778D01*
X72754005Y-40753864D01*
X72828139Y-40507745D01*
X72000000Y-39679605D01*
X71171861Y-40507745D01*
X70188741Y-40507745D01*
X70093880Y-40030849D01*
X69782811Y-39565302D01*
X69400725Y-39310000D01*
X69440799Y-39283223D01*
X70553035Y-39283223D01*
X70580222Y-39853454D01*
X70746136Y-40254005D01*
X70992255Y-40328139D01*
X71820395Y-39500000D01*
X72179605Y-39500000D01*
X73007745Y-40328139D01*
X73253864Y-40254005D01*
X73446965Y-39716777D01*
X73419778Y-39146546D01*
X73253864Y-38745995D01*
X73007745Y-38671861D01*
X72179605Y-39500000D01*
X71820395Y-39500000D01*
X70992255Y-38671861D01*
X70746136Y-38745995D01*
X70553035Y-39283223D01*
X69440799Y-39283223D01*
X69782811Y-39054698D01*
X70093880Y-38589151D01*
X70113153Y-38492255D01*
X71171861Y-38492255D01*
X72000000Y-39320395D01*
X72828139Y-38492255D01*
X72754005Y-38246136D01*
X72216777Y-38053035D01*
X71646546Y-38080222D01*
X71245995Y-38246136D01*
X71171861Y-38492255D01*
X70113153Y-38492255D01*
X70203113Y-38040000D01*
X70093880Y-37490849D01*
X69782811Y-37025302D01*
X69400725Y-36770000D01*
X69782811Y-36514698D01*
X70093880Y-36049151D01*
X70203113Y-35500000D01*
X70093880Y-34950849D01*
X69782811Y-34485302D01*
X69317264Y-34174233D01*
X68768113Y-34065000D01*
X68711887Y-34065000D01*
X68162736Y-34174233D01*
X67697189Y-34485302D01*
X67386120Y-34950849D01*
X67276887Y-35500000D01*
X67386120Y-36049151D01*
X67697189Y-36514698D01*
X68079275Y-36770000D01*
X67697189Y-37025302D01*
X67386120Y-37490849D01*
X67276887Y-38040000D01*
X67386120Y-38589151D01*
X67697189Y-39054698D01*
X68079275Y-39310000D01*
X67697189Y-39565302D01*
X67386120Y-40030849D01*
X67276887Y-40580000D01*
X67386120Y-41129151D01*
X67697189Y-41594698D01*
X68079275Y-41850000D01*
X67697189Y-42105302D01*
X67386120Y-42570849D01*
X67276887Y-43120000D01*
X67386120Y-43669151D01*
X67697189Y-44134698D01*
X67997978Y-44335679D01*
X68017053Y-44431576D01*
X67697189Y-44645302D01*
X67386120Y-45110849D01*
X67276887Y-45660000D01*
X67386120Y-46209151D01*
X67697189Y-46674698D01*
X67997978Y-46875679D01*
X68017053Y-46971576D01*
X67697189Y-47185302D01*
X67386120Y-47650849D01*
X67276887Y-48200000D01*
X67386120Y-48749151D01*
X67697189Y-49214698D01*
X68079275Y-49470000D01*
X67697189Y-49725302D01*
X67386120Y-50190849D01*
X67276887Y-50740000D01*
X67386120Y-51289151D01*
X67697189Y-51754698D01*
X67997978Y-51955679D01*
X68017053Y-52051576D01*
X67697189Y-52265302D01*
X67386120Y-52730849D01*
X67276887Y-53280000D01*
X67386120Y-53829151D01*
X67404243Y-53856273D01*
X67154708Y-54105373D01*
X67012062Y-54448901D01*
X67012021Y-54495777D01*
X64349098Y-57158700D01*
X62689502Y-57158700D01*
X54623997Y-49093195D01*
X54853880Y-48749151D01*
X54963113Y-48200000D01*
X54853880Y-47650849D01*
X54542811Y-47185302D01*
X54160725Y-46930000D01*
X54542811Y-46674698D01*
X54853880Y-46209151D01*
X54963113Y-45660000D01*
X54853880Y-45110849D01*
X54542811Y-44645302D01*
X54160725Y-44390000D01*
X54542811Y-44134698D01*
X54853880Y-43669151D01*
X54963113Y-43120000D01*
X54853880Y-42570849D01*
X54542811Y-42105302D01*
X54160725Y-41850000D01*
X54542811Y-41594698D01*
X54853880Y-41129151D01*
X54963113Y-40580000D01*
X54853880Y-40030849D01*
X54542811Y-39565302D01*
X54160725Y-39310000D01*
X54542811Y-39054698D01*
X54853880Y-38589151D01*
X54963113Y-38040000D01*
X54853880Y-37490849D01*
X54542811Y-37025302D01*
X54407665Y-36935000D01*
X54426309Y-36935000D01*
X54659698Y-36838327D01*
X54838327Y-36659699D01*
X54935000Y-36426310D01*
X54935000Y-35785750D01*
X54776250Y-35627000D01*
X53627000Y-35627000D01*
X53627000Y-35647000D01*
X53373000Y-35647000D01*
X53373000Y-35627000D01*
X53353000Y-35627000D01*
X53353000Y-35373000D01*
X53373000Y-35373000D01*
X53373000Y-35353000D01*
X53627000Y-35353000D01*
X53627000Y-35373000D01*
X54776250Y-35373000D01*
X54935000Y-35214250D01*
X54935000Y-34573690D01*
X54838327Y-34340301D01*
X54659698Y-34161673D01*
X54426309Y-34065000D01*
X53871702Y-34065000D01*
X55431802Y-32504900D01*
X74634020Y-32504900D01*
X74565000Y-32851887D01*
G36*
X72186077Y-47715824D02*
X72713309Y-47934750D01*
X73183581Y-47935160D01*
X73274308Y-48025887D01*
X73274310Y-48025890D01*
X73383700Y-48098982D01*
X73383700Y-50113034D01*
X73216777Y-50053035D01*
X72646546Y-50080222D01*
X72245995Y-50246136D01*
X72171861Y-50492255D01*
X73000000Y-51320395D01*
X73014143Y-51306253D01*
X73193748Y-51485858D01*
X73179605Y-51500000D01*
X73193748Y-51514143D01*
X73014143Y-51693748D01*
X73000000Y-51679605D01*
X72171861Y-52507745D01*
X72245995Y-52753864D01*
X72783223Y-52946965D01*
X73353454Y-52919778D01*
X73383700Y-52907250D01*
X73383700Y-55864721D01*
X72683261Y-56565160D01*
X72215813Y-56564752D01*
X71933300Y-56681484D01*
X71933300Y-52310381D01*
X71992255Y-52328139D01*
X72820395Y-51500000D01*
X71992255Y-50671861D01*
X71933300Y-50689619D01*
X71933300Y-47462606D01*
X72186077Y-47715824D01*
X72186077Y-47715824D01*
G37*
X72186077Y-47715824D02*
X72713309Y-47934750D01*
X73183581Y-47935160D01*
X73274308Y-48025887D01*
X73274310Y-48025890D01*
X73383700Y-48098982D01*
X73383700Y-50113034D01*
X73216777Y-50053035D01*
X72646546Y-50080222D01*
X72245995Y-50246136D01*
X72171861Y-50492255D01*
X73000000Y-51320395D01*
X73014143Y-51306253D01*
X73193748Y-51485858D01*
X73179605Y-51500000D01*
X73193748Y-51514143D01*
X73014143Y-51693748D01*
X73000000Y-51679605D01*
X72171861Y-52507745D01*
X72245995Y-52753864D01*
X72783223Y-52946965D01*
X73353454Y-52919778D01*
X73383700Y-52907250D01*
X73383700Y-55864721D01*
X72683261Y-56565160D01*
X72215813Y-56564752D01*
X71933300Y-56681484D01*
X71933300Y-52310381D01*
X71992255Y-52328139D01*
X72820395Y-51500000D01*
X71992255Y-50671861D01*
X71933300Y-50689619D01*
X71933300Y-47462606D01*
X72186077Y-47715824D01*
G36*
X102693748Y-32985858D02*
X102679605Y-33000000D01*
X102693748Y-33014143D01*
X102514142Y-33193748D01*
X102500000Y-33179605D01*
X101671861Y-34007745D01*
X101745995Y-34253864D01*
X101911901Y-34313497D01*
X99637899Y-36587499D01*
X99473152Y-36834061D01*
X99415300Y-37124900D01*
X99415300Y-39193526D01*
X99209039Y-39108096D01*
X98987000Y-39230085D01*
X98987000Y-40373000D01*
X99007000Y-40373000D01*
X99007000Y-40627000D01*
X98987000Y-40627000D01*
X98987000Y-41769915D01*
X99209039Y-41891904D01*
X99415300Y-41806474D01*
X99415300Y-44254598D01*
X98462599Y-45207299D01*
X98297852Y-45453861D01*
X98260188Y-45643210D01*
X97920853Y-45869946D01*
X97598946Y-46351715D01*
X97485907Y-46920000D01*
X97598946Y-47488285D01*
X97920853Y-47970054D01*
X98250026Y-48190000D01*
X97920853Y-48409946D01*
X97598946Y-48891715D01*
X97485907Y-49460000D01*
X97598946Y-50028285D01*
X97920853Y-50510054D01*
X97962452Y-50537850D01*
X97914683Y-50546838D01*
X97698559Y-50685910D01*
X97553569Y-50898110D01*
X97502560Y-51150000D01*
X97502560Y-52850000D01*
X97546838Y-53085317D01*
X97685910Y-53301441D01*
X97753129Y-53347369D01*
X97429999Y-53670499D01*
X97265252Y-53917061D01*
X97207400Y-54207900D01*
X97207400Y-54993946D01*
X96820000Y-54916887D01*
X96270849Y-55026120D01*
X95805302Y-55337189D01*
X95550000Y-55719275D01*
X95294698Y-55337189D01*
X94829151Y-55026120D01*
X94280000Y-54916887D01*
X93730849Y-55026120D01*
X93265302Y-55337189D01*
X93010000Y-55719275D01*
X92754698Y-55337189D01*
X92289151Y-55026120D01*
X91740000Y-54916887D01*
X91368898Y-54990704D01*
X92152001Y-54207601D01*
X92316748Y-53961039D01*
X92335102Y-53868768D01*
X92390961Y-53891904D01*
X92613000Y-53769915D01*
X92613000Y-52627000D01*
X92867000Y-52627000D01*
X92867000Y-53769915D01*
X93089039Y-53891904D01*
X93477423Y-53731041D01*
X93892389Y-53355134D01*
X94131914Y-52849041D01*
X94010629Y-52627000D01*
X92867000Y-52627000D01*
X92613000Y-52627000D01*
X92593000Y-52627000D01*
X92593000Y-52373000D01*
X92613000Y-52373000D01*
X92613000Y-51230085D01*
X92867000Y-51230085D01*
X92867000Y-52373000D01*
X94010629Y-52373000D01*
X94131914Y-52150959D01*
X93892389Y-51644866D01*
X93477423Y-51268959D01*
X93089039Y-51108096D01*
X92867000Y-51230085D01*
X92613000Y-51230085D01*
X92390961Y-51108096D01*
X92374600Y-51114872D01*
X92374600Y-49192002D01*
X96857401Y-44709202D01*
X97022147Y-44462640D01*
X97022148Y-44462639D01*
X97080000Y-44171800D01*
X97080000Y-41712995D01*
X97334698Y-41542811D01*
X97604986Y-41138297D01*
X97707611Y-41355134D01*
X98122577Y-41731041D01*
X98510961Y-41891904D01*
X98733000Y-41769915D01*
X98733000Y-40627000D01*
X98713000Y-40627000D01*
X98713000Y-40373000D01*
X98733000Y-40373000D01*
X98733000Y-39230085D01*
X98510961Y-39108096D01*
X98122577Y-39268959D01*
X97707611Y-39644866D01*
X97604986Y-39861703D01*
X97334698Y-39457189D01*
X97080000Y-39287005D01*
X97080000Y-34092995D01*
X97334698Y-33922811D01*
X97590000Y-33540725D01*
X97845302Y-33922811D01*
X98310849Y-34233880D01*
X98860000Y-34343113D01*
X99409151Y-34233880D01*
X99874698Y-33922811D01*
X100075679Y-33622022D01*
X100276139Y-33582148D01*
X100522701Y-33417401D01*
X101057761Y-32882341D01*
X101080222Y-33353454D01*
X101246136Y-33754005D01*
X101492255Y-33828139D01*
X102320395Y-33000000D01*
X102306253Y-32985858D01*
X102485858Y-32806253D01*
X102500000Y-32820395D01*
X102514142Y-32806252D01*
X102693748Y-32985858D01*
X102693748Y-32985858D01*
G37*
X102693748Y-32985858D02*
X102679605Y-33000000D01*
X102693748Y-33014143D01*
X102514142Y-33193748D01*
X102500000Y-33179605D01*
X101671861Y-34007745D01*
X101745995Y-34253864D01*
X101911901Y-34313497D01*
X99637899Y-36587499D01*
X99473152Y-36834061D01*
X99415300Y-37124900D01*
X99415300Y-39193526D01*
X99209039Y-39108096D01*
X98987000Y-39230085D01*
X98987000Y-40373000D01*
X99007000Y-40373000D01*
X99007000Y-40627000D01*
X98987000Y-40627000D01*
X98987000Y-41769915D01*
X99209039Y-41891904D01*
X99415300Y-41806474D01*
X99415300Y-44254598D01*
X98462599Y-45207299D01*
X98297852Y-45453861D01*
X98260188Y-45643210D01*
X97920853Y-45869946D01*
X97598946Y-46351715D01*
X97485907Y-46920000D01*
X97598946Y-47488285D01*
X97920853Y-47970054D01*
X98250026Y-48190000D01*
X97920853Y-48409946D01*
X97598946Y-48891715D01*
X97485907Y-49460000D01*
X97598946Y-50028285D01*
X97920853Y-50510054D01*
X97962452Y-50537850D01*
X97914683Y-50546838D01*
X97698559Y-50685910D01*
X97553569Y-50898110D01*
X97502560Y-51150000D01*
X97502560Y-52850000D01*
X97546838Y-53085317D01*
X97685910Y-53301441D01*
X97753129Y-53347369D01*
X97429999Y-53670499D01*
X97265252Y-53917061D01*
X97207400Y-54207900D01*
X97207400Y-54993946D01*
X96820000Y-54916887D01*
X96270849Y-55026120D01*
X95805302Y-55337189D01*
X95550000Y-55719275D01*
X95294698Y-55337189D01*
X94829151Y-55026120D01*
X94280000Y-54916887D01*
X93730849Y-55026120D01*
X93265302Y-55337189D01*
X93010000Y-55719275D01*
X92754698Y-55337189D01*
X92289151Y-55026120D01*
X91740000Y-54916887D01*
X91368898Y-54990704D01*
X92152001Y-54207601D01*
X92316748Y-53961039D01*
X92335102Y-53868768D01*
X92390961Y-53891904D01*
X92613000Y-53769915D01*
X92613000Y-52627000D01*
X92867000Y-52627000D01*
X92867000Y-53769915D01*
X93089039Y-53891904D01*
X93477423Y-53731041D01*
X93892389Y-53355134D01*
X94131914Y-52849041D01*
X94010629Y-52627000D01*
X92867000Y-52627000D01*
X92613000Y-52627000D01*
X92593000Y-52627000D01*
X92593000Y-52373000D01*
X92613000Y-52373000D01*
X92613000Y-51230085D01*
X92867000Y-51230085D01*
X92867000Y-52373000D01*
X94010629Y-52373000D01*
X94131914Y-52150959D01*
X93892389Y-51644866D01*
X93477423Y-51268959D01*
X93089039Y-51108096D01*
X92867000Y-51230085D01*
X92613000Y-51230085D01*
X92390961Y-51108096D01*
X92374600Y-51114872D01*
X92374600Y-49192002D01*
X96857401Y-44709202D01*
X97022147Y-44462640D01*
X97022148Y-44462639D01*
X97080000Y-44171800D01*
X97080000Y-41712995D01*
X97334698Y-41542811D01*
X97604986Y-41138297D01*
X97707611Y-41355134D01*
X98122577Y-41731041D01*
X98510961Y-41891904D01*
X98733000Y-41769915D01*
X98733000Y-40627000D01*
X98713000Y-40627000D01*
X98713000Y-40373000D01*
X98733000Y-40373000D01*
X98733000Y-39230085D01*
X98510961Y-39108096D01*
X98122577Y-39268959D01*
X97707611Y-39644866D01*
X97604986Y-39861703D01*
X97334698Y-39457189D01*
X97080000Y-39287005D01*
X97080000Y-34092995D01*
X97334698Y-33922811D01*
X97590000Y-33540725D01*
X97845302Y-33922811D01*
X98310849Y-34233880D01*
X98860000Y-34343113D01*
X99409151Y-34233880D01*
X99874698Y-33922811D01*
X100075679Y-33622022D01*
X100276139Y-33582148D01*
X100522701Y-33417401D01*
X101057761Y-32882341D01*
X101080222Y-33353454D01*
X101246136Y-33754005D01*
X101492255Y-33828139D01*
X102320395Y-33000000D01*
X102306253Y-32985858D01*
X102485858Y-32806253D01*
X102500000Y-32820395D01*
X102514142Y-32806252D01*
X102693748Y-32985858D01*
G36*
X83904321Y-45622022D02*
X84105302Y-45922811D01*
X84570849Y-46233880D01*
X85001130Y-46319468D01*
X83167999Y-48152599D01*
X83003252Y-48399161D01*
X82945400Y-48690000D01*
X82945400Y-51109570D01*
X82580000Y-51036887D01*
X82030849Y-51146120D01*
X81565302Y-51457189D01*
X81295014Y-51861703D01*
X81192389Y-51644866D01*
X80777423Y-51268959D01*
X80389039Y-51108096D01*
X80167000Y-51230085D01*
X80167000Y-52373000D01*
X80187000Y-52373000D01*
X80187000Y-52627000D01*
X80167000Y-52627000D01*
X80167000Y-53769915D01*
X80389039Y-53891904D01*
X80777423Y-53731041D01*
X81192389Y-53355134D01*
X81295014Y-53138297D01*
X81565302Y-53542811D01*
X82030849Y-53853880D01*
X82580000Y-53963113D01*
X82945400Y-53890430D01*
X82945400Y-54690998D01*
X82457299Y-55179099D01*
X82426680Y-55224923D01*
X82129151Y-55026120D01*
X81580000Y-54916887D01*
X81030849Y-55026120D01*
X80565302Y-55337189D01*
X80310000Y-55719275D01*
X80054698Y-55337189D01*
X79589151Y-55026120D01*
X79203784Y-54949466D01*
X79327548Y-54764239D01*
X79385400Y-54473400D01*
X79385400Y-53765345D01*
X79690961Y-53891904D01*
X79913000Y-53769915D01*
X79913000Y-52627000D01*
X79893000Y-52627000D01*
X79893000Y-52373000D01*
X79913000Y-52373000D01*
X79913000Y-51230085D01*
X79690961Y-51108096D01*
X79385400Y-51234655D01*
X79385400Y-50274702D01*
X83117401Y-46542701D01*
X83282148Y-46296139D01*
X83319882Y-46106437D01*
X83594698Y-45922811D01*
X83808424Y-45602947D01*
X83904321Y-45622022D01*
X83904321Y-45622022D01*
G37*
X83904321Y-45622022D02*
X84105302Y-45922811D01*
X84570849Y-46233880D01*
X85001130Y-46319468D01*
X83167999Y-48152599D01*
X83003252Y-48399161D01*
X82945400Y-48690000D01*
X82945400Y-51109570D01*
X82580000Y-51036887D01*
X82030849Y-51146120D01*
X81565302Y-51457189D01*
X81295014Y-51861703D01*
X81192389Y-51644866D01*
X80777423Y-51268959D01*
X80389039Y-51108096D01*
X80167000Y-51230085D01*
X80167000Y-52373000D01*
X80187000Y-52373000D01*
X80187000Y-52627000D01*
X80167000Y-52627000D01*
X80167000Y-53769915D01*
X80389039Y-53891904D01*
X80777423Y-53731041D01*
X81192389Y-53355134D01*
X81295014Y-53138297D01*
X81565302Y-53542811D01*
X82030849Y-53853880D01*
X82580000Y-53963113D01*
X82945400Y-53890430D01*
X82945400Y-54690998D01*
X82457299Y-55179099D01*
X82426680Y-55224923D01*
X82129151Y-55026120D01*
X81580000Y-54916887D01*
X81030849Y-55026120D01*
X80565302Y-55337189D01*
X80310000Y-55719275D01*
X80054698Y-55337189D01*
X79589151Y-55026120D01*
X79203784Y-54949466D01*
X79327548Y-54764239D01*
X79385400Y-54473400D01*
X79385400Y-53765345D01*
X79690961Y-53891904D01*
X79913000Y-53769915D01*
X79913000Y-52627000D01*
X79893000Y-52627000D01*
X79893000Y-52373000D01*
X79913000Y-52373000D01*
X79913000Y-51230085D01*
X79690961Y-51108096D01*
X79385400Y-51234655D01*
X79385400Y-50274702D01*
X83117401Y-46542701D01*
X83282148Y-46296139D01*
X83319882Y-46106437D01*
X83594698Y-45922811D01*
X83808424Y-45602947D01*
X83904321Y-45622022D01*
G36*
X81565302Y-45922811D02*
X81578721Y-45931777D01*
X78087999Y-49422499D01*
X77923252Y-49669061D01*
X77865400Y-49959900D01*
X77865400Y-51065000D01*
X77785750Y-51065000D01*
X77627000Y-51223750D01*
X77627000Y-52373000D01*
X77647000Y-52373000D01*
X77647000Y-52627000D01*
X77627000Y-52627000D01*
X77627000Y-53776250D01*
X77785750Y-53935000D01*
X77865400Y-53935000D01*
X77865400Y-54158598D01*
X77087999Y-54935999D01*
X77030289Y-55022368D01*
X76500000Y-54916887D01*
X75950849Y-55026120D01*
X75485302Y-55337189D01*
X75379856Y-55495000D01*
X75153700Y-55495000D01*
X75153700Y-52785750D01*
X76065000Y-52785750D01*
X76065000Y-53426309D01*
X76161673Y-53659698D01*
X76340301Y-53838327D01*
X76573690Y-53935000D01*
X77214250Y-53935000D01*
X77373000Y-53776250D01*
X77373000Y-52627000D01*
X76223750Y-52627000D01*
X76065000Y-52785750D01*
X75153700Y-52785750D01*
X75153700Y-51573691D01*
X76065000Y-51573691D01*
X76065000Y-52214250D01*
X76223750Y-52373000D01*
X77373000Y-52373000D01*
X77373000Y-51223750D01*
X77214250Y-51065000D01*
X76573690Y-51065000D01*
X76340301Y-51161673D01*
X76161673Y-51340302D01*
X76065000Y-51573691D01*
X75153700Y-51573691D01*
X75153700Y-47852680D01*
X76843936Y-46162443D01*
X76950849Y-46233880D01*
X77500000Y-46343113D01*
X78049151Y-46233880D01*
X78514698Y-45922811D01*
X78770000Y-45540725D01*
X79025302Y-45922811D01*
X79490849Y-46233880D01*
X80040000Y-46343113D01*
X80589151Y-46233880D01*
X81054698Y-45922811D01*
X81310000Y-45540725D01*
X81565302Y-45922811D01*
X81565302Y-45922811D01*
G37*
X81565302Y-45922811D02*
X81578721Y-45931777D01*
X78087999Y-49422499D01*
X77923252Y-49669061D01*
X77865400Y-49959900D01*
X77865400Y-51065000D01*
X77785750Y-51065000D01*
X77627000Y-51223750D01*
X77627000Y-52373000D01*
X77647000Y-52373000D01*
X77647000Y-52627000D01*
X77627000Y-52627000D01*
X77627000Y-53776250D01*
X77785750Y-53935000D01*
X77865400Y-53935000D01*
X77865400Y-54158598D01*
X77087999Y-54935999D01*
X77030289Y-55022368D01*
X76500000Y-54916887D01*
X75950849Y-55026120D01*
X75485302Y-55337189D01*
X75379856Y-55495000D01*
X75153700Y-55495000D01*
X75153700Y-52785750D01*
X76065000Y-52785750D01*
X76065000Y-53426309D01*
X76161673Y-53659698D01*
X76340301Y-53838327D01*
X76573690Y-53935000D01*
X77214250Y-53935000D01*
X77373000Y-53776250D01*
X77373000Y-52627000D01*
X76223750Y-52627000D01*
X76065000Y-52785750D01*
X75153700Y-52785750D01*
X75153700Y-51573691D01*
X76065000Y-51573691D01*
X76065000Y-52214250D01*
X76223750Y-52373000D01*
X77373000Y-52373000D01*
X77373000Y-51223750D01*
X77214250Y-51065000D01*
X76573690Y-51065000D01*
X76340301Y-51161673D01*
X76161673Y-51340302D01*
X76065000Y-51573691D01*
X75153700Y-51573691D01*
X75153700Y-47852680D01*
X76843936Y-46162443D01*
X76950849Y-46233880D01*
X77500000Y-46343113D01*
X78049151Y-46233880D01*
X78514698Y-45922811D01*
X78770000Y-45540725D01*
X79025302Y-45922811D01*
X79490849Y-46233880D01*
X80040000Y-46343113D01*
X80589151Y-46233880D01*
X81054698Y-45922811D01*
X81310000Y-45540725D01*
X81565302Y-45922811D01*
G36*
X106688200Y-31782757D02*
X106284176Y-32186077D01*
X106065250Y-32713309D01*
X106064752Y-33284187D01*
X106282757Y-33811800D01*
X106686077Y-34215824D01*
X107213309Y-34434750D01*
X107784187Y-34435248D01*
X108311800Y-34217243D01*
X108521663Y-34007745D01*
X109171861Y-34007745D01*
X109245995Y-34253864D01*
X109783223Y-34446965D01*
X110353454Y-34419778D01*
X110754005Y-34253864D01*
X110828139Y-34007745D01*
X110000000Y-33179605D01*
X109171861Y-34007745D01*
X108521663Y-34007745D01*
X108715824Y-33813923D01*
X108743423Y-33747456D01*
X108746136Y-33754005D01*
X108992255Y-33828139D01*
X109820395Y-33000000D01*
X108992255Y-32171861D01*
X108746136Y-32245995D01*
X108743804Y-32252483D01*
X108717243Y-32188200D01*
X108313923Y-31784176D01*
X108074358Y-31684700D01*
X109225598Y-31684700D01*
X109275014Y-31734116D01*
X109245995Y-31746136D01*
X109171861Y-31992255D01*
X110000000Y-32820395D01*
X110014142Y-32806252D01*
X110193748Y-32985858D01*
X110179605Y-33000000D01*
X111007745Y-33828139D01*
X111110900Y-33797067D01*
X111110900Y-53696098D01*
X105385400Y-47970598D01*
X105385400Y-39056300D01*
X105327548Y-38765461D01*
X105327548Y-38765460D01*
X105162801Y-38518899D01*
X104820964Y-38177062D01*
X104838327Y-38159699D01*
X104935000Y-37926310D01*
X104935000Y-37285750D01*
X104776250Y-37127000D01*
X103627000Y-37127000D01*
X103627000Y-37147000D01*
X103373000Y-37147000D01*
X103373000Y-37127000D01*
X103353000Y-37127000D01*
X103353000Y-36873000D01*
X103373000Y-36873000D01*
X103373000Y-35723750D01*
X103627000Y-35723750D01*
X103627000Y-36873000D01*
X104776250Y-36873000D01*
X104935000Y-36714250D01*
X104935000Y-36073690D01*
X104838327Y-35840301D01*
X104659698Y-35661673D01*
X104426309Y-35565000D01*
X103785750Y-35565000D01*
X103627000Y-35723750D01*
X103373000Y-35723750D01*
X103330576Y-35681326D01*
X104695501Y-34316401D01*
X104860248Y-34069839D01*
X104918100Y-33779000D01*
X104918100Y-32382500D01*
X104860248Y-32091661D01*
X104695501Y-31845099D01*
X104535102Y-31684700D01*
X106925516Y-31684700D01*
X106688200Y-31782757D01*
X106688200Y-31782757D01*
G37*
X106688200Y-31782757D02*
X106284176Y-32186077D01*
X106065250Y-32713309D01*
X106064752Y-33284187D01*
X106282757Y-33811800D01*
X106686077Y-34215824D01*
X107213309Y-34434750D01*
X107784187Y-34435248D01*
X108311800Y-34217243D01*
X108521663Y-34007745D01*
X109171861Y-34007745D01*
X109245995Y-34253864D01*
X109783223Y-34446965D01*
X110353454Y-34419778D01*
X110754005Y-34253864D01*
X110828139Y-34007745D01*
X110000000Y-33179605D01*
X109171861Y-34007745D01*
X108521663Y-34007745D01*
X108715824Y-33813923D01*
X108743423Y-33747456D01*
X108746136Y-33754005D01*
X108992255Y-33828139D01*
X109820395Y-33000000D01*
X108992255Y-32171861D01*
X108746136Y-32245995D01*
X108743804Y-32252483D01*
X108717243Y-32188200D01*
X108313923Y-31784176D01*
X108074358Y-31684700D01*
X109225598Y-31684700D01*
X109275014Y-31734116D01*
X109245995Y-31746136D01*
X109171861Y-31992255D01*
X110000000Y-32820395D01*
X110014142Y-32806252D01*
X110193748Y-32985858D01*
X110179605Y-33000000D01*
X111007745Y-33828139D01*
X111110900Y-33797067D01*
X111110900Y-53696098D01*
X105385400Y-47970598D01*
X105385400Y-39056300D01*
X105327548Y-38765461D01*
X105327548Y-38765460D01*
X105162801Y-38518899D01*
X104820964Y-38177062D01*
X104838327Y-38159699D01*
X104935000Y-37926310D01*
X104935000Y-37285750D01*
X104776250Y-37127000D01*
X103627000Y-37127000D01*
X103627000Y-37147000D01*
X103373000Y-37147000D01*
X103373000Y-37127000D01*
X103353000Y-37127000D01*
X103353000Y-36873000D01*
X103373000Y-36873000D01*
X103373000Y-35723750D01*
X103627000Y-35723750D01*
X103627000Y-36873000D01*
X104776250Y-36873000D01*
X104935000Y-36714250D01*
X104935000Y-36073690D01*
X104838327Y-35840301D01*
X104659698Y-35661673D01*
X104426309Y-35565000D01*
X103785750Y-35565000D01*
X103627000Y-35723750D01*
X103373000Y-35723750D01*
X103330576Y-35681326D01*
X104695501Y-34316401D01*
X104860248Y-34069839D01*
X104918100Y-33779000D01*
X104918100Y-32382500D01*
X104860248Y-32091661D01*
X104695501Y-31845099D01*
X104535102Y-31684700D01*
X106925516Y-31684700D01*
X106688200Y-31782757D01*
M02*
