M48
;DRILL file {KiCad 4.0.7} date 10/14/18 11:55:32
;FORMAT={-:-/ absolute / metric / decimal}
FMAT,2
METRIC,TZ
T1C0.400
T2C0.762
T3C0.800
T4C1.000
%
G90
G05
M71
T1
X67.947Y-54.636
X71.588Y-61.831
X73.849Y-64.644
X74.038Y-62.474
X80.856Y-59.145
X83.066Y-61.42
X88.175Y-59.786
X112.623Y-45.28
X113.397Y-52.666
T2
X54.5Y-71.27
X120.5Y-75.27
T3
X53.5Y-35.5
X53.5Y-38.04
X53.5Y-40.58
X53.5Y-43.12
X53.5Y-45.66
X53.5Y-48.2
X53.5Y-50.74
X53.5Y-53.28
X53.5Y-55.82
X53.5Y-58.36
X53.5Y-60.9
X53.5Y-63.44
X59.5Y-68.5
X59.5Y-73.5
X63.5Y-67.38
X63.5Y-75.
X66.04Y-67.38
X66.04Y-75.
X68.58Y-67.38
X68.58Y-75.
X68.74Y-35.5
X68.74Y-38.04
X68.74Y-40.58
X68.74Y-43.12
X68.74Y-45.66
X68.74Y-48.2
X68.74Y-50.74
X68.74Y-53.28
X68.74Y-55.82
X68.74Y-58.36
X68.74Y-60.9
X68.74Y-63.44
X71.12Y-67.38
X71.12Y-75.
X72.Y-34.5
X72.Y-39.5
X72.5Y-58.
X72.5Y-63.
X73.Y-46.5
X73.Y-51.5
X73.66Y-67.38
X73.66Y-75.
X76.Y-32.88
X76.Y-40.5
X76.2Y-67.38
X76.2Y-75.
X76.5Y-56.38
X76.5Y-64.
X77.5Y-44.88
X77.5Y-52.5
X78.54Y-32.88
X78.54Y-40.5
X78.74Y-67.38
X78.74Y-75.
X79.04Y-56.38
X79.04Y-64.
X80.04Y-44.88
X80.04Y-52.5
X81.08Y-32.88
X81.08Y-40.5
X81.58Y-56.38
X81.58Y-64.
X82.58Y-44.88
X82.58Y-52.5
X83.62Y-32.88
X83.62Y-40.5
X84.12Y-56.38
X84.12Y-64.
X85.12Y-44.88
X85.12Y-52.5
X85.5Y-68.5
X85.5Y-73.5
X86.16Y-32.88
X86.16Y-40.5
X86.66Y-56.38
X86.66Y-64.
X87.66Y-44.88
X87.66Y-52.5
X88.7Y-32.88
X88.7Y-40.5
X89.2Y-56.38
X89.2Y-64.
X89.5Y-67.38
X89.5Y-75.
X90.2Y-44.88
X90.2Y-52.5
X91.24Y-32.88
X91.24Y-40.5
X91.74Y-56.38
X91.74Y-64.
X92.04Y-67.38
X92.04Y-75.
X92.74Y-44.88
X92.74Y-52.5
X93.78Y-32.88
X93.78Y-40.5
X94.28Y-56.38
X94.28Y-64.
X94.58Y-67.38
X94.58Y-75.
X96.32Y-32.88
X96.32Y-40.5
X96.82Y-56.38
X96.82Y-64.
X97.12Y-67.38
X97.12Y-75.
X98.86Y-32.88
X98.86Y-40.5
X99.36Y-56.38
X99.36Y-64.
X101.5Y-67.5
X101.5Y-72.5
X102.5Y-33.
X103.5Y-37.
X103.5Y-39.54
X103.5Y-42.08
X103.5Y-44.62
X103.5Y-47.16
X103.5Y-49.7
X103.5Y-52.24
X103.5Y-54.78
X103.5Y-57.32
X103.5Y-59.86
X103.5Y-62.4
X103.5Y-64.94
X105.84Y-69.
X107.5Y-33.
X110.Y-33.
X116.Y-69.
X118.74Y-37.
X118.74Y-39.54
X118.74Y-42.08
X118.74Y-44.62
X118.74Y-47.16
X118.74Y-49.7
X118.74Y-52.24
X118.74Y-54.78
X118.74Y-57.32
X118.74Y-59.86
X118.74Y-62.4
X118.74Y-64.94
X120.16Y-33.
T4
X99.Y-46.92
X99.Y-49.46
X99.Y-52.
X105.Y-74.5
X107.54Y-74.5
X110.08Y-74.5
X112.62Y-74.5
X115.16Y-74.5
X117.7Y-74.5
X119.5Y-68.46
X119.5Y-71.
T0
M30
