G04 #@! TF.FileFunction,Legend,Top*
%FSLAX46Y46*%
G04 Gerber Fmt 4.6, Leading zero omitted, Abs format (unit mm)*
G04 Created by KiCad (PCBNEW 4.0.7) date 10/14/18 11:55:26*
%MOMM*%
%LPD*%
G01*
G04 APERTURE LIST*
%ADD10C,0.100000*%
%ADD11C,0.150000*%
%ADD12C,0.120000*%
G04 APERTURE END LIST*
D10*
X120083333Y-65666665D02*
X120983333Y-66266665D01*
X120450000Y-65433332D02*
X120450000Y-65199999D01*
X120816667Y-65099999D02*
X120816667Y-65433332D01*
X120116667Y-65433332D01*
X120116667Y-65099999D01*
X120816667Y-64799999D02*
X120116667Y-64799999D01*
X120816667Y-64399999D01*
X120116667Y-64399999D01*
X120816667Y-64066666D02*
X120116667Y-64066666D01*
X120116667Y-63900000D01*
X120150000Y-63800000D01*
X120216667Y-63733333D01*
X120283333Y-63700000D01*
X120416667Y-63666666D01*
X120516667Y-63666666D01*
X120650000Y-63700000D01*
X120716667Y-63733333D01*
X120783333Y-63800000D01*
X120816667Y-63900000D01*
X120816667Y-64066666D01*
X120816667Y-62833333D02*
X120116667Y-62833333D01*
X120116667Y-62566667D01*
X120150000Y-62500000D01*
X120183333Y-62466667D01*
X120250000Y-62433333D01*
X120350000Y-62433333D01*
X120416667Y-62466667D01*
X120450000Y-62500000D01*
X120483333Y-62566667D01*
X120483333Y-62833333D01*
X120350000Y-61833333D02*
X120816667Y-61833333D01*
X120350000Y-62133333D02*
X120716667Y-62133333D01*
X120783333Y-62100000D01*
X120816667Y-62033333D01*
X120816667Y-61933333D01*
X120783333Y-61866667D01*
X120750000Y-61833333D01*
X120816667Y-61400000D02*
X120783333Y-61466667D01*
X120716667Y-61500000D01*
X120116667Y-61500000D01*
X120816667Y-61033333D02*
X120783333Y-61100000D01*
X120716667Y-61133333D01*
X120116667Y-61133333D01*
X120550000Y-60766666D02*
X120550000Y-60233333D01*
X120116667Y-59899999D02*
X120683333Y-59899999D01*
X120750000Y-59866666D01*
X120783333Y-59833333D01*
X120816667Y-59766666D01*
X120816667Y-59633333D01*
X120783333Y-59566666D01*
X120750000Y-59533333D01*
X120683333Y-59499999D01*
X120116667Y-59499999D01*
X120350000Y-59166666D02*
X121050000Y-59166666D01*
X120383333Y-59166666D02*
X120350000Y-59100000D01*
X120350000Y-58966666D01*
X120383333Y-58900000D01*
X120416667Y-58866666D01*
X120483333Y-58833333D01*
X120683333Y-58833333D01*
X120750000Y-58866666D01*
X120783333Y-58900000D01*
X120816667Y-58966666D01*
X120816667Y-59100000D01*
X120783333Y-59166666D01*
X120450000Y-58000000D02*
X120450000Y-57766667D01*
X120816667Y-57666667D02*
X120816667Y-58000000D01*
X120116667Y-58000000D01*
X120116667Y-57666667D01*
X120350000Y-57366667D02*
X120816667Y-57366667D01*
X120416667Y-57366667D02*
X120383333Y-57333334D01*
X120350000Y-57266667D01*
X120350000Y-57166667D01*
X120383333Y-57100001D01*
X120450000Y-57066667D01*
X120816667Y-57066667D01*
X120816667Y-56433334D02*
X120450000Y-56433334D01*
X120383333Y-56466668D01*
X120350000Y-56533334D01*
X120350000Y-56666668D01*
X120383333Y-56733334D01*
X120783333Y-56433334D02*
X120816667Y-56500001D01*
X120816667Y-56666668D01*
X120783333Y-56733334D01*
X120716667Y-56766668D01*
X120650000Y-56766668D01*
X120583333Y-56733334D01*
X120550000Y-56666668D01*
X120550000Y-56500001D01*
X120516667Y-56433334D01*
X120816667Y-56100001D02*
X120116667Y-56100001D01*
X120383333Y-56100001D02*
X120350000Y-56033335D01*
X120350000Y-55900001D01*
X120383333Y-55833335D01*
X120416667Y-55800001D01*
X120483333Y-55766668D01*
X120683333Y-55766668D01*
X120750000Y-55800001D01*
X120783333Y-55833335D01*
X120816667Y-55900001D01*
X120816667Y-56033335D01*
X120783333Y-56100001D01*
X120816667Y-55366668D02*
X120783333Y-55433335D01*
X120716667Y-55466668D01*
X120116667Y-55466668D01*
X120783333Y-54833335D02*
X120816667Y-54900001D01*
X120816667Y-55033335D01*
X120783333Y-55100001D01*
X120716667Y-55133335D01*
X120450000Y-55133335D01*
X120383333Y-55100001D01*
X120350000Y-55033335D01*
X120350000Y-54900001D01*
X120383333Y-54833335D01*
X120450000Y-54800001D01*
X120516667Y-54800001D01*
X120583333Y-55133335D01*
X117442857Y-72990476D02*
X117442857Y-72723809D01*
X117861905Y-72609523D02*
X117861905Y-72990476D01*
X117061905Y-72990476D01*
X117061905Y-72609523D01*
X117861905Y-72266666D02*
X117061905Y-72266666D01*
X117861905Y-71809523D01*
X117061905Y-71809523D01*
X117861905Y-71428571D02*
X117061905Y-71428571D01*
X117061905Y-71238095D01*
X117100000Y-71123809D01*
X117176190Y-71047618D01*
X117252381Y-71009523D01*
X117404762Y-70971428D01*
X117519048Y-70971428D01*
X117671429Y-71009523D01*
X117747619Y-71047618D01*
X117823810Y-71123809D01*
X117861905Y-71238095D01*
X117861905Y-71428571D01*
X115361905Y-72952381D02*
X114561905Y-72952381D01*
X114561905Y-72647619D01*
X114600000Y-72571428D01*
X114638095Y-72533333D01*
X114714286Y-72495238D01*
X114828571Y-72495238D01*
X114904762Y-72533333D01*
X114942857Y-72571428D01*
X114980952Y-72647619D01*
X114980952Y-72952381D01*
X115323810Y-72190476D02*
X115361905Y-72076190D01*
X115361905Y-71885714D01*
X115323810Y-71809524D01*
X115285714Y-71771428D01*
X115209524Y-71733333D01*
X115133333Y-71733333D01*
X115057143Y-71771428D01*
X115019048Y-71809524D01*
X114980952Y-71885714D01*
X114942857Y-72038095D01*
X114904762Y-72114286D01*
X114866667Y-72152381D01*
X114790476Y-72190476D01*
X114714286Y-72190476D01*
X114638095Y-72152381D01*
X114600000Y-72114286D01*
X114561905Y-72038095D01*
X114561905Y-71847619D01*
X114600000Y-71733333D01*
X114942857Y-71390476D02*
X114942857Y-71123809D01*
X115361905Y-71009523D02*
X115361905Y-71390476D01*
X114561905Y-71390476D01*
X114561905Y-71009523D01*
X112823810Y-72971428D02*
X112861905Y-72857142D01*
X112861905Y-72666666D01*
X112823810Y-72590476D01*
X112785714Y-72552380D01*
X112709524Y-72514285D01*
X112633333Y-72514285D01*
X112557143Y-72552380D01*
X112519048Y-72590476D01*
X112480952Y-72666666D01*
X112442857Y-72819047D01*
X112404762Y-72895238D01*
X112366667Y-72933333D01*
X112290476Y-72971428D01*
X112214286Y-72971428D01*
X112138095Y-72933333D01*
X112100000Y-72895238D01*
X112061905Y-72819047D01*
X112061905Y-72628571D01*
X112100000Y-72514285D01*
X112061905Y-72285714D02*
X112861905Y-72019047D01*
X112061905Y-71752380D01*
X112861905Y-71028571D02*
X112480952Y-71295238D01*
X112861905Y-71485714D02*
X112061905Y-71485714D01*
X112061905Y-71180952D01*
X112100000Y-71104761D01*
X112138095Y-71066666D01*
X112214286Y-71028571D01*
X112328571Y-71028571D01*
X112404762Y-71066666D01*
X112442857Y-71104761D01*
X112480952Y-71180952D01*
X112480952Y-71485714D01*
X110323810Y-72914285D02*
X110361905Y-72799999D01*
X110361905Y-72609523D01*
X110323810Y-72533333D01*
X110285714Y-72495237D01*
X110209524Y-72457142D01*
X110133333Y-72457142D01*
X110057143Y-72495237D01*
X110019048Y-72533333D01*
X109980952Y-72609523D01*
X109942857Y-72761904D01*
X109904762Y-72838095D01*
X109866667Y-72876190D01*
X109790476Y-72914285D01*
X109714286Y-72914285D01*
X109638095Y-72876190D01*
X109600000Y-72838095D01*
X109561905Y-72761904D01*
X109561905Y-72571428D01*
X109600000Y-72457142D01*
X109561905Y-72228571D02*
X110361905Y-71961904D01*
X109561905Y-71695237D01*
X110133333Y-71466666D02*
X110133333Y-71085714D01*
X110361905Y-71542857D02*
X109561905Y-71276190D01*
X110361905Y-71009523D01*
X107442857Y-72914286D02*
X107442857Y-72647619D01*
X107861905Y-72533333D02*
X107861905Y-72914286D01*
X107061905Y-72914286D01*
X107061905Y-72533333D01*
X107633333Y-72228571D02*
X107633333Y-71847619D01*
X107861905Y-72304762D02*
X107061905Y-72038095D01*
X107861905Y-71771428D01*
X107861905Y-71504762D02*
X107061905Y-71504762D01*
X107861905Y-71047619D02*
X107404762Y-71390476D01*
X107061905Y-71047619D02*
X107519048Y-71504762D01*
X104600000Y-72609523D02*
X104561905Y-72685714D01*
X104561905Y-72799999D01*
X104600000Y-72914285D01*
X104676190Y-72990476D01*
X104752381Y-73028571D01*
X104904762Y-73066666D01*
X105019048Y-73066666D01*
X105171429Y-73028571D01*
X105247619Y-72990476D01*
X105323810Y-72914285D01*
X105361905Y-72799999D01*
X105361905Y-72723809D01*
X105323810Y-72609523D01*
X105285714Y-72571428D01*
X105019048Y-72571428D01*
X105019048Y-72723809D01*
X105361905Y-72228571D02*
X104561905Y-72228571D01*
X105361905Y-71771428D01*
X104561905Y-71771428D01*
X105361905Y-71390476D02*
X104561905Y-71390476D01*
X104561905Y-71200000D01*
X104600000Y-71085714D01*
X104676190Y-71009523D01*
X104752381Y-70971428D01*
X104904762Y-70933333D01*
X105019048Y-70933333D01*
X105171429Y-70971428D01*
X105247619Y-71009523D01*
X105323810Y-71085714D01*
X105361905Y-71200000D01*
X105361905Y-71390476D01*
D11*
X50714286Y-31857141D02*
X50714286Y-31619045D01*
X52142857Y-31619045D01*
X52142857Y-31857141D01*
X51047619Y-32238093D02*
X52047619Y-32238093D01*
X51333333Y-32571427D01*
X52047619Y-32904760D01*
X51047619Y-32904760D01*
X52047619Y-33380950D02*
X51238095Y-33380950D01*
X51142857Y-33428569D01*
X51095238Y-33476188D01*
X51047619Y-33571426D01*
X51047619Y-33761903D01*
X51095238Y-33857141D01*
X51142857Y-33904760D01*
X51238095Y-33952379D01*
X52047619Y-33952379D01*
X52047619Y-34285712D02*
X52047619Y-34857141D01*
X51047619Y-34571426D02*
X52047619Y-34571426D01*
X51047619Y-35190474D02*
X52047619Y-35190474D01*
X51571429Y-35999998D02*
X51571429Y-35666664D01*
X51047619Y-35666664D02*
X52047619Y-35666664D01*
X52047619Y-36142855D01*
X52047619Y-36714283D02*
X52047619Y-36809522D01*
X52000000Y-36904760D01*
X51952381Y-36952379D01*
X51857143Y-36999998D01*
X51666667Y-37047617D01*
X51428571Y-37047617D01*
X51238095Y-36999998D01*
X51142857Y-36952379D01*
X51095238Y-36904760D01*
X51047619Y-36809522D01*
X51047619Y-36714283D01*
X51095238Y-36619045D01*
X51142857Y-36571426D01*
X51238095Y-36523807D01*
X51428571Y-36476188D01*
X51666667Y-36476188D01*
X51857143Y-36523807D01*
X51952381Y-36571426D01*
X52000000Y-36619045D01*
X52047619Y-36714283D01*
X51047619Y-37523807D02*
X51047619Y-37714283D01*
X51095238Y-37809522D01*
X51142857Y-37857141D01*
X51285714Y-37952379D01*
X51476190Y-37999998D01*
X51857143Y-37999998D01*
X51952381Y-37952379D01*
X52000000Y-37904760D01*
X52047619Y-37809522D01*
X52047619Y-37619045D01*
X52000000Y-37523807D01*
X51952381Y-37476188D01*
X51857143Y-37428569D01*
X51619048Y-37428569D01*
X51523810Y-37476188D01*
X51476190Y-37523807D01*
X51428571Y-37619045D01*
X51428571Y-37809522D01*
X51476190Y-37904760D01*
X51523810Y-37952379D01*
X51619048Y-37999998D01*
X50714286Y-38333331D02*
X50714286Y-38571426D01*
X52142857Y-38571426D01*
X52142857Y-38333331D01*
X51333333Y-39809522D02*
X51333333Y-40285713D01*
X51047619Y-39714284D02*
X52047619Y-40047617D01*
X51047619Y-40380951D01*
X51047619Y-40714284D02*
X51714286Y-40714284D01*
X51619048Y-40714284D02*
X51666667Y-40761903D01*
X51714286Y-40857141D01*
X51714286Y-40999999D01*
X51666667Y-41095237D01*
X51571429Y-41142856D01*
X51047619Y-41142856D01*
X51571429Y-41142856D02*
X51666667Y-41190475D01*
X51714286Y-41285713D01*
X51714286Y-41428570D01*
X51666667Y-41523808D01*
X51571429Y-41571427D01*
X51047619Y-41571427D01*
X51047619Y-42095236D02*
X51047619Y-42285712D01*
X51095238Y-42380951D01*
X51142857Y-42428570D01*
X51285714Y-42523808D01*
X51476190Y-42571427D01*
X51857143Y-42571427D01*
X51952381Y-42523808D01*
X52000000Y-42476189D01*
X52047619Y-42380951D01*
X52047619Y-42190474D01*
X52000000Y-42095236D01*
X51952381Y-42047617D01*
X51857143Y-41999998D01*
X51619048Y-41999998D01*
X51523810Y-42047617D01*
X51476190Y-42095236D01*
X51428571Y-42190474D01*
X51428571Y-42380951D01*
X51476190Y-42476189D01*
X51523810Y-42523808D01*
X51619048Y-42571427D01*
X52047619Y-43476189D02*
X52047619Y-42999998D01*
X51571429Y-42952379D01*
X51619048Y-42999998D01*
X51666667Y-43095236D01*
X51666667Y-43333332D01*
X51619048Y-43428570D01*
X51571429Y-43476189D01*
X51476190Y-43523808D01*
X51238095Y-43523808D01*
X51142857Y-43476189D01*
X51095238Y-43428570D01*
X51047619Y-43333332D01*
X51047619Y-43095236D01*
X51095238Y-42999998D01*
X51142857Y-42952379D01*
X51047619Y-44476189D02*
X51047619Y-43904760D01*
X51047619Y-44190474D02*
X52047619Y-44190474D01*
X51904762Y-44095236D01*
X51809524Y-43999998D01*
X51761905Y-43904760D01*
X51047619Y-45428570D02*
X51047619Y-44857141D01*
X51047619Y-45142855D02*
X52047619Y-45142855D01*
X51904762Y-45047617D01*
X51809524Y-44952379D01*
X51761905Y-44857141D01*
X51333333Y-45809522D02*
X51333333Y-46285713D01*
X51047619Y-45714284D02*
X52047619Y-46047617D01*
X51047619Y-46380951D01*
X51333333Y-47428570D02*
X51333333Y-47904761D01*
X51047619Y-47333332D02*
X52047619Y-47666665D01*
X51047619Y-47999999D01*
X51047619Y-48761904D02*
X52047619Y-48761904D01*
X51095238Y-48761904D02*
X51047619Y-48666666D01*
X51047619Y-48476189D01*
X51095238Y-48380951D01*
X51142857Y-48333332D01*
X51238095Y-48285713D01*
X51523810Y-48285713D01*
X51619048Y-48333332D01*
X51666667Y-48380951D01*
X51714286Y-48476189D01*
X51714286Y-48666666D01*
X51666667Y-48761904D01*
X51047619Y-49666666D02*
X52047619Y-49666666D01*
X51095238Y-49666666D02*
X51047619Y-49571428D01*
X51047619Y-49380951D01*
X51095238Y-49285713D01*
X51142857Y-49238094D01*
X51238095Y-49190475D01*
X51523810Y-49190475D01*
X51619048Y-49238094D01*
X51666667Y-49285713D01*
X51714286Y-49380951D01*
X51714286Y-49571428D01*
X51666667Y-49666666D01*
X51428571Y-50142856D02*
X51428571Y-50904761D01*
X52047619Y-51571427D02*
X52047619Y-51761904D01*
X52000000Y-51857142D01*
X51904762Y-51952380D01*
X51714286Y-51999999D01*
X51380952Y-51999999D01*
X51190476Y-51952380D01*
X51095238Y-51857142D01*
X51047619Y-51761904D01*
X51047619Y-51571427D01*
X51095238Y-51476189D01*
X51190476Y-51380951D01*
X51380952Y-51333332D01*
X51714286Y-51333332D01*
X51904762Y-51380951D01*
X52000000Y-51476189D01*
X52047619Y-51571427D01*
X51714286Y-52428570D02*
X51047619Y-52428570D01*
X51619048Y-52428570D02*
X51666667Y-52476189D01*
X51714286Y-52571427D01*
X51714286Y-52714285D01*
X51666667Y-52809523D01*
X51571429Y-52857142D01*
X51047619Y-52857142D01*
X51571429Y-54428571D02*
X51523810Y-54571428D01*
X51476190Y-54619047D01*
X51380952Y-54666666D01*
X51238095Y-54666666D01*
X51142857Y-54619047D01*
X51095238Y-54571428D01*
X51047619Y-54476190D01*
X51047619Y-54095237D01*
X52047619Y-54095237D01*
X52047619Y-54428571D01*
X52000000Y-54523809D01*
X51952381Y-54571428D01*
X51857143Y-54619047D01*
X51761905Y-54619047D01*
X51666667Y-54571428D01*
X51619048Y-54523809D01*
X51571429Y-54428571D01*
X51571429Y-54095237D01*
X51047619Y-55238094D02*
X51095238Y-55142856D01*
X51142857Y-55095237D01*
X51238095Y-55047618D01*
X51523810Y-55047618D01*
X51619048Y-55095237D01*
X51666667Y-55142856D01*
X51714286Y-55238094D01*
X51714286Y-55380952D01*
X51666667Y-55476190D01*
X51619048Y-55523809D01*
X51523810Y-55571428D01*
X51238095Y-55571428D01*
X51142857Y-55523809D01*
X51095238Y-55476190D01*
X51047619Y-55380952D01*
X51047619Y-55238094D01*
X51047619Y-56428571D02*
X51571429Y-56428571D01*
X51666667Y-56380952D01*
X51714286Y-56285714D01*
X51714286Y-56095237D01*
X51666667Y-55999999D01*
X51095238Y-56428571D02*
X51047619Y-56333333D01*
X51047619Y-56095237D01*
X51095238Y-55999999D01*
X51190476Y-55952380D01*
X51285714Y-55952380D01*
X51380952Y-55999999D01*
X51428571Y-56095237D01*
X51428571Y-56333333D01*
X51476190Y-56428571D01*
X51047619Y-56904761D02*
X51714286Y-56904761D01*
X51523810Y-56904761D02*
X51619048Y-56952380D01*
X51666667Y-56999999D01*
X51714286Y-57095237D01*
X51714286Y-57190476D01*
X51047619Y-57952381D02*
X52047619Y-57952381D01*
X51095238Y-57952381D02*
X51047619Y-57857143D01*
X51047619Y-57666666D01*
X51095238Y-57571428D01*
X51142857Y-57523809D01*
X51238095Y-57476190D01*
X51523810Y-57476190D01*
X51619048Y-57523809D01*
X51666667Y-57571428D01*
X51714286Y-57666666D01*
X51714286Y-57857143D01*
X51666667Y-57952381D01*
X51714286Y-59047619D02*
X51714286Y-59428571D01*
X51047619Y-59190476D02*
X51904762Y-59190476D01*
X52000000Y-59238095D01*
X52047619Y-59333333D01*
X52047619Y-59428571D01*
X51047619Y-59904762D02*
X51095238Y-59809524D01*
X51142857Y-59761905D01*
X51238095Y-59714286D01*
X51523810Y-59714286D01*
X51619048Y-59761905D01*
X51666667Y-59809524D01*
X51714286Y-59904762D01*
X51714286Y-60047620D01*
X51666667Y-60142858D01*
X51619048Y-60190477D01*
X51523810Y-60238096D01*
X51238095Y-60238096D01*
X51142857Y-60190477D01*
X51095238Y-60142858D01*
X51047619Y-60047620D01*
X51047619Y-59904762D01*
X51047619Y-60666667D02*
X51714286Y-60666667D01*
X51523810Y-60666667D02*
X51619048Y-60714286D01*
X51666667Y-60761905D01*
X51714286Y-60857143D01*
X51714286Y-60952382D01*
X52047619Y-62476192D02*
X52047619Y-62285715D01*
X52000000Y-62190477D01*
X51952381Y-62142858D01*
X51809524Y-62047620D01*
X51619048Y-62000001D01*
X51238095Y-62000001D01*
X51142857Y-62047620D01*
X51095238Y-62095239D01*
X51047619Y-62190477D01*
X51047619Y-62380954D01*
X51095238Y-62476192D01*
X51142857Y-62523811D01*
X51238095Y-62571430D01*
X51476190Y-62571430D01*
X51571429Y-62523811D01*
X51619048Y-62476192D01*
X51666667Y-62380954D01*
X51666667Y-62190477D01*
X51619048Y-62095239D01*
X51571429Y-62047620D01*
X51476190Y-62000001D01*
X51619048Y-63142858D02*
X51666667Y-63047620D01*
X51714286Y-63000001D01*
X51809524Y-62952382D01*
X51857143Y-62952382D01*
X51952381Y-63000001D01*
X52000000Y-63047620D01*
X52047619Y-63142858D01*
X52047619Y-63333335D01*
X52000000Y-63428573D01*
X51952381Y-63476192D01*
X51857143Y-63523811D01*
X51809524Y-63523811D01*
X51714286Y-63476192D01*
X51666667Y-63428573D01*
X51619048Y-63333335D01*
X51619048Y-63142858D01*
X51571429Y-63047620D01*
X51523810Y-63000001D01*
X51428571Y-62952382D01*
X51238095Y-62952382D01*
X51142857Y-63000001D01*
X51095238Y-63047620D01*
X51047619Y-63142858D01*
X51047619Y-63333335D01*
X51095238Y-63428573D01*
X51142857Y-63476192D01*
X51238095Y-63523811D01*
X51428571Y-63523811D01*
X51523810Y-63476192D01*
X51571429Y-63428573D01*
X51619048Y-63333335D01*
X52047619Y-64142858D02*
X52047619Y-64238097D01*
X52000000Y-64333335D01*
X51952381Y-64380954D01*
X51857143Y-64428573D01*
X51666667Y-64476192D01*
X51428571Y-64476192D01*
X51238095Y-64428573D01*
X51142857Y-64380954D01*
X51095238Y-64333335D01*
X51047619Y-64238097D01*
X51047619Y-64142858D01*
X51095238Y-64047620D01*
X51142857Y-64000001D01*
X51238095Y-63952382D01*
X51428571Y-63904763D01*
X51666667Y-63904763D01*
X51857143Y-63952382D01*
X51952381Y-64000001D01*
X52000000Y-64047620D01*
X52047619Y-64142858D01*
X51047619Y-64952382D02*
X51047619Y-65142858D01*
X51095238Y-65238097D01*
X51142857Y-65285716D01*
X51285714Y-65380954D01*
X51476190Y-65428573D01*
X51857143Y-65428573D01*
X51952381Y-65380954D01*
X52000000Y-65333335D01*
X52047619Y-65238097D01*
X52047619Y-65047620D01*
X52000000Y-64952382D01*
X51952381Y-64904763D01*
X51857143Y-64857144D01*
X51619048Y-64857144D01*
X51523810Y-64904763D01*
X51476190Y-64952382D01*
X51428571Y-65047620D01*
X51428571Y-65238097D01*
X51476190Y-65333335D01*
X51523810Y-65380954D01*
X51619048Y-65428573D01*
X51095238Y-66571430D02*
X51047619Y-66714287D01*
X51047619Y-66952383D01*
X51095238Y-67047621D01*
X51142857Y-67095240D01*
X51238095Y-67142859D01*
X51333333Y-67142859D01*
X51428571Y-67095240D01*
X51476190Y-67047621D01*
X51523810Y-66952383D01*
X51571429Y-66761906D01*
X51619048Y-66666668D01*
X51666667Y-66619049D01*
X51761905Y-66571430D01*
X51857143Y-66571430D01*
X51952381Y-66619049D01*
X52000000Y-66666668D01*
X52047619Y-66761906D01*
X52047619Y-67000002D01*
X52000000Y-67142859D01*
X51571429Y-67904764D02*
X51523810Y-68047621D01*
X51476190Y-68095240D01*
X51380952Y-68142859D01*
X51238095Y-68142859D01*
X51142857Y-68095240D01*
X51095238Y-68047621D01*
X51047619Y-67952383D01*
X51047619Y-67571430D01*
X52047619Y-67571430D01*
X52047619Y-67904764D01*
X52000000Y-68000002D01*
X51952381Y-68047621D01*
X51857143Y-68095240D01*
X51761905Y-68095240D01*
X51666667Y-68047621D01*
X51619048Y-68000002D01*
X51571429Y-67904764D01*
X51571429Y-67571430D01*
X51142857Y-69142859D02*
X51095238Y-69095240D01*
X51047619Y-68952383D01*
X51047619Y-68857145D01*
X51095238Y-68714287D01*
X51190476Y-68619049D01*
X51285714Y-68571430D01*
X51476190Y-68523811D01*
X51619048Y-68523811D01*
X51809524Y-68571430D01*
X51904762Y-68619049D01*
X52000000Y-68714287D01*
X52047619Y-68857145D01*
X52047619Y-68952383D01*
X52000000Y-69095240D01*
X51952381Y-69142859D01*
X51047619Y-71666669D02*
X51523810Y-71333335D01*
X51047619Y-71095240D02*
X52047619Y-71095240D01*
X52047619Y-71476193D01*
X52000000Y-71571431D01*
X51952381Y-71619050D01*
X51857143Y-71666669D01*
X51714286Y-71666669D01*
X51619048Y-71619050D01*
X51571429Y-71571431D01*
X51523810Y-71476193D01*
X51523810Y-71095240D01*
X51095238Y-72476193D02*
X51047619Y-72380955D01*
X51047619Y-72190478D01*
X51095238Y-72095240D01*
X51190476Y-72047621D01*
X51571429Y-72047621D01*
X51666667Y-72095240D01*
X51714286Y-72190478D01*
X51714286Y-72380955D01*
X51666667Y-72476193D01*
X51571429Y-72523812D01*
X51476190Y-72523812D01*
X51380952Y-72047621D01*
X51714286Y-72857145D02*
X51047619Y-73095240D01*
X51714286Y-73333336D01*
X51142857Y-73714288D02*
X51095238Y-73761907D01*
X51047619Y-73714288D01*
X51095238Y-73666669D01*
X51142857Y-73714288D01*
X51047619Y-73714288D01*
X51952381Y-74904764D02*
X52000000Y-74952383D01*
X52047619Y-75047621D01*
X52047619Y-75285717D01*
X52000000Y-75380955D01*
X51952381Y-75428574D01*
X51857143Y-75476193D01*
X51761905Y-75476193D01*
X51619048Y-75428574D01*
X51047619Y-74857145D01*
X51047619Y-75476193D01*
D10*
X96428571Y-47714286D02*
X96428571Y-47380952D01*
X96952381Y-47238095D02*
X96952381Y-47714286D01*
X95952381Y-47714286D01*
X95952381Y-47238095D01*
X95952381Y-52547619D02*
X96952381Y-51880952D01*
X95952381Y-51880952D02*
X96952381Y-52547619D01*
X95952381Y-51642857D02*
X95952381Y-51071428D01*
X96952381Y-51357143D02*
X95952381Y-51357143D01*
X96666667Y-50785714D02*
X96666667Y-50309523D01*
X96952381Y-50880952D02*
X95952381Y-50547619D01*
X96952381Y-50214285D01*
X96952381Y-49404761D02*
X96952381Y-49880952D01*
X95952381Y-49880952D01*
D12*
X74310000Y-46440000D02*
X74310000Y-51560000D01*
X71690000Y-46440000D02*
X71690000Y-51560000D01*
X74310000Y-46440000D02*
X73996000Y-46440000D01*
X72004000Y-46440000D02*
X71690000Y-46440000D01*
X74310000Y-51560000D02*
X73996000Y-51560000D01*
X72004000Y-51560000D02*
X71690000Y-51560000D01*
X60810000Y-68440000D02*
X60810000Y-73560000D01*
X58190000Y-68440000D02*
X58190000Y-73560000D01*
X60810000Y-68440000D02*
X60496000Y-68440000D01*
X58504000Y-68440000D02*
X58190000Y-68440000D01*
X60810000Y-73560000D02*
X60496000Y-73560000D01*
X58504000Y-73560000D02*
X58190000Y-73560000D01*
X73310000Y-34440000D02*
X73310000Y-39560000D01*
X70690000Y-34440000D02*
X70690000Y-39560000D01*
X73310000Y-34440000D02*
X72996000Y-34440000D01*
X71004000Y-34440000D02*
X70690000Y-34440000D01*
X73310000Y-39560000D02*
X72996000Y-39560000D01*
X71004000Y-39560000D02*
X70690000Y-39560000D01*
X73810000Y-57940000D02*
X73810000Y-63060000D01*
X71190000Y-57940000D02*
X71190000Y-63060000D01*
X73810000Y-57940000D02*
X73496000Y-57940000D01*
X71504000Y-57940000D02*
X71190000Y-57940000D01*
X73810000Y-63060000D02*
X73496000Y-63060000D01*
X71504000Y-63060000D02*
X71190000Y-63060000D01*
X102810000Y-67440000D02*
X102810000Y-72560000D01*
X100190000Y-67440000D02*
X100190000Y-72560000D01*
X102810000Y-67440000D02*
X102496000Y-67440000D01*
X100504000Y-67440000D02*
X100190000Y-67440000D01*
X102810000Y-72560000D02*
X102496000Y-72560000D01*
X100504000Y-72560000D02*
X100190000Y-72560000D01*
X86810000Y-68440000D02*
X86810000Y-73560000D01*
X84190000Y-68440000D02*
X84190000Y-73560000D01*
X86810000Y-68440000D02*
X86496000Y-68440000D01*
X84504000Y-68440000D02*
X84190000Y-68440000D01*
X86810000Y-73560000D02*
X86496000Y-73560000D01*
X84504000Y-73560000D02*
X84190000Y-73560000D01*
X102440000Y-31690000D02*
X107560000Y-31690000D01*
X102440000Y-34310000D02*
X107560000Y-34310000D01*
X102440000Y-31690000D02*
X102440000Y-32004000D01*
X102440000Y-33996000D02*
X102440000Y-34310000D01*
X107560000Y-31690000D02*
X107560000Y-32004000D01*
X107560000Y-33996000D02*
X107560000Y-34310000D01*
X62120000Y-34170000D02*
G75*
G02X60120000Y-34170000I-1000000J0D01*
G01*
X60120000Y-34170000D02*
X54660000Y-34170000D01*
X54660000Y-34170000D02*
X54660000Y-64770000D01*
X54660000Y-64770000D02*
X67580000Y-64770000D01*
X67580000Y-64770000D02*
X67580000Y-34170000D01*
X67580000Y-34170000D02*
X62120000Y-34170000D01*
X100330000Y-45590000D02*
X97670000Y-45590000D01*
X100330000Y-50730000D02*
X100330000Y-45590000D01*
X97670000Y-50730000D02*
X97670000Y-45590000D01*
X100330000Y-50730000D02*
X97670000Y-50730000D01*
X100330000Y-52000000D02*
X100330000Y-53330000D01*
X100330000Y-53330000D02*
X99000000Y-53330000D01*
X74670000Y-35690000D02*
G75*
G02X74670000Y-37690000I0J-1000000D01*
G01*
X74670000Y-37690000D02*
X74670000Y-39340000D01*
X74670000Y-39340000D02*
X100190000Y-39340000D01*
X100190000Y-39340000D02*
X100190000Y-34040000D01*
X100190000Y-34040000D02*
X74670000Y-34040000D01*
X74670000Y-34040000D02*
X74670000Y-35690000D01*
X75170000Y-59190000D02*
G75*
G02X75170000Y-61190000I0J-1000000D01*
G01*
X75170000Y-61190000D02*
X75170000Y-62840000D01*
X75170000Y-62840000D02*
X100690000Y-62840000D01*
X100690000Y-62840000D02*
X100690000Y-57540000D01*
X100690000Y-57540000D02*
X75170000Y-57540000D01*
X75170000Y-57540000D02*
X75170000Y-59190000D01*
X76170000Y-47690000D02*
G75*
G02X76170000Y-49690000I0J-1000000D01*
G01*
X76170000Y-49690000D02*
X76170000Y-51340000D01*
X76170000Y-51340000D02*
X94070000Y-51340000D01*
X94070000Y-51340000D02*
X94070000Y-46040000D01*
X94070000Y-46040000D02*
X76170000Y-46040000D01*
X76170000Y-46040000D02*
X76170000Y-47690000D01*
X88170000Y-70190000D02*
G75*
G02X88170000Y-72190000I0J-1000000D01*
G01*
X88170000Y-72190000D02*
X88170000Y-73840000D01*
X88170000Y-73840000D02*
X98450000Y-73840000D01*
X98450000Y-73840000D02*
X98450000Y-68540000D01*
X98450000Y-68540000D02*
X88170000Y-68540000D01*
X88170000Y-68540000D02*
X88170000Y-70190000D01*
X112120000Y-35670000D02*
G75*
G02X110120000Y-35670000I-1000000J0D01*
G01*
X110120000Y-35670000D02*
X104660000Y-35670000D01*
X104660000Y-35670000D02*
X104660000Y-66270000D01*
X104660000Y-66270000D02*
X117580000Y-66270000D01*
X117580000Y-66270000D02*
X117580000Y-35670000D01*
X117580000Y-35670000D02*
X112120000Y-35670000D01*
X119030000Y-75830000D02*
X119030000Y-73170000D01*
X106270000Y-75830000D02*
X119030000Y-75830000D01*
X106270000Y-73170000D02*
X119030000Y-73170000D01*
X106270000Y-75830000D02*
X106270000Y-73170000D01*
X105000000Y-75830000D02*
X103670000Y-75830000D01*
X103670000Y-75830000D02*
X103670000Y-74500000D01*
X120830000Y-67130000D02*
X118170000Y-67130000D01*
X120830000Y-69730000D02*
X120830000Y-67130000D01*
X118170000Y-69730000D02*
X118170000Y-67130000D01*
X120830000Y-69730000D02*
X118170000Y-69730000D01*
X120830000Y-71000000D02*
X120830000Y-72330000D01*
X120830000Y-72330000D02*
X119500000Y-72330000D01*
X111870000Y-31690000D02*
X111870000Y-34310000D01*
X111870000Y-34310000D02*
X118290000Y-34310000D01*
X118290000Y-34310000D02*
X118290000Y-31690000D01*
X118290000Y-31690000D02*
X111870000Y-31690000D01*
X110980000Y-33000000D02*
X111870000Y-33000000D01*
X119180000Y-33000000D02*
X118290000Y-33000000D01*
X114130000Y-70310000D02*
X114130000Y-67690000D01*
X114130000Y-67690000D02*
X107710000Y-67690000D01*
X107710000Y-67690000D02*
X107710000Y-70310000D01*
X107710000Y-70310000D02*
X114130000Y-70310000D01*
X115020000Y-69000000D02*
X114130000Y-69000000D01*
X106820000Y-69000000D02*
X107710000Y-69000000D01*
X62170000Y-70190000D02*
G75*
G02X62170000Y-72190000I0J-1000000D01*
G01*
X62170000Y-72190000D02*
X62170000Y-73840000D01*
X62170000Y-73840000D02*
X80070000Y-73840000D01*
X80070000Y-73840000D02*
X80070000Y-68540000D01*
X80070000Y-68540000D02*
X62170000Y-68540000D01*
X62170000Y-68540000D02*
X62170000Y-70190000D01*
D11*
X75357143Y-49166666D02*
X75404762Y-49214285D01*
X75452381Y-49357142D01*
X75452381Y-49452380D01*
X75404762Y-49595238D01*
X75309524Y-49690476D01*
X75214286Y-49738095D01*
X75023810Y-49785714D01*
X74880952Y-49785714D01*
X74690476Y-49738095D01*
X74595238Y-49690476D01*
X74500000Y-49595238D01*
X74452381Y-49452380D01*
X74452381Y-49357142D01*
X74500000Y-49214285D01*
X74547619Y-49166666D01*
X75452381Y-48214285D02*
X75452381Y-48785714D01*
X75452381Y-48500000D02*
X74452381Y-48500000D01*
X74595238Y-48595238D01*
X74690476Y-48690476D01*
X74738095Y-48785714D01*
X62417143Y-71166666D02*
X62464762Y-71214285D01*
X62512381Y-71357142D01*
X62512381Y-71452380D01*
X62464762Y-71595238D01*
X62369524Y-71690476D01*
X62274286Y-71738095D01*
X62083810Y-71785714D01*
X61940952Y-71785714D01*
X61750476Y-71738095D01*
X61655238Y-71690476D01*
X61560000Y-71595238D01*
X61512381Y-71452380D01*
X61512381Y-71357142D01*
X61560000Y-71214285D01*
X61607619Y-71166666D01*
X61607619Y-70785714D02*
X61560000Y-70738095D01*
X61512381Y-70642857D01*
X61512381Y-70404761D01*
X61560000Y-70309523D01*
X61607619Y-70261904D01*
X61702857Y-70214285D01*
X61798095Y-70214285D01*
X61940952Y-70261904D01*
X62512381Y-70833333D01*
X62512381Y-70214285D01*
X74357143Y-37166666D02*
X74404762Y-37214285D01*
X74452381Y-37357142D01*
X74452381Y-37452380D01*
X74404762Y-37595238D01*
X74309524Y-37690476D01*
X74214286Y-37738095D01*
X74023810Y-37785714D01*
X73880952Y-37785714D01*
X73690476Y-37738095D01*
X73595238Y-37690476D01*
X73500000Y-37595238D01*
X73452381Y-37452380D01*
X73452381Y-37357142D01*
X73500000Y-37214285D01*
X73547619Y-37166666D01*
X73452381Y-36833333D02*
X73452381Y-36214285D01*
X73833333Y-36547619D01*
X73833333Y-36404761D01*
X73880952Y-36309523D01*
X73928571Y-36261904D01*
X74023810Y-36214285D01*
X74261905Y-36214285D01*
X74357143Y-36261904D01*
X74404762Y-36309523D01*
X74452381Y-36404761D01*
X74452381Y-36690476D01*
X74404762Y-36785714D01*
X74357143Y-36833333D01*
X74857143Y-60666666D02*
X74904762Y-60714285D01*
X74952381Y-60857142D01*
X74952381Y-60952380D01*
X74904762Y-61095238D01*
X74809524Y-61190476D01*
X74714286Y-61238095D01*
X74523810Y-61285714D01*
X74380952Y-61285714D01*
X74190476Y-61238095D01*
X74095238Y-61190476D01*
X74000000Y-61095238D01*
X73952381Y-60952380D01*
X73952381Y-60857142D01*
X74000000Y-60714285D01*
X74047619Y-60666666D01*
X74285714Y-59809523D02*
X74952381Y-59809523D01*
X73904762Y-60047619D02*
X74619048Y-60285714D01*
X74619048Y-59666666D01*
X103857143Y-68666666D02*
X103904762Y-68714285D01*
X103952381Y-68857142D01*
X103952381Y-68952380D01*
X103904762Y-69095238D01*
X103809524Y-69190476D01*
X103714286Y-69238095D01*
X103523810Y-69285714D01*
X103380952Y-69285714D01*
X103190476Y-69238095D01*
X103095238Y-69190476D01*
X103000000Y-69095238D01*
X102952381Y-68952380D01*
X102952381Y-68857142D01*
X103000000Y-68714285D01*
X103047619Y-68666666D01*
X102952381Y-67761904D02*
X102952381Y-68238095D01*
X103428571Y-68285714D01*
X103380952Y-68238095D01*
X103333333Y-68142857D01*
X103333333Y-67904761D01*
X103380952Y-67809523D01*
X103428571Y-67761904D01*
X103523810Y-67714285D01*
X103761905Y-67714285D01*
X103857143Y-67761904D01*
X103904762Y-67809523D01*
X103952381Y-67904761D01*
X103952381Y-68142857D01*
X103904762Y-68238095D01*
X103857143Y-68285714D01*
X85333334Y-75857143D02*
X85285715Y-75904762D01*
X85142858Y-75952381D01*
X85047620Y-75952381D01*
X84904762Y-75904762D01*
X84809524Y-75809524D01*
X84761905Y-75714286D01*
X84714286Y-75523810D01*
X84714286Y-75380952D01*
X84761905Y-75190476D01*
X84809524Y-75095238D01*
X84904762Y-75000000D01*
X85047620Y-74952381D01*
X85142858Y-74952381D01*
X85285715Y-75000000D01*
X85333334Y-75047619D01*
X86190477Y-74952381D02*
X86000000Y-74952381D01*
X85904762Y-75000000D01*
X85857143Y-75047619D01*
X85761905Y-75190476D01*
X85714286Y-75380952D01*
X85714286Y-75761905D01*
X85761905Y-75857143D01*
X85809524Y-75904762D01*
X85904762Y-75952381D01*
X86095239Y-75952381D01*
X86190477Y-75904762D01*
X86238096Y-75857143D01*
X86285715Y-75761905D01*
X86285715Y-75523810D01*
X86238096Y-75428571D01*
X86190477Y-75380952D01*
X86095239Y-75333333D01*
X85904762Y-75333333D01*
X85809524Y-75380952D01*
X85761905Y-75428571D01*
X85714286Y-75523810D01*
X104833334Y-31357143D02*
X104785715Y-31404762D01*
X104642858Y-31452381D01*
X104547620Y-31452381D01*
X104404762Y-31404762D01*
X104309524Y-31309524D01*
X104261905Y-31214286D01*
X104214286Y-31023810D01*
X104214286Y-30880952D01*
X104261905Y-30690476D01*
X104309524Y-30595238D01*
X104404762Y-30500000D01*
X104547620Y-30452381D01*
X104642858Y-30452381D01*
X104785715Y-30500000D01*
X104833334Y-30547619D01*
X105166667Y-30452381D02*
X105833334Y-30452381D01*
X105404762Y-31452381D01*
X60786667Y-32622381D02*
X60786667Y-33336667D01*
X60739047Y-33479524D01*
X60643809Y-33574762D01*
X60500952Y-33622381D01*
X60405714Y-33622381D01*
X61786667Y-33622381D02*
X61215238Y-33622381D01*
X61500952Y-33622381D02*
X61500952Y-32622381D01*
X61405714Y-32765238D01*
X61310476Y-32860476D01*
X61215238Y-32908095D01*
X98166667Y-53952381D02*
X98166667Y-54666667D01*
X98119047Y-54809524D01*
X98023809Y-54904762D01*
X97880952Y-54952381D01*
X97785714Y-54952381D01*
X98642857Y-54952381D02*
X98642857Y-53952381D01*
X99023810Y-53952381D01*
X99119048Y-54000000D01*
X99166667Y-54047619D01*
X99214286Y-54142857D01*
X99214286Y-54285714D01*
X99166667Y-54380952D01*
X99119048Y-54428571D01*
X99023810Y-54476190D01*
X98642857Y-54476190D01*
X100166667Y-54952381D02*
X99595238Y-54952381D01*
X99880952Y-54952381D02*
X99880952Y-53952381D01*
X99785714Y-54095238D01*
X99690476Y-54190476D01*
X99595238Y-54238095D01*
X84452381Y-37261905D02*
X85261905Y-37261905D01*
X85357143Y-37214286D01*
X85404762Y-37166667D01*
X85452381Y-37071429D01*
X85452381Y-36880952D01*
X85404762Y-36785714D01*
X85357143Y-36738095D01*
X85261905Y-36690476D01*
X84452381Y-36690476D01*
X84547619Y-36261905D02*
X84500000Y-36214286D01*
X84452381Y-36119048D01*
X84452381Y-35880952D01*
X84500000Y-35785714D01*
X84547619Y-35738095D01*
X84642857Y-35690476D01*
X84738095Y-35690476D01*
X84880952Y-35738095D01*
X85452381Y-36309524D01*
X85452381Y-35690476D01*
X85452381Y-60761905D02*
X86261905Y-60761905D01*
X86357143Y-60714286D01*
X86404762Y-60666667D01*
X86452381Y-60571429D01*
X86452381Y-60380952D01*
X86404762Y-60285714D01*
X86357143Y-60238095D01*
X86261905Y-60190476D01*
X85452381Y-60190476D01*
X85452381Y-59809524D02*
X85452381Y-59190476D01*
X85833333Y-59523810D01*
X85833333Y-59380952D01*
X85880952Y-59285714D01*
X85928571Y-59238095D01*
X86023810Y-59190476D01*
X86261905Y-59190476D01*
X86357143Y-59238095D01*
X86404762Y-59285714D01*
X86452381Y-59380952D01*
X86452381Y-59666667D01*
X86404762Y-59761905D01*
X86357143Y-59809524D01*
X82452381Y-49261905D02*
X83261905Y-49261905D01*
X83357143Y-49214286D01*
X83404762Y-49166667D01*
X83452381Y-49071429D01*
X83452381Y-48880952D01*
X83404762Y-48785714D01*
X83357143Y-48738095D01*
X83261905Y-48690476D01*
X82452381Y-48690476D01*
X82785714Y-47785714D02*
X83452381Y-47785714D01*
X82404762Y-48023810D02*
X83119048Y-48261905D01*
X83119048Y-47642857D01*
X90952381Y-71761905D02*
X91761905Y-71761905D01*
X91857143Y-71714286D01*
X91904762Y-71666667D01*
X91952381Y-71571429D01*
X91952381Y-71380952D01*
X91904762Y-71285714D01*
X91857143Y-71238095D01*
X91761905Y-71190476D01*
X90952381Y-71190476D01*
X90952381Y-70238095D02*
X90952381Y-70714286D01*
X91428571Y-70761905D01*
X91380952Y-70714286D01*
X91333333Y-70619048D01*
X91333333Y-70380952D01*
X91380952Y-70285714D01*
X91428571Y-70238095D01*
X91523810Y-70190476D01*
X91761905Y-70190476D01*
X91857143Y-70238095D01*
X91904762Y-70285714D01*
X91952381Y-70380952D01*
X91952381Y-70619048D01*
X91904762Y-70714286D01*
X91857143Y-70761905D01*
X110238095Y-48452381D02*
X110238095Y-49261905D01*
X110285714Y-49357143D01*
X110333333Y-49404762D01*
X110428571Y-49452381D01*
X110619048Y-49452381D01*
X110714286Y-49404762D01*
X110761905Y-49357143D01*
X110809524Y-49261905D01*
X110809524Y-48452381D01*
X111714286Y-48452381D02*
X111523809Y-48452381D01*
X111428571Y-48500000D01*
X111380952Y-48547619D01*
X111285714Y-48690476D01*
X111238095Y-48880952D01*
X111238095Y-49261905D01*
X111285714Y-49357143D01*
X111333333Y-49404762D01*
X111428571Y-49452381D01*
X111619048Y-49452381D01*
X111714286Y-49404762D01*
X111761905Y-49357143D01*
X111809524Y-49261905D01*
X111809524Y-49023810D01*
X111761905Y-48928571D01*
X111714286Y-48880952D01*
X111619048Y-48833333D01*
X111428571Y-48833333D01*
X111333333Y-48880952D01*
X111285714Y-48928571D01*
X111238095Y-49023810D01*
X102122381Y-74833333D02*
X102836667Y-74833333D01*
X102979524Y-74880953D01*
X103074762Y-74976191D01*
X103122381Y-75119048D01*
X103122381Y-75214286D01*
X102217619Y-74404762D02*
X102170000Y-74357143D01*
X102122381Y-74261905D01*
X102122381Y-74023809D01*
X102170000Y-73928571D01*
X102217619Y-73880952D01*
X102312857Y-73833333D01*
X102408095Y-73833333D01*
X102550952Y-73880952D01*
X103122381Y-74452381D01*
X103122381Y-73833333D01*
X120452381Y-74833333D02*
X121166667Y-74833333D01*
X121309524Y-74880953D01*
X121404762Y-74976191D01*
X121452381Y-75119048D01*
X121452381Y-75214286D01*
X121452381Y-74357143D02*
X120452381Y-74357143D01*
X120452381Y-73976190D01*
X120500000Y-73880952D01*
X120547619Y-73833333D01*
X120642857Y-73785714D01*
X120785714Y-73785714D01*
X120880952Y-73833333D01*
X120928571Y-73880952D01*
X120976190Y-73976190D01*
X120976190Y-74357143D01*
X120547619Y-73404762D02*
X120500000Y-73357143D01*
X120452381Y-73261905D01*
X120452381Y-73023809D01*
X120500000Y-72928571D01*
X120547619Y-72880952D01*
X120642857Y-72833333D01*
X120738095Y-72833333D01*
X120880952Y-72880952D01*
X121452381Y-73452381D01*
X121452381Y-72833333D01*
X114833334Y-31452381D02*
X114500000Y-30976190D01*
X114261905Y-31452381D02*
X114261905Y-30452381D01*
X114642858Y-30452381D01*
X114738096Y-30500000D01*
X114785715Y-30547619D01*
X114833334Y-30642857D01*
X114833334Y-30785714D01*
X114785715Y-30880952D01*
X114738096Y-30928571D01*
X114642858Y-30976190D01*
X114261905Y-30976190D01*
X115785715Y-31452381D02*
X115214286Y-31452381D01*
X115500000Y-31452381D02*
X115500000Y-30452381D01*
X115404762Y-30595238D01*
X115309524Y-30690476D01*
X115214286Y-30738095D01*
X110833334Y-67452381D02*
X110500000Y-66976190D01*
X110261905Y-67452381D02*
X110261905Y-66452381D01*
X110642858Y-66452381D01*
X110738096Y-66500000D01*
X110785715Y-66547619D01*
X110833334Y-66642857D01*
X110833334Y-66785714D01*
X110785715Y-66880952D01*
X110738096Y-66928571D01*
X110642858Y-66976190D01*
X110261905Y-66976190D01*
X111214286Y-66547619D02*
X111261905Y-66500000D01*
X111357143Y-66452381D01*
X111595239Y-66452381D01*
X111690477Y-66500000D01*
X111738096Y-66547619D01*
X111785715Y-66642857D01*
X111785715Y-66738095D01*
X111738096Y-66880952D01*
X111166667Y-67452381D01*
X111785715Y-67452381D01*
X64952381Y-71761905D02*
X65761905Y-71761905D01*
X65857143Y-71714286D01*
X65904762Y-71666667D01*
X65952381Y-71571429D01*
X65952381Y-71380952D01*
X65904762Y-71285714D01*
X65857143Y-71238095D01*
X65761905Y-71190476D01*
X64952381Y-71190476D01*
X65952381Y-70190476D02*
X65952381Y-70761905D01*
X65952381Y-70476191D02*
X64952381Y-70476191D01*
X65095238Y-70571429D01*
X65190476Y-70666667D01*
X65238095Y-70761905D01*
M02*
