G04 #@! TF.FileFunction,Soldermask,Bot*
%FSLAX46Y46*%
G04 Gerber Fmt 4.6, Leading zero omitted, Abs format (unit mm)*
G04 Created by KiCad (PCBNEW 4.0.7) date 09/03/18 17:01:03*
%MOMM*%
%LPD*%
G01*
G04 APERTURE LIST*
%ADD10C,0.100000*%
%ADD11C,2.000000*%
%ADD12R,2.000000X2.000000*%
%ADD13O,2.000000X2.000000*%
%ADD14R,2.100000X2.100000*%
%ADD15O,2.100000X2.100000*%
G04 APERTURE END LIST*
D10*
D11*
X73000000Y-47000000D03*
X73000000Y-52000000D03*
X69000000Y-74500000D03*
X69000000Y-69500000D03*
X72000000Y-35500000D03*
X72000000Y-40500000D03*
X72500000Y-58500000D03*
X72500000Y-63500000D03*
X108000000Y-69500000D03*
X103000000Y-69500000D03*
X86000000Y-68500000D03*
X86000000Y-73500000D03*
X104500000Y-33000000D03*
X109500000Y-33000000D03*
D12*
X54000000Y-37000000D03*
D13*
X69240000Y-64940000D03*
X54000000Y-39540000D03*
X69240000Y-62400000D03*
X54000000Y-42080000D03*
X69240000Y-59860000D03*
X54000000Y-44620000D03*
X69240000Y-57320000D03*
X54000000Y-47160000D03*
X69240000Y-54780000D03*
X54000000Y-49700000D03*
X69240000Y-52240000D03*
X54000000Y-52240000D03*
X69240000Y-49700000D03*
X54000000Y-54780000D03*
X69240000Y-47160000D03*
X54000000Y-57320000D03*
X69240000Y-44620000D03*
X54000000Y-59860000D03*
X69240000Y-42080000D03*
X54000000Y-62400000D03*
X69240000Y-39540000D03*
X54000000Y-64940000D03*
X69240000Y-37000000D03*
D14*
X112000000Y-71000000D03*
D15*
X112000000Y-73540000D03*
D14*
X100000000Y-52000000D03*
D15*
X100000000Y-49460000D03*
X100000000Y-46920000D03*
D12*
X76000000Y-41500000D03*
D13*
X98860000Y-33880000D03*
X78540000Y-41500000D03*
X96320000Y-33880000D03*
X81080000Y-41500000D03*
X93780000Y-33880000D03*
X83620000Y-41500000D03*
X91240000Y-33880000D03*
X86160000Y-41500000D03*
X88700000Y-33880000D03*
X88700000Y-41500000D03*
X86160000Y-33880000D03*
X91240000Y-41500000D03*
X83620000Y-33880000D03*
X93780000Y-41500000D03*
X81080000Y-33880000D03*
X96320000Y-41500000D03*
X78540000Y-33880000D03*
X98860000Y-41500000D03*
X76000000Y-33880000D03*
D12*
X76500000Y-64500000D03*
D13*
X99360000Y-56880000D03*
X79040000Y-64500000D03*
X96820000Y-56880000D03*
X81580000Y-64500000D03*
X94280000Y-56880000D03*
X84120000Y-64500000D03*
X91740000Y-56880000D03*
X86660000Y-64500000D03*
X89200000Y-56880000D03*
X89200000Y-64500000D03*
X86660000Y-56880000D03*
X91740000Y-64500000D03*
X84120000Y-56880000D03*
X94280000Y-64500000D03*
X81580000Y-56880000D03*
X96820000Y-64500000D03*
X79040000Y-56880000D03*
X99360000Y-64500000D03*
X76500000Y-56880000D03*
D12*
X78500000Y-53000000D03*
D13*
X93740000Y-45380000D03*
X81040000Y-53000000D03*
X91200000Y-45380000D03*
X83580000Y-53000000D03*
X88660000Y-45380000D03*
X86120000Y-53000000D03*
X86120000Y-45380000D03*
X88660000Y-53000000D03*
X83580000Y-45380000D03*
X91200000Y-53000000D03*
X81040000Y-45380000D03*
X93740000Y-53000000D03*
X78500000Y-45380000D03*
D12*
X89500000Y-75000000D03*
D13*
X97120000Y-67380000D03*
X92040000Y-75000000D03*
X94580000Y-67380000D03*
X94580000Y-75000000D03*
X92040000Y-67380000D03*
X97120000Y-75000000D03*
X89500000Y-67380000D03*
D12*
X103500000Y-37000000D03*
D13*
X118740000Y-64940000D03*
X103500000Y-39540000D03*
X118740000Y-62400000D03*
X103500000Y-42080000D03*
X118740000Y-59860000D03*
X103500000Y-44620000D03*
X118740000Y-57320000D03*
X103500000Y-47160000D03*
X118740000Y-54780000D03*
X103500000Y-49700000D03*
X118740000Y-52240000D03*
X103500000Y-52240000D03*
X118740000Y-49700000D03*
X103500000Y-54780000D03*
X118740000Y-47160000D03*
X103500000Y-57320000D03*
X118740000Y-44620000D03*
X103500000Y-59860000D03*
X118740000Y-42080000D03*
X103500000Y-62400000D03*
X118740000Y-39540000D03*
X103500000Y-64940000D03*
X118740000Y-37000000D03*
M02*
