G04 #@! TF.FileFunction,Copper,L1,Top,Signal*
%FSLAX46Y46*%
G04 Gerber Fmt 4.6, Leading zero omitted, Abs format (unit mm)*
G04 Created by KiCad (PCBNEW 4.0.7) date 10/14/18 11:55:26*
%MOMM*%
%LPD*%
G01*
G04 APERTURE LIST*
%ADD10C,0.100000*%
%ADD11C,1.524000*%
%ADD12C,1.600000*%
%ADD13R,1.600000X1.600000*%
%ADD14O,1.600000X1.600000*%
%ADD15R,1.700000X1.700000*%
%ADD16O,1.700000X1.700000*%
%ADD17C,0.600000*%
%ADD18C,0.500000*%
%ADD19C,0.250000*%
%ADD20C,0.254000*%
G04 APERTURE END LIST*
D10*
D11*
X120500000Y-75270000D03*
D12*
X73000000Y-46500000D03*
X73000000Y-51500000D03*
X59500000Y-68500000D03*
X59500000Y-73500000D03*
X72000000Y-34500000D03*
X72000000Y-39500000D03*
X72500000Y-58000000D03*
X72500000Y-63000000D03*
X101500000Y-67500000D03*
X101500000Y-72500000D03*
X85500000Y-68500000D03*
X85500000Y-73500000D03*
X102500000Y-33000000D03*
X107500000Y-33000000D03*
D13*
X53500000Y-35500000D03*
D14*
X68740000Y-63440000D03*
X53500000Y-38040000D03*
X68740000Y-60900000D03*
X53500000Y-40580000D03*
X68740000Y-58360000D03*
X53500000Y-43120000D03*
X68740000Y-55820000D03*
X53500000Y-45660000D03*
X68740000Y-53280000D03*
X53500000Y-48200000D03*
X68740000Y-50740000D03*
X53500000Y-50740000D03*
X68740000Y-48200000D03*
X53500000Y-53280000D03*
X68740000Y-45660000D03*
X53500000Y-55820000D03*
X68740000Y-43120000D03*
X53500000Y-58360000D03*
X68740000Y-40580000D03*
X53500000Y-60900000D03*
X68740000Y-38040000D03*
X53500000Y-63440000D03*
X68740000Y-35500000D03*
D15*
X99000000Y-52000000D03*
D16*
X99000000Y-49460000D03*
X99000000Y-46920000D03*
D13*
X76000000Y-40500000D03*
D14*
X98860000Y-32880000D03*
X78540000Y-40500000D03*
X96320000Y-32880000D03*
X81080000Y-40500000D03*
X93780000Y-32880000D03*
X83620000Y-40500000D03*
X91240000Y-32880000D03*
X86160000Y-40500000D03*
X88700000Y-32880000D03*
X88700000Y-40500000D03*
X86160000Y-32880000D03*
X91240000Y-40500000D03*
X83620000Y-32880000D03*
X93780000Y-40500000D03*
X81080000Y-32880000D03*
X96320000Y-40500000D03*
X78540000Y-32880000D03*
X98860000Y-40500000D03*
X76000000Y-32880000D03*
D13*
X76500000Y-64000000D03*
D14*
X99360000Y-56380000D03*
X79040000Y-64000000D03*
X96820000Y-56380000D03*
X81580000Y-64000000D03*
X94280000Y-56380000D03*
X84120000Y-64000000D03*
X91740000Y-56380000D03*
X86660000Y-64000000D03*
X89200000Y-56380000D03*
X89200000Y-64000000D03*
X86660000Y-56380000D03*
X91740000Y-64000000D03*
X84120000Y-56380000D03*
X94280000Y-64000000D03*
X81580000Y-56380000D03*
X96820000Y-64000000D03*
X79040000Y-56380000D03*
X99360000Y-64000000D03*
X76500000Y-56380000D03*
D13*
X77500000Y-52500000D03*
D14*
X92740000Y-44880000D03*
X80040000Y-52500000D03*
X90200000Y-44880000D03*
X82580000Y-52500000D03*
X87660000Y-44880000D03*
X85120000Y-52500000D03*
X85120000Y-44880000D03*
X87660000Y-52500000D03*
X82580000Y-44880000D03*
X90200000Y-52500000D03*
X80040000Y-44880000D03*
X92740000Y-52500000D03*
X77500000Y-44880000D03*
D13*
X89500000Y-75000000D03*
D14*
X97120000Y-67380000D03*
X92040000Y-75000000D03*
X94580000Y-67380000D03*
X94580000Y-75000000D03*
X92040000Y-67380000D03*
X97120000Y-75000000D03*
X89500000Y-67380000D03*
D13*
X103500000Y-37000000D03*
D14*
X118740000Y-64940000D03*
X103500000Y-39540000D03*
X118740000Y-62400000D03*
X103500000Y-42080000D03*
X118740000Y-59860000D03*
X103500000Y-44620000D03*
X118740000Y-57320000D03*
X103500000Y-47160000D03*
X118740000Y-54780000D03*
X103500000Y-49700000D03*
X118740000Y-52240000D03*
X103500000Y-52240000D03*
X118740000Y-49700000D03*
X103500000Y-54780000D03*
X118740000Y-47160000D03*
X103500000Y-57320000D03*
X118740000Y-44620000D03*
X103500000Y-59860000D03*
X118740000Y-42080000D03*
X103500000Y-62400000D03*
X118740000Y-39540000D03*
X103500000Y-64940000D03*
X118740000Y-37000000D03*
D15*
X105000000Y-74500000D03*
D16*
X107540000Y-74500000D03*
X110080000Y-74500000D03*
X112620000Y-74500000D03*
X115160000Y-74500000D03*
X117700000Y-74500000D03*
D15*
X119500000Y-71000000D03*
D16*
X119500000Y-68460000D03*
D12*
X110000000Y-33000000D03*
D14*
X120160000Y-33000000D03*
D12*
X116000000Y-69000000D03*
D14*
X105840000Y-69000000D03*
D13*
X63500000Y-75000000D03*
D14*
X78740000Y-67380000D03*
X66040000Y-75000000D03*
X76200000Y-67380000D03*
X68580000Y-75000000D03*
X73660000Y-67380000D03*
X71120000Y-75000000D03*
X71120000Y-67380000D03*
X73660000Y-75000000D03*
X68580000Y-67380000D03*
X76200000Y-75000000D03*
X66040000Y-67380000D03*
X78740000Y-75000000D03*
X63500000Y-67380000D03*
D11*
X54500000Y-71270000D03*
D17*
X88175300Y-59785800D03*
X112622700Y-45279800D03*
X71588300Y-61830800D03*
X80855900Y-59144500D03*
X74038000Y-62474400D03*
X73848900Y-64643700D03*
X83066400Y-61420200D03*
X67946900Y-54635700D03*
X113396900Y-52666200D03*
D18*
X60620000Y-67380000D02*
X59500000Y-68500000D01*
X63500000Y-67380000D02*
X60620000Y-67380000D01*
X69710300Y-36789700D02*
X72000000Y-34500000D01*
X56000600Y-36789700D02*
X69710300Y-36789700D01*
X54750300Y-38040000D02*
X56000600Y-36789700D01*
X53500000Y-38040000D02*
X54750300Y-38040000D01*
X90750300Y-67923900D02*
X90750300Y-67380000D01*
X91826400Y-69000000D02*
X90750300Y-67923900D01*
X105840000Y-69000000D02*
X91826400Y-69000000D01*
X89500000Y-67380000D02*
X90750300Y-67380000D01*
X107500000Y-35305600D02*
X107500000Y-33000000D01*
X104515900Y-38289700D02*
X107500000Y-35305600D01*
X103500000Y-38289700D02*
X104515900Y-38289700D01*
X103500000Y-39540000D02*
X103500000Y-38289700D01*
X100149700Y-38289700D02*
X103500000Y-38289700D01*
X95990300Y-34130300D02*
X100149700Y-38289700D01*
X77953500Y-34130300D02*
X95990300Y-34130300D01*
X77250300Y-33427100D02*
X77953500Y-34130300D01*
X77250300Y-32880000D02*
X77250300Y-33427100D01*
X76000000Y-32880000D02*
X77250300Y-32880000D01*
X86620000Y-67380000D02*
X85500000Y-68500000D01*
X89500000Y-67380000D02*
X86620000Y-67380000D01*
X64750300Y-67923900D02*
X64750300Y-67380000D01*
X65473000Y-68646600D02*
X64750300Y-67923900D01*
X85353400Y-68646600D02*
X65473000Y-68646600D01*
X85500000Y-68500000D02*
X85353400Y-68646600D01*
X63500000Y-67380000D02*
X64750300Y-67380000D01*
X71456700Y-73500000D02*
X59500000Y-73500000D01*
X72409700Y-74453000D02*
X71456700Y-73500000D01*
X72409700Y-75000000D02*
X72409700Y-74453000D01*
X73660000Y-75000000D02*
X72409700Y-75000000D01*
X73660000Y-75000000D02*
X74910300Y-75000000D01*
X74910300Y-75543900D02*
X74910300Y-75000000D01*
X75664200Y-76297800D02*
X74910300Y-75543900D01*
X76738900Y-76297800D02*
X75664200Y-76297800D01*
X77489700Y-75547000D02*
X76738900Y-76297800D01*
X77489700Y-75000000D02*
X77489700Y-75547000D01*
X78740000Y-75000000D02*
X77489700Y-75000000D01*
X81490300Y-73500000D02*
X79990300Y-75000000D01*
X85500000Y-73500000D02*
X81490300Y-73500000D01*
X78740000Y-75000000D02*
X79990300Y-75000000D01*
X102500000Y-34749700D02*
X102500000Y-33000000D01*
X103500000Y-35749700D02*
X102500000Y-34749700D01*
X103500000Y-37000000D02*
X103500000Y-35749700D01*
X80040000Y-52500000D02*
X77500000Y-52500000D01*
X74000000Y-52500000D02*
X73000000Y-51500000D01*
X77500000Y-52500000D02*
X74000000Y-52500000D01*
X76500000Y-64000000D02*
X75249700Y-64000000D01*
X73393400Y-63893400D02*
X72500000Y-63000000D01*
X75143100Y-63893400D02*
X73393400Y-63893400D01*
X75249700Y-64000000D02*
X75143100Y-63893400D01*
X118114900Y-57320000D02*
X117489700Y-57320000D01*
X118114900Y-57320000D02*
X118740000Y-57320000D01*
X117955600Y-67500000D02*
X101500000Y-67500000D01*
X120023300Y-65432300D02*
X117955600Y-67500000D01*
X120023300Y-59306600D02*
X120023300Y-65432300D01*
X119287000Y-58570300D02*
X120023300Y-59306600D01*
X118740000Y-58570300D02*
X119287000Y-58570300D01*
X118740000Y-57320000D02*
X118740000Y-58570300D01*
X116200100Y-58609600D02*
X117489700Y-57320000D01*
X98550100Y-58609600D02*
X116200100Y-58609600D01*
X98174300Y-58985400D02*
X98550100Y-58609600D01*
X81796300Y-58985400D02*
X98174300Y-58985400D01*
X81166800Y-58355900D02*
X81796300Y-58985400D01*
X76329900Y-58355900D02*
X81166800Y-58355900D01*
X73794000Y-55820000D02*
X76329900Y-58355900D01*
X68740000Y-55820000D02*
X73794000Y-55820000D01*
D19*
X116489400Y-63814700D02*
X117614700Y-64940000D01*
X102000000Y-63814700D02*
X116489400Y-63814700D01*
X100238200Y-65576500D02*
X102000000Y-63814700D01*
X72001800Y-65576500D02*
X100238200Y-65576500D01*
X69865300Y-63440000D02*
X72001800Y-65576500D01*
X68740000Y-63440000D02*
X69865300Y-63440000D01*
X118740000Y-64940000D02*
X117614700Y-64940000D01*
X70014100Y-60751200D02*
X69865300Y-60900000D01*
X87331600Y-60751200D02*
X70014100Y-60751200D01*
X87855100Y-61274700D02*
X87331600Y-60751200D01*
X116489400Y-61274700D02*
X87855100Y-61274700D01*
X117614700Y-62400000D02*
X116489400Y-61274700D01*
X118740000Y-62400000D02*
X117614700Y-62400000D01*
X68740000Y-60900000D02*
X69865300Y-60900000D01*
X68740000Y-58360000D02*
X69865300Y-58360000D01*
X110692900Y-43350000D02*
X112622700Y-45279800D01*
X100014000Y-43350000D02*
X110692900Y-43350000D01*
X97445300Y-40781300D02*
X100014000Y-43350000D01*
X97445300Y-40500000D02*
X97445300Y-40781300D01*
X96320000Y-40500000D02*
X97445300Y-40500000D01*
X71291100Y-59785800D02*
X88175300Y-59785800D01*
X69865300Y-58360000D02*
X71291100Y-59785800D01*
X82247800Y-61830800D02*
X71588300Y-61830800D01*
X83291700Y-62874700D02*
X82247800Y-61830800D01*
X84690800Y-62874700D02*
X83291700Y-62874700D01*
X85534700Y-63718600D02*
X84690800Y-62874700D01*
X85534700Y-64000000D02*
X85534700Y-63718600D01*
X86660000Y-64000000D02*
X85534700Y-64000000D01*
X68740000Y-48200000D02*
X68740000Y-49325300D01*
X71324700Y-59144500D02*
X80855900Y-59144500D01*
X69228300Y-57048100D02*
X71324700Y-59144500D01*
X68284300Y-57048100D02*
X69228300Y-57048100D01*
X67297400Y-56061200D02*
X68284300Y-57048100D01*
X67297400Y-50486600D02*
X67297400Y-56061200D01*
X68458700Y-49325300D02*
X67297400Y-50486600D01*
X68740000Y-49325300D02*
X68458700Y-49325300D01*
X78540000Y-40500000D02*
X77414700Y-40500000D01*
X53500000Y-53280000D02*
X54625300Y-53280000D01*
X78770000Y-43402500D02*
X76992800Y-41625300D01*
X78770000Y-46939500D02*
X78770000Y-43402500D01*
X83850000Y-52019500D02*
X78770000Y-46939500D01*
X83850000Y-54031800D02*
X83850000Y-52019500D01*
X85390000Y-55571800D02*
X83850000Y-54031800D01*
X85390000Y-56730100D02*
X85390000Y-55571800D01*
X86165200Y-57505300D02*
X85390000Y-56730100D01*
X94771300Y-57505300D02*
X86165200Y-57505300D01*
X95550000Y-56726600D02*
X94771300Y-57505300D01*
X95550000Y-56052500D02*
X95550000Y-56726600D01*
X96822500Y-54780000D02*
X95550000Y-56052500D01*
X103500000Y-54780000D02*
X96822500Y-54780000D01*
X77414700Y-41203400D02*
X76992800Y-41625300D01*
X77414700Y-40500000D02*
X77414700Y-41203400D01*
X60975300Y-46930000D02*
X54625300Y-53280000D01*
X70461800Y-46930000D02*
X60975300Y-46930000D01*
X75766500Y-41625300D02*
X70461800Y-46930000D01*
X76992800Y-41625300D02*
X75766500Y-41625300D01*
X80054400Y-62474400D02*
X74038000Y-62474400D01*
X81580000Y-64000000D02*
X80054400Y-62474400D01*
X111024400Y-57320000D02*
X103500000Y-57320000D01*
X114834400Y-53510000D02*
X111024400Y-57320000D01*
X119080300Y-53510000D02*
X114834400Y-53510000D01*
X120335000Y-52255300D02*
X119080300Y-53510000D01*
X120335000Y-39542400D02*
X120335000Y-52255300D01*
X119062600Y-38270000D02*
X120335000Y-39542400D01*
X118131200Y-38270000D02*
X119062600Y-38270000D01*
X111606900Y-31745700D02*
X118131200Y-38270000D01*
X83058300Y-31745700D02*
X111606900Y-31745700D01*
X82205300Y-32598700D02*
X83058300Y-31745700D01*
X82205300Y-32880000D02*
X82205300Y-32598700D01*
X81080000Y-32880000D02*
X82205300Y-32880000D01*
X53218600Y-54694700D02*
X53500000Y-54694700D01*
X52374700Y-53850800D02*
X53218600Y-54694700D01*
X52374700Y-52754700D02*
X52374700Y-53850800D01*
X53119400Y-52010000D02*
X52374700Y-52754700D01*
X54030200Y-52010000D02*
X53119400Y-52010000D01*
X61650200Y-44390000D02*
X54030200Y-52010000D01*
X70018800Y-44390000D02*
X61650200Y-44390000D01*
X75034100Y-39374700D02*
X70018800Y-44390000D01*
X79110800Y-39374700D02*
X75034100Y-39374700D01*
X79954700Y-40218600D02*
X79110800Y-39374700D01*
X79954700Y-40500000D02*
X79954700Y-40218600D01*
X81080000Y-40500000D02*
X79954700Y-40500000D01*
X53500000Y-55820000D02*
X53500000Y-54694700D01*
X96820000Y-64000000D02*
X94280000Y-64000000D01*
X94280000Y-64000000D02*
X91740000Y-64000000D01*
X91740000Y-64000000D02*
X89200000Y-64000000D01*
X89200000Y-64000000D02*
X88074700Y-64000000D01*
X80165300Y-64281400D02*
X80165300Y-64000000D01*
X81009200Y-65125300D02*
X80165300Y-64281400D01*
X87230800Y-65125300D02*
X81009200Y-65125300D01*
X88074700Y-64281400D02*
X87230800Y-65125300D01*
X88074700Y-64000000D02*
X88074700Y-64281400D01*
X79040000Y-64000000D02*
X79321400Y-64000000D01*
X79321400Y-64000000D02*
X80165300Y-64000000D01*
X74330600Y-65125400D02*
X73848900Y-64643700D01*
X78196000Y-65125400D02*
X74330600Y-65125400D01*
X79321400Y-64000000D02*
X78196000Y-65125400D01*
X53500000Y-58360000D02*
X54625300Y-58360000D01*
X103500000Y-59860000D02*
X102374700Y-59860000D01*
X55750600Y-59485300D02*
X54625300Y-58360000D01*
X69410000Y-59485300D02*
X55750600Y-59485300D01*
X70160900Y-60236200D02*
X69410000Y-59485300D01*
X87453500Y-60236200D02*
X70160900Y-60236200D01*
X87646400Y-60429100D02*
X87453500Y-60236200D01*
X101805600Y-60429100D02*
X87646400Y-60429100D01*
X102374700Y-59860000D02*
X101805600Y-60429100D01*
X69949300Y-40664000D02*
X69865300Y-40580000D01*
X72470900Y-40664000D02*
X69949300Y-40664000D01*
X74712100Y-38422800D02*
X72470900Y-40664000D01*
X98449700Y-38422800D02*
X74712100Y-38422800D01*
X100981600Y-40954700D02*
X98449700Y-38422800D01*
X116489400Y-40954700D02*
X100981600Y-40954700D01*
X117614700Y-42080000D02*
X116489400Y-40954700D01*
X118740000Y-42080000D02*
X117614700Y-42080000D01*
X68740000Y-40580000D02*
X69865300Y-40580000D01*
X103500000Y-62400000D02*
X102374700Y-62400000D01*
X53500000Y-60900000D02*
X54625300Y-60900000D01*
X84046200Y-62400000D02*
X83066400Y-61420200D01*
X102374700Y-62400000D02*
X84046200Y-62400000D01*
X55750600Y-62025300D02*
X54625300Y-60900000D01*
X70119200Y-62025300D02*
X55750600Y-62025300D01*
X70939000Y-61205500D02*
X70119200Y-62025300D01*
X82851700Y-61205500D02*
X70939000Y-61205500D01*
X83066400Y-61420200D02*
X82851700Y-61205500D01*
X87660000Y-44880000D02*
X88222700Y-44880000D01*
X68740000Y-38040000D02*
X68740000Y-39165300D01*
X90262700Y-46920000D02*
X99000000Y-46920000D01*
X88222700Y-44880000D02*
X90262700Y-46920000D01*
X84968000Y-41625300D02*
X88222700Y-44880000D01*
X83147700Y-41625300D02*
X84968000Y-41625300D01*
X82350000Y-40827600D02*
X83147700Y-41625300D01*
X82350000Y-40101000D02*
X82350000Y-40827600D01*
X81173300Y-38924300D02*
X82350000Y-40101000D01*
X74847500Y-38924300D02*
X81173300Y-38924300D01*
X72030500Y-41741300D02*
X74847500Y-38924300D01*
X68309500Y-41741300D02*
X72030500Y-41741300D01*
X67614700Y-41046500D02*
X68309500Y-41741300D01*
X67614700Y-40009200D02*
X67614700Y-41046500D01*
X68458600Y-39165300D02*
X67614700Y-40009200D01*
X68740000Y-39165300D02*
X68458600Y-39165300D01*
X101287900Y-66026800D02*
X102374700Y-64940000D01*
X57212100Y-66026800D02*
X101287900Y-66026800D01*
X54625300Y-63440000D02*
X57212100Y-66026800D01*
X53500000Y-63440000D02*
X54625300Y-63440000D01*
X103500000Y-64940000D02*
X102374700Y-64940000D01*
X120785400Y-39045400D02*
X118740000Y-37000000D01*
X120785400Y-68906600D02*
X120785400Y-39045400D01*
X119867300Y-69824700D02*
X120785400Y-68906600D01*
X119500000Y-69824700D02*
X119867300Y-69824700D01*
X119500000Y-71000000D02*
X119500000Y-69824700D01*
X99360000Y-56380000D02*
X98234700Y-56380000D01*
X98234700Y-56590900D02*
X98234700Y-56380000D01*
X96866100Y-57959500D02*
X98234700Y-56590900D01*
X84089600Y-57959500D02*
X96866100Y-57959500D01*
X82896400Y-56766300D02*
X84089600Y-57959500D01*
X82896400Y-56027200D02*
X82896400Y-56766300D01*
X81504900Y-54635700D02*
X82896400Y-56027200D01*
X67946900Y-54635700D02*
X81504900Y-54635700D01*
X119021400Y-40665300D02*
X118740000Y-40665300D01*
X119865300Y-41509200D02*
X119021400Y-40665300D01*
X119865300Y-47631300D02*
X119865300Y-41509200D01*
X119066600Y-48430000D02*
X119865300Y-47631300D01*
X101205300Y-48430000D02*
X119066600Y-48430000D01*
X100175300Y-49460000D02*
X101205300Y-48430000D01*
X99000000Y-49460000D02*
X100175300Y-49460000D01*
X118740000Y-39540000D02*
X118740000Y-40665300D01*
X117406800Y-52032100D02*
X117614700Y-52240000D01*
X112371800Y-52032100D02*
X117406800Y-52032100D01*
X110749300Y-53654600D02*
X112371800Y-52032100D01*
X90229400Y-53654600D02*
X110749300Y-53654600D01*
X87785300Y-56098700D02*
X90229400Y-53654600D01*
X87785300Y-56380000D02*
X87785300Y-56098700D01*
X86660000Y-56380000D02*
X87785300Y-56380000D01*
X118740000Y-52240000D02*
X117614700Y-52240000D01*
X79040000Y-56380000D02*
X80165300Y-56380000D01*
X110067600Y-55995500D02*
X113396900Y-52666200D01*
X101892600Y-55995500D02*
X110067600Y-55995500D01*
X99924600Y-57963500D02*
X101892600Y-55995500D01*
X98382400Y-57963500D02*
X99924600Y-57963500D01*
X97936000Y-58409900D02*
X98382400Y-57963500D01*
X82034500Y-58409900D02*
X97936000Y-58409900D01*
X81405200Y-57780600D02*
X82034500Y-58409900D01*
X81284600Y-57780600D02*
X81405200Y-57780600D01*
X80165300Y-56661300D02*
X81284600Y-57780600D01*
X80165300Y-56380000D02*
X80165300Y-56661300D01*
X116489400Y-46034700D02*
X117614700Y-47160000D01*
X101359200Y-46034700D02*
X116489400Y-46034700D01*
X100204500Y-44880000D02*
X101359200Y-46034700D01*
X92740000Y-44880000D02*
X100204500Y-44880000D01*
X118740000Y-47160000D02*
X117614700Y-47160000D01*
X116489400Y-50825300D02*
X117614700Y-49700000D01*
X101482200Y-50825300D02*
X116489400Y-50825300D01*
X101476000Y-50819100D02*
X101482200Y-50825300D01*
X92724900Y-50819100D02*
X101476000Y-50819100D01*
X91325300Y-52218700D02*
X92724900Y-50819100D01*
X91325300Y-52500000D02*
X91325300Y-52218700D01*
X90200000Y-52500000D02*
X91325300Y-52500000D01*
X118740000Y-49700000D02*
X117614700Y-49700000D01*
X117784700Y-69000000D02*
X118324700Y-68460000D01*
X116000000Y-69000000D02*
X117784700Y-69000000D01*
X119500000Y-68460000D02*
X118324700Y-68460000D01*
X86534700Y-52218700D02*
X86534700Y-52500000D01*
X80321300Y-46005300D02*
X86534700Y-52218700D01*
X80040000Y-46005300D02*
X80321300Y-46005300D01*
X80040000Y-44880000D02*
X80040000Y-46005300D01*
X87660000Y-52500000D02*
X86534700Y-52500000D01*
D20*
G36*
X121290000Y-32115789D02*
X121202811Y-31985302D01*
X120737264Y-31674233D01*
X120188113Y-31565000D01*
X120131887Y-31565000D01*
X119582736Y-31674233D01*
X119117189Y-31985302D01*
X118806120Y-32450849D01*
X118696887Y-33000000D01*
X118806120Y-33549151D01*
X119117189Y-34014698D01*
X119582736Y-34325767D01*
X120131887Y-34435000D01*
X120188113Y-34435000D01*
X120737264Y-34325767D01*
X121202811Y-34014698D01*
X121290000Y-33884211D01*
X121290000Y-38475198D01*
X120138688Y-37323886D01*
X120203113Y-37000000D01*
X120093880Y-36450849D01*
X119782811Y-35985302D01*
X119317264Y-35674233D01*
X118768113Y-35565000D01*
X118711887Y-35565000D01*
X118162736Y-35674233D01*
X117697189Y-35985302D01*
X117386413Y-36450411D01*
X112144301Y-31208299D01*
X111897739Y-31043552D01*
X111606900Y-30985700D01*
X83058300Y-30985700D01*
X82767460Y-31043552D01*
X82520899Y-31208299D01*
X81973195Y-31756003D01*
X81629151Y-31526120D01*
X81080000Y-31416887D01*
X80530849Y-31526120D01*
X80065302Y-31837189D01*
X79810000Y-32219275D01*
X79554698Y-31837189D01*
X79089151Y-31526120D01*
X78540000Y-31416887D01*
X77990849Y-31526120D01*
X77525302Y-31837189D01*
X77399964Y-32024770D01*
X77250300Y-31995000D01*
X77120144Y-31995000D01*
X77014698Y-31837189D01*
X76549151Y-31526120D01*
X76000000Y-31416887D01*
X75450849Y-31526120D01*
X74985302Y-31837189D01*
X74674233Y-32302736D01*
X74565000Y-32851887D01*
X74565000Y-32908113D01*
X74674233Y-33457264D01*
X74985302Y-33922811D01*
X75450849Y-34233880D01*
X76000000Y-34343113D01*
X76549151Y-34233880D01*
X76702821Y-34131201D01*
X77327708Y-34756087D01*
X77327710Y-34756090D01*
X77614825Y-34947933D01*
X77629485Y-34950849D01*
X77953500Y-35015301D01*
X77953505Y-35015300D01*
X95623720Y-35015300D01*
X98271221Y-37662800D01*
X74712100Y-37662800D01*
X74469514Y-37711054D01*
X74421260Y-37720652D01*
X74174699Y-37885399D01*
X73271508Y-38788590D01*
X73253864Y-38745995D01*
X73007745Y-38671861D01*
X72179605Y-39500000D01*
X72193748Y-39514142D01*
X72014142Y-39693748D01*
X72000000Y-39679605D01*
X71985858Y-39693748D01*
X71806253Y-39514143D01*
X71820395Y-39500000D01*
X70992255Y-38671861D01*
X70746136Y-38745995D01*
X70553035Y-39283223D01*
X70580222Y-39853454D01*
X70601159Y-39904000D01*
X70195272Y-39904000D01*
X70156139Y-39877852D01*
X69966437Y-39840118D01*
X69782811Y-39565302D01*
X69462947Y-39351576D01*
X69482022Y-39255679D01*
X69782811Y-39054698D01*
X70093880Y-38589151D01*
X70113153Y-38492255D01*
X71171861Y-38492255D01*
X72000000Y-39320395D01*
X72828139Y-38492255D01*
X72754005Y-38246136D01*
X72216777Y-38053035D01*
X71646546Y-38080222D01*
X71245995Y-38246136D01*
X71171861Y-38492255D01*
X70113153Y-38492255D01*
X70203113Y-38040000D01*
X70109064Y-37567183D01*
X70336090Y-37415490D01*
X71816739Y-35934840D01*
X72284187Y-35935248D01*
X72811800Y-35717243D01*
X73215824Y-35313923D01*
X73434750Y-34786691D01*
X73435248Y-34215813D01*
X73217243Y-33688200D01*
X72813923Y-33284176D01*
X72286691Y-33065250D01*
X71715813Y-33064752D01*
X71188200Y-33282757D01*
X70784176Y-33686077D01*
X70565250Y-34213309D01*
X70564840Y-34683581D01*
X70127675Y-35120746D01*
X70093880Y-34950849D01*
X69782811Y-34485302D01*
X69317264Y-34174233D01*
X68768113Y-34065000D01*
X68711887Y-34065000D01*
X68162736Y-34174233D01*
X67697189Y-34485302D01*
X67386120Y-34950849D01*
X67276887Y-35500000D01*
X67357387Y-35904700D01*
X56000605Y-35904700D01*
X56000600Y-35904699D01*
X55661925Y-35972067D01*
X55374810Y-36163910D01*
X55374808Y-36163913D01*
X54525191Y-37013529D01*
X54407665Y-36935000D01*
X54426309Y-36935000D01*
X54659698Y-36838327D01*
X54838327Y-36659699D01*
X54935000Y-36426310D01*
X54935000Y-35785750D01*
X54776250Y-35627000D01*
X53627000Y-35627000D01*
X53627000Y-35647000D01*
X53373000Y-35647000D01*
X53373000Y-35627000D01*
X52223750Y-35627000D01*
X52065000Y-35785750D01*
X52065000Y-36426310D01*
X52161673Y-36659699D01*
X52340302Y-36838327D01*
X52573691Y-36935000D01*
X52592335Y-36935000D01*
X52457189Y-37025302D01*
X52146120Y-37490849D01*
X52036887Y-38040000D01*
X52146120Y-38589151D01*
X52457189Y-39054698D01*
X52839275Y-39310000D01*
X52457189Y-39565302D01*
X52146120Y-40030849D01*
X52036887Y-40580000D01*
X52146120Y-41129151D01*
X52457189Y-41594698D01*
X52839275Y-41850000D01*
X52457189Y-42105302D01*
X52146120Y-42570849D01*
X52036887Y-43120000D01*
X52146120Y-43669151D01*
X52457189Y-44134698D01*
X52839275Y-44390000D01*
X52457189Y-44645302D01*
X52146120Y-45110849D01*
X52036887Y-45660000D01*
X52146120Y-46209151D01*
X52457189Y-46674698D01*
X52839275Y-46930000D01*
X52457189Y-47185302D01*
X52146120Y-47650849D01*
X52036887Y-48200000D01*
X52146120Y-48749151D01*
X52457189Y-49214698D01*
X52839275Y-49470000D01*
X52457189Y-49725302D01*
X52146120Y-50190849D01*
X52036887Y-50740000D01*
X52146120Y-51289151D01*
X52394188Y-51660410D01*
X51837299Y-52217299D01*
X51672552Y-52463861D01*
X51614700Y-52754700D01*
X51614700Y-53850800D01*
X51672552Y-54141639D01*
X51837299Y-54388201D01*
X52375963Y-54926865D01*
X52146120Y-55270849D01*
X52036887Y-55820000D01*
X52146120Y-56369151D01*
X52457189Y-56834698D01*
X52839275Y-57090000D01*
X52457189Y-57345302D01*
X52146120Y-57810849D01*
X52036887Y-58360000D01*
X52146120Y-58909151D01*
X52457189Y-59374698D01*
X52839275Y-59630000D01*
X52457189Y-59885302D01*
X52146120Y-60350849D01*
X52036887Y-60900000D01*
X52146120Y-61449151D01*
X52457189Y-61914698D01*
X52839275Y-62170000D01*
X52457189Y-62425302D01*
X52146120Y-62890849D01*
X52036887Y-63440000D01*
X52146120Y-63989151D01*
X52457189Y-64454698D01*
X52922736Y-64765767D01*
X53471887Y-64875000D01*
X53528113Y-64875000D01*
X54077264Y-64765767D01*
X54542811Y-64454698D01*
X54551777Y-64441279D01*
X56674699Y-66564201D01*
X56921261Y-66728948D01*
X57212100Y-66786800D01*
X59961621Y-66786800D01*
X59683261Y-67065160D01*
X59215813Y-67064752D01*
X58688200Y-67282757D01*
X58284176Y-67686077D01*
X58065250Y-68213309D01*
X58064752Y-68784187D01*
X58282757Y-69311800D01*
X58686077Y-69715824D01*
X59213309Y-69934750D01*
X59784187Y-69935248D01*
X60311800Y-69717243D01*
X60715824Y-69313923D01*
X60934750Y-68786691D01*
X60935160Y-68316419D01*
X60986579Y-68265000D01*
X62379856Y-68265000D01*
X62485302Y-68422811D01*
X62950849Y-68733880D01*
X63500000Y-68843113D01*
X64049151Y-68733880D01*
X64204739Y-68629919D01*
X64847208Y-69272387D01*
X64847210Y-69272390D01*
X65134325Y-69464233D01*
X65473000Y-69531601D01*
X65473005Y-69531600D01*
X84502174Y-69531600D01*
X84686077Y-69715824D01*
X85213309Y-69934750D01*
X85784187Y-69935248D01*
X86311800Y-69717243D01*
X86715824Y-69313923D01*
X86934750Y-68786691D01*
X86935160Y-68316419D01*
X86986579Y-68265000D01*
X88379856Y-68265000D01*
X88485302Y-68422811D01*
X88950849Y-68733880D01*
X89500000Y-68843113D01*
X90049151Y-68733880D01*
X90204739Y-68629919D01*
X91200608Y-69625787D01*
X91200610Y-69625790D01*
X91401471Y-69760000D01*
X91487725Y-69817633D01*
X91826400Y-69885001D01*
X91826405Y-69885000D01*
X104710527Y-69885000D01*
X104797189Y-70014698D01*
X105262736Y-70325767D01*
X105811887Y-70435000D01*
X105868113Y-70435000D01*
X106417264Y-70325767D01*
X106882811Y-70014698D01*
X107193880Y-69549151D01*
X107303113Y-69000000D01*
X107193880Y-68450849D01*
X107149881Y-68385000D01*
X114701576Y-68385000D01*
X114565250Y-68713309D01*
X114564752Y-69284187D01*
X114782757Y-69811800D01*
X115186077Y-70215824D01*
X115713309Y-70434750D01*
X116284187Y-70435248D01*
X116811800Y-70217243D01*
X117215824Y-69813923D01*
X117238215Y-69760000D01*
X117784700Y-69760000D01*
X118075539Y-69702148D01*
X118322101Y-69537401D01*
X118392252Y-69467250D01*
X118420853Y-69510054D01*
X118462452Y-69537850D01*
X118414683Y-69546838D01*
X118198559Y-69685910D01*
X118053569Y-69898110D01*
X118002560Y-70150000D01*
X118002560Y-71850000D01*
X118046838Y-72085317D01*
X118185910Y-72301441D01*
X118398110Y-72446431D01*
X118650000Y-72497440D01*
X120350000Y-72497440D01*
X120585317Y-72453162D01*
X120801441Y-72314090D01*
X120946431Y-72101890D01*
X120997440Y-71850000D01*
X120997440Y-70150000D01*
X120953162Y-69914683D01*
X120913600Y-69853202D01*
X121290000Y-69476802D01*
X121290000Y-76290000D01*
X97715074Y-76290000D01*
X97857423Y-76231041D01*
X98272389Y-75855134D01*
X98511914Y-75349041D01*
X98390629Y-75127000D01*
X97247000Y-75127000D01*
X97247000Y-75147000D01*
X96993000Y-75147000D01*
X96993000Y-75127000D01*
X96973000Y-75127000D01*
X96973000Y-74873000D01*
X96993000Y-74873000D01*
X96993000Y-73730085D01*
X97247000Y-73730085D01*
X97247000Y-74873000D01*
X98390629Y-74873000D01*
X98438287Y-74785750D01*
X103515000Y-74785750D01*
X103515000Y-75476309D01*
X103611673Y-75709698D01*
X103790301Y-75888327D01*
X104023690Y-75985000D01*
X104714250Y-75985000D01*
X104873000Y-75826250D01*
X104873000Y-74627000D01*
X103673750Y-74627000D01*
X103515000Y-74785750D01*
X98438287Y-74785750D01*
X98511914Y-74650959D01*
X98272389Y-74144866D01*
X97857423Y-73768959D01*
X97469039Y-73608096D01*
X97247000Y-73730085D01*
X96993000Y-73730085D01*
X96770961Y-73608096D01*
X96382577Y-73768959D01*
X95967611Y-74144866D01*
X95864986Y-74361703D01*
X95594698Y-73957189D01*
X95129151Y-73646120D01*
X94580000Y-73536887D01*
X94030849Y-73646120D01*
X93565302Y-73957189D01*
X93310000Y-74339275D01*
X93054698Y-73957189D01*
X92589151Y-73646120D01*
X92040000Y-73536887D01*
X91490849Y-73646120D01*
X91025302Y-73957189D01*
X90928899Y-74101465D01*
X90903162Y-73964683D01*
X90764090Y-73748559D01*
X90551890Y-73603569D01*
X90300000Y-73552560D01*
X88700000Y-73552560D01*
X88464683Y-73596838D01*
X88248559Y-73735910D01*
X88103569Y-73948110D01*
X88052560Y-74200000D01*
X88052560Y-75800000D01*
X88096838Y-76035317D01*
X88235910Y-76251441D01*
X88292343Y-76290000D01*
X79335074Y-76290000D01*
X79477423Y-76231041D01*
X79892389Y-75855134D01*
X80131914Y-75349041D01*
X80010629Y-75127000D01*
X78867000Y-75127000D01*
X78867000Y-75147000D01*
X78613000Y-75147000D01*
X78613000Y-75127000D01*
X78593000Y-75127000D01*
X78593000Y-74873000D01*
X78613000Y-74873000D01*
X78613000Y-73730085D01*
X78867000Y-73730085D01*
X78867000Y-74873000D01*
X80010629Y-74873000D01*
X80131914Y-74650959D01*
X80064134Y-74507745D01*
X84671861Y-74507745D01*
X84745995Y-74753864D01*
X85283223Y-74946965D01*
X85853454Y-74919778D01*
X86254005Y-74753864D01*
X86328139Y-74507745D01*
X85500000Y-73679605D01*
X84671861Y-74507745D01*
X80064134Y-74507745D01*
X79892389Y-74144866D01*
X79477423Y-73768959D01*
X79089039Y-73608096D01*
X78867000Y-73730085D01*
X78613000Y-73730085D01*
X78390961Y-73608096D01*
X78002577Y-73768959D01*
X77587611Y-74144866D01*
X77484986Y-74361703D01*
X77214698Y-73957189D01*
X76749151Y-73646120D01*
X76200000Y-73536887D01*
X75650849Y-73646120D01*
X75185302Y-73957189D01*
X74915014Y-74361703D01*
X74812389Y-74144866D01*
X74397423Y-73768959D01*
X74009039Y-73608096D01*
X73787000Y-73730085D01*
X73787000Y-74873000D01*
X73807000Y-74873000D01*
X73807000Y-75127000D01*
X73787000Y-75127000D01*
X73787000Y-75147000D01*
X73533000Y-75147000D01*
X73533000Y-75127000D01*
X73513000Y-75127000D01*
X73513000Y-74873000D01*
X73533000Y-74873000D01*
X73533000Y-73730085D01*
X73310961Y-73608096D01*
X72922577Y-73768959D01*
X72507611Y-74144866D01*
X72404986Y-74361703D01*
X72134698Y-73957189D01*
X71669151Y-73646120D01*
X71120000Y-73536887D01*
X70570849Y-73646120D01*
X70105302Y-73957189D01*
X69850000Y-74339275D01*
X69594698Y-73957189D01*
X69129151Y-73646120D01*
X68580000Y-73536887D01*
X68030849Y-73646120D01*
X67565302Y-73957189D01*
X67310000Y-74339275D01*
X67054698Y-73957189D01*
X66589151Y-73646120D01*
X66040000Y-73536887D01*
X65490849Y-73646120D01*
X65025302Y-73957189D01*
X64928899Y-74101465D01*
X64903162Y-73964683D01*
X64764090Y-73748559D01*
X64551890Y-73603569D01*
X64300000Y-73552560D01*
X62700000Y-73552560D01*
X62464683Y-73596838D01*
X62248559Y-73735910D01*
X62103569Y-73948110D01*
X62052560Y-74200000D01*
X62052560Y-75800000D01*
X62096838Y-76035317D01*
X62235910Y-76251441D01*
X62292343Y-76290000D01*
X50710000Y-76290000D01*
X50710000Y-74507745D01*
X58671861Y-74507745D01*
X58745995Y-74753864D01*
X59283223Y-74946965D01*
X59853454Y-74919778D01*
X60254005Y-74753864D01*
X60328139Y-74507745D01*
X59500000Y-73679605D01*
X58671861Y-74507745D01*
X50710000Y-74507745D01*
X50710000Y-73283223D01*
X58053035Y-73283223D01*
X58080222Y-73853454D01*
X58246136Y-74254005D01*
X58492255Y-74328139D01*
X59320395Y-73500000D01*
X59679605Y-73500000D01*
X60507745Y-74328139D01*
X60753864Y-74254005D01*
X60946965Y-73716777D01*
X60926295Y-73283223D01*
X84053035Y-73283223D01*
X84080222Y-73853454D01*
X84246136Y-74254005D01*
X84492255Y-74328139D01*
X85320395Y-73500000D01*
X85679605Y-73500000D01*
X86507745Y-74328139D01*
X86753864Y-74254005D01*
X86946965Y-73716777D01*
X86936999Y-73507745D01*
X100671861Y-73507745D01*
X100745995Y-73753864D01*
X101283223Y-73946965D01*
X101853454Y-73919778D01*
X102254005Y-73753864D01*
X102323335Y-73523691D01*
X103515000Y-73523691D01*
X103515000Y-74214250D01*
X103673750Y-74373000D01*
X104873000Y-74373000D01*
X104873000Y-73173750D01*
X105127000Y-73173750D01*
X105127000Y-74373000D01*
X105147000Y-74373000D01*
X105147000Y-74627000D01*
X105127000Y-74627000D01*
X105127000Y-75826250D01*
X105285750Y-75985000D01*
X105976310Y-75985000D01*
X106209699Y-75888327D01*
X106388327Y-75709698D01*
X106460597Y-75535223D01*
X106489946Y-75579147D01*
X106971715Y-75901054D01*
X107540000Y-76014093D01*
X108108285Y-75901054D01*
X108590054Y-75579147D01*
X108810000Y-75249974D01*
X109029946Y-75579147D01*
X109511715Y-75901054D01*
X110080000Y-76014093D01*
X110648285Y-75901054D01*
X111130054Y-75579147D01*
X111350000Y-75249974D01*
X111569946Y-75579147D01*
X112051715Y-75901054D01*
X112620000Y-76014093D01*
X113188285Y-75901054D01*
X113670054Y-75579147D01*
X113890000Y-75249974D01*
X114109946Y-75579147D01*
X114591715Y-75901054D01*
X115160000Y-76014093D01*
X115728285Y-75901054D01*
X116210054Y-75579147D01*
X116430000Y-75249974D01*
X116649946Y-75579147D01*
X117131715Y-75901054D01*
X117700000Y-76014093D01*
X118268285Y-75901054D01*
X118750054Y-75579147D01*
X119071961Y-75097378D01*
X119185000Y-74529093D01*
X119185000Y-74470907D01*
X119071961Y-73902622D01*
X118750054Y-73420853D01*
X118268285Y-73098946D01*
X117700000Y-72985907D01*
X117131715Y-73098946D01*
X116649946Y-73420853D01*
X116430000Y-73750026D01*
X116210054Y-73420853D01*
X115728285Y-73098946D01*
X115160000Y-72985907D01*
X114591715Y-73098946D01*
X114109946Y-73420853D01*
X113890000Y-73750026D01*
X113670054Y-73420853D01*
X113188285Y-73098946D01*
X112620000Y-72985907D01*
X112051715Y-73098946D01*
X111569946Y-73420853D01*
X111350000Y-73750026D01*
X111130054Y-73420853D01*
X110648285Y-73098946D01*
X110080000Y-72985907D01*
X109511715Y-73098946D01*
X109029946Y-73420853D01*
X108810000Y-73750026D01*
X108590054Y-73420853D01*
X108108285Y-73098946D01*
X107540000Y-72985907D01*
X106971715Y-73098946D01*
X106489946Y-73420853D01*
X106460597Y-73464777D01*
X106388327Y-73290302D01*
X106209699Y-73111673D01*
X105976310Y-73015000D01*
X105285750Y-73015000D01*
X105127000Y-73173750D01*
X104873000Y-73173750D01*
X104714250Y-73015000D01*
X104023690Y-73015000D01*
X103790301Y-73111673D01*
X103611673Y-73290302D01*
X103515000Y-73523691D01*
X102323335Y-73523691D01*
X102328139Y-73507745D01*
X101500000Y-72679605D01*
X100671861Y-73507745D01*
X86936999Y-73507745D01*
X86919778Y-73146546D01*
X86753864Y-72745995D01*
X86507745Y-72671861D01*
X85679605Y-73500000D01*
X85320395Y-73500000D01*
X84492255Y-72671861D01*
X84246136Y-72745995D01*
X84053035Y-73283223D01*
X60926295Y-73283223D01*
X60919778Y-73146546D01*
X60753864Y-72745995D01*
X60507745Y-72671861D01*
X59679605Y-73500000D01*
X59320395Y-73500000D01*
X58492255Y-72671861D01*
X58246136Y-72745995D01*
X58053035Y-73283223D01*
X50710000Y-73283223D01*
X50710000Y-72492255D01*
X58671861Y-72492255D01*
X59500000Y-73320395D01*
X60328139Y-72492255D01*
X84671861Y-72492255D01*
X85500000Y-73320395D01*
X86328139Y-72492255D01*
X86265177Y-72283223D01*
X100053035Y-72283223D01*
X100080222Y-72853454D01*
X100246136Y-73254005D01*
X100492255Y-73328139D01*
X101320395Y-72500000D01*
X101679605Y-72500000D01*
X102507745Y-73328139D01*
X102753864Y-73254005D01*
X102946965Y-72716777D01*
X102919778Y-72146546D01*
X102753864Y-71745995D01*
X102507745Y-71671861D01*
X101679605Y-72500000D01*
X101320395Y-72500000D01*
X100492255Y-71671861D01*
X100246136Y-71745995D01*
X100053035Y-72283223D01*
X86265177Y-72283223D01*
X86254005Y-72246136D01*
X85716777Y-72053035D01*
X85146546Y-72080222D01*
X84745995Y-72246136D01*
X84671861Y-72492255D01*
X60328139Y-72492255D01*
X60254005Y-72246136D01*
X59716777Y-72053035D01*
X59146546Y-72080222D01*
X58745995Y-72246136D01*
X58671861Y-72492255D01*
X50710000Y-72492255D01*
X50710000Y-71492255D01*
X100671861Y-71492255D01*
X101500000Y-72320395D01*
X102328139Y-71492255D01*
X102254005Y-71246136D01*
X101716777Y-71053035D01*
X101146546Y-71080222D01*
X100745995Y-71246136D01*
X100671861Y-71492255D01*
X50710000Y-71492255D01*
X50710000Y-34573690D01*
X52065000Y-34573690D01*
X52065000Y-35214250D01*
X52223750Y-35373000D01*
X53373000Y-35373000D01*
X53373000Y-34223750D01*
X53627000Y-34223750D01*
X53627000Y-35373000D01*
X54776250Y-35373000D01*
X54935000Y-35214250D01*
X54935000Y-34573690D01*
X54838327Y-34340301D01*
X54659698Y-34161673D01*
X54426309Y-34065000D01*
X53785750Y-34065000D01*
X53627000Y-34223750D01*
X53373000Y-34223750D01*
X53214250Y-34065000D01*
X52573691Y-34065000D01*
X52340302Y-34161673D01*
X52161673Y-34340301D01*
X52065000Y-34573690D01*
X50710000Y-34573690D01*
X50710000Y-30710000D01*
X121290000Y-30710000D01*
X121290000Y-32115789D01*
X121290000Y-32115789D01*
G37*
X121290000Y-32115789D02*
X121202811Y-31985302D01*
X120737264Y-31674233D01*
X120188113Y-31565000D01*
X120131887Y-31565000D01*
X119582736Y-31674233D01*
X119117189Y-31985302D01*
X118806120Y-32450849D01*
X118696887Y-33000000D01*
X118806120Y-33549151D01*
X119117189Y-34014698D01*
X119582736Y-34325767D01*
X120131887Y-34435000D01*
X120188113Y-34435000D01*
X120737264Y-34325767D01*
X121202811Y-34014698D01*
X121290000Y-33884211D01*
X121290000Y-38475198D01*
X120138688Y-37323886D01*
X120203113Y-37000000D01*
X120093880Y-36450849D01*
X119782811Y-35985302D01*
X119317264Y-35674233D01*
X118768113Y-35565000D01*
X118711887Y-35565000D01*
X118162736Y-35674233D01*
X117697189Y-35985302D01*
X117386413Y-36450411D01*
X112144301Y-31208299D01*
X111897739Y-31043552D01*
X111606900Y-30985700D01*
X83058300Y-30985700D01*
X82767460Y-31043552D01*
X82520899Y-31208299D01*
X81973195Y-31756003D01*
X81629151Y-31526120D01*
X81080000Y-31416887D01*
X80530849Y-31526120D01*
X80065302Y-31837189D01*
X79810000Y-32219275D01*
X79554698Y-31837189D01*
X79089151Y-31526120D01*
X78540000Y-31416887D01*
X77990849Y-31526120D01*
X77525302Y-31837189D01*
X77399964Y-32024770D01*
X77250300Y-31995000D01*
X77120144Y-31995000D01*
X77014698Y-31837189D01*
X76549151Y-31526120D01*
X76000000Y-31416887D01*
X75450849Y-31526120D01*
X74985302Y-31837189D01*
X74674233Y-32302736D01*
X74565000Y-32851887D01*
X74565000Y-32908113D01*
X74674233Y-33457264D01*
X74985302Y-33922811D01*
X75450849Y-34233880D01*
X76000000Y-34343113D01*
X76549151Y-34233880D01*
X76702821Y-34131201D01*
X77327708Y-34756087D01*
X77327710Y-34756090D01*
X77614825Y-34947933D01*
X77629485Y-34950849D01*
X77953500Y-35015301D01*
X77953505Y-35015300D01*
X95623720Y-35015300D01*
X98271221Y-37662800D01*
X74712100Y-37662800D01*
X74469514Y-37711054D01*
X74421260Y-37720652D01*
X74174699Y-37885399D01*
X73271508Y-38788590D01*
X73253864Y-38745995D01*
X73007745Y-38671861D01*
X72179605Y-39500000D01*
X72193748Y-39514142D01*
X72014142Y-39693748D01*
X72000000Y-39679605D01*
X71985858Y-39693748D01*
X71806253Y-39514143D01*
X71820395Y-39500000D01*
X70992255Y-38671861D01*
X70746136Y-38745995D01*
X70553035Y-39283223D01*
X70580222Y-39853454D01*
X70601159Y-39904000D01*
X70195272Y-39904000D01*
X70156139Y-39877852D01*
X69966437Y-39840118D01*
X69782811Y-39565302D01*
X69462947Y-39351576D01*
X69482022Y-39255679D01*
X69782811Y-39054698D01*
X70093880Y-38589151D01*
X70113153Y-38492255D01*
X71171861Y-38492255D01*
X72000000Y-39320395D01*
X72828139Y-38492255D01*
X72754005Y-38246136D01*
X72216777Y-38053035D01*
X71646546Y-38080222D01*
X71245995Y-38246136D01*
X71171861Y-38492255D01*
X70113153Y-38492255D01*
X70203113Y-38040000D01*
X70109064Y-37567183D01*
X70336090Y-37415490D01*
X71816739Y-35934840D01*
X72284187Y-35935248D01*
X72811800Y-35717243D01*
X73215824Y-35313923D01*
X73434750Y-34786691D01*
X73435248Y-34215813D01*
X73217243Y-33688200D01*
X72813923Y-33284176D01*
X72286691Y-33065250D01*
X71715813Y-33064752D01*
X71188200Y-33282757D01*
X70784176Y-33686077D01*
X70565250Y-34213309D01*
X70564840Y-34683581D01*
X70127675Y-35120746D01*
X70093880Y-34950849D01*
X69782811Y-34485302D01*
X69317264Y-34174233D01*
X68768113Y-34065000D01*
X68711887Y-34065000D01*
X68162736Y-34174233D01*
X67697189Y-34485302D01*
X67386120Y-34950849D01*
X67276887Y-35500000D01*
X67357387Y-35904700D01*
X56000605Y-35904700D01*
X56000600Y-35904699D01*
X55661925Y-35972067D01*
X55374810Y-36163910D01*
X55374808Y-36163913D01*
X54525191Y-37013529D01*
X54407665Y-36935000D01*
X54426309Y-36935000D01*
X54659698Y-36838327D01*
X54838327Y-36659699D01*
X54935000Y-36426310D01*
X54935000Y-35785750D01*
X54776250Y-35627000D01*
X53627000Y-35627000D01*
X53627000Y-35647000D01*
X53373000Y-35647000D01*
X53373000Y-35627000D01*
X52223750Y-35627000D01*
X52065000Y-35785750D01*
X52065000Y-36426310D01*
X52161673Y-36659699D01*
X52340302Y-36838327D01*
X52573691Y-36935000D01*
X52592335Y-36935000D01*
X52457189Y-37025302D01*
X52146120Y-37490849D01*
X52036887Y-38040000D01*
X52146120Y-38589151D01*
X52457189Y-39054698D01*
X52839275Y-39310000D01*
X52457189Y-39565302D01*
X52146120Y-40030849D01*
X52036887Y-40580000D01*
X52146120Y-41129151D01*
X52457189Y-41594698D01*
X52839275Y-41850000D01*
X52457189Y-42105302D01*
X52146120Y-42570849D01*
X52036887Y-43120000D01*
X52146120Y-43669151D01*
X52457189Y-44134698D01*
X52839275Y-44390000D01*
X52457189Y-44645302D01*
X52146120Y-45110849D01*
X52036887Y-45660000D01*
X52146120Y-46209151D01*
X52457189Y-46674698D01*
X52839275Y-46930000D01*
X52457189Y-47185302D01*
X52146120Y-47650849D01*
X52036887Y-48200000D01*
X52146120Y-48749151D01*
X52457189Y-49214698D01*
X52839275Y-49470000D01*
X52457189Y-49725302D01*
X52146120Y-50190849D01*
X52036887Y-50740000D01*
X52146120Y-51289151D01*
X52394188Y-51660410D01*
X51837299Y-52217299D01*
X51672552Y-52463861D01*
X51614700Y-52754700D01*
X51614700Y-53850800D01*
X51672552Y-54141639D01*
X51837299Y-54388201D01*
X52375963Y-54926865D01*
X52146120Y-55270849D01*
X52036887Y-55820000D01*
X52146120Y-56369151D01*
X52457189Y-56834698D01*
X52839275Y-57090000D01*
X52457189Y-57345302D01*
X52146120Y-57810849D01*
X52036887Y-58360000D01*
X52146120Y-58909151D01*
X52457189Y-59374698D01*
X52839275Y-59630000D01*
X52457189Y-59885302D01*
X52146120Y-60350849D01*
X52036887Y-60900000D01*
X52146120Y-61449151D01*
X52457189Y-61914698D01*
X52839275Y-62170000D01*
X52457189Y-62425302D01*
X52146120Y-62890849D01*
X52036887Y-63440000D01*
X52146120Y-63989151D01*
X52457189Y-64454698D01*
X52922736Y-64765767D01*
X53471887Y-64875000D01*
X53528113Y-64875000D01*
X54077264Y-64765767D01*
X54542811Y-64454698D01*
X54551777Y-64441279D01*
X56674699Y-66564201D01*
X56921261Y-66728948D01*
X57212100Y-66786800D01*
X59961621Y-66786800D01*
X59683261Y-67065160D01*
X59215813Y-67064752D01*
X58688200Y-67282757D01*
X58284176Y-67686077D01*
X58065250Y-68213309D01*
X58064752Y-68784187D01*
X58282757Y-69311800D01*
X58686077Y-69715824D01*
X59213309Y-69934750D01*
X59784187Y-69935248D01*
X60311800Y-69717243D01*
X60715824Y-69313923D01*
X60934750Y-68786691D01*
X60935160Y-68316419D01*
X60986579Y-68265000D01*
X62379856Y-68265000D01*
X62485302Y-68422811D01*
X62950849Y-68733880D01*
X63500000Y-68843113D01*
X64049151Y-68733880D01*
X64204739Y-68629919D01*
X64847208Y-69272387D01*
X64847210Y-69272390D01*
X65134325Y-69464233D01*
X65473000Y-69531601D01*
X65473005Y-69531600D01*
X84502174Y-69531600D01*
X84686077Y-69715824D01*
X85213309Y-69934750D01*
X85784187Y-69935248D01*
X86311800Y-69717243D01*
X86715824Y-69313923D01*
X86934750Y-68786691D01*
X86935160Y-68316419D01*
X86986579Y-68265000D01*
X88379856Y-68265000D01*
X88485302Y-68422811D01*
X88950849Y-68733880D01*
X89500000Y-68843113D01*
X90049151Y-68733880D01*
X90204739Y-68629919D01*
X91200608Y-69625787D01*
X91200610Y-69625790D01*
X91401471Y-69760000D01*
X91487725Y-69817633D01*
X91826400Y-69885001D01*
X91826405Y-69885000D01*
X104710527Y-69885000D01*
X104797189Y-70014698D01*
X105262736Y-70325767D01*
X105811887Y-70435000D01*
X105868113Y-70435000D01*
X106417264Y-70325767D01*
X106882811Y-70014698D01*
X107193880Y-69549151D01*
X107303113Y-69000000D01*
X107193880Y-68450849D01*
X107149881Y-68385000D01*
X114701576Y-68385000D01*
X114565250Y-68713309D01*
X114564752Y-69284187D01*
X114782757Y-69811800D01*
X115186077Y-70215824D01*
X115713309Y-70434750D01*
X116284187Y-70435248D01*
X116811800Y-70217243D01*
X117215824Y-69813923D01*
X117238215Y-69760000D01*
X117784700Y-69760000D01*
X118075539Y-69702148D01*
X118322101Y-69537401D01*
X118392252Y-69467250D01*
X118420853Y-69510054D01*
X118462452Y-69537850D01*
X118414683Y-69546838D01*
X118198559Y-69685910D01*
X118053569Y-69898110D01*
X118002560Y-70150000D01*
X118002560Y-71850000D01*
X118046838Y-72085317D01*
X118185910Y-72301441D01*
X118398110Y-72446431D01*
X118650000Y-72497440D01*
X120350000Y-72497440D01*
X120585317Y-72453162D01*
X120801441Y-72314090D01*
X120946431Y-72101890D01*
X120997440Y-71850000D01*
X120997440Y-70150000D01*
X120953162Y-69914683D01*
X120913600Y-69853202D01*
X121290000Y-69476802D01*
X121290000Y-76290000D01*
X97715074Y-76290000D01*
X97857423Y-76231041D01*
X98272389Y-75855134D01*
X98511914Y-75349041D01*
X98390629Y-75127000D01*
X97247000Y-75127000D01*
X97247000Y-75147000D01*
X96993000Y-75147000D01*
X96993000Y-75127000D01*
X96973000Y-75127000D01*
X96973000Y-74873000D01*
X96993000Y-74873000D01*
X96993000Y-73730085D01*
X97247000Y-73730085D01*
X97247000Y-74873000D01*
X98390629Y-74873000D01*
X98438287Y-74785750D01*
X103515000Y-74785750D01*
X103515000Y-75476309D01*
X103611673Y-75709698D01*
X103790301Y-75888327D01*
X104023690Y-75985000D01*
X104714250Y-75985000D01*
X104873000Y-75826250D01*
X104873000Y-74627000D01*
X103673750Y-74627000D01*
X103515000Y-74785750D01*
X98438287Y-74785750D01*
X98511914Y-74650959D01*
X98272389Y-74144866D01*
X97857423Y-73768959D01*
X97469039Y-73608096D01*
X97247000Y-73730085D01*
X96993000Y-73730085D01*
X96770961Y-73608096D01*
X96382577Y-73768959D01*
X95967611Y-74144866D01*
X95864986Y-74361703D01*
X95594698Y-73957189D01*
X95129151Y-73646120D01*
X94580000Y-73536887D01*
X94030849Y-73646120D01*
X93565302Y-73957189D01*
X93310000Y-74339275D01*
X93054698Y-73957189D01*
X92589151Y-73646120D01*
X92040000Y-73536887D01*
X91490849Y-73646120D01*
X91025302Y-73957189D01*
X90928899Y-74101465D01*
X90903162Y-73964683D01*
X90764090Y-73748559D01*
X90551890Y-73603569D01*
X90300000Y-73552560D01*
X88700000Y-73552560D01*
X88464683Y-73596838D01*
X88248559Y-73735910D01*
X88103569Y-73948110D01*
X88052560Y-74200000D01*
X88052560Y-75800000D01*
X88096838Y-76035317D01*
X88235910Y-76251441D01*
X88292343Y-76290000D01*
X79335074Y-76290000D01*
X79477423Y-76231041D01*
X79892389Y-75855134D01*
X80131914Y-75349041D01*
X80010629Y-75127000D01*
X78867000Y-75127000D01*
X78867000Y-75147000D01*
X78613000Y-75147000D01*
X78613000Y-75127000D01*
X78593000Y-75127000D01*
X78593000Y-74873000D01*
X78613000Y-74873000D01*
X78613000Y-73730085D01*
X78867000Y-73730085D01*
X78867000Y-74873000D01*
X80010629Y-74873000D01*
X80131914Y-74650959D01*
X80064134Y-74507745D01*
X84671861Y-74507745D01*
X84745995Y-74753864D01*
X85283223Y-74946965D01*
X85853454Y-74919778D01*
X86254005Y-74753864D01*
X86328139Y-74507745D01*
X85500000Y-73679605D01*
X84671861Y-74507745D01*
X80064134Y-74507745D01*
X79892389Y-74144866D01*
X79477423Y-73768959D01*
X79089039Y-73608096D01*
X78867000Y-73730085D01*
X78613000Y-73730085D01*
X78390961Y-73608096D01*
X78002577Y-73768959D01*
X77587611Y-74144866D01*
X77484986Y-74361703D01*
X77214698Y-73957189D01*
X76749151Y-73646120D01*
X76200000Y-73536887D01*
X75650849Y-73646120D01*
X75185302Y-73957189D01*
X74915014Y-74361703D01*
X74812389Y-74144866D01*
X74397423Y-73768959D01*
X74009039Y-73608096D01*
X73787000Y-73730085D01*
X73787000Y-74873000D01*
X73807000Y-74873000D01*
X73807000Y-75127000D01*
X73787000Y-75127000D01*
X73787000Y-75147000D01*
X73533000Y-75147000D01*
X73533000Y-75127000D01*
X73513000Y-75127000D01*
X73513000Y-74873000D01*
X73533000Y-74873000D01*
X73533000Y-73730085D01*
X73310961Y-73608096D01*
X72922577Y-73768959D01*
X72507611Y-74144866D01*
X72404986Y-74361703D01*
X72134698Y-73957189D01*
X71669151Y-73646120D01*
X71120000Y-73536887D01*
X70570849Y-73646120D01*
X70105302Y-73957189D01*
X69850000Y-74339275D01*
X69594698Y-73957189D01*
X69129151Y-73646120D01*
X68580000Y-73536887D01*
X68030849Y-73646120D01*
X67565302Y-73957189D01*
X67310000Y-74339275D01*
X67054698Y-73957189D01*
X66589151Y-73646120D01*
X66040000Y-73536887D01*
X65490849Y-73646120D01*
X65025302Y-73957189D01*
X64928899Y-74101465D01*
X64903162Y-73964683D01*
X64764090Y-73748559D01*
X64551890Y-73603569D01*
X64300000Y-73552560D01*
X62700000Y-73552560D01*
X62464683Y-73596838D01*
X62248559Y-73735910D01*
X62103569Y-73948110D01*
X62052560Y-74200000D01*
X62052560Y-75800000D01*
X62096838Y-76035317D01*
X62235910Y-76251441D01*
X62292343Y-76290000D01*
X50710000Y-76290000D01*
X50710000Y-74507745D01*
X58671861Y-74507745D01*
X58745995Y-74753864D01*
X59283223Y-74946965D01*
X59853454Y-74919778D01*
X60254005Y-74753864D01*
X60328139Y-74507745D01*
X59500000Y-73679605D01*
X58671861Y-74507745D01*
X50710000Y-74507745D01*
X50710000Y-73283223D01*
X58053035Y-73283223D01*
X58080222Y-73853454D01*
X58246136Y-74254005D01*
X58492255Y-74328139D01*
X59320395Y-73500000D01*
X59679605Y-73500000D01*
X60507745Y-74328139D01*
X60753864Y-74254005D01*
X60946965Y-73716777D01*
X60926295Y-73283223D01*
X84053035Y-73283223D01*
X84080222Y-73853454D01*
X84246136Y-74254005D01*
X84492255Y-74328139D01*
X85320395Y-73500000D01*
X85679605Y-73500000D01*
X86507745Y-74328139D01*
X86753864Y-74254005D01*
X86946965Y-73716777D01*
X86936999Y-73507745D01*
X100671861Y-73507745D01*
X100745995Y-73753864D01*
X101283223Y-73946965D01*
X101853454Y-73919778D01*
X102254005Y-73753864D01*
X102323335Y-73523691D01*
X103515000Y-73523691D01*
X103515000Y-74214250D01*
X103673750Y-74373000D01*
X104873000Y-74373000D01*
X104873000Y-73173750D01*
X105127000Y-73173750D01*
X105127000Y-74373000D01*
X105147000Y-74373000D01*
X105147000Y-74627000D01*
X105127000Y-74627000D01*
X105127000Y-75826250D01*
X105285750Y-75985000D01*
X105976310Y-75985000D01*
X106209699Y-75888327D01*
X106388327Y-75709698D01*
X106460597Y-75535223D01*
X106489946Y-75579147D01*
X106971715Y-75901054D01*
X107540000Y-76014093D01*
X108108285Y-75901054D01*
X108590054Y-75579147D01*
X108810000Y-75249974D01*
X109029946Y-75579147D01*
X109511715Y-75901054D01*
X110080000Y-76014093D01*
X110648285Y-75901054D01*
X111130054Y-75579147D01*
X111350000Y-75249974D01*
X111569946Y-75579147D01*
X112051715Y-75901054D01*
X112620000Y-76014093D01*
X113188285Y-75901054D01*
X113670054Y-75579147D01*
X113890000Y-75249974D01*
X114109946Y-75579147D01*
X114591715Y-75901054D01*
X115160000Y-76014093D01*
X115728285Y-75901054D01*
X116210054Y-75579147D01*
X116430000Y-75249974D01*
X116649946Y-75579147D01*
X117131715Y-75901054D01*
X117700000Y-76014093D01*
X118268285Y-75901054D01*
X118750054Y-75579147D01*
X119071961Y-75097378D01*
X119185000Y-74529093D01*
X119185000Y-74470907D01*
X119071961Y-73902622D01*
X118750054Y-73420853D01*
X118268285Y-73098946D01*
X117700000Y-72985907D01*
X117131715Y-73098946D01*
X116649946Y-73420853D01*
X116430000Y-73750026D01*
X116210054Y-73420853D01*
X115728285Y-73098946D01*
X115160000Y-72985907D01*
X114591715Y-73098946D01*
X114109946Y-73420853D01*
X113890000Y-73750026D01*
X113670054Y-73420853D01*
X113188285Y-73098946D01*
X112620000Y-72985907D01*
X112051715Y-73098946D01*
X111569946Y-73420853D01*
X111350000Y-73750026D01*
X111130054Y-73420853D01*
X110648285Y-73098946D01*
X110080000Y-72985907D01*
X109511715Y-73098946D01*
X109029946Y-73420853D01*
X108810000Y-73750026D01*
X108590054Y-73420853D01*
X108108285Y-73098946D01*
X107540000Y-72985907D01*
X106971715Y-73098946D01*
X106489946Y-73420853D01*
X106460597Y-73464777D01*
X106388327Y-73290302D01*
X106209699Y-73111673D01*
X105976310Y-73015000D01*
X105285750Y-73015000D01*
X105127000Y-73173750D01*
X104873000Y-73173750D01*
X104714250Y-73015000D01*
X104023690Y-73015000D01*
X103790301Y-73111673D01*
X103611673Y-73290302D01*
X103515000Y-73523691D01*
X102323335Y-73523691D01*
X102328139Y-73507745D01*
X101500000Y-72679605D01*
X100671861Y-73507745D01*
X86936999Y-73507745D01*
X86919778Y-73146546D01*
X86753864Y-72745995D01*
X86507745Y-72671861D01*
X85679605Y-73500000D01*
X85320395Y-73500000D01*
X84492255Y-72671861D01*
X84246136Y-72745995D01*
X84053035Y-73283223D01*
X60926295Y-73283223D01*
X60919778Y-73146546D01*
X60753864Y-72745995D01*
X60507745Y-72671861D01*
X59679605Y-73500000D01*
X59320395Y-73500000D01*
X58492255Y-72671861D01*
X58246136Y-72745995D01*
X58053035Y-73283223D01*
X50710000Y-73283223D01*
X50710000Y-72492255D01*
X58671861Y-72492255D01*
X59500000Y-73320395D01*
X60328139Y-72492255D01*
X84671861Y-72492255D01*
X85500000Y-73320395D01*
X86328139Y-72492255D01*
X86265177Y-72283223D01*
X100053035Y-72283223D01*
X100080222Y-72853454D01*
X100246136Y-73254005D01*
X100492255Y-73328139D01*
X101320395Y-72500000D01*
X101679605Y-72500000D01*
X102507745Y-73328139D01*
X102753864Y-73254005D01*
X102946965Y-72716777D01*
X102919778Y-72146546D01*
X102753864Y-71745995D01*
X102507745Y-71671861D01*
X101679605Y-72500000D01*
X101320395Y-72500000D01*
X100492255Y-71671861D01*
X100246136Y-71745995D01*
X100053035Y-72283223D01*
X86265177Y-72283223D01*
X86254005Y-72246136D01*
X85716777Y-72053035D01*
X85146546Y-72080222D01*
X84745995Y-72246136D01*
X84671861Y-72492255D01*
X60328139Y-72492255D01*
X60254005Y-72246136D01*
X59716777Y-72053035D01*
X59146546Y-72080222D01*
X58745995Y-72246136D01*
X58671861Y-72492255D01*
X50710000Y-72492255D01*
X50710000Y-71492255D01*
X100671861Y-71492255D01*
X101500000Y-72320395D01*
X102328139Y-71492255D01*
X102254005Y-71246136D01*
X101716777Y-71053035D01*
X101146546Y-71080222D01*
X100745995Y-71246136D01*
X100671861Y-71492255D01*
X50710000Y-71492255D01*
X50710000Y-34573690D01*
X52065000Y-34573690D01*
X52065000Y-35214250D01*
X52223750Y-35373000D01*
X53373000Y-35373000D01*
X53373000Y-34223750D01*
X53627000Y-34223750D01*
X53627000Y-35373000D01*
X54776250Y-35373000D01*
X54935000Y-35214250D01*
X54935000Y-34573690D01*
X54838327Y-34340301D01*
X54659698Y-34161673D01*
X54426309Y-34065000D01*
X53785750Y-34065000D01*
X53627000Y-34223750D01*
X53373000Y-34223750D01*
X53214250Y-34065000D01*
X52573691Y-34065000D01*
X52340302Y-34161673D01*
X52161673Y-34340301D01*
X52065000Y-34573690D01*
X50710000Y-34573690D01*
X50710000Y-30710000D01*
X121290000Y-30710000D01*
X121290000Y-32115789D01*
G36*
X66167000Y-67253000D02*
X66187000Y-67253000D01*
X66187000Y-67507000D01*
X66167000Y-67507000D01*
X66167000Y-67527000D01*
X65913000Y-67527000D01*
X65913000Y-67507000D01*
X65893000Y-67507000D01*
X65893000Y-67253000D01*
X65913000Y-67253000D01*
X65913000Y-67233000D01*
X66167000Y-67233000D01*
X66167000Y-67253000D01*
X66167000Y-67253000D01*
G37*
X66167000Y-67253000D02*
X66187000Y-67253000D01*
X66187000Y-67507000D01*
X66167000Y-67507000D01*
X66167000Y-67527000D01*
X65913000Y-67527000D01*
X65913000Y-67507000D01*
X65893000Y-67507000D01*
X65893000Y-67253000D01*
X65913000Y-67253000D01*
X65913000Y-67233000D01*
X66167000Y-67233000D01*
X66167000Y-67253000D01*
G36*
X76327000Y-67253000D02*
X76347000Y-67253000D01*
X76347000Y-67507000D01*
X76327000Y-67507000D01*
X76327000Y-67527000D01*
X76073000Y-67527000D01*
X76073000Y-67507000D01*
X76053000Y-67507000D01*
X76053000Y-67253000D01*
X76073000Y-67253000D01*
X76073000Y-67233000D01*
X76327000Y-67233000D01*
X76327000Y-67253000D01*
X76327000Y-67253000D01*
G37*
X76327000Y-67253000D02*
X76347000Y-67253000D01*
X76347000Y-67507000D01*
X76327000Y-67507000D01*
X76327000Y-67527000D01*
X76073000Y-67527000D01*
X76073000Y-67507000D01*
X76053000Y-67507000D01*
X76053000Y-67253000D01*
X76073000Y-67253000D01*
X76073000Y-67233000D01*
X76327000Y-67233000D01*
X76327000Y-67253000D01*
G36*
X71247000Y-67253000D02*
X71267000Y-67253000D01*
X71267000Y-67507000D01*
X71247000Y-67507000D01*
X71247000Y-67527000D01*
X70993000Y-67527000D01*
X70993000Y-67507000D01*
X70973000Y-67507000D01*
X70973000Y-67253000D01*
X70993000Y-67253000D01*
X70993000Y-67233000D01*
X71247000Y-67233000D01*
X71247000Y-67253000D01*
X71247000Y-67253000D01*
G37*
X71247000Y-67253000D02*
X71267000Y-67253000D01*
X71267000Y-67507000D01*
X71247000Y-67507000D01*
X71247000Y-67527000D01*
X70993000Y-67527000D01*
X70993000Y-67507000D01*
X70973000Y-67507000D01*
X70973000Y-67253000D01*
X70993000Y-67253000D01*
X70993000Y-67233000D01*
X71247000Y-67233000D01*
X71247000Y-67253000D01*
G36*
X75065000Y-63714250D02*
X75223750Y-63873000D01*
X76373000Y-63873000D01*
X76373000Y-63853000D01*
X76627000Y-63853000D01*
X76627000Y-63873000D01*
X76647000Y-63873000D01*
X76647000Y-64127000D01*
X76627000Y-64127000D01*
X76627000Y-64147000D01*
X76373000Y-64147000D01*
X76373000Y-64127000D01*
X75223750Y-64127000D01*
X75065000Y-64285750D01*
X75065000Y-64365400D01*
X74745580Y-64365400D01*
X74642017Y-64114757D01*
X74379227Y-63851508D01*
X74035699Y-63708862D01*
X73770173Y-63708631D01*
X73877779Y-63409261D01*
X74223167Y-63409562D01*
X74566943Y-63267517D01*
X74600118Y-63234400D01*
X75065000Y-63234400D01*
X75065000Y-63714250D01*
X75065000Y-63714250D01*
G37*
X75065000Y-63714250D02*
X75223750Y-63873000D01*
X76373000Y-63873000D01*
X76373000Y-63853000D01*
X76627000Y-63853000D01*
X76627000Y-63873000D01*
X76647000Y-63873000D01*
X76647000Y-64127000D01*
X76627000Y-64127000D01*
X76627000Y-64147000D01*
X76373000Y-64147000D01*
X76373000Y-64127000D01*
X75223750Y-64127000D01*
X75065000Y-64285750D01*
X75065000Y-64365400D01*
X74745580Y-64365400D01*
X74642017Y-64114757D01*
X74379227Y-63851508D01*
X74035699Y-63708862D01*
X73770173Y-63708631D01*
X73877779Y-63409261D01*
X74223167Y-63409562D01*
X74566943Y-63267517D01*
X74600118Y-63234400D01*
X75065000Y-63234400D01*
X75065000Y-63714250D01*
G36*
X99487000Y-63873000D02*
X99507000Y-63873000D01*
X99507000Y-64127000D01*
X99487000Y-64127000D01*
X99487000Y-64147000D01*
X99233000Y-64147000D01*
X99233000Y-64127000D01*
X99213000Y-64127000D01*
X99213000Y-63873000D01*
X99233000Y-63873000D01*
X99233000Y-63853000D01*
X99487000Y-63853000D01*
X99487000Y-63873000D01*
X99487000Y-63873000D01*
G37*
X99487000Y-63873000D02*
X99507000Y-63873000D01*
X99507000Y-64127000D01*
X99487000Y-64127000D01*
X99487000Y-64147000D01*
X99233000Y-64147000D01*
X99233000Y-64127000D01*
X99213000Y-64127000D01*
X99213000Y-63873000D01*
X99233000Y-63873000D01*
X99233000Y-63853000D01*
X99487000Y-63853000D01*
X99487000Y-63873000D01*
G36*
X72693748Y-62985858D02*
X72679605Y-63000000D01*
X72693748Y-63014142D01*
X72514142Y-63193748D01*
X72500000Y-63179605D01*
X72485858Y-63193748D01*
X72306252Y-63014142D01*
X72320395Y-63000000D01*
X72306253Y-62985858D01*
X72485858Y-62806253D01*
X72500000Y-62820395D01*
X72514143Y-62806253D01*
X72693748Y-62985858D01*
X72693748Y-62985858D01*
G37*
X72693748Y-62985858D02*
X72679605Y-63000000D01*
X72693748Y-63014142D01*
X72514142Y-63193748D01*
X72500000Y-63179605D01*
X72485858Y-63193748D01*
X72306252Y-63014142D01*
X72320395Y-63000000D01*
X72306253Y-62985858D01*
X72485858Y-62806253D01*
X72500000Y-62820395D01*
X72514143Y-62806253D01*
X72693748Y-62985858D01*
G36*
X77761626Y-43468928D02*
X77500000Y-43416887D01*
X76950849Y-43526120D01*
X76485302Y-43837189D01*
X76174233Y-44302736D01*
X76065000Y-44851887D01*
X76065000Y-44908113D01*
X76174233Y-45457264D01*
X76485302Y-45922811D01*
X76950849Y-46233880D01*
X77500000Y-46343113D01*
X78010000Y-46241668D01*
X78010000Y-46939500D01*
X78067852Y-47230339D01*
X78232599Y-47476901D01*
X81953501Y-51197803D01*
X81565302Y-51457189D01*
X81295014Y-51861703D01*
X81192389Y-51644866D01*
X80777423Y-51268959D01*
X80389039Y-51108096D01*
X80167000Y-51230085D01*
X80167000Y-52373000D01*
X80187000Y-52373000D01*
X80187000Y-52627000D01*
X80167000Y-52627000D01*
X80167000Y-52647000D01*
X79913000Y-52647000D01*
X79913000Y-52627000D01*
X77627000Y-52627000D01*
X77627000Y-52647000D01*
X77373000Y-52647000D01*
X77373000Y-52627000D01*
X76223750Y-52627000D01*
X76065000Y-52785750D01*
X76065000Y-53426309D01*
X76161673Y-53659698D01*
X76340301Y-53838327D01*
X76430527Y-53875700D01*
X70062777Y-53875700D01*
X70093880Y-53829151D01*
X70203113Y-53280000D01*
X70093880Y-52730849D01*
X69944807Y-52507745D01*
X72171861Y-52507745D01*
X72245995Y-52753864D01*
X72783223Y-52946965D01*
X73353454Y-52919778D01*
X73754005Y-52753864D01*
X73828139Y-52507745D01*
X73000000Y-51679605D01*
X72171861Y-52507745D01*
X69944807Y-52507745D01*
X69782811Y-52265302D01*
X69400725Y-52010000D01*
X69782811Y-51754698D01*
X70093880Y-51289151D01*
X70095059Y-51283223D01*
X71553035Y-51283223D01*
X71580222Y-51853454D01*
X71746136Y-52254005D01*
X71992255Y-52328139D01*
X72820395Y-51500000D01*
X73179605Y-51500000D01*
X74007745Y-52328139D01*
X74253864Y-52254005D01*
X74446965Y-51716777D01*
X74440144Y-51573691D01*
X76065000Y-51573691D01*
X76065000Y-52214250D01*
X76223750Y-52373000D01*
X77373000Y-52373000D01*
X77373000Y-51223750D01*
X77627000Y-51223750D01*
X77627000Y-52373000D01*
X79913000Y-52373000D01*
X79913000Y-51230085D01*
X79690961Y-51108096D01*
X79302577Y-51268959D01*
X78935000Y-51601938D01*
X78935000Y-51573691D01*
X78838327Y-51340302D01*
X78659699Y-51161673D01*
X78426310Y-51065000D01*
X77785750Y-51065000D01*
X77627000Y-51223750D01*
X77373000Y-51223750D01*
X77214250Y-51065000D01*
X76573690Y-51065000D01*
X76340301Y-51161673D01*
X76161673Y-51340302D01*
X76065000Y-51573691D01*
X74440144Y-51573691D01*
X74419778Y-51146546D01*
X74253864Y-50745995D01*
X74007745Y-50671861D01*
X73179605Y-51500000D01*
X72820395Y-51500000D01*
X71992255Y-50671861D01*
X71746136Y-50745995D01*
X71553035Y-51283223D01*
X70095059Y-51283223D01*
X70203113Y-50740000D01*
X70153834Y-50492255D01*
X72171861Y-50492255D01*
X73000000Y-51320395D01*
X73828139Y-50492255D01*
X73754005Y-50246136D01*
X73216777Y-50053035D01*
X72646546Y-50080222D01*
X72245995Y-50246136D01*
X72171861Y-50492255D01*
X70153834Y-50492255D01*
X70093880Y-50190849D01*
X69782811Y-49725302D01*
X69462947Y-49511576D01*
X69482022Y-49415679D01*
X69782811Y-49214698D01*
X70093880Y-48749151D01*
X70203113Y-48200000D01*
X70101668Y-47690000D01*
X70461800Y-47690000D01*
X70752639Y-47632148D01*
X70999201Y-47467401D01*
X71599154Y-46867448D01*
X71782757Y-47311800D01*
X72186077Y-47715824D01*
X72713309Y-47934750D01*
X73284187Y-47935248D01*
X73811800Y-47717243D01*
X74215824Y-47313923D01*
X74434750Y-46786691D01*
X74435248Y-46215813D01*
X74217243Y-45688200D01*
X73813923Y-45284176D01*
X73367710Y-45098892D01*
X76081302Y-42385300D01*
X76677998Y-42385300D01*
X77761626Y-43468928D01*
X77761626Y-43468928D01*
G37*
X77761626Y-43468928D02*
X77500000Y-43416887D01*
X76950849Y-43526120D01*
X76485302Y-43837189D01*
X76174233Y-44302736D01*
X76065000Y-44851887D01*
X76065000Y-44908113D01*
X76174233Y-45457264D01*
X76485302Y-45922811D01*
X76950849Y-46233880D01*
X77500000Y-46343113D01*
X78010000Y-46241668D01*
X78010000Y-46939500D01*
X78067852Y-47230339D01*
X78232599Y-47476901D01*
X81953501Y-51197803D01*
X81565302Y-51457189D01*
X81295014Y-51861703D01*
X81192389Y-51644866D01*
X80777423Y-51268959D01*
X80389039Y-51108096D01*
X80167000Y-51230085D01*
X80167000Y-52373000D01*
X80187000Y-52373000D01*
X80187000Y-52627000D01*
X80167000Y-52627000D01*
X80167000Y-52647000D01*
X79913000Y-52647000D01*
X79913000Y-52627000D01*
X77627000Y-52627000D01*
X77627000Y-52647000D01*
X77373000Y-52647000D01*
X77373000Y-52627000D01*
X76223750Y-52627000D01*
X76065000Y-52785750D01*
X76065000Y-53426309D01*
X76161673Y-53659698D01*
X76340301Y-53838327D01*
X76430527Y-53875700D01*
X70062777Y-53875700D01*
X70093880Y-53829151D01*
X70203113Y-53280000D01*
X70093880Y-52730849D01*
X69944807Y-52507745D01*
X72171861Y-52507745D01*
X72245995Y-52753864D01*
X72783223Y-52946965D01*
X73353454Y-52919778D01*
X73754005Y-52753864D01*
X73828139Y-52507745D01*
X73000000Y-51679605D01*
X72171861Y-52507745D01*
X69944807Y-52507745D01*
X69782811Y-52265302D01*
X69400725Y-52010000D01*
X69782811Y-51754698D01*
X70093880Y-51289151D01*
X70095059Y-51283223D01*
X71553035Y-51283223D01*
X71580222Y-51853454D01*
X71746136Y-52254005D01*
X71992255Y-52328139D01*
X72820395Y-51500000D01*
X73179605Y-51500000D01*
X74007745Y-52328139D01*
X74253864Y-52254005D01*
X74446965Y-51716777D01*
X74440144Y-51573691D01*
X76065000Y-51573691D01*
X76065000Y-52214250D01*
X76223750Y-52373000D01*
X77373000Y-52373000D01*
X77373000Y-51223750D01*
X77627000Y-51223750D01*
X77627000Y-52373000D01*
X79913000Y-52373000D01*
X79913000Y-51230085D01*
X79690961Y-51108096D01*
X79302577Y-51268959D01*
X78935000Y-51601938D01*
X78935000Y-51573691D01*
X78838327Y-51340302D01*
X78659699Y-51161673D01*
X78426310Y-51065000D01*
X77785750Y-51065000D01*
X77627000Y-51223750D01*
X77373000Y-51223750D01*
X77214250Y-51065000D01*
X76573690Y-51065000D01*
X76340301Y-51161673D01*
X76161673Y-51340302D01*
X76065000Y-51573691D01*
X74440144Y-51573691D01*
X74419778Y-51146546D01*
X74253864Y-50745995D01*
X74007745Y-50671861D01*
X73179605Y-51500000D01*
X72820395Y-51500000D01*
X71992255Y-50671861D01*
X71746136Y-50745995D01*
X71553035Y-51283223D01*
X70095059Y-51283223D01*
X70203113Y-50740000D01*
X70153834Y-50492255D01*
X72171861Y-50492255D01*
X73000000Y-51320395D01*
X73828139Y-50492255D01*
X73754005Y-50246136D01*
X73216777Y-50053035D01*
X72646546Y-50080222D01*
X72245995Y-50246136D01*
X72171861Y-50492255D01*
X70153834Y-50492255D01*
X70093880Y-50190849D01*
X69782811Y-49725302D01*
X69462947Y-49511576D01*
X69482022Y-49415679D01*
X69782811Y-49214698D01*
X70093880Y-48749151D01*
X70203113Y-48200000D01*
X70101668Y-47690000D01*
X70461800Y-47690000D01*
X70752639Y-47632148D01*
X70999201Y-47467401D01*
X71599154Y-46867448D01*
X71782757Y-47311800D01*
X72186077Y-47715824D01*
X72713309Y-47934750D01*
X73284187Y-47935248D01*
X73811800Y-47717243D01*
X74215824Y-47313923D01*
X74434750Y-46786691D01*
X74435248Y-46215813D01*
X74217243Y-45688200D01*
X73813923Y-45284176D01*
X73367710Y-45098892D01*
X76081302Y-42385300D01*
X76677998Y-42385300D01*
X77761626Y-43468928D01*
G36*
X97502560Y-52850000D02*
X97510952Y-52894600D01*
X94110352Y-52894600D01*
X94131914Y-52849041D01*
X94010629Y-52627000D01*
X92867000Y-52627000D01*
X92867000Y-52647000D01*
X92613000Y-52647000D01*
X92613000Y-52627000D01*
X92593000Y-52627000D01*
X92593000Y-52373000D01*
X92613000Y-52373000D01*
X92613000Y-52353000D01*
X92867000Y-52353000D01*
X92867000Y-52373000D01*
X94010629Y-52373000D01*
X94131914Y-52150959D01*
X93892389Y-51644866D01*
X93819790Y-51579100D01*
X97502560Y-51579100D01*
X97502560Y-52850000D01*
X97502560Y-52850000D01*
G37*
X97502560Y-52850000D02*
X97510952Y-52894600D01*
X94110352Y-52894600D01*
X94131914Y-52849041D01*
X94010629Y-52627000D01*
X92867000Y-52627000D01*
X92867000Y-52647000D01*
X92613000Y-52647000D01*
X92613000Y-52627000D01*
X92593000Y-52627000D01*
X92593000Y-52373000D01*
X92613000Y-52373000D01*
X92613000Y-52353000D01*
X92867000Y-52353000D01*
X92867000Y-52373000D01*
X94010629Y-52373000D01*
X94131914Y-52150959D01*
X93892389Y-51644866D01*
X93819790Y-51579100D01*
X97502560Y-51579100D01*
X97502560Y-52850000D01*
G36*
X117542784Y-38756386D02*
X117386120Y-38990849D01*
X117276887Y-39540000D01*
X117386120Y-40089151D01*
X117697189Y-40554698D01*
X117997978Y-40755679D01*
X118017053Y-40851576D01*
X117697189Y-41065302D01*
X117688223Y-41078721D01*
X117026801Y-40417299D01*
X116780239Y-40252552D01*
X116489400Y-40194700D01*
X104783354Y-40194700D01*
X104853880Y-40089151D01*
X104963113Y-39540000D01*
X104874413Y-39094077D01*
X105141690Y-38915490D01*
X108125787Y-35931392D01*
X108125790Y-35931390D01*
X108317633Y-35644275D01*
X108333402Y-35565000D01*
X108385001Y-35305600D01*
X108385000Y-35305595D01*
X108385000Y-34144171D01*
X108521663Y-34007745D01*
X109171861Y-34007745D01*
X109245995Y-34253864D01*
X109783223Y-34446965D01*
X110353454Y-34419778D01*
X110754005Y-34253864D01*
X110828139Y-34007745D01*
X110000000Y-33179605D01*
X109171861Y-34007745D01*
X108521663Y-34007745D01*
X108715824Y-33813923D01*
X108743423Y-33747456D01*
X108746136Y-33754005D01*
X108992255Y-33828139D01*
X109820395Y-33000000D01*
X109806252Y-32985858D01*
X109985858Y-32806253D01*
X110000000Y-32820395D01*
X110014143Y-32806253D01*
X110193748Y-32985858D01*
X110179605Y-33000000D01*
X111007745Y-33828139D01*
X111253864Y-33754005D01*
X111446965Y-33216777D01*
X111419778Y-32646546D01*
X111410468Y-32624070D01*
X117542784Y-38756386D01*
X117542784Y-38756386D01*
G37*
X117542784Y-38756386D02*
X117386120Y-38990849D01*
X117276887Y-39540000D01*
X117386120Y-40089151D01*
X117697189Y-40554698D01*
X117997978Y-40755679D01*
X118017053Y-40851576D01*
X117697189Y-41065302D01*
X117688223Y-41078721D01*
X117026801Y-40417299D01*
X116780239Y-40252552D01*
X116489400Y-40194700D01*
X104783354Y-40194700D01*
X104853880Y-40089151D01*
X104963113Y-39540000D01*
X104874413Y-39094077D01*
X105141690Y-38915490D01*
X108125787Y-35931392D01*
X108125790Y-35931390D01*
X108317633Y-35644275D01*
X108333402Y-35565000D01*
X108385001Y-35305600D01*
X108385000Y-35305595D01*
X108385000Y-34144171D01*
X108521663Y-34007745D01*
X109171861Y-34007745D01*
X109245995Y-34253864D01*
X109783223Y-34446965D01*
X110353454Y-34419778D01*
X110754005Y-34253864D01*
X110828139Y-34007745D01*
X110000000Y-33179605D01*
X109171861Y-34007745D01*
X108521663Y-34007745D01*
X108715824Y-33813923D01*
X108743423Y-33747456D01*
X108746136Y-33754005D01*
X108992255Y-33828139D01*
X109820395Y-33000000D01*
X109806252Y-32985858D01*
X109985858Y-32806253D01*
X110000000Y-32820395D01*
X110014143Y-32806253D01*
X110193748Y-32985858D01*
X110179605Y-33000000D01*
X111007745Y-33828139D01*
X111253864Y-33754005D01*
X111446965Y-33216777D01*
X111419778Y-32646546D01*
X111410468Y-32624070D01*
X117542784Y-38756386D01*
G36*
X98987000Y-40373000D02*
X99007000Y-40373000D01*
X99007000Y-40627000D01*
X98987000Y-40627000D01*
X98987000Y-40647000D01*
X98733000Y-40647000D01*
X98733000Y-40627000D01*
X98713000Y-40627000D01*
X98713000Y-40373000D01*
X98733000Y-40373000D01*
X98733000Y-40353000D01*
X98987000Y-40353000D01*
X98987000Y-40373000D01*
X98987000Y-40373000D01*
G37*
X98987000Y-40373000D02*
X99007000Y-40373000D01*
X99007000Y-40627000D01*
X98987000Y-40627000D01*
X98987000Y-40647000D01*
X98733000Y-40647000D01*
X98733000Y-40627000D01*
X98713000Y-40627000D01*
X98713000Y-40373000D01*
X98733000Y-40373000D01*
X98733000Y-40353000D01*
X98987000Y-40353000D01*
X98987000Y-40373000D01*
G36*
X101053035Y-32783223D02*
X101080222Y-33353454D01*
X101246136Y-33754005D01*
X101492255Y-33828139D01*
X102320395Y-33000000D01*
X102306252Y-32985858D01*
X102485858Y-32806253D01*
X102500000Y-32820395D01*
X102514143Y-32806253D01*
X102693748Y-32985858D01*
X102679605Y-33000000D01*
X103507745Y-33828139D01*
X103753864Y-33754005D01*
X103946965Y-33216777D01*
X103919778Y-32646546D01*
X103861438Y-32505700D01*
X106151457Y-32505700D01*
X106065250Y-32713309D01*
X106064752Y-33284187D01*
X106282757Y-33811800D01*
X106615000Y-34144623D01*
X106615000Y-34939021D01*
X104935000Y-36619020D01*
X104935000Y-36073690D01*
X104838327Y-35840301D01*
X104659698Y-35661673D01*
X104426309Y-35565000D01*
X103785750Y-35565000D01*
X103627000Y-35723750D01*
X103627000Y-36873000D01*
X103647000Y-36873000D01*
X103647000Y-37127000D01*
X103627000Y-37127000D01*
X103627000Y-37147000D01*
X103373000Y-37147000D01*
X103373000Y-37127000D01*
X102223750Y-37127000D01*
X102065000Y-37285750D01*
X102065000Y-37404700D01*
X100516279Y-37404700D01*
X99185270Y-36073690D01*
X102065000Y-36073690D01*
X102065000Y-36714250D01*
X102223750Y-36873000D01*
X103373000Y-36873000D01*
X103373000Y-35723750D01*
X103214250Y-35565000D01*
X102573691Y-35565000D01*
X102340302Y-35661673D01*
X102161673Y-35840301D01*
X102065000Y-36073690D01*
X99185270Y-36073690D01*
X97154677Y-34043097D01*
X97334698Y-33922811D01*
X97590000Y-33540725D01*
X97845302Y-33922811D01*
X98310849Y-34233880D01*
X98860000Y-34343113D01*
X99409151Y-34233880D01*
X99747585Y-34007745D01*
X101671861Y-34007745D01*
X101745995Y-34253864D01*
X102283223Y-34446965D01*
X102853454Y-34419778D01*
X103254005Y-34253864D01*
X103328139Y-34007745D01*
X102500000Y-33179605D01*
X101671861Y-34007745D01*
X99747585Y-34007745D01*
X99874698Y-33922811D01*
X100185767Y-33457264D01*
X100295000Y-32908113D01*
X100295000Y-32851887D01*
X100226139Y-32505700D01*
X101152788Y-32505700D01*
X101053035Y-32783223D01*
X101053035Y-32783223D01*
G37*
X101053035Y-32783223D02*
X101080222Y-33353454D01*
X101246136Y-33754005D01*
X101492255Y-33828139D01*
X102320395Y-33000000D01*
X102306252Y-32985858D01*
X102485858Y-32806253D01*
X102500000Y-32820395D01*
X102514143Y-32806253D01*
X102693748Y-32985858D01*
X102679605Y-33000000D01*
X103507745Y-33828139D01*
X103753864Y-33754005D01*
X103946965Y-33216777D01*
X103919778Y-32646546D01*
X103861438Y-32505700D01*
X106151457Y-32505700D01*
X106065250Y-32713309D01*
X106064752Y-33284187D01*
X106282757Y-33811800D01*
X106615000Y-34144623D01*
X106615000Y-34939021D01*
X104935000Y-36619020D01*
X104935000Y-36073690D01*
X104838327Y-35840301D01*
X104659698Y-35661673D01*
X104426309Y-35565000D01*
X103785750Y-35565000D01*
X103627000Y-35723750D01*
X103627000Y-36873000D01*
X103647000Y-36873000D01*
X103647000Y-37127000D01*
X103627000Y-37127000D01*
X103627000Y-37147000D01*
X103373000Y-37147000D01*
X103373000Y-37127000D01*
X102223750Y-37127000D01*
X102065000Y-37285750D01*
X102065000Y-37404700D01*
X100516279Y-37404700D01*
X99185270Y-36073690D01*
X102065000Y-36073690D01*
X102065000Y-36714250D01*
X102223750Y-36873000D01*
X103373000Y-36873000D01*
X103373000Y-35723750D01*
X103214250Y-35565000D01*
X102573691Y-35565000D01*
X102340302Y-35661673D01*
X102161673Y-35840301D01*
X102065000Y-36073690D01*
X99185270Y-36073690D01*
X97154677Y-34043097D01*
X97334698Y-33922811D01*
X97590000Y-33540725D01*
X97845302Y-33922811D01*
X98310849Y-34233880D01*
X98860000Y-34343113D01*
X99409151Y-34233880D01*
X99747585Y-34007745D01*
X101671861Y-34007745D01*
X101745995Y-34253864D01*
X102283223Y-34446965D01*
X102853454Y-34419778D01*
X103254005Y-34253864D01*
X103328139Y-34007745D01*
X102500000Y-33179605D01*
X101671861Y-34007745D01*
X99747585Y-34007745D01*
X99874698Y-33922811D01*
X100185767Y-33457264D01*
X100295000Y-32908113D01*
X100295000Y-32851887D01*
X100226139Y-32505700D01*
X101152788Y-32505700D01*
X101053035Y-32783223D01*
M02*
